<svg width="794" height="901" viewBox="0 0 794 901" fill="none" xmlns="http://www.w3.org/2000/svg"><path d="M648.9 806c-.5-.8-1.2-.7-1.9-.4-2.7.9-5.5 1.8-8.2 2.7-.6-.2-.8-.8-1.1-1.3-2-4.1-3-4.6-7.6-3.7-.7.1-1.4.3-2.1 0-1.9-1.9-3.8-3.8-6.3-4.9-1-.5-1.8-1.2-2.5-2.1-9.5-10.9-21.9-15.5-35.8-16.9-4.7-.5-9.4.4-14.1.1-1.2-1.6.4-2.3 1-3.4.4-.8 1.4-1.6.5-2.6-.7-.7-1.6-.3-2.4-.1-3.7 1-7 2.8-10.3 4.6-12.9 7.1-24.7 15.6-35 26.1-9.1 9.4-16 20.2-20.1 32.7-1.4 4.2-1.7 8.6 0 12.9.2.5.9 1.3-.2 1.8-3.5.8-7.1.9-10.7.7-6.2-6.7-14.3-6.3-22.3-5.8-5 .3-10 .8-14.9-.5-8.3-2.2-16.4-1.7-24.5 1-3 1-6.1 1.6-9.3.7-8.3-2.5-16.6-2.1-24.9-.2-2.7.6-5.5 1.3-8.2 2-3.5.9-6.9.9-10.4-.4-6.4-2.3-12.9-2.1-19.4-.6-6.3 1.5-12.4 3.7-18.2 6.5-1.1.5-2.2 1-3.4 1.4-3.9 1.1-5.1.2-4.9-3.8.4-10-3.9-18.4-9.9-25.7-8.8-10.7-20.2-17.9-34.3-19.9-5.5-.8-11-.9-15.7 2.7-5.1 4.1-9.5 9.2-15.2 12.5-9 5.2-18.7 8.2-28.7 10.4-11 2.5-22.2 4.7-33.4 6.4-4.3.7-8.7 1.3-13.1 1.2-3.2 0-6.1.4-8.4 2.8-.7.7-1.5 1.3-2.6.7-.6-.3-1.3-.8-1.4.5 0 .6 0 1.1-.6 1.5-3.8-11-14.6-13.7-23-19.1a9.66 9.66 0 0 0-6.7-1.1c-6.4 1-12-1.2-17.1-4.7-3.6-2.5-7.9-4.3-9.9-8.8.8-1.7 2.5-1.8 4-2.2 6-1.6 12-3.1 18-4.7 14.9-4 27.3-12.2 38.3-22.6 5.2-4.9 10.3-10 13.6-16.6 6.1-12.1 2.1-24.2-9.9-29.6a89.4 89.4 0 0 0-16.6-5.4c-2.7-.6-5.5-1.1-8.3-1.6-1.1-.2-2.9 0-2.9-1.5 0-1.3 1.6-1.7 2.8-2 10.8-3.2 21.1-7.6 30.3-14.2 4.1-2.9 7.8-6.3 10.4-10.7 5.9-9.7 4.1-20.8-4.3-28.4-4.8-4.4-10.6-6.9-16.8-8.4a100 100 0 0 0-23.1-2.8c-40-.3-78.7 7.2-116.3 20.4-3.7 1.3-7.3 2.6-11.1 3.6-3.9-.3-4.4-1-4.1-5 1.1-14.2 4.1-28.1 6.8-42 .7-3.6 1.1-7.2 1-10.9-.2-4.6-.8-5.2-5.4-4.9-.3-.6-.8-.9-1.3-1.2 4-4.2 6.9-9.1 9.3-14.4 1.4-3.2 2.6-6.3.6-9.7-.9-1.6-.1-3.1.6-4.5 1.8-3.3 3.7-6.5 5.3-10 2.9-6.2 1.3-10.2-5-12.6-3.1-1.1-3.4-2-1.8-4.9 1.7-3.1 3.7-6 5.7-8.9 3.3-5 6.3-10.1 8.2-15.8.3-1 .7-2.1 1.7-2.8 3.1-.8 5.9.9 9 .9 9.1.2 17.8-2.3 26.7-3.8 25.3-4.2 50.3-9.7 74-19.7 22.8-9.6 44.6-21.1 64-36.9 11.9-9.7 23.9-19.2 34.8-30 7.2-7.1 13.9-14.6 21.3-21.6 14.1-13.4 27.3-27.7 41.6-40.9 7.2-6.6 15.3-12.1 22.4-18.8 9.8-9.2 22.5-12.3 34.4-17.2 5.7-2.3 11.5-4.7 17.7-5.6 9.9-1.4 19.8-1.1 29.8 0 15.9 1.8 30.8 6.1 44.1 15.2 5 3.5 9.4 7.7 13.8 11.9 7.1 6.7 13.9 13.6 20.7 20.6 6.9 7.1 14.6 13.2 22.2 19.6 6.8 5.7 14.6 9.8 22.8 13 16.4 6.5 32.8 13.1 49.4 19.2 20.1 7.4 40.8 12.2 61.8 15.9 12.6 2.3 25.3 2.6 38.2 1.7 13-.9 26-1.3 38.9-3.1 3.1-.4 6.2-1.2 9.3-1.7 1.6-.3 3.1-.7 4.6.2 1.4 1.1 1.4 2.8 1.8 4.3 3.5 16.1 6.2 32.5 8.9 48.7.2 1.3.3 2.7.3 4-.1 12 3.5 22.6 12.2 31.2 6.3 6.3 4.8 6.1.3 12.2-3.2 1.3-6.6 1.5-10 1.5-5.3 0-10.4.8-15.5 2.2-17.4 5.1-34.8 10.1-51.3 17.9-4.6 2.2-8.7 5.3-13.4 7.5-1.4.7-2.6 1.9-3.4 3.2a25.2 25.2 0 0 1-4.3 4.9c-6.1 5.3-7 12.7-2.3 19.3 5.2 7.3 12.6 12 20.4 16.2 15.4 8.2 32 13.7 48.2 20.1 7.5 2.9 15 5.9 22.4 9 .8.3 1.6.7 2.3 1.1.7.4 1.6.9 1.5 1.9-.1 1-1.2 1.2-2 1.2-3.6.3-7.2.9-10.9.9-10.6-.1-21.2-.5-31.7 1.5-11.4 2.2-22.1 6-31.2 13.5-6.7 5.6-8 11.1-4.6 19.1.7 1.6 1.1 3.2 1.2 4.9.2 6.7 3.4 11.5 9.2 14.8 9.6 5.4 20.1 8.7 30.5 12.1 8.1 2.6 16.4 4.5 24.8 6.1 1.4.3 2.9.4 3.9 1.7 0 .1.1.3 0 .4-10 7.7-17.8 17.7-26.1 27-2.8 3.1-6.9 4.5-9.6 7.7-.3.1-.7.2-1 .1-1.9-.8-3.5-.3-4.9 1.2-3 3.2-6.8 5.5-10.2 8.3-1.6 1.3-3.2 1.8-5.4 1.1-3-1.1-6-.6-8.6 1.4-3.2 2.4-6.7 4.4-10.5 6-5.3 2.3-9.8 5.8-14.3 9.3-.5.1-1.1 0-1.5-.3-2.4-2.5-2.6-2.4-4.1.6-1.6 2.2-1.8 5.2-5.1 5.7Z" fill="#FDC797"/><path d="M742.4 456.7c-3.6.1-6.9 1.2-10.4 1.7-5.5.8-11 1.6-16.6 2-8.7.7-17.5 1-26.2 1.6-7.1.5-14.1.7-21.1.3-8.5-.4-16.9-1.8-25.2-3.6-15.4-3.2-30.9-6.6-45.8-11.8-13.9-4.8-27.7-10-41.1-15.9-5-2.2-10.3-3.6-15.3-5.8-9.5-4.1-18.4-9.1-26.5-15.8-9.3-7.7-18.1-15.9-26.5-24.5-4.9-5.1-10-9.9-15-14.9-9.3-9.4-20.4-16.1-32.7-20.7-4.4-1.7-9.2-2.2-13.8-3.1-7.7-1.6-15.6-2.2-23.4-2.7-4.2-.3-8.5.4-12.7.9-10.8 1.2-20.4 6.1-30.4 9.7-3.4 1.3-6.7 2.8-10.2 4-5.5 2-9.7 5.9-14.1 9.5-6.7 5.5-13.5 10.8-19.9 16.4a284.8 284.8 0 0 0-16.9 16.1c-5.8 6.1-11.7 12-17.8 17.8-8 7.6-15.9 15.4-23.5 23.5-9.2 9.7-19.1 18.7-29.4 27.1-10.6 8.7-21.2 17.5-32.8 24.8-4.4 2.8-8.9 5.4-13.6 7.8-10.3 5.2-20.4 11-31.2 15-14.7 5.5-29.5 10.5-44.9 13.6-7.1 1.4-14.2 3.2-21.3 4.5-8.8 1.6-17.6 3.4-26.5 4.7-5.3.7-10.7.5-15.8-1.4-1.4-2-.7-3.6.8-5.2 3.7 1.3 7.4 1 10.8.4-3.4-.8-7.4-1-10.7-3.2-1.1-8.6-.5-17.2 1-25.7 1.7-10 2.3-20.1 2.6-30.1.5-16.8 2.3-33.5 4.7-50.1 2.6-18 6-35.8 10.2-53.4 4.4-18.4 11.7-35.9 18.2-53.5 5.7-15.4 13-30.2 19.7-45.2 2.8-6.2 6.8-11.8 9.6-18 .8-1.7 2.3-2.4 4-2.9 2.6-.7 4.9-1.8 5.2-4.9.3-3.1-2-4.4-4.2-5.8-8.1-5.3-16.4-10-25.1-14.3-11.8-5.7-20.3-15.3-29.2-24.5A77.28 77.28 0 0 1 45.6 181c-1.4-2.8-1.6-6.4-5.5-7.6-1.2-.4-1-2.3-1.3-3.6-.8-3.6-2.9-5.9-6.7-6.1-3-.1-4-1.7-4-4.5 0-1.6.3-3.1.5-4.7.3-2.2.7-4.4-.6-6.4-1-1-1.2-2.1-.9-3.6.7-3.8-.1-5-3.7-6.3-2-.7-4-.8-6.1-1.1-3-.5-3.6-1.7-2-4.2 1.3-2.2 2.4-4.5 4.4-6.2.8-.7 1.3-1.4 1-2.5-.4-1.4.4-2.6 1.1-3.7 2.8-4.8 2.8-5.8-.6-10-.3-.4-.5-.8-.6-1.3.3-3.4 3.1-4.5 5.4-5.8 5.5-3.2 11.4-5.5 17.2-8.1 2.6-1.2 5.1-2.3 7.5-3.7 7.3-4.5 15.2-7.6 23.4-10 5.8-1.6 11.6-2.6 17.6-2.5 8.9.2 17.8.4 26.7 0 18.6-.8 35.2 5.1 51.1 14 7.1 4 13.5 9.1 20 14.1 6.7 5.1 9.4 4.8 16.1-.4 27.3-21.5 55.5-41.7 87.5-55.9 15.4-6.9 31.6-11.2 47.7-16 7.7-2.3 15.5-3.8 22.6-8.2 3.6-2.3 8.2-2.8 12.6-3.5.4 0 .7 0 1.1.1 1.6.5 3.1.6 4.6-.2 2.5-.9 5-2.1 7.7-2.3 2.1-.1 3.6.9 4.3 2.8 1.7 4.6 5.4 6 9.8 6.4 3.2.3 6.3.3 9.5-.1 5.7-.8 11.4-.6 17.1-.2 4.2.5 7.5 2.1 9.3 6.4 1.2 2.8 4.2 4 7.1 4.6 14.8 2.9 28.2 9.6 42.2 14.7 16.4 6 32.6 12.8 48.7 19.5 1.6.6 3 1.5 4.3 2.6 3.5 3.1 7.3 5.4 11.7 6.8 4.1 3 8.5 2.5 12.9 1.2 7.3-2.2 14.4-5.3 21.5-8 24.1-8.9 48.6-16.4 74.1-20 13.3-1.9 26.6-2.1 40-1.8 1.3 0 2.7 0 3.6 1.3-1.8 2.6-4.6 1.3-6.9 1.3-2.3 0 .5 1.2-.5 1.4-1.1 1.1-2.5.9-3.8.7-15.2-1.6-30.1 0-44.6 4.6-9.7 3.1-17.5 9.4-25.3 15.5-7.9 6.2-15.3 13.1-20.9 21.7-1.1 1.6-2.1 3.3-2.5 5.2-.3 1.2-.7 2.5.5 3.4 1.2.9 2.4.1 3.3-.6 2.8-1.9 5.3-4.2 7.9-6.4 1.9-1.7 3.5-4.1 6.5-4 .1 2.8 1.2 4.6 4.4 4.3.9-.1 1.9.2 2.1 1.4-.9 1.2-2.1 1.1-3.3 1-4.3-.1-7.7 2-11 4.4-1.2.9-2.4 1.9-1.9 3.6.5 1.6 2 2 3.4 2.4.7.2 1.4.2 2.2.2 2.4-.1 3.8.9 4.3 3.4 1.1 5.1 4.8 7.7 9.5 9 4.2 1.2 5.8.5 8.1-3.3 3.1.2 2.8 3.2 4.2 4.9.2 1.7-.8 3-1.4 4.4-.6 1.4-1.3 2.9-1.4 4.5-.1 1.6.3 3.2 1.7 4.2 1.5 1 3 .5 4.4-.3.9-.5 1.7-1.3 2.8-1.6 2-.3 3.8.5 5.5 1.4.6 1.3-.1 2.3-.5 3.5-.4 1.3-.9 2.5-.9 3.9.1 1.5.6 2.9 2.1 3.5 1.7.7 2.6-.6 3.6-1.7 1.5-1.7 1.9-4.3 4.3-5.1 4.8 1.9 9.6.4 14.3-.4 5.6-.9 8.3-3.4 9.4-10.5 1.5-9.8 4.9-18.3 12.5-25.1 4.7-4.1 6.3-10.3 8.3-16.1.8-2.3 1.5-4.7 3-6.6 3.7-4.4 4.8-9.7 6.1-15.1 1.3-5.6-1.7-11.6-6.8-14.5-.9-.5-2.9-.4-1.9-2.5 3-1.3 6-.2 9 .1 9.5 1 18.7 3.2 27.9 5.7 2 .5 4 1.3 5 3.3 1 1.8 1.9 3.6 3.4 5.1 1.2 1.1 1.5 2.5 1.3 4-.4 4.3 1.3 7.7 4 10.8.9 1 2.2 2 1.8 3.7-.1.6 0 1.2-.2 1.7-1.1 2.4.5 2.7 2.1 3.1-.6 1.2-1.8 1-2.9 1.2-5.9.9-7.4 3-5.4 8.7 1.3 3.9.8 7.1-1.7 10.1-1.9 0-2 1.7-2.7 2.8-1.2 1.9-2.4 3.9-3.3 6-.6 1-1.1 2.1-1.6 3.2-2.5 3.2-3.2 7.5-6.4 10.2-4.3.8-5.3 2.1-5.6 6.5-.1 2 .5 4.1-.5 6-1.4.8-2.7 1.6-4.1 2.5-1.4-1.5-.4-3.2-.4-4.9 0-1.1 0-2.3-1.2-2.8s-2.1.2-2.9 1.1c-1.5 1.6-2.8 3.4-3.9 5.3-10.1 15.8-21 31-33 45.5-2.3 2.7-4.1 5.7-6 8.7-1.9 3.1-2 5.9-.5 9.3 6.4 14.5 13.2 28.8 19.5 43.3 6.5 15 10.9 30.7 14.2 46.7 3.9 18.6 8.9 36.9 13 55.5 4.2 19.1 7 38.6 11 57.7 2.4 11.7 4.7 23.4 6.7 35.1.2 1.8.8 3.3-.5 4.5Z" fill="#FF9E4B"/><path d="M20.1 684.1c18.9-6.9 38.1-13.2 58-17 9.3-1.7 18.6-3.5 27.9-4.8 5.6-.8 11.3-1.2 17-1.8 9.4-1 18.7-.7 28.1-.5 9.2.2 18.4 1.5 27 5.1 5.8 2.4 10.8 6 14.3 11.4 5.5 8.5 5 17-.3 25.3-3.9 6.1-9.7 10.1-15.8 13.8-8.2 4.9-16.9 8.5-26.1 11-.4.1-.8.4-1.9 1 6.1.7 11.4 1.8 16.7 3.2 5.9 1.6 11.6 3.6 16.6 7.2 6.5 4.7 9.4 12.4 7.9 20.2-1.3 6.8-4.7 12.5-9.3 17.5-7.6 8.3-16 15.6-25.7 21.4-8.3 5-17.4 8-26.7 10.4-5.2 1.3-10.4 2.2-15.5 4.1-1.6.9-2.3-.6-3.3-1.3-6.7-5.2-12.1-4.9-18 1.1-2.9 3-3.8 3.1-6.6-.2-3-3.5-5.8-7.1-8.4-11-3.7-5.6-7.3-11.2-11.4-16.4-1.1-1.4-2.3-2.7-4.3-2.1-2.1.7-1.9 2.6-2 4.3-.1 1.6.4 3.1.8 4.6.3 1.2 1.2 2.5.3 3.8-2.7.4-5-.3-7-2.1.1-7.7-4.2-13.4-8.5-19.3-5.6-7.8-10.3-16.2-13.7-25.3-.6-1.6-1.4-3.1-3.1-3.9-2.1-1-2.9-2.8-2.9-5.1.1-13.1-.6-26.3 1.2-39.3.5-3.7.7-7.5-1.3-11-.9-1.8-3.5-2.1-4-4.3ZM749.8 738c-2.5-1.5-5.3-1.5-8-2.1a222.6 222.6 0 0 1-48.4-15.7c-3.9-1.8-7.7-4.1-10.1-8.1-1.8-3-2.8-6.2-2.7-9.6.1-1.7-.6-3.1-1.3-4.5-3.7-7.5-1.8-14.3 4.6-19.8 8.2-7 17.9-10.7 28.1-13.3 6.1-1.6 12.4-2.1 18.7-2.2 5.6-.2 11.2-.2 16.8 0 4.2.1 8.3-.8 12.6-1.2-2.9-2.1-6.2-3.2-9.4-4.5-15.8-6.2-31.7-12.2-47.5-18.6-10.1-4.1-20.1-8.6-28.9-15.3-3.7-2.8-7-5.9-9.7-9.7-4.4-6.4-3.4-15.1 3.4-20.4 1.4-1.1 2.6-2.1 3.3-3.7.8-1.7 2.1-3.1 3.7-3.9 4.6-2.1 8.7-4.9 13-7.4 6.7-3.8 14.1-6.1 21.3-8.6 11.5-4 23-7.9 34.8-10.7 3.2-.7 6.4-1.5 9.7-1.3 3.9.2 7.7-.9 11.6-.7 1.2 1.2.5 2.8.5 4.1 0 6.1 1.7 11.2 7.2 14.5.5.3 1 .7 1.1 1.4l.9 6.3c-4.1 1.3-4.6 2.1-3.6 6.6 1.9 8.8 4.2 17.5 6.2 26.2 1.4 6.4 2.6 12.9 3.4 19.4.7 5-.1 6.5-4.5 8.7-3.3 1.7-4.9 4.2-4.8 7.9.3 8.6 3.1 16.6 6.3 24.6.4 1.1 1.4 2 1.1 3.4-.2 1-.4 2.1-.7 3.1-.9.1-1.2-.6-1.7-1.1-.8-.9-1.4-2.1-2.9-1.7-1.5.4-1.9 1.8-2.1 3.1-1 4.9-1 9.9-1.4 14.8-.2 2.8-.2 5.6.3 8.4.2 1.1.3 2.2-.7 3-1.8 2.2-1.7 5.2-3.4 7.4-1.4-.9-1.4-2.5-1.9-3.8-1.1-2.6-2.9-2.9-4.6-.6-1.6 2.1-2.4 4.5-3 7-1.2 5.1-2.6 10.1-4.5 15-.4 1.5-.5 3.5-2.8 3.6Z" fill="#FF9F4B"/><path d="M28.4 147.7c1.6.4 1.5 1.8 1.5 2.9-.1 1.7-.2 3.4-.5 5.1-.4 1.8-.4 3.6-.5 5.4 0 1.3.3 1.9 1.8 2 7 .4 8.6 2.1 9.1 9 0 .4.1.7.2 1.4 1.1.2 2.5-.5 3.6.6 1 1 1.3 2.3 1.5 3.6.1.5.2.9.5 1.4 3.4 6.6 6.4 13.4 11.8 18.7 4.5 4.5 8.8 9.1 13.2 13.7 5.6 5.8 12.1 10.6 19.4 14 9 4.2 17.3 9.5 25.6 14.7 2.2 1.4 3.6 3.3 3.3 6-.3 2.7-2.1 4.3-4.6 5.1-.8.3-1.6.5-2.5.6-1.3 0-1.9.7-2.3 1.9-.9 2.7-2.4 5-3.9 7.4-5.6 9.3-9.6 19.4-14.2 29.2-9.2 19.8-16.8 40.2-23.9 60.8-5.7 16.6-9.2 33.8-12.3 51-2.6 14.2-4.6 28.6-6.3 42.9-.8 6.5-1.3 13.1-1.6 19.6-.4 9.5-.7 19-1.5 28.4-.4 4.9-1.4 9.6-1.9 14.5-.5 5.5-1.8 11.1-.6 16.7.4 1.8-.7 3.6-.4 5.4.6 1.1.7 2.1-.4 3-.7 1.6-.7 3.3-1.1 4.9-2.1 7.2-5.9 13.6-10 19.8-2.2 3.4-4.7 6.8-6.3 10.6 1.3.8 2.5.7 3.7 1.1 3.7 1 5.7 3.6 6 7.3.2 2.7-.6 5.1-1.8 7.3-1.7 3.2-3.5 6.4-5.3 9.6-.8 1.4-1.1 2.6.1 4 1.1 1.4 1.4 3.2.8 4.9-2 5.6-4.3 11.1-8.2 15.8-1 1.2-2.2 2.2-3.7 2.9-3 .1-4.3-1.7-4.9-4.4-.9-3.6 0-7 1.5-10.3.8-1.7.9-3 0-4.8-1.4-2.7-.9-5.7 0-8.5 1.3-4.2 3.7-7.9 5.9-11.7-.4-1.1-1.4-.9-2.2-1.2-5.3-1.8-7.6-6.1-6.3-11.5.8-3.1 2.2-5.9 4-8.6a247 247 0 0 1 7.2-10.6c3.2-4.6 6.5-9.1 9.2-14.1 1.3-2.5 2.3-5 2.6-7.9.2-2.8.7-5.5 1.1-8.3.2-1.3.2-2.6-.4-3.9-1.7-3.9-2.1-8-1.9-12.2.3-8.9.7-17.8 1.2-26.6.6-11.8 1.1-23.6 2.7-35.3 4.4-32.5 9.5-64.8 20.5-95.8 9.4-26.5 20.4-52.4 34.3-76.9 3.2-5.6 6.5-11.1 11.8-15.2.4-.3.7-.7 1-1 .9-.9 1-1.7-.3-2.3-.6-.3-1.3-.6-2-1-6.1-3-12.2-6.1-18.3-9a74.81 74.81 0 0 1-25.9-20.4c-3.7-4.6-7.5-9.3-11.1-14-6.1-8-9.7-16.8-8.4-27.5-3.1-.4-5.3-2-6.4-5-.3-.8-.9-1-1.8-.7-5.6 1.8-9.2-1-9.4-8-.2-5.4.7-10.6 4.1-15.2.9-1.2 2.1-2.3 3.9-1.3Z" fill="#282828"/><path d="M170.7 843.4c.2-.1.6 0 .7-.2 3-3.9 7.1-4.3 11.7-4.4 5.8-.1 11.5-.9 17.2-2 9.9-2 19.9-3.8 29.8-5.9 7.8-1.7 15.4-4.4 22.7-7.7 5.3-2.5 9.7-6.3 14-10.3 1.5-1.4 2.5-3.4 4.7-3.8.7 0 1.2.4 1.5.9 2.9 4 7.1 5.6 11.6 7.2 11.6 4.1 21.2 10.8 27.8 21.4 1.6 2.5 2.8 5.1 3.8 7.9 1.8 5.1.3 9.4-3.4 12.9-3.5 3.4-8.1 4.9-12.7 6.2-1.1.3-2.6.3-2.9 1.8-.2 1.5 1.1 2 2.2 2.6 2.9 1.8 3.1 2.8 1 5.4-2.4 2.9-5.3 5-9 5.8-7 1.5-14 3.3-20.9 5.2-3.7 1-7.4 1.2-11.2.3-10.8-2.4-21.8-3.9-32.3-7.7-13.1-4.7-23.8-13.2-34.5-21.7-3.7-2.9-7.4-6-11.2-8.8-1.3-.9-2.6-1.9-4-2.5-.9-.4-1.9-.8-2.7 0-.8.8-.6 1.8-.3 2.8.3 1.1.9 2 1.4 3 .6 1 1.4 2 .9 3.4-4-1.5-5.8-4-5.9-8 .1-1.4.1-2.6 0-3.8Z" fill="#FFDFC3"/><path d="M176.7 855c-.4-1.4-1.6-2.4-2.3-3.7-.6-1.1-1.3-2.1-1.5-3.3-.2-1.2-.2-2.5.9-3.3 1.1-.9 2.3-.5 3.4 0 2 .9 3.8 2.2 5.5 3.6 5.3 4.2 10.6 8.2 15.7 12.5 14.2 12.2 30.6 19.6 49.1 22.7 4.2.7 8.4 1.5 12.5 2.4 3.7.8 7.3.5 10.8-.5 6.6-1.8 13.1-3.7 19.8-4.9 4.9-.9 8.2-3.9 10.6-8.2-.3-1.2-1.5-1-2.3-1.4-1.1-.5-2.2-1-2.9-2.1-1.1-1.7-.5-3.4 1.6-3.7 4.3-.7 8.2-2.4 12-4.3 2.3-1.2 4.1-3 5.2-5.4 1.7-3.6 1.3-7-.2-10.6-4.4-9.9-11.6-17.3-21-22.6-3.8-2.2-7.9-3.7-12.1-5.1-4.3-1.5-7.9-3.8-10-8 2.3-3 5.7-3.5 9.1-3.7 7-.5 13.8 1 20.2 4 5.5 2.6 10.7 5.8 15.4 9.7 7.5 6.1 12.3 14 15.5 23 1.4 3.8 1.7 7.8 1.2 11.9-.2 1.8.2 2.2 1.9 1.9 1.8-.3 3.4-1.2 5.1-2 6.7-3 13.5-5.7 20.7-7 6-1.1 11.9-1.2 17.6 1 3.5 1.3 6.8 1.3 10.3.4 4.2-1.1 8.5-2.2 12.8-2.9 6.1-1 12.2-1.2 18.1.7 3.9 1.2 7.6 1 11.4-.2 5.1-1.6 10.3-2.7 15.8-2.4 3.2.2 6.3.9 9.3 1.6 4.4 1 8.7 1 13.1.4 5.9-.8 11.7 0 17.4 1.1 3.1.6 5.2 2.5 6 5.7-.3.4-.3.9-.4 1.3-1.1 2.9-3.4 4-6.2 4.3-1.8.2-3.6 0-5.5-.1-5-.4-10-.6-14.9.1-3.3.4-6.6-.1-9.8-.7-5.7-.9-11.1-.4-16.6 1.3-3.5 1.1-7 2.1-10.6 2.8-3.3.6-6.6.4-9.7-.8-5.6-2.3-11.2-2-16.8-.5-4.9 1.3-9.8 2.9-14.9 3.7-4.1.6-8.1.3-11.8-1.5-4.7-2.3-9.6-2.4-14.6-1.3-4.4.9-8.7 2.2-13 3.5-2.2.7-4.4 1.3-6.6 1.9-4 1.1-7.7.6-11.1-2.4l-3.9 4.2c-1.4 1.4-3.1 2.3-4.8 3.3-.7.4-.7 1.2-.8 1.9-.6 2.8-2 5.2-3.7 7.5-1.5 2-3.2 4-4.7 6.1-4.4 5.7-10.2 9.1-17.3 9.8-7.7.7-15.2 2-22.7 3.4-4.3.7-8.5.7-12.7-.2-9.5-2-19.1-3.8-28.5-6.4a90.6 90.6 0 0 1-36.7-20.4c-6.3-6-12.2-11.7-17.4-18.1ZM774.4 576.9c-6.2-2-8.3-7.1-9.3-12.8-.4-2.4-.2-4.8.5-7.2.8-1.8 1.7-3.6 3.1-4.9 1.5-1.4.6-2.3-.4-3.3-3.3-3.4-6.6-6.8-9.4-10.7-1.8-2.6-3.6-5.2-3.4-8.6 0-.5-.1-1-.3-1.4-2.5-4.5-2.9-9.5-2.7-14.5.1-2.1-.3-4.1-.6-6.2-2.5-16.5-5.7-32.8-9-49.1-.1-.5-.3-.9-.5-1.4-.9-7.6-2.5-15.1-4-22.6-4.3-21.3-8.2-42.7-12.1-64.1-1.9-10.6-4.6-21.1-7.1-31.6-4.1-17.3-8-34.6-12.2-51.8-3.4-13.9-8.9-27-14.8-40-5.2-11.5-10.4-23-15.6-34.6-1-2.2-.3-4.1.7-5.9 2-3.9 4.5-7.5 7.3-10.9 12.3-14.8 23.3-30.6 33.8-46.7.9-1.4 1.9-2.8 3-4.1 1.1-1.2 2.4-2.2 4.2-1.5 1.8.8 1.7 2.4 1.6 4.1-.1 1.7-.9 3.3-.7 5-5.6 15.9-14.5 29.9-24.6 43.3-2.7 3.5-5.6 6.8-8.6 10s-6.4 6-10.2 8.4c6.8 8.3 12.2 17.5 17.6 26.5 9.5 15.7 16.6 32.5 20.9 50.4 5.3 21.9 10.9 43.7 16.1 65.6 3.5 14.8 5.6 29.9 8.5 44.8 4.7 23.9 9.1 47.8 13.4 71.7 2.5 13.5 4.7 27.1 3.9 41-.1 2.6.4 5.1 1.2 7.5.6 1.9 1 3.9.1 5.7-.7 1.5 0 2.2 1.1 3 3.2 2.4 6.5 4.8 9.6 7.3 3.1 2.4 5.9 5.1 8 8.5 3.6 5.9 2.3 10.6-3.7 14-2.6 1.5-2.7 1.8-1.9 4.6.6 2 1.5 3.9 1.8 5.9.6 4.3.1 6.7-5.3 6.6ZM503 851.3c-2.7-5.2-2.2-10.5-.4-15.9 4.9-14.2 13.3-26.1 24.4-36.3 9.9-9.1 20.9-16.7 32.7-23 2.7-1.4 5.4-2.7 8.3-3.7.8-.3 1.6-.5 2.5-.6.9-.1 1.7.1 2.2.9.5.9.2 1.6-.4 2.3-1 1.3-2.1 2.7-3.2 4-2.4 4.6-6.9 7.1-10.7 10.2-11.4 9.1-22.4 18.8-31.3 30.5a67.1 67.1 0 0 0-9.9 19c3.1-1.8 5.9-2.9 8.8-4 1.4-.5 2.7-1 4.3-.9 1 .1 1.9.4 2.4 1.4.5 1.1-.1 1.9-.9 2.5-2.3 2.1-3.9 4.7-5.9 6.9-2.4 2.7-4.5 5.3-3.9 9.3.3 1.8-1.1 3.4-2.7 4.5-1.6 1.2-1.8 2.7-1.5 4.5 1.3 7.7 6.6 11.6 13.3 13.5 12.5 3.4 24.4 1.9 35-6.2 7.5-5.7 15.2-11 22.1-17.4 8.7-8 16.3-17.1 23.1-26.7 4.4-6.3 8.3-12.9 12.7-19.2 1.1-1.6 1.8-3.8 4.3-4 .5-.3 1.1-.5 1.6-.7 4.3-1.7 7.7.1 8.6 4.6.1.5.1.9.2 1.4-.4 2.2-1.2 4.2-2.2 6.2-8.4 16-17.9 31.3-30 44.8-5.3 5.9-11 11.4-17.3 16.2-4.5 3.4-9 6.6-13.5 10-11.8 9-25.3 11.5-39.7 10.2-3.5-.3-7-.8-10.4-1.9-11-3.6-18.7-10.7-21.8-22.1-1.3-4.7-1.1-9.5.3-14.1.9-2.5.8-4.4-1.1-6.2ZM377 24.3c-.2-.1-.4-.1-.6-.1-3.6-1.1-5.1-3-5.3-7.6-.1-2.1-.7-2.6-2.6-2-10.8 3.7-21.2 7.9-29.6 16-1.5 1.4-2.8 2.8-5.1 1.8-2.4-1.1-1.9-3-1.6-5 .4-2.6 1.6-4.8 3.2-6.9 1.3-1.7 2.9-3.3 4.6-4.7 10.1-7.7 21.4-13 33.9-15.3 1.3-.2 2.7-.3 4-.3 4.8.3 7.5 3.1 7.8 7.9 0 .6-.1 1.2.4 1.9 2.6-.3 5.1-1.2 7.7-1.4 4.4-.3 8.6.2 11.8 3.6 1.1 1.2 2.1.7 3.2.2 5.8-2.8 11.9-5 18.3-6.1 4.3-.8 8.7-.8 13.1-.3 1.3.2 2.6.5 3.8 1.2 3.7 1.9 5 5.9 3.2 9.6-.5 1-1.1 1.8-1.8 2.9 1.8 1.2 4.2 1.4 5.4 3.4 1.3 2 .9 3.9 0 5.7.5.6 1 .6 1.4.6 18.6-.6 36.2 3.7 53.1 11.1 11.6 5.1 22.7 11.2 33.4 18 5 3.1 9.5 6.7 13.2 11.4 2.4 2.9 3.9 6.2 3.5 10.1.8 2.8-.4 4.2-3.1 4.8-3.5-.2-6.2-1.9-8.8-4-2.1-1.7-4-3.5-6.5-4.7-10.6-5.9-20.9-12.3-31.6-18-15.4-8.2-32-12.6-49-16.2-2.9-.6-5.7-1.1-8.5-2-3.2-1-5.5-2.7-5.1-6.5.1-.8 0-1.8-.9-1.5-3.8 1.2-7.1-.9-10.7-1-6.1-3.1-6.9-5.4-4.5-13.4-5.8 1.5-11.8.8-16.6 4.9-2.3 2-5.2 2.2-7.5.7-4.6-3.1-9.2-2-14-1.2-2.4.8-4.9 1.5-7.3 2.3-1.4.6-2.9.6-4.3.1ZM758.6 90.1c-1.3-1.6-2.5-3.3-3.8-4.8-2.4-2.8-3.5-6.1-2.9-9.7.3-1.6.1-2.8-1.4-3.7-1.6-1-2.2-2.8-2.9-4.5-1.4-3.8.3-6.5 3.2-8.9 1.6-1.3 3.6-2.1 4.9-3.6-.2-.8-.8-.9-1.4-1-15.1-3.7-30.3-7.3-45.8-8.7-26.5-2.3-52.6.2-78.2 8.1-17.8 5.5-34.8 12.3-51 21.5-4.2 2.4-8.6 4.6-13.2 6.2-3.9 1.3-5.8.5-6.9-2.6 0-2.2 1.1-3.9 2.6-5.4 3.4-3.5 7.2-6.5 11.3-9.3 14.3-9.8 29.8-16.9 46.4-21.9 11.4-3.5 22.7-7.3 34.6-9.1 17.3-2.6 34.6-3.5 52.1-2.1 12.8 1 25.4 3.1 37.8 6.2 5.2 1.3 10.2 3.2 14.5 6.6 1.8 1.4 3.4 2.8 4.4 4.8.8 1.6 1.1 3.3 3.6 3.4 1.7.1 2.3 2.3 1.8 4.5-.5 1.9-1.5 3.6-2.5 5.2-.7 1-.5 1.6.3 2.5 4.3 4.7 4.6 8.3 1.2 13.8-1 1.6-1.2 3-.6 4.8.5 1.6.9 3.3.6 5-.6 4.1-3 5.3-6.7 3.5-.9-.2-1.5-.5-2-.8ZM28.4 147.7c-1.6-.3-2.7 1-4 1.5.1-.8 0-1.3-1.1-1.3-2.8 0-5.6.1-8.4-.1-2.3-.1-4.6-.4-6.9-.9-6.5-1.4-8.6-6.9-5-12.5.6-.9 1.3-1.8 2-2.6 1.9-1.9 3.4-3.6 2.1-6.6-.7-1.8.4-3.8 1.4-5.5.6-1 1.4-2 2-2.9-.3-1.1-1.2-1.3-1.9-1.8-1.3-.9-2.7-1.7-3.9-2.7-4.8-3.6-5.4-7.4-1.8-12.2 2-2.6 4.1-5.1 6.5-7.4 16.4-15 35.5-24 57.6-26.8 8.4-1 16.9-1.9 25.4-2.7 7.2-.7 14.3 0 21.5.5 9.1.7 18.3.9 27.1 3.6 10.9 3.3 21.8 6.8 32.4 11.2 11.1 4.7 20.4 11.8 27.1 21.9 1.7 1 3.2 2.3 2.2 4.4-1.1 2.3-3.3 1.5-5.2.9-1.2-.4-2.2-1.1-3.2-1.8-13.1-8.6-27-15.4-42-20.2-9.7-3.1-19.3-6.7-29.6-7.9-25.8-3-51-1.4-75.5 7.7-10.9 4-20.2 10.7-28.4 18.8-2.8 2.7-2.8 2.8.3 5.3.7.6 1.1 1.3 1.6 2 4.7 4 5 6.8 1.3 11.9-.5.7-1.7 1.5-1.2 2.1 2.1 2.8-.4 3.4-1.8 5-1.8 2.1-3.1 4.6-4.6 6.9 1.2 1.2 2.6 1 3.9 1.1 2 .1 3.9.5 5.7 1.2 3.9 1.5 5 3.8 3.4 7.7-.3 1.5.6 1.6 1 2.2Z" fill="#282828"/><path d="M20.9 109.7c-2.2-1-4.1-2.5-6.4-4 2.3-3.1 5.2-5.6 8-8C36.1 86 52 79 69.7 76.4c10.3-1.5 20.7-3.5 31.2-3 11 .6 22.2.6 32.9 3.5 21.3 5.9 41.9 13.4 60.4 25.9 1.7 1.1 3.4 2.4 5.5 2.7.9.1 1.7.3 2.3-.4.7-.8.2-1.6-.3-2.3-.4-.7-1.2-1.3-1.3-2.2.3-.1.6-.2.9-.2 3.2 1.2 5.3-.7 7.4-2.6 12.6-11.2 25.2-22.6 39.6-31.5 23.4-14.4 47.6-26.9 75-32 2.2-.4 5.1-.3 5.2-3.8 2.3.3 2.7-1.4 3.3-2.9.1.8 0 1.7.3 2.5.6 2.1 3.2 2.9 4.6 1.3 6.2-7.1 14.5-10.9 22.8-14.5 3.9-1.7 7.8-3.3 12.4-4-1 4.7-.4 8.8 4.1 11.4-3.6 1-7.2 2-10.9 3-1 .2-2 .4-2.7 1-4.4 3.6-9.8 4.7-15 6.2-9.1 2.6-18.1 5.4-27.3 7.8-16.3 4.4-31.4 11.8-46.2 19.6-11.6 6.1-23.1 12.4-33.7 20.1-5.9 4.3-11.6 8.8-17.4 13.2-5.2 3.9-10.5 7.8-15.8 11.7-1 .7-1.9 1.6-2.7 2.4-3.8 3.6-8.4 4.6-13.5 1-4.6-3.2-8.9-6.7-13.4-10a117.6 117.6 0 0 0-25.9-13.9c-5.2-2-10.5-3.8-16-4.6-3.3-.5-6.7-1.2-10.1-1.2-11.6.1-23.1.2-34.7 0-6.1-.1-11.8 1-17.5 2.7-6.4 1.9-12.8 3.9-18.5 7.4-8.5 5.2-18 8.5-26.9 13-1.6.8-3.2 1.7-4.7 2.8-.8.7-2.1 1.6-2.2 3.2ZM559 78.3c2.1 2.5 3.4 2.9 6.6 1.7 5.3-1.9 10.2-4.5 15.1-7.3 14.7-8.2 30-15 46.3-19.5 6.4-1.8 12.8-4 19.3-5.5 7.1-1.6 14.3-2.4 21.6-3.2 8.6-1 17.2-1.5 25.8-1.2 14.5.4 28.8 2.2 42.9 5.4 6.7 1.5 13.5 3.1 20.2 4.7.5.1 1 .1 1.5 1-1.9 1.3-3.8 2.7-5.8 3.9-3.4 2.1-5.3 4.9-5 9a4.8 4.8 0 0 0-3.5-2.8c-7.7-2.1-15.5-4-23.4-5.2-4.9-.7-9.8-1.7-14.8-1.5-.2.2-.5.2-.7 0-.6-.8-1.5-.7-2.3-.7-7.9 0-15.9-.3-23.7.1-3.9.2-7.9.7-11.9 1.1-5.5.6-11 1.4-16.5 2.4-12.2 2.2-24.1 5.5-35.9 9-16.1 4.7-31.6 11.1-47.3 16.9-3.5 1.3-6.9 1.3-10.4 1.2-2-.1-3.7-1-4.7-3 1.6-1.3 2.8-2.7 3.1-4.8 1.3-.2 2.3-1.1 3.5-1.7Z" fill="#DB8940"/><path d="M20.1 684.1c5.1 1.8 7 5.7 6.7 10.8-.2 4-.4 8-.9 12-1.2 10.9-.4 21.9-.6 32.8 0 2 .8 3 2.7 3.2 1.4.2 2.1.7 2.6 2.1 3.2 10.2 8.7 19.2 14.8 28 2 2.9 4.1 5.8 5.8 8.8 1.8 3.2 3.1 6.7 1.4 10.4-3.8 1.5-7.2.4-10.3-1.7-3-2-5.3-4.7-7.4-7.5-4.3-5.8-7.7-12.1-10.2-18.9-1.6-4.5-2.3-9.2-1.9-13.9-.3-.2-.5-.4-.7-.4-5.8-.1-9-2.6-10.5-8.1-.5-2-.8-4-.9-6.1-.6-11.8.1-23.6 2.6-35.2.1-.6.2-1.2.3-1.7-.2-.3-.3-.6-.5-.7-5.6-1.2-7.6-3.2-8.4-8.9-.9-6.1-.1-12.1.6-18.2 1.5-13 4.9-25.5 9.2-37.8 1.3-3.7 2.5-7.4 3.7-11 .4-.3.7-.7 1.1-.9 2.5-1.5 4.2-.9 4.9 1.9.9 3.7.7 7.5.1 11.2-1.3 7.6-2.8 15.2-4.3 22.9a272 272 0 0 0-3.2 23.8c-.3 3-.3 3.5 3.3 3.1ZM59.5 794.4c-.6-1.9-1.2-3.7-1.7-5.6-.5-1.7-.6-3.4-.3-5.1.3-1.5.9-2.8 2.5-3.3 1.7-.5 3.1-.1 4.2 1.3 2.1 2.8 4.3 5.6 6.3 8.5 4.3 6.3 8.4 12.8 13.3 18.7 1.2 1.5 2.4 3 4.2 4.3 1-1.1 1.9-2.2 2.9-3.2 4.9-5.1 10.3-5.9 16.4-2.1 1.7 1.1 3.3 2.4 5 3.6 4.3 4.2 9.1 7.7 14.4 10.5 3.4 1.8 7 2.7 10.9 2 3.8-.6 7.3.2 10.5 2.1 5 3 10 6 14.9 9.2 3.5 2.3 6.1 5.2 5.8 9.9-1.4 2.8-3.9 3.8-6.9 4-2.6.1-5.1-.5-7.4-1.5-4.3-1.8-8.2-4.3-11.9-7-1.9-1.4-3.6-2-6.1-1.5-6 1.2-11.6-.3-17-2.9-6.1-2.9-11.3-7.1-16.1-11.9-1-1-2-2.1-3-3.2-1.6.7-1.9 2.1-2.7 3.1-4.1 5.4-9.3 6.3-15 2.6-2.8-1.8-5.1-4.1-7.2-6.6-5.8-6.8-10.4-14.4-14.2-22.4-.5-1.1-1.2-2.3-1.8-3.5ZM328.8 30.3c2.2 1.8 2.2 2-.2 3.2-2.4 1.2-5.1 1.7-7.7 2.2-14 2.7-27.4 7.6-40.2 13.9-11.8 5.8-23.5 11.6-34.4 19.1-10.8 7.4-21 15.7-30.8 24.4-3 2.7-6 5.3-9.2 7.8-2.3 1.8-2.6 1.6-4.8-.6.1-.3.2-.6.2-1 0-.1.1-.2.1-.4 1.3-4.6 4.4-8.1 7.5-11.5 6.5-7 13.8-13 21.3-18.9 19.7-15.2 41.4-26.7 64.8-35 8.3-3 17-4.1 25.8-4.6 2.7-.1 5.2.2 7.6 1.4ZM779.4 679.9a13.5 13.5 0 0 1-3.1-5.3c-2-5.8-3.9-11.7-5-17.8-.3-1.8-.4-3.6-.4-5.4-.1-3.7 1.7-6.2 4.9-7.9.6-.3 1.3-.6 2-.9 2.1-.8 3-2.3 2.7-4.5-.5-5.7-1.4-11.3-2.6-16.9-2.3-10.3-4.7-20.6-7.1-30.8-.2-1.1-.5-2.1-.6-3.2-.4-4.2 1.1-5.2 5.2-3.9 2.7 2.3 4.9 5.1 6.4 8.3 6.1 13.6 10.1 27.8 11.3 42.7.1 1.4.1 2.9.1 4.4-.1 6.1-2.9 10.4-8.3 13.1-2.7 1.3-2.6 1.4-1.7 4.3 1.5 4.6 3.4 9.1 4.3 13.9.3 1.7.6 3.4.5 5.1-.3 5.3-3.8 7.3-8.6 4.8ZM749.8 738c2.9-3.9 3.6-8.6 5-13 1-3.3 1.6-6.8 2.9-10.1.6-1.6 1.3-3.2 2.6-4.3 2.1-1.7 4.3-1.2 5.2 1.3.6 1.6.8 3.3 1.2 4.9.3 5.2.9 10.4 0 15.6-1.1 6.7-3.4 12.9-7.4 18.5-2.5 3.6-5.3 6.8-10.5 5.4-1.2-.3-1.6.8-2.2 1.5-4.1 5-8.2 10-12.3 14.9-1.9 2.3-3.9 4.7-6.4 6.4-5 3.4-9.6 2.5-13.2-2.4-1.5-1.2-2-2.7-.7-4.3.7-1.8 2-3.1 3.6-3.9 2.6-1.3 4.5-3.2 6.3-5.4 3.6-4.3 7.3-8.4 11.4-12.3 2.6-2.5 5.2-5.1 7.1-8.2 1.8-2.6 4.1-4.2 7.4-4.6Z" fill="#282828"/><path d="M659.2 799.5c2.5-3.2 5.9-5.4 9.4-7.3 5.4-2.8 10.9-5.4 15.9-8.9 2.8-2 5.9-2.3 9-.6 1.2.7 2 .3 2.9-.4 3.9-3.1 8.2-5.7 11.5-9.5 1.9-2.1 2.7-2 5.3-.3.4 1.7.8 3.4.1 5.1-.2 2.2-1.1 4.2-2.3 6.1-2.6 4.3-5.9 8-9.9 11.1-4.5 3.6-7.8 3.5-12.7-.1-5.1 4.7-11.1 8-17.4 10.9-2.7 1.2-5.4 2.1-8.4 1.9-1.7-.1-3.4-.3-4.4-2-.3-1-.8-1.8-.8-2.9.1-1.3.8-2.3 1.8-3.1ZM770.1 709.5c-1.2-7.5-.4-14.9.2-22.4.1-1.8.4-3.6.9-5.3.4-1.6 1.2-3 3-3.3 1.9-.3 2.7 1.2 3.6 2.5.4.6.7 1.3 1 1.9 1.5 4.2 3 8.5 3.6 13 .6 4.4.3 8.7-1.2 12.9-1 2.8-2.6 5.3-5.3 6.7-2.4 1.3-3.3.9-4.2-1.8-.4-1-.7-2.1-1-3.1-.3-.4-.4-.7-.6-1.1Z" fill="#282828"/><path d="M742.3 126.6c.3-1.2.8-2.3 1.7-3.2 3-1.7 5.2-.8 7.1 2.7 1.5 2.5 3 5 3.5 7.9.5 3.6-.2 6.8-2.9 9.4-2.9 2.8-5.1 2.6-7.6-.6l-.9-1.2c-3.3-3.9-1.7-8.4-1.6-12.7.1-.7.4-1.5.7-2.3Z" fill="#55443D"/><path d="M749.9 114.8c.1-.2.3-.4.4-.6 2.2-3.3 2-6.5.7-10.2-2-5.5.5-8.6 6.4-8.9 1.1-.1 2.2-.1 3.3-.2.7.1 1.4.3 1.9.9.7.9 1 1.8-.6 1.9-1.1.1-2.1.6-3.1 1.1-2.3 1.1-2.6 1.6-1.6 3.9.6 1.5 1.4 2.8 1.9 4.3 1.6 4.2.7 6.2-3.3 8.2-.3.2-.7.3-1 .5-3.5 1.9-4 1.8-5-.9Z" fill="#56453D"/><path d="M730.4 149.7c-.8-3.6-1.1-7.1.6-10.6 1.3-2.7 2.5-3.1 5.5-2.1 2.1 2 2.8 4.5 2.2 7.3-.3 1.3 0 2.7-.4 4-.1.2-.1.5-.2.7-.5 1.9-1.3 3.9-3.5 4.1-2.4.3-3.2-1.7-4.2-3.4Z" fill="#55443C"/><path d="M648.9 806c2-1.4 2.8-3.5 3.7-5.6.3-.7.5-1.4.8-2 .5-1 1-2 2.3-1.9 1.3.1 1.7 1.2 1.9 2.3 0 .2.1.5.1.7.6.7.3 1.5.3 2.2 0 .3-.1.6-.2.9-.2.7-.3 1.5-1 2-.8 1.3-1.5 2.8-2.7 3.9-2.8 2.5-5.6 2.7-8.9.3.9-1.5 2.9-1.4 3.7-2.8Z" fill="#57463F"/><path d="M738.2 148.3c.3-3.9-.6-7.6-1.7-11.2 1.9-3.5 3.2-7.4 5.8-10.5 0 2.2.1 4.3 0 6.5-.1 2.9-.1 5.8.9 8.6-.4.3-.7.6-1.1.9-2 1.3-3.5 3.1-3.9 5.7Z" fill="#F9C495"/><path d="M749.9 114.8c.2 1.2.9 1.6 2 1.4.9-.2 1.8-.6 2.8-.5-.9 3.6-2 7.1-3.6 10.4-2.1-1.5-4-3.8-7.1-2.7.8-3.5 3.2-6.1 4.8-9.2.5-.9.9.1 1.1.6Z" fill="#FCC898"/><path d="M713.3 777.6c0-1.7 0-3.4-.1-5.1h.7c-.3 1.5.5 2.9.7 4.3-.4.3-.9.5-1.3.8Z" fill="#A38872"/><path d="M658.4 802.3c0 1.1 0 2.1-.1 3.2-.2-.3-.5-.6-.7-.9-.4-.8-.5-1.5.1-2.3v.1c.1-.3.4-.4.7-.1Z" fill="#57463F"/><path d="M657.7 802.4c0 .8-.1 1.5-.1 2.3-.2 0-.5 0-.7-.1 0-.9 0-1.7.8-2.2Z" fill="#B9BBB8"/><path d="M492 853.3c-.2-.5-.1-1 .4-1.3.1.5.1 1-.4 1.3Z" fill="#FDC797"/><path d="M770.6 710.6v.1h-.1l.1-.1Z" fill="#FF9F4B"/><path d="m201.9 99 .1.2-.2.1-.1-.2.2-.1Z" fill="#DB8940"/><path d="M628.4 803c-2.7 2.7-4.7 5.9-6.7 9.1-7.2 11.6-15 22.7-24.2 32.9-8.8 9.6-19.2 17.2-29.3 25.2-10.1 7.9-21.3 10.1-33.7 8.2-5.1-.8-9.5-2.8-13.2-6.5a14.2 14.2 0 0 1-4.3-8.6c-.3-2.4-.4-4.4 2.3-5.8 1.9-.9 2.5-3.1 1.9-5.1-.7-2.2.1-3.7 1.5-5.3 2.4-2.6 4.7-5.3 6.6-8.2.5-.7 1.2-1.2 1.8-1.8.6-.5 1.8-.6 1.3-1.8-.4-.9-1.4-.8-2.3-.8-1.3 0-2.4.5-3.5 1-3.4 1.5-6.8 3-10.3 4.6-.2-1.5.5-2.7.9-3.9 3.3-9 8.6-16.9 14.9-24.1 5.5-6.2 11.5-11.9 17.9-17.2 6.4-5.2 12.9-10.3 19.1-15.9 4.4-.9 8.9-.7 13.4-.7 6.7 0 13 1.6 18.9 4.5 4.5 2.2 8.8 4.6 13.2 6.9 1.9 1 3.5 2.3 4.3 4.3.9 2 2.4 3.2 4.4 4.1 2.3 1 4.3 2.3 5.1 4.9Z" fill="#FFDFC3"/><path d="M254.8 565.4c-5.3-1.7-10.2-3.3-15.2-4.9-1.3-.4-2.5-.9-3.7-1.4-1.6-.7-2.6-1.9-2.4-3.7.2-1.9 1.5-2.7 3.1-3.2.8-.2 1.7-.4 2.5-.4 6-.3 11.9.1 17.7 1.9 3.1.9 6 2 8.2 4.4.8.9 1.8 1 3 1 8.3 0 16.6 0 24.8.1 13.8.1 27 3.2 40 7.7 6.5 2.3 12.1 6.3 16.9 11.3 5.6 5.7 5.4 11.2-.4 16.8-.4.4-1 .7-1.2 1.5.3.9 1.4 1.1 2.1 1.7 6.5 4.9 10.2 11.4 10.5 19.6.2 5.8-2.2 10.6-7 14.1-2.9 2.1-6 3.6-9.4 4.8-10.6 3.8-21.6 5.9-32.7 7.2-3.9.4-7.7 1-11.6 1.4-6.1.5-12.1-.8-18.1-1.7-5.3-.8-10.6-1.3-15.9-1.9-1.2-.1-2.1 0-3 .9a4.45 4.45 0 0 1-5.4 1c-1.7-.7-2.8-.1-4 .7-4.5 2.7-9.4 4.7-14.2 6.6-2.7 1-5.4 1.4-8.2 1.1-3.3-.3-4.2-2.1-2.7-5s4-4.9 6.8-6.4c4.3-2.4 8.6-4.5 13.2-6.2 1.7-.6 2.4-1.4 2.2-3.4-.9-7.7.5-15.3.8-22.9.1-1.7.3-3.4.3-5.1.1-12.7-.8-25.3 3-37.6ZM482.8 599.7c-3-.4-5.8-.7-8.5-1.2-4.8-.9-9-3-12.3-6.7-3.7-4.1-4.2-8.6-1.3-13.4 1.8-3 4.2-5.6 6.8-8.1 9.9-9.7 20.7-18.1 32.4-25.5 5.9-3.7 12-7 18.9-8.5 1.3-.3 2-1.2 2.8-2.2 3.1-3.6 6.7-6.7 10.8-9.2 1.9-1.1 3.9-2 6.2-1.8 4.3.3 6.2 3.6 4.4 7.5-.9 1.8-2.3 3.1-3.9 4.2-1.3.9-2.6 1.8-3.8 2.6-.1 1.2.8 1.5 1.4 2 6.6 5.8 12.4 12.3 17.4 19.6 4 5.9 5.3 12.7 6.5 19.6 1.4 7.9 2.9 15.8 2.3 23.9-.2 1.9.9 2 2.2 1.7 2.8-.6 5.7-1.3 8.6-1.7 1.7-.2 3.4-.1 5 .5 2.7 1 3.3 3.2 1.5 5.5-1.4 1.7-3.2 2.6-5.2 3.2-4.9 1.5-10 2.5-15.1 1.9-4.2-.4-8.1.4-12 2.1-11 4.9-22.2 9.3-34.2 11.5-5.5 1-11 1.9-16.6 2.2-10.9.7-19.2-8.7-17.4-19.8.4-2.4 1.2-4.7 2.1-7 .2-.7.5-1.7 1-2.9ZM379 413.8c-3.4.5-6.8.8-10.2.6a18 18 0 0 1-11.3-4.5c-1.2-1-2.3-2.2-2.9-3.7-1.4-3.7.6-7.1 4.5-7.3 2.4-.1 4.9.2 7.3.5 3 .3 6 .3 9.1-.1 8.5-1.1 14.1-6 18-13.3-.7-1.1-1.8-.7-2.7-.7-3.1-.1-6-.7-8.9-2-9.1-4-12.1-13.8-7-22.3 2.4-3.9 5.6-7.1 9.5-9.4a44 44 0 0 1 28.1-5.8c10.2 1.3 17.1 9.7 16.4 19.5-.5 6.7-4.4 11.2-9.8 14.5-2.7 1.7-5.8 2.5-8.8 3.4 2.1 9.1 11.5 14.4 19 12.7 2.4-.5 4.7-1.1 7.1-1.6 2-.5 4.1-.6 6.2-.3 4.2.6 6 3.7 4.8 7.7-.7 2.6-2.4 4.5-4.4 6.1-3.8 3.2-8.3 4.5-13.1 5l-3.3.3c-2.6 1.4-5.1.5-7.7 0-4.6-1.3-9.1-3.1-12.9-6.1-.6-.4-1.1-.9-1.7-1.4-4.4-3.4-4.4-3.4-8.2.5-3.4 3.3-7.5 5.3-11.9 6.8-1.6.5-3.2 1.9-5.2.9Z" fill="#282828"/><path d="M395.9 405.7c1.1-1.2 2.2-2.5 3.3-3.8.8-1 1.5-.8 2.3 0 1.5 1.5 3.1 3 4.6 4.4 1 2.8 1 5.7.9 8.6 0 1.5-.4 3.1.2 4.3 1.3 2.6.7 4.7-1.2 7 4 .1 7.7-.8 11-2.6 1.8-1 1.7-3.4 1.9-5.3.3-2.1-.5-4.1-.5-6.1l8.1.9c.1 3.5.9 6.9.7 10.5-.1 2.2-.6 4.3-1.6 6.3-.9 1.9-2.4 2.9-4.4 3.5-7.2 2-14.6 2.9-21.9 2-6.3-.8-12.6-2.3-18.3-5.4a6.31 6.31 0 0 1-3.6-6.5c.2-3.3.9-6.4 1.4-9.7l5.2-1.5c.9 2.7-.5 5.3-.5 7.9.1 4 .4 4.5 4.4 5.2 2.4.4 4.9.5 7.2 1 2.2.5 2.5-.4 2-2.4a56 56 0 0 1-1.2-18.3Z" fill="#D9D9D9"/><path d="M391.3 815.6c-2.1.3-4-.7-5.6-2-4.7-3.6-7.5-8.5-8.8-14.2-.5-2.1-.8-4.1-.1-6.4 1.4-4.2 5.1-5.4 8.3-2.4 3.2 3 4.8 7 6.5 10.8 1.2 2.7 2.4 5.3 3.7 7.9 2 3.9.5 6.3-4 6.3ZM384.2 531.2c-.3-2.2.5-4.1 1.6-5.9 2.2-3.6 6.5-3.7 9.1-.4 1.5 1.9 2.5 4.2 3.1 6.5.6 2.4 1.3 4.9 1.9 7.3.5 2.1 0 3.9-.5 5.6-.9 3.1-5.6 3.5-8.6 1.1-4.5-3.6-6.1-8.6-6.6-14.2ZM584.5 488.3c.2 2.3.1 4.9-1.5 7.3-1.5 2.2-2.8 2.7-4.8 1.1-5.6-4.6-9.4-10.1-9.1-17.7.1-2.5 1-4.5 3.4-5.5 2.5-1.1 5-.9 7.2.9 3.3 2.6 4.3 6.3 4.8 10.3.1 1 0 2.1 0 3.6ZM539.4 709.6c1.9-.1 3.4 1.1 4.2 3.4 1.2 3.4 1.6 7.1 2.1 10.6.7 5.2 2 10.2 3.1 15.2.2 1 1 2.1-.1 3-1.2 1.1-2.5.6-3.7-.1a15 15 0 0 1-5.9-6.8c-2.8-6.1-5-12.3-4.4-19.3.2-2.1.9-3.7 2.4-5.1.7-.5 1.4-.9 2.3-.9ZM83.8 569c0-2.5-.2-5.1 1.3-7.4 1.3-2.1 3.1-2.5 5.3-2.5 2.2-.1 3.4 1.2 4.1 3 1.3 3.6 2.2 7.4 2.5 11.3.2 2 .8 3.9.1 6.1-1.4 4.8-5.7 6.2-9.4 2.8-2.8-2.5-3.3-6.1-3.8-9.6-.2-1.2-.1-2.5-.1-3.7ZM553 505c-3.3.3-5.4-1.7-7-4.2-1.5-2.5-2.7-5.1-3.4-8-.7-2.8-.2-5.3.9-7.8 1-2.2 2.8-3.3 5.2-3.4 2.5-.1 4.2 1 5.1 3.3.6 1.5 1.5 3 1.5 4.5 0 2.8 1.1 5.2 2.3 7.6.2.3.3.7.5 1 1.6 4.4-.2 7-5.1 7ZM662 537c.2 1.3-.2 2.7-.7 4.1-.6 2-1.3 2.2-3.1 1.3-2.4-1.2-3.9-3.2-5.1-5.5-2.9-5.7-3.7-11.8-2-18 .4-1.6 1.2-3.2 2.4-4.4 2.1-2.2 4.3-1.9 5.4.9.7 1.8 1.3 3.7 1.5 5.6.2 2.7.6 5.3.7 7.9.2 2.7 1.1 5.3.9 8.1ZM273.1 744.5c0 4.1-1.5 6.2-4.9 7-1.8.4-3.3-.3-4.8-1.2-3.8-2.1-7.2-9.5-4.5-14.7a6.8 6.8 0 0 1 5.8-3.8c2.2-.2 4.4.7 5.8 3 1.4 2.4 2.6 6.3 2.6 9.7ZM600.8 717.8c.3 2.5-1.6 4.5-6 3.3-5.6-1.5-9.2-5.4-11.3-10.8-.4-1-.2-1.8 0-2.8.7-3.9 5.6-6.8 9.7-3.9 4.4 3 7.3 7.4 7.6 14.2ZM251.2 758.2v.7c-.1 4-1.9 5.1-5.6 3.4-2.5-1.2-4.2-3.2-5.7-5.4-1.3-2-2.4-4.2-3-6.6-.6-2.2-.5-4.3.8-6.3 2.6-3.8 8.1-3.5 10.1.6 2.2 4.3 3.1 8.9 3.4 13.6ZM318.5 466.2c.4 1.8.6 3.5-1.5 4.3-1.7.7-4.4-.1-5.6-1.7a18 18 0 0 1-3.7-8.2c-.6-3.5-.9-6.9.4-10.3.3-.8.6-1.6 1.2-2.2 1.9-1.8 3.4-1.8 5.3 0 2.4 2.2 2.8 5.2 3 8 .2 3.4.6 6.8.9 10.1ZM135.7 559.4v2.9c-.1 2.6-1.4 4.4-3.8 5.2-2.4.9-4.3-.1-5.9-1.8-2.9-3-3.1-6.7-2.5-10.5.2-1.4.8-2.8 1.4-4.1 1.5-3.4 5-4 7.7-1.4 2.3 2.3 3.1 4.8 3.1 9.7ZM287.8 731.5c.2 1.9-.5 4-1 6.1-.7 3.2-3.5 4.4-6.5 3-5.5-2.7-7-9.1-5-13.9 1.1-2.7 3.8-4 6.8-3.8 2.4.2 4.2 2 5.2 4.8.4 1.1.4 2.3.5 3.8ZM434.7 787.4c.1 1.3-.1 2.7-.6 4.1-1.3 3.5-4.1 4.6-7.1 2.5-5.6-3.9-6.3-11.3-2-15.9 1.3-1.4 2.7-3 4.9-2.6 2.4.5 3.4 2.6 3.7 4.5.5 2.5 1.2 4.8 1.1 7.4ZM338.8 456.2l.3 4c.2 3.5-2.7 5.6-6 4.3-1.6-.6-2.9-1.7-3.7-3.3-2.3-4.5-2.3-9.1-.1-13.6 1-2 2.6-3.3 4.9-3.1 2.2.2 3.2 1.8 4 3.7 1 2.6.6 5.3.6 8ZM413.5 799.7c0 5.1-3.3 7.4-7.3 5.9-3.9-1.4-6.7-7-5.6-11.4.3-1.4.9-2.8 1.5-4.1 1.5-2.8 4.3-3.3 6.5-1.1 3.2 3.2 4 7.4 4.9 10.7ZM553.1 717.2v-1.4c.2-2.5 1.3-4 3.4-4.6 2-.6 4.4.3 5.7 2.2.9 1.3 1.3 2.9 1.7 4.4.5 2.4 1.5 4.5 3.4 6.2 1.7 1.4 1.3 2.9-.7 3.9-2.7 1.4-7.1.8-9.7-2-2.2-2.3-4.1-5-3.8-8.7ZM403.3 522.6c0-.3-.1-1 0-1.8.4-2.4 2.3-4.4 4.5-4.8 1.8-.3 3.8.9 5 3 .7 1.3 1.2 2.6 1.5 4.1.4 2 .4 4.1 1.4 6 .7 1.3 1 2.5-.3 3.6-1.4 1.1-2.8 1.9-4.7 1.3-4.5-1.7-8.1-6.2-7.4-11.4ZM664.9 520.2c-.3-1.6.6-3.3 1.4-4.8.9-1.7 2.5-2.3 4.2-2.2 1.8.1 3.3.8 4 2.6 1 2.4 1.7 4.8 1 7.4-.7 2.6-.7 5.2-1.6 7.7-.9 2.3-1.9 2.7-3.7 1-3.2-3.1-5.4-6.7-5.3-11.7ZM433.2 525.2c0 1.7.2 3.4 0 5.1-.4 2.7-2.2 3.5-4.7 2.3-4.7-2.1-7.8-10.3-2.9-15.8 2.2-2.5 5.1-1.9 6.8 1 1.3 2.3.7 4.9.8 7.4ZM107.2 563.8c-.1-2.7.6-5.3 2.4-7.4 2.3-2.7 5.1-2.2 6.6 1 .8 1.7.4 3.9 2.4 5 .2.1.2.4.2.7.7 3.4-3.8 8.2-7.2 7.8-1.9-.3-4-2.5-4.3-4.8-.1-.8-.1-1.6-.1-2.3ZM354.2 462.1c-1.5-.1-2.2-.7-2.7-1.6-2.2-3.4-4.1-6.8-5-10.8-.2-1-.3-1.9.1-2.9.8-2.2 2.7-2.8 4.6-1.5 1.8 1.3 2.7 3.2 3.1 5.2.4 2.6 0 5.3.8 7.9.2 1.3-.7 2.4-.9 3.7Z" fill="#DFB186"/><path d="M658.4 802.3c-.2 0-.5 0-.7.1 0-1 .1-2 .1-3 .5 0 1 .1 1.4.1-.3 1-.6 1.9-.8 2.8Z" fill="#D4AE93"/><path d="M323.6 312.9c2.5 13.5-.4 26.1-6.6 38-2.4 4.7-5.8 8.6-10 11.9-7.8 6.2-24.4 4.9-29.8-7.5-2.5-5.8-3.7-12.1-4.7-18.3-.7-4.4-1-8.9-.1-13.4.4-1.7-.1-2.8-2.1-2.9-.6 0-1.1-.4-1.7-.6-5.1-2.1-6.6-4.6-6.3-10.1 1.8-4.6 5.2-5.8 9.9-3.7.8.3 1.5.8 2.2 1.3.8.5 1.6 1.5 2.5.2.7-1 .6-2.1-.3-3a18 18 0 0 1-3-3.7c-2.1-4-.5-6.7 4.1-6.7.9 0 1.9-.1 2.5.4 3.7 2.9 6.5.8 9.6-1.3 9.3-6.1 20.5-4.7 27.1 5.2 3 4.4 6.3 8.6 6.7 14.2ZM532.6 305.5c-1.8.7-1.2 2-.9 3.4 1.6 7.8 1.3 15.5-1.5 23-2.7 7.1-6.7 13.5-12.3 18.7-7.4 7-19.2 7.8-27.3 2-3.4-2.4-5.6-5.7-6.9-9.6-3.1-9.1-4.3-18.4-3.1-28l.3-3.6c-.1-7.5 3.3-13.6 7.9-19 7-8.2 15.7-11 26.2-7.7 1.9.6 3.6.5 5.2-.7.8-.6 1.7-1 2.6-1.4 3.4-1.6 6.1-1.4 8.1.7 2.3 2.5 1.4 5.2.2 7.8-.5 1-1.2 1.8-1.8 2.8-1.2 1.9-.8 3 1.6 2.9 2.5-.1 4.8.3 5.4 3.2.4 2.6-1.3 4.4-3.7 5.5ZM165.6 136.1c1.1 4.5-1 7.5-4.9 9.4-4 2-8 4-12.3 6.1 1.2 2.2 2.8 4.1 2.5 6.6-.3 2.7-2.2 4.2-4.3 5.5-4.8.8-6.2 4.5-7.7 8.4-.9 2.3-1.7 5.4-5.5 3.9-.8-.5-1.5-1.2-2.2-1.9-2.2-2.7-1.6-6-1.6-9.1 0-.6.1-1.1.3-1.6.6-1.8 1.1-3.7 2.3-5.2 1.5-1.8 1.6-3.6.6-5.6-.5-1.9.2-3.6.5-5.4.2-.9.6-1.7 1.1-2.5 1.8-2.2 3.6-4.2 6.1-5.5 1.5-.7 2.9-1.5 4.4-2.1 1.2-.4 2.4-.8 3.5-1.4.7-.3 1.4-.5 2.2-.8l.9-.3c.6-.3 1.4-.3 1.1-1.3-.2-.2-.3-.4-.5-.6-.2-.2-.4-.4-.5-.6-.2-.2-.3-.5-.5-.7-.4-.6-.8-1.2-1.3-1.7-.8-.9-1.7-1.7-2.7-2.3-.3-.2-.5-.3-.8-.5-.3-.2-.5-.4-.7-.6-.1-.1-.2-.2-.4-.3-1.1-1.2-2.5-2.2-3.9-3-9.3-6-19-10.8-30.1-12.4-5.3-.8-10.7-.6-16-.1-1.3.1-2.6.4-4 .2-.7-.1-1.4-.4-2.1-.6-.3-.1-.7-.3-1-.4-.5-.3-.8-.7-1.1-1.1-.2-.3-.3-.7-.3-1-.1-.9-.1-1.7.2-2.6.1-.3.3-.6.5-.9.1-.1.2-.2.3-.4 1-.8 2.1-1.5 3.2-2.2l1.2-.6c.3-.1.5-.3.8-.4.3-.1.5-.3.8-.4.3-.1.5-.2.8-.3.6-.1 1.1-.1 1.7-.1 4.3-.8 8.6-1.7 13-1.7 8.2-.1 16 1.4 23.5 4.5 6.9 2.8 13.5 6.1 19.4 10.7 2 1.6 3.6 3.5 5.5 5.3 3.9 2.6 5.2 6.9 6.7 10.9.8 2 1.1 4.4 1.3 6.7Z" fill="#282828"/><path d="M310.5 114.3c6.2.7 8.4 4.1 6.7 9.8-1.4 4.5-4.4 7.5-8.5 9.5-2 1-2.7.7-3.7-1.4-.2-.3-.3-.7-.4-1-.9-3.2-2-6.1-4.4-8.8-3.3-3.7-3.3-8.8-2.6-13.5.3-1.8.4-3-1.5-3.8-2.6-1.2-2.9-3.8-3.1-6.2-.2-3.3-.1-6.5-.1-10-1.1.3-1.5 1.4-2 2.2-1.1 1.8-2.7 3.1-4.2 4.6-2.6 2.5-4.6 1.2-6-1-1.1-1.7-1.6-3.8-1.8-5.9-.5-5.5 1.1-10.6 3.3-15.5 2.6-5.7 5.4-11.5 9.3-16.5 1.8-2.3 3.8-4.5 6.6-5.7 4.5-1.9 8.4.5 8.7 5.5.2 3.6-.9 7-2.3 10.2-1 2.3-2.3 4.6-3.5 7.1 2 .5 4.1.4 5.2 2.1 1.1 1.7 1.5 3.6 1.4 5.6-.1 2.5.3 5.1-.6 7.6-.3 1-.1 1.7 1 2.3 4.1 2 6 5.7 5.2 10-.8 4.3-1.3 8.5-2.7 12.8ZM109.6 311.8c1.6-.7 2.4-2 3.4-3 1.4-1.4 3-2.3 5-2.7 3.9-.7 7.1 1.4 7.5 5.4.3 3 .3 6.1-.9 9a16.1 16.1 0 0 0-1.3 7.8c.2 2.2-.2 4.4-.8 6.5-1.2 4.3-5.5 6.1-9.6 4.3-2.8-1.2-4.5-3.6-6-6.1-1 1-1 2.1-1.1 3.1-.4 3.4-1.9 6.5-3.6 9.5-.4.7-1 1.4-1.6 2-2.1 2-3.5 2.1-5.8.5a8.96 8.96 0 0 1-4-5 27.2 27.2 0 0 1-1.3-10.7c.7-8 2.4-15.8 3.3-23.7.3-3.1 1.2-6.2 2.8-9a8.5 8.5 0 0 1 12-2.9c2.8 1.8 4 5.2 3.2 9-.6 2-1.5 3.8-1.2 6Z" fill="#FDC898"/><path d="M618.9 100.3c-4 2.8-7.4 6.3-11.1 9.4a15.9 15.9 0 0 1-4.6 3c-2.3.9-3.9-.2-3.8-2.7.1-2.3.9-4.5 2.2-6.5 2.2-3.3 4.5-6.6 7.2-9.6 9.7-10.6 21-19.1 33.4-26.3 6.5-3.8 13.8-5.2 21.2-6.5 8.9-1.5 17.8-2.4 26.9-1.7 2.5.2 5 1 7.6.6 5.3-1.3 10.7.9 12.3 4.9 0 .4-.1.8-.3 1.1-.3.5-.7.9-1.2 1.2-2 1.1-4.4.9-6.5 1.5-.9.2-1.9.3-2.8.3h-1.7c-2.5.1-5.1-.3-7.5.4-8.9.2-17.5 2-26.2 3.7-9.8 1.9-18.2 6.4-26 12.5-1.9 1.5-3.9 2.9-5.7 4.5a102 102 0 0 0-9.5 7.9c-1.3.9-2.4 2-3.9 2.3Z" fill="#282828"/><path d="M323.6 312.9c-1.9-5.6-4.9-10.5-8.6-15.1-5.4-6.8-13.6-8.9-21.5-5.3-2.3 1.1-4.5 2.4-6.5 4.1-2.3 2-2.3 2-4.7.3a8.83 8.83 0 0 0-5.9-1.6c-2.6.2-3.6 1.9-2.7 4.3.8 2 2.2 3.5 3.9 4.8 1.4 1 1.6 1.9.5 3.3-.6.8-1 1.7-1.6 2.7-2.4-1.5-4.3-3.8-7.4-4.1-3.3-.4-5.3 1.3-6.9 3.8.1-.8-.1-1.8.2-2.5 2.4-6.4 5.1-12.7 10-17.6 7-7 15.7-10.9 25.2-12.8 5.8-1.2 11.5-1.2 17.1 1.3 4.4 2 8.1 5 11 8.7 2.6 3.2 4.9 6.6 6.6 10.4.8 1.9 1.5 3.8 1.5 5.9-.1 4.8-3.6 8.2-8.5 7.6-1.9-.3-1.6.8-1.7 1.8Z" fill="#DB8940"/><path d="M471 128c-4.1.5-7.4-2.9-8.8-6.5-1.2-3.3.1-7.9 3-10.2.2-.2.5-.2.6-.4.9-.9 2.7-1 3-2.5.2-1.3-1.3-1.9-1.9-3-1.6-2.9-2.4-6-.7-9 1.4-2.3.8-3.9-.6-5.8-2.9-4.1-2.5-8.1.9-11.1 1.8-1.6 3.9-2.2 6.4-1.6 3.5.8 6.7 2.1 9.6 4.2 2.7 2 4.6 4.6 4.8 8.2.1 2.3-.4 4.4-2.3 5.9-1.8 1.4-1.8 2.7-.8 4.6 1 2 1.2 4.1.4 6.4-1.1 3.3-3.5 4.8-6.7 5.4-3 .6-3.7 1.7-2.6 4.5.6 1.5 1.4 2.8 2.5 4 1.6 1.8 1.6 2.9-.3 4.5-1.8 1.7-4 2.7-6.5 2.4Z" fill="#FDC898"/><path d="M532.6 305.5c.7-1 1.6-1.9 2.2-2.9 1.6-3 .4-5.1-2.9-5.1-.8 0-1.7.1-2.5.3-.8.2-1.4.2-1.9-.6s-1.1-1.7-.3-2.7c.6-.9 1.3-1.8 2-2.6.9-1 1.4-2.3 1.8-3.6.5-1.7.6-3.4-.8-4.8a5.1 5.1 0 0 0-5.4-1.1c-1.8.7-3.6 1.5-5 2.9-1.1 1.1-2.2 1.2-3.6.6-2.1-.9-4.3-1.6-6.6-1.8-9.1-.7-15.9 3.3-21.3 10.3-3.5 4.5-5.5 9.7-6.6 15.2-.1.6-.2 1.2-.6 1.6h-1.5c-7.4 0-11.3-6.4-7.7-13 3-5.6 7.2-10.3 12.5-13.9 6.4-4.4 13.1-8 20.8-9.2 11.3-1.8 20.9.2 29.4 10.8 2.1 2.6 3.7 5.4 4.6 8.6 1.2 5.7-1.5 10.3-6.6 11Z" fill="#DB8940"/><path d="M401.1 71.8c-.4 1.2-.9 2.5-1.4 3.9 1.3 0 2.2-.8 3.1-1.2 3.6-1.4 6.8-.1 8.3 3.6.9 2.2 1.2 4.5.8 6.8-.9 4.9-2.4 9.7-5.3 13.8-.8 1.1-1.3 1.9-.7 3.2 2.7 5.8.1 10.6-3.1 15.2-1.3 1.7-2.9 3.2-5 4.2-5.5 2.5-9.5-1.7-9.9-6.1-.4-4.6 1.4-8.3 4.3-11.6l1.8-1.8c.7-.6.9-1.3.6-2.2-2.1-5.2-1.2-10.4.4-15.6.1-.5.3-.9 0-1.4-1.1-.3-1.7.7-2.7.9-.1-.1-.2-.2-.2-.3 0-2.8 6.3-10.7 9-11.4Z" fill="#FDC898"/><path d="M401.1 71.8c-2.6 1-2.6 3.9-4.1 5.6-1.5 1.7-3.7 2.7-4.5 5-.1.3-.1.7-.2 1.1-5.1 2-9-.6-9.5-6.3-.4-5 1.6-9.3 3.7-13.5 2.2-4.2 4.6-8.3 6.9-12.4 1.1-1.9 2.2-3.8 3.9-5.3 2-1.7 4.2-2.9 6.9-2.8 4.4.1 7.4 3.7 6.7 8.1-.4 2.6-1.1 5-2.3 7.2-2.4 4.4-4.6 9.1-7.5 13.3ZM676 282.2c-.1-2.8.4-4.6 1.5-6.3 2.9-4.4 10.3-2.6 12.7.7 2.6 3.5 4.1 7.5 4.6 11.7.4 3.9 1 7.9.1 11.9-.9 4.5-2.7 8.3-7.1 10.4-2.9 1.4-5 .7-6.8-2-2-2.9-2.7-6.3-2.8-9.7-.1-5.2-.1-10.4-2.2-15.4-.2-.6 0-1.4 0-1.3Z" fill="#FDC898"/><path d="M431.2 30.8c4.3.8 8.7.8 12.8 0 .7.7.4 1.1.2 1.5-1.2 3.3-.5 5.1 2.7 6.3 3.3 1.2 6.8 1.7 10.2 2.5 13.4 2.9 26.7 6.1 39.4 11.6 6.4 2.8 12.4 6.2 18.5 9.5 7.1 3.8 13.9 8.1 20.6 12.4.6.4 1.3.7 1.6 1.4-4.9-2-9.9-3.9-14.8-5.9-8.4-3.5-16.8-7-25.3-10.2-11.9-4.5-23.8-9.1-35.7-13.7-4.1-1.6-8.2-2.9-12.5-3.7-5.5-.9-10.3-2.8-12.2-8.8-.4-1.2-1.5-1.4-2.5-1.9-1.2-.6-2.7.1-3.8-1.1.1-.2.4-.2.8.1Z" fill="#DB8940"/><path d="M651.1 308.5c-1.3 1.6-1.9 3.3-3.2 4.4-1 .8-1.9.6-2.3-.5-2.7-6.9-4.4-15.7 1-22.5 2-2.5 4.4-3.9 7.6-2.9 1.1.3 2.1.3 3.2.4 3.4.2 5.6 1.7 6.7 5.2 1.3 4.2 2 8.5 1.8 12.9-.2 3.8-1.9 6.5-5 7.7-2.9 1.1-5.2.3-8-2.7-.7-.6-1.1-1.2-1.8-2Z" fill="#FDC898"/><path d="M709.5 65.8c.5-2.6-1.4-3.3-3.2-4.1-2.7-1.1-5.7-1-8.4-1.7-.7-1.2-2.4-.1-3.3-1.6 3.6-1 7.2-.3 10.7-.5h.7c1.4 1 3 1.3 4.5 2.2 4.5 2.6 7.6 12.1 4.8 16.9-.2.4-.4.9-.4 1.4.1 4.3-2.3 7.5-4.5 10.9-1.3 2-2.5 4.1-3.2 6.4-1.8 5.8-4 11.4-7.7 16.3-.4.5-.7 1-1.2 1.3-4.7 3.3-7.6 7.9-9.4 13.2-1.2 3.6-2.8 7.1-2.7 11.1.1 3-1.7 5.5-3.3 7.9-.7 1.1-1.8 1.6-3 2-4.3 1.7-9 1.7-13.5 2.8-1.6.4-3.6-.9-5.1-2.1-1.3-1.7-1.1-3.6-.3-5.4.6-.6 1-.3 1.5.1.8 2.5 2.6 3.2 5.1 2.9 9.5-.8 13.4-4.7 15.5-14 1.5-6.6 4.2-12.9 9-18 2.9-3.2 5.1-6.7 6.6-10.8 1.8-4.6 4.2-9 6.4-13.4 3.6-7.6 4.8-15.5 4.4-23.8Z" fill="#FFA355"/><path d="M637.4 126.6c-.4 3.6-1.9 5-5.7 4.9-4.7-.1-12.6-3.9-13.4-10.8-.2-1.7-.8-2.3-2.5-2.2-1.6.1-3.1.1-4.7-.5-3.7-1.5-4.2-4.4-1.2-6.9 4.5-3.6 9.5-5.8 15.4-5.1.5-.4 1-.4 1.6-.3 3.2 1.5 5.5 3.8 6.4 7.3 0 3.7 1 7 3.3 10 .9.9 1.5 2.2.8 3.6Z" fill="#282828"/><path d="M130.6 318.1c1-4.3.7-8.9 3.8-12.6 2.8-3.5 7.4-4.4 11-2 2.9 1.9 3.7 5 3.3 8-.5 4.1-1 8.1-.4 12.2.6 3.8-2 6.7-4.7 7.7-3.3 1.2-6-.1-8.4-2-3.8-2.9-4.1-7.1-4.6-11.3ZM483.9 77.6c-2.4.3-4.4-.8-6.3-2.1-2.7-1.8-5.5-3.6-8.3-5.2-4.4-2.5-7.4-7.7-3.3-12.8 2.2-2.7 5.4-3.8 8.8-2.7 5.4 1.8 10.1 4.7 14.2 8.7 1.7 1.7 2.8 3.7 2.8 6.1.1 5.6-3.8 8.5-7.9 8Z" fill="#FDC898"/><path d="M431.2 30.8c-.3 0-.6.1-1 .1-4.6 0-9.2-.3-13.8 0-3.6.2-7.2.7-10.8.7-2.1 0-4.1-.2-6.1-.7-3.3-.8-5.9-2.5-6.8-5.9-.6-2.3-1.9-3.2-4.1-3 2-1.2 4.3-1.5 6.5-2 1.8-.5 3.6-.2 5.1 1.1 1.4 1.1 2.9 1.6 4.6 2 2.2.4 4.1-.1 5.5-1.9.6-.8 1.2-1.6 2.2-1.7 4.7-.7 9.2-2.2 13.9-2.5h2c-.9 2.8-3 4.9-2.3 7.9.8 2.8 2.8 4.4 5.1 5.9ZM524.6 240.7c-.1 4.2-2.8 5.9-6.2 4.3-5.7-2.7-9.8-7-12.7-12.5-1.2-2.4-2.5-4.6-2.3-7.5.4-4.7 4.5-7.2 8.8-5.3 1.9.8 3.2 2.2 4.4 3.7 3.5 4.6 5.9 9.7 7.7 15.1.3.9.3 1.9.3 2.2Z" fill="#DB8940"/><path d="M94.8 411.3c-.4 2.7-.9 6.4-1.6 10.1-.4 2.3-1.9 4-4.2 4.5-2.2.4-4.2-.7-5.5-2.2-4.4-5.3-6-15.7-.7-23.1 1.5-2 3.8-2.9 6.1-2.7 2.4.1 3.7 2 4.4 4.3.8 2.6 1.4 5.3 1.5 9.1ZM647.4 370.6c.1-3.4 1.2-6.4 3.9-8.6 3.8-3.1 8.9-1.8 10 2.9 1.1 4.7 2.7 9.3 3.5 14 .1.8.1 1.7 0 2.5-.7 4.1-2.5 5.1-6.7 4.1-4.8-1.2-10.9-7.8-10.7-14.9Z" fill="#FDC898"/><path d="M202.1 253.7c1.8-7 2.4-14.8 8.4-20.5.7-.7 1.4-1.3 2.3-1.7 1.8-.9 3.7-.7 5.1.5 1.3 1.1 1.8 2.8 1.5 4.6-.8 3.7-2.1 7.2-3.8 10.6-1.8 3.4-3.8 6.8-5.7 10.1-.9 1.6-1.9 3.2-4.2 2.9-2.3-.3-2.5-2.4-3.3-4-.2-.6-.1-1.4-.3-2.5Z" fill="#DB8940"/><path d="M124.8 409.4c-2.9 1.3-5.8 2.5-8.6 3.9-1.7.8-3.4 1-5.2 1.2-5 .5-9.9-5.5-6.6-11.7 2-3.8 6.5-3.8 8.7 0 .8 1.4.8 3.4 2.7 4.1 1.7.7 3.3-.3 5-.5 1.7-.2 3.3-.4 4.8-1.4 2.6-1.8 5.2-4 8.7-2.2 4.7 2.4 6.5 6.3 5.1 11.4-.2.7-.8.9-1.4 1-1.5.5-2.8-.3-3.5-1.3-2.4-3.6-5.7-4.8-9.7-4.5Z" fill="#FDC898"/><path d="M548 162.1c0 5.6-.9 6.2-5.6 3.7-6.5-3.5-10.3-9-11.8-16.1-.5-2.1 0-4.2 2-5.4 2-1.2 4.1-1.3 6.2-.1 3.7 2 5.9 5.4 7.4 9.1 1.2 2.8 2.1 5.8 1.8 8.8ZM512.8 155.1c4.5-.1 6.5 1.7 7.9 4 2.4 3.8 4 8 4.6 12.5.3 2.2-.2 4.2-2.1 5.5-1.7 1.1-3.5.6-5.2-.2-2.3-1-3.9-2.8-5.3-4.8-2.2-3-3.3-6.5-4-10.1-.8-3.5 2.1-6.9 4.1-6.9ZM612.3 387.8c-.1-1.9.1-3.7 1.6-5.1 1.8-1.6 5.3-1.2 6.8 1 3.4 5.2 6.2 10.7 8.3 16.5.5 1.5 1 3.7-.3 4.8-1.4 1.2-3.5.7-5.2.2-1-.3-2.1-.8-2.9-1.5-5.1-4.1-7.8-9.4-8.3-15.9ZM177.4 410c.5 3.1-.7 6.4-1.5 9.8-.5 2.1-1.7 2.4-3.4 1-2.3-2-4.2-4.3-5.4-7.2-1.8-4.7-2.9-9.4-1.4-14.5 1.1-3.7 4.2-4.9 7.3-2.5 3 2.3 4.1 5.6 4.4 9.2.1 1.2 0 2.4 0 4.2Z" fill="#DB8940"/><path d="M161.2 321.7c.2-5.5 2.2-10.1 6.8-13.3 1.5-1 3.2-2 5-.6 1.7 1.3 2.3 3.2 1.9 5.2-.5 2.5-.9 5-2 7.3-1 2.1-1.5 4.3-1.4 6.7.1 1.9-.1 3.9-2 4.7-2.2.8-4-.3-5.5-1.9-2.2-2.3-3.1-5-2.8-8.1Z" fill="#FDC898"/><path d="M124.8 409.4c.9-.3 1.8-.6 2.8-.8 2.1-.3 4 0 5.3 2.1 1.2 2 3 3.4 5.1 4.4 1.4 4.4.9 8.9-.5 13.2-.7 2.1-2.7 2.7-5.1 1.8-2.5-.9-3.7-3-4.6-5.3-2.3-4.8-3.6-9.9-3-15.4ZM265.8 238.5c.3 3.6-1.6 6.6-3.2 9.8-.7 1.3-1.6 1.5-3 .9-3.4-1.5-4.9-4.4-5.9-7.5-.9-2.7-1.4-5.5-.4-8.5.8-2.5 2.1-4.4 4.7-4.9 2.2-.5 4.9 1.1 6.3 3.5.9 1.5 1.5 4.2 1.5 6.7Z" fill="#DB8940"/><path d="M691.3 369.2c.3 2.3-.2 4.7-1.8 6.9-1.6 2.3-3.8 2.4-5.8.4a9.87 9.87 0 0 1-2.3-4.1c-1-3.9-2-7.7-1.8-11.8.2-2.8 1.2-4.8 3-5.3 2.3-.7 4.6.3 6.1 2.8 2.1 3.3 2.7 7 2.6 11.1Z" fill="#FDC898"/><path d="M392.3 313.1c-.1 1.8.1 3.6-.5 5.4-.8 2.3-2.3 4-4.5 4.3-2.2.4-4.3-1-5.6-2.8-2.8-3.9-3.5-8.2-1.6-12.7 1.1-2.7 3-3.9 5.9-3.9 2.4 0 4.4 1.5 5.5 4 .8 1.8.9 3.7.8 5.7Z" fill="#DB8940"/><path d="M647.5 143.4c-1.2.8-2.3 1.7-3.6 2.3-3.2 1.5-5.3.4-6.3-2.9-.7-2.4 0-4.5.9-6.6.7-1.5 1.6-3 2.4-4.5v-.5c.1-.3.3-.6.5-.9 1-1 2.1-1.8 3.5-2.2 1.3-.3 2.5-.3 3.8.1 1.1.4 2 1 2.8 1.8.6.8.9 1.6 1.1 2.5.2 1.3.2 2.5-.1 3.8-.2.8-.5 1.7-.8 2.5-.1.3-.3.6-.5.9-.1.1-.2.3-.3.4-.9 1.3-2 2.5-3.4 3.3Z" fill="#55443C"/><path d="M569.9 236.8c0 3.9-1.3 4.8-4.5 3.3-3-1.4-4.8-4-6.4-6.8-1.4-2.4-2.3-5-3.4-7.6-.2-.4-.3-.9-.3-1.4-.1-1.5-.1-3.2 1.3-3.9 1.5-.7 3.4-.8 4.8.4 5.2 4.3 7.8 9.8 8.5 16ZM398.9 308.9c0-2.3 1.4-4.4 3.2-4.7 1.6-.3 3.5.9 4.5 3 1.1 2.2 1.1 2.2 3.5 1.4 1-.3 1.7-1 2.5-1.4 3.5-1.9 7.1-.6 8.7 3.1.2.4.3.9.4 1.4.8 2.6.4 4.3-1.3 5.5-1.6 1.1-3.8.9-5.7-.6-1.2-.9-2.1-2.1-2.5-3.5-.5-1.7-1.4-1.7-2.7-1-1.3.6-2.6 1.3-4 1.7-3.5 1-6.6-1.3-6.6-4.9ZM378.4 178.2c-.1 3.8-.8 7.4-1.6 11.1-.4 1.6-1.1 3.6-3.1 3.6-1.9 0-2.9-1.6-3.4-3.3-1.3-4.8-1.4-9.7-.1-14.6.8-2.8 2.5-4 4.6-3.8 1.9.2 3.4 2.2 3.5 4.9.1.6.1 1.4.1 2.1Z" fill="#DB8940"/><path d="M138.6 179.9c-.6 4.5-2.6 8.3-5.5 11.7-2.8 3.3-5 3.3-8.3.6-.3-.2-.6-.5-.7-.9-.4-1.3-.3-2.6-.3-3.9 0-.6.2-1.1.3-1.6 1.9-4.1 4.4-7.7 8.9-9.4 2.8-.3 5.1.2 5.6 3.5Z" fill="#55443C"/><path d="M317.7 136.5c-.2-2.3.4-4.5 1.6-6.5.8-1.5 2-2.7 4-2.8 1.9-.1 2.9.7 3.6 2.4 1 2.4 1.3 4.9.9 7.5-.3 1.9-.8 3.8-1.3 5.6-.8 3.1-3.4 3.9-5.9 1.8-2.4-2.1-3-4.8-2.9-8ZM231.5 248.2c1.2-5 2.8-10 7.1-13.7.6-.5 1.4-.9 2.2-1.2 1.9-.5 3.2.6 2.8 2.5-.4 2.1-1 4.2-1.8 6.2-1 2.6-2.5 4.9-2.6 7.8-.1 2.4-2.2 3.9-4.2 3.7-1.9-.1-3.5-2.4-3.5-5.3ZM155 416.6c-1.7.2-3-.5-4-2.2-2.4-4.2-.8-11 3.2-13.6 2.5-1.7 3.7-1.2 4.9 1.6.7 1.8.8 3.6 1.8 5.4 1.8 3-2.2 8.8-5.9 8.8ZM298.7 135.9c.2 2.8-1.1 5.4-1.6 8.1-.6 3.4-1.4 6.8-2.7 10.1-.3.7-.3 1.5-1.3 1.5-.8 0-1.3-.5-1.7-1.2-1.2-2.3-1.9-4.8-1.5-7.3.4-2.9.9-5.7 1.5-8.5.4-1.9 1.3-3.6 2.4-5.2.8-1.2 1.8-2 3.4-1.5 1.5.5 1.5 1.7 1.5 3v1ZM543.6 234.7c-.1 2.2-2.2 3.5-4.8 2.6-2.1-.7-3.5-2.3-4.7-3.9-1.7-2.2-2.8-4.8-3.5-7.5-.4-1.5-.2-3 1.1-4 1.4-1.1 3.2-1 4.4 0 3.5 3.1 6.5 6.5 7.5 11.2.1.4 0 .8 0 1.6ZM396 163.8c2.4.2 4.5 2.4 5 5.5.4 2.5.8 5 1.1 7.5.3 2.4-2 4.3-4.4 3.5-1.7-.6-3-1.7-3.9-3.1-2.2-3.4-2.9-7.1-1.4-11 .6-1.7 1.8-2.5 3.6-2.4Z" fill="#DB8940"/><path d="M661.3 142.6c.2 1.9.1 3.8-.1 5.7-1.2 1.9-2.4 3.9-3.7 5.8-1 1.5-2.2 2.7-4.2 2.1-1.7-.5-2.8-2.1-3-4.1-.2-2.1.7-4 1.5-5.9.3-.7.6-1.3.8-2 .1-1.7 1.5-2.4 2.5-3.4.9-.8 2-1.1 3.2-.9l.9.3c1.2.5 2.1 1.1 2.1 2.4Z" fill="#57443C"/><path d="M420.1 177.8c0 1-.5 1.9-.7 2.9-.2 1.5-.6 3.2-2.2 3.3-1.6.1-2.5-1.5-3-2.8-1.7-3.8-2.7-7.8-3.5-11.8-.1-.7.1-1.4.4-2.1 1.2-2.8 2.7-3.1 5-1.2.9.8 1.6 1.8 2.2 2.9 1.2 2.8 1 5.9 1.8 8.8Z" fill="#DC8940"/><path d="M124.6 191.5c.1.2.2.4.2.7-2.7 2.3-5.7 2.6-9.2 1.8-6.9-1.6-11.4-5.6-13.4-12.4-.5-1.9-1.7-3-3.4-4-2.9-1.5-5.5-3.4-7.8-5.8-.1-.4 0-.7.3-.9 6.5 1.2 10.2 6.2 14.4 10.5.9 1 1.7 2.1 2.6 3.1 4.2 4.8 9.3 6.3 15.4 4.6 1.1.6.4 1.7.9 2.4Z" fill="#FFA455"/><path d="M96.3 99.6c-.5.6-1.3.7-2.1.8-13.2.6-23.3 6.2-28.9 18.6-2.2 4.9-2.2 9.8-.2 14.9.9 2.2 2.2 4.4 1.6 7-.1.1-.2.3-.4.4-6.2-7-7.9-14.5-3.8-23.8 3.9-8.7 10.5-14.4 19.7-16.9C86 99.5 89.9 98.5 94 99c.8-.1 1.7-.2 2.3.6Z" fill="#FFA354"/><path d="M626.9 106.3c-.5-.1-1-.2-1.5-.4-1.3-1-2.8-.5-4.2-.6-3.2-.1-3.5-.5-2.7-3.7l.3-1.4c3.9-3.8 7.9-7.4 12.3-10.5.9.7 1.2 1.7.9 2.6-1.3 4.8-2.5 9.7-5.1 14Z" fill="#FDA85E"/><path d="M648.9 393.4v-1.1c0-1.2-.2-2.6 1.2-3.1 1.5-.5 3.1-.6 4.4.6 3 2.6 4 11.2 1.6 14.3-1 1.3-1.8.7-2.8-.1-3.3-2.7-4.2-6.5-4.4-10.6Z" fill="#DB8940"/><path d="M634.3 392.9c.2-.7.5-1.3.6-1.8.2-1.5.5-3.1 2.2-3.4 1.9-.3 2.7 1.4 3.4 2.8.6 1.3.9 2.7 1.1 4.1.3 1.5.8 2.8 1.9 3.8 1.1 1 1.9 1.9.7 3.4a3.6 3.6 0 0 1-4.5 1.1c-2-.9-3-2.6-4-4.5-.9-1.8-.5-3.8-1.4-5.5Z" fill="#DC8940"/><path d="M668 154.3c0 .5-.3 1.4-.8 2.3-1.6 2.7-4 4.5-6.6 6.1-1 .6-2.1.8-3-.1-.8-.8-.6-1.8-.2-2.7 1.5-3.4 3.5-6.4 6.9-8.1 2.2-1.1 3.7-.2 3.7 2.5Z" fill="#57443C"/><path d="M138.6 179.9c-1.2-2.5-3.2-3.4-5.8-2.9-.3-.8.1-1.3.8-1.6 1.6.7 2.8.6 3.5-1.2.9-2.1 2-4.2 2.6-6.4.8-2.9 2.5-4.3 5.5-4 .5 0 1 0 1.5-.1-.9 1.4-1.6 2.9-2.1 4.5-.8 2.5-1.9 4.9-3.7 6.9-1.2 1.4-2 3-2.3 4.8Z" fill="#FAA154"/><path d="M165.6 136.1c-.8-.6-1.4-1.3-1.4-2.4-.1-5.3-2.7-9.6-5.6-13.8l-.9-1.5c0-.8.5-1 1.2-.7 6 2.8 9.9 11.3 8.2 17.4-.3.7-.9.9-1.5 1Z" fill="#FCA356"/><path d="M91.1 171.1v.7c-7.4-2.9-13-7.9-16.9-14.9-1.9-3.3-5.1-5.8-6.3-9.6-.7-2.1-1.7-4-1.6-6.2 2 .1 1.9 2.3 3.1 3.2.2.3.3.6.4.9.9 4 4.4 6.6 6 10.3.2.3.3.6.4.9.3.7.8 1.4 1.2 2 .2.3.4.5.6.8 2.3 4.1 6 6.6 10 8.8.3.1.5.3.8.5.2.2.5.3.7.5l.3.3.6.6.3.3c.2.2.3.4.4.7v.2Z" fill="#FFA354"/><path d="M644.4 128.7c-1 .7-1.9 1.5-2.9 2.2-.2.3-.6.4-.7.8-1.9-1.2-2.5-3.3-3.5-5.1-.5-1.2-.7-2.7-1.6-3.6-2.9-3-3.1-6.6-3-10.3.3-.2.6-.2 1 0 1.4 6.8 6.5 11.1 10.7 16Z" fill="#FCB275"/><path d="M42.7 532.9c.1-1 .2-2 .4-3 4.3 1 8.7 1.9 13 2.9.1 0 .1.2.2.5-3.8 1-7.7 1.9-11.7 1.1-1-.3-1.7-.6-1.9-1.5Z" fill="#FCC696"/><path d="M134.2 402.8c-1.9-.2-3.6.5-5.3 1.2-1.1.5-2.2 1-3.5 1-.8-2.5.7-5.2 3.1-5.8 2.3-.6 5.5.8 6.6 2.9.3.5-.4.6-.9.7Z" fill="#DC8A41"/><path d="m655.5 141.2-2.7 3c-1 .4-1.9.4-2.8-.2-.7-.5-1.6-.6-2.4-.5.7-1.4 1.8-2.5 2.8-3.6 1.5 1 3.5.5 5.1 1.3Z" fill="#F6A561"/><path d="M126.2 514.1c-2.8 1.4-5.5 3.2-8.7 3.1 2.7-1.5 5.5-2.8 8.7-3.1Z" fill="#FEB676"/><path d="M377 24.3h4.4c-1.5 1-3 1.1-4.4 0Z" fill="#DB8940"/><path d="M747.7 688c3.4.2 6.9.1 10.8 1.6-4.3.7-7.5-.4-10.8-1.6Z" fill="#FEAD65"/><path d="M342.1 586.8c-1.9 1.7-3.6 2.9-5 4.3-4.4 4.4-4.2 9.6.5 13.7 1.4 1.2 2.9 2.2 4.5 3.2 3 1.9 4.9 4.7 6.1 8 1.1 3 .5 4.8-2.3 6.5-3.8 2.4-8 3.5-12.3 4.4-11.3 2.4-22.9 3.2-34.4 4.3-4 .4-8-.5-12-1.1-5.8-.9-11.6-1.6-17.4-2.4-3.3-.5-3.4-.6-3-3.9 1.2-10.5 1.5-21.1.8-31.7-.5-6.8-.4-13.6-.6-20.4-.1-2.3.1-2.5 2.5-2 5.5 1.1 11 1.9 16.6 2.4 6.3.5 12.7.5 18.9 1.7 7.8 1.5 15.5 3.3 23.1 5.6 4.9 1.3 9.3 4.1 14 7.4ZM471.7 583.6c.3-1.7 1.4-2.6 2.3-3.5 13.5-13.7 28.2-25.7 45.2-34.9.7-.4 1.6-.7 2.4-.9 2.5-.9 4.2-.3 5.9 2 4.3 5.8 8.4 11.6 12.5 17.5 2.3 3.4 3.7 7.1 4.5 11.1 1.4 7.4 2.5 14.9 3.3 22.4.2 2-.4 2.9-2.2 3.5-14.3 4.9-28.6 9.7-43.6 11.5-1.6.2-3.1.4-4.7.4-2.4 0-3.3-.9-3-3.3.2-1.4.7-2.8 1.2-4.2.9-2.8 2-5.5 2.6-8.3 1-4.9-1.1-8.4-6-9.6-2.4-.6-4.8-.7-7.2-1-2.7-.3-5.3-.5-8-.8-1.9-.4-3.6-.9-5.2-1.9Z" fill="#FFDFC3"/><path d="M395.9 405.7c1.2 1.1.7 2.5.7 3.8-.1 4.6.5 9.2 1.5 13.7.1.2.1.5.1.7.2 1.4 2.1 2.8.8 3.9-.8.7-2.7 0-4.1-.2-3.1-.4-6.2-.9-9.3-1.4-2.4-.4-2.7-.9-2.8-3.4-.1-3.5.2-7 1.5-10.3 4.2-1.7 8.1-4 11.6-6.8Z" fill="#fff"/><path d="M418.6 412.3c2.6 2.1 1.4 4.9 1.3 7.4-.1 3.2-1.3 5.6-5.2 6.2-3.2.5-6.2 1.8-9.5 1.8-.4-3.1-.1-3.8 2.5-4.9-.8-.9-1.6-1.6-1.6-3 0-4.2.4-8.5-.5-12.6-.1-.2.4-.6.6-.9 3.9 2.5 8 4.6 12.4 6ZM295.9 333.1c.2-.9.3-2 .6-3.1 1-3.1 3.9-5 7-4.7 3.1.4 5.5 2.9 5.7 6.2.2 3-.6 5.8-2 8.4a5.18 5.18 0 0 1-5.8 2.8c-2.5-.4-4.2-2-4.7-4.5-.5-1.6-.6-3.3-.8-5.1ZM519.7 328c0 .6 0 1.9-.3 3.2-.7 3.4-3.7 5.8-7 5.7-3.5-.1-6.4-2.8-6.8-6.3-.3-2.7.3-5.3 1.6-7.7 1.6-3.1 4.9-4.7 7.8-4 2.9.7 4.6 3.1 4.7 6.9.1.4 0 .9 0 2.2Z" fill="#FEFEFE"/><path d="M135.2 144.9c-.2.8-.5 1.5-1.1 2.1-.4.8-.5 1.8-1.4 2.3-5.3 5.3-11.4 9.3-18.3 12.2-3.8 1.6-7.7 1.4-10.4-1.6-2.2-2.3-4.4-4.6-6.3-7.1-2.4-3.2-3.7-6.8-2.8-10.9.6-2.8.5-4.9-3.4-5.3-3-.3-3.9-2.7-3.3-5.4.6-3 .5-4.9-3.3-5.8-3.9-.9-5.3-7-2.8-10.4 1.7-2.4 4-4.2 6.7-5.5.6-.2 1.1-.1 1.7.1 3.9 0 7.7-.7 11.6-.7 9.3-.2 18.1 1.8 26.4 5.8 4.8 2.3 9.6 4.6 13.8 8.1 1.2 1 2.2 2.3 3.7 2.9.1.4.4.7.8.8v-.1c2.6 4.3 2.3 8.4-.8 10.7-1.8-.4-1.7-1.9-1.7-3.2-.1-3.4-1.7-5.7-4.5-7.4-2.2-1.3-4.2-3-6-4.7-2.8-2.6-6.3-3.6-9.9-4.3-2.1-.4-4 0-5.2 1.8-3.2 4.7-7.4 8.8-10.4 13.6-3.5 5.5-3.5 7.3.5 12.6.3.4.6.8.8 1.2 1.1 3 3.1 3.9 6 2.4 1.6-.8 3.3-.8 4.9.2 3.1 1.8 5.7.8 8.5-.9 1.9-1.3 3.2-4 6.2-3.5Z" fill="#FFCBA2"/><path d="M135.2 144.9c-2.4 1.7-4.8 3.3-7.1 5-2.4 1.8-4.9 2.2-7.5.6-2-1.2-3.7-1.1-5.8-.1-3.3 1.6-4.3 1-5.8-2.4-.5-1-1-1.9-1.8-2.7-3.7-3.4-3.7-4.4-1.5-10 1.1-2.7 2.9-5.1 4.8-7.3 2.4-2.7 4.7-5.6 6.8-8.5 2-2.9 3.8-3.4 7.2-2.9 5.1.7 9 3.4 12.6 6.7 1.1 1 2.2 1.9 3.5 2.6 3.6 1.9 4.9 4.9 4.7 8.7v2.2c-.1.1-.2.3-.3.4-1.2 1.1-3 1.4-4.1 2.6-2.1 1.5-4 3.2-5.7 5.1Z" fill="#FFCFA8"/><path d="M88.9 109.7c-1 2.1-3.3 2.7-4.8 4.4-2.5 2.8-3.1 5.4-1.4 8.5.9 1.7 2.4 2.7 4.5 2.4 2-.2 2.6.8 2.5 2.6-.1 1.2-.2 2.4-.5 3.6-.8 3.2.3 4.6 3.6 4.8 3.5.2 3.5.2 3.5 3.8 0 .7 0 1.5-.2 2.2-1.5 4.7.6 8.3 3.5 11.6 1.5 1.7 3.2 3.3 4.6 5.2 2.2 3.2 6.8 4 10 1.9 1.6-1 3.2-1.8 4.9-2.4 3.4-1.2 6.3-3 8.7-5.8 1.4-1.7 3.3-2.9 5.1-4 .4.4.5.9.2 1.3-2.8 4.5-4.6 9.6-9.6 12.4-2.2 1.2-4.4 2.5-6.5 4-4.4 3-9.3 3-13.5-.4-4.1-3.4-8.4-6.6-11.3-11.2-1.1-1.8-2.5-3.4-4.2-4.5-5-3.3-7.7-7.8-9.4-13.7-1.8-6.2-1.5-11.9.1-17.9 1.4-5.1 5.2-7.8 9.8-9.7.2 0 .4 0 .5.2.3.1.3.3.3.4-.2.3-.3.3-.4.3Z" fill="#FFC89B"/><path d="M88.5 108.9c-2.1 1.7-4.2 3.3-6.2 5-.4.3-.8.7-1 1.1-2.8 5.8-4.3 11.8-2.6 18.3.5 2.1 1.3 4.1 1.7 6.3.7 3.4 2.8 6.2 5.8 8.1 3.7 2.4 6.4 5.5 8.6 9.2.3.5.6 1 1.1 1.4 2.6 2.3 5.2 4.6 7.9 6.9 3.7 3.2 8.6 3.2 12.7.3 2.4-1.7 4.9-3.1 7.5-4.4 1.4-.7 2.7-1.6 3.2-2.9 1.3-3.1 3.6-5.4 5.3-8.2.2-.4.3-.9.4-1.4.5-.5.9-1 1.4-1.5l-.6 5.6c.7 1.9.1 3.4-1 5a46.7 46.7 0 0 1-14.2 13.8c-5.3 3.4-11.4 2.6-16.2-1.4-6.6-5.7-12.4-12.3-19.4-17.6-2.1-1.6-2.9-4.1-4.4-6.2-6.2-9.2-6.6-18.7-1.6-28.6 2-3.9 5.4-6.5 8.5-9.4.7-.6 1.6-.6 2.4-.1l.7.7Z" fill="#FFC291"/><path d="M87.7 108.2c-1 .1-1.8.6-2.5 1.3-5.5 4.5-9.2 10.2-10.4 17.3-.8 5-1 9.7 2.3 14.2 1.5 2 2.1 4.8 3.5 7.1 1.2 2.1 2.6 4.1 4.8 5.3 2.4 1.3 4.2 3.4 5.9 5.4 3.7 4.5 8.7 7.7 12.8 11.7 3.3 3.2 7.9 3.1 12 1.3 2.6-1.2 5-3 7.3-5.1 2.7-2.5 5.2-5 7.5-7.8 1.5-1.8 2.9-3.6 2.7-6.1 1.3 2 1.4 3.8-.4 5.7-1.2 1.3-1.7 3.1-2.5 4.7-.7.5-.4 1.2-.5 1.8 0 .7.1 1.4-.2 2.1-3.4 4.1-7.4 7.7-11.7 10.8-2.5 1.8-5.1 1.8-7.9.3-6.9-3.7-12.7-9-18.8-13.7-3.1-2.4-5.6-5.4-8.6-7.9-2.3-1.8-4-4.2-5.3-6.9-.9-2-1.6-4.1-3-5.8-5-6-5.1-12.6-2.7-19.6 2.6-7.6 6.9-13.8 14.2-17.7.7 0 1 .5 1.2 1 .1.1.2.3.3.6Z" fill="#FFBC85"/><path d="m91.8 101.6-3.6 2.4c-9.2 2.2-15 8.4-17.9 17-3.2 9.5-2.8 18.7 4.6 26.6.9 1 1.4 2.3 1.8 3.5.1.3.2.6.3 1 .3 1.4.9 2.8 1.8 3.9.2.3.4.5.6.8 1.6 2.5 4 4 6.3 5.7 1.5 1.1 3.4 1.9 3.1 4.3-.4.4-.9.5-1.4.5-4.5-1.6-7.4-5-10.2-8.6-.5-.7-.9-1.5-1.5-2.2-1.5-4.3-4.9-7.5-6.6-11.7C57 126 68 102.5 90 100.4c.5 0 1 0 1.4.2.5.2.6.6.4 1Z" fill="#FFAA61"/><path d="M129.8 166.7c0-.7.1-1.5.1-2.2.2-.3.4-.3.6 0 0 3.2-.3 6.5 1.6 9.5 0 .1.1.3.1.3-3.4 4.8-6.6 9.9-12.6 11.9-3.3 1.1-6.4.3-9.1-2.1-3.4-3-6.8-5.9-9.8-9.2-2.3-2.5-5.5-3.5-8.1-5.5-3.9-5.1-9.8-8.1-13.9-13-1-1.3-1.5-2.9-2.2-4.4-.5-.6-.4-1.4-.3-2.1 1.3-.8 1.8.3 2.3 1 4.7 7.5 11.6 12.7 18.6 17.7 4 2.8 7.4 6.3 11.3 9.2 1.1.8 2 1.7 3.2 2.5 4 2.6 6.6 2.4 10.2-.8 3.9-3.4 7.3-7.2 8-12.8Z" fill="#FFB06E"/><path d="M76.5 149.9v2.2c-1.1-2.9-3.2-5.1-5-7.5-4.3-5.8-4.4-12.4-3.3-19.1.9-5.9 3.3-11.1 7.6-15.3 2.9-2.9 6-5.6 10.2-6.7.9-.2 1.6-.4 2.3.5-.4.2-.6.5-.7.9 0 .9-.1 1.8-.1 2.6-.2-.2-.5-.4-.7-.7-1.4-.9-2.3.1-3.2.8-7.3 5.8-12 13.3-13.2 22.6-.7 5 .8 9.3 3.9 13.2 1.2 2 3.1 3.8 2.2 6.5Z" fill="#FFAE6A"/><path d="M91.8 101c-8.7.1-15.6 4.2-21 10.7-4.2 5-6.6 10.9-5.9 17.5.5 4.7 1.7 9.3 3.6 13.6.3.7.5 1.4.7 2.1-1.8-.6-1.9-2.5-2.9-3.7-.1-2.5-1.1-4.7-2-6.9-2.8-6.4-1.9-12.5 1.4-18.4 4.3-7.6 10.7-12.7 19.2-15 2.2-.6 4.5-.9 6.7-1.3 1-.2 2-.1 2.7.8h-.1c-.3.2-.5.3-.8.5-.2.2-.4.2-.6.2-.4.2-.7.1-1-.1Z" fill="#FFA455"/><path d="M92.6 168.9c3.4 1.5 6.8 3.1 9.3 6 3 3.4 6.6 6.1 9.8 9.2 2.4 2.3 7.5 2 10.3.2.9-.6 2-1.1 2.6-2 2.1-3.2 5.4-5.3 7.5-8.4.7.3 1.1.8 1.5 1.4-.3.5-.5 1-.8 1.6-3.6 2.1-5.9 5.3-7.8 8.8-3.8 4.1-9.9 4.2-14.7.2-2.9-2.4-5.3-5.4-7.9-8.1-2.5-2.5-5.2-4.7-8.4-6.3-.8-.5-1.5-1.2-1.6-2.2.1 0 .1-.2.2-.4Z" fill="#FFAE6A"/><path d="M145.2 136.8c1.6-.1 2.2-1.1 2.2-2.7 0-2.6.1-5.2-.6-7.7a9 9 0 0 1 3.5 3.2c.7.5.8 1.5 1.6 2h-.1c.1.4.4.6.7.8.9 1.7-.6 2.3-1.5 3.1-.6.6-1.7-.1-2.2.9-1.1.7-2.3 1.3-3.7 1.4-.2-.2-.3-.4-.2-.6.2-.3.2-.4.3-.4Z" fill="#FBC495"/><path d="M151.1 135.4c.4-1.1 1.5-1.8 1.5-3.1.9.4 1.4 1.1 1.8 2-1 .8-2.1 1.2-3.3 1.1Z" fill="#F1B581"/><path d="M145.2 136.8v.9c-1.4.9-2.8 1.7-4.4 2.1.9-1.9 3-2 4.4-3Z" fill="#FFCBA2"/><path d="M146.1 125.7c-2 0-2.9-1.4-3.7-2.9 1.5.5 2.7 1.6 3.7 2.9Z" fill="#FBC495"/><path d="M151.9 131.6c-1.1-.2-1.6-.9-1.6-2 .9.4 1.4 1 1.6 2ZM148.9 136.2c.4-1.1 1.3-.9 2.2-.9-.5.8-1.4.9-2.2.9Z" fill="#F1B581"/><path d="M130.5 164.5h-.6c0-.6.2-1.2.8-1.4-.1.5-.2 1-.2 1.4Z" fill="#FFB679"/><path d="M88.9 109.7v-.7c.6 0 1.2.1 1.6.6-.5.1-1 .1-1.6.1Z" fill="#FFC291"/><path d="M146.8 126.4c-.5-.1-.7-.3-.8-.8.5.2.7.4.8.8Z" fill="#FBC495"/><path d="M87.5 104.9c.1-.5.3-.8.7-.9-.2.2-.4.5-.7.9Z" fill="#FFAA61"/><path d="M152.6 132.3c-.4-.1-.7-.4-.7-.8.4.1.7.4.7.8Z" fill="#F1B581"/><path d="M91.8 101c.3 0 .6 0 .9.1-.2.4-.5.6-.9.5v-.6ZM93.3 100.8c.3-.2.5-.4.8-.5-.1.4-.4.6-.8.5Z" fill="#FFA354"/><path d="M709.5 65.8c1.1 2 1.8 4.1 1.1 6.5-.6 1.8-.8 3.9-.8 5.7 0 4.1-2.1 7.3-3.3 11-2 5.8-5.6 10.9-7.7 16.7-1.1 3.1-2.9 5.9-5.3 8.2-3.1 3.1-5.5 6.6-6.6 10.9-.1.2-.1.5-.2.7-2.5 2.8-2.6 6.4-3.4 9.8-1.4 5.6-4.5 9.6-10.4 10.8-2.5.5-4.9 1.3-7.5 1.1-2.6-.2-3-.7-3.3-3.6.5-.6 1.2-.9 2-.9 6.2.1 9.8-3.8 12.9-8.3 2.7-4 5-8.3 7.3-12.6.2-.4.3-1 .6-1.3 6.8-8.2 9.6-18.7 15.6-27.4 4.6-6.7 3.8-14.4 3.7-21.9 0-1.4-1.4-1.9-2-2.9 2.2-.5 4.3-1 6.5-1.4.3-.5.6-.7.8-1.1Z" fill="#FFAA62"/><path d="M702.1 68c3 .4 3.1.5 3 3.2-.1 4.7.4 9.4-.6 14.1-.4 2-.8 3.9-2 5.7-2 3.1-3.7 6.5-5.9 9.5a14.9 14.9 0 0 0-2.3 5.7c-.5 2.3-1.5 4.3-3 6.1-4.4 5-6.8 11.3-10.3 16.9-1.8 3-3.5 6-5.8 8.7-3.6 4.1-7.8 6-13.2 5.4l-.7-.7c-.8-.7-1.5-1.4-2.3-2.1 9.8-2.9 14.8-11.2 20.8-18.4 5-6 8.8-12.8 11.8-20 1.5-3.7 4.1-6.9 6.5-10.1 2.8-3.7 3.5-7.8 2.8-12.4-.5-3.8-.7-7.7-1.6-11.4 1-.1 1.9-.1 2.8-.2Z" fill="#FFB271"/><path d="M699.3 68.2c1.6 2 2.3 4.2 2.2 6.7-.1 1.9.2 3.8.5 5.7.8 5.1-1.2 9.4-4.2 13.4-3 3.9-5.4 8.2-7.4 12.8-2.1 5.1-5.3 9.7-8.6 14.2-2.3 3.1-4.9 5.9-7.3 8.9a65.5 65.5 0 0 1-7.9 7.9c-2.3 2-4.7 2.8-7.6 2.6h.1c-1.4-1-2.8-.1-4.1-.1-2.3-.1-4.1-.6-3.2-3.6 0-1.4 0-2.9.1-4.3.7-.2 1 .2 1.3.7.2.5.3 1 .4 1.5 1 3.2 3.6 2.2 5.8 2 1.3-.1 2.5-.9 3.5-1.9 7.8-7.6 16.2-15 21.6-24.6 4-7.1 7.8-14.3 13.1-20.6.7-.8 1.5-1.8 1.5-2.9-.4-5.8.9-12-3.8-16.9-.3-.3-.3-.6-.3-1 .9-.9 2.1-.1 3-.7.3.3.8.2 1.3.2Z" fill="#FFB87C"/><path d="M633.5 112.7h-.8c-1.2-2.8-3.2-4.9-5.8-6.4.8-3.8 1.6-7.5 3.5-10.9.9-1.7 1.3-3.6.9-5.6 9.3-8.1 19.3-15.1 31.8-17.4 8.1-1.5 16.1-3.5 24.4-3.7.7 0 1.5 0 2.2.1.4-.3.7-.2 1 .1-.1 1.3-1.2 1.5-2.1 1.6-4.3.5-8.7.9-13 1.6-13.2 2.2-25.4 6.9-35.8 15.3-5.5 4.4-6.5 11.3-6.4 18.2 0 2.3.9 4.6.1 7.1Z" fill="#FDB576"/><path d="M690.5 68.9c-.3-.1-.6-.1-.9-.2 2.7-.8 5.4-.5 8.1-.5-.8.8-1.9.4-2.8.6-1.4 1.3-2.9 1.2-4.4.1Z" fill="#FFB271"/><path d="M709.5 65.8c-.1.4-.4.7-.9.8.3-.3.6-.5.9-.8Z" fill="#FFA355"/><path d="M650.8 130.3c-.6-.5-1.3-1-1.9-1.5-.6-.6-1.5-.3-2.1-.9-3.2-4-5.4-8.6-8.8-12.5-2.3-2.6-2.2-6.2-1.6-9.4.7-3.7 1.4-7.4 1.6-11.2.3-4.1 2.4-6.9 5.6-8.9 12.4-7.8 25.3-14 40.4-13.6 1.6 0 3.2 0 4.7-.5 4.6-.2 6.9 1.5 7.6 5.9.9 6.3.5 12.2-5.2 16.4-5.2 3.8-8.4 9.4-12.2 14.4-.6.8-1 1.7-1.7 2.4-6.6 6.2-11.6 13.7-17.6 20.3-2.8 3.2-4.9 2.8-8.8-.9Z" fill="#FFC698"/><path d="M647.4 127.9c.6.1 1.1.2 1.4.8h-4.4c-1.3.1-2.3-.3-3-1.6-1.3-2.4-3.2-4.3-5.1-6.1-2.3-2.3-2.9-5.2-2.9-8.3-1.2-5.7-2.6-11.3.4-16.9.3-.6.6-1.4.7-2.1.3-4.4 3.4-6.8 6.6-8.9 9.6-6.6 20.3-10.6 31.5-13.4 2.9-.7 6-.7 9-1 3-.4 6-.4 8.8-1.4h4.4c3.4 2 4.4 5.2 4.4 8.9 0 1.1-.1 2.2.3 3.2 1.4 4.4 0 8-3 11.3-3.4 3.7-6 7.9-8.5 12.2-.9 1.5-1.1 3.3-2 5-2 3.7-4.6 6.8-7.3 9.9-4.6 5.3-9.5 10.3-14.5 15.3-2.6 2.6-5.6 3.9-9.5 2.8-1.8-.5-2.5-1.3-2.3-3 6.3.6 10.1-3.1 13.4-7.7 1.3-1.9 2.7-3.7 4.4-5.3 6.2-5.5 11.2-12 15.2-19.4 2.1-4 5.1-7.4 8.2-10.6 2.5-2.5 4.4-5 3.3-9-.5-1.9-.3-4.1-.8-6.1-1.2-4.7-1.7-5.1-6.9-4.7-.3.1-.7.2-1.1.3-6.8.4-13.6.2-20.2 2.4-9 3-17.7 6.5-25.5 12.2-4.5 3.3-5.2 8-5.9 12.7-.4 2.9-.6 5.8-.7 8.7-.1 1.7-.4 3.6.5 5 3.3 5.5 6.2 11 11.1 14.8Z" fill="#FFBD85"/><path d="M650.8 130.3c.1 0 .3 0 .4.1 5.2 3.3 6 2.7 10.1-2.2 2.6-3.1 4.8-6.4 7.1-9.6 1.1-1.6 2.8-2.6 4.3-3.9 3.6-3 5.5-7.3 8.4-10.8 2.8-3.4 5.1-7.4 8.9-10 1.2-.8 2.1-2 3.1-3.1 1.8-1.9 3-4.1 2.7-6.9-.2-1.8.1-3.7-.1-5.5-.4-4.2-2.3-5.9-6.5-6-.2-.2-.3-.3-.2-.5.1-.2.2-.2.2-.2 5.1-.8 6.5 0 7.5 4.7.7 3.1.8 6.2 1.1 9.4.2 2-1 3.5-2.3 4.7-5.8 5.5-10.2 11.9-14.1 18.8-2.3 4.1-5.7 7.6-9.3 10.7-4.4 3.7-6.8 9.1-11.4 12.6-3.2 2.4-5.4 2.6-8 .5l-.7-.7c-.5-.7-.9-1.4-1.2-2.1Z" fill="#FFC18F"/><path d="M651.8 136.7c-.1 2.3 1.4 2.7 3.3 3 1.4.2 2.9-.6 4.1.8-1.3-.1-2.5.2-3.6.7-3.5.9-3.5.9-5.1-1.4v-.1c.3-.3.5-.6.6-1-.1-.7.1-1.4.7-2Z" fill="#FFB271"/><path d="M651 138.8c0 .4-.2.7-.6 1 0-.5.2-.8.6-1Z" fill="#F6A561"/><path d="M640.9 131.7c.2-.3.5-.5.7-.8-.1.4-.3.7-.7.8Z" fill="#FF9E4B"/><path d="M94 171.1c2.6 1 5 2.4 7 4.4 2.6 2.7 5.5 5.2 8 8 4 4.6 9.4 6.1 16 2.2-.1.5-.3 1-.4 1.5-.5.6.2 1.6-.6 2.1-5.9 2.4-10.3 1.5-14.9-2.8-2.2-2.1-3.9-4.6-5.9-6.8a35.3 35.3 0 0 0-12-8.6c-.2-.3-.5-.5-.7-.7-.2-.3-.5-.5-.7-.7-.2-.3-.5-.5-.7-.7-.6-.7-1.9-.8-1.5-2.2h1.5c.1 0 .2 0 .4.1s.4.3.6.4l.3.3c.2.2.4.4.6.5l.3.3.6.6c.1.1.2.2.3.4.3.7 1.1 1.2 1.8 1.7Z" fill="#FFA85E"/><path d="M123.9 189.4c.1-.7-.1-1.6.6-2.1v4.3c-.6-.6-.4-1.5-.6-2.2Z" fill="#FF9E4B"/><path d="M87.5 166.7c.5.7 1 1.5 1.5 2.2-5.1-2-9.5-4.9-11.7-10.2 2.9 1.9 4.6 5 7.7 6.6.8.5 1.6 1 2.5 1.4ZM69.2 144.8c3.1 3.4 5.7 7 6.6 11.7-1.8-2.7-3.6-5.4-5.6-8-.9-1.1-1.1-2.3-1-3.7ZM75.8 156.5c1 .4 1.5 1.1 1.5 2.2-1-.4-1.5-1.1-1.5-2.2ZM88.9 168.9l.7.7-.7-.7ZM89.7 169.7l.7.7-.7-.7ZM90.4 170.4l.7.7-.7-.7Z" fill="#FFA455"/><path d="M76.5 149.9c-.4-2.9-2.4-5-4.1-7.2-3-4-3.8-8.6-3.1-13.3 1.4-8.7 5.7-15.9 12.4-21.6.9-.8 1.9-1.5 3-2.1 1.1-.6 1.8-.2 2 1.1-6.8 4.3-11.6 10.2-13.9 18-1.2 4.1-2.1 8.2-.7 12.5.2.6.2 1.2.5 1.7 2.8 3.7 4.8 7.8 6.8 12 1.1 2.3 3 4.2 5 5.7 1.9 1.4 3.6 2.9 5.1 4.6 2.6 2.8 5.5 5 8.7 7.2 2.4 1.6 4.6 3.5 6.8 5.4 2.2 1.8 4.8 2.8 7.2 4.2 1.2.7 2.5.5 3.9 0 2.1-.8 4-2 5.3-3.7 2.4-3 5.7-4.9 8.3-7.5.4 3.3-.1 6-2.6 8.6-2.7 2.7-5 5.8-8.7 7.4a5 5 0 0 1-3.8.3c-2-.6-3.8-1.7-5.3-3-1.7-1.4-3.5-2.6-5-4.2-2.8-2.9-6-5.2-9.5-7.3-1.9-1.1-3.6-2.5-5-4.2-1.7-2.1-4.1-3.4-6-5.3-2.4-2.4-5.1-4.5-6.1-8-.1-.7-.6-1-1.2-1.3Z" fill="#FFB679"/><path d="M78.7 156.5c4.7 4.1 10.2 7.2 13.9 12.4-.5.5-1 .4-1.5 0-.2-.3-.5-.5-.7-.7-.2-.3-.5-.5-.7-.7l-.7-.7c-1.3-2.3-3.5-3.5-5.6-5-2-1.4-4.1-2.7-4.7-5.3ZM76.5 152.1c1.2 1.2 1.9 2.7 2.2 4.4-1.7-1-2.2-2.6-2.2-4.4Z" fill="#FFAE6A"/><path d="M91.1 168.9h1.5c.5.7 1 1.5 1.5 2.2-1.5 0-2.3-1-3-2.2Z" fill="#FFAA61"/><path d="M652.5 133.1c2.9 1.4 5.4.8 7.6-1.4 2.1-2.1 4.3-3.9 6-6.5 2.1-3.3 5.2-5.9 8.2-8.5 2.7-2.3 4.6-5.3 6.5-8.3 3.3-5.2 6.4-10.5 10.9-14.8.8-.8 1.5-1.6 2.3-2.3 2.7-2.1 3.4-4.9 3-8.1-.3-2-.5-4.1-.9-6.1-.7-3.6-1.8-5.8-7.1-5.3 1.6-1.3 3.5-.8 5.2-.5 1.2.2 1.7 1.4 2.2 2.7 1.3 3.9 1.2 8.1 2.1 12.1.2.7-.1 1.4-.5 2-1 1.5-2.1 2.9-3.4 4.2-4.5 4.6-8.2 9.8-11.1 15.5-1.4 2.8-3.2 5.4-5.5 7.6-4.6 4.5-9.2 8.9-12.9 14.2-1.3 1.8-3 3.5-5.1 4.6-2.4 1.2-4.8 1.6-7.3.4-.1-.5-.1-1-.2-1.5Z" fill="#FFC18E"/><path d="M640.1 107c-.2-2.3.3-4.4 1-6.3 1.1-2.8 1.3-5.8 1.8-8.7.3-1.6.9-2.7 2.1-3.6 3.4-2.6 6.9-4.9 10.8-6.7 6.2-2.8 12.5-5 19.1-6.5 3-.7 6-.3 9-.8 1.6-.3 3.3-.7 5-.5 2.2.2 3.7 1.2 4.4 3.2 1.7 5.4.1 10.9-5.2 13.8-.8.4-1.4 1-1.8 1.7-.6 1.3-1.6 2-2.8 2.8-1.3.8-2.1 1.9-2.8 3.3-2.5 4.8-6.2 8.6-10.5 11.8-3.9 2.9-6.7 6.5-8.2 11.2-.6 2-2 3.9-3.3 5.5-1.2 1.4-2.9 1-4.3.2-2.3-1.3-4.3-3.1-5.6-5.6-1.5-3.2-3.2-6.2-6-8.5-2-1.6-3.3-3.8-2.7-6.3Z" fill="#FFCA9F"/><path d="M689.1 71.8v.7c-1.2.7-2.5.8-3.9.7-10.5-.7-20 2.6-29.3 7-3.9 1.8-7.6 3.6-11.2 6.1-1.6 1.1-3 2.5-4.3 3.9-1.8 2.1-1.4 4.8-1.7 7.3-.3 2.4-.7 4.8-1.2 7.1-1.1 5-.5 9.5 3.5 13.3 2.9 2.7 4.4 6.6 6.3 10.1-2.2.3-3.6-.4-4.5-2.6-1-2.2-2-4.5-3.9-6.1-4.3-3.6-4.5-8.4-3.8-13.3.2-1.6.2-3.1.3-4.6.7-5.8 1.4-11.4 7.1-15.4 6.7-4.6 13.9-7.8 21.4-10.6 8.3-3.1 16.7-3.8 25.2-3.6Z" fill="#FFC18E"/><path d="m88.9 166.7.7.7-.7-.7ZM89.7 167.5l.7.7c-.3-.2-.5-.5-.7-.7ZM90.4 168.2l.7.7-.7-.7Z" fill="#FFAA61"/><path d="M691.3 80.8c.3 2.8-.8 5-3.5 6.7-5.3 3.4-8.7 8.7-12 13.9-2.2 3.5-5.4 5.8-8.7 8-2.3 1.5-4.5 3.2-7 4.4-3.4 1.6-6.3 1.4-9.1-1-1.2-1-2.3-2-3.8-2.7-2.5-1.1-3.7-4-3.2-6.8.4-2.4 1.3-4.6 2.9-6.5 1.8-2.1 3.7-4.2 3.6-7.3 0-.8.6-1.3 1.1-1.8 2.1-2.2 4.5-3.9 7.4-5.1 3.4-1.5 6.9-2.8 10.4-4 3.5-1.2 7.1-1.6 10.6-2.4 1.3-.3 2.6-.2 3.9-.6.8-.3 1.7-.2 2.5-.2 4 .3 4.9 1.1 4.9 5.4Z" fill="#FFCEA6"/><path d="M684.2 77.6c2-.1 3.8-.1 4.6 1.8.9 2 .1 3.9-1.4 5.3-1.8 1.8-3.9 3.2-5.7 5-3.3 3.3-5.8 7.1-8 11.1a14.4 14.4 0 0 1-10.7 7.3c-2.3.4-4.6-.4-5.7-3-.7-1.7-1.8-2.6-3.8-2.8-3-.4-3.8-2.5-1.9-4.9 1.6-2 3.4-3.7 5.5-5.3 2.6-2.1 5.4-4.1 7.2-7.1.2-.4.5-.9.9-1.2 4.1-2.4 8.3-4.6 12.9-5.5 1.9-.2 4-1.2 6.1-.7Z" fill="#FFD1AB"/></svg>