<svg width="673" height="775" viewBox="0 0 673 775" fill="none" xmlns="http://www.w3.org/2000/svg"><path d="M615.4 234.9c.4 2.5-.6 4.8-1.1 7.1-.4 2-.3 3.8 1 5.5-.5 5.5-.5 5.5 5.4 3.7 2.6-.8 5.2-1.7 7.7-2.6 4.9-1.7 5.9-1 5.9 4.3 0 6.6-1.2 13-1.8 19.5-.6 5.4-1 10.8.9 16.1.9 1.4 1.6 3 3.6 2.9-.3 2-2.1 1.8-3.4 2.2-1.4.5-2.9.7-4.3 1.3-1.1.4-2.7.6-2.4 2.2.3 1.3 1.7 1.8 2.9 1.9 2.7.4 5.4.1 8.1.2 4.6.1 5.7 1.3 5 5.9-.6 4-1.6 8-2.7 11.9a72.7 72.7 0 0 0-2.6 11.2c-.6 3.9.2 5.2 3.8 6.9v3c-3.8 2.9-3.8 3.9.5 6.3 2.6 1.5 5.3 2.6 8.1 3.6 3 1.1 3.8 3.2 3.4 6.1-.4 2.8-1.8 5.1-3.3 7.3-2.5 3.8-5.3 7.4-6.3 12-.6 2.4-.3 4.1 2.2 4.9-.4 1.4.5 2 1.5 2.7-2.6 3.1-2.7 3.9.2 6.8 4.3 4.3 8.2 8.9 12.1 13.6 2.3 2.8 2 3.9-1 5.9-2.6 1.7-5.3 3.2-7.6 5.3-1.3 1.3-2.9 2.7-2.4 4.7.5 2.2 2.6 1.3 4.1 1.7.5.1.9.3 1.3.7-1.3 1.6-3.5 1.7-4.8 3.3.7.5 1.3.8 1.9 1.2-3.1 2.4-3.3 3.5-1.1 6.7 2.3 3.2 5 6.1 7.5 9.2.6.8 1.3 1.5 1.8 2.4 3 4.8 2.9 6-1.2 9.9-1.4 1.4-3 2.5-4.6 3.7-1.1.8-2.2 1.6-3.3 2.5-4.3 3.5-4.6 5-1.3 9.5-1.2.1-2.3.3-2.6 1.9-.2 1.6-1.2 3.1-.5 4.9-2.4 2.4-1.8 4.7.1 7.2 3.4 4.2 7 8.4 9.9 13 2.4 3.8 2 5.5-2 7.7-1.9 1.1-4.1 1.8-6.1 2.6-1.5.6-2.9 1.3-4.2 2.3-4.2 3-4.2 3.7-.6 6.8-1.4 1.2-3.4 2.1-3.1 4.5-3.2 1.4-3.2 3.8-2.3 6.7 2.2 6.7 6 12.7 9.3 18.9 2.7 5.1 2.6 5.4-2.8 7.7-3.2 1.3-6.5 2.4-9.4 4.2-2.5 1.5-5 3.2-7.3 5.3 1.3 1.4 3.5.1 4.5 1.8-1.8.6-2.6 1.7-2.4 3.8.2 3.2.1 6.4.1 9.5-2.4-.4-2.4-2.9-3.6-4.3-.5-.6-.9-1.4-1.7-1.1-.8.3-.8 1.2-.7 1.9a40 40 0 0 0 2.1 9.7c1.4 4.1 2.6 8.3 3.4 12.5 1.1 5.5.4 6.5-4.9 7.8-4.3 1.1-8.7 2-12.4 4.7-.7 1.7-2.1 3-3.2 4.4-.9 1.2-1.8 2.3-2.1 3.8-.5 0-.9-.3-1.3-.6-.8-.8-1.1-2.7-2.7-1.9-1.2.6-.9 2.2-.9 3.4.1 5.2-.2 10.3.5 15.5.8 5.5-.5 6.7-6.2 6.5-1.7-.1-3.4.2-5.1.4-5.9.7-6.8 2.5-3.6 7.1-4 .4-4.4.8-4.4 4.7-.1 6.8-.1 13.6-.1 20.4 0 1.3.3 2.7-.6 4-1.6-1.5-1.2-3.4-1.2-5.2-.2-6.9.3-13.7-.3-20.6-.1-.5-.3-1.1-.7-1.5-.2-.3-.5-.5-.7-.8-1.2-1.6-4.1-2-3.4-4.9 2.8-3.3 3-5.3.9-9-1.2-2.2-2.8-4.1-4.6-5.8-1-.9-2.3-1.6-2.3-3.2.5-2.2 2.1-3.9 2.6-6.1.6-2.8-.4-4.2-3.3-4.5-3-.2-5.9.2-8.7 1.1-1.4.5-3.1 1.4-4.1-.8.7-6.4-.1-12.8-1.3-19.1-.8-4.4 1.9-7.4 4.3-10.6 2.6-.9 2.8.7 2.4 2.5-.5 2.2-1.5 4.4.8 6.1 2.4 1.7 5 .9 7.3-.4 6.9-3.9 12.3-9 13.8-17.2.5-3.8-.5-5.7-4.3-7-4.1-1.4-8.3-1-12.4.1-1.3.4-2.5 1.1-3.9 1a3 3 0 0 1-1-.4c-.6-.7-.9-1.6-1.2-2.5-.2-.5-.2-1.1-.2-1.6.1-2.2 1.3-2.9 3.2-2.1 3.8 1.4 7 .2 10-2.2 2-1.6 4.2-3 6.2-4.7 4.8-4.2 5.6-7.2 3.4-13.1 0-.4 0-.7.1-1.1l.6-.9c1.1-1.3 2.5-2.4 3.6-3.8 1.8-2.2 3.5-4.7 1.7-7.4-1.6-2.4-4.4-2.4-7.1-1.9-1.6.3-3.1 1-4.7.6-2-1.3-.6-2.6.1-3.7 1.8-2.9 3.3-5.8 3.5-9.3.1-3.1-.4-3.6-3.3-2.8-4.8 1.2-9 3.4-12.3 7.2-1.9 2.2-3.2 2.1-4.1-.7-1-2.9-1.5-6-2.7-8.8-1.5-3.4-1.1-6.2 1.8-8.6 1-.8 1.6-2.2 2.8-2.9.5-.1 1 .1 1.3.4 5 4.3 13.5 4.2 18.4-.2 2.7-2.5 2.6-4.1-.6-8.9-.4-1.9 1-3.2 1.3-4.9.4-2.4 1-5-1.2-6.9-2.2-1.9-4.8-1.8-7.3-.8-3.4 1.3-6.2 3.6-8.7 6.2-.8.9-1.4 2.1-2.9 2.1-.1 0-.3-.1-.3-.1-3.1-6.4-7.9-11.7-12.6-16.9-2.2-6-1.9-12.4-2.6-18.7.7-4.5.3-9.4 5.5-11.8 1.7.1 1.7 1.5 2.1 2.6 1.5 4.1 4.1 5.6 8.4 4.8 5.6-1.1 12.8-8.3 13.8-13.8.7-3.9-1.8-6.6-5.8-5.9-4.4.7-8 3.1-11.5 5.6-1.2.9-2.3 2.5-4.1.9-1.2-7.4-3.9-14.3-6.8-21.1-.9-2-1.2-4-.8-6.2.7-4.7.6-9.4-.2-14-.1-.9-.1-1.9-.3-2.8 0-.4 0-.7.1-1.1.1-.2.3-.6.4-.5 5.3.9 9.1-2.3 13.2-4.6 6.8-3.5 11.4-8.7 12.6-16.5.2-1.1.3-2.2 1.7-2.5 6.6 1.5 13 .2 19.1-2.2 3.1-1.2 6-2.9 7.7-6 2.3-4.2.7-7.9-3.8-9.2-2.2-.7-4.4-.4-6.6.3-4.1 1.3-8.3 2.3-12.6 3-5.4 1-7 2.9-7.5 8.4-.1 2.1-1.2 2.9-3.2 3.4-8 1.8-12.9 7.1-15.6 14.7-2.3 2.5-4.1 5.5-6.8 7.5-2.8-3.6-4.5-7.9-6.1-12.1-.5-1.3-.2-2.7.3-4 4.7-12.9-.3-23.3-8.3-33-1.2-1.4-2.7-2.5-3.5-4.3-1-2.9-1.8-5.8-2.7-8.6.1-2.4 1.4-4.4 1.7-6.8.8-6.5-2.3-11.4-6.1-16.2-.5-.7-1.1-1.3-1.8-1.9-3.9-3-5.4-6.8-5.9-11.9-.8-9.1-5.9-16.6-11.3-23.8-1.8-2.4-3.5-4.8-6.5-5.8-.8-1-.7-2-.1-3 12-1.9 17.1-11 21.4-20.8 1.3-3 1.8-6.4 3.2-9.4 1-1.7 1.9-1.9 3.3-.2 4.2 4.9 6.6 4.9 11.2.3 3.9-4 7-8.6 9.3-13.7 1.8-3.9 1.2-7.3-1.4-9.5-2.3-1.8-5.9-1.6-9.3.9-3.9 2.8-6.1 7.1-8.7 10.9-1.3 1.8-2.4 2.6-3.6 0-1.1-4.7-1.8-9.4-3.4-14-5.2-14.8-15.9-22.7-30.8-26-5.7-1.3-11.5-1.5-17.3-1.1-4 .3-7.7 1.7-11.1 3.9-2.6 1.6-5.1 3.4-7.7 5.2-7.9 5.5-13.8 12-12.9 22.5-.4.3-.9.5-1.4.2-3.2-1.9-7-2.7-10.2-4.6-.3-.6-.2-1.1.1-1.7 4.7-3 4.7-7.8 0-10.9-3-1.9-6.4-2.7-9.8-3.4-2.3-.5-4.6-1-6.7-2.1-8.7-4.6-18-6.9-27.8-7.1-2.3 0-4.4-.8-6.4-1.9-8.4-4.7-16.5-3.2-24.3 1.4-3.5 2.1-7.2 4-8.6 8.3-1.9.7-1.4-2.8-3.4-1.9-1.8-4.5-5.4-6.5-9.9-7.5-1.3-.3-2.7-.5-3.6-1.7-.6-1.6.4-2.9.9-4.2 2.4-6 3.7-12.3 3.6-18.8 0-2.3-.5-4.4-1.4-6.5-2.1-4.7-5.7-5.3-9.3-1.5-3.2 3.5-4 7.8-4.4 12.3-.7 6.7.8 12.9 4.5 18.6-.6 1.5-2 1.6-3.3 1.9-2.9.6-5.8 1.3-8.5 2.4-5.7 2.3-11.4 4.1-17.7 4.7-7.7.8-13.7 5.3-17.6 12.2-.6 1.1-1.1 2.2-2.2 2.9-1.1.3-2.2.6-3.2-.2-2.1-3.4-3.8-4.1-8.1-3.1-3.9.9-7.4 2.8-10.9 4.6-2.4 1.2-4.8 1.8-7.5 1.8-12.7-.1-21.7 6.2-28 16.9-1.2 2-1.8 4.3-3.2 6.2-1 .9-1.9 1.8-3.2 2.2-1.4-.3-1.8-1.5-2.5-2.5-3.3-4.6-7-8.9-10.9-13-4.4-4.5-9.9-7.6-16-9.6-1.4-.5-2.9-.6-4.1-1.6-1.7-5.7-4.6-10.8-8.3-15.5-1.3-1.7-2.6-3.3-4.2-4.6-2.5-2-3.9-1.5-4.6 1.7-.6 2.5.2 4.9 1.1 7.2 1 2.4 2.3 4.6 3.7 6.8.7 1.1 1.7 2.2.6 3.7-4.9 1.4-9.9 2.4-14.7 4.2-.5.2-1.1.3-1.7.4-.4 0-.7 0-1.1-.2-1.1-1-.5-2.3-.6-3.5-.4-8.6-7.8-16.1-15.7-15.9-3 .1-5.7.9-7 4-1.2 2.9 0 5.3 2 7.4 3.9 4.1 8.5 7.2 14.1 8.6 1.3.3 2.8.4 3.4 1.9.1 1-.5 1.6-1.2 2.2-10.2 8-16.2 18.7-20 30.9-.5 1-.5 2.1-.5 3.2-.5 5.2-.9 10.2-.3 15.5 1.3 10.8 6.8 19.4 13.7 27.4 2.9 3.4 6.6 5.1 11.2 4.8 1.9.6 2.6 2.6 4 3.8l2.1 2.1c2.5 2.9 2.2 4.4-1.2 6.7-4.6-2.1-5.7-2-9.3 1.8-4.9 5-8.3 11.1-11.8 17.1-2.7 4.7-5.5 9.4-7.2 14.6-.8 2.5-1.3 5-1.3 7.6 0 3.5 1.3 6.1 4.6 7.2 2.4.8 2.6 2.2 1.8 4.3-1.4 3.6-3 7.1-5 10.4-4.1 7-6.7 14.6-10.2 21.8-.6 1.3-1 2.8-1.4 4.2-2.2 9.3.9 14.8 9.9 17.5.4 3.2-2 5.3-3.3 7.9-4.9 1.6-6.2 5.9-7.8 10-.3.6-.7 1.2-1.2 1.7-.3.2-.7.3-1 .3-3.7-1-7.1-.3-10.4 1.4-5.1 2.6-10 5.5-14 9.5-1.1 1.1-2 2.2-2.7 3.5-2.6 5.2-.9 8.3 5 8.8 1.6.1 3.6-.5 4.7 1.4.2 1.6-.9 2.5-1.9 3.4-1.4 1.4-2.7 2.9-3.8 4.5-.9 1.4-3 2.8-2.4 4.3.8 1.7 3.1.1 4.7.5 1 0 2.1-.1 3.1-.4.7-.2 1.4-.2 2.1-.1 3.1 1.3.9 2.1-.3 2.6-3.6 1.5-6.8 3.5-9.3 6.6-2.4 2.8-4 6-4.2 9.7-.2 2.8.6 3.5 3.2 2.6 7-2.5 13.2-6.4 18-12.1 3.1-3.7 2.3-5.9-2.4-7.6-.9-.3-2-.3-2.2-1.6.7-1 1.8-1.2 2.8-1.7 2.7-1.3 4.3-3.4 4.1-6.4-.3-3.2-2.5-4.6-5.4-5.1-.7-.1-1.5-.2-2.2-.5-1.4-1-.4-1.7.4-2.3 3.6-2.4 7.2-4.7 10.6-7.4 2.8-2.1 2.4 1.5 3.4 2.6 3.8 4.9 4.4 10.1 3.4 16.4-1.5 9.6 1.5 18.7 6.8 27 .1 2.2 1 4.3 1.6 6.4-3.7 1.5-4.7 4.5-5.2 8.2-1 6.8 0 13.3 1.9 19.8.8 2.8 2.3 5.3 4.9 6.8 3.2 1.7 4 4.4 3.9 7.7-.3 8.1 2.1 15.6 5.3 22.9 1.4 3.1 3.6 5.6 5.7 8.2.4 1.5.7 3 .5 4.6-3.7 10-2.7 19.6 1.7 29.1.9 1.9 1.7 4 3.6 5.1 2.6 1.5 3.1 3.4 3.3 6.3.9 11.7 4.3 22.5 11.7 31.9 2.1 2.6 4.3 5.1 7.9 5.8.5.3.9.7 1.1 1.3-2.2 10.1 1.1 19.1 5.9 27.7.9 1.6 2.3 2.9 2.4 4.9-.3 1.2-1.2 1.6-2.2 1.6-5.5-.1-9.9 2.4-14.1 5.5-7.9 2.3-12.9 11-11 19.1.6 2.5 1.5 4.9 4.2 5.6 2.6.6 4.5-1.1 6.1-2.8 2.9-3.1 4.3-7.2 6.2-10.9.4-.8.7-1.6 1.1-2.4.2-.3.5-.5.8-.7 4.8-1.5 9-3.8 11.7-8.2.5-.7 1.2-1.2 2.1-1.3 4.9 1.8 9.3 4 11.3 9.7 1.4 4.2 4.4 7.6 8.1 10.4 5.4 4 10.9 7.7 16.9 10.6 3.2 1.6 6.3 3.4 9.2 5.6 3.8 2.8 7.7 4.3 12.4 2.6.8.2 1.4.5 1.8 1.3 0 1.4-1 2.2-1.8 3.1-5.8 7-8.9 15-8.7 24.2.1 2.3 1.1 5.5-1.6 6.7-2.7 1.2-4.4-1.6-6.3-2.9-2.8-2-5.3-4.6-9.2-4.1-.4 0-.7-.1-1.1-.3-2.2-1.6-5.2-1.2-7.3-3.1-.3-.2-.5-.2-.8 0-.3.2-.6.2-.9 0-1.9-4.7-3.4-4.9-6.7-.9-.4.5-.7 1-1.1 1.5-3.9 5-6.6 5-10.2-.4-2.7-4.1-5.1-8.5-8-12.4-2.4-3.2-3.9-3.5-7.1-1.7-.4.1-.7.1-.9-.3 0-.5-.1-.9-.1-1.4-.2-.3-.4-.5-.7-.8-.2-.2-.5-.2-.7 0-.1.2-.1.5-.1.7-.3.3-.7.3-1 0-2.3-5.4-4.7-6.4-9.6-3-7.8 5.4-8.4 2.6-11.2-3.7-2.7-6-4.9-12.2-7.5-18.2-1.6-3.7-3.5-7.1-5.8-10.3-3.7-5-7.3-5.8-12.8-2.7-4.8 2.7-4.7 2.6-7.7-2-4.1-6.3-6-13.6-9.2-20.3-2.2-4.7-3.9-9.7-8.1-13.1-.9-.8-1.1-1.8-1.2-3-.4-3.1-1.6-4-4.7-3.6-1.6.2-3.1.8-4.6 1.5-2.5 1.2-4 .3-4.8-2.2-1.1-3.4-1.5-7-2.1-10.6-1.1-6.6-2-13.2-3.3-19.8-1-5.4-1.1-5.7-6.2-4.1-.6-.3-.9-.7-1.1-1.3-.5-4.1-1.5-4.8-5.5-4.1-6.7 1.2-6.5 1-7-5.8-1-12.7-.1-25.5-1.4-38.2-.3-3.3-.5-3.3-3.8-1.2-.9-.3-1.3-1-1.4-1.9 0-.6.3-1.2.4-1.8 1.1-3.4-.4-5.2-4-4.9-2.1.2-4.1 1.1-6.1 1.5-3.7.7-4.9 0-5.4-3.7-.7-5.8-1.3-11.6-1.3-17.4 0-6.1.2-12.2-1.9-18-.7-1.8.6-3 1.4-4.4 1.7-2.9.9-4.8-2.1-5.7-4.8-1.5-5.3-2.2-4.6-7.4 1.2-8.6 2.6-17.1 3.8-25.7.8-6 2.1-11.9.4-18-1.2-4.2-2.5-5.6-6.7-6.2-1.1-.1-2.2-.1-3.3-.2-2.1-.2-3-1.4-3.1-3.4-.1-1.6.3-3.2.6-4.8 2.2-11.3 5-22.5 5.5-34.1 0-.5.1-1 .2-1.5 1.4-5.9 1.2-6.5-4.3-8.4-3-1-3.8-2.8-3-5.7 1.6-5.8 3.6-11.6 5.9-17.2 1.4-3.5 2.4-7 2.4-10.8 0-2-.3-3.9-1.4-5.7-.1-.8-.4-1.6.3-2.4.4-.5.5-1 0-1.5-1.2 0-2.4-.1-3.6-.1-.4-.3-.4-.6-.1-.9 1.4-1 3.1-.6 4.7-.8 1.3-.2 2.5-.5 2.8-1.9.3-1.4-.6-2.3-1.6-3.1-1.4-1.1-3.1-1.5-4.8-1.8-3.4-.8-3.8-1.4-2.4-4.9 3.6-9 8-17.5 13.8-25.3 2.6-3.5 5.1-7 5.9-11.4.1-.7 0-1.5-.2-2.2-.1-.4 0-.7.3-1 .2-.2.3-.3.2-.5l-.2-.2c-1-.1-1.9-.1-2.9-.2-.2-.2-.3-.4-.2-.6.1-.2.1-.3.2-.3 1.3-.9 2.8-.6 4.3-.6.9 0 2.1.5 2.5-.9.3-1-.2-1.9-.9-2.7-1.2-1.3-2.9-1.8-4.5-2.4-7.1-2.5-7.2-2.6-3.4-9.2 4.2-7.3 8.8-14.3 12.5-21.9.6-1.2 1.3-2.4 1.7-3.7 1.3-.4 1.6-1.8 2.4-2.6 2.4-1.1 1.7-2.6.4-4.1-2.3-2.8-5.5-4.1-8.6-5.7-4.2-2.2-4.5-2.8-1.6-6.5 5.1-6.4 11.3-11.7 17.6-16.9 2.2-1.8 4.1-3.9 5.5-6.4.8-1.5 1.1-3 0-4.5-.1-.3-.1-.7.1-1 1.3-.7 2.2-1.8 3.1-2.9.2-.3.5-.6.8-.8.2-.3.5-.6.8-.8 1.1-.6 1.6-1.7 2.4-2.6 3.3-1.5 3.7-2.5 1.9-5.6-1.1-1.8-2.3-3.5-3.1-5.4-1.1-2.7-.7-3.7 2.4-3.7 4-.1 7.9-.5 11.5-2.4 2.4-1.2 4.7-2.7 6.5-4.7 2.3-2.5 1.8-5.5 1.9-8.4 1-.8.4-2.1 1.1-3 .2-.5.6-1 1.1-1.3 2.3-.9 2.9-2.8 3.3-5 1.4-8.9 2.7-17.8 4.7-26.6 1.2-5.2 2-5.5 6.6-2.7 3.2 2 6.4 3.8 9.9 4.9 2.7.9 4.6.3 5.3-2.7.3-.4.6-.4 1 0s1.1.3 1.5.8c2.1.3.6-1.9 1.6-2.3.7-.6.1-1.6.8-2.2.7-.6 0-1.7.8-2.2.7-.7-.1-1.9.9-2.6 3.2-.5 4.4-2.9 5.5-5.5 1.7-4.3 2.8-8.7 3.8-13.2 1.4-6.2 2.7-12.3 5-18.2 1.5-3.8 2.5-4.3 6.5-3.2 2.6.7 5.1 1.9 7.8 2.4 2.5.5 4.7.3 6.6-1.5.4-.2.7-.2 1.1 0 .2.3.5.3.8.1.4-.5 1.1-.4 1.5-.8.6-.6 1.5-.9 2.2-1.6.6-.7.9-1.6 1.6-2.2.5-.8.9-1.6 1.5-2.3.7-.7 0-1.8.8-2.5 3-.2 4.5-2.4 5.7-4.7 3.1-5.6 5.7-11.5 8.2-17.4 1.2-2.8 2.5-5.7 4.1-8.3 2-3.3 3.2-3.5 6.2-1.2 4.3 3.4 8.6 6.7 14.1 7.9 1.3.9 2.1.2 3-.7 1.5-1.5 2.9-3.2 4.7-4.4.2-.3.5-.5.7-.8.3-.3.6-.3.9 0 .9 1-.7 3.1 1.1 3.5 1.6.3 2.3-1.5 3.3-2.6 5.4-5.9 10-12.5 15.6-18.2 1-1 1.7-2.5 3.6-2 .7.8.5 1.6.2 2.4-2.3 5.8-2.6 11.6-.8 17.6-.2 3-.8 5.9-.6 8.9.1 1.9.5 3.7 1.5 5.3 1.2 1.9 2.9 3.2 5.2 2.7 2.3-.5 3-2.5 3-4.6-.2-5.1.8-10.1.9-15.2.7-3.8 2.5-7.2 2.8-11.1.7-7.5-.1-9.1-6.4-11.9-.2-2.4 1.7-3.5 3.3-4.4 1.9-1.2 2.9.4 3.7 1.9 1.6 3.2 3.3 6.3 6.2 8.7 2.7 2.3 4.3 2.2 7.1-.1.4-.4.9-.6 1.4-.8.3-.3.5-.5.8-.7.7-.6 1.5-1 2.2-1.5.2-.3.5-.5.8-.7.6-.6 1.5-1 2.2-1.5.2-.3.5-.5.8-.7 1.3-.9 2.3-2.2 3.7-3 .2-.3.5-.6.8-.8.2-.3.5-.6.8-.8.2-.3.5-.6.8-.8.2-.3.5-.6.8-.8.2-.3.5-.5.8-.8.3-.3.5-.4.9-.1.7 1.6-.5 2.5-1.2 3.6-.8 1.2-1.7 2.4-2.2 3.8-.3.7-.5 1.5.1 2.1.8.7 1.7.4 2.4-.2 2-1.5 4-3 5.7-4.7 4-4 8-8.1 12.1-12.1 2.8-2.7 3.7-2.6 5.3.9 1.4 3 2.8 6.1 5.7 8.1 1 .7 2 1.7 3.3 1 1.1-.6 1.1-1.8 1.2-2.9.2-1.4-.3-3 1-4.2 1 1.2.7 2.6.6 3.9-.2 2 .7 2.9 2.5 3.5 1.6.5 3.3 1.2 4.8 1.9.9.4 1.7.1 2.4-.3 1.7 4.3 3.5 4.7 6.7 1.2 3.1-3.4 5.6-7.3 8.5-10.8 4.5-5.5 4.8-5.5 9.9-.5 4.4 4.3 9.2 7.9 14.9 10.3 3.8 1.5 4.2 1.2 5.5-2.5 1.7 1.4 3.4 2.7 5.1 4.2.9.8 1.9 1 3 1.1.5 1.3-2.1 2.3-.6 3.6 1.3 1.1 2.9.3 4.2-.1 7.1-2.1 13.2-6.1 19.4-9.8 6.6-4 6.6-4 10.1 2.8 1.4 2.6 3 5.1 4.8 7.5.9 1.1 2.1 2.2 1.8 3.9-.2.5-.5.9-1 1-10.6 2.5-13.6 10.8-15.3 20.1-.5 2.5-.4 5.2.1 7.7.4 2.4 1.5 4.5 4.1 5.2 2.5.6 4.4-.8 5.6-2.7 4.8-7.7 8-15.8 6.9-25.2-.2-1.5-.4-2.9.1-4.4.8-1.5 2.6-.4 3.6-1.3 1.3.4 2.4-.7 3.6-.8.8 1.6-.8 2.4-1.3 3.6-.4 1.1-.9 2.2 0 3.1 1.1 1 2.1.1 3-.5 2.5-1.7 4.6-3.7 7.1-5.4 2.7-1.8 3.9-1.5 4.9 1.7.9 2.8 2.1 5.6 2.3 8.6.1 1.9 1.3 3.2 3.1 3.8 1.9.7 2.2-1.1 3.1-2 3.2-3.1 5.9-6.6 8.8-10.1 1.5-1.9 3.4-2.5 4.9-.3 4.9 7 10.6 13.3 15.9 20-.2 1.8-1.5 3.1-2.3 4.6-1.6 3.1-3.1 6.3-2.5 9.9.4 2.2 1.4 4 4 4.3 2.4.2 3.6-1.3 4.5-3.2.9-1.9 1.4-4 1.7-6.1.3-2 .8-3.9 1.7-5.7.7-1.6.3-3.1 0-4.6-.3-1.3-.9-2.6.2-3.8 4.3.9 6.2 4.1 7.4 7.8.5 1.6.4 3.4 1.6 4.8.3 1.9-1.4 2.7-2.3 3.9-.9 1.1-2.5 2.3-1.4 3.8s2.7.2 4-.3c2.9-1.2 5.3-3 7.8-4.8 3.1-2.3 4.5-2 5.9 1.4 1 2.5 3 4.8 2.6 7.9-3.8 2.5-6.9 5.7-8.2 10.3-.2.8-.8 1.5-1.6 2-3.4.9-6.3 2.6-8.7 5.3-.9 1-1.8 2.1-3.3 2-.6-.5-.7-1.1-.7-1.8.1-.7.3-1.5-.4-2-1.5-.6-2.7.1-3.8.9-6.1 4.6-10.2 10.4-9.9 18.5.1 2.3.2 4.7 2.8 5.5 2.9.9 4.1-1.6 5.3-3.6 1.1-1.8 1.7-3.9 3.2-5.4 1-.8 2-.5 3 .1 4 2.2 5.3 1.8 7.8-2 1.1-1.6 1.8-3.5 3.5-4.6.5-.4 1.1-.4 1.8-.3 5.3 2.5 7.1 1.9 9.7-3.6 1.4-2.8 2.1-5.8 2.9-8.8.4-1.3.4-3.1 2.5-3.2 3.2 1.8 3.3 1.8 4-1.8.1-.6.3-1.2.9-1.5 1.6 7.7 4.5 14.8 8.1 21.8.3.6.1 1.2.1 1.8-.1 3 .9 3.9 3.7 3 2.7-.8 5.2-2.2 7.6-3.8.9-.6 1.8-1.2 2.8-1.8 3.7-2.3 5.2-1.7 6.2 2.6.8 3 1.4 6 2.1 9 1.2 5.3 3.2 10.4 4.9 15.5.2 1.7-.8 2.8-2 3.6-2.4 1.7-4.4 3.8-6.3 6l-.9.6c-.2.1-.3.1-.5.2-6 0-9.6 3.8-12.8 8.2-2 2.8-4.1 5.2-7.7 5.5-6.1 2.4-10.6 6.6-13.5 12.5-1 2.2-1.4 4.4-1.3 6.8.1 2.6 1 4.6 3.4 5.7 2.4 1.1 4.3-.1 6.1-1.5 3.8-3.1 6.5-7.1 9.8-10.6.8-.9 1.5-2 2.7-2.4 4.6-.9 7.3-4.3 9.6-7.9 1.5-2.4 2.9-4.8 4.2-7.3.6-1.2 1.4-2.3 2.8-2.7 3.5-.1 6.7-1.1 9.7-3 1-.6 2.3-1.8 3.4 0 1.5 3.5 2.5 4 5.9 2.5 3-1.3 5.9-2.6 9-3.5 4.3-1.3 5.3-.5 5.6 4 .3 7 .7 14.1 2.1 21 .3 1.6.8 3.1 1.2 4.7.5 2.1 1.8 2.7 3.8 2.5 1 .7.8 1.7.8 2.7 0 4.1 1 8.2.7 12.4-.1.9 0 1.7.9 2.2-2.5 4.4-2.2 4.7 3.1 4.8 4 .1 7.8-1 11.7-1.9 3.9-.8 4.4-.5 5.2 3.5 1.2 6.4-.1 12.8-.6 19.2-.4 4.8-.4 9.6-2.4 14.5.1 1 1.1-.6 2.4-.1Z" fill="#B4B1B0"/><path d="M17.5 362c1.9.2 2.4 1.4 2.5 3.1.3 4.5-.6 8.9-2.3 13.1-2.4 6-4.6 12-6.3 18.2-.8 3.3-.9 3.3 2.5 4.2 1.2.3 2.4.6 3.5 1.3 2.8 1.7 3.4 4 1.9 6.9-.4.8-.9 1.3-.9 2.3.2 7.3-1.4 14.5-2.8 21.6-1 5.3-2.2 10.7-3.2 16-.7 3.6-.4 3.8 3.1 4 1.6.1 3.2.2 4.8.7 3.2.9 4.5 3 5.3 6.3 1.9 7.7-.1 15.2-1 22.7-.9 7.4-2.2 14.7-3.3 22-.2 1.2-.1 2.5-.2 3.7-.1 1.3.2 2.2 1.8 2 .6-.1 1.2-.1 1.9 0 4.2.5 6 4.3 3.2 7.5-1.6 1.8-1.5 3.1-.7 5.1 1.1 2.8 1.3 5.8 1.3 8.8.1 7.1.3 14.1.9 21.1.2 1.8.5 3.7.6 5.5.1 1.7 1 2.2 2.5 1.8 2-.5 4.1-1 6.1-1.7 1.3-.4 2.7-.7 4-.4 3.4.6 4.7 3.3 2.9 6.3-.4.6-.8 1.2-1.2 1.9-.1 1.5-1.6 1.4-2.4 2-.3.6-1 .4-1.5.8-.4.5-1.1.4-1.5.8-.4.5-1.1.4-1.6.7-.5.9-1.6.2-2.2.8-.8 1-2.1.1-3 .8-3.2 1.1-6.2.8-8.8-1.4-.3-.2-.6-.4-.8-.8-.3-.2-.6-.5-.7-.9l.1.1c-.6-.3-.5-1.1-.8-1.5v.1c-1-.8 0-2.1-.8-3v.1c-1.2-2.2.2-4.6-.8-6.8l.1.1c-.8-6.2-.7-12.4 0-18.5v.1c1-2.7-.4-5.6.8-8.2v.1c.9-1.7-.3-3.6.7-5.3l.2-.2-.1-.2c.7-2 .3-3.1-2.1-2.9-.8.1-1.7.4-2.4-.5h.1c-.5-.3-1.2-.1-1.5-.8h.1c-1.1-.3-1.8-1.2-2.3-2.2-.9-.8-1.1-2-1.5-3.1v.1c-1.4-4.5 0-8.9.7-13.3v.1c.9-1.4-.3-3.2.8-4.5v.1c.8-1.2-.2-2.7.7-3.8.8-1.1-.2-2.7.7-3.8.9-1.1-.2-2.6.7-3.8l.2-.2-.1-.2c.6-1-.1-2.3.7-3.3.9-1.1-.2-2.7.8-3.7v.1c.7-.9-.1-2.2.7-3.1l.2-.2-.1-.2c.6-1-.1-2.3.7-3.3.7-.9-.1-2.2.7-3 .8-.8-.1-2.2.8-3v.1c.9-2.4-.7-2-2.1-2-4.1 0-8.3.5-12-2.1h.1c-4.7-3-6.2-6.2-5.3-11v.1c.5-2.5.6-5.1 1.6-7.5v.1c.7-.9-.2-2.2.8-3v.1c.7-.9-.2-2.2.8-3v.1c.7-.9-.2-2.2.8-3v.1c.7-.9-.3-2.2.8-3l-.1.1c.5-.7 0-1.7.7-2.4.8-.9-.2-2.2.8-3v.1c.5-.7 0-1.7.7-2.3.8-.8-.2-2.2.9-3l-.1.1c.5-.7-.1-1.7.8-2.3v.1c.6-.7-.1-1.8.8-2.3v.1c.3-.5.2-1.2.6-1.6.7-.5-.1-1.7.9-2.2l-.1.1c.2-.5.1-1.3.8-1.5h-.2.2c.1-1.6-1.2-1.1-2-1.3-3.7-1-7.4-1.9-9.2-5.7l.1.1c-1.2-.7-.1-2.1-.9-3v.1c.1-1.5 0-3 .7-4.4v.1c.7-1.7.7-3.6 1.6-5.2l-.1.1c.5-.7-.1-1.8.8-2.3l-.1.1c.4-1.3.8-2.6 1.4-3.8.7-.6 0-1.7.9-2.2v.1c.3-.5.2-1.2.7-1.6.7-.6-.1-1.8.9-2.2l-.1.1c.2-.6.1-1.2.7-1.6v.1c.3-.5.2-1.2.8-1.6v.1c.3-.5.2-1.2.8-1.5v.1c.3-.5.2-1.2.8-1.5v.1c.3-.5.1-1.2.8-1.5l-.1.1c.6-1.4 1.3-2.6 2.1-3.9.8-.5 0-1.7 1-2.1l-.1.1c.2-.6.1-1.2.7-1.6v.1c.3-.5.2-1.2.7-1.6.4-.4.3-1.1.8-1.5.3-.7.8-1.1 1.5-1.5-.3-1.2-.1-1.2.2-1Z" fill="#282828"/><path d="M557.5 681c-2.6 0-2.7 2.4-3.7 3.9-.2-.1-.4-.3-.5-.5-.8-1 .1-3.3-1.6-3.4-1.9-.1-2.3 2-3 3.4-2.6 5.1-4.1 10.6-6 16-1.3 3.9-1.8 4.1-5.7 3.1-.7-.2-1.4-.4-2.2-.5-4.1-.8-4.3-.6-4.7 3.5-1.5.4-3.2.5-4 2.2-.4.4-.3 1.1-.8 1.5v-.1c-.3.3-.7.3-1 0-1.4-1.7-2.8-1.7-4.4-.2-1.9 1.8-3.3 4-4.9 6-2.2 2.7-6 3.3-9 1.5-.9-.5-1.3-1.2-1.2-2.1.9-6.9-.8-13.2-4.4-19.1-.2-.3-.2-.7-.2-1.1.5-1.3.6-2.7 1.4-3.9 2.7-.3 5.3-1.2 8-.5 6.8 2.3 13.4 1.4 20.1-.5.4-.1.8-.1 1.2 0 .6.1 1.1.2 1.7.2 3.4.4 3.4-1.6 2.8-3.9-1.5-5.9-2-11.9-4-17.7 2-3.9 4-7.7 6.6-11.1.4-.3.9-.6 1.5-.7.4-.1.7 0 1.1.1 3.2 1.7 7 2 10.3 3.5 2.1 1.1 3.8 2.7 6.1 3.5 4 1.4 6.6-.3 6.8-4.5.4-6.7-6.9-13.1-14.7-13-1.5 0-3 .5-4.1-1-.5-.9-.5-1.8-.3-2.7.4-1.3.3-2.5-.1-3.8-1.6-7.1 1.1-12.3 7-16.2 3.9 1.8 6.8 4.5 7.7 8.8 1.3 4.1 5.1 6.1 7.6 9.2 1.2 4.4 3.4 8.2 6.8 11.1 1.1 1 1.5 2.2 1.5 3.6-.8 6.1-1.6 12.2-1.5 18.4.1 3.7-1.2 4.6-4.9 4.2-2.9-.4-5.8-1.3-8.8-1.1-3 .1-3.3.6-2.5 3.9Z" fill="#B4B1B0"/><path d="M478.5 59.5c-5.7-4.9-10-10.9-14.4-16.9-.7-.9-1.3-1.8-1.9-2.8-1-1.5-1.8-1.3-2.9 0-3.1 3.8-6 7.9-9.8 11.2-.9.8-.4 2.2-1.7 2.9-1.1-.5-2.4-1-3.6-1.6-1.4-.7-2.3-1.9-2.2-3.6.2-3.7-2-6.8-2.6-10.4-.2-1.2-1.1-1.2-2-.5-2.7 2.1-5.4 4.3-8.2 6.3-1.2.9-2.4 2.5-4.2 1.1-1.3-1-1.3-3-.1-5.1.6-1.1 1.4-2 2.1-3.1 2.4-2.5 4.8-5 7.3-7.4 1-.9 2-1.8 3.2-2.6 3.3-2.1 6.5-1.3 8.7 1.9 1.2 1.7 1.5 3.8 2.3 5.8 1.3-.2 1.6-1.3 2.1-2 1.5-2 2.9-4 4.8-5.6 4.1-3.6 8.2-3.6 12.2.1a32 32 0 0 1 4.9 6.1c4.6 7.2 9.4 14.2 13.4 21.8.4 1.7.7 3.3 1.1 5 .3 1.3.5 2.6-.4 3.9-3 .5-5.8-1-8.1-4.5Z" fill="#282828"/><path d="M374.4 748h-.3l-.3.1c-.6.7-1.6.1-2.3.7-.6.7-1.7.1-2.3.7h-.3l-.3.1c-.6.7-1.6.1-2.2.7-.3.3-.6.4-1 .5-3.2-.8-6.2-2.4-9.4-3.3-3.1-.9-5.9-.8-8.2 1.6-1.5 1.6-3.2 2.1-5.3 1.1-3.4-1.6-6.5-1.2-9.2 1.5-.9.9-1.8 1.2-3 .5-1.7-1.3-4.1-.5-5.7-2.1.5-1.3-.3-1.7-1.3-2.2-1.6-.7-3-1.7-3.9-3.3-.8-1.5-1-3.1-.1-4.6.9-1.6 2.5-1.8 4.3-1.5 10.6 1.7 21.2.9 31.8.4 6.4-.3 12.8-1.2 19.3-.9 4.4.2 8.7-.5 12.9-1 6.8-.8 11.1-5.7 15.7-10 3.5-3.2 6.9-6.4 11.3-8.3 6.9-3 10.3-.6 9.6 6.8-.1 1.3.2 2.4.4 3.7-.3.6-.9 1-1.5 1-5.2 0-9.1 2.9-13.1 5.6-2.9 2-5.9 3.4-9.5 3.8-4.3.4-8.2 2-11.5 4.9-2 1.8-4.2 2.6-6.8 2.1-1.8-.3-3.4.1-5 1-1 .5-2-.3-2.8.4Z" fill="#F2BDA8"/><path d="M266.5 35c-1.4 3-3.1 3.7-6.1 2.3-2.5-1.1-4.1-3.1-5.5-5.2-1.3-2-2.5-3.9-3.3-6.1-.5-1.4-1.3-1.7-2.5-.6-1.1 1-2.2 1.9-3.4 2.9-1.6 2.9-3.8 5.1-6.7 6.7-6.4 7-12.3 14.4-18.4 21.6-.7.8-1.5 1.7-2.4 2.3-1.3 1-2.7.3-2.8-1.4 0-1.1.3-2.2.5-3.3-.2-.3-.1-.5.1-.7.7-.5 0-1.6.8-2.2.4-.5.3-1.1.7-1.6.4-.4.3-1.1.7-1.5.5-.4.3-1.1.8-1.5.4-.4.3-1.1.8-1.5.4-.4.2-1.2.8-1.5v.1c.4-.9.8-1.6 1.5-2.3.4-.4.2-1.2.9-1.4l-.1.1c0-.4.3-.7.7-.9.5-.7.9-1.6 1.5-2.2.5-.8.8-1.7 1.6-2.2l-.1.1c.1-.4.4-.7.7-.9.5-.7.8-1.7 1.7-2.2l-.1.1c0-.5.3-.7.7-.9l-.1.1c.1-.4.4-.6.7-.8.7-1 1.4-2.1 2.4-2.9l-.1.1c.1-.5.3-.7.8-.9l-.1.1c.1-.4.4-.7.8-.8l-.1.1c.2-.4.4-.6.8-.8.2-.3.5-.6.7-.8.2-.3.5-.5.7-.8.2-.3.5-.5.7-.7l.7-.7.7-.7c.2-.3.5-.5.8-.7.2-.3.5-.5.8-.7.2-.3.5-.6.8-.7.2-.4.4-.6.8-.8l-.1.1c.2-.4.4-.7.9-.7l-.1.1c.4-.9 1.4-1.1 2.1-1.7.2-.3.5-.6.9-.7l-.1.1c.2-.6 1-.4 1.4-.9h.1c.3-.2.5-.5.9-.6l-.1.1c.3-.6 1-.5 1.5-.8.7-.8 1.7-.3 2.5-.8l.2.1.2-.1c.5-.5 1-.5 1.4 0 .7.6 1.7 0 2.3.7.4.4 1.2.2 1.4.9l-.1-.1c.4.1.7.4.9.8l-.1-.1c.4.2.7.4.8.8l-.1-.1c.8.6 1.1 1.5 1.6 2.2 1.2 1.3 1.7 2.9 2.2 4.5v-.1c.8 1.2 1 2.5 1.5 3.8v-.1c.9.5.2 1.6.9 2.2.5.4.4 1.1.7 1.6v-.1c.8.6.2 1.6.8 2.3V32c.7.8.2 2 .6 3ZM371.6 24.4c.1.5.2 1 .3 1.4.4 2.6-.2 3.3-2.6 2.9-3.1-.5-5.9-1.7-8.5-3.4-4.4-2.9-8.5-6-12.1-9.7-2.5-2.6-2.6-2.6-5 .3-2.9 3.5-5.7 7.2-8.5 10.8-1 1.3-2 2.5-3.3 3.5-1.4 1-2.9 2-4.8.9-1.8-1.1-1.2-2.8-1-4.3 2.2-6.5 5.1-12.6 9.2-18.2 1.6-2.2 3.3-4.3 5.6-5.8 4.2-2.7 8.7-2.8 12.3.6 5.8 5.4 11.2 11.2 16.3 17.3.9.9 1.4 2.4 2.1 3.7ZM557.5 133.8c-3.4-6.8-5-14.2-6.7-21.5-.3-1.4-.6-2.9-1-4.3-.8-2.7-1.2-2.8-3.5-1.4-2.6 1.7-5.1 3.6-7.9 4.9-1.3.6-2.7 1.1-4.1 1.7-1.6.7-3.2.5-4.4-.9-1.2-1.4-.7-2.8.2-4.1.2-.3.4-.6.5-1 3.9-2.7 7-6.2 10.7-9.1 1.4-1.2 2.9-2.4 4.4-3.3 3.3-1.9 6.3-1.5 9.2 1.1 3.1 2.8 5 6.4 6.1 10.4 1.9 6.8 3.1 13.7 4 20.7.4 2.1.1 4.2.6 6.2.2.7 0 1.5-.3 2.2-.8 1.9-1.8 3.9-4 3.9-2.3 0-3.1-2.1-3.6-4.1 0-.5.1-1-.2-1.4ZM45.1 567.4c.5-1 1-2 1.7-2.9 1.1-1.4 2.5-1.1 3 .6.2.7.3 1.5.3 2.2.3 7.3 1 14.6 1 21.9 0 6.9.3 13.9.6 20.8.1 3.1.2 3.1 3.3 2.2 1.7-.5 3.3-1.1 5.1-1 3.7.1 4.6 1.3 3.7 4.9-.1.4-.1.7-.2 1.1.5 2.1-1.6 2.4-2.4 3.6l.1-.1c-.4.9-1.4 1.1-2.1 1.7a12.6 12.6 0 0 1-4.5 2.2c-2.2.8-4.4.9-6.5 0h.1c-.5-.2-1.2-.1-1.6-.7-1.6-.9-3-2-3.7-3.8l.1.1c-1-.5-.3-1.6-.9-2.3v.1c-.9-.8-.5-1.9-.5-2.8-.2-10.4.1-20.7.7-31.1 0-.4.2-.7.4-1l.2-.2-.1-.2c.9-2.3-.3-4.7.7-7 .2-.1.2-.3 0-.5.8-1.5-.2-3.2.7-4.7.2-.1.2-.3.1-.5.5-.9-.1-1.9.7-2.6ZM592.3 178.4c-.3.4-.6.8-.9 1.1-1.2 1.4-1.8 1.4-2.7-.2-1.1-2.2-1.7-4.6-2.3-7-1.6-6.8-1.6-13.7-2.2-20.6-.1-1.1-.1-2.2-.1-3.3 0-1.8-.9-2.1-2.4-1.7-3 .8-5.9 1.8-8.7 3.1-1.1.5-2.2 1.1-3.4 1.5-3.8 1.3-5.5 0-5.4-4.2.2-2.7 2-3.8 4.3-4.6 4.2-3.6 9.1-5.9 14.5-7 7.2-1.4 11.8 1.7 12.3 9 .6 10.9 1.1 21.8-2.7 32.3-.2.6-.2 1.1-.3 1.6ZM641.4 335.3c-3 1-3.7.6-4.6-2.1-1-3.1-.1-6.1.6-9.1 1.4-5.8 2.9-11.5 4.3-17.2.1-.6.3-1.2.4-1.8.6-4.4.2-4.8-4.3-4.7-2.3.1-4.7 0-7 .1-1.4 0-2.7-.3-3.9-1-1-.6-1.8-1.3-1.8-2.6s1-2 2.1-2.3c2.7-.8 5.5-1.6 8.2-2.3.6-.2 1.2-.2 1.7-.7 1.7-.4 3.3-1 5-1.3 4.6-1 7.6.6 9.7 4.8 2.1 4.3 2.3 8.8 1.4 13.4-1.4 7.9-4.6 15.1-8.1 22.2-.9 1.8-2.4 3.1-3.7 4.6ZM615.4 234.9c-1.8.8-2.8 3.2-5.2 2.8 2.9-12.8 4.2-25.5 3.1-38.9-3.5.7-6.7 1.4-9.8 2.1-2.8.7-5.6.6-8.5.6-1.7 0-3.5-.2-3.8-2.2-.3-1.7 1.1-2.6 2.6-3.2.3-.1.6-.4.9-.6 5.7-1.9 11.4-4 16.9-6.6 7.1-3.4 11.2-.5 11.8 6.7 1.1 13.1 0 25.9-7.1 37.6-.4.6-.6 1.2-.9 1.7ZM159.7 92.8c-.1 1.1-.1 2.1-1.6 2.4-2.8.7-5.4.2-8-.6-2-.6-4-1.4-6-1.9-3.4-1-3.4-.9-4.6 2.2-2.3 5.9-3.7 12-5.1 18.2-1 4.5-2.1 8.9-3.6 13.2-.7 1.9-1.6 3.6-2.8 5.2-1.1 1.6-2.4 2-4.1.8-.4-.2-.5-.6-.6-.9v.1c-.7-1-.6-2 0-3 .2-.1.2-.3 0-.5.9-2-.4-4.2.8-6.2v.1c.9-1.7-.3-3.6.7-5.3.9-1.6-.3-3.6.8-5.3v.1c.9-1.4-.3-3.2.8-4.5v.1c.8-1.1-.2-2.7.8-3.8v.1c.7-.9-.1-2.2.7-3 .8-.9-.1-2.2.8-3v.1c.6-2.3 1.2-4.6 2.2-6.8.4-.4.3-1.1.7-1.5.4-.4.3-1.1.8-1.5.5-.7.7-1.7 1.7-2.2l-.1.1c.4-.9 1.4-1.1 2.1-1.7.4-.5 1.1-.4 1.5-.8.6-.7 1.6-.1 2.3-.7 1.7-.7 3.4-.7 5.1 0 .9.7 2.1-.1 3 .7l.2.2.2-.1c.6.2 1.3.2 1.8.7.5.7 1.7-.1 2.1.9h-.1c.5.2 1.3.1 1.5.8l-.1-.1c.4 0 .7.3.9.6.4.5 1.1.3 1.4.9l-.1-.1c.4.1.7.4.9.7.3.2.6.4.8.8.3.2.6.5.7.8l-.1-.1c.7.6 1.2 1.4 1.5 2.3l-.1-.1c.5.6.4 1.1.2 1.6ZM648.9 468.4c-.6-.3-1.1-.5-1.7-.8-1.9-1-2.5-2.2-1.7-4.2.7-2 2.1-3.6 3.8-4.9 3-2.4 6.3-4.4 9-7.1 2.9-2.9 3-3.5.9-7-2.4-4-5.9-7.3-8.7-11.1-.9-1.2-1.8-2.4-2.5-3.7-1.8-3.4-.9-4.8 3.1-5.1 6.2 3.1 11.3 7.4 15.9 12.5 1.9 2.1 3.5 4.4 4.4 7.2.9 2.9 1 5.8-.2 8.7-2.9 7.6-14 15.3-22.3 15.5ZM633.3 288.6c-1.9.2-1.8-1.5-2-2.5-.5-4.7-.5-9.4 0-14 .8-6.5 1.8-13 1.9-19.5V250c0-1.3-.7-1.8-1.9-1.3-1.5.6-3 1.2-4.5 1.7-3.5 1.2-7.1 2.2-10.6 3.4-1 .3-2 .5-2.7-.4-.7-.8-.7-1.9-.3-2.8.5-1.1 1.3-2 2-3.1 3.4-3.2 7.2-5.5 11.3-7.6 1.2-.6 2.5-1.1 3.8-1.5 5.7-1.8 9.4.3 10.9 6 1.7 6.1 1.4 12.2.5 18.4-1.3 8.7-3.7 17.1-8 24.9.1.3-.2.5-.4.9ZM117.8 140.6c.9 3.1-.1 4.4-3.2 4.1-2.4-.2-4.6-1-6.7-2.1-3.4-1.7-6.5-3.9-10.1-5.9-1.4 4.7-2.1 9.2-2.9 13.6-1.1 6-2 12-3 17.9l-.3 1.8c-.7 2.7-1 2.9-4.2 3.1l-.3-.1c-.2-.1-.4-.3-.5-.5-.2-.3-.4-.6-.5-1v.1c-.8-.7-.3-1.8-.8-2.6l.1-.2-.1-.2c-.7-3.9-.8-7.8.1-11.7.5-2.1-.5-4.2.7-6.1v.1c.8-1.4-.3-3.2.7-4.5.9-1.4-.3-3.1.8-4.5v.1c.8-3.7 1.1-7.6 2.3-11.2l-.1.1c.5-.7-.1-1.7.8-2.3v.1c.3-.5.2-1.2.8-1.5l-.1.1c.1-.4.4-.7.7-.9.2-.3.5-.6.8-.7l-.1.1c.3-.6 1-.5 1.5-.8.9-.8 1.9-.7 2.9-.1.5.3 1.1.2 1.5.7.4.4 1.2.2 1.4.9l-.1-.1c.4.1.7.4.9.7.3.1.6.4.8.7.7.6 1.6.9 2.2 1.6h-.1c.4.1.6.4.9.6h.1c.3.5 1.1.3 1.4.9.8.4 1.6.8 2.3 1.5.8.4 1.6.8 2.3 1.5.8.4 1.6.8 2.3 1.5h-.1c.4.1.6.4.8.7.6.6 1.6.8 2.1 1.7l-.1-.1c.5.1.8.3.8.8l-.1-.1c.6.5 1.1 1.3 1.4 2.2ZM643 514.6c-1.5-.7-4-.4-4.3-2.3-.4-2.2 1.8-3.3 3.3-4.6 2.4-2 5.3-3.1 8.2-4.2 1.6-.6 3.2-1.2 4.7-2.2 2.5-1.7 2.6-2.2 1-4.8-2.7-4.3-5.9-8.2-9.1-12.2-1-1.3-2-2.5-2.9-3.9-1.8-2.8-1.2-4.1 2.1-5.6 2.6.3 4.7 1.5 6.7 2.9 5.2 3.9 9.6 8.6 12.9 14.2 3.4 5.8 2.8 10-2 14.7-5.7 5.9-12.6 8.5-20.6 8ZM315.8 17.8c-.1 1.6-.1 3.2-.2 4.8-.3 4.2-1.9 5-5.4 2.5-2.1-1.4-3.7-3.3-4.8-5.5-1-2-1.8-4-2.8-6.1-1.5.7-2.4 1.9-3.5 2.9-5.2 5-10.1 10.5-15.7 15.1-.3.2-.6.5-.8.7-1.3 1.1-2.7 2.2-4.3.8-1.5-1.3-.7-3 .2-4.4 1.2-2.1 2.7-4.1 4-6.2.4-1.3 1.4-2.1 2.3-3l-.1.1c.1-.5.3-.7.8-.9l-.1.1c.1-.4.4-.6.7-.8.2-.3.5-.5.7-.8.6-.6.8-1.6 1.7-2.1l-.1.1c.1-.4.4-.7.7-.9.2-.3.4-.6.7-.8.6-.7.8-1.7 1.7-2.1l-.1.1c0-.5.3-.7.7-.9l-.1.1c.1-.4.4-.7.7-.9.2-.3.4-.6.7-.8.2-.3.5-.5.7-.8 1.3-1.7 2.7-3.3 4.5-4.4.2-.3.5-.6.9-.7l-.1.1c.3-.6 1-.4 1.4-.9.4-.4 1.1-.3 1.5-.7 2.3-.6 4.6-.8 6.6.7.9.6 1.7 1.3 2.2 2.3 1.1 1.4 1.8 3 2.2 4.7.6 2.9 2.2 5.5 2.5 8.6ZM207 60.9c-4.5-.6-8.2-2.7-11.6-5.4-1.1-.8-2.1-1.7-3.2-2.6-2.8-2.3-2.9-2.3-4.8.9-2.8 4.8-4.8 10-7.1 15.1-2.1 4.7-4.2 9.5-7.3 13.7-1.7 2.3-1.9 2.3-4.5 1.3-.6-1.5-.6-3 0-4.4.2-.1.2-.3.1-.5.5-.8 0-1.8.7-2.5.9-.8-.2-2.2.9-2.9v.1c.5-.7-.1-1.7.7-2.3v.1c.6-.7 0-1.7.8-2.3v.1c.6-.6 0-1.7.8-2.3v.1c.6-.6-.1-1.8.8-2.3l-.1.1c.2-.5.2-1.2.6-1.6.7-.6 0-1.7.9-2.2v.1c.3-.5.2-1.1.7-1.6.7-.6 0-1.7.9-2.2v.1c.3-.5.2-1.2.7-1.6.7-1.1.6-2.7 1.7-3.7l-.1.1c.2-.5.1-1.3.8-1.6l-.1.1c.2-.9.8-1.7 1.4-2.4.4-.4.2-1.2.9-1.4l-.1.1c0-.4.4-.7.7-.9.7-1.3 1.7-2.3 2.9-3 .2-.3.5-.6.9-.6l-.1.1c.4-1 1.6-.2 2.2-.9 1.2-.6 2.4-.7 3.7 0 .6.6 1.8-.1 2.2.9l-.1-.1c.4 0 .7.3.9.6.4.4 1.2.2 1.4 1l-.1-.1c.5 0 .7.3.9.7l-.1-.1c.4.1.6.4.8.7.3.2.6.4.8.7.3.2.5.5.8.7 2 1.5 3.7 3.2 5.2 5.2.2.3.5.5.7.8v-.1c.7.7 1.2 1.4 1.4 2.4l-.1-.1c1 .4.3 1.6.9 2.2v-.1c.3 1.4.4 2.6-.4 3.8ZM631.9 563.8h-4.1c-.9 0-1.9-.1-2.2-1-.2-.8.6-1.3 1.2-1.7 3.4-2.7 6.9-5.2 10.9-6.9 2.7-1.2 5.5-2.3 8.2-3.5 2.5-1.1 2.6-1.1 1.3-3.4-1.7-3.3-3.6-6.5-5.3-9.7-2.3-4.2-4.5-8.5-5.7-13.2-.3-1-.6-2.1-.2-3.3.7-1.9 2.2-2.1 3.9-2 .4.4.9.8 1.3 1.3 6.1 8.8 11.5 17.9 15.9 27.6 1.3 2.9.5 5.3-2 7.2-.6.5-1.2.9-1.9 1.2-6.9 3.3-13.8 6.2-21.3 7.4ZM85.8 177.1c1.6 3.1 1 6-1.2 8.5-4.2 4.9-9.6 7.1-15.9 7.7-1.7.2-3.4 0-5.3 0 .1 2.2 1.3 3.6 2.2 5.2.7 1.3 1.6 2.5 2.3 3.8.8 1.3 1.2 2.7.2 4.2s-2.4 1.4-3.9 1.1c-.3.3-.5.2-.6-.1-.4-.4-1.2-.2-1.3-1l.1.1c-.5 0-.7-.3-.9-.7l.1.1c-.4-.1-.7-.4-.8-.8l.1.1c-.4-.1-.6-.4-.8-.8-.4-.2-.6-.4-.8-.8l.1.1c-.4-.2-.6-.4-.8-.8l.1.1c-.4-.2-.7-.4-.8-.9l.1.1c-.8-.5-1.1-1.4-1.7-2.1-.3-.2-.6-.5-.6-.9l.1.1c-.7-.3-.5-1-.9-1.5v.1c-.6-.4-.5-1.1-.7-1.6v.1c-.9-.6-.3-1.6-.8-2.3l.1.1c-.9-1.9-.8-3.9-.1-5.9v.1c.5-1 .5-2.3 1.6-3l-.1.1c.1-.4.4-.7.8-.8l-.1.1c.6-.7 1.4-1.2 2.3-1.5h-.1c1.1-1.3 2.7-.1 3.8-.9.2.2.4.2.5 0 2.4-1.1 5.1.2 7.5-.7.6-.7 1.6-.2 2.3-.7.5-.9 1.6-.3 2.3-.8.9-.7 2.1-1 3.1-1.5.2-.7 1-.4 1.3-.9.3-.2.5-.5.8-.7.2-.3.5-.6.9-.7l-.1.1c.4-.6 1.1-.5 1.7-.8l.2.1.2-.2c.5-.5 1-.5 1.4.1.5.3 1.2.2 1.5.8.3-.2.7-.1.6.5ZM419.3 37.1c-4.3-4.8-7.6-10.3-9.9-16.6-4.7 2.8-8.9 5.4-13.1 7.8-4.3 2.5-8.7 4.8-13.5 6-.7.2-1.4.4-2.2.5-1.4.2-2.9 0-3.4-1.5-.6-1.5.7-2.1 1.8-2.8.3-.2.5-.5.8-.7 3.1-1.4 5.6-3.5 8.4-5.4 4.8-3.4 9.6-7 14.5-10.3 8.1-5.5 12.9-3.8 16.6 5.2 2.4 6 3.2 12.4 4.5 18.7-.2.7.3 1.6-.4 1.9-1.2.6-1.7-.9-2.6-1.3-1-.2-1.4-.8-1.5-1.5ZM511.2 79.5a69.7 69.7 0 0 0-4.5-10.7c-1.9 1.4-3.5 2.5-5 3.6-2.5 1.8-5.2 3.3-8.1 4.3-1.3.4-2.5.6-3.4-.5-.9-1.3-.5-2.6.4-3.7 1.4-1.7 3.3-3 4.4-4.9l4.5-5.4c.9-1 1.7-2.1 2.7-3 4.3-4.1 9.5-3.6 12.9 1.3.9 1.2 1.6 2.5 2.1 3.9 2.6 6.8 4.7 13.7 5.3 21-.1 1.6 0 3.2-.2 4.8-.2 2-1.1 2.3-2.6 1-.6-.6-1.2-1.3-1.7-1.9-3.7-2.3-5.8-5.7-6.8-9.8ZM654 420c-1.2.1-2.5.3-3.7.2-2.4-.1-3.3-1.3-2.9-3.6.4-1.9 1.6-3.3 3.1-4.5 2.5-2.1 5.2-3.7 8-5.4 2.7-1.6 2.7-1.8.8-4.1-3.8-4.6-7.7-9.1-11.9-13.3-.9-.9-1.8-1.7-2.4-2.8-1.6-2.6-.7-4.4 2.5-5.2 8.8 3.3 15.1 9.7 20.6 17 .7 1 1.3 2.1 1.7 3.3 1.6 4 .9 7.1-2.3 10.1-2.5 2.3-5.3 4.1-8.2 5.7-1.8.8-3.5 1.7-5.3 2.6ZM646 378.6c-2.8.9-3.9.1-3.6-2.7.3-3.2 1.4-6.3 3.1-9 1.6-2.5 3.2-5 4.8-7.4 1.2-1.9 2-3.9 2.3-6.2.3-2-.3-3.2-2.3-4-2.9-1.1-5.7-2.4-8.5-3.6-.6-.2-1.1-.5-1.6-.9-1.5-1-3.5-1.8-3-4.2.5-2.1 2.6-1.9 4.2-2.3.6.7 1.6.2 2.2.7 3.9.6 7.7 1.5 11.4 3 5.3 2.1 7.5 5.6 7 11.2-.4 4.3-1.5 8.5-4 12.2-3.3 4.9-6.9 9.7-12 13.2ZM32.4 305.5c1.2.3 1.6.9 1.2 2.1-1 2.9-2 5.8-3.8 8.5-2.9 4.3-6.1 8.5-8.6 13-3.4 6-6.6 12.2-8.7 18.9 1.5 1.1 3.2.6 4.7 1.2 1.4.5 2.8.9 4 1.9 1.2 1 1.9 2.3 1.5 3.9-.4 1.7-1.8 2.4-3.3 2.5-1.8.2-3.7.1-5.6.2-1.7.8-3-.3-4.4-.9-.4-.4-1.1-.2-1.5-.7-.4-.4-1.2-.2-1.4-.9l.1.1c-.5 0-.7-.3-.8-.8l.1.1c-1.7-1.9-2.7-4-1.6-6.6v.1c.6-.7 0-1.7.7-2.3.6-.6 0-1.7.8-2.3v.1c.6-.6-.1-1.8.9-2.2l-.1.1c.2-.6.1-1.2.7-1.6v.1c.3-.5.2-1.1.7-1.6.8-2.1 1.7-4.1 2.9-6 .5-.4.3-1.1.8-1.4.4-.4.3-1.2.8-1.5v.1c.3-.5.2-1.2.9-1.5l-.1.1c0-.4.3-.7.6-.9.4-.4.3-1.2.9-1.4l-.1.1c.1-.4.4-.6.6-.9.5-.4.3-1.1.9-1.4l-.1.1c.1-.4.4-.6.7-.9.6-.7.8-1.6 1.6-2.2l-.1.1c.1-.4.4-.6.7-.9.2-.3.5-.5.7-.8.7-.6.8-1.7 1.7-2l-.1.1c0-.5.3-.8.8-.9l-.1.1c.1-.5.4-.7.8-.8l-.1.1c.1-.4.4-.7.8-.8l-.1.1c.1-.4.4-.6.8-.8l-.1.1c.2-.4.4-.6.8-.8.2-.3.4-.6.7-.8.2-.3.5-.5.7-.8.6-.7.8-1.7 1.7-2.1l-.1.1c.1-.4.4-.7.7-.9.5-.7.8-1.7 1.7-2.2l-.1.1c.1-.5.5-.8 1-.9h.2l.1-.2c.4-.5.6-.5.9-.3ZM557.5 681c-.8-1.2-3.3-1.3-2.8-3 .5-1.9 2.8-1.7 4.4-2 3-.5 5.9.3 8.8.9.7.1 1.4.4 2.2.5 2.5.3 2.8.1 2.9-2.4.2-4.7 0-9.4.8-14l.9-5.8c.7-1.5-.1-3.3 1-4.9 1.1-1.5 1.9-3.2 4.2-2.6.2.1.4.1.6.1.4.1.6.4.9.6 1.1 1.3.8 2.8.8 4.3 0 7.8-.3 15.6.1 23.3-.5 10.3-7 11.6-14.1 9.5-3.9-1.1-7.4-2.4-10.7-4.5ZM42 261.9c.7 1 .5 1.8-.2 2.9-5.6 9.5-11 19-16.7 28.7 2.4.8 4.6 1.6 6.8 2.4 1.3.5 2.6 1 3.7 1.7 1.6 1 2.3 2.6 2 4.5-.2 1.2-.7 2.1-2.3 1.7-1.9-.5-3.9-.5-5.9-.3-1 .3-2 .6-2.9-.2-.8-.8-2.2.3-2.9-.9-.5-.2-1.2-.1-1.6-.7-.4-.4-1.1-.2-1.5-.8-.8-.5-1.7-.8-2.2-1.6l.1.1c-.5-.1-.7-.4-.8-.8l.1.1c-.7-.2-.5-1-.9-1.4v.1c-.7-1.7-.7-3.4 0-5.1v.1c.3-.5.2-1.2.8-1.6v.1c.3-.5.2-1.2.8-1.5v.1c.3-.9.9-1.6 1.4-2.3.4-.4.2-1.2.9-1.4l-.1.1c.1-.4.4-.6.6-.9.5-.3.3-1.1.9-1.4l-.1.1c.1-.4.4-.6.6-.9.5-.3.3-1.1.9-1.4l-.1.1c.1-.4.4-.6.7-.9.4-.4.2-1.2 1-1.4l-.1.1c0-.5.3-.7.7-.9.5-.8.8-1.7 1.6-2.2l-.1.1c.1-.4.4-.6.7-.9.4-.4.2-1.2 1-1.4l-.1.1c0-.5.3-.7.7-.9.1-.3.4-.6.6-.8.5-.3.3-1.1.9-1.4l-.1.1c.1-.4.4-.6.7-.9.4-.4.2-1.2.9-1.4l-.1.1c0-.4.3-.7.7-.9.4-.4.2-1.2.9-1.4l-.1.1c0-.5.3-.7.7-.9.2-.3.4-.5.6-.8v-.1c.5-.3.3-1.1.9-1.3l-.1.1c.1-.4.4-.6.7-.8.2-.3.5-.6.8-.8l-.1.1c.3-.6 1.1-.4 1.5-.8.5-.5 1-.5 1.5 0l.2.2.2-.1c.6-.3 1.2-.3 1.2.4ZM587.2 646.9c-.4-.2-.9-.5-1.3-.6-3-1-3.5-3.3-1.2-5.4 1.1-1 2.5-1.7 4-1.9 2.8-.3 5.6-.9 8.4-.6 3.8.5 4.2.2 4-3.6-.3-4.9-.8-9.8-.8-14.8 0-1.8 0-3.7.1-5.5 0-1.2.5-2.2 1.8-2.4 1.3-.2 2.1.4 2.7 1.5.5 1 1 2 1.4 3 1.4 5.5 2.7 11.1 3.1 16.8.1 1.7.2 3.5 0 5.2-.4 5.1-2.8 7.6-7.8 8.3-2.3.3-4.7.3-7 .3l-7.4-.3ZM611.7 608.3c-.4-2 1.3-2.2 2.4-2.7 3.6-1.4 7.3-2.5 11-3.3 3.4-.7 3.8-1.3 3.2-4.9-.8-4.7-2.1-9.2-3.6-13.6-1.1-3.3-1.9-6.7-2.3-10.1-.1-.7-.2-1.5-.1-2.2.1-.8.5-1.4 1.2-1.7 1-.4 1.8.1 2.2.9 1 1.6 1.8 3.3 2.6 4.9.3.5.7 1 1 1.5 1.8 4.8 4.2 9.4 5.6 14.5.7 2.4 1.3 4.8 1.4 7.2.3 6.4-3 10.5-9.4 11.7-3 .5-5.9.4-8.8-.3-1.7-.4-3.3-.9-5-1.3-.4 0-.6-.3-1-.4.1-.2-.2-.2-.4-.2ZM330.7 751.6c.4.1.8.7 1.3.2 3.7-3.8 6.4-4.5 10.7-2.4 1.9.9 2.9.5 4.1-.8 2.6-2.9 5.8-3.4 9.4-2.1 3.1 1.2 6.4 1.9 9.2 3.8.4.1.7.4.8.8h-.1c1.1.8 1.1 2 1.6 3.1l-.1.2.1.2c-.3.5-.1 1.3-.9 1.6l.1-.1c-.5.9-1.4 1.2-2.2 1.6h.1c-.5.9-1.6.3-2.2.8-1.7.8-3.4.8-5.1 0-1.5-.5-3.2-.4-4.5-1.6h.1c-2.2-1.3-3.1.9-4.6 1.6-.2.3-.5.6-.9.6l.1-.1c-2.2 1.4-4.3 1.2-6.5.1-.4-.4-1.1-.2-1.5-.8-.4-.4-1.2-.2-1.4-.9-.5-.2-1.2-.1-1.6-.7-.7-.5-1.7.1-2.3-.8-.5-.3-1.2-.1-1.4-.9-.8-.3-1.6-.6-2.2-1.3-.6-.5-1-1.3-.1-2.1Z" fill="#282828"/><path d="M530 706.3c-.2-.5-.3-.9-.5-1.4-1-2.5-.2-3.7 2.6-3.4 1.8.2 3.7.5 5.4 1.2 2.8 1.1 2.9 1.7 4.3-2.3 1.5-4.3 2.9-8.7 4.5-12.9.8-2.1 1.8-4.1 2.8-6.1.6-1.3 1.6-2.3 3.2-2 1.7.4 1.7 1.9 1.6 3.3v2.2c0 .7-.1 1.4-.1 2.1-.8 1.2.2 2.7-.8 3.8v-.1c-.9 1.1.3 2.7-.8 3.8l.1-.1c-.7.9.2 2.2-.7 3.1v-.1c-.7.9.2 2.2-.8 3v-.1c-.8.9.2 2.2-.8 3v-.1c-.6.7 0 1.7-.8 2.3v-.1c-.6 1.6-1.1 3.2-2.3 4.5v-.1c-.2.3-.4.6-.7.8-.2.3-.5.6-.8.7l.1-.1c-.3.6-1 .4-1.5.8-2.6.9-5 .5-7.4-.7-.4-.4-1.1-.2-1.5-.7-.4-.4-1.2-.2-1.5-.8-1.5-.6-2.8-1.8-3.6-3.5Z" fill="#54443D"/><path d="M568.5 142.6c-1.5 1.5-3.1 2.8-4.3 4.6-1.6-.6-2.4.7-3.4 1.4-2.9 1.9-5.9 2.8-9.3 2.3-4-1.4-4.8-3.4-3-7.4.2-.3.5-.5.7-.8 1.4-2.9 3.8-4.7 6.4-6.5.9-.7 1.9-1.2 1.9-2.5.9 1.4 1.9 2.8 2.8 4.3.6 1 1.3.9 2.1.2 1.6-1.5 2.6-3.2 2.5-5.4 0-1.9.1-3.9.1-5.8.9 3.6 2.2 7.2 2.1 11 0 1.6-.3 3.4 1.4 4.6Z" fill="#747271"/><path d="M643.7 338.9c-.9.2-1.7.3-2.2-.7.8 0 1.6.1 2.2.7ZM207.9 751.8c.2 0 .3-.1.5-.2l.3.3c.4.5.3 1 0 1.5-.4.2-.6.1-.8-.2v-1.4ZM612.4 608.4c.4-.1.7 0 1 .4-.5.2-.8 0-1-.4ZM633.4 288.5c-.1-.4.1-.7.5-.9.1.5-.1.8-.5.9Z" fill="#B4B1B0"/><path d="M424.3 729.5c-1.1-.7-2.3-1.4-1.5-3.1.4-.9.6-1.9.7-2.9.3-3.7-2.4-5.8-5.9-4.8-4.5 1.3-8.3 3.8-11.5 7.1-3.5 3.5-7.2 6.8-11.2 9.7-2.8 2-6 2.6-9.4 3-5.8.8-11.6.2-17.4.8-13.2 1.3-26.4 1.4-39.6 1.4-1.7 0-3.2-.3-4.7-.9-1.6-.7-2.9-.7-4 .6-.9 1-.4 3.4.8 4.7.7.7 1.5 1.3 2.4 1.7 1.3.7 2.6 1.3 4.2 2.1-.8.8-2.1.3-2.5 1.3-.3.2-.6.3-1 .3-2.6-.7-5-2.3-7.8-2.2-1.8-.8-3.3-2.1-5.3-2.6-1.7-.4-2.2-1.8-2.1-3.5.2-15.2-11.5-30.2-26.7-33.1-14.3-2.7-27.2.7-38.1 10.8-2.1 1.9-3.3 5-6.8 5-.6-.1-1.1-.2-1.4-.8.7-3.2-.8-4.7-3.6-6.1-9.9-4.9-19.1-10.9-28.1-17.3-3.5-2.5-6.5-5.4-8.6-9.1-1.9-3.3-4.1-6.4-6.9-9.1-6.7-8.9-10.5-19.4-14.3-29.7-5-13.4-10-26.7-15.8-39.7-3.3-7.4-6-15-6.9-23-1.4-11.7-5.8-22.5-9.9-33.4-7-18.6-11.5-37.8-13.3-57.7-1.4-15.2-1.1-30.3 0-45.5.7-9.9-.3-19.8-1.6-29.6-1-7.3-.7-14.6-.3-21.9.3-4.8.6-9.6 1.2-14.4.6-4.4 1.2-8.9 2.8-13 2.3-5.8 3.6-11.8 4.3-18 1.7-15 6.3-29.2 12.2-43.1 2.3-5.5 4.2-11.1 5.5-16.9 1.2-5.2-.1-7-5.2-8.2-1.5-.8-2.2-2.2-2.8-3.6 1.8-2.2 1.7-4.4-.1-6.5.2-5.2-1.7-9.6-4.4-13.9-4.3-7.1-6-14.9-5.5-23.1.2-2.7.9-5.2 2.3-7.4 7-11.2 16.5-19.4 29.1-23.7 3.5-1.2 7.2-1.9 10.9-.9 5.3 1.3 8.6 5.2 11.9 9 2.2 2.5 4.2 5.2 6.5 7.6 1.6 1.8 3.7 2.9 5.9 3.8 8 1.6 14.9-1 21-6.1 5.1-4.2 9.7-8.8 15-12.7 3.6-2.7 7.4-4.4 12-3.9 8.5.8 16-2 23.3-6.1 9.1-5.1 18.7-8.9 29.1-10.7 11.7-2 23-5.8 34.9-7.3 6.7-.9 13.3-.4 19.9.7 15.8 2.6 31.6 4.8 47.5 6.3 2 .2 3.9.8 5.9.9.4.1.8.1 1.2.3 4.6 1.1 9.2 2.7 13.8 4 1.2.4 2.3.9 3.2 1.7 4.1.5 7.6 2.3 10.9 4.6 2.2 1.3 3.6-.4 5.1-1.5 4.6-1.8 7.9-5.5 11.8-8.2 8.2-5.6 16.8-9.2 27-8.5 7.4.5 13.6 3.1 18.3 9 1.6 2 3.5 3.8 5.5 5.5 4.5 6.6 4.7 14 3.7 21.4-1.2 8.8-4.8 16.6-10.8 23.2-.8.8-1.4 1.8-2.1 2.6-2.1 2.5-2.5 5-.3 7.7.6.7.5 1.5.2 2.2-.5 5.8 2.4 10.9 3.8 16.3 3.2 20.1 7.9 39.8 15 58.9 3.8 10.2 6.3 20.9 8.4 31.6 2 9.7 4.8 18.9 9.9 27.5 2.2 3.6 3.3 7.7 3 12.1 0 .4-.1.8-.2 1.2-1.3 11.9-2.6 23.8-.7 35.8 1.5 9.4.8 19 2.5 28.4 2.9 15.6 3.8 31.4 3.7 47.3-.1 14.9 1.1 29.7 2.2 44.5.4 5.2-.2 10.4-1 15.5-3.2 20.7-8.4 41-14.2 61.1-4.2 14.6-12.2 27.3-20.1 40-1.2 1.9-2.4 3.8-3.6 5.6-.2.3-.5.6-.8.9-.5.5-1.1.9-1.6 1.5-1.5 1.6-2.6 3.5-3.3 5.6-.5.8-1 1.5-2.1 1.5-3.8-3.1-7.4-6.5-11.9-8.7-12.2-5.7-23.7-3.1-34.9 2.6-11.7 6-18.3 16-21 28.6-1.2 5.4-3.6 10.6-2.8 16.4-.1.7 0 1.6-1 1.7-1.1.4-1.6-.3-1.9-1.2Z" fill="#FFE0D4"/><path d="M146.9 288.5c3.2-1.3 5-.6 6.1 2.2.7 1.9.8 3.8.3 5.8-2.3 8.4-5.1 16.5-8.5 24.5-3.4 8-5.8 16.3-7.5 24.8-1.3 6.5-2.1 13.1-3 19.7-.2 1.3-.6 2.7-1.1 3.9-2.8 6.4-4.3 13-5 20-.8 8.4-1.4 16.7-1.4 25.1 0 4.4.2 8.7.9 12.9 1.3 8.1 2 16.3 1.2 24.4-.8 7.5.1 15.1-1.2 22.5-.5 2.7-.4 5.7.3 8.5.3 1.3.3 2.7.3 4.1 0 9.5 1.4 18.9 2.8 28.3 1.9 12.5 5.5 24.6 9.3 36.5 2.1 6.5 4.9 12.7 7.3 19 2.3 6.2 3.4 12.6 4.4 19.1 1.2 8.2 3.8 15.8 7 23.3 4.5 10.3 9.1 20.6 12.7 31.3 3.1 9.3 6.9 18.3 10.9 27.2 1.8 4 4.1 7.6 6.6 11.2-4 .7-6-2.3-8.2-4.7-6.7-7.3-10.3-16.2-13.3-25.5-.7-2.3-1.4-4.5-3.8-5.6-.3-.3-.5-.7-.8-1-.7-5.1-3.2-9.5-5.7-13.9-4.7-8.3-8.1-16.9-7.9-26.7.1-2.9-.9-5.3-3.7-6.8-2-1-3-2.8-3.7-4.9-2-5.6-3.4-11.3-3.7-17.3-.2-3.5-.9-6.9-4.2-9 .6-1.3-1.4-2.6.2-3.9 1.4-3.1 1.3-6.3.4-9.5-2.6-9.6-5-19.1-5.4-29.1-.1-2.1-1-3.9-2.9-4.9-3-1.6-4.3-4.3-5.2-7.3-1.3-4.6-1.8-9.2-2.1-13.9-.2-3.3-.3-6.6-1.4-9.8-1.6-.5-2.4-1.5-2.2-3.3.1-.9.1-1.7.1-2.6 2.5-4.8 3.2-9.9 2.1-15.1-1.3-6.3-2.1-12.6-.4-19.1.7-2.7-.2-5.4-1.6-7.8-1.7-3-2-6.2-1.6-9.7.8-6.7 1.5-13.4.6-20.2.9-2.7 2.4-5.1 3.9-7.5 1.7-3.7 1.4-7.1-.9-10.5-1.2-1.7-1.4-3.6-1.2-5.7.6-7.8 2.8-15.3 3.8-23 .9-6.5 4.6-12.2 8.7-17.5 1.9-2.5 2.3-4.6 0-6.9-2-2-1.3-4.1-.4-6.2 4.1-10 9.2-19.5 14.6-28.8 1.7-2.9 2.5-6.2 5-8.6.9-.4 1.1-1.3 1.6-2 1-1.2.7-2.2-.3-3.2-1.1-.7-2.2-1.5-2.8-2.8Z" fill="#F2BDA8"/><path d="M236.8 725c2.3-1.8 4.5-3.9 6.4-6.1 4.1-4.6 9.4-7.2 15.1-9 8.9-2.8 17.8-3.9 27-1 9.5 3.1 15.9 9.7 20.5 18.3 1.8 3.3 2.9 6.8 3.7 10.5.3 1.6.2 3.2-.2 4.8-.2 1-.2 2.5.9 2.4 3.1-.4 4.2 2.2 6.1 3.6 2.4 1.2 4.7 2.8 7.6 2 .2 0 .5-.1.7-.1 2.1.2 4.4-1.1 6 1.3-.1 1 .4 1.7.8 2.5-.8.8-.7 2.1-1.6 3 0 .2 0 .5-.1.7-.4.1-.7.3-.8.7-.4.1-.7.3-.8.7-.4 0-.7.2-.8.7-1.7.8-3.4 1.5-5.1 2.3h-2.8c-1.2-.5-2.5-1-3.7-1.4l-3.7-3.7c-.1-.3-.2-.8-.5-.9-.6-.4-.9.1-.9.6-.3 3.4-1.9 6.3-3.2 9.3-.8.5-1.3 1.2-1.6 2.1-.4.1-.6.4-.7.8-.4.1-.7.3-.8.7-.9.3-1.6.8-2.1 1.6-1.1.3-2.1.7-3 1.5-2 .5-4.1 1-6.1 1.4-5.5 1-10.5-.2-15.3-2.9-2.5-2.8-3-2-4.7 0-1.5.7-3 1.5-4.4 2.2-5 1.4-9.8.9-14.7-.7-.4-.6-.9-.7-1.5-.7-.3-.6-.8-.7-1.4-.8-.8-.9-1.8-1.7-2.9-2.3-.6-1.3-1.4-2.2-3.1-2-2.7.5-5.4 0-8.1-.2-.6-.6-1.4-.7-2.2-.7-.4-.6-.9-.7-1.5-.7-.3-.6-.8-.8-1.4-.8-.4-.6-.7-.6-1 .1-.4 0-.7.3-.8.7-2 1.3-4.2 1.4-6.5.8-.3-.6-.9-.7-1.4-.8-.8-1-1.8-1.7-2.9-2.3-.1-.4-.3-.6-.7-.7-.1-.4-.3-.7-.7-.7-.1-.4-.3-.7-.7-.8-1.2-1.9-2.8-3.4-4.4-5-.9-.9-1.8-1.7-3.2-1.6-.3-.2-.5-.5-.8-.7 0-.5 0-.9.1-1.4 2.7-1.8 5-.4 7.2 1.1 2.1 1.4 4 3.2 6.1 4.8.8.6 1.7 1.8 2.9 1 1-.7 1-1.9.9-3-1.4-12.5 2.8-22.5 10.8-31.2ZM144.6 279.1c3.5 2.2 3.5 2.9-.5 5.9-4.3 1.3-8-.1-10.8-3.1-11.4-11.8-18-25.5-15.5-42.5.1-1 .2-2 .2-2.9.7-.9 0-2.1.7-3 3.5-13.4 10.6-24.3 21.6-32.7 1-1.8 2.6-2.6 4.6-2.8.2 0 .4-.1.6-.2.3-.2.5-.5.9-.5 5-1.8 10-3.6 15.4-3.9 4.1-1.6 8.2-1.8 12 .8 7.8 1.7 14.8 5 20.4 10.7 4.8 4.9 9.4 10.2 12.9 16.2 2.5 2.1 1.9 4.6.8 7-1 2.3-3 3.1-5.4 2.9-.9-.1-1.7.1-2.6-.2-3.3-1.3-5.7-3.8-8-6.5-2.6-3-5.1-6.1-7.8-9-2-2.2-4.3-4.1-7.3-4.9-15.8-5.1-29.5.9-38.3 17-6.9 12.5-6.8 25.3-.6 38.1 2.2 4.4 4.8 8.8 6.7 13.6Z" fill="#282828"/><path d="M504 682c1.7-4.6 5-8.2 7.4-12.4 2.6-4.7 5.6-9.3 8.3-14.1 5.7-9.9 8.7-20.7 11.6-31.6 3.3-12 6.4-24.1 8.6-36.3 1-5.9 2.1-11.9 2.9-17.8 1.2-9-.3-17.7-.8-26.5 0-.5 0-1-.1-1.5-1-12.2-.4-24.5-.9-36.7-.3-6.1-.8-12.3-1.1-18.4-.4-8.9-2.9-17.5-3.4-26.4-.2-3.4-.3-6.9-.6-10.3-.3-4.2-1-8.3-1.2-12.5-.4-6.9-1.8-13.7-.4-20.6.8-3.8.6-7.9.9-11.8.1-1-.2-2 .8-2.7 1.2 1.2 1 2.8.9 4.2-.3 5 1 9.5 3.2 13.9 1.1 2.2 1.9 4.6 3 6.8 1.3 2.9 1.4 5.6-.4 8.5-1.8 3-2.2 6.2-1.2 9.7 1.1 4.4 2.5 5.4 7 5.2.5.4.8.9.8 1.6-.3 3.7 1 7.2.8 10.9-.2 2.5 1.6 4.6 1.5 7.1-2.6 1.3-2.5 3.1-1.3 5.5 2.5 4.7 4.3 9.7 4.5 15.1.1 2.9-.5 5.4-2.8 7.3-4.5 3.7-5.3 8.4-3.6 13.7.6 1.9 1.1 3.8 1.6 5.7 1.7 6.3 1 12.4-1.1 18.5-1.2 3.5-1.8 7.3 1.6 10.3.8.8 2.1.8 2.6 2-.5 1.6-2.3 1.2-3.2 2.2-2.2 2.3-1.2 4.9-.5 7.4 1.1 4.2 2.9 8.2 3.6 12.5.6 4 .8 8-1.7 11.5-4.8 6.7-5.2 14-3.7 21.6 1.2 5.9-.5 10.9-4.8 14.4-6.9 5.6-8.5 12.7-8.1 20.8.2 4.9-.4 9.4-4.3 12.9-1 .9-1.7 2.2-2.1 3.5-1.7 4.7-4.7 8.4-8.2 11.8-3.5 3.4-3.6 4.1-1.5 8.4.3 1.9-.4 3.1-2.2 3.7-1.5.1-2.7.8-3.8 1.9-3.4 3-4.3 3.1-8.6 1Z" fill="#F2BDA8"/><path d="M496.4 252.8c-2.9-1.5-3.3-2.4-2.4-5.1.6-2 2.1-3.4 3.4-4.8 5.1-5.7 8.9-12.1 10.7-19.6 1.6-6.9 1.7-13.7-.5-20.5-.5-1.5-.9-3.1-2-4.3-.8-.8-1.5-1.7-2-2.7-5-9.7-14.1-12.4-23.8-14.2-6.7-1.2-12.6.3-18.3 3.8-6.3 3.8-12.5 7.6-16.6 13.9-.4.6-1.1 1-1.7 1.5l-.6.9c-1.7 2.6-2.1 2.6-4.2-.1-1.9-7.7 1.4-13.5 6.7-18.5 4.3-4.1 9.3-7.4 14.4-10.5 7.1-4.3 14.9-4.3 22.7-3.5 5.2.5 10.1 2.1 15 3.9 10.9 3.8 17.3 11.9 21.6 22.1a50.4 50.4 0 0 1 3.8 16.2c1.8 3.9 1 7.5-.8 11.2-1.7 7.5-4.3 14.6-9 20.9-2.1 2.9-4.4 5.6-7.6 7.4-2.7 1.3-5.6 2.2-8.8 2ZM138.9 741.9c-.1-.4-.3-.6-.7-.7-.6-1.1-1.3-2.1-2.2-3-.1-.6-.3-1.1-.8-1.4 0-.6-.2-1.1-.8-1.5 0-.6-.2-1.2-.7-1.5-.2-1.3-.7-2.6-1.5-3.7-.1-1.4-.6-2.6-1.4-3.8 0-.8-.1-1.6-.8-2.2 0-.8-.1-1.6-.7-2.2 0-.8-.1-1.6-.7-2.2 0-.8-.1-1.6-.7-2.2 0-.8-.1-1.6-.7-2.2 0-.8-.1-1.6-.7-2.2 0-.8-.1-1.6-.8-2.2 0-.8-.1-1.6-.8-2.2 0-.8-.1-1.6-.8-2.2-.1-1.4-.6-2.6-1.4-3.8-.1-.6-.2-1.4-1-.7-.9.8-1.5 1.9-2.3 2.8l-2.9 2.3c-2.6 1-5.3 1.1-7.9 0-1.3-1.2-2.5-2.4-3.8-3.6 0-.4-.2-.7-.6-.9-.1-.6-.3-1.1-.9-1.3-.2-.9-.6-1.7-1.4-2.3-.1-.6-.2-1.1-.8-1.4 0-.6-.2-1.1-.8-1.5 0-.6-.2-1.2-.7-1.5 0-.6-.1-1.2-.7-1.5-.2-1.4-.7-2.6-1.5-3.7-.1-1.4-.6-2.6-1.4-3.8-.1-.8-.1-1.6-.8-2.2 0-.8-.1-1.6-.7-2.2-.3-1.8-.7-3.5-1.6-5.1 0-.8 0-1.6-.7-2.3 0-.8 0-1.6-.7-2.3 0-.8-.1-1.6-.7-2.2 0-.8-.1-1.6-.8-2.2 0-.6-.1-1.2-.7-1.6 0-.6-.2-1.2-.8-1.5-.9-2.2-.9-2.2-2.4-.7-.4 0-.7.2-.8.6-1.5.8-2.9 1.5-4.4 2.3-1.9.2-3.8.2-5.7 0-.4-.5-.9-.6-1.5-.7-.6-.7-1.3-1.2-2.1-1.6-.1-.4-.3-.7-.7-.8-1-2.2-2.1-4.4-3.1-6.6 0-1.3 0-2.6-.8-3.7 0-1.5 0-3.1-.7-4.5-.4-6.3-.9-12.6-1.3-18.8-.2-3.8-.5-7.6-.2-11.5 2.3-2.8 4-2.9 6.3-.5.3.4.7.7.7 1.2-.4 5.4 1.6 10.4 2.1 15.6.5 5.3 1.4 10.5 2.6 15.7.1.5.1 1 .3 1.5 1.1 3.4.7 4 4.3 2.1 1.9-1 3.8-1.8 6-1.7 3.1.2 4.6 1.7 4.1 4.7-.2 1.2-.1 1.7.9 2.4 2.4 1.8 4 4.3 5.4 7 3.1 6.1 5.3 12.5 8 18.8 1.5 3.5 3.3 6.9 5.4 10.1.8 1.2 1.6 1.8 2.9.7 2.4-2.2 5.4-2.8 8.5-3.3 1.9-.4 3.3 0 4.7 1.4 2.9 2.8 4.9 6.2 6.8 9.7 3.5 6.8 6 14.1 9 21.2.9 2.2 2 4.2 3 6.4.8 1.6 1.9 1.8 3.3.9.6-.4 1.2-.8 1.8-1.3 1.1-.8 2.2-1.6 3.4-2.3 5.4-3 8.9-1.2 9.3 4.9-.1.4-.1.9-.2 1.3-.5.3-.7.9-.8 1.5-1 .8-1.7 1.8-2.3 2.9-.4.1-.6.3-.7.7-.4.1-.7.3-.8.7-.9.3-1.6.8-2.1 1.6-4.4 2.4-9 3.3-13.9 2.1-.4-.5-.9-.6-1.5-.7-.8-.6-1.5-1.1-2.4-1.4ZM548.4 450.6c-2.3 2.2-4.1 2.2-6-.5-3.1-4.3-3.9-9.5-1.1-13.9 2.4-3.8 1.8-6.8.1-10.2-1.1-2.2-2-4.5-3-6.8-2.1-4.4-3.2-9.1-2.5-14 .1-1 0-2 0-2.9.1-.2.1-.4.1-.6.9-4.1-.5-7.8-1.9-11.4-1.6-4.4-3.3-8.8-5.2-13.1-1.8-3.9-2.1-8-.3-11.9 3.2-6.9 1.5-13.3-1.3-19.6a86 86 0 0 0-5-9.5c-1.8-3.2-1.6-5.8.5-7.4 2.1-1.6 4.4-1.1 7.2 1.4 3.9 3.6 7.1 7.8 9.7 12.5 2.4 4.4 3.7 9.1 4.3 14 .5 3.5-.1 6.9-1.6 10.1-1.2 2.8-.8 5.1.5 7.7 1.6 2.9 2.8 6 4.2 9 1.6 1.2 1.3 2.9 1.4 4.6 0 .2.1.5.1.7.5.7 0 1.6.6 2.3 1.1 5 1.2 10.1.3 15.1-.4 2.2.2 4.2 1 6.1 1.4 3.6 2.9 7.1 4.3 10.7 1.3 3.4 2.1 6.9 1.8 10.5.5 2.8-.7 4.6-3.1 5.8a9.65 9.65 0 0 0-3.9 6.3c-.2 1.7-.7 3.3-1.2 5ZM518 675.1c-2.7-2.6-2.9-4.5-.6-7.3.6-.8 1.4-1.4 2.1-2.1 3.3-2.9 5.9-6.2 7.4-10.4.8-2.1 1.9-4.1 3.6-5.6 2.3-2.1 3-4.7 3.1-7.7.1-4.1 0-8.1.4-12.2.3-3.7 1.8-6.6 4.4-9.1 2.4-2.2 4.7-4.4 6.4-7.2a12 12 0 0 0 1.9-7.8c-.3-2.7-.4-5.4-.9-8.1-.8-4.6-.2-9.1 2.5-12.8 4.7-6.4 4.4-13.1 2.1-20.1-1.1-3.4-2.5-6.7-3.1-10.3-.3-2.1 0-3.9 1.9-5.2 3.7-1.1 5.7 1 7.4 3.8.8 1.4 1.6 2.7 2.2 4.2 1 2.8 2.1 5.5 2.1 8.5 0 .5.1.9.1 1.4.5.7 0 1.6.6 2.3 3 5 1.3 9.7-.7 14.5-.4.5-1 .7-1.3 1.2-3.7 4.6-5 9.5-3.2 15.4 1.4 4.6 1.3 9.5 0 14.2-.3 3.4-1.4 6.3-4.4 8.2-1.5 1.6-2.9 3.4-4.6 4.8a5.8 5.8 0 0 0-2.1 5.2c.2 2.1.1 4.2.2 6.3.4 1 .4 2.1 0 3.1v2.9c.6 2.1-.1 4-.7 6-1.2 2.2-1.8 4.9-4.6 5.8-.2 0-.5.2-.7.3-.3.1-.5.4-.7.6-1 .7-1.7 1.8-2.1 2.9-1.1 2.8-2.8 5.2-4.6 7.4-1.7 4.8-5.7 6.3-10.1 7.4-1.4.6-2.8.7-4-.5ZM343.2 179.9c-.2-1.8.2-3.4 1.7-4.6 5.7-4.5 11.7-8.2 19.2-9.1 3.9-.4 7.4.2 10.7 2.1 3.5 1.9 7.1 2.5 11 2.8 7.2.4 14.3 1.7 20.8 5 4.4 2.2 8.8 3.8 13.6 4.7 2.9.6 5.8 1.5 8.2 3.3 2.4 1.9 3.6 4.3 3.4 7.4-.2 3-1.4 3.9-4.6 3.9-4.7.4-8.7-2.2-13.2-2.7-1.2-.1-2.7 0-3.8-.9a46 46 0 0 1-10.9-3.4c-5.4-2.5-11.2-3.2-17-3.6-4.2-.3-8.1-1.3-11.4-3.8-4.2-3.1-8.5-3.6-13.3-1.7-3 1.2-6 2.2-9.2 2.8-2.1.3-4.3.4-5.2-2.2Z" fill="#282828"/><path d="M343.2 179.9c1.4 1.5 3.2 1.8 5.1 1.2 3.1-.9 6.2-1.7 9.2-2.9 5-1.9 9.6-1.7 13.9 1.9 2.9 2.4 6.5 3.3 10.3 3.6 7.4.4 14.7 1.6 21.4 5.1 2.3 1.2 4.7 2 7.1 2.9-3.8.3-7.6-.7-11.4-.9-5.3-.3-10.5-1.2-15.7-2-6.5-.9-12.9-1.9-19.4-2.7-7-.8-13.8-2.8-20.9-2.6-6.4.2-12.7 1.4-19 2.7-7.6 1.6-15 4-22.7 5.2-11.3 1.8-21.4 6.5-31.3 12-5.5 3-11.4 5.4-18 4.8h-.7c-6.8-1.3-12 1.8-16.8 5.9l-12 10.5c-6.3 5.4-13.6 7.8-22 6.5-.2 0-.4-.3-.6-.4h1.8c4.4-.2 6.8-3.2 5.9-7.6-.1-.7-.3-1.4-.5-2.1.6-1 1.4-1.8 2.4-2.3.5.4.7 1 .9 1.6 1.4 2.9 3.4 3.4 5.7 1 1.8-1.7 3.1-3.8 4.7-5.7 2.7-3.3 5.6-6.2 9.4-8.3 3.4-1.8 6.9-2.6 10.7-1.8 5.4 1.1 10.3.2 14.7-3.3 3.2-2.6 6.4-5 9.6-7.5 1-.8 1.7-1.9 3.1-1.9.8.1 1.6-.9 2.3.1 2.3 4.8 2.9 4.9 7.2 1.5 2.4-1.9 4.9-3.7 7.7-5 3.1-1.4 6.3-2.1 9.7-1 4.3 1.4 8.5.9 12.7-.8 7.5-3.2 15.3-5.7 23.6-5.4 2.2.1 4-.9 5.7-2.3.9-.7 1.5-2.1 3-1.9 2.6-1.5 2.2 1.1 3.2 1.9Z" fill="#F2BDA8"/><path d="M148.3 296.7c-.6 3.4-2.6 6.1-4.2 9-5 8.8-9.7 17.8-13.8 27.1-.4.9-.7 1.9-1.1 2.7-.8 1.8-.7 3 1 4.4 2.6 2.2 2.6 4.3.3 7.1-3.4 4-5.7 8.7-7.8 13.4-1.1 2.4-1.6 4.9-1.7 7.5-.1 4.6-1.9 8.9-2.5 13.5-.3 2.4-.7 4.9-.9 7.4-.2 1.5.3 2.9 1.2 4.2.6.9 1.2 1.9 1.7 2.9 1.4 3.2 1 5.3-1.6 8-5.9 1.5-13-7.5-11.8-13.9.8-4.3 2.2-8.3 3.9-12.4 4.1-9.6 9.4-18.5 13.5-28.1.3-.8.9-1.5.7-2.5-.9-.3-1.8-.6-2.7-1-2.8-1.3-4.4-3.5-4.5-6.7-.2-3.7.6-7.2 2-10.5 4.4-10.3 10-19.9 16.9-28.7 1.3-1.6 2.8-3.2 4.5-4.4 2.6-2.3 4.6-1.9 6.9 1ZM340.2 177.7c-2.2 3.9-5.7 5.5-9.9 5.3-6.5-.3-12.5 1.4-18.4 3.7-2.1.8-4.1 1.6-6.2 2.4-3 1.1-6.1 1.5-9.1.4-6-2.3-10.9.1-15.5 3.4-1.4 1-2.7 2.2-4 3.3-1.5 1.3-3 2.4-5 1.4-2.1-1-1.7-3.1-1.5-4.9 3.1-7 8-12 15.2-14.9 2.9-1.2 5.9-1.8 9-1.7 2.8.1 5.4-.6 7.9-1.8 5.6-2.7 11.6-4.2 17.6-5.5 2.2-1.6 4.5-1.4 6.7-.1 3.3.5 6.4 1.4 9.4 3 2.3 1.2 3.9 3.1 3.8 6ZM164 647c2.7-.4 3-.3 3.6 2.1 1.2 4.3 3 8.3 4.5 12.5 2.4 6.7 6.4 12.4 11.3 17.5 1.6 1.7 3.5 3.1 5.9 3.6 2.4 1.7 4 4 5.3 6.5 2.5 4.5 5.9 8.2 10.1 11.2 8.1 5.9 16.8 10.9 25.4 16 1.3.8 2.6 1.4 4 1.9 3.4 1.3 3.5 1.5 1.9 4.9l-.6.9c-3 2.2-6.2 2.1-9.1.2-9.5-6.4-20-10.9-29.1-17.8-4.7-3.5-8.2-7.9-10.2-13.4-.8-2.1-1.9-3.7-4.1-4.4-2-.7-3.6-2.2-5.3-3.3-3-.8-4.4-3.1-5.4-5.8-4.9-6.5-7.9-13.9-9.3-21.9-.7-3.6-1-7.3 1.1-10.7ZM550 547.2c-2.6-1.6-3.3-4.1-3.2-7 .1-2.1.6-4.2 1.4-6.1 2.2-5.5 2-11.1.5-16.7l-2.1-8.6c-.9-4.1.1-7.8 3.4-10.3 3.4-2.5 4-5.7 3.5-9.4-.5-3.8-1.6-7.5-3.3-11-.6-1.3-1.4-2.6-2-4-1.3-3.1-.5-4.1 3.1-3.9 5.5 4.2 9.7 9.4 11.9 16.1 1.4 1 1.6 2.5 1.7 4.1-.4 3.1 1.2 6.7-1.8 9.3-.8 1.8-1.9 3.5-3.4 4.7-1.8 1.4-1.8 2.9-1 4.8 1.4 3.4 2.4 7 3.1 10.6 1.8 4 2.2 8.1.8 12.3-1 4.1-2.8 7.9-4.8 11.6-1.8 3.8-3.2 4.4-7.8 3.5Z" fill="#282828"/><path d="m529.9 330.3-2.7-1.2c-1.5-.7-2.9-.7-4.1.5a3.52 3.52 0 0 0-.8 4.4c.6 1.2 1.2 2.4 1.9 3.6 3 5 5.5 10.2 6.7 16 .8 3.6.7 7.1-.9 10.5-2.1 4.8-2 9.5.3 14.3 2.8 5.7 5 11.6 5.8 17.9.2 1.8.7 3.7-.3 5.4-.2-5.2-1.7-9.8-4.4-14.3-4.3-7-6.6-14.9-8.2-22.9-1.9-9.2-4.3-18.2-6.7-27.2-2.1-7.7-5.2-15.1-7.6-22.8-3.2-10.2-5.7-20.6-7.4-31.2-.6-4-1.6-7.9-2-12 1.2 0 1.7 1 2.1 1.8 2.4 5.4 5 10.9 4.7 17-.2 4.2 1.6 7 4.7 9.4 5.4 4.2 9.2 9.5 10.1 16.7.6 4.8.9 4.9 5.7 5.7 2.4 2.3 2.2 5.5 3.1 8.4Z" fill="#F2BDA8"/><path d="M526.8 321.9c-3.4 1.6-5.1.9-6.2-2.4-.3-.9-.4-1.9-.5-2.9-.4-6.7-4.1-11.5-8.9-15.7-.7-.6-1.6-1.2-2.3-1.8-2.5-2-3.8-4.5-3.6-7.7.5-7.4-2.4-13.8-5.7-20-1.1-3.1-2.4-6.1-3.4-9.2-.7-2.3-1.4-4.7.4-6.9 1.5-.3 2.6.2 3.6 1.3 7.4 7.9 12.8 16.9 15.3 27.5.2.7.4 1.5.2 2.2-.8 4.1 1 6.9 4.2 9.4 2.8 2.2 4.9 5.2 6.7 8.3 3.6 5.7 3.8 11.8.2 17.9ZM268.2 192.6c-4.6 4.9-10 8.8-15.5 12.4-3.4 2.2-7.3 2.4-11.1 1.5-5-1.3-9.2.2-13.2 2.9-2.9 2-5.2 4.5-7.3 7.2-1.6 2-3 4.2-4.9 6-1.4 1.3-3 1.7-4.8 1-1.8-.7-2.1-2.3-1.9-4v-1.1c2.2-4.6 4.3-9.1 7.8-12.9 6.3-6.9 14-10.9 23.4-10.8 3.2 0 6.1-.6 8.8-2.2 3-1.7 6.2-3 9.5-4.1 1.7-.5 3.4-.7 5.1-.5 2.8.4 3.8 1.4 4.1 4.6ZM117.8 489c1.8 1 2 2.6 2.1 4.4.2 5.4.5 10.9 1.7 16.2.4 2 1.1 4.1 1.7 6 .4 1.3 1.1 2.4 2.6 2.9 3.3 1 4.5 3.6 4.7 6.8.4 8.2 1.7 16.2 4.2 24 .6 1.8.9 3.6 1.3 5.4.5 2.1.4 4.2.3 6.3-.1 1.3-.3 2.5-2 2.6-3-1.9-5-4.7-6.5-7.9-3.6-8.1-6.2-16.4-5.7-25.4.1-2.4-.4-3.9-2.8-4.9-2.6-1.1-4.2-3.4-5.2-6-3.2-8.3-3.7-16.8-1.8-25.4.8-3.7 1.9-4.5 5.4-5ZM134.3 567.4c1.7-.5 2.9.1 3.5 1.8.9 2.3 1.6 4.7 1.7 7.2.2 6.1 1.7 11.9 3.8 17.7.7 1.9 1.6 3.5 3.8 4.1 1.8.5 2.8 1.9 3.1 3.8.2 1.1.4 2.2.4 3.3-.1 9.2 2.9 17.4 7.3 25.3 1.7 3 3.3 6.1 4.9 9.1 1.1 2 1.6 4.1.5 6.4-2.5.7-4.3-.6-5.8-2.3-4.3-4.7-7.9-9.9-10.2-15.8-2.7-7.1-4.7-14.3-4.4-22 0-1.1-.2-1.9-1.3-2.3-2.7-1.1-4.2-3.4-5.3-5.9-3.2-7.1-5.2-14.3-4.2-22.2.2-2.9 1.1-5.6 2.2-8.2ZM114.8 411.3c2 3.2 2.2 6.8 1.5 10.4-.8 3.9-.6 7.9-1.1 11.8-.3 2.6.2 5.1 1.7 7.4 1.9 2.7 2.2 5.8 1.5 8.9a32.1 32.1 0 0 0 .1 15.4c1.3 5.3 1.5 10.8-.5 16.1-.4 1.1-.6 2.2-2.2 1.8-4.3-4.5-5.5-10.3-6.8-16.1-1.2-5.6-1.3-11.2.4-16.8.6-2 .5-3.8-1.3-5.3-1.6-1.4-2.4-3.4-3-5.4-.8-4-1.5-7.9-.8-12 .3-1.5.4-3.2 1.7-4.4.4-.4.3-1.1.6-1.5.9-2.7 1.6-5.3 3.4-7.6 1.2-1.6 2.5-3.1 4.8-2.7Z" fill="#282828"/><path d="M394.6 160.6c-.2 1.1-.4 2.2-.7 3.2-2.1 6.4-8.9 7.8-13.3 2.7-1.9-2.2-3-4.8-3.1-7.8-.2-6.2-.3-12.4.9-18.4.7-3.5 1.7-6.9 4.6-9.5 3.7-3.2 7.6-3.1 10.9.7 1.8.9 2.2 2.6 2.4 4.3.7 7.6-.9 15.1-.8 22.7-.1.8-.6 1.4-.9 2.1ZM277.8 147.2c-.1-2.1.3-4.2.8-6.2.7-2.7 2.2-5 4.4-6.7 2.2-1.6 5.2-1.7 7.4.5 3.2 3.1 4.1 7 4.5 11.1.4 5.2.9 10.3 2.1 15.4.4 1.8.4 3.7.1 5.5-.5 3.1-2 5.5-5.2 6.6-3.1 1.1-5.6-.1-7.9-1.9-1-.7-1.6-1.8-2.4-2.8-4.2-5.2-4.1-11.4-4.2-17.6-.1-1.2-.3-2.7.4-3.9ZM559.6 199.2c-2 .1-3.8 1-5.8.7-3.6-.4-6.4-2.4-7.3-5.4-1-3.3.8-5.7 3-7.5 5.9-5 12.8-8.4 20.2-10.5 3.1-.9 6.4-.8 9.5.4 3.4 1.3 4.5 3.7 3 7.1-.6 1.4-1.6 2.8-2.5 4.1-5 6.8-12.2 9.5-20.1 11.1Z" fill="#747271"/><path d="M627 351.7c5 0 5.6.9 4.1 5.6-2.1 6.6-6 12.1-10.6 17.2-2 2.2-3.5 4.8-5.9 6.6-2.4 1.8-4.9 3.3-8.1 1.9-4.2-1.9-6-5.9-4.9-10.4.9-3.4 3-6 5.1-8.5 4.4-5.3 9.1-10.1 16.2-11.8a12 12 0 0 1 4.1-.6Z" fill="#979493"/><path d="M600.5 439.5c-2-2.2-2.1-4.8-1.4-7.5.3-2.5 1.9-3.9 4-4.9 3.9-2 8-2.9 12.4-2.5 3.5-.8 7-.9 10.6-.8 2 0 3.9.6 5.6 1.6 3.3 1.8 4 4.4 2.2 7.7-1.8 3.3-4.8 5.2-8.2 6.5-3.5 1.4-7.3 2.2-11 2.9-1.4.9-3.1-.3-4.4.7-3.7 1.4-6.5.4-9-3a5 5 0 0 0-.8-.7ZM571.8 279.6c-6.5-.1-9.6-5.3-6.3-11 1.3-2.2 3-4 5.2-5.2 5.1-2.9 10.3-5.4 16-6.6 3-.6 5.9-.2 8.6 1.2 2.4 1.3 3.1 3.2 2.4 5.9-.9 3.1-2.5 5.7-5.2 7.4-5.3 3.4-11 6.2-17.1 7.9-1.2.3-2.4.4-3.6.4Z" fill="#747271"/><path d="M347 92.2c-.4-9.1 2.7-17.3 6.6-25.2 2-1.6 3.8-3.3 5.3-5.3.2.1.5.3.7.3 5.4 0 7.8 2 8.2 7.5.2 2.8.2 5.6-.6 8.4-1.3 4.2-2.4 8.5-3.4 12.8-1 4.2-3.7 6.7-7.8 7.3-1.8.3-2.3 1-2.2 2.6.1 2 0 3.9 0 5.9 0 1 .2 2-.7 2.8-1.5-1.5-1-3.5-1-5.3-.1-3.3.1-6.7-.1-10-.1-3.5-.2-3.5-3.4-2-.6.3-1.1.3-1.6.2Z" fill="#979493"/><path d="M571.6 358.4c-.4-5.4 2.6-8.7 7.3-9.5 5-.8 9.9-2.1 14.7-3.5 2.4-.7 4.6-.5 6.9.4 3.9 1.5 5.5 5 4.1 8.9-1.1 3.1-3.4 5.1-6.2 6.6-5.1 2.7-10.6 3.8-16.3 4.4-2.1.2-4.1-.6-6.1-1.4-3.5-.4-3.9-3.2-4.4-5.9Z" fill="#747271"/><path d="M106 423.1c-.8 5.4-1.1 10.9-.9 16.3-.9-.5-.5-1.6-.9-2.3-.9-.3-1.3.5-1.7 1-2.8 3.1-6.5 4.7-9.8 6.9-.4.2-1.4.2-.8 1.2-.8 2.1-2.3 2.9-4.4 2.2-1.2-1.4-2.8-.8-4.2-.7-6.7 0-9.1-3.5-6.2-9.9 1.3-2.9 3.6-5 6.1-6.9 4-2.9 8.1-5.6 12.7-7.6 3.3-1.4 6.7-2.2 10.1-.2ZM102.3 358.5c.7.8 1.6 1.3 2.5 1.3 2.6.2 4.2 1.9 5.8 3.6 2.7 3 2.1 7.4-1.2 9.9-2.9 2.2-6.2 2.8-9.7 2.9-1.5 0-3.3-.5-4.2 1.4-4.1-.9-8 .3-12 .7-.2-2.1-2-1.5-3.1-1.8-4.3-1.3-5.1-3-3.2-6.9 1-2 2-3.9 3.9-5.2 1.2-.8-.4-1-.5-1.5 1-1.2 2.4-1.1 3.7-1.4 4.7-1 9.4-1.9 14.1-3.1 1.4-.3 2.7-1 3.9.1Z" fill="#979493"/><path d="M583.5 303.4c3.7-.3 7.3-1.1 11-.9 2.6.1 4.8 1 6.7 2.7 2.9 2.6 3.2 6.6.8 9.7-1.5 1.9-3.4 3.4-5.7 3.9-6 1.2-12 2.6-18.2 2.6-1.8 0-3.4-.6-4.8-1.7-4.6-3.7-4.4-9 .5-13.2 1.6-2.4 3.8-3.1 6.5-2.8 1.1 0 2.1.3 3.2-.3ZM83.7 378.4c.9-.4 1.7-.8 2.6-1.2 3.2-1.4 6.3-1.5 9.3.5 3.3 3.5 3.6 6 1.2 9.8-1.6 2.5-3.7 4.5-6.4 5.9a5 5 0 0 0-.8.7c-2.7 2.5-6 3.9-9.7 4.4-.2 0-.5 0-.7.1-.6.6-1.6 0-2.3.7-3.5.6-7 .9-10.6 0-2.7-.7-3-1.1-2.1-3.8 1.7-5.3 5.4-9 10-11.9 3.1-1.9 6.3-3.5 9.5-5.2ZM457.8 95.9c0 .2-.1.5-.1.7-.2 4.2-2.6 7.4-5.1 10.4-.5.4-.3 1.1-.8 1.5-1 1.7-1.9 3.4-2.9 5.1-1.4 2.4-3.3 4.1-6.2 3.8-3-.4-4.7-2.3-5.5-5.2l-.3-1.4c-.8-.8-.8-1.8-.6-2.8 1.5-6.9 4.5-13 8.7-18.6.4-.5 1-.7 1.6-1 2-2.6 4.4-5 7.2-6.7.9-.6 1.9-1.1 2.9-1.6 1.4-.7 3-1.2 4.2-.2 1.1.9.6 2.5.3 3.8-.7 3.6-1.4 7.2-2.7 10.7-.5.4-.3 1.1-.7 1.5Z" fill="#747271"/><path d="M80 398.5c3.2-1.5 6.3-3.4 9.7-4.4.6.9 1.4.6 2.3.4 3.2-.6 6.4-1.6 9.8-.7 5.8 1.4 7.1 6.4 3.4 11.1-2.1 2.7-4.8 4.6-8.1 5.7-3.5 1.1-7 2.5-10.7 2.9-1 .1-1.6.6-2 1.4-2.8-.1-5.6-.1-8.3-.8-.1-.4 0-.8-.2-1.1-1.1-1.3-2.3-2.6-1.9-4.5.4-2.3 1.3-4.2 2.9-5.8 1.2-1.2 2.6-2.2 3.7-3.5.7-.7-.3-.5-.6-.7ZM298.5 98c-.2 1.1.6 2.8.2 4.7-.8 4.1-3.1 5.6-7.1 4.6-3.5-.9-5.7-3.2-7.5-6.2-1.4-2.4-2.2-5.1-2.4-7.7-.4-4.5-.7-9.1.6-13.6.9-2.9 2.3-5.4 5.3-6.8 2.5-1.1 4.5-.7 6.2 1.4 1.7 2.2 2.7 4.8 3.2 7.4.9 5.1 2 10.2 1.5 16.2Z" fill="#979493"/><path d="M219.8 156.9c-4.1-.4-6.9-2.9-9-6.2-.8-1.3-1.4-2.8-2.2-4.2-.4-.4-.3-1.1-.7-1.5 0-.2-.1-.5-.1-.7-.4-.4-.2-1.1-.7-1.5 0-.2 0-.5-.1-.7-.4-.4-.2-1.1-.6-1.5 0-.2 0-.5-.1-.7-1.9-3.1-2.2-6.4-1.5-9.8.4-1.8 1-3.5 2.9-4.4 2.7-2.3 3.4-2.4 6.2-.8 3.2 1.8 5.3 4.7 7 7.9 2.5 4.7 4.6 9.5 6.2 14.6 1.8 2.9 1 5.5-1 7.8-1.5 1.7-3.5 3.2-6.3 1.7Z" fill="#747271"/><path d="M352.9 136.8c1.1-.8 1.3-2.1 1.7-3.2.9-2.4 2.3-4.3 4.2-6 2.5-2.3 5.3-2.5 8.3-1.5 2.9 1 4 3.6 4.4 6.4.3 2.3.1 4.6-.6 6.9-1.7 5.4-3 10.9-5.2 16.2-2.5 6-6.9 7-11.8 2.7l-.9-.6c-.5-.5-.7-1.1-.6-1.7 1.1-6.4 1.1-12.8.5-19.2Z" fill="#979493"/><path d="M419.3 37.1c.6.3 1.1.8 1.3 1.5 0 2 .1 3.9.5 5.9.7 3.2-.1 6.4-.8 9.5-1 4.9-3 9.4-5.4 13.8-.8 1.4-1.8 2.7-3.1 3.7-2.9 2.3-6.4 1.6-8.3-1.5-.8-1.3-1.5-2.6-1.6-4.1-.6-8.3 1-16.1 6.4-22.6 2.5-3 5.4-5.5 9.6-5.5.5-.1 1-.5 1.4-.7Z" fill="#747271"/><path d="M521.7 222.3c.2-3.7.9-7.4.8-11.2.6.2.9 1.8 1.8.1 1.6-3.1 3.7-5.8 5.8-8.6 1.9-2.7 4.5-4.6 7.7-5.4 5.6-1.5 10.4 3.3 9 9-.3 1.3-.8 2.6-1.4 3.8-2.7 5-5.8 9.6-9.8 13.8-3.5 3.6-9.1 4.3-11.8-1.4-.8-1.5-1.3-.9-2.1-.1ZM326.9 168.7c-2.2 0-4.5 0-6.7.1-4.1-4.3-5.4-9.4-5.3-15.2.1-3.8.3-7.6 1.6-11.3.9-2.6 2.4-4.9 4.5-6.6 3.1-2.5 6.1-2.2 8.5 1.2 1.6 2.2 2.4 4.9 2.5 7.6.4 7.8-1 15.2-4.5 22.2-.2.6-.6 1.2-.6 2Z" fill="#979493"/><path d="M550.7 269.9c3.6 4.5 3 9-1.7 12.3-.5.4-1.1.6-1.6.9-4.3 2.2-9.1 3.1-13.6 4.5-3.1.9-6.5.1-9.1-1.9-4.9-3.7-4.4-9.9.5-13.4 2.1-1.4 4.6-1.8 6.9-2.5.4-.4 1.1-.2 1.5-.7 3-1.8 6.4-2.3 9.8-2.5 3-.1 5.6.7 7.3 3.3Z" fill="#747271"/><path d="M104.2 327.9c3.5-.4 7 .4 9.6 3.6 1.7 2.1 1.7 5.7-.2 7.8-1 1.1-2.2 2-3.6 2.6-6.4 3.1-13.1 4.8-20.3 3.9-2.6-.3-5-1.2-7.1-2.7-3.1-2.3-3.3-4-.8-7 2.3-2.8 5.5-4.2 8.7-5.5 4.2-1.8 8.7-2.9 13.7-2.7Z" fill="#979493"/><path d="M627.3 525c.6 1.1 1.2 2.1 1.7 3.2 2.1 4.9-.1 8.2-6.1 9.4-1.5.5-3 .5-4.5 0h-.7c-.6-.7-1.6-.1-2.3-.7-.2 0-.5-.1-.7-.1-.6-.7-1.6-.1-2.2-.7-1.4-.9-3.5.4-4.5-1.5-.2 0-.4-.1-.7-.1-.4-.4-1.1-.3-1.5-.7-3.1-1.3-5.6-3.1-7.4-6-3.5-6.8 2.5-12.2 7.9-12 6.6.3 12.8 2.6 18.5 5.9.9.5 1.3 1.5 1.8 2.3.2.5.5.7.7 1ZM429.6 144.2c0 .5-.1 1-.1 1.4-.1 6.1-2.9 11.3-5.2 16.7-.6 1.4-1.7 2-2.9 2.7-4 2.4-8.1-.6-9-4.5-.9-3.7-.3-7.1.2-10.6.7-4.8 1.6-9.5 4-13.8 1.4-2.4 3.2-4.4 5.7-5.7 2.9-1.5 5.2-.8 6.7 2.2 1.5 2.7 1.5 5.7 1.4 8.7-.9.8-.2 2-.8 2.9ZM558.9 341.3c-2.5.1-4.8 1-7.4.8-1.6-.1-3.2-.4-4.7-.9-2.7-1-4.7-2.8-5-5.9-.4-3.3 1.2-5.7 3.9-7.4 3.3-2.2 7.1-2.8 10.9-3.4 5.9-.9 11.8-.9 17.6.8 3.5 1 3.8 1.7 1.8 4.9-1.5 2.4-3.7 4.3-5.9 6.1-2.8 3.6-6.8 4.7-11.2 5ZM393.8 98.9c.1 1.1-.4 2.2-.7 3.2-1.3 3.8-3.7 5.8-7.2 5.7-3.2 0-6.4-2.4-7.5-5.7-.4-1.3-.9-2.6-.9-3.9.2-7 .6-14 3.7-20.5.7-1.5 1.6-2.7 2.9-3.8 1.9-1.6 3.4-1.6 5.2.1 1.9 1.7 3.1 3.8 3.7 6.3 2.3 4.3 2.8 8.7 1.5 13.4v.7c-.9 1.4.2 3.1-.7 4.5Z" fill="#747271"/><path d="M109.2 236.4c-1.2 0-2.4-.1-3.6-.5-4.3-1.3-8.3-3.2-12.4-4.8-1.8-.7-3.2-1.9-4.3-3.4-1.9-2.4-2.5-5.3-1.1-7.9 1.4-2.5 3.4-4.6 6.6-4.9.7-.1 1.5-.1 2.2 0 7.1 1.4 14 3.4 18.9 9.1 1.7 2 2.8 4.4 2.1 7.2-1 3.5-3.8 5.3-8.4 5.2Z" fill="#979493"/><path d="M581.2 401.5c4.3.3 8.2 1.7 11.9 3.8 2.3 1.4 2.6 2.3.9 4.4-3.9 5-9 8-15.3 8.8-1.8.3-3.7.5-5.5.7-4.9.6-8.8-1.5-12.1-5.1-2.3-4-1.3-8.7 3-10.9 5.4-2.8 11.2-3.7 17.1-1.7ZM613.2 479.6c-2.8-.8-5.7-1.5-8.5-2.5-3-1.1-5.8-2.6-7.3-5.9-2-4.7 0-9 4.9-10.4 2.4-.7 4.8-.7 7.3 0 4.6 1.4 9.3 2.3 13.4 5 2.9 1.9 5 4.4 5.8 7.8 1.3 2.9-.7 4.2-2.7 5.2-4.1 2.2-8.4 3.5-12.9.8Z" fill="#747271"/><path d="M554.4 293.7c5.4-.6 6.6 4.3 5.7 7.9a18.9 18.9 0 0 1-7.2 10.9c-1.5 1.1-2.8 2.5-4.2 3.6-3.1 2.4-6.3 4.5-10.5 2.8a8 8 0 0 1-4.7-9.6c1-3 2.6-5.5 5.2-7.5 2.2-1.6 4.2-3.5 6.3-5.1 2.8-1.9 5.8-3.1 9.4-3Z" fill="#979493"/><path d="M535.1 168.7c-3.8 3.9-6.9 8.4-10.9 12.1-.8.8-1.6 1.5-2.6 2.1-4.2 2.6-9 .2-9.5-4.7-.3-2.5-.2-5 .8-7.3 2.9-6.8 7.5-11.8 14.8-14.1 1.6-.7 3.4-.5 5.1-.7 3.6-.5 6.6 3.1 5.8 6.7-.7 2.3-1.4 4.5-3.5 5.9ZM108.3 521.9c.5 0 1 .1 1.4.1.4.4 1.1.2 1.5.7 4.5 3.5 5.6 6.3 3.6 10.4-1 2-2.7 3.5-4.7 4.6-5.9 3.2-11.8 6-18.7 6.5-3.3.3-4-.1-4.9-4.4-1.6-3.9.7-6.7 2.7-9.4 3.1-4 7.1-6.7 12.2-7.8.6-.6 1.6-.1 2.3-.7.5 0 1-.1 1.4-.1 1.2-.3 2.2-.3 3.2.1ZM549 239.3c-1.3-.3-3-.4-4.6-1.2-3.8-2-4.1-6.7-.3-9.4 3.5-2.5 7.3-4.7 11.3-6.3 3.2-1.4 6.5-2.2 9.9-2.8 3.1-.5 6.2.3 9 1.4 2.7 1 3.1 2.9 1.2 5.2-4 4.8-8.9 8.1-14.7 10.3a53.6 53.6 0 0 1-11.8 2.8ZM317.2 104.1c.2 2.9-.5 5.6-.9 8.4a9.6 9.6 0 0 1-2.5 4.9c-2.6 2.8-6.4 3-9.3.5-2.3-2-3.7-4.6-3.8-7.7-.3-8.3 1.4-15.9 6.8-22.5 1.2-2.2 3.1-3.2 5.5-2.9 2.2.3 2.5 2.5 3 4.2 1.5 5 3.6 9.9 1.2 15.1ZM550.8 125.4c-.1 2.7-1.2 5.4-2.8 7.7-2 2.9-4.1 5.8-6.4 8.6-3.2 4-5.9 4.8-9.6 3.1-3.5-1.6-5.6-5.8-5-9.9.7-4.7 8.7-15.3 15.1-16.6 4.2-.8 7 .2 8.3 3.5.4 1.2.3 2.3.4 3.6ZM616.1 574.8c.2 6.2-1.8 8.1-8.1 8.2-5.3.1-9.4-2.9-13.7-5.2-1.5-.8-2.9-1.9-4.1-3.2-4.3-4.6-3.4-10.2 2-13.2 8.9-1.9 15.6 2.2 21.7 8.1 1.7 1.5 1.6 3.5 2.2 5.3ZM158.8 152.3c-3.6 1.6-6.5.3-9.1-2.1-3-2.6-4.8-6-6.2-9.6-1.4-3.6-2.7-7.2-2.9-11.1-.2-3.5.3-6.9 1.9-10.1 1.2-2.4 2.3-2.5 4.2-.5 4 4.5 7.4 9.3 9.9 14.7 3.6 3.9 4.9 8.6 5.4 13.7.1 2.5-.8 4.3-3.2 5ZM579 232.7c1.2-4.5 4.5-7.6 7.6-10.7 1.4-1.4 3.1-2.5 4.7-3.6 2.5-1.7 5.4-2.4 8.4-2.2 3.9.2 5.8 2.5 5.1 6.4-.6 3.2-1.9 6.2-4 8.6-3.7 4.2-7.5 8.2-12.8 10.4-2.4.4-4.8 1.2-7-.3-2.9-1.7-3.6-5.1-2-8.6ZM230.2 90.1c-.4-3.9.6-7.5 3-10.7 2.4-3.2 4.9-3.4 7.8-.7 2.4 2.3 3.8 5.2 4.5 8.4 1.1 4.8 1.4 9.7 1.8 14.7.2 3-.8 5.6-3.8 6.9-2.9 1.2-5.3.6-8-2-3.8-3.6-4.4-8.4-5.1-13.2-.3-1-.2-2.2-.2-3.4Z" fill="#747271"/><path d="M48 222.3c.4-.1.7-.3.8-.7.4 0 .7-.2.8-.7.4 0 .7-.2.8-.6.6-.1 1-.4 1.3-1 .4-.1.7-.3.8-.7.4-.1.7-.3.8-.7.4-.1.7-.3.8-.7.4-.1.7-.3.8-.7.4-.1.7-.3.8-.7.4-.1.7-.2.8-.6.4-.1.8-.3 1.2-.4 1.7.2 2.4.9 1.8 2.7-.8 2.7-2.3 4.9-4.3 6.8-2.6 2.4-5.3 4.7-8.1 7.1-4.8 4.1-9.3 8.4-13.1 13.5-1.3 1.8-1.3 2 .7 2.9 2.6 1.2 5.1 2.5 7.5 4 1.6 1 2.9 2.2 3.9 3.8 1.8 2.9 1.4 3.7-2 4.1-.7-.1-1.4-.1-2.1-.2-1.3-.8-2.8-1.3-4.3-1.6-.4-.6-.9-.7-1.5-.7-.4-.6-.9-.7-1.5-.7-.4-.6-.9-.7-1.5-.7-1.3-1-2.8-1.8-4.4-2.3-.5-.8-1.3-1.2-2.1-1.6-.1-.4-.3-.7-.7-.8-.1-.6-.3-1.1-.9-1.4v-4.3c.5-.3.7-.9.8-1.5.8-.6 1.3-1.3 1.5-2.2.4-.1.6-.4.6-.8.8-.5 1.3-1.2 1.6-2.1.4-.1.6-.4.7-.8.4-.1.6-.4.7-.8.4-.1.6-.4.7-.8 2.2-2.2 4.5-4.4 6.7-6.7.4-.1.7-.3.8-.7.4 0 .7-.3.8-.7.4-.1.7-.2.8-.6.6-.1 1-.4 1.3-1 .4 0 .7-.3.8-.7.4 0 .7-.2.8-.6.9-.3 1.6-.8 2.1-1.6.4 0 .7-.2.8-.6.6-.1 1.1-.4 1.4-.9Z" fill="#282828"/><path d="M294.1 50.5c-.7 4.6-1.3 9.2-2.2 13.8-.7 3.7-2.6 5.3-5.5 5.5-2.9.2-5.2-1.2-6.4-4.6-1.1-2.9-1.9-5.8-1.1-9 .7-2.7.3-5.6 1.1-8.4 1.7-5.9 4.7-10.8 10.4-13.7 3.9-.9 4.7-.3 4.9 3.5.2 4.4-.3 8.7-1.2 12.9Z" fill="#747271"/><path d="M207.8 125.5c-2.5 3.9-2.7 8.1-1.6 12.4.1.6.1 1.2.2 1.8-.7-.4-1.1-1.1-2.2-.9-6.4 1.1-10.2-2.6-13.1-7.5-.9-1.5-1.5-3.1-2.4-4.6-.8-1.3-1 .4-1.5.4-1.3-2.9-2.3-5.8-1.5-9 1.1-1 .8-2.5 1.3-3.7 1.6-3.9 5.1-5.5 8.9-3.7 3.4 1.5 5.7 4.1 7.5 7.3 1.4 2.5 2 5.6 4.4 7.5Z" fill="#979493"/><path d="M185.6 118.2c.8 2.9 1.8 5.8 1.5 9-1.6 4.5-5.1 5.8-9.2 3.5-4.7-2.6-7.6-6.8-9.5-11.7-.2-.3-.4-.6-.6-.8 0-.2-.1-.5-.1-.7-.4-.4-.2-1.1-.7-1.5-2.5-3.3-2.4-6.8-.7-10.5.1-1.9.7-3.6 1.5-5.3 1.1-2.1 1.7-2.2 3.5-.5 4.9 4.6 9.7 9.3 12.8 15.5.5.4.3 1.1.8 1.5.4.4.2 1.1.7 1.5Z" fill="#747271"/><path d="M579 232.7v2.6c.1 4.2 2.3 6.3 6.4 6.4h2.6c-.1.1-.2.3-.3.3-4-.3-5.1 2.8-6.5 5.7a36.5 36.5 0 0 1-7.2 9.8c-2.6 2.6-5.8 3.2-9.2 2.8-2.5-.3-4.8-3.1-5.1-5.6-.5-3.6 1.2-6.5 2.8-9.4 1.4-2.6 3.2-5 5.2-7.2 2.8-3.7 6.6-5.4 11.3-5.4ZM595.3 334.2c.1-1.9.9-4.2 2.2-6.1 4.3-6.6 9.8-11.7 17.6-13.9 1.9-.5 4-1.2 5.6.3 1.6 1.5.2 3.4-.3 4.9-.8 2.8-2 5.5-3.7 8-2.5 3.7-4.9 7.4-7.7 10.8-2.6 3.2-6 4.1-9.1 3-2.7-1-4.5-3.5-4.6-7Z" fill="#979493"/><path d="M463.1 159.2c-1 1.1-1.9 2.2-3 3.3-3.1 3-5.5 3.2-9 1.6-2.6-1.2-4.2-6.2-3.6-8.7.7-2.8 1.8-5.4 3.4-7.7 4-5.7 8.7-10.4 16.5-10.2 3.5.1 5 1.2 4.4 4.1-1.2 6.6-2.9 13.2-8.7 17.6Z" fill="#747271"/><path d="M103.4 274.4c-5.6-.3-11-1.1-15.2-5.5-2.2-2.3-2.9-4.9-1.9-7.8 1-2.9 3.6-4.3 6.3-4.5 7.4-.5 14.5 1.1 20.2 5.8 5.9 4.9 4.4 8.1-1.4 10.7-2.5 1.2-5.2 1.4-8 1.3ZM62.1 338.3c0 1 .9 1.4 1.5 2 1.8 1.9 2.6 4 1.7 6.7-1 3.5-3.1 6.3-5.9 8.4-3.7 2.7-7.5 5.2-12.1 6.3-2.2.5-4.6 1.3-6.3-.4-1.9-1.9-1.4-4.5-.8-7 .9-3.5 3.3-6 6.1-8.9-3.1-.2-5.5-1.3-7.4-3.3 2.1-1.7 4.8-.9 7.1-1.3 4.3-.7 8.6-1 12.7-2.5 1.3-.5 2.4-.8 3.4 0Z" fill="#979493"/><path d="M352.9 136.8c1.2 1.9 1.5 4 1.6 6.3.1 4.9-.4 9.8-1.5 14.5-.4 1.1-.9 2.3-1.3 3.4-1.2 3.2-3.4 4.8-6.3 4.7-2.8-.1-5.3-2-6.3-4.9-1.1-3.1-1.2-6.3-.9-9.5.4-3.7 1.3-7.3 2.8-10.7.3-.6.5-1.1.9-1.6 2.6-4.4 6.7-5.3 11-2.2Z" fill="#747271"/><path d="M40.2 408.2c-4.1.4-6.4-3.4-6-7.5.6-6.7 4.2-12 9.9-15.7 2.8-1.8 6-1.8 9-1.2 3.6.7 5.8 5.1 4.7 8.7-.3.8-.5 1.7-.9 2.4-3.1 4.7-7 8.6-11.6 11.8a8.28 8.28 0 0 1-5.1 1.5ZM317.2 104.1c.3-5.4-.5-10.6-2.3-15.6-1.3-3.4-1.6-3.6-5-1.9-.8.4-1.5.8-2.3 1.2 1.2-5.6 1.8-11.4 5.1-16.4 1.6-2.5 4-3.7 6.7-4.2 3.1-.7 7.2 3.2 7.4 6.8.2 3.1.2 6.1-.6 9.2-1.2 4.3-1.9 8.7-3.1 12.9-.9 3.3-2.2 6.6-5.9 8Z" fill="#979493"/><path d="M347 92.2c1.7-.9 2.5-3.1 4.8-3.2 1 1.5 1.2 3.2 1.2 4.9v15.4c-.6 3.3-1 6.6-1.8 9.8-1.1 4.7-3.1 6.2-7.1 5.9-3-.2-5.6-3.1-6-7-.6-7 .8-13.5 4.4-19.5 1.4-2.2 3-4.2 4.5-6.3ZM260.7 156.1c.9 6.6 2.3 13.1 2.2 19.8 0 1.2 0 2.5-.5 3.6-1.3 2.7-3.3 3.2-5.6 1.3-2.1-1.7-3.3-4-4.2-6.5-1.2-3.3-2.2-6.6-2.8-10-1.1-6.4-1.8-12.7.5-19 .8-2.2 1.7-4.4 4.5-4.9 2.8 2.2 3.5 5.5 4.4 8.6.5 2.4 1.2 4.7 1.5 7.1ZM207.9 105.6c-4.6-1.8-6.8-5.7-8.6-9.9-.5-1.1-.7-2.3-1.1-3.5-.6-.6 0-1.6-.7-2.2-2.9-5.9-1.4-15.6 3-19.3.9-1.3 1.8-3.2 3.5-2.8 1.8.4 1.3 2.6 1.8 4 1.8 5.8 3.7 11.5 5.1 17.3 2.2 2.9 2.7 6.3 3.5 9.7 1.2 5.8-.5 7.6-6.5 6.7Z" fill="#747271"/><path d="M601.2 440.2c2.7 1.9 5.6 3.2 9 3 1.9 3.9.8 8.2-3.2 11.6-3.7 3.1-7.8 5.6-12.6 6.6-3.5.8-7.8-1.1-9.5-4.2-1.6-2.9-.8-7.2 2-9.8 2.6-2.3 5.7-3.9 8.9-5.1 1.8-.6 3.9-.8 5.4-2.1ZM583.5 303.4c-.4.5-1 .7-1.6.7-2.9-.2-5.5.9-8.1 2.2 0-1.3-1-1.9-1.6-2.8-1.4-1.8-1.6-3.7-.8-5.9 2.9-7.4 8.1-12.9 14-17.9 3-2.6 6.4-4.6 10.1-6.2.8-.3 1.6-1 2.4-.3.8.7.4 1.6.2 2.4-2 7.1-5.4 13.4-10.1 19.2-2.2 2.8-4.7 5.3-7.2 7.9.9 1 1.9.5 2.7.7ZM346.3 46.8c-.2-.4-.3-1.7-.9-.4-1.2 2.4-2.1 5-3.1 7.5-.5 1.3-.9 2.6-1.5 3.8-1.3 2.4-3.4 3.1-5.9 1.9-3-1.5-4.5-4.1-4.9-7.3-.3-2.9.1-5.6 1.3-8.3 3-6.8 7.3-12.2 14.7-14.5.7-.2 1.4-.4 2.1-.5 3.8-.3 4.3.6 2.8 4.1-.4 1-1.6 2.1-.3 3.3-1.1 3.6-1.4 7.6-4.3 10.4ZM71.3 292.2c2.6.1 5.6-.5 8.3 1.3 1.4.9 2.6 1.9 3.6 3.2 2.7 3.6 1.6 8.9-2.5 10.7-6.4 2.8-13.2 3.3-19.6 0-5.8-3-4.8-10.6.2-13.6 1.7-1 3.5-1.7 5.6-1.6 1.4.1 2.8 0 4.4 0Z" fill="#979493"/><path d="M572.3 611.9c-.6-1.1-1.1-2.2-1.7-3.3-1.2-2.4-.6-4.7 1-6.6 1.7-2.1 4.3-2.9 7-2.5 4 .6 7.4 2.6 10.5 5.1 1.6 1.3 3.1 2.8 4.5 4.4 1.7 2 2.7 4.3 2.7 7.1s-.9 4.8-3.8 5.5c-5.7 1.1-11 .7-14.8-4.6-.8-.7-1.6-1.4-2.3-2.1-.2-.3-.5-.5-.7-.7-.2-.3-.5-.5-.7-.7-.2-.3-.5-.5-.7-.8-.5-.2-.8-.5-1-.8Z" fill="#747271"/><path d="M144.8 197.9c-1.5.9-3.1 1.9-4.6 2.8-2.4-1.5-5.4-1.4-7.9-2.7-4-2.1-7.5-4.7-10.6-7.9-2-2.1-2.9-4.5-1.8-7.4 1.2-3.2 3.6-4.5 6.7-4.9 7.2-1 15.5 5.8 17.3 12.3.8 2.5.5 5.2.9 7.8Z" fill="#979493"/><path d="M262.2 83.3c.8-1.1 1.5-2.2 2.4-3.3 1.8-2.3 2.8-2 4.1.8 1.7 3.9 2.8 8 3 12.1.3 5.5 1.2 11 1 16.6-.2 5.9-2.4 7.5-7.9 5.2-.3-.1-.7-.2-1.1-.3-3.7-1.6-4.9-5-5.3-8.4-.7-6.4-.6-12.8 1.4-19.1.5-1.4 1.2-2.7 2.4-3.6ZM95.6 649.9c-.2 0-.5 0-.7-.1-.4-.4-1.1-.3-1.4-.8-.3-1-.6-1.9-.8-2.9-1.9-7-.2-13 5.2-17.9 1.5-1.8 2.7-3.7 4.7-5.1 4-2.9 6.1-3 10.2 0 3.8 3.5 2.7 10.5-2.2 14.2a33.3 33.3 0 0 1-10.4 10.4c-1.2 1.5-2.6 2.4-4.6 2.2Z" fill="#747271"/><path d="M446.6 88.4c-4.1 6-7.8 12.2-9.3 19.4-.2 1-.2 1.9-.4 2.9-.8.6-1.5 1.3-2.3 1.9-1.8 1.5-3.8 2.1-6.1 1.2a6.6 6.6 0 0 1-4.2-5.2c-.3-1.3.5-2.8-.8-3.8-.3-4 .6-7.6 3.7-10.4 2.1-.6 2.5-2.7 3.5-4.1 1.8-2.7 4.3-4.3 7.2-5.5 3.8-1.5 5.8-.7 7.9 2.9.2.2.5.5.8.7ZM615.4 424.6c-1.9 1.2-4.2.9-6.3 1.4-4.1.9-7.7 2.4-10 6-4.5-3.7-5.2-8.4-2-13.3 4-6.1 10-9 16.9-10.4 2.8-.5 5.6.3 8 2.1 1.4 1 1.7 2.2.9 3.9-1.8 3.5-3.6 7.1-7.2 9.2-.5.2-.8.6-.3 1.1ZM561.1 565.9c-1-2.7-2-5.5-2.9-8.2.1-5.7 4.1-8.9 7.8-12.3 5.2.5 10.3-.1 15.1-2.4.8-.4 1.6-.6 2.5-.1 3.7 5.2 2.3 8.6-1.2 12.6-3.1 3.5-7.1 6.1-11 8.6a7.84 7.84 0 0 1-8.1.3c-2.2-1.2-2.1.3-2.2 1.5ZM613.2 479.6c3.9.9 7.8.6 11.5-1 2.2-.9 4.2-2.2 4.2-5 .2.1.4.3.7.3 4.4 1.4 4.9 2.6 3.1 6.9-2.4 5.8-6.7 9.9-11.7 13.4-2.4 1.7-4.8 3.4-7.6 4.6-.9.4-1.8.8-2.8.8-5 .3-7.7-3.3-5.6-7.9 1.7-3.9 4.4-7.1 8-9.5 1.1-.7 1.7-1.5.2-2.6Z" fill="#979493"/><path d="M502.3 137.5c.9-5.3 3.2-10.1 6.3-14.5 1.8-2.5 4.3-4.1 7.1-5.1 2.6-1 4.3-.1 4.9 2.7 1 4.4-.3 8.5-1.9 12.6-.7 1.7-1.8 3.2-2.2 5.1-.8 3-2.2 5.7-3.8 8.3-2.3 3.6-6.5 4.1-9.3.9-2-2.4-3.3-5.2-1.8-8.4.5-.5.4-1.2.7-1.6ZM239.1 34.9c1.9-2.6 4.1-4.8 6.7-6.7.7 1.1 1.7.8 2.7.7 2.1-.2 3.2.9 3.8 2.7 1.4 3.7 1.4 7.5.6 11.2-.6 3.1-1.7 6.1-2.6 9.2-.6.6-.3 1.4-.5 2.1-.8 3.4-2.9 5.8-5.4 5.8-3.3 0-5.2-1.8-6-5-2.3-6.2-1.7-12.2.9-18.2.3-.6.7-1.3-.2-1.8Z" fill="#747271"/><path d="M553.6 439.4c1.2-1.9 2.4-3.7 3.1-5.8 1.3 0 1.9-1 2.8-1.6 3.6-2.9 7.5-5.1 12.1-6.2 4.9-1.1 8.3 2.7 7.1 6.9-2 7-6.4 11.9-13.2 14.4-6 2.2-9.8-.2-11-6.4-.2-.7-.5-1-.9-1.3Z" fill="#979493"/><path d="M162.5 697.5c-1.2 3.6-3 7-5.1 10.3-1.2 1.8-2.8 3.1-4.7 4.2-2.6 1.5-4.5 1.1-6.4-1.3-1.9-2.4-2.6-5.3-2.4-8.4.5-5.7 2-10.9 7-14.4 1.5-1 3.1-1.6 4.9-1.5 5.6-.8 9.4 3.7 7.5 9-.7.5-.1 1.5-.8 2.1ZM583.5 542.8c-4.1 1.8-8.1 3.8-12.8 3.7-1.7 0-3.4-.4-5-.8-3.7-1-5.2-4.4-3.2-7.7 1-1.7 2.5-3 4.1-4.1 3.4-2.3 6.9-4.6 11.1-5.2 3.1-.7 6-2.2 9.3-1.1 3.8 1.2 5 3.5 3.5 7.3-1.2 3.1-3.5 5.2-6.1 7.1-.5.3-.7.5-.9.8ZM346.3 46.8c1-.8.8-2 1-3 .5-2.8 1.9-5.2 3.4-7.5.8-.9 1.6-1.9 2.5-2.7 2.2-1.9 3.3-1.7 4.3 1.1.9 2.8 1.6 5.7 1.5 8.7v18.2c-.4 3.2-2.2 4.9-5.3 5.3-4.3-.4-6.2-3.3-7.3-6.9-1-3.2-1.2-6.5-.4-9.9.2-1 .2-2.2.3-3.3ZM114.6 177c-1 0-2-.1-2.9-.6-5.8-2.9-10.5-7-13.2-13.1-2.2-4.9.8-9.2 6.1-9 5.8.2 15.6 7.4 16.8 13 1 5.2-1.9 9.7-6.8 9.7ZM43.5 382.9c-2.1 0-4.2.1-6.3 0-3.3-.1-4.1-1.4-2.9-4.6 1.8-4.6 5-7.9 9-10.6 3.5-2.3 7-4.7 11.6-4.3 4.8.4 7.8 4.6 6.5 9.1-.3 1.1-1 2-1.8 2.8-3 3.1-6.7 5-10.9 6.1-.5.3-1.1.2-1.5.6-.2 0-.5 0-.7.1-.9.8-2.1 0-3 .8ZM114.2 558.4c3.1 1.1 5.7 2.7 5.9 6.3.2 3.6-2 5.9-4.7 7.8-5.9 4.3-12.7 6.4-19.7 8-2.3.5-3.1-.4-2.7-2.8.1-.7.3-1.4.4-2.2 1.6-8.4 7.8-12.7 14.5-16.7 2-1 4.1-1.7 6.3-.4ZM101.6 609.8c-3.9 4.4-9 6.7-14.5 8-1.5.4-3.3.6-4.1-1.4-3.5-8 1.6-19 9.7-20.9h.7c.7-.6 1.6 0 2.3-.7h1.5c.9.8 2.1-.1 3 .7.5.3 1 .5 1.5.8 5.3 3.4 5.3 9.8-.1 13.5ZM71.9 287.7c-4.7.4-9-.8-13.4-1.9-.7-.2-1.4-.4-2.1-.7-1.7-.9-1.8-1.9-.2-3 3.6-2.4 7.3-4.6 11.3-6.3 4.5-2 9.3-2.5 14.1-2.3 1.3.1 2.5.2 3.6.9 4 2.2 4.4 6.9.8 9.8-2.9 2.3-6.4 3.2-10 3.6-1.3.1-2.8-.1-4.1-.1Z" fill="#747271"/><path d="M207.9 105.6c6.1-.1 6.8-1.1 5.3-7.2-.8-3.1-1.5-6.2-2.2-9.3.5.2 1.2.6 1.4-.3.5-1.9 1.7-3.3 3-4.6 1.2-1.2 2.3-1.2 3.5-.1 1.7 1.5 2.9 3.4 3.6 5.5 1 3 1.9 6.1 1.7 9.4-.2 4.2.4 8.4-.7 12.5-.7 2.6-2.2 4.4-4.9 5-2.3.4-4.5-1-5.9-3.6-.6-1.1-1.1-2.2-1.3-3.4-.3-2.1-1.5-3.3-3.5-3.9ZM41 465.9c-1.9-3.5-1.6-7.4-.8-11 1.6-7 5.6-12.6 11.7-16.5 2.8-1.8 5.9-1.7 8.9-.3 2.9 1.4 3.7 4.6 1.7 6.7-6.5 6.6-12.5 13.8-19.3 20.1-.6.4-1 1.1-2.2 1ZM373.7 59.8c-.2-1.4.3-2.9.9-4.1 2.8-5.6 6.7-10.3 11.9-13.9 2-1.4 4.2-2 6.4-2.7 1.6-.5 2.5.3 2.2 1.8-1.5 7.3-3.7 14.3-7.7 20.7-.8 1.2-2 2.2-3 3.2-2.5 2.3-4.2 2.6-7 1.3-3-1.4-3.7-2.6-3.7-6.3ZM219.8 156.9c5.2-.4 7.4-2.7 7.5-7.9v-1.8c1.9.1 2.6 1.6 3.4 3.1 2.6 5 3.5 10.5 4.9 15.8.8 3.3 1.1 6.6-.1 9.8-1.1 3.1-2.1 3.8-5.3 3.2-2.3-.4-4.4-1.5-5.8-3.6-2.5-3.5-3.8-7.4-3.8-11.8-.1-2.2.5-4.6-.8-6.8Z" fill="#979493"/><path d="M199 166.5c8.9 6 14.4 14.6 18.8 24.2.8 1.7.9 3.3-.4 4.8-1.4 1.6-3.2 1.7-5.1 1.3-1.8-.4-2.9-1.9-4.3-2.8-7.5-6-11.8-13.8-13.2-23.2-.3-1.9-.4-4.6 2.8-5.1.3.5 1 .4 1.4.8ZM76.2 414.1c2.9-.9 5.6-.9 8.3.8 5.1 4.6 4.8 10-.7 13.9-5.6 3.9-11.9 4.5-18.4 4-1.5-.1-2.2-.9-2-2.5.2-1.9 1-3.6 1.8-5.2 2.6-4.8 5.9-8.8 11-11ZM560.3 584.4c1.9-4.8 2.6-9.7 1.5-14.8 1.3.1 2.4-.6 3.5-1 4.6-1.6 9.3-2 14.1-.5 1.1.3 2 .8 2.9 1.5 2.8 2.2 3 3 1.9 6.6-2.7 6.7-8.5 8.6-14.9 9.8-3.3.7-6.4 1-9-1.6ZM109.7 664.8c1.2-5.4 2.9-10.7 6.4-15.2 1.3-1.7 3-3 4.9-3.8 4-1.6 7.5 1.1 7.4 5.3-.1 1.5-.6 2.9-1.3 4.2-2.7 5.8-5.7 11.5-9.3 16.8-1 2-2 4.4-4.6 4-2.5-.4-3-2.9-3.8-5-.8-2.1 0-4.2.3-6.3Z" fill="#747271"/><path d="M86 513.1c-.5 0-1.6.1-2.7 0-2.3-.3-4.5-1-5.3-3.4-.8-2.4 0-4.6 1.8-6.4 1.3-1.2 2.7-2.2 4.3-2.8 4-1.6 8.3-2.3 12.5-2.9 2.9-.4 5.6.5 8.1 1.9 2 1.2 2.4 2.9 1.4 5.1-.5 1.2-1.3 2.2-2.4 2.8-5.2 3-10.7 5.9-17.7 5.7ZM125.3 149.6c.1-1.5 0-2.9.6-4.4 1.7-3.6 4.4-4.3 7.3-1.5 1.3 1.2 2.3 2.6 3.3 4 3.2 4.1 6.4 8.1 9.4 12.4 3.2 4.5 2.8 5.1-2.3 6.7-3.5 1.1-6.8-.3-9.5-1.9-5.5-3.5-8.9-8.5-8.8-15.3ZM92.7 460.3c.7 1 1.8.5 2.8.8 4.3 1.1 5.5 3.9 3.3 7.7-1.9 3.3-4.9 5.5-7.9 7.7a43 43 0 0 1-12.4 6.4c-2.9 1-3.6.4-3.6-2.6.1-7.1 3.8-12.1 9.4-15.9 1.9-1.3 4-2.3 6.2-3 0 0 0-.3-.1-.3-.2-.1-.5-.2-.7-.2.6-1.8 1.7-1.4 3-.6Z" fill="#979493"/><path d="M166.3 735.3c0-.2-.1-.4-.2-.6 1-2.3 2-2.8 4.1-2 1.8.7 3.1 2 4.2 3.5 2.3 3.5 4.5 7.1 6.7 10.6.8 1.2 1.6 2.5 2.6 3.6 2.5 2.8 3.8 2.7 6.2-.3.7-.9 1.3-1.8 2-2.7.8-1.1 1.7-2.1 2.9-2.9 2.6-1.6 4.6-.6 4.9 2.4.1.6 0 1.2 0 1.8-.1.4-.1.9-.2 1.3-.6.4-.7.9-.7 1.5-.6.3-.7.8-.8 1.4-.8.6-1.2 1.3-1.5 2.2-.4.1-.6.4-.7.8-.9.6-1.7 1.3-2.3 2.1-1.1.3-2.1.8-2.9 1.5-2.4.3-4.9.4-7.3-.1-.3-.5-.9-.7-1.5-.8-1.3-1.2-2.6-2.4-3.8-3.6 0-.4-.2-.7-.6-.8-.2-.9-.7-1.7-1.5-2.3-.1-.6-.2-1.1-.8-1.4 0-.6-.2-1.1-.8-1.5 0-.6-.2-1.2-.7-1.5 0-.6-.1-1.2-.7-1.5 0-.6-.1-1.2-.7-1.5-.1-.8-.2-1.6-.9-2.1 0-.6-.1-1.2-.7-1.5-.8-2-1.4-4.6-4.3-5.6Z" fill="#54443D"/><path d="M110.5 637.3c1.3-1.8 2.1-3.8 2.9-5.8 1.1-2.9 1.1-5.7-.7-8.3 1.9.3 3.1-1.3 4.6-2 1.2-.5 2.4-1.2 3.6-1.8 2.2.7 4.4.8 6.5-.3.9-.5 1.9-1 3.1-.5.9.7 1.7 1.4 2.6 2 2.9 2.1 3.5 4.8 1.4 7.6-4.4 5.7-10.4 8.9-17.3 10.4-2.3.6-4.4-1-6.7-1.3ZM158.8 152.3c2.4-2.3 2.5-4.8 1.8-8-.8-3.8-3-6.9-4-10.5.4-.1.8-.1 1.1-.2 5.1-2.1 6.7-1.7 10.4 2.3 3 3.3 4.6 7.3 5.6 11.6.6 2.5 1 5 .9 7.7 0 2.2-.5 4.1-2.5 5-2.1 1-4.4.8-6.3-.7-1.8-1.3-3.4-2.9-4.6-4.8-.7-1-1.4-1.8-2.4-2.4Z" fill="#979493"/><path d="M47.2 481.9h-1.4c-.5.3-1.1.2-1.6.6-2.7-.4-3.8-1.6-3.4-4 .8-4.8 2.8-8.8 6.8-11.8 2.8-2.1 5.5-4.2 8.9-5.2 1-.3 1.9-.5 2.9-.5 4.9 0 7.1 3.1 5.7 8.2-2.1 5.7-11.6 12.4-17.9 12.7Z" fill="#747271"/><path d="M558.9 341.3c3.9-1.4 7.8-2.7 11.2-5.2 1 1.2 2.3.6 3.5.7 2.6.3 3.4 1.6 2.7 4-2.4 7.6-7.4 13-14.3 16.7-4 2.1-7.4.7-9.1-3.2-.4-1-.5-1.8-.2-2.8 1.1-3.9 3.3-6.8 6.7-9 1-.7.4-1.1-.5-1.2ZM394.6 160.6c-.4-7.1.3-14.2.7-21.2.2-2.7-.3-5.4-1.5-7.8 1.4-.8 2.8-1.6 4.1-2.4 1.7-1.1 3.6-1.3 5.6-1.3 2 0 3.4 1.1 4 2.7.8 2.3 1.4 4.6.7 7.2-1 3.7-2.4 7.2-4.5 10.4-1.7 2.6-2.7 5.5-4.4 8.1a9.84 9.84 0 0 1-4.7 4.3ZM47.2 481.9c2.9-1.4 6-2.5 8.8-4.3 3.5-2.3 6.5-5.1 9.1-8.4 0 .5-.1 1.1.2 1.5 3 4.4.8 8.1-1.7 11.5-3.5 5-7.9 9.1-12.8 12.7-2.1 1.5-4.2 3-6.1 4.8-.6.5-1.2.9-2 .5-.6-.4-.6-1-.6-1.6-.6-6.3 1.8-11.7 5.1-16.7Z" fill="#979493"/><path d="M511.2 79.5c2.3 3.2 4 6.8 6.8 9.7-1.2 0-1.3.8-1.5 1.7-.8 3.5-1.7 6.9-3.3 10.1-.3.7-.7 1.3-1 2-2.7 4.7-5.5 5.2-9.7 1.7-3.2-3.4-3.6-8.6-.8-13.3.8-1.8 1.5-3.6 2.3-5.3 1.5-3.1 3.6-5.8 7.2-6.6ZM427.2 94.4c-1.6 3.3-2.6 6.9-3.7 10.4-.5.4-.3 1.1-.7 1.5l-.9 2.4c-1.7 4-5.4 4.7-8.5 1.7-.4-.3-.6-.7-1-1.1-1.2-.5-1.5-1.5-1.6-2.7-1.2-7.7 4.7-18.9 11.8-22.3.8-.4 1.6-.6 2.5-.3h1.1c2.6.1 2.9.5 2.6 3.1-.2 1.2-.5 2.4-.7 3.6-.7.6-.1 1.6-.7 2.3-.1.4-.1.9-.2 1.4Z" fill="#747271"/><path d="M101.6 609.8c1.1-1.9 2.8-3.3 3-5.8.3-3.2-1.1-5.5-3.1-7.6 2.3 0 4.1-1.5 6.3-2.1 3-.8 5.9-1.9 9-1.7 1.4 0 2.7.4 4 .9 3 1.2 4 3.8 3.1 6.9-1.7 5.8-6.2 7.8-11.4 9.4-3.7 1.2-7.3 0-10.9 0ZM577.5 528.8c-3.3 2.2-7.4 3.2-10.5 5.9-2-.1-3.9-.5-5.2-2.2 1-4.2.8-8.4.1-12.6.4.6.8 1.2 1.2 1.9 3.9-5.7 9.6-8.3 16-9.8 2.2-.5 2.5-.2 2.7 2.1.4 4.7-1.4 8.7-4 12.4-.4.6-1.6 1.2-.3 2.3ZM54 523.5a34.2 34.2 0 0 1-7.9 8.2c-2.3 1.7-3.3 1.7-5.1-.7-2.5-3.4-2.5-7.3-1.5-11a32.2 32.2 0 0 1 8.8-14.4c1.6-1.5 3.4-2.8 5.6-3.4 2.5-.7 5.1.2 5.7 2.6.5 1.9 1.4 2.4 3.1 2.2.9-.1 1.8-.1 2.4.7-.9 1.1-2.2.9-3.4 1-5.7.6-9.7 3.9-12.6 8.6-2 3.3-1.3 4.4 2.5 5.1.9.3 1.8.3 2.4 1.1Z" fill="#979493"/><path d="M618.7 394.1c-.6 0-1.2.1-1.8 0-2.2-.3-4.1-1.4-4.9-3.5-.9-2.3-.6-4.9 1.4-6.5 5.3-4.4 11.2-7 18.4-5.5.8.2 1.7.5 2.4.8 2.7 1.3 3.5 4 1.7 6.4-1.1 1.5-2.4 2.9-3.9 3.9-4.1 2.6-8.5 4.1-13.3 4.4ZM71.7 527.9c3.9-.4 6.9 1.9 8 5.5.9 2.9-.4 6.5-3.2 8.5-3.1 2.3-6.7 3.8-10.3 5.1-4.1 1.4-7.3-1-6.9-5.4.5-5.5 3.2-9.8 8-12.7 1.3-.8 2.9-1.3 4.4-1ZM62.1 338.3c-7.5 2.5-15.1 4-23 3.7a3 3 0 0 1 .2-3.4c5.5-7.3 11.9-13.1 21.8-13.1 2.7 0 4.8.8 6.2 3.2 1.2 4.4.8 5.4-3.7 8.9-.4.4-1.1.2-1.5.7Z" fill="#747271"/><path d="M442.1 66.9c-.3-3.9 2.5-6.5 4.6-9.3 1.9-2.5 4.5-4.2 7.3-5.6 1.4-.7 2.8-.9 4.3-.7 2.7.2 3.4 1.3 3 3.9-1 6.3-4.4 11.4-8 16.4-1.4 1.9-5.1 3-7 2.3-3.3-1.4-4.2-2.8-4.2-7ZM68 245.4c3.2-.4 6.1.6 8.8 2.1 1.6.9 2.8 2 3.5 3.7 1 2.4.4 4.8-1.9 6.1-3.7 2.1-7.6 3.2-12 2.4-2-.4-4.2-.2-6.1-1.4a7.1 7.1 0 0 1-2.9-2.8c-1.9-3.5-1-6.8 2.5-8.7 2.6-1.3 5.3-1.7 8.1-1.4ZM425 84c-7 3.4-11.2 9.1-13 16.6-.7 2.9-.8 5.9.4 8.7-1.1.6-2.3.8-3.6.8-4.7 0-7.5-3.4-6.5-8.1.6-2.8 1.4-5.5 2.9-8 2.4-4 4.8-8.1 8.2-11.4 1.6-1.6 3.5-2.3 5.5-2.8 1.9-.5 3.4.4 4.6 1.7.7.6 1.1 1.6 1.5 2.5Z" fill="#979493"/><path d="M102.3 358.5c-5.6 1.5-11.2 2.9-16.9 4-1.6.3-3.2.2-4.8.5-.9-.7-.9-1.5-.2-2.2 6.5-6.4 13.2-12.6 22.5-14.8 2-.5 3.9-.1 5.6 1.3 2.5 2 2.7 5.4.6 7.8-1.8 1.9-4.3 2.6-6.8 3.4ZM486.8 111.5c-1.3 2.5-2.3 5.2-4 7.5-1.3 1.7-2.7 2.8-5 2.3-2.2-.6-3.3-2.3-3.6-4.3-1.5-9.9 4.5-18.8 12.1-22.7 1.3-.6 2.8-1.6 3.5.8.3.5.3 1 0 1.6v2.2c1.3 4.7-.2 8.8-3 12.6ZM62.8 580.6l-1.1.3c-2.6.8-3.7 0-3.1-2.5.7-3.3 1.4-6.6 3.2-9.4 2.4-3.9 5.1-7.6 9.2-9.9 3.2-1.8 5.8-1.6 8 .6 2.2 2.3 2.8 6.5.7 9.2-4.4 5.7-9.7 10-16.9 11.7ZM566.4 640.9c-3-2.6-6.5-4.7-7.6-8.8-.1-2.3-1.3-4.5.1-6.8 2.6-4 8.2-4 11.1.1 2.6 2.2 5.3 4.5 7.1 7.5.9 1.6 1.8 3.2 1.9 5.2.2 2.5-.3 4.5-3.1 5.1-3.8 2.2-6.7 0-9.5-2.3Z" fill="#747271"/><path d="M501.7 139c-.1 2 .5 3.9 1.1 5.8.7 2.3 2.5 3.6 4.9 3.9 2.3.2 3.5-1.2 4.5-3.1 1.3-2.5 2.9-4.9 4.3-7.3.3 3.1-.9 5.9-2.1 8.5-2.1 4.5-5.1 8.4-8.5 12.1-1.1 1.2-2.5 2-4 2.6-2.6 1-5.2 1-7.3-1a7.5 7.5 0 0 1-2.2-7c.7-4.1 3.3-7.2 5.6-10.3 1.1-1.5 1.9-3.3 3.7-4.2ZM104.4 298.1c-3.7-.8-8.8-.7-12.5-4.7-3.1-3.4-2.2-7.4 2.2-8.5 6.8-1.8 13.2-.4 19 3.2 3.7 2.3 3.3 6.6-.6 8.5-2.1 1.1-4.5 1.7-8.1 1.5ZM607.9 534.7c1.5.4 3.2.4 4.5 1.5-.5 0-1 .1-2.2.2 3.5 1.8 6 3.7 8.2 6.1 1.4 1.5 2.2 3.3 2.7 5.2.5 2-.7 3.6-2.7 4.1-4.8 1.3-9.2.4-13.5-1.9-2.5-1.4-4.2-3.3-5.3-6-1.4-3.5 1.4-8.1 5.2-8.5 1.1-.1 2.3.3 3.1-.7ZM559.6 199.2c4.9-2.1 10-3.9 14.6-6.8 2-1.3 3.5-3.1 5.5-4.4-1.7 9.7-6.9 17.5-13.1 24.8-1.4 1.7-3.1 3-5.4 2.3-2.4-.7-3.8-2.9-3.8-5.8 0-3.1 1.3-5.7 2.9-8.2.8-1 .8-1.7-.7-1.9Z" fill="#979493"/><path d="M141.7 657.4c1-1.8 1.8-3.8 2.9-5.5 1.9-2.9 4-3.9 6.4-3.2 2.6.8 4 2.9 4.2 6.2.1 2.1-.1 4.2-.8 6.2-.6 5-3.3 8.5-7.4 11.2-.9.8-1.8 1.5-2.8 2.3-1 .8-2.1 1.2-3.1-.1-3.1-5.9-2.3-11.6.6-17.1Z" fill="#747271"/><path d="M197.5 165.8c-2.2 1.3-2.1 3.6-1.9 5.6.4 4 1.9 7.6 4 11 2.5 4.1 5.1 8.1 8.3 11.7-5.8.7-9.9-1.8-13.1-6.5-2.3-3.5-5.1-6.6-7-10.4-1.8-3.5-1.8-7.2-1.4-10.9.3-2.9 2-4 4.7-3.1 2.2.6 4.6.8 6.4 2.6Z" fill="#979493"/><path d="M28 426.8c-.8-1.1-.8-2.2-.2-3.5 2.4-6.2 6.7-10.5 13.1-12.5.9-.3 2-.4 2.9-.3 2.7.3 5.1 1.2 6.1 4 1 2.7.1 5.1-1.7 7.1-.7.8-2 1.1-2.4 2.2-5.5 3.7-11.3 5.4-17.8 3Z" fill="#747271"/><path d="M535.1 168.7c.8-1.9 1.6-3.8 2.3-5.8 1-3-.9-5.8-4.2-6.1-1.8-.1-3.7 0-5.5 0 .4-.5 1-.8 1.6-.7 1.7.1 2.7-.8 3.6-2.2 1.8-2.8 4-5.3 6.4-7.6 2-1.9 4.4-2.6 6.8-3.5.9-.3 1.7.3 2.4.6-.3 3-.1 5.8 3 7.4-1.3.5-1.6 1.8-2.2 2.9-1.8 3.7-3.9 7.1-6.3 10.3-2 2.6-4.4 4.6-7.9 4.7Z" fill="#979493"/><path d="M568.8 470.7c-1.4.1-3.3-.3-5-1.3-2.8-1.7-3.6-4.9-1.7-7.6.4-.6.9-1.2 1.5-1.6 4.9-3.1 10.2-4.9 16.1-3.6 4.9 1 5.9 4.1 2.7 8.1-3.3 4.1-7.7 5.9-13.6 6ZM321.6 41.5c-.2 4.4-1 8.8-1.7 13.2-.3 1.5-.4 2.9-.5 4.4 0 1.8-.8 3.2-2.5 3.8-1.9.6-3.6.5-5.1-1a10 10 0 0 1-2.7-6.7c-.2-5.2 1.1-10.1 3.8-14.5 1-1.7 2.4-3.2 4.2-4.1 2.6-1.3 4.3-.2 4.5 2.7v2.2Z" fill="#747271"/><path d="M564.1 490c-.2-1.3-.5-2.5-.7-3.8 3-3.5 6.2-6.6 10.4-8.6 1.8-.8 3.5-1.1 5.4-1 3.5.3 5.5 2.5 5.7 6 .2 3-1.3 5.4-2.2 8.1-1.4.9-2.9.3-4.3.3-3.8.1-7.2 1-10.3 3.4-.9.7-1.9 2.1-3.1 1.4-1.2-.7-.4-2.2-.6-3.4 0-.7.3-1.6-.3-2.4Z" fill="#979493"/><path d="M112.7 197c1.4.8 2.6 1.9 3.4 3.3 1.9 3 .5 6.4-3 7-1.8.3-3.6.1-5.5-.4-4.5-1.2-8.2-3.9-12-6.3-.3-.2-.6-.4-.8-.7-.8-.8-1.7-1.5-2.3-2.4-2.2-3.7-.7-6.7 3.6-6.7 6.3.1 12.1 1.5 16.6 6.2ZM564.1 490c1.4 1.6.2 3.6 1 5.6 5.1-4.7 10.8-7 17.6-4.9 4.9 4 4.4 8.1-1.2 11.1-3.9 2.1-8.1 2.6-12.5 2.4-1.9-.1-3.2-1.1-4.3-2.5-.5-.7-.6-1.6-1.5-2.1 1.3-3.1.8-6.4.9-9.6ZM130.6 618.7c-1.7.7-3.4 1.3-5.1 2.1-2 .9-3.5.6-4.5-1.4-.7-3.5-1.4-7-.1-10.6 1-3 3-5.1 5.8-6.4 2.8-1.4 5.4-.9 7.6 1 2.2 2 3.4 4.5 2.5 7.6-1 3.6-3.6 5.6-6.2 7.7Z" fill="#747271"/><path d="M421.3 165c2.2-2.5 3.3-5.6 4.5-8.7 1.3-3.5 2.4-7.1 3.6-10.6.1.9.5 1.3 1.5.8 1.7-.9 3.5-1.7 5.6-1.6 2.7.2 3.8 1 4.1 3.7.3 2.5-.1 4.9-1.4 7.1-1.7 2.8-3.7 5.5-6.2 7.7-3.1 2.7-6.3 4.4-10.3 2-.4-.2-.9-.3-1.4-.4ZM571.6 358.4c1.1 2.2 2.1 4.6 4.5 5.9-.8.6-.8 1.5-.7 2.4.3 2.6-.7 4.9-2.2 6.9-2.4 3.2-4.5 6.8-8.1 8.9-1 .6-1.9 1.2-3 1.3-.6-1.7.8-2.4 1.6-3.4 1.3-1.7 2.7-3.7 1.3-5.7-1.5-2.2-3.8-.7-5.7-.3-2.1.5-3.7 2.5-6.2 1.9.4-3.9 2.7-6.8 5.3-9.3 3.2-3.2 6.6-6.3 11.6-6.3 1.4-.1 1.5-1.1 1.6-2.3Z" fill="#979493"/><path d="M54 523.5c-1.6-.1-3.2 0-4.8-.3-2.3-.5-2.6-1.4-2-3.8 1.5-5.8 9.9-12.4 15.7-11.6.7.1 1.5 0 2.2 0 4.1 2.1 5 5.8 2.2 9.3-2.4 2.9-5.7 4.2-9.1 5.5-1.2.5-2.8.6-4.2.9ZM79 497.3c-2.4 0-3.2-1.2-1.9-2.8 4.2-5.6 8.9-10.6 15.7-12.9.8-.3 1.7-.5 2.5-.6 3.3-.3 5.9 1.3 6.7 4 .7 2.2-.6 4.8-3.3 6.4-5 2.9-10.5 4.1-16.1 5.2-1.3.3-2.7.5-3.6.7Z" fill="#747271"/><path d="M28 426.8c6.2.8 12-1 17.8-3 .1 2.4-1.1 4.4-2.6 6-5.2 5.3-10.3 10.7-16.1 15.4-1.7 1.4-2.9 1.1-3.4-1.2-.5-2.6-.1-5.1.5-7.7.7-3.4 1.6-6.7 3.8-9.5Z" fill="#979493"/><path d="M173.7 194c-3.9-1.2-8-.5-12-.8-1.6-3-3.4-6-4.8-9.1-1.4-2.9-2.4-5.9-1.2-9.3 1.2-3.5 2.6-4 5.6-1.7 3.4 2.7 5.5 6.4 7.9 9.8 2.4 3.3 4.3 6.9 4.5 11.1Z" fill="#747271"/><path d="M581.2 401.5c-4.2-.3-8.3.5-12.4.8-5.2.4-8.6 4.9-7.7 10 .1.6.1 1.2.1 1.8-4.9-1.5-6.6-5.1-4.5-9.6.6-1.4 1.5-2.5 2.5-3.6 3-3.2 6.8-5.3 10.4-7.6 2.6-1.6 5.7-1.7 8.6-1.4 2.3.2 4.1 2.8 3.5 5.2-.3 1.5-.6 2.9-.5 4.4Z" fill="#979493"/><path d="M92.7 460.3c-1.1 0-2.2-.4-3 .7-.7 0-1.5.1-2.2.1-.9.7-2.1-.1-3 .6-1.5.1-2.9.3-4.4.3-1.9.1-2.5-.9-1.5-2.5 2.1-3.4 4.5-6.7 7.4-9.5.5-.5 1-1.1 1.5-1.6 1.6-.5 3-1.4 4.4-2.2 2.7-.3 5.2.4 7 2.4 2.6 2.8 1.8 7.8-1.5 10-1.4.9-2.9 1.7-4.7 1.7Z" fill="#747271"/><path d="M262.2 83.3c-3.1 6.9-3.4 14.3-3 21.6.2 3.7 2.1 6.7 4.5 9.5-4.5.3-7.6-1.8-9.6-5.7-2.9-5.8-4-11.9-2.5-18.3 1.2-5.2 3.9-7.3 9.1-7.2.6 0 1 .1 1.5.1ZM166.2 105.5c0 3.5 0 7 .7 10.5-5.4 2.2-11.7-.7-14.4-5.8-1.7-3.2-3-6.5-.8-10.1 1.8-3 4.2-3.7 7-1.5 1.9 1.5 3.7 3.2 5.1 5.3.7.9 1.3 1.6 2.4 1.6ZM200.4 70.6c-2.5 3.8-2.9 8.2-3.6 12.5-.3 2.3 1 4.5.6 6.8-6.7 2.6-10-2.5-10.3-8.5-.2-5.5 1.7-10.4 6.3-13.8.5-.4 1.1-.6 1.6-.8 2.5-.9 2.9-.8 3.7 1.7.5.9.4 2 1.7 2.1ZM486.8 111.5c1.5-4.1 2.6-8.3 3-12.7 1.9-1.1 3.1-2.8 4.6-4.3 2.1-1.9 4.3-3.3 7.3-3.2 0 .6.1 1.3-.1 1.8-1.3 4-.9 7.8.9 11.5-2.5.2-2.8 2.5-3.8 4.1-.9 1.3-1.7 2.7-2.9 3.8-1.8 1.6-4 1.6-5.9.1-1-.6-1.6-2.1-3.1-1.1ZM62.8 580.6c2.7-1.6 5.5-3.2 8.2-4.8 2.8-1.7 4.9-4 7.2-6.3 1.4-1.4 1.8-3.1 1.8-5 .1-3.9-3.4-6.5-7.2-5.7-.6.1-1.2.3-1.8.4 1.7-2.9 4.5-3.2 7.5-2.9 2 .2 4.1 2.5 4.4 4.9.2 1.7.1 3.4-.4 5.1-1.7 5.4-3.9 10.6-6.5 15.7-1 2-2.4 3.7-3.9 5.4-1.8 2.1-3.4 2-5.3-.1-1.2-1.4-2.1-3.1-2.5-4.9-.1-1-.5-1.6-1.5-1.8Z" fill="#979493"/><path d="M93.9 319.7c-2.6-.7-5.4-.6-7.9-1.6-.7-.3-1.4-.7-1.5-1.5-.1-.9.6-1.2 1.3-1.6 6-3.4 12.5-5.8 19.2-7.7 1.4-.4 2.7-.2 3.9.5 1.9 1.1 2.5 2.9 1.7 5s-2.5 3.3-4.4 4.2c-3.9 1.7-8.1 2-12.3 2.7Z" fill="#747271"/><path d="M570 625.4c-1.2-.8-2.4-1.6-3.9-1.9-3.8-1-7.2 1.5-7.3 5.4v3.3c-.6-4.2-4.4-6-6.7-9 1.6-2.6 3.2-5.4 4.4-8.2 1 1.4 2.2.3 3-.1 3.3-1.5 6.7-1.4 10.2-1.3 2.8.1 4.4 2.1 3.7 5-.5 2.4-1.8 4.7-3.4 6.8ZM626.6 524.2c-5.4-4.2-12-5.6-18.4-7.3-2.7-.7-5.4.3-7.6 2.1-1.4 1.2-2.5 2.7-2.3 4.8.1 1.4 0 2.7.1 4.1-2.8-1.8-3.7-4.4-3.3-7.6.6-3.9 3.1-6 6.6-7.2 3.7-1.3 7.6-.7 11.4-.9 2.8-.1 5.4.5 7.9 1.5 1.8.8 3.4 1.8 4.6 3.5 1.4 2.3 2 4.5 1 7ZM452.6 107c1.7-3.5 3.4-6.9 5.1-10.4 1.2 0 2.1-.8 3.1-1.1 3-1 4.6-.4 6.1 2.3 1.7 3.2 2.4 6.4.9 9.8-1 2.2-2.3 4.2-4.9 4.5-2.9.4-5.7.1-7.5-2.7-.5-.7-.9-1.5-1.3-2.2-.4-.8-1-.3-1.5-.2ZM463.1 159.2c3.5-4.7 6.3-9.7 7.4-15.5.9-4.5 1-4.5-3.1-6.2 2.4-2.9 5.7-3.3 9.1-2.9 2.6.3 4.7 3.7 4.2 6.5-.2.8-.4 1.7-.8 2.5-2.3 5-5.6 9.3-9.7 12.9-2 1.9-4.7 1.8-7.1 2.7Z" fill="#979493"/><path d="M553 376.2c1.3-.7 2.6-1.4 4-2 1.2-.6 2.5-1.1 3.8-1.4 1.8-.4 4-1.1 5.1.7 1.2 1.8.7 4-.4 6-.9 1.6-2.7 2.5-3.5 4.2-.7.5-1.5.9-2.2 1.4-3.4 2.4-7 3.9-11.3 3-1-1.4-1.1-3-1.4-4.6 1-3.1 3.5-5.2 5.9-7.3Z" fill="#747271"/><path d="M191.5 721.1c-.2-1.5.9-3.4 2.1-5.1 1.6-2.2 5.4-3.1 7.6-2.1 2.4 1.1 4.1 4.3 3.6 7.1-.3 1.6-.5 3.1-.6 4.7-.3 4.9-4.3 6.9-8.4 4.2-3-1.7-4.3-4.6-4.3-8.8ZM560.3 584.4c8.1 3.3 19.6-1.3 23.9-8.1-1.3 8.5-6.9 13.6-13.8 17.7-1.5.9-3 1.7-4.8 1.7-4.7.1-6.9-2.9-5.2-7.2.3-.7.6-1.4.7-2.1.1-.8-.6-1-1.2-1.1-.1-.4.1-.7.4-.9ZM163.3 695.3c.3-5.2-2.6-8.6-7.5-9 2.5-2.1 4.9-4.4 8.3-5.1 1.7-.4 3.3-.9 5-.8 1.1 0 2.2.4 3.1-.7 1.8 1.9 3.6 3.8 5.4 5.8-1 .4-1.4 1.3-1.9 2.1-3 4.4-7.1 6.9-12.4 7.7Z" fill="#979493"/><path d="M478.5 59.5c1.9 1.3 3.9 2.5 5.8 3.8.8.5 1.6.6 2.4.6-1.7 2.5-1.3 5.5-2.1 8.2-.5 1.6-.9 3.4-1.8 4.8-1.1 1.8-2.6 2.9-4.9 2.7-2.2-.3-3.7-1.4-4.4-3.4-.6-1.7-.8-3.4-.5-5.4.9-4.4 3.2-7.8 5.5-11.3Z" fill="#747271"/><path d="M112.7 197c-3.8-1.8-7.4-3.9-11.5-4.8-2.2-.5-4.4-.3-6.6-.4-1.4-.1-1.9.7-2 2.1 0 1.3.3 2.4 1 3.5.5.8 1.3 1.5 1.3 2.6-4.7-1.1-7.6-3.9-8.7-8.6-.9-3.6 2.1-7 5.5-6.1 4.4 1.2 8.9 1.7 13.4 2.8l2.1.6c5 2.1 5.5 2.8 5.5 8.3Z" fill="#979493"/><path d="M66.8 240.1c-3.2.1-5.7 0-8-1-1.2-.5-2.2-1.1-3.1-2-1.4-1.5-1.5-2.6-.1-4.2 1.8-2 4.2-2.8 6.8-3.5 3.2-.8 6.2 0 9 1 2.6.9 4.1 3.7 3.6 5.8-.5 2.1-2.5 3.7-5.3 3.9-1.1.1-2.3 0-2.9 0ZM521 263.2c-2.4.4-4.6-.1-5.6-2.5s-.1-4.5 1.5-6.5c3.6-4.3 8.3-6.9 13.7-8.1 1.2-.7 2.3-.9 3.4.1 1.1 1.1.5 2.3 0 3.4a40 40 0 0 1-9.3 12.3c-1.2 1-2.6.7-3.7 1.3Z" fill="#747271"/><path d="M92.6 595.6c-2.3 1.7-4.8 3.2-6.5 5.7-3.2 4.6-4.4 9.6-3.1 15.2-2.9-2.1-4.7-4.9-5.6-8.3-1.4-5.6 2.6-14.7 7.5-16.7 3.7-1.5 5.9-.7 7.6 3.1.1.2.1.6.1 1ZM238.4 55c.6.8 1.2 1.6 1.9 2.3 3.3 3.2 6.4 2 7.9-1 .7-1.4 1.4-2.9 2.1-4.3.1 5.4-1.1 10.8-.8 16.2.1 2.4-1.8 4.7-3.8 4.9-2.1.2-4.2-.4-5.6-2.2-1.6-2-2.5-4.2-2.5-6.8 0-3.1 0-6.1.8-9.1Z" fill="#979493"/><path d="M85.4 231.8c6.5.5 11.8 3.6 16.7 7.8.4.3.7.7.9 1.2.7 1.2 1.4 2.5.4 3.8-.9 1.1-2.1 1.5-3.6 1.1-6.1-1.7-11.9-4-16.2-9l-.3-.3c-.8-1.1-2-2.2-1.5-3.5.5-1.7 2.3-.7 3.6-1.1ZM616.9 283.3h4.1c.9 0 1.8.1 2.2 1 .4 1-.4 1.6-1 2.2-3.7 3.5-8 5.7-13.1 6.5-1.8.3-3.5.8-5.5.1-1.5-.5-2.8-1-3.2-2.7-.3-1.7.5-2.7 1.9-3.7 3.8-2.5 8-3.1 12.3-3.5.9 0 1.6 0 2.3.1Z" fill="#747271"/><path d="M183.4 717.5c-2.4 1.5-3.9 4.1-6.3 5.6-5.2-4.8-3-13.9.5-17.4 3.8-3.7 7.5-3.2 10.2 1.3-2.9 3-3.2 6.9-4.4 10.5Z" fill="#979493"/><path d="M205.1 735.4c1-2.6.1-5.5 1.2-8.3.6-1.4 1.1-2.7 2.1-3.8 1.9-2 3.9-2.6 5.9-1.8 1.8.8 3.4 3.6 3.1 5.9-.2 1.7-.7 3.5-1.8 4.8-1.8 2.3-3.9 4.5-6.6 5.9-2.7 1.5-4 .6-3.9-2.7Z" fill="#757271"/><path d="M600 601.5c-2.5-.3-5.6-1.4-8.3-3.4a5.25 5.25 0 0 1-1.7-6.6c1-2.1 3.3-3.2 6-2.5 4 1 7.2 3.2 8.7 7.3 1.3 3.7.1 5.4-4.7 5.2ZM141.7 657.4c-1.3 5.6-2 11.3-.7 17.1-2.4.1-4.7-.4-6.8-1.2-5.7-2.3-5.3-8.2-2.6-11.3 1.9-2.2 4.3-3.3 7-3.8 1-.2 2.1-.3 3.1-.8ZM67.3 328.7c-3.2-3-7.1-2.9-10.8-1.9-7.4 1.9-12.7 6.9-17 13.1-.5.7-.4 1.4-.4 2.2-2.2-4.2-2.1-7.6.9-10.8 5.1-5.5 11.5-8.4 19-8.4 4-.2 6.9 1.8 8.3 5.8ZM114.2 558.4c-2.4 0-4.5.5-6.7 1.7-6.5 3.6-11.2 8.7-14.1 15.5-.5-1.5-1.2-3-1.5-4.5-.5-3.4.9-6.4 3.2-8.7 4-4.1 8.6-6.9 14.7-6.2 1.8.2 3.4.6 4.4 2.2ZM521 263.2c5.9-3.3 9.4-8.6 12.4-14.3 1.1-2.1.9-2.4-1.6-2.8-.4-.1-.7 0-1.1-.1 1.9-2.3 4.5-2.3 7.1-2.1 1.1.1 1.8.9 1.8 2 .1 1.5.1 2.9-.6 4.3-2.8 5.6-7.2 9.6-12.1 13.2-2.1 1.6-4 .3-5.9-.2ZM577.6 617.1c.2.1.5 0 .7.2 4.1 3.5 8.8 4.9 14.1 4.4-1.3 1.4-3.1.2-4.5 1 0 1.5.1 2.9 0 4.3-.2 2-1.7 3.1-3.6 2.7-2.7-.6-5.1-1.8-6.8-4.1-1.6-2.1-2.2-4.4-.5-6.8.2-.5.4-1.1.6-1.7ZM101.5 522.7c-3.5 2.1-7.2 3.7-10.1 6.7-2.9 3-4.5 6.4-4.9 10.5-5.2-2.5-6-6.7-2.2-10.8 1.4-1.5 2.8-2.8 4.7-3.5 4.1-1.5 8.1-3.1 12.5-2.9ZM566.4 640.9c3.1 1.1 6.1 2.8 9.6 2.3.1 1.1.6 1.8 1.5 2.3 1 .5 1.8 1.2 2.2 2.2-2.3.6-3.3 2.4-4.1 4.4-.4 1-.1 2.3-1.1 3.1-.1-1-.2-1.9-1.2-2.5-2.4-1.6-3.7-4.3-5.4-6.5-1.1-1.7-.5-3.7-1.5-5.3ZM616.1 574.8c-1.9-5.2-6.2-7.9-10.7-10.7-4.1-2.5-8.4-3.1-13.1-2.8.5-.6 1.2-.8 2-.7 2.7.1 5.4-.1 7.9-1.2 1.9-.8 3.7.2 5.2 1 2.4 1.3 4.5 2.9 6.3 4.9 2.5 2.9 2.8 6.1 2.4 9.5Z" fill="#979493"/><path d="M183.4 717.5c0-1.1-.1-2.2 0-3.3.1-3.3 1.3-5.8 4.5-7.2 3.5.8 4.6 2.4 3.4 5.7-.9 2.4-2.3 4.6-4 6.5-1.6 1.7-2.1 1.6-3.1-.4-.3-.4-.6-.8-.8-1.3Z" fill="#757372"/><path d="M550.7 269.9c-4.4-3.2-9.1-2.4-13.8-1.2-1.1.3-2.2.5-3.3.4 2.8-3.3 6.3-5.2 10.8-5.2 3.6 0 4.6.7 5.9 4.2.1.6.3 1.2.4 1.8Z" fill="#979392"/><path d="M109.7 664.8c.1 3.2-.2 6.3 1.9 9.1 1.7 2.3 1.8 2.4 3.8.5.8-.7 1.6-1.5 2.4-2.2.4 2-.5 3.9-.9 5.8-.4 2.4-2.8 3.1-4.8 1.6-1.2-1-2.3-2.1-2.7-3.8-.8-3.8-1.9-7.4.3-11ZM277.8 147.2c.3 7.3 1 14.6 3.8 21.5-4.6-2.2-5.9-6.2-6-10.9-.1-3.7 1.1-7.2 2.2-10.6Z" fill="#979594"/><path d="M294.1 50.5V37.7c0-3.2.1-3.7-3.7-3.6.4-.3.7-.7 1.2-.9 1.8-.6 3.8-2.2 5.6-1 1.7 1.3.4 3.4.1 5.1-.7 4.6-1.3 9-3.2 13.2ZM97.8 628.3c-3.7 5.4-5.8 11.3-5.2 17.9-1.9-3.2-2.6-6.6-2.1-10.2.5-4.3 3.2-6.7 7.3-7.7Z" fill="#979493"/><path d="M394.6 93.7c.1-4.5-.9-8.9-1.5-13.4.3.4.7 1 1 1 3 .4 2.9 2.6 2.6 4.7-.2 2.6-.6 5.3-2.1 7.7Z" fill="#949190"/><path d="M260.7 156.1c-1.1-.7-.8-2-1.1-3-1.3-4.3-3.1-8.4-4.9-12.6 1.5-.2 2.6.3 3.2 1.8.3.8.9 1.5 1.1 2.3.7 3.8 1.9 7.6 1.7 11.5Z" fill="#969291"/><path d="M146.9 672.2c3.1-3.3 5.7-7 7.4-11.2 1.6 5.9-.4 8.9-7.4 11.2Z" fill="#969493"/><path d="M410.2 191.7c5.8.7 11.5 1.5 17 3.6 0 .5.1 1 .1 1.6a116 116 0 0 1-17.1-5.2Z" fill="#F2BDA8"/><path d="M95.6 649.9c1.3-1.2 3.1-1.4 4.5-2.2-.2.6-.3 1.2-.5 1.7-1.1 2.6-1.6 2.6-4 .5Z" fill="#959594"/><path d="M610.2 443.2c1.3-1.3 3-.6 4.4-.7-1.2 1.2-2.9.5-4.4.7Z" fill="#979493"/><path d="M393.8 98.9c.1-1.5-.6-3.2.7-4.5-.1 1.5.6 3.1-.7 4.5Z" fill="#949190"/><path d="M618.4 537.6h4.5c-1.5 1.1-3 1.1-4.5 0ZM108.3 521.9h-3c1-.9 2-.9 3 0ZM84.4 461.7c.8-1 2-.7 3-.6-.8.9-1.9.6-3 .6ZM43.5 382.9c.8-1 2-.7 3-.7-.8 1-1.9.7-3 .7ZM100 595.6c-1-.1-2.2.3-3-.7 1.1 0 2.3-.4 3 .7ZM118.6 233.5c.1 1.1.2 2.2-.7 3 0-1.1-.3-2.2.7-3ZM429.6 144.2c0-1.1-.3-2.2.7-3-.1 1.1.2 2.2-.7 3ZM197.5 89.9c.9.6.7 1.4.7 2.2-.8-.5-.7-1.3-.7-2.2ZM427.3 92.9c-.1-.8-.1-1.7.7-2.3 0 .9.1 1.7-.7 2.3Z" fill="#979493"/><path d="M549.2 391.1c-.8-.6-.8-1.4-.6-2.3.7.6.7 1.5.6 2.3Z" fill="#747271"/><path d="M77 399.3c.6-.8 1.4-.7 2.3-.7-.6.8-1.5.7-2.3.7ZM103.8 522c-.6.8-1.4.7-2.3.7.6-.8 1.5-.7 2.3-.7ZM612.4 536.1c.8 0 1.7-.1 2.2.7-.7.1-1.6.2-2.2-.7ZM615.4 536.9c.8-.1 1.7-.2 2.3.7-.9 0-1.7.1-2.3-.7Z" fill="#979493"/><path d="M561.8 569.6c-.8-.6-.8-1.4-.6-2.3.7.6.7 1.5.6 2.3Z" fill="#747271"/><path d="M95.6 594.9c-.6.8-1.4.7-2.3.7.6-.9 1.5-.8 2.3-.7ZM162.5 697.5c0-.8-.1-1.7.8-2.2 0 .8.1 1.7-.8 2.2ZM199 166.5c-.6 0-1.2-.2-1.5-.8.6.1 1.2.2 1.5.8ZM207.9 144.9c.6.4.7.9.7 1.5-.6-.3-.7-.8-.7-1.5ZM207.2 142.7c.6.4.7.9.7 1.5-.6-.3-.8-.9-.7-1.5ZM47.3 382.2c.4-.6.9-.7 1.5-.6-.4.5-.9.6-1.5.6ZM206.5 140.5c.6.4.7.9.6 1.5-.6-.4-.7-.9-.6-1.5ZM502.3 137.5c.1.6-.1 1.2-.7 1.5 0-.6.2-1.1.7-1.5ZM185.6 118.2c-.6-.3-.8-.8-.8-1.5.6.3.8.9.8 1.5ZM62.1 338.3c.3-.6.9-.7 1.5-.8-.3.7-.8.8-1.5.8ZM44.3 482.5c.4-.6.9-.7 1.6-.6-.5.6-1 .7-1.6.6Z" fill="#979493"/><path d="M93.4 649.1c.6.1 1.1.2 1.4.8-.6 0-1.1-.1-1.4-.8Z" fill="#959594"/><path d="M533.6 269.1c-.3.6-.9.7-1.5.7.4-.5.9-.7 1.5-.7Z" fill="#979392"/><path d="M167 116c.6.3.8.8.7 1.5-.6-.4-.7-.9-.7-1.5ZM184.8 116.7c-.6-.3-.8-.9-.8-1.5.7.3.8.9.8 1.5ZM451.8 108.5c0-.6.1-1.2.8-1.5 0 .7-.2 1.2-.8 1.5ZM605.7 533.9c.6 0 1.2.1 1.5.7-.6.1-1.1-.1-1.5-.7ZM422.8 106.3c0-.6.1-1.2.7-1.5.1.6-.1 1.2-.7 1.5ZM489.8 96.7v-1.6c.7.5.7 1 0 1.6ZM457.8 95.9c0-.6.1-1.2.7-1.5 0 .6-.1 1.2-.7 1.5ZM111.2 522.7c-.6 0-1.2-.1-1.5-.7.6 0 1.2.1 1.5.7ZM106.7 421.6c.1.6 0 1.2-.6 1.5-.1-.6 0-1.1.6-1.5ZM583.5 542.8c.1-.4.4-.6.7-.7l-.7.7ZM572.3 611.9c.2.3.5.5.7.8-.2-.2-.4-.5-.7-.8ZM573 612.7c.2.3.5.5.7.8-.2-.3-.4-.5-.7-.8ZM573.8 613.5c.4.1.6.3.7.7-.3-.2-.5-.5-.7-.7ZM574.5 614.2c.4.1.6.3.7.7-.2-.2-.5-.4-.7-.7ZM94.9 200c.3.2.5.5.8.7-.4-.1-.7-.3-.8-.7ZM146.3 197.1c-.3.2-.6.4-.9.5.2-.3.5-.5.9-.5ZM581.2 648.4l-.9-.6c.4 0 .7.2.9.6ZM600.5 439.5c.4.1.6.3.7.7-.2-.2-.4-.5-.7-.7ZM627.3 525c-.2-.3-.5-.5-.7-.8.3.2.6.4.7.8ZM167.8 118.1ZM549.2 142.7c-.2.3-.5.5-.7.8.3-.3.5-.5.7-.8ZM89.6 394.1c.1-.4.4-.6.8-.7-.2.2-.5.5-.8.7Z" fill="#979493"/><path d="M426.4 729.5c-1.2-3-.2-5.8.5-8.7.5-2 1.1-4 1.5-6.1 4.1-21.3 17.5-32.7 37.4-36.5 12.9-2.4 23.5 2.1 32.2 11.8 1.6 1.1 2.9 2.5 2.8 4.6.2.6.3 1.2.7 1.7 4.2 5.8 5.4 12.3 4.3 19.3 0 .2.1.5.1.6.1.1.2.3.3.3 7.5 1.2 5.3 2.6 10.1-3.9 1.2-1.6 2.4-3.2 3.9-4.4 2.4-1.9 3.7-1.3 4.5 1.8-.4.7-.8 1.4-.8 2.2-.7.6-.8 1.3-.8 2.2-.6.4-.7 1-.6 1.6-.5.4-.7.9-.7 1.5-.5.4-.7.9-.7 1.5-.5.3-.8.8-.8 1.5-.6.3-.8.8-.8 1.4-.8.5-1.2 1.3-1.6 2.1-.4.1-.7.3-.7.7-.6.1-1 .4-1.3.9-.6 0-1.2.1-1.6.6-2.6.4-4.9-.5-7.3-1.4l-2.7-3c-1.3.9-1.7 1.9-2 2.9-1.5 1.5-3 2.9-4.5 4.4-.6.1-1.1.2-1.4.8-4.1 1.4-8.2 1.3-12.4.7-1-.8-2-.9-2.7.4-.4.9-.9 1.8-1.3 2.6-1 .8-1.7 1.8-2.3 2.9-.4.1-.7.3-.7.7-1.1.6-2.1 1.3-2.9 2.3-2.8 1.1-5.4 2.9-8.6 3.1-4 .4-7.9-.1-11.4-2.2-1.5-.9-2.7-.9-3.8.6-3.9 2-8.1 2.8-12.5 2.1-.6-.6-1.4-.7-2.2-.8-.7-.7-1.4-1.1-2.4-1.3-1.5-1.5-2.9-3-4.4-4.5-.1-.4-.1-.8-.2-1.2-.3-.5-.1-1.4-.9-1.7l.1.1c-1-.9-.8-2.7-1.4-4.2Z" fill="#282828"/><path d="M544 651.4c.7-1.9.4-4.1 1.5-6 .7.3 1.3.7 2.1.5 5.7-1.7 13.8 3.3 16.4 8.3 1.3 2.6 1.2 5.3.6 8-.7 2.7-3.4 3.9-6.6 3.2-2.9-.7-5.1-2.4-7.3-4.2-3.5-2.4-6.5-5.2-6.7-9.8ZM522.4 675.1c3.9-1.3 7.1-3.4 9.7-6.6 1.6 4.2 2.8 8.6 3.1 13.2.2 2.2 1.3 4.2 1.6 6.4.3 3.1.1 3.5-2.8 3.6-.6 0-1.2-.1-1.8-.1-.3-.2-.6-.4-.8-.6-.2 0-.5-.1-.7-.1-5.1-2.8-7.2-7.5-8-13-.3-1-.4-1.9-.3-2.8Z" fill="#747271"/><path d="M523.3 677.4c1.3 1.3.3 3.1 1.1 4.5 1.1 2.3 2.4 4.5 4.2 6.4l2.2 2.5c-7.1 2.8-14.4 3.4-21.7.7 0-.3 0-.6.2-.7 5.5-2.1 6.4-6.8 6.4-11.9 2.3-.9 5.4 1.2 7.6-1.5Z" fill="#979493"/><path d="M515.8 678.9c.1 1.6.8 3.1.5 4.7-.9 4.1-3 6.9-7.3 7.8-1.1-.1-2.1-.5-3.2.1-1.4.7-2.8.4-4.2.1-2.1 0-2.4-1.4-2.3-3-.1-2.5 1.2-4.3 3-5.8.4-.6 1.1-.4 1.5-.8 3.9 1.1 7.2.8 9.1-3.5.5-1 1.7-.8 2.6-.2.3.1.4.2.3.4.2.1.1.2 0 .2Z" fill="#55443D"/><path d="M544 651.4c1.5 3.7 4 6.7 6.6 9.7-2.2-.6-4.5-1-6.7-1.7-1.4-.4-2.8-.9-3.7-2.2 1.4-1.9 2.9-3.7 3.8-5.8Z" fill="#959392"/><path d="M499.4 688.6c.6 1.1 1.1 2.3 2.3 3 1 1.4.5 2.4-.9 3-.9-1.5-1.8-3.1-2.8-4.6.4-.5.9-.9 1.4-1.4Z" fill="#E0B2A0"/><path d="M545.6 642.5v-3.1c.8 1.1.8 2.1 0 3.1Z" fill="#747271"/><path d="M538.9 658.1c.1-.4.3-.6.7-.6-.2.2-.5.4-.7.6Z" fill="#959392"/><path d="M531.3 690.9c.3.2.6.4.8.6-.2-.2-.5-.4-.8-.6Z" fill="#979493"/><path d="M426.4 729.5c1.2 1.3 1.2 3 1.4 4.6-.4 0-1.1-.8-1.2.3l-.3 2.4c-.5.4-.7.9-.7 1.5-.7.6-1.2 1.3-1.6 2.1-.4.1-.6.4-.7.8-.4.1-.7.3-.8.7-1.4.8-2.7 1.7-3.7 3-.9.3-1.6.8-2.2 1.5-.9.2-1.7.7-2.3 1.5-.6.1-1.1.3-1.4.8-1.1.2-2.1.7-3 1.4-2.8.5-5.5 1-8.4.9-1 0-2-.1-2.8.6-1.2.1-2.2.6-3 1.5-1.4.5-2.6 1.2-3.7 2.2-2.8 1.1-5.7 1.5-8.7.9-.3-.5-.9-.7-1.5-.8-1.5-1.5-3-3-4.5-4.4 0-.6-.3-1.1-.8-1.5 0-.7-.1-1.4-.1-2.2 1.3-1.9 3-2.5 5.1-1.7 2.4.8 4.2.1 6.1-1.5 4-3.5 8.7-5.5 14.1-5.7 2.1-.1 3.8-.9 5.5-2 2.3-1.5 4.5-3 6.8-4.5 3.1-2.1 6.4-3.1 10.1-2.4.9-.1 1.6 2.6 2.3 0Z" fill="#282828"/><path d="M87.4 173.2h-.8c0-.3 0-.5.1-.8.5.1.7.4.7.8Z" fill="#B4B1B0"/><path d="M427.8 734c.9.2.9.9.9 1.7-.7-.4-.8-1-.9-1.7ZM329.9 757c.1-1.2.4-2.3 1.6-3l-.3 2c-.4.1-.6.4-.6.8-.3.2-.5.2-.7.2Z" fill="#282828"/><path d="M328.5 391.9c-6.5.5-13.9-1.3-21-4.4-12.5-5.6-20.6-15-22.8-28.5-1.6-9.9.3-19.3 6.9-27.6 7.3-9.2 16.9-14.5 27.9-18 9.1-2.9 18.5-4.5 28-4 13.5.7 25.6 4.9 35.4 14.7 3.3 3.3 6.6 6.6 8.6 11.1 2.5 5.7 2.8 11.6 1.8 17.8-1.7 10.5-7.9 17.7-16.3 23.7-10.9 7.8-23.5 11.3-36.2 14.6-3.6.8-7.3.5-12.3.6ZM241.5 572.5c-4.5-1.3-7.6-4.8-7.5-9.3.1-3-.7-5.5-2.1-8.1-2.7-5-4.1-10.6-6.2-15.8-.6-1.4-1.1-2.8-1.6-4.2-1-2.7-1.9-5.4-.4-8.2.5-.9.4-1.6-.2-2.4 3.6-2.4 7.8-2.1 11.7-2.5 10.8-1.2 21.7-1.6 32.6-.3 6 .7 10.8 3.4 15 7.4 1.6 1.5 2.3 3.2 1.4 5.3-1.1 2.5-.3 4.5 1.6 6.3 1.9 1.8 3.5 3.9 5.5 5.5 2.1 1.6 2.2 3.6.6 5.5-6.2 7.2-12.9 13.1-23.4 13.2-5.9.1-11.9.5-17.8.6h-.7c-5.8.4-7.2 1.6-8.5 7ZM450.3 478.8c5.4-1.5 10.7-1.4 15.6 1.5 7.3 4.4 13.9 9.7 19.3 16.4 1.8 2.3 3.9 4.4 5.9 6.6 3.2 3.7 3.7 7.5 1.7 11.8-2.7-3.4-3.5-3.6-7.5-1.8-7 3.2-13.5 7.3-20.8 9.7-7.3 2.4-14.7 3.1-22.3 2.7-3.2-.2-4.1-1.1-3.6-4.2 1.1-5.7-1.3-10.3-4-14.9-1-1.7-.5-2.7.7-3.8 6.3-6.1 11-13.8 19.1-17.9 1.2-.6 1.7-1.8 1.4-3.1-.3-1.3-1.2-1.8-2.4-2-1.1-.1-2.3 0-3.1-1Z" fill="#F2BDA8"/><path d="M241.5 572.5c-1.3-4.4-.2-6.4 4.3-7.4 1.6-.4 3.2-.5 4.8-.5 6.9 0 13.8-.4 20.8-.9 3.1-.2 6.1-1 8.8-2.6 4.5-2.7 8.1-6.4 11.6-10.3 1.2-1.3 1.2-2.4-.4-3.3-2.9-1.7-4.7-4.7-7.3-6.8-2.1-1.7-2.2-4.2-.8-6.4 1-1.7.5-2.7-.7-4-5.4-6-12.5-7.6-20.1-7.9-11.6-.5-23.2-.1-34.8 1.9-1.3.2-2.7.3-4.1.4-1.3-2.2-1.2-2.9.4-4.4 1.7-1.6 3.7-2.5 5.8-3.2 6.6-2.1 13.4-3.7 20.4-3.9 7.7-.2 15.4-.6 23 .7 6.9 1.2 12.9 4.5 17.9 9.3 3.8 3.7 4.8 8.3 2.9 13.3-.7 1.7-.4 2.4 1.1 3.2 1.9.9 3.5 2.3 5 3.8 2.2 2.3 3 4.9 1.6 7.8-5.7 12.1-13.8 21.8-27.7 24.8-7.4 1.6-15 2-22.5 1-3.8-.7-7.3-1.8-10-4.6ZM450.3 478.8c1.2 0 2.5-.1 3.7.1 1.6.2 2.7 1.2 3.1 2.8.4 1.7 0 3.4-1.7 4.1-6.4 2.8-10.5 8-14.9 13.1-1.9 2.2-3.9 4.4-6.6 6.5 2.5 1.3 4.4 2.8 3.3 5.8-.1.2.1.5.2.7 2.9 2.9 2.3 6.5 1.8 10.1-.4 2.9-.4 2.8 2.5 3 11.5.7 22.4-1.5 32.5-7 3.2-1.8 6.6-3.4 9.9-5 1.1-.5 2.3-1 3.4-1.3 3.3-.8 4.6.2 5 3.8-1 1.8-2.6 2.9-4.4 3.9-5 2.7-9.9 5.7-14.7 8.8-10.9 6.9-22.7 9.7-35.5 7.4-1.2-.2-2.4-.5-3.6-.9-4.7-1.8-6.7-5.9-5.4-10.7.7-2.4 1.8-4.6 2.9-6.8 1.3-2.9.9-3.6-2.3-4.2-1-.2-2-.3-2.9-.6-4.5-1.4-6.2-5-4.3-9.3 1.5-3.5 4.1-6.2 7-8.6 3.1-2.5 6-5.1 8.9-7.9 3.6-3.7 7.6-6.1 12.1-7.8ZM260.7 323.5c.3 4.1.1 8.1-.7 12.2-.7 3.6-2 6.9-4.4 9.6-4.1 4.6-9.9 5.3-15 1.8-2.8-1.9-4.5-4.5-5.8-7.5-1.3-3.1-2.2-6.3-3.1-9.5-2-6.6-1.2-12.8 3.7-18 4.3-4.6 9.6-5.8 15.2-3.7 5.5 2.1 9.7 8 9.8 13.6-.1.6-.1 1.1.3 1.5ZM423.5 296.8c3.7 7.5 3.4 15 .2 22.6-.7 1.7-1.7 3.3-2.9 4.7-3.8 4.3-9.6 5.2-14.4 2.1-4.7-3-6.9-7.7-7.3-13.1-.1-1.7 0-3.5 0-5.2.1-5.3 1.9-9.8 5.7-13.5 5.8-5.7 11.6-5.7 17.2.3a8 8 0 0 1 1.5 2.1ZM458.5 225.3c-2.1-2.6-1.2-5.5-.2-8.1 2.2-6 7.2-8.6 13.1-9.6 8.8-1.5 14.9 2.2 17.7 10.7 2.4 7.2 1.6 13.9-3.4 19.8a9.66 9.66 0 0 1-6.3 3.6c-2.2.2-2.9-.4-3.1-2.6-.1-1.3 0-2.7.1-4.1-.1-1.8.2-3.6 1-5.3 1.1-2.6 1.2-5.3.8-8-.5-3.3-2.4-4.7-5.7-4.2-3.7.6-6.6 2.5-8.9 5.5-1.2 1.6-2.4 3.8-5.1 2.3Z" fill="#282828"/><path d="M260.7 323.5c-1-2.1-1.2-4.5-2.4-6.5-2-3.5-4.6-6.4-8.6-7.7-6.2-2.2-12.5.3-15.8 6.2-1.5 2.7-2.3 5.7-2.3 8.8 0 2 0 3.9.1 5.9-.9-.8-1.4-1.9-2.7-2.3-2-.5-2.9-2.3-3.1-4.2-.7-9.3 2.4-17 10.1-22.5 3.8-2.7 8.2-3 12.4-1.6 6 2.1 10.8 5.9 13.7 11.7 1.4 2.8 1.6 5.8-.3 8.4-.9 1.2-1 2.4-1.1 3.8Z" fill="#F2BDA8"/><path d="M167.1 263.4c-5.4-1.8-7.9-6-8.2-11.3-.5-9.2 5.2-16.4 13.5-18.3 3-.7 5.9-.5 8.6 1 3.5 1.9 5.8 4.6 5.1 8.9-.7 3.1-2.8 3.4-5.4 2.7-.8-.2-1.6-.7-2.4-1-3.9-1.8-5.7-1.4-8.2 1.4-2.6 3-2.9 5.9-.9 9.1.6.9 1.4 1.7 2.1 2.6.9 1.1 1.6 2.2 1 3.7-.7 1.7-2.2 1.2-3.5 1.2-.5.2-1.1.2-1.7 0Z" fill="#55433C"/><path d="M144.6 279.1c-1.6-1-2.1-2.7-2.9-4.2-1.6-3.1-3.1-6.2-4.6-9.3-8.2-16.5-5.6-31.8 5.5-46.1 5.2-6.7 11.9-10.6 20.3-11.7 4.9-.7 9.5.2 13.9 2.5-7.1-1.2-13.3 1.3-19.3 4.6-7.5 4.1-13.3 10.1-18.5 16.8-4.4 5.7-4.5 12.1-3.5 18.7.9 5.6 2.9 10.9 6.2 15.7 2.6 3.9 3.6 8.2 2.9 13Z" fill="#F1BDA8"/><path d="M167.1 263.4c1.1-.1 2.3 0 3.3-.3 1.7-.5 2.2-2 1.1-3.4-.6-.8-1.4-1.4-2.1-2.1-5.1-5.1-.9-12.9 4.2-14.3 1.2-.3 2.5-.3 3.6.4.9.5 1.7 1 2.6 1.4 3 1.4 4 1.2 6.4-1.3.8 2.4 1.8 4.7 1.7 7.4-.1 2.1-.7 3.9-1.7 5.5-3.6 5.8-9.8 8.5-16.6 7.3-.9-.1-1.8.2-2.5-.6ZM458.5 225.3c2.3.3 3.3-1.4 4.3-2.9 2-2.8 4.6-4.8 8-5.7 5.5-1.4 8.3.5 8.7 6.2.2 2.2 0 4.4-.9 6.5-.7 1.8-1.4 3.6-2.2 5.5-1-1.2-2.2-.7-3.4-.3a14 14 0 0 1-5.4 1c-5.5-.1-9-3.4-9.1-9v-1.3Z" fill="#F2BDA8"/><path d="M443.1 200.7c1.8-4.4 4.9-7.7 8.7-10.4 4-2.9 8.3-5.3 12.6-7.8 5.7-3.2 11.7-2.6 17.7-1.6 3.9.7 7.6 2.1 11.2 3.7 6.1 2.8 9.9 7.5 12.1 13.8-2.3-1.1-3.9-3.1-5.4-5-4.8-6.3-11.1-8.8-18.9-9.2-9.9-.5-18.3 3.1-26 8.9-2.7 2.1-6 3.4-8.1 6.3-.7 1.3-2.4 1.5-3.9 1.3ZM423.5 296.8c-1-1-1.9-2-2.9-2.9-4.3-3.9-10.2-3.8-14.4.1-3.1 2.9-5.3 6.5-6.3 10.7-.3 1.1-.1 2.2-.9 3.2 0-1.7-.4-2.9-2.1-3.8-2.1-1.1-2.7-3.1-2.2-5.3 1.3-5.5 4.9-9 10.1-10.8 5.3-1.8 10.2-.8 14.2 3.2 1.8 1.6 4.2 2.8 4.5 5.6Z" fill="#F1BDA8"/><path d="M224.8 616.7c1.6-.2 2.1.6 2.8 1.2 2.9 2.7 4.5 6.4 6.6 9.7.9 1.4 1.6 3.1 2.3 4.6.6 1.2.4 2.4-.6 3.4s-2.2 1.1-3.4.6c-1.1-.5-2.3-1-3.2-1.8a18.7 18.7 0 0 1-6.5-14.3c-.1-1.9 1.1-3.3 2-3.4ZM452.5 373.7c-.1-1.1.1-2.6 1-3.8 1.4-2.1 3.8-2.6 5.2-.7 2.5 3.3 5.5 6.3 6.7 10.5.9 3.5-.6 5.6-4.2 5.5-2.4-.1-4.7-1.1-6.1-3.1-1.5-2.4-2.6-5-2.6-8.4ZM481.6 588.1v5.4c0 1.1-.1 2.3-1.4 2.7-1.2.4-2.4.4-3.5-.6a6.5 6.5 0 0 1-2-2.6c-1.6-3.7-1.8-7.6-.7-11.5.5-1.7 1.3-2.9 3.2-3 2.1-.1 3.1 1.1 3.8 2.8 1 2.4.4 4.9.6 6.8ZM296.5 225.1c0-1.6-.2-3.2 0-4.8.3-2.3 1.6-3.3 3.4-3.2 2.1 0 2.8 1.6 3.1 3.1.8 4.9 1.4 9.8.1 14.7-.2.9-.4 1.7-1.3 2.1-1.1.4-1.9-.4-2.6-1.1-1.9-1.8-2.5-4.2-2.8-6.7-.1-1.3 0-2.7.1-4.1-.1 0-.1 0 0 0ZM497.2 582.1c.4 2.2-.5 5.1-.8 8-.1.7-.1 1.6-1.1 1.7-.8.1-1.4-.5-1.8-1.1-1.7-3.1-3.5-6.3-3.8-9.9-.2-2.1-.1-4.2 0-6.3.1-1.5.3-3 2.3-3.3 1.7-.3 3 .2 4 1.9 1.5 2.6 1.1 5.4 1.2 9ZM194.5 441.1c0 1.3-.2 2.1-1.1 2.5-1.3.6-2.7.5-3.8-.5-2.7-2.4-4.8-5.2-5.9-8.8-.5-1.6-1.1-3.2-.4-5 .5-1.3 1.5-2 2.7-2.2 1.2-.2 2.1.5 2.7 1.6 1.8 3.6 3.7 7.3 5.4 10.9.3.6.3 1.2.4 1.5Z" fill="#F2BDA8"/><path d="M361.1 611c.1 2.6-1.2 3.6-3.3 2.9-.6-.2-1.2-.4-1.6-.8-3.3-3.2-5.1-7.2-5.4-11.8 0-.4.1-.7.3-1.1.6-1.4 1.2-2.9 2.9-3 1.7-.1 2.7 1.3 3.2 2.6 1.1 2.6 2 5.3 3 8 .3 1.2.6 2.4.9 3.2Z" fill="#F2BDA9"/><path d="M448.8 385.9c0 2.9-1.1 3.8-3.3 3.2-.6-.2-1.3-.2-1.7-.6-2.8-2.7-5.3-5.6-5.4-9.7-.1-2.1 1.3-4.2 2.9-4.7 1.7-.5 3.5.5 4.5 2.9 1.4 3.1 2.4 6.3 3 8.9ZM311.3 218.1c0-.6-.1-1.2 0-1.8.2-1.5 1.1-2.5 2.6-2.8 1.4-.3 2.6.5 3 1.7 1.2 3.4 3.3 6.3 4.3 9.8.4 1.4.9 2.7-.5 3.7-1.5 1.2-3.1.7-4.4-.3-3.2-2.7-4.9-6.2-5-10.3Z" fill="#F2BDA8"/><path d="M355.1 224.5v1.1c0 .9-.1 1.8-.9 2.3-1 .5-1.6-.3-2.2-.9-3.1-3-4.8-6.8-6.4-10.7-.3-.7-.2-1.7 0-2.6.3-1.5 1.3-2 2.7-1.5 1.9.7 3.4 2.1 4.4 3.8 1.3 2.7 2.4 5.4 2.4 8.5Z" fill="#F2BDA9"/><path d="M257.2 610.7c1.1.3 2.1.7 2.6 1.8.6 1.2 1.2 2.4 1.7 3.7 1 2.5 1.7 5.1 3.1 7.5.7 1.2.9 2.4-.2 3.3-1.1.9-2.1.2-3.1-.3-.8-.5-1.6-1.2-2.2-1.9-3-3.8-4.4-7.9-3-12.7.2-.6.3-1.2 1.1-1.4ZM386.7 609.8c-3-.5-4.1-2.3-4.8-4.5-1.5-4.5-.4-8.7.8-13 .2-.7.5-1.5 1.3-1.6 1.1-.1 1.5.8 1.8 1.6a23 23 0 0 1 1.1 11.6c-.4 1.8-.5 3.6-.2 5.9ZM218.3 430.4c0 3.1-.7 3.5-2.8 2.4-4-2-6.3-9.2-4.1-13 .9-1.5 2.5-1.7 3.6-.1.6.9.9 2 1.3 3 1 2.7 1.8 5.4 2 7.7ZM369 594.2c1.7-.1 2.3 1 2.8 2.1.6 1.1 0 2.9 1.9 3.2.2 0 .4.4.4.6-.2 1.6-.7 3.1-2 4.2-1.1 1-2.3 1.3-3.7.6-2-1-2.8-2.9-2.8-4.9.1-2 .6-4.1 2.4-5.5.4-.3.8-.3 1-.3ZM332.1 221.4c0 1.3-.1 2.2-.9 2.7-1 .7-2 .2-2.7-.4-2.1-1.8-3.1-4.2-3.6-6.7-.3-1.6 1.1-3.3 2.5-3.6 1.9-.3 2.7.7 3.2 2.3.5 2.1 1 4.1 1.5 5.7ZM198.2 424.4c-.1-1.7.7-2.9 2.1-3.3 1.5-.4 2.6.4 3.3 1.7 1 1.9 1.2 4 2.4 5.8.6.9-.3 1.6-1 2.1-1 .8-2.1.8-3.1 0a8.23 8.23 0 0 1-3.7-6.3Z" fill="#F2BEA9"/><path d="M243.5 617.3c.2.1.8.3 1 .6.8 1.6 1.7 3.1 2.6 4.7.6 1.1-.9 1.7-1.7 1.8-1.6.1-2.7-.8-3.4-2.3-.6-1.4-.9-2.8 0-4.1.2-.5.7-.7 1.5-.7Z" fill="#F3BEAA"/><path d="M323.9 750.4c-4.3 1.9-4.3 1.9-7.6-2 .3-.6.8-1.2 1.4-.9 2.1.9 4.6 1.1 6.2 2.9Z" fill="#FAF3F1"/><path d="M503.9 682c-.3.6-.9.7-1.5.8.3-.8.8-1 1.5-.8ZM272 717.4c7.8-.5 14.6 1.5 20.1 7.4 2.2 2.4 4.1 4.9 5.7 7.7 1.5 2.7 2.9 5.3 1.1 8.6-1.1 2.1-.6 4.6-.5 7 .1 2.2 0 4.4-.5 6.6-.7 3.3-2.4 5.6-5.8 6.5-3.9 1.1-7.6 1.4-10.8-1.7-5.4-5.2-6.4-5.2-12.4-.4-2.6 2.1-5.4 3.5-8.8 3.1-2.3-.3-4.1-1-4.9-3.7-1.2-3.9-3.7-5.1-7.8-4.1-2.3.5-4.6.8-7 .4-2.3-.4-3-1.2-3-3.5 0-4-.3-8.3 1.8-11.6 3.2-5 5.4-10.9 10.2-14.8 4.4-3.6 9.8-5.3 15.2-6.5 2.5-.6 4.9-1 7.4-1Z" fill="#F2BDA8"/><path d="M561.8 532.4c1.9.4 3.5 1.3 5.2 2.2-.7.6-1.5 1.2-2.2 1.9-3.6 3.5-3.4 6.1.8 9.3 0 1.3-.8 2-1.7 2.7a14.5 14.5 0 0 0-5.1 8.3c-.1.3-.4.6-.7.8-.9-1.7-1.9-3.4-2.8-5.1-1.3-2.4-3.1-3.7-5.9-3.3.7-1 1.9-.3 2.9-.9-.7-.7-2-.3-2.4-1.2 3.6.5 5.9-1.2 7.5-4.2 1.8-3.3 3.2-6.9 4.4-10.5Z" fill="#B3B0AF"/><path d="M515.8 678.9c-.1-.2-.1-.4-.1-.6 1.8-.3 2.4-1.5 2.3-3.2h4.4c.9.5.8 1.4.8 2.2-.3 2.6-.3 2.5-2.8 2.3-1.5 0-3.2.3-4.6-.7Z" fill="#B2AFAE"/><path d="M435.3 730.4c-2.3-2-2.5-4.2-1.5-7.2 2.2-6.8 4.8-13.3 9.1-19 7.3-9.7 17.4-14.1 29.2-14.2 6.5-.1 11.9 2.9 15.9 8.2 1.6 2.2 3 4.5 4.5 6.8.7 1.7-.5 3.9 1.6 5.2.1 1.8-.9 3.3-1.6 4.9-1.4 2.9-3.2 3.8-6.3 3-1.1-.3-2.1-.8-3.1-1.1-3.7-1.2-6.9-.3-9.2 2.8-1 1.4-1.9 2.9-2.8 4.4-1.2 2.1-2.8 3.7-5 4.8-2.2 1.1-4.4 1.5-6.7.4-5.8-2.7-11-1.7-15.9 2.2-2.8.6-5.5-.2-8.2-1.2Z" fill="#F2BDA8"/><path d="M435.3 730.4c.3-.2.7-.7.8-.7 2.3 1.4 5.1.8 7.5 1.9-3.7 2.1-5 1.9-8.3-1.2Z" fill="#ECDAD6"/><path d="M494.1 710.2c-.5.4-.9 1-1.4 1-.8.1-.8-.7-.8-1.3.1-1.6-.5-3.4.5-4.9 1.7 1.4 2.6 3 1.7 5.2Z" fill="#F0CFC2"/><path d="M328 352.8c-2.9-.8-5.5-1.6-8-2.8-8.1-4-10.2-12.3-4.6-19.4 6.1-7.7 18.6-13.7 30.3-10.2 9.1 2.7 12.8 10.3 9.5 19.2-1.8 4.9-5.2 8.3-9.6 10.9-1 .6-1.9 1-3 1.6.7 1.9 2.3 2.7 3.8 3.4 4.8 2.2 9.7 3.5 14.9.7 2.8-1.5 5.3-1.2 6.5.3 1.4 1.7.9 4.6-1.2 7.1-4.9 5.7-11.1 7-18.1 5.6-5-1-9.2-3.4-12.8-7-1.5.5-1.6 1.9-2.2 2.9-5.1 7.2-11.7 11.3-20.8 10.5-2.6-.2-4.8-1.1-6.7-2.8-1-1-1.7-2.1-1.9-3.5-.2-1.6.6-2.5 2.3-2.5 3-.1 5.9-.1 8.8-.8 2.8-.7 5.4-1.9 7.7-3.6 3.5-2.8 4.5-4.5 5.1-9.6Z" fill="#282828"/><path d="M252.5 332.9c0 3-1.2 4.8-3.2 5.3-2.2.6-4.4-.6-5.3-3-.8-2.1-.9-4.4-.3-6.6.4-1.7 1.6-2.8 3.4-3 2-.2 3.4.6 4.2 2.4.7 1.7 1 3.6 1.2 4.9ZM416.1 312.6c.1 1.7-.3 3.2-1.7 4.3-1.5 1.2-3.7 1-5.1-.3-1.8-1.7-2-6.3-.4-8.3 1.2-1.5 3.4-1.9 5-.9 1.8 1.2 2.2 3.2 2.2 5.2Z" fill="#FCFCFC"/></svg>