<svg width="757" height="1050" viewBox="0 0 757 1050" fill="none" xmlns="http://www.w3.org/2000/svg"><path d="M194.5 365.8c-1.2-4.6-1.7-9.3-2.1-14 3.6-8.9 3.8-18.3 4.3-27.7.2-4.3.9-8.6.7-13-.2-5.9-3.5-8.1-8.8-5.7-1.2.5-2.5 1.8-3.7.6-1.2-1.1-.8-2.8-.6-4.2 1.5-18.5 6.7-36 13.6-53.1 2-4.9 3.9-9.9 5.6-14.9 1.3-3.9 2.4-7.8 2.1-12-.2-2.8.7-5.1 3.1-6.7.9-.6 1.7-1.4 2.2-2.4 1.7-3.1 0-6.1-3.6-6.3-1 0-2 .2-2.9.4-1.3.3-2.7 1.6-3.8.4-1.4-1.4 0-3 .5-4.5 7.5-18.6 19.9-33.9 33.1-48.6 4.1-4.6 8.4-9.1 12.8-13.5 2.1-2.1 3.2-4.6 1.9-7.4-1.3-2.8-4.1-2.8-6.8-2.8-1.7 0-4 1.3-4.8-.5-.9-2.1 1.5-3.4 2.9-4.7 29.8-24.9 62.9-43.5 101.3-51.6 5-1 9.9-2.4 13.3-6.6 3.7 1 7.4 1.7 11.1-.2 1.6-.8 3.5-1.3 5.2-1.9 7.9 2.2 15.4-1.7 23.1-1.4 1.7.1 2.4-1 1.6-2.7-.3-.7-.7-1.3-.5-2.1.8-.7 1.7-.7 2.7-.8 1.2 0 2.1-.4 2.8-1.3 2.2-.7 3.6 1.2 5.3 1.9 1.7.7 3.4 1.2 4.7-.5 1.2-1.6.7-3.3-.4-4.8s-2.9-2.3-4.3-3.5c-.8-.7-1.9-1.5-1.5-2.7.4-1.2 1.6-1.5 2.7-1.7 8.8-1 17.7-1.7 26.6-.2 2.4.4 4.6.8 6.8-.7.4-.1.7-.2 1.1-.2.4 0 .7.1 1.1.2 2.4.2 3.1-1.8 4-3.3 7.1-11.2 15.2-21.4 26.9-28.2 1.7-1 3.7-3.2 5.6-1.7 1.5 1.2-.1 3.5-.6 5.2-.6 2.5-1.3 5-1.1 7.7.4 4.2 4.1 6.1 7.4 3.4 2-1.6 3.8-2.9 6.6-2.2 1.2.3 2.3-.7 3.3-1.5 4.3-3.3 9.4-5 14.3-7.1 2.2-.9 3.7-1.1 3.8 2.2.2 4.7 3.2 6.8 7.8 5.7 3-.7 5.8-2.1 8.7-3.2 4.2-1.6 5.2-1.3 8.2 2.2 1.3 1.5 3 1.6 4.7 1.5 4.3-.3 8.6-1.1 12.9-1.6 1.4-.2 2.9-1 4.2.2 3.2 1.4 6.6 1.4 10 2.1.8.2 1.7.1 2.4.7-.3.4-.7.7-1.2.9-2.3.9-2.2 2-.2 3.2 4.7 2.9 4.7 2.9 2 7.5s-1.6 6.8 3.7 6.8c8.1 0 16.1 0 24.1 1.1 16.8 2.4 31.9 9.3 45.7 18.8a460.17 460.17 0 0 1 63.1 51.8c1.4 1.6 4.1 3.1 3.3 5.4-.9 2.4-3.7.9-5.7.9-2.1-.1-4 .4-5.2 2.3-1.3 2.2-.8 4.4.6 6.3 2.8 3.8 6.3 6.9 9.4 10.5 7.9 9.2 14.6 19.1 19.4 30.2 1.5 3.5 1.1 4.2-2.6 5.6-3.2 1.2-4.2 3.6-2.9 6.8.9 2.3 2.2 4.4 3.4 6.6 3.8 6.8 7.3 13.8 10.2 21.1 1 2.6 1.1 4.6-1.2 6.6-2.5 2.1-3 5-2.4 8.1 1.6 8 4.9 15.6 7.1 23.5 1.9 6.6 2.9 13.3 3.5 20.1.5 5.2-.9 7.2-5.8 9.1-3.3 1.3-4.3 3.8-4.5 7-.3 6.2.9 12.3 1.8 18.5 1 7.4 1.9 14.7 3.4 22 .1.6.1 1.2-.2 1.8-.7 4.7-1 9.5-2.4 14.2-2.2-.6-2.1-2.8-3.1-4.3-.8-1.1-1.5-2.5-3.1-2.2-1.9.3-2.1 1.9-2.1 3.4-.2 4 .6 7.9 1.1 11.8.9 7.2 2.2 14.4 3.4 21.6.2 1.4.9 2.9-.4 4.2-.6 5.8-2.4 11.4-2.7 17.2-1.9-1.4-1.3-3.4-1.2-5.1 0-5.3-.1-10.7-1.9-15.8-.9-2.4-1.8-5.6-5-5-3.1.6-2.2 3.7-2.2 6-.2 8.8.4 17.6-.9 26.3-.5 3.3-1.2 5.9-5.2 6.5-2.7.4-4.2 2.9-5.2 5.4-1.3 3.2-2 6.6-2.9 10-3.2 12.6-7.2 25-12.6 36.8-2.2 4.7-3.7 9.6-4.2 14.8-2.4 3.9-4.3 8-7.2 11.6-.8 1-1.3 2.1-2.5 2.7-1.2-1.2-.8-2.8-.9-4.2-.1-1.1-.1-2.4-1.4-2.7-1.5-.4-2.2.7-2.9 1.8-.5.7-.8 1.5-1.2 2.3-4.5 9.3-10.1 18.1-13.9 27.8-.4.9-.7 1.9-1.9 2.1-2.2.8-3.4 2.7-5.1 4.1-1.1.9-1.8 2.3-3.3 2.8-1-4-1.6-4.1-5-1.4-6.1 4.9-10.7 11.3-16.5 16.6-5.4 4.9-11 9.6-17.3 13.4-1.5.9-3 1.7-4.6 2.3-5.2 2-6.7 1.6-10.5-2.4-3.4-3.5-5.9-3.9-10.2-1.3-5.5 3.3-10.3 7.7-15.6 11.4-1.9 1.3-3.9 2.6-6 3.8-3.6 2.2-7.1 2.9-11.2.6-3.8-2.1-6.7-1-10 2.9-4.2 5-8.3 10.2-12.5 15.3-7.8 9.3-17.5 16-28 21.8-.3.2-.7.3-1 .5-4.3 2.1-8.5 4.2-8.8 9.8-17-.3-32.5-5.5-46.6-14.8-2.1-1.4-4.1-2.8-6.2-4.1-4.4-2.7-5.8-2.6-9.2 1.1-.7.4-1.5.4-2.2.1-1.8-1.7-1.7-4-2.4-6.1-.3-.8-.4-1.7-.7-2.5-.8-2.6-2.1-4.9-5.3-4.7-2.6.2-4.1 2.4-4.2 6.1-.1 2.1.3 4.2.8 6.3.2.9.6 2.1-.3 2.8-1.1.9-2.1.1-3-.5-6.1-3.9-11.9-8.1-17.2-12.9-12.1-10.9-22.8-23-33.7-35-1-1.1-2-2.2-3.3-2.9-3.1-1.6-6.3.3-7 4.1-.6 3.5-1.4 4-4.4 2-4.8-3.1-9.2-6.7-13.4-10.5-8.2-7.4-14.1-16.6-21.4-24.7-1.4-1.6-3-3-4.8-4-3.4-1.9-6-1-7.5 2.6-.3.8-.5 1.7-.8 2.5-1 2.8-2 3.3-4.7 1.7-4.9-2.9-8.7-6.9-12.1-11.4-8.8-11.4-16.2-23.7-23.3-36.3-6.9-12.3-12.7-25.2-18.4-38.1-.8-1.8-1.6-3.7-2.9-5.2-.7-.8-1.6-1.8-2.8-1.3-1.3.6-1.1 1.8-.8 2.9.9 3.9 1.5 7.8 3 11.5.5 1.3 1.2 2.5.6 3.9-.5.7-1 1.1-1.9.8 0-.2-.1-.5-.1-.7-.2-.2-.3-.5-.4-.7-2.3-5.9-4.8-11.8-7.8-17.4-.6-1.2-1-2.5-2.5-3.1-.6-14.8-5.2-28.9-7.4-43.4 0-.2-.1-.5-.2-.7-.6-1.6-.8-3.8-3-3.7-2 .1-1.9 2.3-2.1 3.8-.6 4.4-1.2 8.8-.3 13.3.4 2 .7 4.2-.8 6-4.3-1.4-6.3-5-8.3-8.6-1.4-1.4-1-3.2-1.1-4.9-.3-12.5 1.3-25 2.6-37.4.4-4 .4-7.9.3-11.9 0-1.1-.1-2.4-1.6-2.6-1.2-.2-1.7.8-2.3 1.6-1 1.4-1.6 3.1-2.1 4.7-1.5 5-2.3 10.1-3 15.3-.4 2.3-.3 4.6-2 6.4Z" fill="#F7A053"/><path d="M35.4 873.8c-1 4.7-2.4 9.4-3 14.2-1.6 11.9.6 23.3 4.7 34.3 7.3 19.4 18 36.6 33.1 51 7.8 7.5 16.7 13.6 26.3 18.6 24 12.6 49.6 20.5 76.1 25.7 9.2 1.8 18.7 2.4 28.1 3.2 17 1.4 34.1 2.8 51.2 3.2 19.6.5 39.2 0 58.7-1.6 15.1-1.3 30-3.8 44.8-6.8 7.3-1.5 14.6-2.7 22.1-2.6 1.3 0 2-.2 2.3-1.7.8-4.5 3.2-8.3 6.1-11.7 7-8.5 15.3-15 25.6-19.2 13.1-5.3 26.7-8.2 40.8-8.9 6.6-.4 13.1.6 19.5 2.1 8.3 2 16.6 2.7 25.1 2.7 2 0 4 0 5.9.2 2.6.2 4.8 1.3 5.9 3.9 1 2.5.2 4.6-1.5 6.4-.3.4-.7.7-1.3 1.4 4.7.8 9 1.7 13.3 2.3 10.9 1.4 21.3 4.7 31.2 9.4 1.6.7 3.2 1.4 4.6 2.5 3.9 2.9 3.7 7.9-.4 10.5-1.3.8-2.7 1.2-4.2 1.6-3.4.8-6.8 1.5-10.1 2.3-5.7 1.3-11.2 3.1-16.6 5.4-7.5 3.3-15.1 6.4-23.1 8.2-2.8.6-5.6 1-8.7 1.5.6 2.2.9 4.5-.5 6.6-1.4 2.2-3.6 3.4-5.8 4.5-6.4 3.1-13.2 3.4-20 2.4-5.3-.8-10.5-1.9-15.7-3-1.6-.3-2.7-.4-3.9 1.1-4.1 5.3-9.7 6.6-16 5.7-8.8-1.2-17.2-3.7-25.4-7-3.4-1.4-6.4-3.4-9.2-5.6-4.9-3.9-10.3-6.8-16.4-8.6-.4-.1-.8-.1-1.1-.3-4.3-2.9-8.9-2-13.5-1-16.1 3.5-32.2 7-48.3 10.3-15.3 3.1-30.8 5.2-46.3 7.1-7.7 1-15.5 2.2-23.3 2.5-17.8.6-35.7 1.7-53.5 0-8.9-.9-17.8-1.2-26.6-2.9-22.8-4.4-45.3-9.8-66.8-18.5-4-1.6-8.1-3-12.2-4.5-19.5-6.9-35.2-19-48.1-34.9-8.9-11-16.9-22.7-24-34.9-5.9-10.2-10.6-21-13.1-32.6C.9 912.2.7 906 .7 899.8c-.2-16.3 2-32.1 9.9-46.7.4-.8.7-1.6 1.1-2.4 3.9-9 9.2-17 16.9-23.3 2.7-2.2 3.8-4.7 3.7-8.3-.2-7.8.1-15.6.2-23.4 0-6.1.6-12.1 1.9-18.1 1.3-5.8 1.5-11.8 1.7-17.7.7-16.8 3-33.4 8.9-49.2 5.9-15.6 13.4-30.4 24.2-43.2 1.5-1.8 3.2-3.5 5-4.9 1.2-.9 2.5-1.7 4.1-1.3 2.4.7 2.5 2.5 2 4.5-.6 2.2-1.7 4.1-2.9 6-7.5 12.2-13.7 25-19.1 38.2-6 14.7-8.2 30.3-9.4 46-.6 8.1-.4 16.3-2.2 24.4-1.3 6.1-1.8 12.3-1.5 18.5.4 10.3-1.2 20.5-.8 30.8-.2 11.2-.1 22.4 2.3 33.4 1.3 6.1 1.9 12.2 2.8 18.4.3 2.1.3 4.2-.4 6.3-.6 1.6-1.3 3-3.4 2.7-3.3-.7-4.8-3.3-5.9-6-1.5-3.8-2.5-7.7-3.2-11.6-.3-.4-.4-.9-.4-1.3-.2.3-.4 1.3-.8 2.2Z" fill="#282828"/><path d="M591.1 624.6c.7 5 .3 9.9-1.4 14.7a5.3 5.3 0 0 0-.2 3.3c1.3 4.9 1.8 10 2 15.1.5 11.1 1.9 22.2 2.7 33.3.8 11.3 1.2 22.5 1.2 33.8 0 9.2 0 18.3-.1 27.5 0 6.2.2 12.4.6 18.6.3 4.7.7 9.4-.4 14.1-.5 2.2-.1 3.6 1.6 5.2 4.2 4.1 6.6 9.2 7 15.2.2 2.7 0 5.5-.8 8.1-1 3.6-3 6.2-6.9 7.5-2.9.9-5.5 3-5.8 6.8-.4 4.5-2 8.5-7 9.9-.7.2-1.2.8-1.7 1.3-2.2 2.5-5 4-8.2 4.9-1.6.5-2.9 1.1-3.7 2.7-1.3 2.3-3.4 3.9-5.6 5.3-4.7 2.9-9.8 4.9-15.2 5.6-9.2 1.2-18.5 1.9-27.8 1.7-4-.1-7.9-.4-11.7-1.8-1.1 1.4-.9 2.9-1 4.3-.9 10.8-4.8 20.7-10 30.1-1.4 2.6-3.2 5-5.9 6.5-.6.3-1.1 1-1.6 1.6-5.1 6.4-11.8 9.3-19.9 8.9-2.2-.1-3.9.4-5.7 1.8-4.8 3.6-10.4 5.5-16.4 5.1-7.9-.5-15.8-1-23.5-3.1-14.2-3.8-24-11.9-27.5-26.6-.1-.2-.3-.4-.4-.6-13.8 1.7-27.6 3-41.4 3.7-13 .6-26-.3-38.8-3.1-1-.2-1.6-.3-2 .8-1 3.2-2 6.3-3.1 9.6 3.1 1 5.9 1.8 8.7 2.7a39 39 0 0 1 12.4 6.6c2.3 1.9 4.5 4 6 6.6 2.7 4.7 4.1 10.1 5.6 15.2s-.5 10-4.9 13.5c-1 .8-1.5 1.5-1.5 2.7-.1 3.6-2 6.3-4.5 8.7-4.7 4.6-10.4 7.5-16.8 9.1-4.2 1-8.5 1.7-12.8 2.2-4.6.6-9.1.5-13.6-1.1-.6-.2-1.2-.4-1.9-.1-.1.3-.3.6-.3 1 0 5-4.5 7.8-9.2 7.5-1.7-.1-3.4-.4-5.2-.5-2.1-.2-4-.2-5.9 1.2-2.5 1.8-4.2.7-5.2-2.7-1.3-4.4.4-7.6 4.6-8.8 1.8-.5 3.7-.3 5.5-.5 1.1-.1 2.4.2 2.4-1.5.6-4.9 2.4-6 6.9-4 2.1.9 3.8.9 6 .2 4.4-1.3 9-1.6 13.4-2.5 5.4-.6 10.8-1.3 16.1-2.8.7-.2 1.4-.4 2.1-.7.3-.2.6-.3.9-.5 1.6-.9 3.2-1.9 4.6-3.1 2.2-1.8 2-3.4-.7-4.8s-5.7-1.7-8.6-2.3c-4.2-.9-4.8-3.2-1.9-6.5 1.6-.9 3.4-1.5 5.2-1.8 4.1-.4 8.1.1 11.7 2.3.8.5 1.8 1.2 2.6.1.7-.9.9-2.1.4-3.1-1-2.3-3-3.5-5.3-4.2-3.4-1.1-6.9-.3-10.2-1-.3-.1-.6-.3-.9-.5-1.7-2.3-.8-4.2 1.1-5.8 1.6-1.4 3.6-2.1 6.4-2.8a33.8 33.8 0 0 0-11.3-5.8c-6-2.1-12.1-3.6-18.5-3.3h-.7c-2.2-.2-4.8-.1-5.4-2.8-.7-2.9 1.4-4.6 3.6-5.3 4-1.2 5.6-3.7 5.8-7.6 0-.5.2-1 .4-1.4 6.2-14.6 4.1-29.4 1.2-44.2-2.8-14.2-7.4-27.8-15.3-40-10.8-16.5-23.4-31.4-40.7-41.6-8-4.7-16.8-7.2-25.7-9.5-2-.5-4.1-1-6.1-1.6-1.8-.5-3.6-1.2-3.6-3.6 0-2.4 1.7-3.1 3.6-3.5 18.8-1 35.2 5.2 49.9 16.4 4.1 3.2 8 6.6 12.1 9.7 25.5 24.4 39.3 54.5 43.3 89.3.6 5.2.8 10.4.6 15.6-.1 2.1.7 2.8 2.8 2.8 16.5.1 32.9-.2 49.3-2 7-.8 14.1-.9 21.1-1.6 5.8-.6 7.5-2.8 6.2-8.8-.8-3.6-1.8-7.2-3-10.7-.8-2.1-1.1-4.3-.9-6.5.2-2 1-3.6 3-4.2 2.2-.6 3.8.2 5.1 2 1 1.3 1.5 2.8 2 4.3.8 3 1.6 6 2 9 .2 1.6.4 3 2.3 3.7 1.5.5 1.8 2.2 2.2 3.7.3 3.3.4 6.7 0 10-1.3 10.2 4.3 19 14.1 22.1 8.2 2.6 16.8 3.4 25.3 3.4 8.4 0 11-3.5 9.6-11.8l-.6-3.7-.3-1.7c-.1-.9-.3-1.9-.6-2.8-1-3.2-2.2-6.3-2.7-9.6-.3-2.1 0-4.1 1.9-5.2 2.1-1.2 3.8.1 5.3 1.5 4.2 3.9 6.4 9 8.1 14.4.8 3.4 1.8 6.7 1.8 10.2 0 2.6 1.3 2.8 3.4 2.2 3.7-1.1 6.9-5 7.2-9 .2-3.5.1-6.9-1-10.3l-.3-1.1c-.1-.9-.4-1.9-.8-2.7-.4-.9-.8-1.8-1-2.7-.6-2-1.6-4 .5-5.7 2-1.6 4.1-1.1 6.1.2 2.3 1.1 3.5 3.4 5.3 5.3 1.4-1.5 1.4-3.1 1.7-4.6 2.6-15.1 1-30.1-1-45.1-2.8-21.7-5.4-43.5-7.4-65.3-.9-10.4-1.7-20.8-1.8-31.1-.2-23-1.7-46-.9-69 .8-4.9.5-9.9 1-14.8.1-1.2.4-2.4.8-3.6.6-1.5 1.5-2.7 3.1-2.8 1.8-.1 3 1 3.6 2.7 1.2 3.5 1.6 7.3 1.7 11 .1 3 .1 5.9 0 8.9-.2 11.9 1.5 23.7 1.9 35.5.3 7.4 1.2 14.7 1.9 22.4 12.3-5.3 24.5-10.3 31-23 4.5-8.7 11.1-15 19.9-19.2 8.7-4.2 15.5-10.5 20.7-18.6 1.6-2.5 3.6-4.7 6.2-6.3 1.8-1.1 2.7-2.8 3.4-4.7 1.5-4.6 2.7-9.3 4.4-13.8.6-1.7 1.3-3.5 2.6-4.9 2.4-2.9 4.8-2.3 6 1Z" fill="#282828"/><path d="M302.6 952.7c-3.5 1.1-7.2 1.2-10.8 2-.6.1-1.4-.1-1.8.3-2.8 2.1-5.2 1.5-8-.2-3.2-1.9-4.8-.5-5 3.8-8.6 1.8-17 4.3-25.5 6.4-3.3-.8-5.7 1.8-8.6 2.3-3.3-.4-6.5 1.8-9.9.6 1 .3 1.8.6.6 1.6-1.5.6-2.9 0-4.4 0-5.1-.1-10.1-.6-15.1.8-2.3.7-4.6.4-6.9-.4-4.5-1.6-9.2-1.9-13.9-2-4.2 0-7.8 1.6-11.2 4-.3-.3-.6-.5-.8-.8-2.9-9.1-11-8-17.8-8.5-12.1-1-24.3-1.9-35.5-6.9-7.3-3.3-14.8-5.4-22.6-7-12.9-2.6-22.5-10.6-31.1-19.9-2.6-2.8-5.1-5.8-7.7-8.6a86.46 86.46 0 0 1-14.2-21.7c-1.4-3-3.3-5.5-6.4-6.9v-1.5c2.3-.8 2.6-2.7 2.8-4.8.3-3-.4-5.9-.8-8.9-.6-4.4-1.4-8.8-2.1-13.2.2-5.1-1.2-10-1.6-15-.6-6.4.2-12.8-.6-19.2-.1-5.2-.1-10.4.4-15.6.3-3 .3-5.9.2-8.9-.4-10.6.6-21 2.5-31.4 1-5.4.7-10.9 1-16.3.8-12.5 2.7-24.8 5.9-36.9 2.2-8.4 6-16.2 9.7-24.1 4.2-8.9 8.5-17.6 13.8-25.9.9-1.3 1.4-2.9 2.1-4.3.9-1.8.6-3.3-.9-4.7 1.6-1.4 3.5-2.4 4.7-4.3 4.1-2.3 6.1-5.9 6.9-10.4 1.9-10.9 8-19.5 15.4-27.4 8.6-9.2 17.4-18.3 25.4-28.1 3-3.6 5.7-7.3 4-12.4 3.7-5 7.9-9.6 11.2-14.9 1.9-2.7 5-4 7.5-6 1.9-1.4 3.9-2.6 5.5-4.4 3.3-3.4 3.1-4.3-1-6.1 1-1.7 2.7-2.9 4-4.3.9-1 2-1.8 2.3-3.2 18.3-11.9 34.7-25.9 47.6-43.6 8.2-11.2 14.3-23.7 19.7-36.5 1.1-2.7.8-5.9 2.5-8.4.7-.5 1.4-.9 2.1-1.4.6-.3 1.2-.5 1.8-.8 2.2.6 2.4 2.7 3 4.3 8.6 23.7 21.6 44.9 36.4 65.1 3.6 4.9 8.1 9 13.1 12.4 3.2 2.2 6.9 2.4 10.4 3.6.1 2.2-1.2 1.3-2.2 1.4 3.6 2.9 7 6.4 11.3 8.8 3.3 1.8 6.7 2.3 10.2.9 1.6 0 2.2 1.4 3.1 2.4 7.7 7.8 16.1 14.7 25.9 19.6 3.6 1.8 7.2 2.6 11.1 1.1 1.8-.7 3.3-.2 4.7 1.2 7.3 8.1 15 15.7 22.8 23.4 1.1 1.1 3.1 1.9 2.1 4.2-1.6.6-2.9-.2-4.3-.6-10.5-3.1-19.7-8.6-28.3-15.2-4.5-3.4-9.3-6.7-14-9.8-6.5-4.2-13.6-7.1-21.4-6.3-14.4 1.5-25.1-5.1-34.7-14.5-10.9-10.7-21.5-21.6-30.9-33.7-7.2-9.3-12.9-19.3-17.6-30.1-1.1-2.6-2-5.3-3.4-7.7-.3-.2-.6-.2-.8 0-15 24-33.8 45.2-51.2 67.5-22.5 28.7-45.4 57-65.9 87.2-9.5 14.1-20.5 27.1-30.7 40.6-16.9 22.5-26 47.9-31.2 75.1-2.6 13.6-4.9 27.3-6.3 41.1-1.3 12.3-3 24.6-2.7 37 .6 24.8 5.9 48.4 19.2 69.7 8.6 13.9 20.4 24.6 33.8 33.5 8.3 5.6 17.1 10.6 26 15.1 1.3.7 2.3 1.6 3.1-1 .8-2.8 2.9-3 6-.9 5.9 4.1 12.1 7.3 19.4 8.1 6 .7 12 1.4 18.1.6 5.5-.7 11.1-.9 16.7-.9 23.3-.2 46.2-2.5 68.7-8.7 17.4-4.8 35.4-7.5 53-12 1.5-.4 3.1-1.1 4.6.1-2.3 3.1-1.8 4.4 2 5 1.7.3 3.4.5 5.1.9 1.1.2 2.1.6 3.1 1.1 4.7 2.2 4.9 4.3.7 7.2-1.6 1.1-3.1 2.5-5.1 2.9-5.9 1.8-12.2 2.6-18.3 4.3Z" fill="#D1A67F"/><path d="M740.7 329.3c-2-4.6-2.1-9.6-2.9-14.5-1.1-6.7-1.9-13.5-2.8-20.2-.4-2.8-.5-5.7-.3-8.5.3-4.2 2.4-6.5 6.5-7.4 3.1-.7 3.1-.1 3.5-3.7.7-5.7-.2-11.4-1.4-16.9-1.6-7.5-4.2-14.8-6.6-22-.9-2.8-1.8-5.7-2.3-8.6-.7-4-.1-7.4 3.6-9.7 1.5-.9 1.1-1.9.6-3.2-2.9-7.8-6.5-15.3-10.6-22.5-1.2-2-2.4-4.1-3.4-6.2-2.3-5-.3-8.5 5.2-9.1.4 0 .7-.2 1-.3.6-1.4-.2-2.5-.7-3.6-4.6-10.8-11.1-20.5-18.7-29.3-2.7-3.1-5.5-6-8.3-9-.7-.8-1.5-1.7-2.1-2.6-1.7-2.2-2.1-4.6-.8-7 1.3-2.5 3.8-3 6.4-2.9 1.8.1 3.5 1 5.6.3-.5-1.6-1.7-2.5-2.6-3.6-8.2-8.8-17.3-16.7-26.6-24.3-11.5-9.5-23-18.8-35.3-27.2-12-8.3-24.9-14.9-39.1-18.4-9.9-2.4-20-3.3-30.2-2.8-1.6.1-3.2.2-4.8 0-3-.4-4.6-3.4-3.2-6.1.8-1.6 1.9-3.2 3-4.7.9-1.3.6-2-.8-2.5-1-.4-2.1-.8-3.1-1.3-1.3-.6-2.5-1.4-2.1-3.1.4-1.5 1.7-1.6 3-1.6.5 0 1-.1 1.5-.1 1.6.3 3.2.5 4.8.8 4.4.9 5.8 2.9 5 7.3-.1.5-.1 1-.2 1.8 3.9-.1 7.8.4 11.6.5 18.6.5 35.4 6.8 51.2 16.2 13.2 7.8 25.1 17.3 36.9 27 9.7 7.9 19.2 16.1 28.3 24.7a127 127 0 0 1 18.7 22.6c1.1 1.7 1.4 3.4.3 5.2-1 1.7-2.6 2.3-4.5 2-2.2-.3-4.4-.8-6.6-1.3.4 1.5 1.6 2.3 2.5 3.3 7.6 8.7 14.1 18.2 19.2 28.6 1 2.1 1.9 4.3 2.8 6.5 1.3 3.3 1.7 6.5.2 10.1-.9 2.1-1.1 4.3-4 4.9l2.5 4.7c3.9 7.4 7.1 15 9.7 22.9.5 1.5.9 3.1 1.1 4.7.4 3.2-.6 6-3.8 7.3-1.8.7-1.6 1.7-1.1 3.2 2 5.8 4.1 11.7 6 17.6 2.9 9 4.6 18.3 4.2 27.8-.1 2.6-.5 5.2-1.3 7.7-1.1 3.2-2.9 5.8-6.3 6.8-1.9.6-2 1.7-1.8 3.4.6 4.5 1.1 9.1 1.6 13.7.7 6.3.3 12.6-.5 18.9-.1.5-.2 1-.3 1.4-1.5 3.7-3.7 4.5-7.4 2.3ZM354.8 67c-.3 3.1-2.6 4.3-5.1 5.3-4 1.6-8.3 2.3-12.5 3.4-23.2 5.9-45.3 14.4-65.4 27.7-10.1 6.7-20.1 13.6-29.5 21.4-1.7 1.4-3.4 2.8-5 4.7 1 .6 1.8.3 2.6.2 1.6-.3 3.2-.4 4.8-.2 5.5.6 7.7 5.5 4.5 10-1.2 1.7-2.8 3.2-4.3 4.6a284.83 284.83 0 0 0-29.9 35c-6.1 8.5-10.7 17.8-14.6 27.5 1.1.8 1.7-.1 2.4-.4a9.2 9.2 0 0 1 4.2-1.2c2.2-.1 3.9.7 5 2.6 1.1 1.9.8 3.8-.3 5.6-.8 1.3-2 2.2-3.2 3-1.5 1.1-2.3 2.3-2.1 4.4.5 4.9-.8 9.6-2.5 14.2-3.9 11.1-8.7 21.9-12.2 33.1-3.6 11.5-5.8 23.3-6.9 35.3-.1.8 0 1.7 0 2.6 1.4.3 2.1-.7 3.1-1.2 5.4-3 10.3-.3 10.3 5.7 0 7.6-.7 15.1-1.3 22.6-.3 3.3-.6 6.7-1 10s-.9 6.7-3.7 9c-3-1.3-4.1-3.9-4.6-6.8-1.3-7.2-1.8-14.5-1.7-21.8 0-1.1.4-2.2-.1-3.2-.9-.4-1.4.3-2.1.5-4.6 1.6-8.1-.3-9.4-5-.7-2.6-.6-5.2-.5-7.8 1-17.3 4.4-34.1 10.8-50.3 4.3-11 9.7-21.4 14.5-32.2.2-.8 0-1.2-.9-.8-1.8 1.5-3.7 2.9-5.8 4-2.4 1.2-4.8 1.4-7-.3-2.1-1.6-2.6-3.9-2-6.3.4-2 1-4.1 1.8-6 2.9-7.4 5.9-14.7 8.9-22 3.9-9.3 9.1-17.9 15.2-25.9 6.7-8.8 13.7-17.3 21.4-25.2.7-.7 1.6-1.2 1.7-2.3-.5-.9-1.5-.7-2.3-1-4.6-1.9-6.3-6-4.5-10.6.9-2.4 2.6-4.2 4.4-5.9 3.1-3 6.5-5.7 9.9-8.4 8.9-6.8 18-13.2 27.3-19.3 19-12.3 39.8-20.5 61.7-25.7 7.5-1.8 15.2-2.3 22.8-3.3 1.2-.3 2.4-.5 3.1.7Z" fill="#282828"/><path d="m591.1 624.6-.9-1.2c-1.7-1.7-3.3-1.7-4.6.2-.9 1.3-1.5 2.9-2 4.4-1.7 5-3.3 10.1-4.9 15.2-.5 1.6-1.2 2.9-2.8 3.7-2.7 1.4-4.8 3.6-6.3 6.2-5.7 9.3-13.8 15.8-23.5 20.5-7.1 3.4-12.4 8.6-16 15.5-5.3 10.2-13.4 17.3-24.1 21.5-3.3 1.3-6.5 3.1-9.3 5.1-.8-.2-.9-.6-.9-1.1-.4-12.2-2.3-24.4-2.4-36.7 0-5.7-.9-11.3-1.3-17-.1-1.5 0-3 0-4.5 3.7-1.4 4.7-.9 6 2.7 4 10.6 2 21.5 2 32.3 0 1.1-.5 2.2-.1 3.6 5.3-3.1 9.9-7 14.8-10.4 7.6-5.4 14.8-11.2 21.8-17.3 5-4.3 9-9.6 12.8-14.9 9.6-13.1 19.7-25.8 26.7-40.6 2.9-6.1 5.5-12.5 8.1-18.8 2.2-5.3 4.1-10.6 6.6-15.8 2.4-5 5.9-9.6 5.7-15.6 3.8 0 7.6-.3 11.3-1.4 2.6-.8 3.5.2 2.8 3-3.1 13.6-6 27.3-14.1 39.2-3.2 4.7-4.5 10.1-4.5 15.8 0 1.6.2 3.2-.2 4.8.1.8-.1 1.3-.7 1.6Z" fill="#D1A67F"/><path d="M591.9 623.2c-1.6-4.4-.6-8.8.3-13.1.5-2.4 1.4-4.8 2.9-6.8 6.5-9.1 9.6-19.5 12.4-30 1-4 1.9-8.1 3-12.6-4.9 1.7-9.3 3.1-14.1 1.6-1.7.5-2.9-.4-4.1-1.3-2-1.5-3.6-1.1-5.3.3-5.6 4.3-11.1 8.7-17.3 12.1-5.2 2.8-10.6 5-16.6 2.6-1.9-.8-3 .2-4 1.7-3.5 5.2-7.3 10.3-11.5 15-9.5 10.7-20.6 19.2-33.9 24.7-2.8 1.1-5.6 2-8.7.8-.3-.1-.7-.3-1-.4-.3-.2-.5-.5-.7-.8 0-.2-.1-.3-.1-.5-1.5-2.3-.8-4.2 1-5.9 1.8-1.7 4-2.9 6.2-4 10.1-5.1 19.4-11.5 27.1-19.8 5.2-5.5 9.6-11.6 14.4-17.5.9-1.2 2-2.2 3.2-3.1 2.8-2.1 5.7-2.6 8.6-.5 2.8 2 5.5 1.7 8.4.3 4.4-2.2 8.5-5.1 12.4-8.1 3.1-2.3 6.1-4.7 9.2-6.9 1.3-.9 2.6-1.8 4.2-2.4 3.5-1.2 5.8-.7 8.3 2.1 4.1 4.6 5.5 5 11.1 2.3 7.1-3.4 13.2-8.3 18.9-13.6 4-3.7 7.8-7.6 11.4-11.7 2.4-2.7 5.2-5 7.8-7.4.5-.4 1-.8 1.5-1.1 1-.5 2.2-.7 3.1.1 1.1.9.9 1.9.3 3-.2.3-.3.7-.4 1-2.7 2.7-4.8 6-7.2 9-6.8 8.6-14.3 16.4-23.4 22.6-1.6 1.1-1.8 2.3-1.8 4 .1 13.5-1.7 26.6-6.9 39.2-1.8 4.4-4.2 8.4-7.9 11.5-1.8 1.5-2.6 3.5-3.8 5.5-1.9 3.2-3.5 6.5-7 8.1ZM45.9 891.6c1.2-.7 2.3-.5 3.3.5 1.4 1.4 2.6 3 3.4 4.8C58.3 910.4 68 921 78 931.3c3.3 3.4 6.9 6.4 10.8 9.1 6.5 4.6 13.9 7 21.6 8.3 5.3.9 10.3 2.5 15.1 4.9 9.1 4.4 19 6.2 29 7.2 6.6.6 13.3.7 19.9 2.2 5 1.1 6.8 3.2 6.8 8.1-2.1 3.8-5.7 4.6-9.6 4.3-12.2-1-24.5-1.2-36.4-4.6-5-1.4-10-2.8-14.5-5.5-4.9-2.9-10-4.8-15.6-5.8-12.1-2.1-22.3-8-31.1-16.4-8-7.6-14.9-16.3-21.1-25.4-4.7-6.9-6.8-14.8-7.9-23 0-1.1.1-2.2.9-3.1ZM559.5 23.8c-5.6 1-11.2 1.8-16.9 2.4-3.7.4-4.5 0-6.4-3.4-.7-1.2-2.6-1.8-4.6-1.2-1.8.6-3.4 1.4-5.2 2-1.8.7-3.7 1.5-5.6 2-5.8 1.6-9.7-2-8.8-8 0-.2-.1-.5-.2-1.1-5.7 2.4-11.5 4.3-16.5 8.1-1.9 1.5-3.7 3.1-6.2 1-.7-.6-1.1.1-1.5.5-.8.8-1.5 1.7-2.3 2.4a5.22 5.22 0 0 1-5.6.8c-2.1-.7-3.1-2.4-3.3-4.6-.3-3.1.5-6.1 1.3-9.1.4-1.4 1.2-2.7 1.1-4.7-4.3 2-8 4.6-11.6 7.3-8.3 6.4-14.3 14.6-19.9 23.4-.7 1.1-1.5 2.3-2.4 3.3-.8.9-1.7 1.5-2.9.4-.1-.4-.4-.7-.7-.9-1.2-1.3-.7-2.5 0-3.8.2-2.4 1.2-4.5 2.3-6.6 7-13.2 16.9-23.4 30-30.5 2.7-1.5 5.6-2.7 8.6-3.3 5.1-1 8.2 2 7.5 7.1-.2 1.5-.7 2.9-1.2 4.3-.6 1.9-1.3 3.7-1.9 5.5 2 1.4 3.7 1.7 5.1-.5.5-.7 1.2-1.2 2-1.7C502 9.5 510.8 5.5 520.4 3c2.8-.7 5.4-.5 7.4 2 1.2 1.4 1.3 3.2 1.2 4.8.9.7 1.8.3 2.7.3 6.1-.4 8.5 1.8 8.4 8 1.3 0 2.3-.7 3.4-1.1 3.5-1.2 7.1-2.3 10.8-2.3 1 0 2 .1 2.9.3 2.3.4 4.3 1.3 4.9 3.9.9 2.6-.9 3.7-2.6 4.9ZM158 547.3c.7-.1 1.5-.1 2.2-.1 2.3 0 3.2 1.2 2.1 3.3-1 2-2.4 3.7-4.3 5-3.3 2.4-6.6 4.8-10 7.1-.7.5-1.5.8-2 1.6-2.8 3.6-6.8 6-9.9 9.4-1.4 1.5-2 3-1.4 5 2.2 3.2 1.6 6.3-.6 9.3-3.3 4.5-7 8.7-10.7 12.8-7.1 7.9-14.4 15.7-21.5 23.6-5.4 6.1-9 12.9-10.8 20.9-.5 2.4-1.1 4.9-2.1 7.1-1.2 2.5-2.7 4.8-6 4.6-2-1.2-2.2-3.2-2.3-5.2-.7-12.4 2.4-23.4 10.7-33 7-8.2 14.4-16 21.7-23.9l9-9.9c.9-1 1.3-1.9.7-3.3-1.9-4.5-.5-8.5 2.2-12.1 2.6-3.4 5.7-6.2 9-8.8 5.5-4.2 11.4-7.8 17.8-10.6 2.2-.9 4.2-1.9 6.2-2.8ZM690 475.2c-1.2-2.4-.8-4.8 0-7.2 1.9-5.6 4.5-11 6.8-16.4 4.6-10.9 7.4-22.3 10.4-33.6.6-2.3 1.3-4.5 2.3-6.6 1.3-2.7 3.3-4.7 6.6-4.5 1.6.1 2.1-.6 2.3-2.1 1.4-7.2 1.6-14.5 1.5-21.8-.1-3.3-.2-6.7-.2-10 0-3 .9-4.5 2.8-5.1 1.9-.6 4 .5 5.4 3 2.1 4 2.9 8.4 3.1 12.9.2 3.8.2 7.6.3 11.5-.3 5.6-.9 11.1-2.5 16.5-.5 1.7-1.1 3.3-1.9 4.8-1.5 3-3.9 4.9-7.5 4.2-2.1-.4-2.3.7-2.6 2.1-1.6 7.6-3.6 15.1-5.9 22.6-3 9.7-7.8 18.4-14 26.4-1.6 2.2-3.4 4.5-6.9 3.3ZM234.1 451.2c.3 3.3-.7 6.4-1.9 9.4-6.2 14.4-13.3 28.4-23 40.9-4.9 6.2-10.6 11.7-16.3 17.2-7.3 7-15.3 13.2-23.6 19.1-1.5 1-2.8 2.5-5 2 .6-4.3 2.4-8 4.9-11.4a72 72 0 0 1 9.4-10.5c5.3-4.8 10.6-9.7 15.9-14.5 6.8-6.2 12.8-13.1 17.9-20.7 6.5-9.8 12.9-19.6 18.5-30 .7-1.3 1.2-3.1 3.2-1.5ZM243.1 966.8c.9-.6 1.8-1.2 2.7-1.9 1.7-1.3 3.5-1.6 5.4-.4 2.5 2.6 2.3 4.8-.8 7.9-1.1 1.3-2.2 2.7-3.5 3.9-3.3 3.1-6.4 3.3-10 .7-2.5-1.8-5.2-2.3-8.1-2-4 .4-7.8 1.1-11.6 2.6-2.2.8-4.4 1.7-6.8 1.8-1.4.1-2.8.2-4-.4-4.5-2.1-9.4-2-14.2-2.2-1.9-.1-3.7-.1-5.6-.4-2.6-.4-4.4-1.6-4.5-4.5.9-2.6 3-3.9 5.5-4.3 6.9-1.3 13.8-1 20.4 1.5 1.5.6 2.9.9 4.3.5 6.9-2 13.9-1.8 20.9-.6h.7c3.3-.3 6.3-1 9.2-2.2Z" fill="#282828"/><path d="M441.6 40.8v3.8c-1.8 2.1-4 2.3-6.6 1.7-7.3-1.7-14.8-1.2-22.2-.6-2.7.2-5.5-.1-8.1 1.2.6 1.6 2.1 2 3.3 2.9 1.5 1.1 3 2.1 4 3.8 1.1 2.1.9 4.4-.6 5.8-1.4 1.3-3.4 1.4-5.5.2l-5.1-3-.2-.3-.1-.2c-1.6-1.2-3.2-2.3-4.7-3.6-5.8-5.2-4.7-10.7 2.6-13.4 2.2-.8 4.5-1.3 6.8-1.5 7.9-.7 15.8-.9 23.6.1 3.2.4 6.3 1.3 9.1 2.9 1.2.6 2.4 1.4 3.7.2ZM194.5 365.8c.7-6.5 1.5-13 3.1-19.4.7-2.8 1.4-5.5 3-7.9.9-1.4 1.9-2.8 3.8-2.4 2 .5 2.1 2.2 2.1 3.9 0 3.5.2 7-.2 10.4-1 9.1-2 18.2-2.5 27.3-.3 5.7-.2 11.4-.3 17.1-.3 1.8-.6 3.5-1 5.5-2-.9-2.7-2.5-3.4-4-2.2-4.2-3.1-8.8-3.7-13.5-.8-5.7-.8-11.4-.9-17Z" fill="#282828"/><path d="M211.8 403.3c.1-2.6-.1-5.2-.4-7.7-.6-5 .2-9.8 1-14.7.2-1.3.7-2.4 2.2-2.5 1.4-.1 2.5.4 3.1 1.6.5 1.1 1.1 2.2 1.4 3.4 2.5 12.6 4.9 25.2 7.2 37.8.4 2.3.7 4.7-.7 6.8-4.3-.1-6.5-3.1-8.3-6.4-2-3.7-3-7.8-4-11.8-.6-2.2-1.1-4.4-1.5-6.5Z" fill="#55433C"/><path d="M734 378c-1.1-6.8-2.3-13.6-3.3-20.4-.8-5.5-1.6-11-1.9-16.5-.1-3.4.7-5 2.5-5.6 1.8-.5 3.5.7 4.9 3.6.7 1.4 1.3 2.9 2 4.3 2.4 8.9 3.9 17.9 3.1 27.1-.2 2-.4 3.9-.8 5.9-.2.9-.6 1.9-1.1 2.7-1.7 2.5-3.3 2.5-4.9-.2-.1-.3-.3-.6-.5-.9ZM658.2 516.6c4.3-11.6 10.9-22.1 16.4-33.1.1-.2.2-.4.3-.7.7-1.3 1.8-2.1 3.3-1.8 1.8.3 2.3 1.7 2.3 3.3 0 1.7-.1 3.4-.1 5.2-3.1 8.6-6.6 17.1-11.1 25.1-1.8 3.1-3.7 6.2-6.5 8.5-1.3 1-2.7 2.8-4.5 1.7-1.5-.9-.8-2.9-.7-4.5.1-1.3.4-2.5.6-3.7Z" fill="#282828"/><path d="M395.2 58.7c.2.2.3.4.5.6 1.2 1.1 2.6 2.2 1.8 4-.7 1.6-2.4 1.6-3.9 1.5-5-.2-9.8.8-14.6 1.7-2.9.6-5.6.7-7.9-1.6-.1-3.4.7-4.9 4-6.2 5.5-2.2 11.2-2.6 17-1.1 1 .4 2.1.7 3.1 1.1Z" fill="#55443C"/><path d="M250.2 972.4c.8-2.6 2.8-5 .8-7.9 2.3-1.8 5.3-1.8 8-2.6 5.3-1.5 10.7-2.8 16.2-3.7.7-.1 1.2 0 1.8.2.5.9 1.2 1.9-.6 2-1.7.1-3.5 0-5.2.1-5.4.4-6.9 1.8-7.4 7.2 0 .4-.1.7-.2 1.1-4.4 1.3-8.8 2.9-13.4 3.6Z" fill="#ECBC90"/><path d="M198.3 224.5c.2-.3.3-.6.6-.8.3-.2.7-.5.9-.4.6.3.2.8 0 1.2-.1.3-.4.5-.7.8-.2-.3-.5-.5-.8-.8Z" fill="#94938F"/><path d="M35.4 873.8c-.2-.7-.2-1.5.3-2.1.2-.3.5-.6.9-.2.2.2.1.7.2 1-.5.4-.9.8-1.4 1.3Z" fill="#7E7975"/><path d="M235.8 448.4c.1.2.3.5.4.7-.3-.1-.5-.3-.4-.7Z" fill="#D1A67F"/><path d="m400.4 56.1.2.1-.1.1h-.2l.1-.2Z" fill="#F7A053"/><path d="M358.4 162c6-1.6 11.3-5 16.8-7.8 4.8-2.5 9.4-5.4 14.2-8.1 13.2-7.3 26.7-14.1 40.9-19.3 10.5-3.9 21.3-7.2 32.4-9.2 3.7-.7 7.6-.6 11.4-1.1 9.9-1.1 19.8-.4 29.7-.5 5.2 0 10.3.6 15.5 1.3 3.3.5 6.6.4 10 .8 15.1 1.5 29.6 5.3 43.5 11.3 6.2 2.7 12.5 5.4 18.7 8.2 1.6.7 2.5.5 3.7-1 7.4-9.1 17-14.3 28.6-16.3 11.1-1.9 21 1.2 30.9 5.3 6.2 2.6 11.6 6.7 16.2 11.5 6.7 6.9 11.9 14.8 13.2 24.7.4 3.3.4 6.7.1 10-.5 5.6-1 11.3-2.7 16.7-1.3 4.3-3.2 8.3-5.6 12.1-1.1 1.8-1.3 3.2-.3 5.4 5 11 10.1 22 14.4 33.3 3.3 8.5 5.3 17.5 6.9 26.5 1.2 6.8 1.9 13.6 2.4 20.5.5 5.7.6 11.4.5 17a265.8 265.8 0 0 1-3.9 38.5c-1.3 7.3-3.8 14.3-6.6 21.2-3.6 8.7-7.5 17.2-13.1 24.9-5.4 7.4-11 14.5-17.1 21.4-4.6 5.2-9.6 10-14.4 15-9.2 9.4-19.7 17.2-31.7 22.8-2.1 1-3.8 2.1-4.8 4.3-1 2.3-3.4 3.5-5.5 4.9-7.5 4.7-14.9 9.7-22.8 13.9-8.8 4.8-18 8.7-27.6 11.6-9.7 2.9-19.7 4.7-29.6 6.4-10.1 1.7-20.4 2.4-30.7 1.6-4.9-.4-9.9-.2-14.8-.6-6-.5-12-1.3-17.9-2.3-7.9-1.3-15.8-2.7-23.3-5.7-1.1-.5-2.4-.5-3.1-1.8 1.6-1.3 3.3-.5 4.9-.1 6.9 1.7 13.9 3.2 21 4.1 3 .4 5.9.5 8.7-.8 1.8-.4 3.6-.9 5.5-.5 7.6 4.3 15.9 3.4 24 2.9 18.1-1.2 35.8-5.1 53-11.1 10-3.5 19.8-7.2 30-9.9 7.1-1.9 12.4-6.6 17.4-11.7.9-.9 1.7-1.8 2.7-2.5 2.6-1.8 6-2.7 7.5-5.9 7.2-4.7 13.8-10.3 21.4-14.5 3.9-2.1 7.5-4.8 10.6-8 4.2-4.3 7.3-9.2 8-15.4 1.6.7 1.6.7 2.7-.8.9-1.3 1.6-2.7 2.5-4.1 15.6-16.7 22.5-37.6 28.5-58.9 2.1-7.6 4.1-15.3 4.8-23.2.3-3.8-.3-7.4-.6-11.1-.7-12.1-1.2-24.2-2.7-36.2-1.8-14.4-3.7-28.7-9.8-42.1-2.8-6.3-6.3-12.1-10.2-17.7-.9-1.4-2.3-2.3-3.5-3.3-.9-1.3.4-2.2.7-3.2 8.2-7.7 13-17.3 14.1-28.3 1.7-16-2.8-30.1-16.1-40-12.6-9.4-35.6-9.8-47.1.3-3 2.6-5.4 5.4-6.5 9.2-.3.9-.4 2-1.5 2.4-1 .1-2-.1-3-.4-13.6-8.2-28-14.5-43.6-17.3-13.5-2.4-27-4.9-40.7-6.2-10.2-1-20.3-.2-30.4.4-6-.7-11.8.2-17.6 1.4-10.2 1.4-20.1 3.8-29.8 7.4-3.1 1.1-6.3 1.3-9.4 1.8-8.1 1.3-14.7 4.8-19.3 11.7a8.6 8.6 0 0 1-4 2.1c-2.5.1-4.8.9-7 2.2-3.6 2.2-7.4 3.8-11.7 4.4-6.5.8-10.6 5.4-14.6 10.1-1.1 1.3-2 2.8-3.3 4-1.4 1-2.6 2.4-4 3.5-.2.1-.3.2-.5.2-.4.1-.7.1-1.1.1-1.6-.6-2.8-1.7-3.1-3.5 1.7-3.3-1-6-1.4-8.9Z" fill="#D38847"/><path d="M390.5 596.9c-7.6-7.2-14.9-14.8-22.2-22.4-.7-.7-1.5-1.3-2-2.1-1.9-2.8-3.8-4.2-7.6-2.4-2.9 1.4-6.3-.1-9.3-1.5-6.5-3.1-12.2-7.4-17.8-12-4.1-3.3-7.6-7-11.2-10.8-1.6-.4-2.5-1.6-3.3-2.8-3.1-4.3-6.5-8.3-9.3-12.7-1.4 2.5-3.4 4.4-6.7 4.3-6.7.5-11.6-3.1-16.3-7-4.8-4-8.5-8.9-12.1-14-8.2-11.8-15.7-24.1-22.5-36.7-4-7.6-6.9-15.6-10.2-23.5-.6-1.5-1.1-3-2.1-4.3-1.7-4.8-3.3-9.6-4.3-14.6-.1-.7-.4-1.4-.4-2.2-.1-1.2.2-2.2 1.3-2.8 1.2-.6 2.2-.3 3.1.5 1.6 1.3 2.6 3 3.4 4.8 3 7.3 6.6 14.4 9.9 21.6a301.5 301.5 0 0 0 33.4 55.6c3.2 4.3 7.1 7.9 11.8 10.7 1.7 1 2.1.8 2.6-1 .3-1.1.4-2.2.8-3.2 1.6-4.2 5-5.5 8.9-3.2 1.8 1.1 3.3 2.5 4.8 4.1 4.7 5.1 8.7 10.8 13.2 16.1 6.3 7.4 13.6 13.7 21.6 19.2.7.5 1.5.9 2.3 1.3.2.1.5.1.7.1.6-.9-.1-1.9.1-2.8.4-2.4 1.5-4.2 3.8-5.1 2.2-.9 4.1-.4 5.9 1.1.8.6 1.4 1.4 2.1 2.1 8.6 10.2 18.1 19.7 27.4 29.3 6.9 7.1 14.8 13.2 23.1 18.6.8.5 1.5 1.3 2.9 1.3-.3-1.5-.6-2.9-.9-4.3-.5-2.2-.6-4.4-.2-6.6.4-2.7 2.5-4.6 4.9-5 2.4-.3 4.9 1 5.8 3.7 1.2 3.4 2 6.9 3 10.3 3 4.5 4 9.1.7 13.9-.2.3-.5.6-.7.9l-.8.8c-2.8 2.2-6.2 2.4-9.2 1.4-11.4-3.7-20.3-10.6-28.4-18.7Z" fill="#282828"/><path d="M359.8 438.6c-4.8-1-8.9-3.7-13-6.2a81.72 81.72 0 0 1-26.6-25.4c-5-7.5-8.9-15.7-12.5-24-1.4-3.2-3.4-6-4.9-9.2-2.6-5.7-5.9-11.2-8.2-17.1-2.7-6.9-4.3-14.1-5.5-21.4-1.2-7.5-1.8-15.1-2.4-22.8-1.2-16.2-.3-32.4-.5-48.6 0-2.8.8-5.6.7-8.5-.1-1.4-.4-2.5-1.2-3.7-4.6-6.4-9-13-12.3-20.2-3-6.4-4.8-13.1-5.9-20.1-1.9-12.1 1.3-23.3 5.2-34.3 1.7-4.6 3.5-9.3 5.8-13.6 2.7-5.4 5.5-10.8 9.8-15.2 7.4-7.5 16.2-10.1 26.4-7.7 4.7 1.1 9.3 2.7 13.6 4.9 3.1 1.6 6.6 2.2 9.2 4.6-3.5 1.4-7.1.2-10.5-.1-17.6-1.6-38.6 9.4-44.9 27.5-3.4 9.6-4.6 19.2-2.9 29.2 2 11.8 7.8 21.5 16.6 29.5 1.8 1.7 3.9 3 5.6 4.9.8 1.5 2.1 2.9 2.2 4.8-3.7 9.3-3.9 19.4-5.5 29.1-1.5 9.1-2.5 18.4-3.6 27.6-1 8 .2 15.8 1.3 23.6 2.5 18 7.9 35.2 14.9 51.9 2.1 5.1 5 9.9 7.8 14.8 2.1 3.6 4.8 6.6 8.9 8 1 .6 1.7 1.6 2.2 2.6 1.6 5.7 4.8 10.4 8.9 14.6 6 6.2 12.4 11.9 19.1 17.3 1.1.9 2.5 1.5 2.2 3.2Z" fill="#D38847"/><path d="M301 241.7a53.31 53.31 0 0 1-21.2-27.8c-2.5-7.3-3-14.9-2-22.7 1.1-9.3 4-17.8 9.7-25.3 2.2-2.9 4.8-5.4 7.7-7.4 7.4-5.1 15.3-8.8 24.6-9.4 6-.4 11.8.5 17.7 1 3.3 1.3 6.7 2.4 9.9 4 4.1 2.1 7.7 4.8 11.1 7.8.4.5.7 1 1.1 1.5 2.5 3 2.6 4.3.2 7.5-3 1.9-5-.4-6.9-1.8-5.3-3.9-10.9-7.4-17.4-9-14.4-3.6-27.8-1.9-38.7 8.9-6.8 6.8-9.9 15.4-10.5 25.1-.8 13.6 4.1 24.9 12.8 35 2 2.4 3.8 4.9 5.6 7.4 1.1 1.5 2.1 3.1 1.1 5.1-1.6 1.7-3.2 1.6-4.8.1ZM359.8 438.6c-.4-.8-1.1-1.3-1.8-1.9-8-5.9-15-12.9-21.9-19.9-2.6-2.7-4.4-5.9-6.2-9.2-.7-1.3-.8-2.6-.8-3.9.9-2.5 2.7-1.5 4.2-1 1.9.6 3.2 2.2 4.6 3.6 10.9 11 21.9 21.9 33.9 31.7 8.3 6.8 17.4 12.3 26.8 17.4 13.3 7.2 26.6 14.4 41.3 18.5 8.1 2.2 16.3 4.3 24.5 6.1 1.7.4 4 .4 3.1 3.3-1 1.3-2.4 1.6-3.9 1.6-5.2 0-10.3-1-15.4-2-5.2-1-10.4-2.2-15.6-3.4-11.2-3.6-21.8-8.7-32.2-14-13.3-6.8-26.2-14.4-37.4-24.4-.7-.7-1.6-1.1-2.4-1.7-.3-.2-.6-.5-.8-.8Z" fill="#282828"/><path d="M394.3 529.6c.7-.4.4-1.1.6-1.6 1.5-4.7 5.4-6.1 9.6-3.5.8.5 1.7 1 2.4 1.8 1.5 1.6 2.9 2.7 5.4 1.8 1.9-.6 3.9.8 5.2 2.2 2.6 2.7 3.8 6.1 4 9.7.1 2.2-.6 2.6-2.7 2-.5-.1-1-.3-1.4-.6-1.8-1.4-3-1.5-4.5.8-1.2 1.9-3.7 1.5-5.8.8-1.8-.7-3.2-2.1-5.4-2.7.8 1.6 1.5 3.2 2.4 4.8.7 1.3 1.1 2.7 1.1 4.3 0 3.7-1.4 4.9-5 4.5-1.9-.2-3.5-1.2-5-2.2-3.2-2.2-5.7-5.1-8-8.1-2.9-3.6-5.2-7.5-7.1-11.7-.4-.9-.8-1.8-.9-2.8-.2-3.1.5-5.3 2.5-6 2.3-.9 4.7-.6 6.6 1.1 1.4 1.2 2.6 2.6 4 3.9.6.5 1 1.3 2 1.5Z" fill="#D38847"/><path d="M430.6 598.5c1.4-4 3.1-4.8 7-3.1 2.7 1.2 5.1 3 7.6 4.7 6.9 4.7 14.3 8.3 22.1 11.3 5.1 2 10.5 3 15.9 3.4 3.4.3 6.6.7 9.8 1.6.2.3.5.5.8.8l-.1-.1c1.7 3.9.5 6.7-3.6 8.5-5.2 2.2-10.7 2-16 1.1-10.1-1.7-19.2-6-27.8-11.4-4.7-2.8-8.9-6.2-12.5-10.3-1.7-1.9-3.6-3.6-3.2-6.5Z" fill="#282828"/><path d="M227.5 281.1c1.9-2.1 3.1-3.8 4.6-5.2 2.6-2.6 5.5-1.9 7 1.5 1.1 2.3.8 4.8.9 7.5 1.6 0 2.1-1.2 2.8-2.1 2.9-3.6 6.8-3.4 9.5.4 1.3 1.8 2 3.8 2.3 5.8.6 4.8.8 9.6-.9 14.3-.1.2-.4.3-.8.6-5.2-4.2-5.7-10.5-7.5-16.7a17.5 17.5 0 0 0-3.4 3.8c-.9 1.3-1.8 2.7-2.9 3.8-2.5 2.5-5.3 1.9-6.6-1.4-1.2-3-.9-6.1-.4-9.1.1-.7.5-1.4-.2-2.3-1.8.7-2.8 2.3-4.1 3.5-3.4 3.2-6.3 2.6-7.6-1.8-1-3.3-1.4-6.8-.9-10.3.3-2.4.9-4.9 1.5-7.2.7-2.3 1.9-4.3 3.8-5.8 1.1-.9 2.2-1.2 3.4-.6 1.2.5.8 1.7.8 2.6.3 6-.7 11.9-1.3 18.7ZM581.6 512.2l-3.3 6.6c-1.1 2.1-2.8 3.3-4.2 3.1-1.6-.3-2.9-2.5-3-5-.1-5.2 1.9-9.4 5.7-12.8 2.8-2.6 5.3-2 6.9 1.5.1.3.3.6.5 1.2 1-1.7 1.7-3.3 3.1-4.3 2.3-1.7 4.7-1.2 6.3 1.3 1.7 2.6 1.4 5.5 1.2 8.3-.3 4.5-2.1 8.4-5.5 11.4-1.4 1.3-3.2 2.1-5.1 1.3-1.8-.8-2.6-2.6-2.7-4.6-.1-2.7-.2-5.3.1-8ZM284.4 422.4c1.8.4 3.2 1.4 4.1 3.2 1.6 3.3 3.4 6.6 5 10 2.3 4.9 4.5 9.9 6.7 14.8.9 1.9 1.3 4 1.9 6 .3 1 .5 2-.5 2.7-.9.6-1.9.5-2.8 0-2.3-1.2-4.6-2.6-6.1-4.7-5.3-7.4-9.8-15.1-11.5-24.2-.4-2.3-.5-4.4 1-6.4.5-.7 1.1-1.3 2.2-1.4ZM484.5 563.4c-.7 1-.4 2-.4 3-.2 3.4-2.5 4.9-5.5 3.7-3.7-1.4-8.7-8.7-8.5-12.7.1-1.8.9-3.7 2.8-4.5 1.9-.7 3.9-1 5.6.4.7.5 1.3 1.2 1.9 1.8.8.8 1.3.7 2.1-.2 2.9-3.2 6.4-3.3 9.2-.2 1.9 2.2 3 4.8 2.8 7.8-.2 2-.9 3.7-2.7 4.6-1.8.9-3.2-.3-4.8-1.2-1.1-.6-1.3-2.1-2.5-2.5ZM554 513v-9c.4-3 2.9-5.7 5.4-5.8 2.3-.1 5.5 3.1 5.7 6 .5 7.3-1 14.2-4.1 20.8-.3.7-.7 1.3-1.2 1.8-1 1.1-2 1.2-3.2.2a7.59 7.59 0 0 1-2.5-5.9c-.2-2.7-.1-5.4-.1-8.1ZM208.8 281.8c-1-2-1.4-3.5-1.6-5.1-1.2-6.9-.9-13.8.1-20.6.6-3.9 1.5-7.7 2.3-11.6.2-.7.6-1.4.9-2 .8-1.4 1.4-3.2 3.4-2.9 1.9.3 2.2 2.1 2.7 3.7.2.7.4 1.5.3 2.2-1.5 11.7-3.7 23.3-7 34.7-.1.3-.5.7-1.1 1.6ZM457.2 566.2c.1-1.2-.3-2.5.6-3.6 2.4-2.7 4.5-3.9 7.8-.7 1.3 1.3 2 2.9 2.8 4.4 1.8 3.4 3.5 6.8 4.9 10.4 1.1 2.9.2 5-2 5.9-1.1.4-2.1.2-3.2-.2-5.2-1.9-11.4-10.9-10.9-16.2ZM335.3 102.2c0 .8-.2 1.5-.6 2.2-2.1 3.2-3.9 6.6-7.2 8.8-1.1.8-2.1 1.8-3 2.8-1 1-2.1 1.8-3.4 2.1-1.4.3-3 .5-4.2-.8-1.3-1.3-.9-2.6-.4-4.1 2.2-6.1 6.4-10.8 11.1-15.1 1.2-1.1 3-1.8 4.8-.7 1.8 1 2.6 2.7 2.9 4.8ZM484.8 89.5c0-3.5 1.1-6.5 3.7-8.9 1.5-1.3 2.8-2.8 4.2-4.2 1-1 2.1-1.7 3.5-2 1.3-.3 2.4-.1 3.4 1 1.1 1.1.7 2.3.1 3.4-.9 1.6-1.3 2.8.2 4.6 1.5 1.7.5 3.9-.9 5.4-2.8 2.7-5.9 4.9-9.5 6.2-2.5.9-4.4-.5-4.6-3.2-.2-.8-.1-1.6-.1-2.3ZM583.4 71.7c-3.8 1.8-6.7 3.2-9.8 4.5-3.3 1.4-6.7 2.6-10 4-1.2.5-2.3.8-3.6.7-2.7 0-4-.7-4.5-2.4-.5-1.8.3-3.7 2.2-5.1 3.1-2.4 6.7-3.6 10.5-4.4 3.1-.7 6.2-1.2 9.5-.3 1.9.7 3.3 1.7 5.7 3ZM674.5 421.7c.1-4.5.8-8.8 3-12.8.9-1.6 2.1-3 4.3-3 2.3.1 4 1.5 3.6 3.7-1 5.7-2.1 11.4-4.1 16.8-.3.9-.8 1.8-1.4 2.6-1.4 1.9-2.7 1.8-4-.2-1.4-2.1-1.6-4.6-1.4-7.1ZM494.4 71.1c.1 1.1-.4 1.9-1.3 2.5-.9.6-1.9 1.2-2.9 1.6-7.3 2.5-14.6 5.2-22.2 7-.4.1-.7.2-1.1.2-1.2 0-1.5-.5-1-1.7.8-1.9 2.3-3.3 3.9-4.4 6.2-4 13-6.5 20.1-8 2.5-.4 4.4.9 4.5 2.8ZM663.2 114.4c-4.6-.5-8.9-2-12.3-5.3-1.7-1.6-2.3-3.7-1.4-5.3.9-1.8 2.6-2.7 4.6-2.6 3.1.1 6 1.2 8.7 2.8 2.2 1.3 4 2.8 5 5.3 1.3 3.1.5 4.7-2.8 5.2-.6 0-1.2-.1-1.8-.1ZM347.1 118.1c-3.2 0-3.8-.7-3.7-3.9.1-1.8 1-3.3 1.8-4.8 1.8-3.2 3.7-6.4 6.9-8.5 1.3-.8 2.6-.9 3.8-.2 1.3.8 1.8 1.9 1.2 3.5-.8 2.2-2.2 4.4-1.1 7 .2.4 0 1.1-.3 1.4-2.3 2.7-4.3 5.9-8.6 5.5ZM332.2 452.2c.1 2.3-1.6 3.6-3.8 3.1-3.9-.9-6.3-3.7-8.3-6.9-1-1.6-1.6-3.3-2.8-4.8-1.5-2-.3-4.6 2.3-4.9 1.6-.2 3.1-.1 4.6 1 4.4 3.2 6.5 7.8 8 12.5ZM696.9 412.2c-.2 3.1-1.3 6.3-3.4 9.2-1.4 2-2.5 2-4.2.4-3.3-3.2-3.8-11.4-1-14.9 2.3-2.8 6.8-2.1 8.2 1.3.4 1.1.3 2.4.4 4ZM716.9 235.5c-3.3-.6-4.7-2.7-6.3-4.3-2.6-2.7-4.9-5.6-5.9-9.3-.7-2.5-.2-3.9 1.7-5.1 1.6-1 3.1-.6 5 1.1 3.5 3.2 4.8 7.4 5.4 11.9.3 1.7.1 3.6.1 5.7ZM316.4 445.7c.6 2.6-.7 4.2-2.6 5.5-2.2 1.5-4.5.7-6.2-.7-4.4-3.5-5.8-8.3-5.7-13.7 0-1.3.6-2.5 2-2.9 1.4-.4 2.4.4 3.2 1.4 1.3 1.8 2.2 3.8 3 5.9.2.6.4 1.1.7 1.7 1.5 4.1 1.5 4.1 5.6 2.8ZM728.8 225.3c.1 1.6.1 3.2-.9 4.6-.7 1.1-1.7 1.7-2.8.8-3.8-3.2-6.7-7-6.7-12.2 0-3 2.6-5 5.5-4.3 1.7.4 2.8 1.6 3.3 3.2.7 1.7 2 6 1.6 7.9ZM574.9 98.8c5.5-.2 9.2 3 13.2 5.7.9.6.8 1.5-.1 2.1-.5.4-1.1.7-1.6.8-4.7 1.2-9.2 1.1-13.6-1.1-1.3-.6-2.1-1.6-2.5-3-.8-2.7.2-4.3 3-4.5h1.6Z" fill="#D38847"/><path d="M430.6 598.5c2.9 6.4 8.2 10.4 13.7 14.4.6.4 1.3.6 1.7 1.3-5.1 3-14.2 2.2-17.8-1.5 2.5-3.4 2.6-7.1 1.2-10.9-.4-1-.6-2.1-.9-3.2.7-.1 1.4-.1 2.1-.1Z" fill="#D0A67F"/><path d="M571.9 93.6c-1.2-.1-2.5.2-3.6-.3-1.6-.6-2.9-1.7-2.8-3.5.1-1.7.7-3.3 2.7-4 3.5-1.3 6.9-1.4 10.4 0 1.5.6 3 1.4 2.9 3.4 0 1.8-1.3 2.5-2.7 3.2-2.2 1-4.5 1.4-6.9 1.2Z" fill="#D38847"/><path d="M677.5 126.1c.1-3.1 1.4-4.2 4-3.3 2.1.7 3.9 1.8 5.2 3.8 1.3 2 1.9 4.3 2.5 6.5.4 1.5-.1 3.1-1.3 4-1.2.9-2.6-.1-3.7-.9-2.2-1.6-3.7-3.9-5.4-6-1-1.2-1.5-2.7-1.3-4.1Z" fill="#D48847"/><path d="M441.6 44.5c.4.2.7.5.7.9-.4-.1-.7-.4-.7-.9Z" fill="#282828"/><path d="M359.8 438.6c.3.2.6.5.9.7-.5 0-.7-.3-.9-.7Z" fill="#D38847"/><path d="M393.2 1006.7c8.7-10.4 20.2-16.1 32.9-19.8 9.1-2.7 18.4-3.9 27.8-4.4 4.2-.2 8.4.4 12.5 1.3 5.7 1.3 11.3 2.5 17 3.1.7 1.1-.1 1.8-.3 2.5-1.2 4.1.5 7.7 4.5 9.3 1.5.6 3.1.8 4.7.7 4-.1 7.9.2 11.8.7.9.6 2 0 3 .7-.3 1.9-1.9 2-3.2 2.4-8.9 2.5-17.1 6.3-24.3 12.4a27.4 27.4 0 0 1-17.6 6.2c-9.4 0-18.8 1.5-28.2.8-13.7-1-26.9-4.4-38.5-12.2-1.1-.8-3-1.5-2.1-3.7Z" fill="#F7A053"/><path d="M22 891.6c-.2 6.5.9 12.9 1.5 19.3.8 11.5 3 22.8 8 33.3 7.6 16 18.2 30 30.4 42.7 9.8 10.1 21.9 17.2 33.9 24.4 2 1.2 5.1 1.5 5.7 4.6-13.8-3.9-26.8-9.3-38.2-18.4-8.9-7.1-16.5-15.3-23.1-24.6-7.9-11-15.6-22-21.6-34.2-5.8-11.8-9.1-24.2-8.8-37.6.2-9.7.7-19.3 3.1-28.7.9-3.5 2.2-6.8 3.7-10.1 2.8-5.9 5.2-12.1 8.6-17.7 1.6-2.7 3.5-5.3 6.2-7.9.2 2 .4 3.5.5 5l1.2 13.3c.2 1.6 0 3-1.5 3.9-1.1-.7-1.2-2-1.8-3.7-5.4 11.9-7.1 24-7.8 36.4Z" fill="#D1A67F"/><path d="M101.6 1015.8c-4.6-2.8-9.2-5.6-13.8-8.5-7.7-4.7-15-9.9-21.9-15.7-7.9-6.5-13.9-14.6-20-22.7-2.2-3-4.3-6-6.5-9a90.61 90.61 0 0 1-14.7-33.3c-.6-2.9-1.3-5.8-1.2-8.7 0-1.2-.1-2.4-.5-3.7-.4-1.2-.6-2.4.5-3.4.7.9-.1 2.1.7 3 2.8 11.2 7.2 21.8 12.7 32 12.1 22.6 28.9 40.8 51.2 53.6 14.5 8.3 29.8 14.6 45.8 19.2 11.3 3.3 22.6 6.7 34.2 8.6 7.6 1.2 15.2 2.1 22.9 2.6 16.1 1.1 32.1 2 48.2 3.1.5.8-.3 1-.7 1.4-8.8.5-17.5 1.1-26.3 1.3-12 .3-24-.5-35.9-1.9-25.1-2.9-49.7-8.5-73.4-17.2-.5-.2-.9-.5-1.3-.7Z" fill="#EEBD91"/><path d="M393.2 1006.7c1.5 2.9 4.5 4.1 7 5.7 3.2 2.1 7 3.2 10.6 4.3 5.7 1.7 11.3 3.5 17.2 4.4 5.2.8 10.4.9 15.5.4 5.3-.6 10.6-.5 15.9-.5 6.8 0 12.9-2.1 18.7-5.3 1.6-.9 2.8-2.4 4.3-3.5 6.2-5 13.5-7.7 21-9.8l2.1-.6c.3-.1.6-.2.9-.4-.7-.8-1.8-.2-2.3-1.1 3.7-.3 7.2 1.1 10.8 1.6 5.3.7 10.6 1.9 15.8 2.9.6.9-.3 1-.7 1.3-5.9 1.2-11.2 3.9-16.8 5.9-6 2.2-12.1 4.5-18.4 5.6-3.5.6-6.9.5-10.4.2-.9-.1-1.7-.3-2.6-.3-6.6.5-9.5 5.4-6.9 11.5.4 1 .9 2 1.5 3.2-2.8 1-5.4.7-8.1.3l-21.2-3.6c-4.1-.7-7.5.5-9.6 4.1-2 3.5-4.4 3.9-8.1 3.1-6.3-1.5-12.4-3.6-18.4-5.8-4-1.5-7.2-4.2-10.6-6.8-.6-.9-1.2-1.7-2.3-1.6-3.2-1.8-6.4-3.7-10-4.8-1.5-.5-2-1.3-1-2.7 2-2.8 3.5-5.7 6.1-7.7Z" fill="#D38847"/><path d="M22 891.6c-1.4-1.8-.9-3.9-.6-5.7 1.1-7.2 1.9-14.4 3.7-21.4 1-4 3.1-7.5 5.5-11.7.5 2.5.9 4.4 1.2 6.2-4.1 9.7-7.8 19.6-9.2 30.1-.2.8-.4 1.6-.6 2.5Z" fill="#ECBB90"/><path d="M43.7 829.1c1.1 1.2.6 2.6.6 3.9-.1 9 .5 17.9 2.1 26.8.2 1.2.5 2.5-.5 3.5-2.4-11.3-2.9-22.7-2.2-34.2Z" fill="#D2BBA8"/><path d="M238.5 1034.3c.2-.5.5-1 .7-1.4 2.2-.3 4.4-.1 6.6.1.2 1.9-1.7.5-2.1 1.3-1.7.1-3.5.3-5.2 0Z" fill="#DCB189"/><path d="M243.7 1034.2c.5-.8 1.7-.4 2.1-1.3 1.8-.2 3.5-.2 5.3.3-2.4.6-4.8 1.5-7.4 1Z" fill="#AE9575"/><path d="M398.3 1021.8c1.6-.8 1.9-.6 2.3 1.6-.9-.3-1.7-.7-2.3-1.6Z" fill="#CEA181"/><path d="M24.2 913.9c-1.1-.8-.7-1.9-.7-3 .9.8.8 1.9.7 3Z" fill="#D1A67F"/><path d="M530.1 1006c.2-.4.5-.9.7-1.3.5 0 1.1-.1 1 .5-.1.8-1 .8-1.7.8Z" fill="#875C40"/><path d="M428.2 612.7c5.1 2.2 10.4 3.1 15.9 1.6.6-.2 1.2 0 1.8-.1 6.2 3.6 12.6 6.7 19.4 9.1 7.1 2.5 14.3 3.6 21.8 2.1.4-.1.7-.1 1.1-.2 4.5-1.3 5.9-3.3 5.4-8.1 3.9 1.2 7.5.3 11.1-1.3 12.5-5.6 23.1-13.8 32.1-24.1 4.4-4.9 8.3-10.2 11.9-15.6 1-1.5 1.9-2.2 3.9-1.3 3.8 1.8 7.7 1.4 11.5-.1 5.9-2.2 10.9-5.8 15.9-9.5 2.6-1.9 5.1-3.9 7.7-5.8 1.4-1.1 2.7-1.6 4.1 0 1.2 1.3 2.9 1.9 4.4 2.8 1.7 2.1 1.4 4.2.1 6.5-5.1 9.3-9 19.2-12.9 29.2-6.2 15.9-14.6 30.5-25 44-3.8 5-7.4 10.2-11.3 15.1-3.6 4.7-7.6 8.9-12.1 12.9-10.6 9.3-22.3 17.2-33.5 25.7-.7.5-1.5.9-2.5 1.5-.5-1.5-.4-3-.2-4.4 1.4-8.5.4-17.1.6-25.6 0-1.8-.6-3.6-1.4-5.3-.3-.6-.5-1.2-.8-1.7-.7-.9.5-2.3-.7-3.1-1.4-.9-2.9-.3-4.4-.5-.4-5.4.3-10.9-.7-16.3-.3-1.5-.5-2.9-.9-4.4-.3-1.2-1.1-2-2.4-2-1.3 0-2.1.9-2.4 2-.6 2.1-.9 4.4-.9 6.6-.1 4-.2 7.9-.9 11.8-.8 4.6-.4 9.4-.6 14-.2 7.4-.6 14.8-.6 22.3 0 11.9-2.1 23.7-1.4 35.6.4 6 .5 12.1 0 18.1-.8 9.7 2.1 19.2 2.6 28.8.9 17.5 5.1 34.5 8.1 51.7.4 2.3.6 4.7.4 7-1 9.6-1.6 19.2-3.1 28.8-.3 1.8.1 4.5-3.2 4.2-.7-.2-1.4-.6-2.1-.7-2.7-.4-4 1-3.3 3.6.4 1.8 1.1 3.5 1.7 5.2.6.6 0 1.6.7 2.3 0 .2.1.5.1.7-3 4.7-7.1 7.6-12.9 7.5-1.5-3.2-2.5-6.7-4.5-9.7-1.2-1.7-2.5-3.4-4.1-4.8-1.1-.9-2.2-1.8-3.6-1-1.5.8-1.8 2.3-1.5 3.9.4 1.9.9 3.8 1.4 5.7.4 1.7 1.2 3.2 1.3 5 .6.6.1 1.6.6 2.3.1.5.1 1 .2 1.5-5.6 2.8-11.6 1.7-17.5 1.6-2.1 0-4.2-.4-6.3-.7-6.6-.8-12.9-2.3-17.3-8-.8-1.1-2-1.9-3.1-2.7-3.3-2.4-6-5-5.7-9.5-.1-.3-.4-.7-.4-1-.5-2-1.4-3.4-3.9-2.4-.1-4.9-1.6-9.3-2.6-13.7a7.7 7.7 0 0 0-2-3.9 3.5 3.5 0 0 0-3.7-1.1c-1.4.4-2.2 1.5-2.4 3-.3 1.9.1 3.7.6 5.5 1.2 4 2.9 7.9 3.3 12.1.3 5-.8 6-5.5 5.8-18.2-.6-36.4.1-54.3 4-.7.2-1.4.4-2.2.5-3.6.6-4.5-.3-4.2-3.9.7-8.5 1-17 1.1-25.6.2-11.8-2.3-22.8-6.3-33.7-6.4-17.4-15.8-33-28.3-46.8-7.5-8.3-16.7-14.4-27-18.7-11.7-4.8-23.7-8.7-36.4-10.3-3.1-.4-6.2-.5-9.3-.3-4.8.3-6.8 1.9-8.1 6.5-.3 1.2-.8 1.7-2 1.7s-2.5-.3-3.7.2l-1.1.3c-1.2.5-2.3 1.2-2 2.7.3 1.5 1.3 2.2 2.9 2.4 4.8.7 9.3 2.3 14 3.5 17.6 4.5 31.3 15.1 43.2 28.1 3.4 3.7 6.5 7.8 9.6 11.8 10.5 13.4 17.1 28.6 21 45 2.1 8.7 3.2 17.5 3.9 26.4.5 6.4-.6 12.6-2.6 18.6-1.1 3.4-2.3 6.8-2.6 10.4-.1 1.4-.8 1.9-2 2.3-1.7.5-3.3 1-4.8 1.9-1.4.9-2.7 2-2.2 3.9.5 1.8 2.1 1.9 3.6 1.9 5.1-.2 10.1 0 15.1 1.5 2 .6 4.1 1 5.9 2.1.4.5.5 1.2.3 1.7-2.3 5.3-.1 9.4 3.5 13.2 1.9 1.3 3.7 2.8 5.4 4.3.7.6 1.7 1.3 1.2 2.4-.4 1-1.5.4-2.3.5-.9.1-1.9-.2-2.8.3-1.7.5-3.4 1.1-5.1 1.6-24.4 5.9-49.2 10.5-73.5 16.8-7.6 2-15.4 2.9-23.4 3.4-10.5.6-21 1-31.4 1.5-7.1.3-14.3 1.1-21.4 1.2-11.5.1-22.6-2.1-31.9-9.8-.8-.7-1.8-1.5-3-.7-1.1.8-1.6 1.8-1.3 3.2.1.6.7 1.1.1 1.8-4.8-2-9.3-4.5-13.8-7.2-4.9-2.9-9.7-5.9-14.6-8.8-4.7-2.8-8.9-6.2-13.1-9.7-3.7-3.1-7.1-6.6-10.6-9.9-6.5-6.2-11.4-13.6-15.5-21.5-5.3-10.4-9.9-21-12.5-32.4-1.1-4.7-1.3-9.5-2-14.2-.7-4.5-.6-9.1-1.1-13.6-.6-5.5-.8-11.1.3-16.6.2-.8.2-1.7.2-2.6-.1-4.2 0-8.4 1.3-12.5.3-.8.2-1.7.2-2.6-.4-5.7 1-11.3 1.8-16.9.5-4.3 1.1-8.5 1.8-12.8.7-4.6 1.7-9.2 2.5-13.8 1.2-6.3 1.9-12.7 3.7-18.8 4.1-14.5 8.8-28.8 16-42.2 3.2-5.9 7.2-11.2 11-16.7 4.3-6.2 8.8-12.2 13.4-18.2 5.7-7.5 11.5-14.8 17.1-22.3 3-3.9 5.7-8 8.5-12.1 7.2-10.6 14.9-20.9 22.8-31 8.3-10.6 16.3-21.3 24.7-31.9 7.4-9.4 14.7-18.9 22.5-28 6.6-7.8 13-15.8 19.2-24 6.6-8.6 12.9-17.5 18.9-26.5 1.2-1.7 1.8-3.8 3.7-5.4 1.9 3.2 3 6.7 4.5 10a140.6 140.6 0 0 0 17.6 29.9c9.2 11.9 19.7 22.5 30.3 33.1 4.9 4.9 10.5 9 16.8 12.1 3.2 1.5 6.5 2.4 10 2.3 2.8-.1 5.7 0 8.6 0 7.3-.1 14 2 19.9 6 8.2 5.5 16.2 11.3 24.4 16.9 7 4.8 14.9 7.7 23.1 9.7 3.9 2.9 7.7 5.8 11.6 8.6 4.2 3.1 8.5 6 13.2 8.1 4.1 1.8 8.1 2.1 12-.3.1 0 .4-.2.6-.5Z" fill="#EEBD91"/><path d="M580 785.9c-1.2.7-2.4 1.3-3.5 2.1-1.4 1-2.1 2.4-1.7 4.2.5 1.9 2 2.4 3.7 2.6 1 .1 2 .1 3 .2 5.7.7 9.3 4.2 9.7 9.9.3 3.8 0 7.7-.1 11.5 0 .7-.3 1.2-1 1.3-.6.1-.9-.4-1.1-.8-.2-.3-.4-.7-.5-1-5.5-11.2-19.1-10.6-26.9-3.7-1.8 1.6-2.3 3.4-1.6 4.9.7 1.4 2.6 2.3 4.9 2 1.8-.3 3.6-.8 5.5-1.1 4.7-.8 7.2.7 7.9 5.5.5 3.3.2 6.7.3 10 0 .9-.5 1.4-1.2 1.6-1 .4-2.1.7-3.2 1.1-1.4.5-2.3.2-2.8-1.4-1.9-6.4-6.7-9.6-13-10.7-4-.7-8.1-1-12.1.3a9.5 9.5 0 0 0-4.6 3c-1.6 2.3-.8 4.7 1.8 5.6 1.1.4 2.2.4 3.3.3 3-.2 5.9.7 8.7 1.7.7.2 1.4.6 2 1 2.5 1.6 2.5 3.7-.1 5.2-3.9 2.3-8.2 3.8-12.6 4-7.2.4-14.3 1.3-21.5 1-3-.1-6 0-8.8-.9-1.8-1.1-.6-2.2.2-3 3.8-3.8 4.5-8.5 3.9-13.4-1.5-12.8-2.3-25.6-4.2-38.4-.9-6.2-3.4-11.9-5-17.9-2-7.3-3.3-14.7-3.4-22.3 0-3.5 1.3-5.8 4.1-7.8 7.3-5.1 15.1-9.5 22-15.2 4.3-3.5 8.5-7.3 11.8-11.8 7.4-10.1 16.3-19 23-29.7.6-.9 1.2-2.1 2.5-1.8 1.2.3 1.4 1.7 1.6 2.7.9 5.9.9 11.8 1.9 17.7 2.9 17.4 3.4 34.9 4.6 52.5.4 6.3 1.8 12.5 3.3 18.6.6 2.3 1 4.6 1.3 6.9.3 2-.5 3-2.1 3.5Z" fill="#EEBD91"/><path d="M213.2 744.9c1.3-1.2 2.9-.3 4.6-.9-.4-2.3.2-4.4 2.1-6 2.1-1.8 4.5-2.4 7.2-2.6 8.2-.4 16.3 1 24.1 3.2 10.1 2.8 20.1 6 29.4 11.1 8.3 4.6 15.6 10.2 21.7 17.6 3.8 4.6 7.4 9.2 10.9 14 6.3 8.5 10.5 18.1 14.5 27.9 2.7 6.6 5.2 13.4 6.3 20.5.5 3.4 1.3 6.8 1.2 10.3-.1 4.7 0 9.4 0 14.1 0 6.3-.6 12.5-1.3 18.8-.2 1.9.4 2.6 2.3 2 5.5-1.5 11.1-2.3 16.7-3.3 2.8-.5 5.6-.5 8.5-.8 10.6-1.3 21.2-.9 31.9-.9h.4c1.2-.2 2.6 1.3 3.5.3 1.2-1.3 2.2-3 2.2-4.9 1.1 2 1.2 3.9 0 5.9-.5.8-.7 1.9-.9 2.8-.2 1-.6 1.4-1.8 1.4-9.2 0-18.3 1.1-27.4 1.8-10 .7-20 1.7-30 1.6-7-.1-14.1-.2-21.4.4.1-2.1.3-4.2.3-6.2.1-13.1-2.1-25.9-5.6-38.4-3.7-13.2-9-25.7-16.2-37.4-3.8-6-8.4-11.3-13-16.7-3-3.5-6.2-6.8-9.3-10.1.7-2.8-.4-4.6-3-5.5-2.8-1-5.2-2.8-8.1-3.5-3.5-2.1-6.6-4.7-10.2-6.7-12.3-6.8-25.4-10.3-39.6-9.8ZM580 785.9c.8-.9 1.4-1.6 1.2-3.2-.9-5.8-2.9-11.5-3.7-17.3-.4-3.3-.8-6.6-1.3-9.9-1.2-6.7.2-13.6-1.3-20.3-.3-1.2-.1-2.5-.1-3.7.1-5.7-1.1-11.3-1.8-16.9-.7-5.6-1.5-11.2-2-16.8-.4-4.4-.4-8.9-1.6-13.2-1.3-.2-1.3 1-1.7 1.6-3.2 5.3-7 10.1-11.1 14.8-3 3.5-5.8 7-8.5 10.7-7 9.5-15.4 17.3-25.4 23.5-4.7 3-9.4 6-13.8 9.3-1.4 1-1.9 2-1.9 3.7-.2 8.3 1.2 16.4 3.5 24.4 1.8 6.5 4.5 12.8 5.3 19.6.7 5.5 1.1 11 1.7 16.5.3 2.9.5 5.9.9 8.8.7 5 1.4 10 1.4 15.1 0 4.3-1.4 8-4.9 10.6-.8.6-.6 1.2-.3 1.9-1 .2-1.9-.4-2.8-.6-1.6-.5-2.3-1.4-2.3-3.2 0-9.8-2.1-19.4-3.4-29.1-.9-6.6-1.6-13.2-2.5-19.9-.8-6.2-1.8-12.5-2.6-18.7-.9-7.1-1.9-14.2-2.6-21.3-.8-7.6-1.4-15.3-2.2-22.9-.1-.7-.1-1.5-.1-2.2-.1-4.4-.1-4.5 4.4-4.5 9.6.1 17.4-4.1 24.8-9.7 6.4-4.8 10.8-11.2 14.2-18.3 2.6-5.4 6.3-9.3 11.6-12 4.1-2.1 7.9-4.6 11.4-7.6 4.7-3.9 8-8.8 10.2-14.4 1.1-2.8 1.9-5.6 3-8.4.8-2 1.7-4 4.6-3 1 .4 2.1-.8 3.3-.2.6 1.3.3 2.7.1 4-1 9.1-1 18.3-.8 27.4.4 23 .4 46.1.2 69.1-.1 7.9.5 15.8 1.2 23.7.3 2.8.2 5.7.2 8.5 0 2.9 0 2.9-2.9 3.7-.6.4-1.1.4-1.6.4ZM486.3 864.8c2.2-.6 2-2.6 2.2-4.2.8-6.5 1.7-12.9 2.2-19.4.3-3.2.4-6.4.8-9.6.5-4.2-.6-8.4-1.6-12.4-1.7-6.6-2.1-13.4-3.6-20-1-4.8-1.9-9.7-2.8-14.5-.2-1-.2-2-.2-2.9.2-8.2-1.3-16.2-2.4-24.2-1-6.8-.8-13.5-.1-20.3.1-.7.3-1.5.2-2.2-1.4-8.9-1.2-17.9-.4-26.6.8-9 .9-18 1.3-27 .4-8.5 1.3-17 1.4-25.5 0-.6.2-1.2.7-1.7v34.2c0 7.7.8 15.3 1.2 23 .1 1.6.2 3.2.1 4.8-.7 6.2.1 12.4.2 18.5.1 8.7 1.3 17.3 2 25.9.5 5.7 1 11.3 1.6 17 .9 7.2 2 14.4 2.6 21.7.9 9.5 2.2 18.9 3.5 28.3 1.1 7.9 1.7 15.8 1.3 23.7-.4 6.5-.4 13.1-2.7 19.4-.2.6-.2 1.2-1.1 1.7-1.8-2.8-3.6-5.8-6.4-7.7ZM410.4 867c.1.1.3.2.3.3-.2 3.9 2.8 5.8 5.3 7.8 2.3 1.9 4.5 3.8 6.5 6 1.8 2 4.1 3.1 6.7 3.7 8.1 1.9 16.3 2.6 24.6 2.3 2.2-.1 4.3-.9 6.6-.7 1.1 3.2 1.6 6.4 1.3 9.8-.3 3.8-1.8 5.5-5.5 6.6-2.6.8-5.3 1.2-8 .9-7.2-.9-14.5-1-21.6-3.1-7.4-2.2-13.1-6.4-15.6-13.9-.9-2.6-1.4-5.3-1-8 .4-4.1.5-7.9.4-11.7ZM470.5 883.4c5.1-1.2 9.1-4.1 12.9-7.5 1.9 4 1.8 8.2 1.3 12.3-.6 4.7-6.2 9.2-10.8 9.1-1 0-1.7-.4-1.6-1.5.1-4.2-1.2-8.2-1.8-12.4Z" fill="#D1A67F"/><path d="M320.3 930.1c1.3-1.3 3.1-.3 4.8-1-1.7-2.6-5.1-3.6-6.2-6.5 3.6.3 7.2-.3 10.7.8.6.2 1.2.3 1.8.5 5 2 6.1 5.5 2.9 10.5-2.1-1.3-4.2-2.8-6.6-3.6-2.4-.8-4.9-.3-7.4-.7Z" fill="#D0A57F"/><path d="M319 922.7c-4.7-2.7-7.1-6.9-4.1-13.5.2-.4.3-.9.4-1.4 4.5 1.3 8.6 3.4 12.5 6.7-2.4 1.2-4.8 1.3-6.7 2.7-2.6 1.7-2.9 2.4-2.1 5.5Z" fill="#D0A57E"/><path d="M263 761.5c.3-.4.7-.8 1.2-.6 3 1.4 6 2.6 8.9 4.2 3.1 1.8 3 1.9 1 5.3-3.8-2.9-7.4-5.9-11.1-8.9Z" fill="#E9B88D"/><path d="M302.6 952.7c-.3-.3-.4-.7.1-.8 5.7-1.2 11.4-2.5 17.1-3.7.5-.1.9.3 1.2.6-.4.4-1.1.3-1.5.7-5.4 2.1-11.1 2.7-16.9 3.2Z" fill="#DEAF87"/><path d="M483.3 875.2c-.8-.6-.8-1.4-.7-2.3.7.6.8 1.4.7 2.3ZM460.1 884.9c-.8-.6-.7-1.4-.6-2.3.7.6.8 1.4.6 2.3ZM319.6 949.5c.3-.6.9-.7 1.5-.7-.4.6-.9.8-1.5.7Z" fill="#D1A67F"/><path d="M301 534.6c2.7-1 5-2.6 6.8-5.3 4.4 5.8 8.5 11.1 12.6 16.5-.1 1.1-.8 1.3-1.8 1.4-4 .5-7.4-.7-10.7-2.9-3.7-2.4-6.7-5.6-10.2-8.3.9-1.2 2.6-.1 3.3-1.4Z" fill="#EDBD91"/><path d="M134.8 578.6c-2.3-1.9-2.4-1.9-.7-3.9 3.5-4.1 7.4-7.6 11.9-10.4.3.2.6.6.3.9-3.2 4.1-6.5 8.2-9.7 12.4-.4.6-1 .9-1.8 1Z" fill="#E8BA8F"/><path d="M243.1 966.8c-2.5 2.9-5.5 3.7-9 2.1-.5-.3-1-.7-1.7-1.2 3-.5 5.8-.9 8.5-1.6.8-.3 1.6-.2 2.2.7Z" fill="#E4B38A"/><path d="M493.7 617.2c-.5-.1-.7-.3-.8-.8.4.1.7.3.8.8ZM467.7 483.3c-.3-1.9-1.7-2-3.3-2.3-10.4-2.2-20.7-4.7-30.8-8-12.8-4.2-24.4-10.8-36.2-17.1-8.6-4.7-17.1-9.6-24.6-15.8-10.8-8.9-21.3-18.2-30.8-28.4-2.3-2.4-4.7-4.8-7.1-7-1.6-1.4-3.4-2.7-5.6-.8-1-.4-1.4-1.2-1.5-2.2-4.1-9-9.2-17.6-12.4-26.9-6.7-19.2-12.1-38.7-14.1-59.1-1.1-11.8 1-23.2 2-34.7 1.1-12.1 3.3-24 2.5-36.2.2-1.1-1-2.1-.5-3.3.4-1.5-.2-2.6-1-3.8-2.3-2.9-4.5-5.9-6.8-8.8-5.7-7.3-10.4-15.1-11.7-24.5-1.5-11.3-.1-22 6.5-31.6 6.3-9.2 15.4-13.9 26.2-15.1 12.5-1.4 23.8 2.1 33.7 9.9 2.2 1.8 4.5 3.6 7.6 3.4.7 1.3 1.8 2.2 3 3 .2.3.5.3.7 0 5.2 1.1 10.1-.2 14.7-2.5 10-5 20.9-7.6 31.3-11.7 8.2-3.3 16.3-6.5 24.7-9.1 19.1-5.8 38.6-9.6 58.6-11.3 10.7-.9 21.5-.8 32.2-1.4 12-.7 24 .5 35.9 2.4 4.9.8 9.9.5 14.7 1.3 2.3.2 4.2 1.3 6.1 2.5 4.7 3 9.8 4.6 15.1 5.9 2.2.5 2.9-.3 3.1-2.1.9 0 1.8-.2 2.5.7 1.4 2.5 2.8 2.2 4.4.1 10.2-14.1 34.3-15.7 47.9-6.3 8.9 6.2 13 15.5 13.9 26 1 11-2.2 20.8-9.8 29-3.7 3.9-3.3 5.7 1.5 8.4.2 1.2-.9 1.6-1.5 2.2.7 4.8 3.5 8.7 5.7 12.8 7.9 14.4 12.7 29.8 14.5 46.1.9 8.4 2.8 16.7 2.8 25.1-.1 14.7 2 29.6-3.4 44.1-4.6 12.4-7.4 25.5-13.7 37.2-3.3 6.1-7 12-10.4 18-1.3 2.3-2.4 4.6-3.4 7-.9 2.2-.1 3.2 2 3.5-.9 2.2-2.2 4.1-4 5.9-.4-.7-.8-1.3-1.1-1.9-2.2-.2-3.8.8-5 2.6-5 7.6-12 13.1-19.9 17.5-6.5 3.6-11.4 9.1-15.9 14.8-2.6 3.2-5.2 6.1-9.2 7.7-4.2 1.7-7.7 4.9-11.6 7.2-2.7 1.6-5.5 3-8.5 3.5-10.4 1.8-20.3 5.5-30.2 8.9-15.1 5.2-30.7 7.7-46.4 9.5-8.7 1-17.5 1.4-25.9 4.5-.8.3-1.7.4-2.6.3-1.6.7-3.2 1-4.9.9Z" fill="#EEBD91"/><path d="M576.3 142.7c-8.6-.8-17.2-.9-25.7-2.7-3-.6-6.1-.9-9.2-1-7.3-.1-14.7-.5-21.9.1-7.2.5-14.3.2-21.5.7-12.5.8-24.9 2.8-37.2 5.2-12 2.4-23.8 5.3-35.3 9.6-6.1 2.3-12.2 4.7-18.3 7.2-3.1 1.3-6.3 2.2-9.5 3.1-7.1 1.9-13.6 5.3-20.3 8.1-2.3 1-4.7 1.5-7 2.3-2.5.8-4.9.5-6.9-1.3 1-1.5 2.2-2.9 3.9-3.7 1.8 1.1 2.8-.3 3.8-1.3 2-2 4.3-3.7 6.5-5.5 2.6-2.1 5.5-3.7 9-4 5.6-.4 10-3.2 13.8-7.1 1.1-1.2 2.2-2.4 3.7-3 1.3-.5 2.7-1.1 4-1.6 3-.4 5.7-1.6 8.3-3 4.6-2.4 9.5-4.2 14.9-3.9 2.5.1 4.9-.6 7.2-1.4 9.5-3.7 19.4-5.8 28.9-9.5 4-1.6 8.3-2.4 12.7-1.8 2.4.3 4.7-.3 7-.6 10.1-1.6 19.9.3 29.9 1.6 11.3 1.4 22.5 3.1 33.8 4.7 8 1.1 15.6 3.8 23.1 6.8 1.1.2 2.4.5 2.3 2Z" fill="#D1A67F"/><path d="M472.6 482.5c3.6-2.3 7.8-3.1 11.9-3.7 9.4-1.3 18.9-2.3 28.3-3.6 14.2-2 28.2-5.1 41.6-10.4 6.5-2.5 13.1-4.6 19.9-5.7 5.4-.9 10.1-3.1 14.6-6.1 2.3-1.5 4.5-3.1 6.8-4.5.9-.6 1.9-1.4 2.9-1.5 2.8-.3 4.4-2.2 5.8-4.3 5.8-8.2 12.8-15 21.7-19.8 6.2-3.3 11.1-8.2 15.2-14 .7-1 1.4-2 2.2-3 1.6-1.8 2-1.7 4.2 0 .5 6.4-3.2 10.9-7 15.3-3.4 3.8-7.5 6.8-12 9.2-4.7 2.6-9.1 5.5-13.3 8.8-2.5 2-5.2 3.7-8 5.2-2 2.1-4.8 3.1-6.7 5.4-4.2 4.8-8.7 9.1-14.2 12.4-2.9 1.8-6.1 2.8-9.3 3.6-7.7 1.8-15.2 4.6-22.5 7.4-14.2 5.4-28.8 9-43.7 11.3-8.8 1.4-17.7 2.2-26.6 1.8-3.5-.2-6.8-1.1-10.1-2.2-.8-.2-1.5-.7-1.7-1.6ZM653 401.9c-1.2.3-2.1 1.4-3.6 1.2-.7-2.4.4-4.5 1.3-6.6 1.7-4 4-7.7 6.3-11.4 6.5-10.6 12.1-21.6 15.7-33.5 2.4-7.7 4.6-15.4 7-23.1 2.5-7.9 1.8-15.9 1.3-24-.1-1-.3-2-.2-3 1.1-12.4-1.7-24.4-2.9-36.5-1.3-13.1-5.3-25.4-10.7-37.3-2-4.3-4.4-8.3-6.6-12.5-.7-1.4-1.5-2.9-2.1-4.3-.5-1.1-.6-2.2.5-3 2.3.1 3.4 1.7 4.6 3.3 7.7 10.7 12.9 22.5 16.2 35.2 1.6 6.4 2.4 12.8 3.1 19.4.7 6.6 1.5 13.3 2.5 19.9.5 3.1.6 6.2.5 9.3-.1 6.6.6 13.1 1.2 19.6.4 5.1-.4 10.2-1.6 15.1-3.6 15-7.7 30-13.9 44.2-4.8 10.3-10.3 20.1-18.6 28ZM576.3 142.7c-2.7-1.8-5.9-2.6-8.9-3.6-7.9-2.7-16-4-24.2-5.4-12.8-2.1-25.8-2.7-38.5-5.5-1.7-.4-3.4-.3-5.2-.3-5.7.1-11.4.4-17 1.3-2.7.5-5.3-.7-8.1 0-2.3.6-4.7.8-6.8 1.8-9.6 4-19.9 5.9-29.6 9.8-1.7.7-3.6 1.2-5.4 1-6.4-.5-11.9 1.9-17.3 4.8-1.1.6-2.2 1.1-3.3 1.7-1.4.7-2.6.5-3.8-.5-.1-1.8 1-3 2.2-4.1 5-4.6 10.7-7.9 17.7-8.5a47 47 0 0 0 13.3-3.2c7-2.7 14.4-4.1 21.8-5.4 1.2-.2 2.5-.1 3.7-.2 5.9-.3 11.9-.7 17.8-1.7 8.1-1.1 16.3-2 24.4-1.2 11.3 1.1 22.7 1.6 33.7 4.7 2.4.6 4.9.7 7.3 1 11.6 1.5 22.7 4.8 33.3 9.8 5.7 2.7 11.6 5 16.6 9 .5 1 .9 2 1.3 2.8-.5 1.1-1.4.9-2 .7-5.4-1.3-10.9-2.2-15.7-5.2-2.4-1.4-4.6-2.9-7.3-3.6ZM660.4 205.8c-1.9.2-3.8 0-4.8-2-1-2.1-.3-3.9 1.2-5.4 3-3.2 5.7-6.5 7.5-10.5 6-13.8 4.7-26.8-4-39-4.3-6-10.5-8.9-17.4-10.5-6.5-1.5-13.1-1-19.5.6-6.5 1.6-11.8 5.1-15.8 10.5-.2.3-.4.6-.7.9-.9.9-1.6 2.6-3.2 1.9-1.5-.6-1.2-2.3-1.2-3.6 2.1-9.3 8.6-14.6 17.1-17.4 12.6-4.2 24.9-2.9 36.5 3.5 7.2 4 11.9 10.3 15.1 17.8 6.6 15.1 5 29.6-2.7 43.8-2.1 3.6-4.9 6.6-8.1 9.4Z" fill="#282828"/><path d="M404.3 149.4c-2.3 3.3-5.3 5.9-8.5 8.2-2.5 1.8-5.5 2.4-8.4 2.7-4.1.3-7.3 2.3-10.2 4.8-2.5 2.1-4.8 4.3-7.3 6.4-1.5 1.2-1.8 1-2.5-1.2 3-4.3 6.3-8.3 10.5-11.4 2.4-1.7 4.9-3 7.8-3.3 4.8-.4 8.7-2.5 12.7-4.9 1.8-1.1 3.7-2.1 5.9-1.3Z" fill="#56443D"/><path d="M484.7 124.7c-5.7 2.6-11.7 2.9-17.8 1.7.6-1 1.7-1.2 2.6-1.2 4.8-.3 9.4-1.4 14.2-1 .4 0 .7.3 1 .5Z" fill="#CB9870"/><path d="M600.9 449.8c.9-3.4 3.9-4.3 6.7-5.4.6.6.2 1.1-.3 1.5-1.9 1.7-3.8 3.4-6.4 3.9Z" fill="#DDB184"/><path d="M363.5 173.9c-.3.4-.5.4-.7 0h.7Z" fill="#D1A67F"/><path d="M428.2 612.7c-.1.4-.4.6-.9.7.2-.4.5-.7.9-.7Z" fill="#D0A67F"/><path d="M306.8 244c.7 9.8-.6 19.5-1.7 29.2a813.8 813.8 0 0 0-3.2 31.4c-.7 8.6.8 17.1 2.3 25.4 3.4 18.4 8.4 36.4 15.9 53.6 2 4.6 4.2 9 6.8 13.2.9 1.4 2.1 2.9.7 4.7-2.9.4-4.6-1.6-6.3-3.3-3-2.9-4.8-6.6-6.8-10.1-6.8-12.2-11.1-25.4-14.9-38.7a187.9 187.9 0 0 1-6.3-34.9c-.7-7.8.5-15.3 1.3-22.9 1.4-11.9 3.2-23.7 4.9-35.6.6-3.8 1.3-7.6 3.5-10.8 1.2-3 1.8-3.2 3.8-1.2Z" fill="#282828"/><path d="M306.8 244c-.8-1.1-1.7-1.2-2.6-.1-.4.5-.8.9-1.2 1.3-1.4-.8-1.8-2.1-2.1-3.6 1.5.3 3 .7 4.3-.3.6 1 2 1.4 1.6 2.7Z" fill="#E0AD81"/><path d="M211.4 249.1c-.4 3.3-.8 6.6-2.3 10.5-.9-4.4 1.3-7.3 2.3-10.5ZM212.3 246.9c-.1 0-.2.1-.3.1 0-.1-.1-.2-.1-.3 0 0 .2-.1.3-.1 0 .1 0 .2.1.3Z" fill="#DBA06C"/><path d="M426 1016.5c-3.2 0-5-1.1-5-3.1-.1-3.4 3-6.6 6.2-6.6 2.6 0 4.6 2.1 4.7 4.7 0 2.6-2.9 5-5.9 5Z" fill="#D48847"/><path d="M472.6 999.4c-1.6.2-2.8-.9-3.7-2.2-1-1.5-.3-2.8.5-4.1 1.8-2.9 5-4 7.5-2.8 2.5 1.2 3.2 3.4 1.7 5.7-1.3 2-3.2 3.4-6 3.4Z" fill="#D48947"/><path d="M443.6 1009.4c1.8-.9 3-2.4 4-4.3 1.4-2.5 4-3.6 6.8-3.9 1.5-.2 2.8.4 3.3 1.8.5 1.3.4 2.7-.8 3.7-1.3 1.1-3 1.8-4.5 2.5-2.4 1-5.1.7-7.6 1.2-.5.1-1-.2-1.2-1ZM413.8 1009h-1.5c-1.8-.2-2.3-1.2-1.6-2.8 1.1-2.1 6.1-4.8 8.5-4.7 1.5.1 2.6.9 3 2.3.4 1.5.1 2.9-1.6 3.7-1.6 1-4.2 1.6-6.8 1.5Z" fill="#D48847"/><path d="M435.2 1000.6c3-4.3 7.2-5.5 11.5-6.4 1.2-.3 2.2.5 2.7 1.6.6 1.4-.6 2.1-1.5 2.6-3.8 1.9-7.8 3-12.7 2.2Z" fill="#D48947"/><path d="M196.3 712.5c-.7 1.1-.9 1.6-1.2 2-3.4 4.4-8.8 4.3-11.9-.3-2.1-3.1-3-6.6-2.7-10.2.4-5.3 1.2-10.4 4.5-15 3.5-4.9 9.9-4.5 11.9 1.2.2.5.5.9.6 1.4.4 1.6 1.1 2.1 2.9 1.7 5.6-1 8.2.6 10.1 6.1.5 1.4.9 2.8 1.3 4.2.4 1.5 1 1.8 2.6 1.6 6.7-1 12.4 6.1 10.1 12.4-.9 2.4-1.6 2.9-4 3-2.4.1-4.4-.9-6.1-2.3-1.4-1.2-2.3-1.3-3.7 0-2.6 2.4-7.3 2.2-10.1-.3-1.5-1.4-2.9-2.8-4.3-5.5ZM388.1 694.4c.1 3.2-1.2 5.7-2.6 8.2-1.3 2.4-2.3 4.5-.1 7 1.1 1.3.8 3.3 1 5 .6 5.3.5 10.6-1.2 15.7-.9 2.8-2.4 5.2-5.3 5.6-2.9.3-4.7-2.1-5.9-4.4-1.9-3.7-2.8-7.6-1.9-11.8.6-3 1-5.7 0-8.9-1.6-5.2.1-10.2 4-14.3 1.6-1.7 3.4-3.3 5-5 1.5-1.6 3.2-1.9 5.1-1.2 1.8.7 2 2.4 1.9 4.1ZM380.5 786.7c-3-2.9-3.5-6.2-1.5-10.7.7-1.6 1.6-3.1 2.6-4.5 2.1-3 5.2-4.2 7.6-3.1 2.2 1 3.8 4.7 3.2 7.7-.3 1.7-.8 3.4-1.2 5-.2.9-.3 1.7.4 2.4 3.7 3.7 3.9 8.7 4.6 13.4 1.1 7.4 1 15 1.6 22.4.2 2.9.8 5.8 1.3 8.7.6 3.9-.4 7.3-3.3 10.1-1 1-1.8 1.3-3.2.4-1.7-1.1-3-2.5-3.8-4.4-1.1-2.6-1.9-5.3-2.1-8.2 1.5-.3 2.2.8 3.1 1.6 1.2 1.1 2.6 1.9 4.1 2.5.9.3 1.9.8 2.8-.1 1-1 .4-2.1-.3-3-3.2-4.5-6-9.4-11.2-12 1.1-2.1.6-4.3.7-6.5.1-1.8 0-3.7.1-5.5 1.6-.3 2.4 1 3.4 1.8.7.5 1.3 1.3 2.2.5.8-.6.7-1.6.4-2.4-.9-2.3-2.2-4.4-3.5-6.5-1.7-2.7-2.7-5.4-3-8.6-.3-3.4-1.2-6.7-3.9-9.4-1.9 2.9.4 5.9-1.1 8.4Z" fill="#D1A67F"/><path d="M263.1 584.8c-.5 3.8-1.5 7.5-3.1 11-2 4.5-4.6 8.8-6.4 13.4-.6 1.6-1.6 2.8-3.5 2.8-2.1 0-2.9-1.5-3.8-3-1.8-3.2-.8-6.5-.2-9.8 1-5.2 2.8-10.2 5.8-14.7.9-1.4 2-2.5 3.2-3.6 1.5-1.4 3.4-2.3 5.4-1.3 2.1 1 2.9 2.9 2.6 5.2Z" fill="#FFE7D1"/><path d="M370.1 694.6c-1.2-3.8-1.3-7.8.3-11.5a57 57 0 0 1 12.9-19.2c.9-.9 1.9-1.6 3.1-1.9 1.9-.5 3.1.5 3.1 2.5 0 1.4-.8 2.5-1.5 3.7-3.8 6.1-8.4 11.6-11.9 17.8-1.7 3-3.4 5.9-5.1 8.9-.3-.2-.6-.2-.9-.3Z" fill="#D1A67F"/><path d="M128.1 824.5c-2.9-.7-4.5-2.4-5.6-4.5-3.3-5.9-4.8-12.4-5.9-19-.2-1.3.4-2.5.9-3.5.7-1.4 1.8-2.8 3.7-2.6 1.8.2 2.3 1.7 2.6 3.2 1.5 6.7 3.1 13.4 4.4 20.2.4 1.9.4 3.9-.1 6.2ZM169.3 629.5c-.8 6.9-2.4 13.6-5.4 19.9-.4.9-1.1 1.2-2.1.8-1.2-.5-2-1.4-2.5-2.6-2.7-5.2-1.6-10.3.4-15.4.8-2.2 1.8-4.4 3.9-5.8 1.2-.8 2.6-1.7 4.1-.8 1.4.9 1.8 2.3 1.6 3.9ZM532.8 622.8c-.8 2-1.6 3.8-2.4 5.7-.6 1.4-1.4 2.4-3.1 1.9-1.5-.4-1.6-1.7-1.6-3-.1-2.8 1.2-5.3 2.1-7.8.5-1.3 1.1-2.5 1.6-3.7 1-2.4 1-2.5 3.6-1.7 1 .3 1.3-.3 1.8-.7 2.2-1.7 4-2 5.7-1 1.8 1.1 2.7 3.3 2.1 5.9-.4 1.6-1.1 3.1-2.1 4.3-2.7 3.1-4.5 3.2-7.7.1ZM109.6 896.8c-3.7-1.2-5.4-3.8-7.4-5.8-3-3.1-4.9-7.1-7-10.8-.5-1-.8-2.1-1-3.2-.4-2.3.7-4.4 2.6-5.2 1.6-.6 3.9.2 5.1 2.1 1.6 2.4 2.5 5.1 3.5 7.7 1.9 4.6 3.2 9.4 4.2 15.2Z" fill="#FFE7D1"/><path d="M380.5 786.7c-.6-2.6-1-5.3-.7-8 .1-.7.2-1.6.9-1.9.8-.4 1.3.5 1.8 1 2.7 2.8 3.8 6.4 4 10.1.2 3 1.1 5.5 2.6 7.9 1.1 1.8 2.1 3.6 3.2 5.4.6 1.1 1.1 2.2 1.1 3.5-.1 1.2-.7 2.1-1.8 2.6-1 .4-1.5-.4-2.2-1-1.1-1.1-2.3-2.2-3.5-3.2-1.5-2.7-3.4-5.1-4-8.2-.2-1.1-.7-2.2-.3-3.3.7-2-.2-3.4-1.1-4.9Z" fill="#55443D"/><path d="M426 783.5c0-1.2-.1-2.5.5-3.6.6-1.2 1.3-2 2.8-2.1 1.4 0 2.7.1 3.4 1.6.5 1 1.1 2 1.4 3 1.1 4.5 2 9.1 3 13.7.1.6.1 1.2 0 1.8-.2 1.9-1.2 2.5-3.1 1.7-1.8-.8-3.1-2.1-4.1-3.6-2.4-3.9-4-7.9-3.9-12.5Z" fill="#FFE7D0"/><path d="M420 731.6c0 1.5-.2 3.2-1.5 4.3-.9.7-3.2-.8-4.4-2.7-2.2-3.3-2.4-7.2-2.9-11-.3-2.1-.1-4.2-.1-6.3 0-1.2.4-2.2 1.3-2.9 2.1-1.8 4.4-1.2 5.2 1.4.3 1 .3 2.2.6 3.3.7 2.3.1 4.7.8 7 .6 2.1.7 4.5 1 6.9Z" fill="#FFE7D1"/><path d="M225.8 844.5c0 .6.1 1.3 0 1.9-.3 1.9-1.8 2.7-3.5 1.7-1.2-.7-2.3-1.7-2.8-2.9-2.2-4.9-3.5-10-1.6-15.4.4-1.1.9-2.1 1.8-2.8 1.7-1.4 4-1 4.9 1.1.3.7.5 1.4.6 2.1 0 4.7-.4 9.5.6 14.3ZM244.4 839.2c0 1.4.1 2.7 0 4.1-.1 1.4-1 1.7-2.1 1.1-.8-.4-1.6-.8-2.1-1.4-4.3-5.3-5.6-11.4-4.2-18 .4-1.7 1.1-3.2 3-3.2 2.1-.1 3 1.5 3.4 3.3 1.1 4.6 2.2 9.2 2 14.1Z" fill="#FFE7D0"/><path d="M266.1 601.8c-.3-3.1.1-5.7 1.6-8.1 1.4-2.1 3-3 4.9-2.6 1.9.5 3.1 2.3 3.2 4.8.1 4.6-2 8.8-3 13.2-.3 1.3-1.3 1.3-2.3 1.2-2.2-.2-3.9-2-4.3-4.9-.3-1.2-.1-2.5-.1-3.6Z" fill="#FFE7D1"/><path d="M277.2 699.9c-.4-2.3.4-4.4 1.5-6.4.6-1 1.4-1.7 2.5-2.2 2.7-1.3 5.2 0 4.7 2.9-.8 5.3 0 10.6-1.4 15.8-.6 2.2-1.4 2.6-3.4 1.3-1.8-1.2-2.6-3-3.1-4.9-.5-2.1-1.1-4.2-.8-6.5Z" fill="#FFE6D0"/><path d="M385.1 815c1.8-.3 3.1.5 4.3 1.7 3.1 3.2 5.8 6.7 8.1 10.4.7 1.1 1.5 2.4.3 3.7-1.1 1.2-2.4.9-3.8.5-3-1-5.1-3.2-7.4-5.3-1-1.9-2-3.8-2.6-6-.5-1.9-.3-3.5 1.1-5Z" fill="#55443D"/><path d="M350.8 792.8v-2c.2-1.8.5-3.5 2.5-4.1 1.8-.5 3.1.2 4.4 2.5 1.9 3.5 3.1 7.2 3.5 11.1.1 1.2.2 2.6-1.3 3.2-1.3.5-2.6.3-3.8-.7-3.2-2.8-4.9-6.5-5.3-10Z" fill="#FFE7D1"/><path d="M171 739.7c1.2-4.4 3.1-8.5 6.5-12 1.2-1.2 2.7-1.7 4.4-.7 1.5 1 2.1 2.7 1.1 4.5-2 3.8-4.6 7.3-7.4 10.6-.8 1-1.9 1.8-3.2 1-1.3-.6-1.6-1.8-1.4-3.4Z" fill="#56453D"/><path d="M138.2 807.8c.1-3 1.7-5.6 3.7-5.8 1.7-.2 3.7 1.9 4.2 4.9.4 2.5.5 5 2.1 7.3.8 1.2-.7 2.2-1.6 3-1.2 1-2.4.8-3.7-.1-3.3-2.3-4.1-5.7-4.7-9.3Z" fill="#FFE7D0"/><path d="M132.9 886.5c0 3.2-1.5 4.2-3.9 3.1-.8-.3-1.5-.8-2-1.6-2.9-4.2-3.6-8.8-2.9-13.7.1-.8.4-1.7 1.4-2 1-.3 1.7.4 2.2 1.1 2.6 4.3 4 8.9 5.2 13.1Z" fill="#FFE6D0"/><path d="M375.3 798.5c0 2.4.4 4.9-.7 7.3-.8 1.9-1.8 2.2-3.4 1-1.4-1.1-2.5-2.3-2.9-4.2-.9-4.1-.3-7.8 2.4-11 .8-.9 1.7-1.5 2.9-1 1.1.4 1.4 1.4 1.5 2.4.3 1.8.2 3.6.2 5.5Z" fill="#FFE6CF"/><path d="M555.4 598.6c-.2-3.1.8-5.8 2.4-8.4.8-1.3 2.2-2.3 3.7-1.8 1.5.5 3 1.8 2.7 3.6-.5 3.5-1 7.1-3.6 9.9-.9.9-1.7 2.3-3.4 1.6-1.4-.6-1.9-1.8-1.9-3.3.1-.6.1-1.1.1-1.6ZM437.2 726.9c-1.1-2.7-3.1-4.1-5.7-5.3-3.3-1.6-5.9-5.4-4.1-9.6.3-.7.6-1.3 1.2-1.9.9-.9 1.9-1.7 3.2-1.3 1.5.4 2.3 1.5 2.3 3 0 1.6.4 3.2.6 4.8.2 1.4.5 2.6 1.6 3.6 1.8 1.8 1.9 4.1.9 6.7ZM292.8 602.7c.3 3.2-1.3 6-1.9 9-.5 2.2-3.3 2.3-4.7.5-2.5-3.3-1.1-11 2.4-13.3 2-1.3 3.6-.7 4.1 1.6.2.7.1 1.4.1 2.2ZM566.6 601.8c0-3 .9-5.8 2-8.6.8-1.8 2.6-3 4-2.7 1.4.3 2.2 1.8 2.3 4.1.2 4-1.7 7.1-4.2 9.9-.7.8-1.6 1.7-2.8 1.2-1.2-.5-1.2-1.7-1.2-2.9-.1-.3-.1-.6-.1-1ZM138.8 871.3c0-1.6-.1-3.6 1.7-4.1 1.6-.4 2.6 1.2 3.4 2.4 2.3 3.5 3 7.5 3.7 11.5.3 1.6-1.2 2.5-2.6 1.8-1.3-.7-2.4-1.7-3.2-3-1.8-2.6-3-5.4-3-8.6ZM164.5 817.1c-1.7-1-1.9-2.4-2.5-3.5-.8-1.8-1.4-3.7-2.1-5.5-.5-1.1-.8-2.5-1.7-3.2-1-.9-1.9.7-2.9 1-.3.1-.8.1-1-.1-.6-.3-.3-.8-.2-1.3.7-1.6 1.9-2.9 3.3-3.9 1.9-1.3 4.4-.5 5.8 1.4 1.8 2.6 2.1 5.6 2 8.4 0 2.1 0 4.4-.7 6.7ZM456.5 779c.4 2.9-.6 5.6-1.5 8.3-.3.7-.6 1.4-1.5 1.4-.7 0-1.1-.5-1.4-1.1-1.9-4.7-2.4-9.5-.1-14.3.4-.8 1-1.5 2-1.4 1 .1 1.4.8 1.9 1.6.9 1.8.5 3.6.6 5.5ZM513.3 633.2c-2.3-4.3-1.8-9.7 1.2-13 .9-1 1.9-1.8 3.2-1.3 1.4.5 2 1.6 2.1 3.2.2 2.6-.6 4.8-2.2 6.8-1.2 1.6-2.4 3.2-4.3 4.3ZM302.4 696.9c-.2-1.6.3-3.2 1.2-4.8.9-1.5 2.3-2.4 4-1.9 1.6.4 2.2 1.7 2.3 3.4.1 2.5-.6 4.9-1.4 7.2-.4 1.1-1.1 1.8-2.5 1.9-1.4 0-2.3-.5-3-1.7-.6-1.3-.6-2.6-.6-4.1ZM182 634.4c.1-.4.2-1.1.4-1.6.8-2.3 2.9-3.8 4.7-3.4 2.3.5 4.1 3.3 3.7 5.7-.2 1.1-.4 2.2-.8 3.2-1 2.8-3.8 3.5-5.8 1.3a7.97 7.97 0 0 1-2.2-5.2Z" fill="#FFE6D0"/><path d="M199.8 638c.6-2.6.6-5.5 2.8-7.7 1.6-1.6 3.2-1.2 3.8.9.3 1.1.2 2.2-.1 3.3-.7 2.3-1.7 4.4-2.8 6.4-.4.8-1 1.5-2 1.3-1-.2-1.3-1.1-1.5-1.9-.2-.6-.2-1.4-.2-2.3ZM312.2 707.2c.7-4.6 2.3-8.7 5.1-12.3.5-.6 1.1-1.2 1.9-.9.9.3 1.3 1.2 1.1 2.1-.4 1.9-1.1 3.8-2.1 5.5-1.1 2-2.3 4.1-3.5 6.1-.4.6-.8 1.4-1.7 1.1-.8-.2-.8-1.1-.8-1.6Z" fill="#FEE6CF"/><path d="M186.3 736.4c-.1-1.7.4-3.4 1.4-5.1.5-.8 1.1-1.3 2.1-1.2 1 .1 1.6.8 1.7 1.7.4 3.1-.9 6-1.1 9.1-.1 1.1-2.1 1-3.1-.1-1-1.2-1-2.7-1-4.4Z" fill="#5A473F"/><path d="M199.2 737.3c-.1-1.2.5-2.4.4-3.6-.1-1.4 1-2.2 2.3-2.5 1.4-.3 2.3.6 2.9 1.8 1.3 2.6-.7 7.1-3.5 8.1-.9.3-1.4 0-1.7-.8-.4-1.1-.5-2-.4-3Z" fill="#5D4A41"/><path d="M535.3 754.6c0 2.4-1.5 4.6-3.5 5.1-1.7.5-3.2.1-4.3-1.4-1.8-2.7-2.8-5.8-3.2-9-.2-1.2.4-2.4 1-3.5.9-1.6 2.4-2 4.1-1 3.9 2.2 5.3 5.8 5.9 9.8ZM544.1 756.3c-2.2-4-4.1-7.4-5.9-10.9-.9-1.7-1.1-3.6.2-5.2 1-1.3 2.4-1.5 3.7-1 1.9.7 2.7 2.4 2.9 4.4.1 1.1.2 2.3-.1 3.3-.7 2.6-.9 5.1-.1 7.6.1.4-.2.8-.7 1.8Z" fill="#D1A67F"/><path d="M518.8 390.8c-1.8 3.1-2.7 5.7-3.6 8.3-4.5 12.9-12 23.5-22.9 31.6-6.2 4.6-13.1 7.1-21 7.3-9.7.3-18.7-1.6-26.7-7.2-11.2-7.7-18.1-18.4-20.6-31.8-.9-4.6 0-9.3.9-14 2-10.5 5.6-20.5 10-30.2 3.7-8.3 9.1-15.2 16.3-20.9 3.8-3.1 7.2-6.8 11.4-9.5 9.9-6.2 20.4-11.4 32.1-12.9 5.3-.6 10.5-2.2 15.6-2.2 11.4-.2 22.7-1.6 34.1-.9 8.6.5 16.4 3.6 23.6 8.2 6.4 4.1 12.7 8.1 18.2 13.4 3.4 3.2 6 7.2 8.5 11.2 6.1 10 10.1 20.9 13.1 32.2 2.3 8.7.2 16.9-4.9 24.3-4.2 6-10.2 9.6-16.3 13.1-3.5 1.9-7.1 3.7-10.9 4.6-8.1 1.9-16 1.1-23.7-1.8-7.4-2.8-14.4-6.6-20.7-11.4-2.8-2.1-5.5-4.2-7.9-6.7-1.6-1.4-2.9-2.8-4.6-4.7Z" fill="#FFE7D1"/><path d="M302.5 196.6c.3-2.5-.2-5.5.5-8.4 1.3-4.9 4-8.6 8.1-11.5 3.6-2.5 7.2-4.5 11.7-5.2 6.7-1.1 12.3.4 16.6 5.7 3.3 4 3.7 8.9 3.1 13.7-1.1 8.9-4.6 16.8-10.2 23.9-2 2.6-4.5 4.5-7.6 5.5-2.3.8-4.8 1.3-7.2 1.8-2.6.5-5.3-.4-7.6-2.2-4-3.2-5.6-7.7-6.8-12.4-.7-3.6-.6-7.1-.6-10.9Z" fill="#D1A67F"/><path d="M593.3 255.1c3.7 5.2 5.8 10.8 5.5 17.3-.2 4.9-1.6 9.5-4.2 13.7-6.2 9.8-19.6 11.2-27.3 2.5-5.7-6.5-8.6-14.3-8.7-23.1.9-2.5-.3-5 .5-7.7 1.4-4.6 3.8-8.3 7.6-11.1 3.7-2.7 7.7-3.7 12.3-2.4 6 1.9 11.3 4.8 14.3 10.8ZM407.3 293c3.6 6.1 4.8 12.9 5 19.9.2 7.1-1.3 13.6-8 17.6a15.1 15.1 0 0 1-11.4 2c-9.4-2.1-15.2-7.9-17-17.4-.2-1.2-.5-2.4-.7-3.6-1.5-5.7-.9-11.2 1.2-16.6 2.8-7 8.6-10 15.4-10.2 6.4-.1 12.5 1.8 15.5 8.3Z" fill="#282828"/><path d="M635.6 149.4c5-.4 8.8 2.2 12.3 5.2 4.8 4.2 8.6 9.1 9.9 15.7 1.4 7.4-1.4 14.2-11.1 15.4-2.9.4-6.1-.6-8.9-2.1a28.9 28.9 0 0 1-14.4-18.4c-1.8-6.9 2-13.7 7.8-15.3 1.5-.5 3-.4 4.4-.5ZM407.3 293c-3.4-4-7.6-6.5-12.9-7.3-6.9-1-14.5 3.2-17 9.7-1.4 3.6-2 7.3-2 11.2v4.8c-.4-.3-.7-.8-.6-1.3.1-1.6-.6-2.3-2.3-2.5-5.3-.6-8.6-5.7-7.6-10.9.6-3 2-5.6 3.9-7.8 3.8-4.4 8.2-8.1 13.4-11 7.7-4.2 17.1-2.4 22.2 5.2 2 3.2 3.5 6.1 2.9 9.9ZM593.3 255.1c-2.7-2.4-4.9-5.2-8-7.1-3.6-2.2-7.4-3.6-11.6-3.1-5.4.6-9 3.8-11.6 8.3-1.6 2.8-2.5 5.9-2.9 9.1-.1 1.1.1 2.2-.7 3.2-.3-1.2.2-2.7-1.5-3.5-3.6-1.5-4.3-4.8-3.7-8.1 1.2-6.2 4.1-11.7 9.5-15.3 7.5-5.1 15.3-4.8 23-.4 3.3 1.9 6.2 4.5 8 8 1.6 3.2 1.1 6.1-.5 8.9Z" fill="#D1A67F"/><path d="M388.6 243.8c1.1.1 2.1 0 3.1.2 2 .4 3.5 1.9 3.7 3.6.3 1.7-.7 3.5-2.7 4.4-1.3.6-2.8 1-4.2 1.3-4.6 1.1-9.1 2-13.7 3-.8.2-1.7.2-2.6.2-1.4-.1-2.3-1-2.6-2.3-.4-1.3-.1-2.4.9-3.4.8-.8 1.9-1.2 2.9-1.5 1.8-.6 3.3-1.5 4.8-2.7 2.9-2.4 6.8-2.4 10.4-2.8Z" fill="#55443C"/><path d="M477.4 302.7c-1.8.1-3-1-4.1-2.2-3.3-3.6-5.1-13.9-3.2-18.5.1-.3.3-.7.5-1 1.8-3.1 5.6-3.2 7.4 0 .9 1.6 1.4 3.4 1.6 5.3.4.5.8 1.1.9 1.7.2 2.8.1 5.6.1 8.4-.3 2.4.2 5.3-3.2 6.3Z" fill="#FFE7D1"/><path d="M478.9 176.9c-1.9.9-2.8 3-4.8 3.8-2.6 1.2-4.2.5-5-2.4-1.2-3-.3-5.7 1.6-8.1 1.5-3.3 3.7-6 6.5-8.3 3-2.5 6.1-1.8 7.6 1.5-1.6 4.7-2.3 9.8-5.9 13.5Z" fill="#D1A67F"/><path d="M559.6 229.7c-1.8-.1-3-.8-3.7-2.3-.7-1.6 0-3 1.2-4 .8-.7 1.9-1.2 3-1.5 4.5-1.4 9-2.7 13.5-4 1.2-.3 2.5-.3 3.7-.3 1.5 0 2.5 1 3 2.4.5 1.6-.1 3-1.4 3.9-.7.5-1.5.9-2.3 1.1-5.3 1.4-10.6 2.5-15.7 4.4-.5.3-1 .3-1.3.3Z" fill="#55443D"/><path d="M347.2 353.9c-1.9.5-2.6-1.2-3.2-2.2-3.9-5.8-3.4-11.9-1-18 .7-1.8 3-2.3 4.7-1.3.5.3 1.1.6 1.5 1.1 1.2 1.2 1.9 2.7 1.7 4.4-.3 2.4 1.1 5.3-1.5 7.2-1.4 2.6-.7 6-2.2 8.8Z" fill="#D1A67F"/><path d="M495.9 294.4c0 .2 0 .5-.1.7-.6 1.4-.4 3.3-2.5 3.7-2.2.4-3.5-1-4.6-2.4-2.3-3-3.4-6.5-3.8-10.2-.3-2.4.7-4.1 2.5-4.9 2-.8 3.6 0 4.9 1.5.4.5.9.8 1.4 1.2 1.6 1.5 2.1 3.5 2.5 5.5 0 1.4.1 2.9-.1 4.3-.1.2-.2.4-.2.6Z" fill="#FFE7D1"/><path d="M499.6 169.5c2.6-.9 4.1-3.1 6-4.8 2.4-2.2 4.7-2.4 7-.9s3.3 4.6 2.4 7.6c-.8 2.4-2.2 4.4-4.2 5.9-2.5 1.8-5.3 1.3-7.1-1.2-.8-1.1-.6-3.1-1.5-3.6-1.1-.6-1.8-1.2-2.5-2.1-.2-.1-.3-.3-.2-.5 0-.4.1-.4.1-.4ZM365.7 346.4c-.9-1.8-2.3-2.2-4.2-2.3-3.6-.1-6.3-4.9-4.7-8.2.8-1.5 2-1.8 3.4-1.2 1.7.8 3.4 1.3 5.3 1.2.8 0 1.5.2 2 .8 2.2 2.6 3.4 5.6 3.3 9.1 0 1.2-.6 1.8-2 1.4-.9-.2-2-.5-3.1-.8Z" fill="#D1A67F"/><path d="M478.9 176.9c1.3-3.2 2.5-6.4 3.8-9.6.5-1.4.9-2.8 2.1-3.8 2.7.5 2.7.5 3 3.8 1 4.3-1 7.7-3.1 11.1-1 2.5-2 5-2.9 7.6-.2.6-.3 1.3-1 1.3-.8.1-1.5-.4-1.7-1.2-.3-1.8-1.4-3.5-.6-5.4.4-1.3.3-2.5.4-3.8Z" fill="#FEE6D0"/><path d="M641 303.3c-2.8 2.4-5.7 1.9-8.6.2-2.7-1.7-3.4-4.3-3.3-7.3.1-1.8.8-3.1 2.6-3.7 1.6-.5 3 .3 3.8 1.6.8 1.1 1.7 2.1 2.6 3.1.5.5.9.6 1.6.4 2.4-.7 2.4-.6 2.7 2 .1 1.4-.3 2.7-1.4 3.7ZM484.7 178.3c.6-3.8 2.6-7.2 3.1-11.1.8-1.4 1.5-2.9 3.6-2.1 1.7.6 2.4 1.9 2.3 3.7v3.7c1.1 2.4.6 4.4-1.5 5.9-.5.7-1 1.4-1.7 2-1 .9-2 1.9-3.6 1.3-1.6-.6-2.3-1.7-2.2-3.4Z" fill="#D1A67F"/><path d="M470.7 170.2c-.5 2.7-1.1 5.4-1.6 8.1-1.1 1.8-.8 4.1-1.8 5.9-.5.8-.6 2.1-1.9 2-1.4-.1-2.1-1.2-2.2-2.5-.4-5.6.1-11 2.7-16.1.3-.7.7-1.3 1.4-1.7 1.5-1 3-.4 3.3 1.4.2.9.1 1.9.1 2.9Z" fill="#FFE7D0"/><path d="M629.2 312.2c.4 1.9 1 3.8.6 5.8-.6 3-2.4 3.7-4.6 1.6-2.9-2.7-4.5-6.1-4.9-10-.1-.6 0-1.2 0-1.9 1.1-3.1 3.4-4 6-2.2 2.1 1.7 3.2 3.9 2.9 6.7Z" fill="#FFE6D0"/><path d="M641 303.3c0-1.4.3-2.8 1.5-3.8 2.3-.3 3.7.9 4.5 3 2 4.8 1.6 9.6-.2 14.4-.3.8-.8 1.7-1.8 1.5-.8-.1-.9-1.1-1.1-1.8-1.4-4.3-2.2-8.8-2.9-13.3Z" fill="#FEE6CF"/><path d="M347.2 353.9v-4.3c0-1.9.5-3.5 2.2-4.6 1.5 0 2.9.3 2.9 2.1.1 5.2 1.4 10.2 1.5 15.4 0 1 .6 2.6-.6 3-1.6.5-2.4-1-3-2.2-1.3-2.4-2.3-4.9-2.3-7.7-.1-.7-.2-1.3-.7-1.7Z" fill="#FFE6D0"/><path d="M629.2 312.2c-.4-1.6-1.1-3.1-2-4.4-2.1-3.1-4.5-3.1-7.1 0-1.1.7-1.9.2-2.5-.8-1.2-1.8-1.9-3.7-2.5-5.7-.5-1.7.5-2.8 1.6-3.8 1.3-1.2 2.5-.6 3.7.1 4.2 2.3 6.6 6.2 8.9 10.2.9 1.3 1.1 2.9-.1 4.4Z" fill="#D2A780"/><path d="M652.9 298.2c.1 2-1 2.9-3.1 2.5-2.2-.5-4.1-1.4-5.4-3.6-.8-1.4-1.7-2.7-2.4-4.2-.5-1.1-.6-2.2.4-3.1.9-.8 1.9-1.3 3.4-.8 3.2.9 7 5.6 7.1 9.2Z" fill="#D1A67F"/><path d="M365.7 346.4c2.9 3.3 2.3 7.6 2.9 11.5.3 1.6-.7 2.9-2.3 3.3-1.6.4-2.9-.3-3.8-1.7-1.9-3.1-1.5-6.3-.6-9.6.6-2 1.7-3.3 3.8-3.5Z" fill="#FFE6D0"/><path d="M509.3 289.9c-.2.4-.5.8-.7 1.2-1.2 2.2-2.9 2.3-4.6.5-1.2-1.3-1.3-3.1-2.1-4.6-1.5-2-1.4-4 0-5.9 2.4-2.1 4.2-2.1 5.9.4.7 1 1 2.2 1.5 3.3 1.4 1.7 1.3 3.4 0 5.1ZM492.2 178.4c.8-1.9 1.2-3.9 1.5-5.9.3-.5.7-.9 1-1.5 1.6-2.6 1.7-2.6 4.9-1.5 0 .2 0 .5.1.7.3 3.9-1.2 7.3-2.8 10.6a8 8 0 0 1-1.5 2.1c-1 1-2 .7-2.7-.5-.7-1.3-.4-2.7-.5-4Z" fill="#FEE6D0"/><path d="M477.4 302.7c2-1.5 2-3.8 2.2-6.1.5-3 .5-5.9 0-8.9v-1.5c1.3 0 1.9.8 2.3 2 .7 2.5 1.5 4.9 1.5 7.6 0 2.2-.3 4.4.5 6.6.6 1.5-.1 2.6-1.4 3.5-1.2.8-2-.1-3-.7-1.1-.6-1.7-1.5-2.1-2.5Z" fill="#D2A780"/><path d="M382.8 354c.1 1.9-.1 3.7-1.3 5.3-.7.9-1.4 1.1-2.4.2-2.4-2.1-3.2-8.5-1.3-11.1 1-1.4 2.1-1.5 3.4-.3 1.6 1.7 1.8 3.7 1.6 5.9Z" fill="#FFE6CF"/><path d="M501.9 281v5.9c-1.4.6-2.3 1.9-2.7 3.3-.5 1.9-1.6 3.2-3.3 4.2-.9-1.4.2-3.1-.7-4.5-.1-2.1-1.1-3.9-1.7-5.9.6-.7 1.1-.2 1.4.3.7 1.2 1.2 2.3 1.9 3.6 1.6-1.5 1.1-3.6 2.1-5.1.9-.9 1.2-2.5 3-1.8ZM521.1 286.2a11.3 11.3 0 0 1-4.5-5.6c-.6-1.6.1-2.6 1.8-2.5 1.9.1 3.6 2.3 3.6 4.5.9 1.4 1 2.7-.9 3.6Z" fill="#D3A881"/><path d="M521.1 286.2c.8-1.1.8-2.4.9-3.6 2.4 1.8 3.6 5.1 2.8 7.5-.5 1.3-1.5 1.5-2.5.6-1.4-1.3-1-3-1.2-4.5Z" fill="#FEE5CE"/><path d="M509.3 289.9c0-1.7 0-3.4.1-5.2 1.2 0 2.3.1 2.2 1.7-.3 1.5.1 3.4-2.3 3.5Z" fill="#D7AC85"/><path d="M510.8 367.7c-1.4 4.3-2.6 7.9-3.8 11.5-2.4 7.1-6.9 12.5-13.3 16.3-3.8 2.3-7.7 4.4-11.8 6.2-3 1.3-6.1 2.1-9.3 2.2-.6 0-1.2.1-1.9.1-2.5-.2-4.1-1.2-4.3-2.8-.3-2.1 1-3.2 2.5-4.1 1.6-.9 3.3-1.7 5-2.5 5.1-2.3 9.9-5.2 14.6-8.1 4-2.4 6.9-5.6 8.7-9.9 2.7-6.3 5.3-12.6 5.8-19.5 0-.5.2-1 .1-1.5-.2-1.8 0-3.9-.8-5.5-1-1.9-3.4-.7-5.1-.8-2-.2-3.9-.5-5.8-1.1-9.7-2.8-13.8-13.6-8.3-22 5.3-7.9 12.7-12.7 22.2-14.1 3.8-.6 7.6-1.1 11.5-.4 9.1 1.5 12.7 9.6 12 16.2-.5 4.9-2.6 9.3-6.5 12.6a7 7 0 0 0-2.7 4.7c-.6 3.4-.3 6.6.1 9.8.6 4.9 3.5 8.1 7.7 10.3 8.8 4.6 18.1 6.4 28 6 2.4-.1 4.7-.4 7 0 2.2.4 4 1.4 4.5 3.8.5 2.3-.5 4.1-2.4 5.5-3.7 2.7-8 3.3-12.3 3.6-11.2.6-21.9-1.6-31.8-7.4-3.9-2.1-6.7-5.2-9.6-9.1Z" fill="#282828"/><path d="M589.6 274.1c0 .7.1 1.5 0 2.2-.3 2-1.6 3.3-3.3 3.5-1.8.3-3.2-.6-4.1-2.5-.9-2-1.6-4.2-1.3-6.5.3-2.6 1.9-4.5 4-4.6 2.2-.1 3.8 1.4 4.4 4.2.2 1.2.3 2.5.5 3.7h-.2Z" fill="#FDFDFD"/><path d="M402.2 312.5c.2 1.8-.5 3.4-1.5 4.8-1.7 2.3-4.7 2-5.5-.6-.8-2.4-1.5-5-1.2-7.6.3-2.2 1.9-3.7 3.9-3.7 1.9 0 3.3 1.1 3.8 3.4.2 1.3.3 2.5.5 3.7Z" fill="#FCFBFB"/><path d="M479.6 287.7c1.1 3 1 5.9 0 8.9v-8.9ZM495.2 289.9c1.2 1.3.5 3 .7 4.5-1.2-1.3-.6-3-.7-4.5Z" fill="#EEBD91"/><path d="M511.2 172.9a6.27 6.27 0 0 1-.3-6.7c.3-.6.7-1 1.4-1 .8.1 1.3.7 1.4 1.5.5 2.5-.3 4.5-2.5 6.2Z" fill="#FAE1C9"/></svg>