<svg width="441" height="500" viewBox="0 0 441 500" fill="none" xmlns="http://www.w3.org/2000/svg"><g clip-path="url(#a)"><path d="M360.1 447.66c-.28-.44-.67-.39-1.06-.22l-4.56 1.5c-.33-.11-.44-.45-.6-.72-1.12-2.28-1.67-2.56-4.23-2.06-.39.06-.78.17-1.17 0-1.05-1.06-2.1-2.11-3.5-2.72a4 4 0 0 1-1.39-1.17c-5.27-6.06-12.16-8.61-19.89-9.39-2.6-.28-5.22.22-7.83.06-.67-.9.22-1.28.55-1.9.23-.44.78-.88.28-1.44-.39-.39-.89-.16-1.33-.05a26.4 26.4 0 0 0-5.72 2.55 82.9 82.9 0 0 0-19.45 14.5 47 47 0 0 0-11.17 18.17 10.27 10.27 0 0 0 0 7.17c.11.28.5.72-.11 1-1.94.45-3.94.5-5.94.39-3.45-3.72-7.95-3.5-12.4-3.22-2.77.16-5.55.44-8.27-.28a23.21 23.21 0 0 0-13.62.56c-1.66.55-3.39.88-5.16.38-4.62-1.38-9.23-1.16-13.84-.1-1.5.33-3.06.72-4.56 1.1-1.94.5-3.83.5-5.77-.22-3.56-1.28-7.17-1.16-10.78-.33-3.5.83-6.9 2.05-10.12 3.61-.6.28-1.22.56-1.88.78-2.17.61-2.84.1-2.73-2.11.23-5.56-2.16-10.23-5.5-14.28-4.89-5.95-11.22-9.95-19.05-11.06-3.06-.44-6.12-.5-8.73 1.5-2.83 2.28-5.28 5.11-8.44 6.95-5 2.88-10.4 4.55-15.95 5.77a260.54 260.54 0 0 1-18.56 3.56c-2.39.39-4.83.72-7.28.67-1.77 0-3.38.22-4.66 1.55-.4.4-.84.72-1.45.4-.33-.18-.72-.45-.78.27 0 .33 0 .61-.33.83-2.11-6.1-8.11-7.6-12.78-10.6a5.36 5.36 0 0 0-3.72-.62c-3.56.56-6.67-.67-9.5-2.61-2-1.4-4.4-2.4-5.5-4.9.44-.94 1.39-1 2.22-1.21 3.33-.9 6.67-1.73 10-2.62 8.28-2.22 15.17-6.77 21.28-12.55 2.9-2.72 5.72-5.56 7.56-9.23 3.39-6.72 1.16-13.44-5.5-16.44-3-1.33-6.06-2.28-9.23-3-1.5-.33-3.05-.61-4.55-.9-.61-.1-1.61 0-1.61-.82 0-.73.89-.95 1.55-1.12 6-1.77 11.73-4.22 16.84-7.89a19.65 19.65 0 0 0 5.78-5.94c3.27-5.39 2.27-11.56-2.4-15.78-2.66-2.44-5.88-3.83-9.33-4.67a55.57 55.57 0 0 0-12.83-1.55c-22.23-.17-43.73 4-64.62 11.33-2.06.72-4.06 1.45-6.17 2-2.16-.16-2.44-.55-2.28-2.78.62-7.89 2.28-15.6 3.78-23.33.4-2 .61-4 .56-6.06-.11-2.55-.45-2.89-3-2.72-.17-.28-.45-.5-.72-.67a28.24 28.24 0 0 0 5.16-8c.78-1.78 1.45-3.5.34-5.39-.5-.89-.06-1.72.33-2.5 1-1.83 2.06-3.6 2.94-5.55 1.62-3.45.73-5.67-2.77-7-1.73-.62-1.9-1.12-1-2.73a57.26 57.26 0 0 1 3.16-4.94c1.84-2.78 3.5-5.61 4.56-8.78.17-.56.39-1.17.94-1.56 1.73-.44 3.28.5 5 .5 5.06.11 9.9-1.27 14.84-2.1 14.06-2.34 27.95-5.4 41.11-10.95 12.67-5.34 24.78-11.73 35.56-20.5 6.62-5.4 13.28-10.67 19.34-16.68 4-3.94 7.72-8.1 11.83-12 7.84-7.44 15.17-15.39 23.12-22.72 4-3.67 8.5-6.72 12.44-10.45 5.45-5.1 12.5-6.83 19.12-9.55 3.16-1.28 6.39-2.61 9.83-3.11a66 66 0 0 1 16.56 0c8.83 1 17.11 3.38 24.5 8.44a66.74 66.74 0 0 1 7.67 6.61c3.94 3.72 7.72 7.56 11.5 11.45 3.83 3.94 8.11 7.33 12.34 10.89a44.84 44.84 0 0 0 12.66 7.22c9.12 3.61 18.23 7.28 27.45 10.67 11.17 4.11 22.67 6.78 34.34 8.83 7 1.28 14.06 1.45 21.22.95 7.23-.5 14.45-.72 21.62-1.72 1.72-.23 3.44-.67 5.16-.95.9-.17 1.73-.39 2.56.11.78.61.78 1.56 1 2.4 1.94 8.94 3.44 18.05 4.94 27.05.12.72.17 1.5.17 2.22-.06 6.67 1.95 12.56 6.78 17.34 3.5 3.5 2.67 3.39.17 6.78-1.78.72-3.67.83-5.56.83-2.94 0-5.78.44-8.61 1.22-9.67 2.84-19.34 5.61-28.5 9.95-2.56 1.22-4.84 2.94-7.45 4.17a4.86 4.86 0 0 0-1.89 1.77 13.95 13.95 0 0 1-2.39 2.73c-3.39 2.94-3.89 7.05-1.28 10.72 2.9 4.06 7 6.67 11.34 9 8.55 4.56 17.78 7.61 26.78 11.17 4.17 1.6 8.33 3.28 12.44 5 .45.17.9.39 1.28.61.4.22.9.5.84 1.06-.06.55-.67.66-1.12.66-2 .17-4 .5-6.05.5-5.9-.05-11.78-.28-17.62.84-6.33 1.22-12.27 3.33-17.33 7.5-3.72 3.1-4.44 6.16-2.56 10.6.4.9.62 1.79.67 2.73.11 3.72 1.89 6.4 5.11 8.22 5.34 3 11.17 4.84 16.95 6.73 4.5 1.44 9.11 2.5 13.78 3.39.78.16 1.61.22 2.17.94 0 .06.05.17 0 .22-5.56 4.28-9.9 9.84-14.5 15-1.56 1.73-3.84 2.5-5.34 4.28-.17.06-.39.11-.56.06-1.05-.45-1.94-.17-2.72.66-1.67 1.78-3.78 3.06-5.67 4.62-.88.72-1.77 1-3 .6a4.83 4.83 0 0 0-4.77.79 27.39 27.39 0 0 1-5.84 3.33c-2.94 1.28-5.44 3.22-7.94 5.17-.28.05-.62 0-.84-.17-1.33-1.39-1.44-1.33-2.27.33-.95 1.23-1.12 2.9-2.9 3.17Z" fill="#FDC797"/><path d="M412.05 253.58c-1.95.06-3.84.67-5.78.95-3.06.44-6.11.89-9.23 1.1-4.83.4-9.72.56-14.55.9a91.9 91.9 0 0 1-11.73.17c-4.72-.23-9.39-1-14-2-8.56-1.78-17.17-3.67-25.44-6.56a297.76 297.76 0 0 1-22.84-8.84c-2.78-1.22-5.72-2-8.5-3.22a60.06 60.06 0 0 1-14.73-8.78 189.64 189.64 0 0 1-14.72-13.61c-2.72-2.83-5.56-5.5-8.33-8.28a49.6 49.6 0 0 0-18.17-11.5c-2.45-.94-5.12-1.22-7.67-1.72a93.07 93.07 0 0 0-13-1.5c-2.34-.17-4.73.22-7.06.5-6 .66-11.33 3.39-16.89 5.39-1.89.72-3.72 1.55-5.67 2.22-3.05 1.11-5.39 3.28-7.83 5.28-3.72 3.05-7.5 6-11.06 9.11a157.96 157.96 0 0 0-9.39 8.95 277.8 277.8 0 0 1-9.89 9.89 320.9 320.9 0 0 0-13.05 13.05 174.27 174.27 0 0 1-16.34 15.06c-5.89 4.83-11.78 9.72-18.22 13.78a91.8 91.8 0 0 1-7.56 4.33c-5.72 2.9-11.33 6.12-17.34 8.34-8.16 3.05-16.39 5.83-24.94 7.55-3.95.78-7.9 1.78-11.84 2.5-4.89.9-9.78 1.9-14.72 2.62-2.95.38-5.95.27-8.78-.78-.78-1.11-.39-2 .44-2.9 2.06.73 4.12.56 6 .23-1.88-.44-4.1-.56-5.94-1.78-.61-4.78-.28-9.55.56-14.28.94-5.55 1.27-11.17 1.44-16.72.28-9.33 1.28-18.61 2.61-27.84 1.45-10 3.34-19.89 5.67-29.67 2.44-10.22 6.5-19.94 10.11-29.72 3.17-8.56 7.22-16.78 10.95-25.12 1.55-3.44 3.78-6.55 5.33-10 .45-.94 1.28-1.33 2.22-1.6 1.45-.4 2.73-1 2.9-2.73.16-1.72-1.12-2.45-2.34-3.22a132.8 132.8 0 0 0-13.95-7.95c-6.55-3.17-11.28-8.5-16.22-13.61a42.94 42.94 0 0 1-7.67-11.17c-.78-1.56-.89-3.56-3.05-4.22-.67-.23-.56-1.28-.73-2-.44-2-1.6-3.28-3.72-3.4-1.67-.05-2.22-.94-2.22-2.5 0-.88.17-1.72.28-2.6.16-1.23.39-2.45-.34-3.56-.55-.56-.66-1.17-.5-2 .4-2.11-.05-2.78-2.05-3.5-1.11-.39-2.23-.45-3.4-.61-1.66-.28-2-.95-1.1-2.34.72-1.22 1.33-2.5 2.44-3.44.45-.39.72-.78.56-1.39-.23-.78.22-1.44.6-2.06 1.56-2.66 1.56-3.22-.33-5.55a1.72 1.72 0 0 1-.33-.72c.17-1.9 1.72-2.5 3-3.23 3.06-1.77 6.34-3.05 9.56-4.5 1.44-.66 2.83-1.27 4.17-2.05a52.73 52.73 0 0 1 13-5.56 34.38 34.38 0 0 1 9.78-1.39c4.94.11 9.89.22 14.83 0 10.34-.44 19.56 2.84 28.4 7.78 3.94 2.22 7.5 5.06 11.1 7.84 3.73 2.83 5.23 2.66 8.95-.23 15-11.72 30.67-22.94 48.45-30.83 8.56-3.84 17.56-6.23 26.5-8.9 4.28-1.27 8.61-2.1 12.56-4.55 2-1.28 4.56-1.56 7-1.94.22 0 .39 0 .61.05.9.28 1.72.33 2.56-.11 1.39-.5 2.78-1.17 4.28-1.28 1.16-.05 2 .5 2.38 1.56.95 2.55 3 3.33 5.45 3.55 1.78.17 3.5.17 5.28-.05 3.17-.45 6.33-.34 9.5-.11 2.33.28 4.17 1.16 5.17 3.55.66 1.56 2.33 2.23 3.94 2.56 8.22 1.61 15.67 5.33 23.45 8.17 9.11 3.33 18.11 7.1 27.06 10.83.89.33 1.66.83 2.39 1.45 1.94 1.72 4.05 3 6.5 3.77 2.27 1.67 4.72 1.4 7.17.67 4.05-1.22 8-2.94 11.94-4.44 13.4-4.95 27-9.12 41.17-11.12 7.4-1.05 14.78-1.16 22.23-1 .72 0 1.5 0 2 .73-1 1.44-2.56.72-3.84.72-1.28 0 .28.66-.28.78-.6.6-1.38.5-2.1.38-8.45-.88-16.73 0-24.79 2.56-5.39 1.72-9.72 5.22-14.05 8.61-4.4 3.45-8.5 7.28-11.62 12.06a8.18 8.18 0 0 0-1.38 2.89c-.17.67-.4 1.39.27 1.89s1.34.05 1.84-.34c1.55-1.05 2.94-2.33 4.38-3.55 1.06-.95 1.95-2.28 3.62-2.22.05 1.55.66 2.55 2.44 2.39.5-.06 1.06.1 1.17.77-.5.67-1.17.61-1.84.56-2.38-.06-4.27 1.11-6.1 2.44-.67.5-1.34 1.06-1.06 2 .27.9 1.1 1.11 1.89 1.34.39.1.77.1 1.22.1 1.33-.05 2.11.5 2.39 1.9.6 2.83 2.66 4.28 5.28 5 2.33.66 3.22.28 4.5-1.84 1.72.12 1.55 1.78 2.33 2.73.11.94-.44 1.66-.78 2.44-.33.78-.72 1.61-.77 2.5-.06.9.16 1.78.94 2.34.83.55 1.67.27 2.44-.17.5-.28.95-.72 1.56-.89 1.11-.17 2.11.28 3.06.78.33.72-.06 1.28-.28 1.94-.22.72-.5 1.4-.5 2.17.05.83.33 1.61 1.17 1.94.94.4 1.44-.33 2-.94.83-.95 1.05-2.39 2.38-2.83 2.67 1.05 5.34.22 7.95-.23 3.11-.5 4.61-1.89 5.22-5.83.84-5.45 2.72-10.17 6.95-13.95 2.6-2.27 3.5-5.72 4.6-8.94.45-1.28.84-2.61 1.68-3.67 2.05-2.44 2.66-5.39 3.38-8.39.73-3.11-.94-6.44-3.77-8.06-.5-.27-1.61-.22-1.06-1.38 1.67-.73 3.33-.12 5 .05a98.36 98.36 0 0 1 15.5 3.17c1.12.28 2.23.72 2.78 1.83.56 1 1.06 2 1.9 2.84.66.6.82 1.38.71 2.22-.22 2.39.73 4.28 2.23 6 .5.55 1.22 1.11 1 2.05-.06.34 0 .67-.12.95-.6 1.33.28 1.5 1.17 1.72-.33.67-1 .56-1.61.67-3.28.5-4.11 1.66-3 4.83.72 2.17.44 3.95-.94 5.61-1.06 0-1.12.95-1.5 1.56a24.18 24.18 0 0 0-1.84 3.33c-.33.56-.61 1.17-.89 1.78-1.39 1.78-1.78 4.17-3.55 5.67-2.4.44-2.95 1.16-3.12 3.61-.05 1.11.28 2.28-.27 3.33a50 50 0 0 0-2.28 1.4c-.78-.84-.22-1.79-.22-2.73 0-.61 0-1.28-.67-1.56-.67-.27-1.17.12-1.61.62-.84.88-1.56 1.88-2.17 2.94A254.67 254.67 0 0 1 380 108.9c-1.28 1.5-2.28 3.17-3.34 4.83a5.06 5.06 0 0 0-.27 5.17c3.55 8.06 7.33 16 10.83 24.06 3.61 8.33 6.06 17.06 7.89 25.95 2.17 10.33 4.94 20.5 7.22 30.83 2.34 10.62 3.9 21.45 6.11 32.06 1.34 6.5 2.62 13 3.73 19.5.22.78.55 1.62-.11 2.28Z" fill="#FF9E4B"/><path d="M10.67 379.93c10.5-3.83 21.17-7.33 32.22-9.44 5.17-.95 10.34-1.95 15.5-2.67 3.12-.45 6.28-.67 9.45-1 5.22-.56 10.4-.39 15.61-.28 5.12.11 10.23.83 15 2.83 3.23 1.34 6 3.34 7.95 6.34 3.06 4.72 2.78 9.44-.17 14.06-2.16 3.38-5.39 5.6-8.77 7.66a57.43 57.43 0 0 1-14.5 6.12c-.23.05-.45.22-1.06.55 3.39.39 6.33 1 9.28 1.78 3.27.89 6.44 2 9.22 4a11.05 11.05 0 0 1 4.39 11.22c-.72 3.78-2.61 6.95-5.17 9.73a63.81 63.81 0 0 1-14.28 11.89c-4.6 2.77-9.66 4.44-14.83 5.77-2.9.73-5.78 1.23-8.61 2.28-.9.5-1.28-.33-1.84-.72-3.72-2.89-6.72-2.72-10 .61-1.61 1.67-2.11 1.72-3.67-.11a63.4 63.4 0 0 1-4.66-6.11c-2.06-3.11-4.06-6.23-6.34-9.11-.6-.78-1.28-1.5-2.39-1.17-1.16.39-1.05 1.44-1.1 2.39-.06.89.21 1.72.44 2.55.16.67.66 1.4.16 2.12a4.53 4.53 0 0 1-3.89-1.17c.06-4.28-2.33-7.45-4.72-10.73-3.11-4.33-5.72-9-7.61-14.05-.33-.9-.78-1.72-1.72-2.17-1.17-.55-1.61-1.55-1.61-2.83.05-7.28-.34-14.62.66-21.84.28-2.05.4-4.17-.72-6.11-.44-1-1.89-1.17-2.22-2.39ZM416.1 409.88c-1.39-.83-2.94-.83-4.44-1.17a123.66 123.66 0 0 1-26.9-8.72c-2.16-1-4.27-2.28-5.6-4.5a9.71 9.71 0 0 1-1.5-5.34c.05-.94-.34-1.72-.73-2.5-2.06-4.16-1-7.89 2.56-11 4.55-3.89 9.94-5.94 15.6-7.39a43.53 43.53 0 0 1 10.4-1.22c3.11-.11 6.22-.11 9.33 0 2.34.06 4.62-.44 7-.67-1.6-1.16-3.44-1.77-5.22-2.5-8.78-3.44-17.61-6.77-26.39-10.33-5.61-2.28-11.17-4.78-16.06-8.5a24.77 24.77 0 0 1-5.39-5.4 8.22 8.22 0 0 1 1.9-11.33 5.4 5.4 0 0 0 1.83-2.05 4.58 4.58 0 0 1 2.05-2.17c2.56-1.16 4.84-2.72 7.22-4.11 3.73-2.11 7.84-3.39 11.84-4.78 6.39-2.22 12.78-4.39 19.33-5.94 1.78-.4 3.56-.84 5.4-.73 2.16.12 4.27-.5 6.44-.38.67.66.28 1.55.28 2.27 0 3.4.94 6.23 4 8.06.28.17.55.39.6.78.18 1.17.34 2.33.5 3.5-2.27.72-2.55 1.17-2 3.67 1.06 4.88 2.34 9.72 3.45 14.55.78 3.56 1.45 7.17 1.9 10.78.38 2.78-.06 3.61-2.5 4.84-1.84.94-2.73 2.33-2.68 4.38.17 4.78 1.73 9.23 3.5 13.67.23.61.78 1.11.62 1.9-.11.55-.23 1.16-.4 1.71-.5.06-.66-.33-.94-.6-.44-.5-.77-1.17-1.6-.95-.84.22-1.06 1-1.18 1.72-.55 2.72-.55 5.5-.77 8.22-.11 1.56-.11 3.12.16 4.67.12.61.17 1.22-.38 1.67-1 1.22-.95 2.89-1.9 4.11-.77-.5-.77-1.39-1.05-2.11-.61-1.45-1.61-1.61-2.56-.4a10.09 10.09 0 0 0-1.66 3.9 62.61 62.61 0 0 1-2.5 8.33c-.23.9-.28 2-1.56 2.06Z" fill="#FF9F4B"/><path d="M15.34 81.9c.88.22.83 1 .83 1.6-.06.95-.11 1.9-.28 2.84-.22 1-.22 2-.28 3 0 .73.17 1.06 1 1.11 3.9.23 4.78 1.17 5.06 5 0 .23.05.4.11.78.61.11 1.39-.28 2 .34.56.55.72 1.27.83 2 .06.27.12.5.28.77 1.9 3.67 3.56 7.45 6.56 10.4 2.5 2.5 4.89 5.05 7.33 7.6a36.34 36.34 0 0 0 10.78 7.78c5 2.34 9.61 5.28 14.22 8.17 1.23.78 2 1.84 1.84 3.34-.17 1.5-1.17 2.38-2.56 2.83-.44.17-.89.28-1.39.33-.72 0-1.05.4-1.27 1.06-.5 1.5-1.34 2.78-2.17 4.11-3.11 5.17-5.34 10.78-7.9 16.22-5.1 11.06-9.33 22.4-13.27 33.84-3.17 9.22-5.11 18.78-6.83 28.34a384.89 384.89 0 0 0-3.5 23.83c-.45 3.62-.73 7.28-.9 10.9-.22 5.27-.38 10.55-.83 15.77-.22 2.73-.78 5.34-1.05 8.06-.28 3.06-1 6.17-.34 9.28.23 1-.39 2-.22 3 .33.61.39 1.17-.22 1.67-.39.88-.39 1.83-.61 2.72-1.17 4-3.28 7.56-5.56 11-1.22 1.89-2.61 3.78-3.5 5.89.72.44 1.39.39 2.06.61 2.05.56 3.16 2 3.33 4.06a7.23 7.23 0 0 1-1 4.05c-.94 1.78-1.94 3.56-2.94 5.34-.45.77-.62 1.44.05 2.22.61.78.78 1.78.45 2.72-1.12 3.11-2.4 6.17-4.56 8.78a5.89 5.89 0 0 1-2.06 1.61c-1.66.06-2.38-.94-2.72-2.44-.5-2 0-3.9.84-5.73.44-.94.5-1.66 0-2.66-.78-1.5-.5-3.17 0-4.73.72-2.33 2.05-4.38 3.27-6.5-.22-.6-.77-.5-1.22-.66-2.94-1-4.22-3.4-3.5-6.4a15.6 15.6 0 0 1 2.22-4.77c1.28-2 2.61-3.95 4-5.9 1.78-2.55 3.62-5.05 5.12-7.82a12.03 12.03 0 0 0 1.44-4.4c.11-1.55.39-3.05.61-4.6.11-.73.11-1.45-.22-2.17a14.88 14.88 0 0 1-1.06-6.78c.17-4.95.4-9.9.67-14.78.33-6.56.61-13.11 1.5-19.61 2.44-18.06 5.28-36 11.39-53.23 5.22-14.73 11.33-29.12 19.06-42.73 1.78-3.11 3.6-6.17 6.55-8.45.23-.16.4-.38.56-.55.5-.5.56-.95-.17-1.28-.33-.17-.72-.33-1.1-.55-3.4-1.67-6.79-3.4-10.18-5a41.57 41.57 0 0 1-14.39-11.34c-2.05-2.56-4.16-5.17-6.16-7.78-3.4-4.44-5.4-9.33-4.67-15.28a4.07 4.07 0 0 1-3.56-2.78c-.16-.44-.5-.55-1-.38-3.1 1-5.1-.56-5.22-4.45-.11-3 .39-5.89 2.28-8.44.5-.73 1.1-1.34 2.17-.78Z" fill="#282828"/><path d="M94.4 468.44c.11-.06.33 0 .39-.11 1.67-2.17 3.94-2.39 6.5-2.44 3.22-.06 6.39-.5 9.56-1.12 5.5-1.1 11.05-2.1 16.55-3.27a63.68 63.68 0 0 0 12.62-4.28c2.94-1.4 5.38-3.5 7.77-5.73.84-.77 1.4-1.88 2.62-2.1.38 0 .66.22.83.5 1.61 2.22 3.94 3.1 6.44 4 6.45 2.27 11.78 6 15.45 11.88a21.3 21.3 0 0 1 2.11 4.4c1 2.83.17 5.22-1.89 7.16-1.94 1.89-4.5 2.72-7.05 3.44-.62.17-1.45.17-1.62 1-.1.84.62 1.12 1.23 1.45 1.6 1 1.72 1.56.55 3a8.85 8.85 0 0 1-5 3.22c-3.89.84-7.78 1.84-11.61 2.9-2.06.55-4.11.66-6.22.16-6-1.33-12.12-2.17-17.95-4.28-7.28-2.61-13.22-7.33-19.17-12.06-2.05-1.6-4.11-3.33-6.22-4.89-.72-.5-1.45-1.05-2.22-1.38-.5-.23-1.06-.45-1.5 0-.45.44-.34 1-.17 1.55.17.61.5 1.11.78 1.67.33.55.78 1.1.5 1.89-2.22-.84-3.23-2.23-3.28-4.45v-2.1Z" fill="#FFDFC3"/><path d="M97.68 474.89c-.22-.78-.9-1.34-1.28-2.06-.33-.61-.72-1.17-.83-1.83-.11-.67-.11-1.4.5-1.84.6-.5 1.27-.28 1.89 0 1.1.5 2.1 1.22 3.05 2 2.95 2.34 5.9 4.56 8.72 6.95a54.9 54.9 0 0 0 27.28 12.61c2.34.39 4.67.83 6.95 1.33 2.06.45 4.06.28 6-.27 3.67-1 7.28-2.06 11-2.73 2.72-.5 4.56-2.16 5.9-4.55-.18-.67-.84-.56-1.29-.78-.6-.28-1.22-.56-1.6-1.17-.62-.94-.28-1.89.88-2.05a23.33 23.33 0 0 0 6.67-2.4 6.31 6.31 0 0 0 2.89-3c.94-2 .72-3.88-.11-5.88-2.45-5.5-6.45-9.61-11.67-12.56a35.82 35.82 0 0 0-6.72-2.83c-2.4-.83-4.4-2.11-5.56-4.45 1.28-1.66 3.17-1.94 5.06-2.05a22.5 22.5 0 0 1 11.22 2.22 40.33 40.33 0 0 1 8.56 5.39c4.16 3.39 6.83 7.78 8.6 12.78a14 14 0 0 1 .68 6.61c-.12 1 .1 1.22 1.05 1.06 1-.17 1.89-.67 2.83-1.12 3.73-1.66 7.5-3.16 11.5-3.88 3.34-.62 6.62-.67 9.78.55 1.95.72 3.78.72 5.73.22a77.56 77.56 0 0 1 7.1-1.6c3.4-.56 6.79-.68 10.07.38 2.16.67 4.22.56 6.33-.11 2.83-.89 5.72-1.5 8.78-1.33 1.78.1 3.5.5 5.17.88 2.44.56 4.83.56 7.27.23 3.28-.45 6.5 0 9.67.6a4.02 4.02 0 0 1 3.34 3.18c-.17.22-.17.5-.23.72-.6 1.6-1.89 2.22-3.44 2.39-1 .1-2 0-3.06-.06a37.43 37.43 0 0 0-8.28.06c-1.83.22-3.66-.06-5.44-.4-3.17-.5-6.17-.21-9.22.73a54.07 54.07 0 0 1-5.9 1.56 9.87 9.87 0 0 1-5.38-.45c-3.11-1.28-6.23-1.1-9.34-.28-2.72.73-5.44 1.61-8.28 2.06-2.27.33-4.5.17-6.55-.83-2.61-1.28-5.34-1.34-8.12-.73-2.44.5-4.83 1.23-7.22 1.95-1.22.39-2.44.72-3.66 1.05a6.2 6.2 0 0 1-6.17-1.33l-2.17 2.34c-.78.77-1.72 1.27-2.67 1.83-.39.22-.39.67-.44 1.05a10.87 10.87 0 0 1-2.06 4.17c-.83 1.11-1.77 2.22-2.6 3.33a13.48 13.48 0 0 1-9.62 5.45c-4.28.39-8.45 1.11-12.61 1.89-2.4.39-4.72.39-7.06-.11-5.28-1.11-10.61-2.11-15.83-3.56a50.34 50.34 0 0 1-20.4-11.33c-3.44-3.28-6.77-6.45-9.66-10ZM429.77 320.37c-3.44-1.11-4.61-3.95-5.17-7.11a8.9 8.9 0 0 1 .28-4c.44-1 .94-2 1.72-2.73.84-.77.34-1.27-.22-1.83a53.38 53.38 0 0 1-5.22-5.94c-1-1.45-2-2.9-1.9-4.78 0-.28-.05-.56-.16-.78-1.39-2.5-1.6-5.28-1.5-8.06.06-1.16-.17-2.27-.33-3.44a560.3 560.3 0 0 0-5-27.28c-.06-.28-.17-.5-.28-.78-.5-4.22-1.39-8.4-2.22-12.56-2.4-11.83-4.56-23.72-6.72-35.61-1.06-5.9-2.56-11.73-3.95-17.56-2.28-9.61-4.45-19.22-6.78-28.78-1.89-7.72-4.94-15-8.22-22.23-2.9-6.39-5.78-12.78-8.67-19.22-.56-1.22-.17-2.28.39-3.28a33.87 33.87 0 0 1 4.06-6.06c6.83-8.22 12.94-17 18.77-25.94.5-.78 1.06-1.56 1.67-2.28.61-.67 1.34-1.22 2.34-.83 1 .44.94 1.33.88 2.27-.05.95-.5 1.84-.38 2.78-3.12 8.84-8.06 16.62-13.67 24.06a76.06 76.06 0 0 1-4.78 5.56 28.8 28.8 0 0 1-5.67 4.66c3.78 4.62 6.78 9.73 9.78 14.73a98.25 98.25 0 0 1 11.61 28c2.95 12.17 6.06 24.28 8.95 36.45 1.94 8.22 3.11 16.61 4.72 24.9 2.61 13.27 5.06 26.55 7.45 39.83 1.39 7.5 2.6 15.06 2.16 22.78-.05 1.44.23 2.83.67 4.17.33 1.05.56 2.16.06 3.16-.4.84 0 1.23.6 1.67 1.78 1.33 3.62 2.67 5.34 4.06a18 18 0 0 1 4.45 4.72c2 3.28 1.27 5.89-2.06 7.78-1.44.83-1.5 1-1.06 2.55.34 1.12.84 2.17 1 3.28.4 2.4.06 3.72-2.94 3.67ZM279.03 472.83c-1.5-2.89-1.22-5.83-.22-8.83 2.72-7.9 7.39-14.5 13.56-20.17a87.8 87.8 0 0 1 18.17-12.78c1.5-.78 3-1.5 4.6-2.06a5.6 5.6 0 0 1 1.4-.33c.5-.06.94.05 1.22.5.28.5.1.89-.22 1.28-.56.72-1.17 1.5-1.78 2.22-1.34 2.55-3.84 3.94-5.95 5.67-6.33 5.05-12.44 10.44-17.39 16.94a37.3 37.3 0 0 0-5.5 10.56c1.72-1 3.28-1.61 4.89-2.22.78-.28 1.5-.56 2.39-.5.56.05 1.06.22 1.33.77.28.62-.05 1.06-.5 1.4-1.27 1.16-2.16 2.6-3.27 3.83-1.34 1.5-2.5 2.94-2.17 5.16.16 1-.61 1.9-1.5 2.5-.9.67-1 1.5-.84 2.5.73 4.28 3.67 6.45 7.4 7.5 6.94 1.9 13.55 1.06 19.44-3.44 4.17-3.17 8.45-6.11 12.28-9.67a93.24 93.24 0 0 0 12.83-14.83c2.45-3.5 4.62-7.17 7.06-10.67.61-.89 1-2.11 2.39-2.22.28-.17.61-.28.89-.4 2.39-.94 4.28.06 4.78 2.56.05.28.05.5.1.78a12.71 12.71 0 0 1-1.21 3.45c-4.67 8.89-9.95 17.39-16.67 24.89a70.07 70.07 0 0 1-9.62 9c-2.5 1.89-5 3.67-7.5 5.56-6.55 5-14.05 6.39-22.05 5.66a25.77 25.77 0 0 1-5.78-1.05c-6.11-2-10.4-5.95-12.11-12.28a13.9 13.9 0 0 1 .16-7.84c.5-1.38.45-2.44-.6-3.44ZM208.97 13.33c-.11-.05-.22-.05-.34-.05-2-.61-2.83-1.67-2.94-4.22-.06-1.17-.39-1.45-1.44-1.11-6 2.05-11.78 4.38-16.45 8.89-.84.77-1.56 1.55-2.84 1-1.33-.62-1.05-1.67-.88-2.78a8.38 8.38 0 0 1 1.77-3.84c.73-.94 1.62-1.83 2.56-2.6a43.97 43.97 0 0 1 18.84-8.5c.72-.12 1.5-.18 2.22-.18 2.66.17 4.16 1.73 4.33 4.4 0 .33-.05.66.22 1.05 1.45-.17 2.84-.67 4.28-.78 2.45-.17 4.78.11 6.56 2 .61.67 1.16.4 1.78.11a38.43 38.43 0 0 1 10.16-3.39c2.4-.44 4.84-.44 7.28-.16.72.1 1.45.27 2.11.66a3.88 3.88 0 0 1 1.78 5.34c-.28.55-.6 1-1 1.6 1 .68 2.34.79 3 1.9.72 1.1.5 2.16 0 3.17.28.33.56.33.78.33 10.33-.34 20.11 2.05 29.5 6.17a138.76 138.76 0 0 1 18.56 10 27.56 27.56 0 0 1 7.33 6.33 7.65 7.65 0 0 1 1.95 5.61c.44 1.56-.22 2.34-1.72 2.67-1.95-.11-3.45-1.06-4.9-2.22-1.16-.95-2.22-1.95-3.6-2.61-5.9-3.28-11.62-6.84-17.56-10-8.56-4.56-17.78-7-27.23-9-1.6-.34-3.16-.62-4.72-1.12-1.78-.55-3.06-1.5-2.83-3.6.05-.45 0-1-.5-.84-2.11.66-3.95-.5-5.95-.56-3.39-1.72-3.83-3-2.5-7.44-3.22.83-6.55.44-9.22 2.72a3.38 3.38 0 0 1-4.17.39c-2.55-1.72-5.11-1.11-7.78-.67-1.33.45-2.72.83-4.05 1.28-.78.33-1.61.33-2.4.05ZM421 49.9c-.73-.9-1.4-1.84-2.12-2.67a6.44 6.44 0 0 1-1.61-5.4c.17-.88.05-1.55-.78-2.05-.89-.55-1.22-1.55-1.61-2.5-.78-2.11.17-3.61 1.78-4.94.89-.73 2-1.17 2.72-2-.11-.45-.44-.5-.78-.56-8.39-2.05-16.83-4.05-25.45-4.83a112.87 112.87 0 0 0-43.44 4.5c-9.9 3.05-19.34 6.83-28.34 11.94a44.11 44.11 0 0 1-7.33 3.45c-2.17.72-3.23.28-3.84-1.45 0-1.22.61-2.16 1.45-3 1.89-1.94 4-3.6 6.27-5.16a92.18 92.18 0 0 1 25.78-12.17c6.34-1.95 12.62-4.06 19.23-5.06a126.15 126.15 0 0 1 28.95-1.16c7.1.55 14.11 1.72 21 3.44 2.89.72 5.67 1.78 8.06 3.67 1 .77 1.88 1.55 2.44 2.66.44.9.61 1.84 2 1.9.94.05 1.28 1.27 1 2.5-.28 1.05-.83 2-1.39 2.88-.39.56-.28.9.17 1.4 2.39 2.6 2.55 4.6.66 7.66a2.86 2.86 0 0 0-.33 2.67c.28.89.5 1.83.33 2.77-.33 2.28-1.66 2.95-3.72 1.95-.5-.11-.78-.28-1.1-.45ZM15.34 81.9c-.9-.17-1.5.55-2.23.83.06-.44 0-.72-.6-.72-1.56 0-3.12.05-4.68-.06a22.64 22.64 0 0 1-3.83-.5c-3.61-.77-4.78-3.83-2.78-6.94.34-.5.72-1 1.11-1.45 1.06-1.05 1.9-2 1.17-3.66-.39-1 .22-2.11.78-3.06.33-.56.78-1.11 1.11-1.61-.17-.61-.67-.72-1.06-1-.72-.5-1.5-.95-2.16-1.5-2.67-2-3-4.11-1-6.78a36.1 36.1 0 0 1 3.6-4.11 56.91 56.91 0 0 1 32.01-14.9c4.67-.55 9.4-1.05 14.11-1.5 4-.38 7.95 0 11.95.29 5.06.38 10.17.5 15.06 2a191.47 191.47 0 0 1 18 6.22c6.17 2.61 11.33 6.56 15.06 12.17.94.55 1.78 1.28 1.22 2.44-.61 1.28-1.83.84-2.89.5-.67-.22-1.22-.6-1.78-1a95.14 95.14 0 0 0-23.33-11.22c-5.4-1.72-10.73-3.72-16.45-4.4-14.34-1.66-28.34-.77-41.95 4.29-6.06 2.22-11.22 5.94-15.78 10.44-1.55 1.5-1.55 1.56.17 2.95.39.33.6.72.89 1.1 2.6 2.23 2.77 3.79.72 6.62-.28.39-.95.83-.67 1.17 1.17 1.55-.22 1.89-1 2.78-1 1.16-1.72 2.55-2.55 3.83.66.67 1.44.55 2.16.61 1.11.06 2.17.28 3.17.67 2.17.83 2.78 2.1 1.89 4.28-.17.83.33.88.56 1.22Z" fill="#282828"/><path d="M11.17 60.84c-1.22-.56-2.28-1.39-3.56-2.22a28.02 28.02 0 0 1 4.45-4.45 50.8 50.8 0 0 1 26.28-11.89c5.72-.83 11.5-1.94 17.33-1.66 6.11.33 12.34.33 18.28 1.94 11.84 3.28 23.28 7.45 33.56 14.4.95.6 1.9 1.32 3.06 1.5.5.05.94.16 1.28-.23.39-.45.1-.89-.17-1.28-.22-.39-.67-.72-.72-1.22.16-.06.33-.11.5-.11 1.78.66 2.94-.4 4.1-1.45 7-6.22 14.01-12.55 22.01-17.5 13-8 26.45-14.95 41.67-17.78 1.22-.22 2.84-.17 2.9-2.11 1.27.17 1.5-.78 1.83-1.61.05.44 0 .94.16 1.39.34 1.16 1.78 1.6 2.56.72 3.44-3.95 8.05-6.06 12.66-8.06a27.06 27.06 0 0 1 6.9-2.22c-.56 2.61-.23 4.89 2.27 6.33-2 .56-4 1.12-6.05 1.67-.56.11-1.11.22-1.5.56-2.45 2-5.45 2.6-8.34 3.44-5.05 1.45-10.05 3-15.17 4.34-9.05 2.44-17.44 6.55-25.67 10.89-6.44 3.39-12.83 6.89-18.72 11.16-3.28 2.4-6.44 4.9-9.67 7.34-2.89 2.16-5.83 4.33-8.78 6.5-.55.39-1.05.89-1.5 1.33-2.1 2-4.66 2.56-7.5.56-2.55-1.78-4.94-3.72-7.44-5.56a65.34 65.34 0 0 0-14.4-7.72 41.66 41.66 0 0 0-8.88-2.56c-1.84-.27-3.73-.66-5.61-.66-6.45.05-12.84.1-19.28 0-3.4-.06-6.56.55-9.73 1.5-3.55 1.05-7.11 2.16-10.28 4.1-4.72 2.9-10 4.73-14.94 7.23-.9.45-1.78.95-2.61 1.56-.56.39-1.23.89-1.28 1.83ZM310.15 43.4c1.16 1.38 1.89 1.6 3.66.94a53.09 53.09 0 0 0 8.4-4.06c8.16-4.55 16.66-8.33 25.72-10.83 3.55-1 7.1-2.22 10.72-3.06 3.95-.89 7.95-1.33 12-1.78 4.78-.55 9.56-.83 14.34-.66 8.05.22 16 1.22 23.83 3 3.73.83 7.5 1.72 11.23 2.6.27.06.55.06.83.56-1.06.73-2.11 1.5-3.22 2.17-1.9 1.17-2.95 2.72-2.78 5-.39-.83-1-1.33-1.94-1.55a115.5 115.5 0 0 0-13-2.9c-2.73-.38-5.45-.94-8.23-.83a.27.27 0 0 1-.39 0c-.33-.44-.83-.39-1.28-.39-4.39 0-8.78-.16-13.17.06-2.16.11-4.38.39-6.6.61-3.06.33-6.12.78-9.17 1.33a186.89 186.89 0 0 0-19.95 5c-8.95 2.62-17.56 6.17-26.28 9.4-1.95.72-3.83.72-5.78.66a2.91 2.91 0 0 1-2.61-1.66c.89-.73 1.55-1.5 1.72-2.67.67-.17 1.28-.67 1.95-.95Z" fill="#DB8940"/><path d="M10.67 379.93c2.83 1 3.89 3.17 3.72 6-.11 2.22-.28 4.45-.5 6.67-.67 6.05-.22 12.17-.33 18.22 0 1.11.44 1.67 1.5 1.78.78.11 1.16.39 1.44 1.17 1.78 5.67 4.84 10.67 8.23 15.56 1.1 1.6 2.27 3.22 3.22 4.88 1 1.78 1.72 3.73.78 5.78-2.12.84-4 .22-5.73-.94a17.24 17.24 0 0 1-4.1-4.17 41.7 41.7 0 0 1-5.68-10.5 18.35 18.35 0 0 1-1.05-7.72c-.17-.11-.28-.23-.4-.23-3.21-.05-5-1.44-5.82-4.5a17.2 17.2 0 0 1-.5-3.38 74.6 74.6 0 0 1 1.44-19.56l.17-.95c-.11-.16-.17-.33-.28-.39-3.11-.66-4.22-1.77-4.67-4.94-.5-3.39-.05-6.72.33-10.11.84-7.23 2.73-14.17 5.12-21 .72-2.06 1.39-4.12 2.05-6.12.22-.16.4-.39.61-.5 1.4-.83 2.34-.5 2.73 1.06.5 2.05.38 4.16.05 6.22-.72 4.22-1.55 8.45-2.39 12.73-.83 4.38-1.33 8.77-1.78 13.22-.16 1.67-.16 1.94 1.84 1.72ZM32.61 441.21c-.33-1.05-.66-2.05-.94-3.1a6.14 6.14 0 0 1-.17-2.84c.17-.83.5-1.56 1.4-1.83.94-.28 1.72-.06 2.33.72 1.16 1.55 2.39 3.11 3.5 4.72 2.39 3.5 4.66 7.11 7.39 10.4.66.83 1.33 1.66 2.33 2.38.56-.61 1.06-1.22 1.61-1.78 2.72-2.83 5.72-3.27 9.11-1.16.95.6 1.84 1.33 2.78 2a34.4 34.4 0 0 0 8 5.83c1.9 1 3.9 1.5 6.06 1.11a8.53 8.53 0 0 1 5.83 1.17c2.78 1.67 5.56 3.33 8.28 5.11 1.95 1.28 3.39 2.89 3.22 5.5-.77 1.56-2.16 2.11-3.83 2.22a9.39 9.39 0 0 1-4.11-.83 32.8 32.8 0 0 1-6.61-3.89 3.88 3.88 0 0 0-3.4-.83c-3.33.66-6.44-.17-9.44-1.61a32.5 32.5 0 0 1-8.94-6.62 52.63 52.63 0 0 1-1.67-1.77c-.89.38-1.06 1.16-1.5 1.72-2.28 3-5.17 3.5-8.33 1.44-1.56-1-2.84-2.27-4-3.66a56.1 56.1 0 0 1-7.9-12.45c-.33-.61-.66-1.28-1-1.95ZM182.19 16.67c1.22 1 1.22 1.11-.11 1.78-1.34.66-2.84.94-4.28 1.22a88.7 88.7 0 0 0-22.34 7.72c-6.56 3.22-13.06 6.45-19.11 10.61a174.5 174.5 0 0 0-17.11 13.56 95.73 95.73 0 0 1-5.12 4.34c-1.27 1-1.44.88-2.66-.34.05-.17.1-.33.1-.55 0-.06.06-.12.06-.23.73-2.55 2.45-4.5 4.17-6.39 3.61-3.89 7.67-7.22 11.83-10.5 10.95-8.44 23-14.83 36-19.44 4.62-1.67 9.45-2.28 14.34-2.56 1.5-.05 2.95.17 4.23.78ZM432.55 377.6a7.5 7.5 0 0 1-1.72-2.95 66.82 66.82 0 0 1-2.78-9.89c-.17-1-.23-2-.23-3-.05-2.05.95-3.44 2.73-4.39l1.1-.5c1.18-.44 1.68-1.27 1.5-2.5a76.8 76.8 0 0 0-1.44-9.39c-1.27-5.72-2.6-11.44-3.94-17.11-.11-.61-.28-1.17-.33-1.78-.23-2.33.6-2.89 2.89-2.16a13.73 13.73 0 0 1 3.55 4.6 71.82 71.82 0 0 1 6.28 23.73c.06.78.06 1.61.06 2.45a7.73 7.73 0 0 1-4.62 7.27c-1.5.73-1.44.78-.94 2.4.83 2.55 1.89 5.05 2.39 7.72.16.94.33 1.89.28 2.83-.17 2.94-2.06 4.06-4.78 2.67ZM416.1 409.88c1.61-2.17 2-4.78 2.78-7.22.56-1.84.89-3.78 1.61-5.62.33-.89.72-1.77 1.45-2.39 1.16-.94 2.38-.66 2.88.73.34.89.45 1.83.67 2.72.17 2.89.5 5.78 0 8.67a24.03 24.03 0 0 1-4.11 10.28c-1.39 2-2.94 3.77-5.83 3-.67-.17-.9.44-1.23.83-2.27 2.78-4.55 5.56-6.83 8.28a17.99 17.99 0 0 1-3.56 3.55c-2.77 1.9-5.33 1.4-7.33-1.33-.83-.67-1.11-1.5-.39-2.39.39-1 1.11-1.72 2-2.17 1.44-.72 2.5-1.77 3.5-3 2-2.38 4.06-4.66 6.34-6.83a23.74 23.74 0 0 0 3.94-4.56 5.66 5.66 0 0 1 4.11-2.55Z" fill="#282828"/><path d="M365.76 444.05c1.4-1.78 3.28-3 5.23-4.06 3-1.55 6.05-3 8.83-4.94a4.45 4.45 0 0 1 5-.34c.67.4 1.11.17 1.61-.22 2.17-1.72 4.56-3.16 6.4-5.28 1.05-1.16 1.5-1.1 2.94-.16.22.94.44 1.89.05 2.83a7.66 7.66 0 0 1-1.28 3.4 22.42 22.42 0 0 1-5.5 6.16c-2.5 2-4.33 1.94-7.05-.06-2.84 2.61-6.17 4.45-9.67 6.06-1.5.67-3 1.17-4.67 1.05-.94-.05-1.89-.16-2.44-1.1-.17-.56-.45-1-.45-1.62.11-.72.45-1.28 1-1.72ZM427.44 394.04c-.67-4.16-.23-8.28.1-12.44.06-1 .23-2 .5-2.95.23-.89.67-1.66 1.67-1.83 1.06-.17 1.5.67 2 1.39.23.33.4.72.56 1.05a35.62 35.62 0 0 1 2 7.23c.33 2.44.17 4.83-.67 7.16-.55 1.56-1.44 2.95-2.94 3.73-1.34.72-1.84.5-2.34-1-.22-.56-.38-1.17-.55-1.73a1.68 1.68 0 0 1-.33-.6Z" fill="#282828"/><path d="M411.99 70.17a3.7 3.7 0 0 1 .94-1.77c1.67-.95 2.9-.45 3.95 1.5.83 1.39 1.67 2.77 1.94 4.39.28 2-.1 3.77-1.6 5.22-1.62 1.55-2.84 1.44-4.23-.33l-.5-.67c-1.83-2.17-.94-4.67-.89-7.06 0-.39.22-.83.39-1.28Z" fill="#55443D"/><path d="M416.16 63.62c.05-.11.16-.22.22-.34 1.22-1.83 1.11-3.6.39-5.66-1.11-3.06.28-4.78 3.55-4.95.62-.05 1.23-.05 1.84-.1.39.05.78.16 1.05.5.4.5.56 1-.33 1.05-.61.05-1.17.33-1.72.6-1.28.62-1.45.9-.9 2.18.34.83.79 1.55 1.06 2.38.9 2.34.4 3.45-1.83 4.56-.17.11-.39.17-.56.28-1.88 1.05-2.22 1-2.77-.5Z" fill="#56453D"/><path d="M405.38 83c-.45-2-.61-3.94.33-5.88.72-1.5 1.4-1.72 3.06-1.17a4.12 4.12 0 0 1 1.22 4.06c-.17.72 0 1.5-.22 2.22-.06.11-.06.28-.11.39-.28 1.06-.73 2.17-1.95 2.28-1.33.16-1.83-.95-2.33-1.9Z" fill="#55443C"/><path d="M360.1 447.66c1.1-.78 1.55-1.94 2.05-3.11.17-.39.28-.78.45-1.11.27-.56.55-1.11 1.27-1.06.73.06.95.67 1.06 1.28 0 .11.06.28.06.39.33.39.16.83.16 1.22 0 .17-.05.34-.1.5-.12.4-.18.84-.56 1.11-.45.73-.84 1.56-1.5 2.17-1.56 1.39-3.12 1.5-4.95.17.44-.84 1.56-.78 2.06-1.56Z" fill="#57463F"/><path d="M409.71 82.23c.17-2.17-.33-4.22-.94-6.22 1.05-1.95 1.78-4.11 3.22-5.84 0 1.23.06 2.4 0 3.62-.06 1.6-.06 3.22.5 4.77-.22.17-.39.34-.61.5-1.17.73-2 1.73-2.17 3.17Z" fill="#F9C495"/><path d="M416.16 63.62c.1.66.5.89 1.1.78.5-.12 1-.34 1.56-.28-.5 2-1.1 3.94-2 5.78-1.16-.84-2.22-2.11-3.94-1.5.44-1.95 1.78-3.4 2.67-5.12.27-.5.5.06.6.34Z" fill="#FCC898"/><path d="M395.82 431.88c0-.94 0-1.89-.05-2.83h.38c-.16.83.28 1.6.4 2.39-.23.16-.45.27-.73.44Z" fill="#A38872"/><path d="M365.32 445.6c0 .62 0 1.17-.06 1.78-.1-.16-.27-.33-.39-.5-.22-.44-.27-.83.06-1.27v.05c.11-.17.22-.22.39-.06Z" fill="#57463F"/><path d="M364.93 445.66c0 .44-.06.83-.06 1.28-.1 0-.27 0-.38-.06 0-.5.05-.94.44-1.22Z" fill="#B9BBB8"/><path d="M272.86 473.94c-.1-.28-.05-.55.23-.72.05.28.1.55-.23.72Z" fill="#FDC797"/><path d="M427.66 394.65v.06h-.06l.06-.06Z" fill="#FF9F4B"/><path d="m111.73 54.84.06.11-.17.06v-.12l.11-.05Z" fill="#DB8940"/><path d="M348.65 446c-1.5 1.5-2.61 3.27-3.72 5.05-4 6.44-8.34 12.61-13.45 18.28-4.89 5.33-10.67 9.56-16.28 14-5.61 4.4-11.83 5.61-18.72 4.56a12.78 12.78 0 0 1-7.34-3.61 7.9 7.9 0 0 1-2.39-4.78c-.16-1.34-.22-2.45 1.28-3.23 1.06-.5 1.4-1.72 1.06-2.83-.4-1.22.05-2.06.83-2.94a35.47 35.47 0 0 0 3.67-4.56c.28-.39.67-.67 1-1 .33-.28 1-.33.72-1-.22-.5-.78-.44-1.28-.44-.72 0-1.33.27-1.94.55-1.9.83-3.78 1.67-5.72 2.56-.12-.84.27-1.5.5-2.17 1.83-5 4.77-9.39 8.27-13.39a89.84 89.84 0 0 1 9.95-9.56c3.56-2.89 7.17-5.72 10.61-8.83 2.45-.5 4.95-.39 7.45-.39 3.72 0 7.22.89 10.5 2.5 2.5 1.22 4.89 2.56 7.33 3.83a4.77 4.77 0 0 1 2.4 2.4 4.47 4.47 0 0 0 2.44 2.27c1.33.56 2.44 1.28 2.83 2.72Z" fill="#FFDFC3"/><path d="m141.13 313.98-8.45-2.72a22.6 22.6 0 0 1-2.05-.78c-.9-.39-1.45-1.06-1.34-2.06.11-1.05.84-1.5 1.72-1.78.45-.1.95-.22 1.4-.22 3.33-.16 6.6.06 9.83 1.06 1.72.5 3.33 1.11 4.55 2.44.45.5 1 .56 1.67.56 4.61 0 9.22 0 13.78.05 7.67.06 15 1.78 22.22 4.28a24.34 24.34 0 0 1 9.4 6.28c3.1 3.17 3 6.22-.23 9.34-.22.22-.55.38-.66.83.16.5.77.61 1.16.94 3.61 2.73 5.67 6.34 5.84 10.9a8.92 8.92 0 0 1-3.9 7.83c-1.6 1.17-3.33 2-5.22 2.67a81.74 81.74 0 0 1-18.16 4c-2.17.22-4.28.55-6.45.77-3.39.28-6.72-.44-10.06-.94-2.94-.45-5.89-.72-8.83-1.06-.67-.05-1.17 0-1.67.5a2.47 2.47 0 0 1-3 .56c-.94-.39-1.55-.06-2.22.39a53.23 53.23 0 0 1-7.89 3.66c-1.5.56-3 .78-4.56.62-1.83-.17-2.33-1.17-1.5-2.78a8.65 8.65 0 0 1 3.78-3.56 51.75 51.75 0 0 1 7.34-3.44c.94-.34 1.33-.78 1.22-1.9-.5-4.27.28-8.5.44-12.72.06-.94.17-1.88.17-2.83 0-7.06-.45-14 1.67-20.9ZM267.75 333.04c-1.67-.23-3.22-.4-4.72-.67-2.67-.5-5-1.67-6.83-3.72-2.06-2.28-2.34-4.78-.73-7.45 1-1.66 2.34-3.1 3.78-4.5 5.5-5.39 11.5-10.06 18-14.17 3.28-2.05 6.67-3.89 10.5-4.72.73-.17 1.12-.67 1.56-1.22 1.72-2 3.72-3.72 6-5.11a5.81 5.81 0 0 1 3.44-1c2.4.16 3.45 2 2.45 4.16-.5 1-1.28 1.73-2.17 2.34-.72.5-1.44 1-2.1 1.44-.06.67.44.83.77 1.11a58.3 58.3 0 0 1 9.67 10.9c2.22 3.27 2.94 7.05 3.6 10.88.79 4.4 1.62 8.78 1.29 13.28-.11 1.06.5 1.11 1.22.95 1.56-.34 3.17-.73 4.78-.95a5.88 5.88 0 0 1 2.78.28c1.5.56 1.83 1.78.83 3.06a5.64 5.64 0 0 1-2.89 1.77c-2.72.84-5.56 1.4-8.39 1.06-2.33-.22-4.5.22-6.67 1.17-6.1 2.72-12.33 5.16-19 6.39a73.51 73.51 0 0 1-9.22 1.22c-6.06.39-10.67-4.84-9.67-11 .22-1.34.67-2.61 1.17-3.9.1-.38.33-.94.55-1.6ZM210.13 229.75a27.8 27.8 0 0 1-5.66.33 10 10 0 0 1-6.28-2.5 5.34 5.34 0 0 1-1.61-2.06c-.78-2.05.33-3.94 2.5-4.05 1.33-.06 2.72.11 4.05.28 1.67.16 3.34.16 5.06-.06 4.72-.61 7.83-3.33 10-7.39-.39-.61-1-.39-1.5-.39a12.8 12.8 0 0 1-4.94-1.1c-5.06-2.23-6.73-7.68-3.9-12.4a15.32 15.32 0 0 1 5.28-5.22 24.45 24.45 0 0 1 15.62-3.22c5.66.72 9.5 5.38 9.11 10.83-.28 3.72-2.45 6.22-5.45 8.06-1.5.94-3.22 1.39-4.88 1.89 1.16 5.05 6.38 8 10.55 7.05 1.33-.28 2.61-.6 3.95-.89a8.97 8.97 0 0 1 3.44-.16c2.34.33 3.34 2.05 2.67 4.28a6.57 6.57 0 0 1-2.45 3.38c-2.1 1.78-4.6 2.5-7.28 2.78l-1.83.17c-1.44.78-2.83.28-4.28 0a20.28 20.28 0 0 1-7.16-3.4c-.34-.21-.61-.5-.95-.77-2.44-1.89-2.44-1.89-4.55.28a17.13 17.13 0 0 1-6.62 3.78c-.94.28-1.83 1.05-2.89.5Z" fill="#282828"/><path d="M219.52 225.25c.62-.67 1.23-1.4 1.84-2.11.44-.56.83-.45 1.28 0 .83.83 1.72 1.66 2.55 2.44.56 1.56.56 3.17.5 4.78 0 .83-.22 1.72.11 2.39.72 1.44.4 2.6-.66 3.89 2.22.05 4.27-.45 6.1-1.45 1-.55.95-1.89 1.06-2.94.17-1.17-.27-2.28-.27-3.4 1.5.18 3 .34 4.5.5.05 1.95.5 3.84.38 5.84a8.57 8.57 0 0 1-.88 3.5 3.62 3.62 0 0 1-2.45 1.95c-4 1.1-8.11 1.6-12.17 1.1-3.5-.44-7-1.27-10.16-3a3.5 3.5 0 0 1-2-3.6c.1-1.84.5-3.56.77-5.4l2.9-.83c.5 1.5-.28 2.95-.28 4.4.05 2.22.22 2.5 2.44 2.88 1.33.22 2.72.28 4 .56 1.22.28 1.39-.22 1.11-1.34a29.69 29.69 0 0 1-.67-10.16Z" fill="#D9D9D9"/><path d="M216.91 453c-1.16.16-2.22-.4-3.1-1.12-2.62-2-4.18-4.72-4.9-7.89a6.44 6.44 0 0 1-.05-3.55c.77-2.34 2.83-3 4.6-1.34 1.79 1.67 2.67 3.9 3.62 6 .67 1.5 1.33 2.95 2.05 4.4 1.12 2.16.28 3.5-2.22 3.5ZM212.97 294.98a4.9 4.9 0 0 1 .89-3.28c1.22-2 3.6-2.06 5.05-.22a9.85 9.85 0 0 1 1.73 3.6c.33 1.34.72 2.73 1.05 4.06.28 1.17 0 2.17-.28 3.12-.5 1.72-3.1 1.94-4.78.6-2.5-2-3.38-4.77-3.66-7.88ZM324.31 271.14a6.07 6.07 0 0 1-.83 4.06c-.83 1.22-1.56 1.5-2.67.6-3.1-2.55-5.22-5.6-5.05-9.83.05-1.39.55-2.5 1.89-3.05a3.65 3.65 0 0 1 4 .5c1.83 1.44 2.39 3.5 2.66 5.72.06.56 0 1.17 0 2ZM299.25 394.1c1.06-.06 1.9.61 2.34 1.89.67 1.89.89 3.94 1.17 5.89.38 2.89 1.1 5.67 1.72 8.44.1.56.55 1.17-.06 1.67-.66.61-1.39.33-2.05-.06a8.33 8.33 0 0 1-3.28-3.77c-1.56-3.4-2.78-6.84-2.45-10.73.12-1.16.5-2.05 1.34-2.83.33-.28.77-.5 1.27-.5ZM46.12 315.98c0-1.39-.11-2.83.72-4.11.72-1.17 1.72-1.4 2.94-1.4 1.23-.05 1.9.68 2.28 1.68.72 2 1.22 4.1 1.39 6.27.11 1.12.44 2.17.06 3.4-.78 2.66-3.17 3.44-5.23 1.55-1.55-1.39-1.83-3.39-2.1-5.33-.17-.67-.06-1.4-.06-2.06ZM306.76 280.42c-1.84.17-3.06-.94-3.9-2.33a15.74 15.74 0 0 1-1.88-4.45 6.45 6.45 0 0 1 .5-4.33 3.1 3.1 0 0 1 2.89-1.9c1.39-.05 2.33.56 2.83 1.84.33.83.83 1.67.83 2.5 0 1.56.62 2.9 1.28 4.23.11.16.17.38.28.55.94 2.5-.06 3.89-2.83 3.89ZM367.37 298.2c.12.72-.1 1.5-.38 2.28-.34 1.1-.73 1.22-1.73.72a6.57 6.57 0 0 1-2.83-3.06 13.6 13.6 0 0 1-1.11-10 5.3 5.3 0 0 1 1.33-2.44c1.17-1.22 2.39-1.06 3 .5.4 1 .72 2.05.84 3.11.1 1.5.33 2.94.38 4.39.06 1.5.56 2.94.5 4.5ZM151.3 413.55c0 2.27-.84 3.44-2.73 3.88-1 .23-1.83-.16-2.66-.66-2.12-1.17-4-5.28-2.5-8.17.72-1.39 1.88-2 3.22-2.11a3.31 3.31 0 0 1 3.22 1.67 11.37 11.37 0 0 1 1.44 5.39ZM333.31 398.65c.17 1.4-.88 2.5-3.33 1.84-3.11-.84-5.11-3-6.28-6-.22-.56-.1-1 0-1.56.4-2.17 3.11-3.78 5.4-2.17 2.44 1.67 4.05 4.12 4.21 7.9ZM139.13 421.1v.4c-.06 2.21-1.06 2.82-3.12 1.88a8.22 8.22 0 0 1-3.16-3 12.23 12.23 0 0 1-1.67-3.67 4.11 4.11 0 0 1 .45-3.5 3.22 3.22 0 0 1 5.6.34c1.23 2.38 1.67 4.94 1.9 7.55ZM176.52 258.86c.22 1 .33 1.95-.83 2.4-.95.38-2.45-.06-3.12-.95a10 10 0 0 1-2.05-4.56c-.33-1.94-.5-3.83.22-5.72.17-.45.33-.9.67-1.22 1.05-1 1.89-1 2.94 0 1.34 1.22 1.56 2.88 1.67 4.44.11 1.89.33 3.78.5 5.61ZM74.95 310.64v1.62c-.05 1.44-.78 2.44-2.1 2.89-1.34.5-2.4-.06-3.29-1-1.6-1.67-1.72-3.73-1.39-5.84a8.5 8.5 0 0 1 .78-2.28c.84-1.88 2.78-2.22 4.28-.77 1.22 1.27 1.72 2.66 1.72 5.38ZM159.4 406.27c.12 1.05-.27 2.22-.55 3.39-.39 1.77-1.94 2.44-3.61 1.66-3.06-1.5-3.89-5.05-2.78-7.72.61-1.5 2.11-2.22 3.78-2.11 1.33.11 2.33 1.11 2.89 2.67.28.6.28 1.27.28 2.1ZM241.03 437.33c.05.72-.06 1.5-.34 2.27-.72 1.95-2.28 2.56-3.94 1.4a5.83 5.83 0 0 1-1.11-8.84c.72-.78 1.5-1.67 2.72-1.45 1.33.28 1.89 1.45 2.06 2.5.27 1.4.72 2.67.6 4.12ZM187.8 253.3l.16 2.23c.12 1.94-1.5 3.11-3.33 2.39a3.7 3.7 0 0 1-2.05-1.84 8.08 8.08 0 0 1-.06-7.55c.56-1.11 1.44-1.84 2.72-1.72 1.22.1 1.78 1 2.22 2.05.5 1.45.34 2.95.34 4.45ZM229.25 444.16c0 2.83-1.84 4.11-4.06 3.28-2.16-.78-3.72-3.9-3.11-6.34.17-.77.5-1.55.83-2.27.84-1.56 2.4-1.84 3.62-.62 1.77 1.78 2.27 4.12 2.72 5.95ZM306.87 398.32v-.78c.1-1.39.72-2.22 1.89-2.55a2.94 2.94 0 0 1 3.16 1.22c.5.72.73 1.61.95 2.44.28 1.34.83 2.5 1.89 3.45.94.78.72 1.61-.4 2.17-1.5.78-3.94.44-5.38-1.11-1.22-1.28-2.28-2.78-2.11-4.84ZM223.58 290.2c0-.17-.06-.56 0-1a3.27 3.27 0 0 1 2.5-2.67c1-.16 2.11.5 2.78 1.67.39.72.66 1.44.83 2.28.22 1.1.22 2.27.78 3.33.39.72.56 1.39-.17 2-.78.61-1.55 1.06-2.6.72-2.5-.94-4.45-3.44-4.12-6.33ZM368.99 288.87c-.17-.9.33-1.84.77-2.67.5-.95 1.4-1.28 2.34-1.22 1 .05 1.83.44 2.22 1.44.56 1.33.94 2.67.56 4.11-.4 1.45-.4 2.9-.9 4.28-.5 1.28-1.05 1.5-2.05.56-1.78-1.73-3.06-3.73-2.94-6.5ZM240.2 291.64c0 .95.1 1.9 0 2.84-.23 1.5-1.23 1.94-2.62 1.27-2.6-1.16-4.33-5.72-1.6-8.77 1.21-1.4 2.82-1.06 3.77.55.72 1.28.39 2.72.44 4.11ZM59.12 313.09a5.83 5.83 0 0 1 1.33-4.11c1.28-1.5 2.83-1.22 3.67.55.44.95.22 2.17 1.33 2.78.11.06.11.23.11.4.4 1.88-2.1 4.55-4 4.33-1.05-.17-2.22-1.4-2.39-2.67-.1-.45-.05-.9-.05-1.28ZM196.3 256.58c-.83-.05-1.22-.38-1.5-.88a18.45 18.45 0 0 1-2.78-6 2.67 2.67 0 0 1 .06-1.62c.44-1.22 1.5-1.55 2.55-.83a4.5 4.5 0 0 1 1.72 2.89c.23 1.44 0 2.94.45 4.39.17.72-.39 1.33-.5 2.05Z" fill="#DFB186"/><path d="M365.32 445.6c-.11 0-.28 0-.4.06 0-.56.06-1.11.06-1.67.28 0 .56.06.78.06-.1.56-.27 1.06-.44 1.56Z" fill="#D4AE93"/><path d="M179.3 173.69c1.39 7.5-.22 14.5-3.67 21.1a19.88 19.88 0 0 1-5.56 6.62c-4.33 3.45-13.55 2.72-16.55-4.17-1.4-3.22-2.06-6.66-2.61-10.16a20.94 20.94 0 0 1-.06-7.45c.22-.94-.06-1.56-1.17-1.61-.33 0-.6-.22-.94-.33-2.84-1.17-3.67-2.56-3.5-5.62 1-2.55 2.89-3.22 5.5-2.05.44.17.83.44 1.22.72.45.28.89.83 1.39.11.39-.55.33-1.16-.17-1.66a9.98 9.98 0 0 1-1.66-2.06c-1.17-2.22-.28-3.72 2.27-3.72.5 0 1.06-.06 1.4.22 2.05 1.61 3.6.44 5.33-.72 5.16-3.4 11.39-2.61 15.05 2.89 1.67 2.44 3.56 4.77 3.73 7.89ZM295.42 169.57c-1 .4-.67 1.12-.5 1.9a22.3 22.3 0 0 1-.83 12.77 27.13 27.13 0 0 1-6.84 10.4 12.16 12.16 0 0 1-15.16 1.1 10.3 10.3 0 0 1-3.84-5.33c-1.72-5.06-2.39-10.22-1.72-15.56l.17-2c-.06-4.16 1.83-7.55 4.39-10.55 3.89-4.56 8.72-6.12 14.55-4.28 1.06.33 2 .27 2.9-.4.44-.33.94-.55 1.44-.77 1.89-.89 3.39-.78 4.5.39 1.27 1.39.77 2.89.1 4.33-.27.56-.66 1-1 1.56-.66 1.06-.44 1.67.9 1.61 1.39-.06 2.66.17 3 1.78.22 1.44-.73 2.44-2.06 3.05ZM91.57 75.45c.6 2.5-.56 4.17-2.73 5.23-2.22 1.1-4.44 2.16-6.83 3.38.67 1.23 1.55 2.28 1.39 3.67-.17 1.5-1.22 2.34-2.4 3.06-2.66.44-3.44 2.5-4.27 4.66-.5 1.28-.94 3-3.06 2.17-.44-.28-.83-.67-1.22-1.05-1.22-1.5-.89-3.34-.89-5.06 0-.33.06-.61.17-.89.33-1 .61-2.05 1.28-2.89.83-1 .89-2 .33-3.11-.28-1.06.11-2 .28-3 .11-.5.33-.94.61-1.39 1-1.22 2-2.33 3.39-3.06.83-.38 1.61-.83 2.44-1.16.67-.22 1.34-.45 1.95-.78.39-.17.78-.28 1.22-.44l.5-.17c.33-.17.78-.17.61-.72-.1-.11-.16-.23-.28-.34-.1-.1-.22-.22-.27-.33-.11-.11-.17-.28-.28-.39a6.07 6.07 0 0 0-.72-.94c-.45-.5-.95-.95-1.5-1.28l-.45-.28a2.42 2.42 0 0 1-.39-.33.77.77 0 0 0-.22-.17 9.02 9.02 0 0 0-2.17-1.67c-5.16-3.33-10.55-6-16.72-6.89a36.6 36.6 0 0 0-8.89-.05c-.72.05-1.44.22-2.22.11-.4-.06-.78-.22-1.17-.33-.17-.06-.39-.17-.55-.23a2.13 2.13 0 0 1-.62-.6 1.07 1.07 0 0 1-.16-.56 3.2 3.2 0 0 1 .1-1.45c.06-.16.18-.33.29-.5a.77.77 0 0 0 .16-.22c.56-.44 1.17-.83 1.78-1.22l.67-.34c.16-.05.28-.16.44-.22.17-.05.28-.16.45-.22l.44-.17c.33-.05.61-.05.95-.05 2.39-.45 4.77-.95 7.22-.95 4.55-.05 8.89.78 13.06 2.5a44.36 44.36 0 0 1 10.77 5.95c1.12.89 2 1.94 3.06 2.94 2.17 1.45 2.89 3.84 3.72 6.06.45 1.11.61 2.44.73 3.72Z" fill="#282828"/><path d="M172.02 63.34c3.44.39 4.67 2.28 3.72 5.45a8.56 8.56 0 0 1-4.72 5.27c-1.11.56-1.5.4-2.06-.77-.1-.17-.16-.4-.22-.56a11.6 11.6 0 0 0-2.44-4.89c-1.84-2.06-1.84-4.89-1.45-7.5.17-1 .22-1.67-.83-2.11-1.45-.67-1.61-2.11-1.72-3.45-.12-1.83-.06-3.6-.06-5.55-.61.16-.83.78-1.11 1.22-.61 1-1.5 1.72-2.34 2.56-1.44 1.38-2.55.66-3.33-.56a7.31 7.31 0 0 1-1-3.28c-.28-3.05.61-5.89 1.83-8.61 1.45-3.17 3-6.39 5.17-9.17 1-1.28 2.11-2.5 3.67-3.16 2.5-1.06 4.67.27 4.83 3.05.11 2-.5 3.89-1.28 5.67-.55 1.28-1.27 2.55-1.94 3.94 1.11.28 2.28.23 2.89 1.17.61.94.83 2 .78 3.11-.06 1.4.16 2.84-.34 4.22-.16.56-.05.95.56 1.28a4.91 4.91 0 0 1 2.89 5.56c-.39 2.39-.72 4.72-1.5 7.11ZM60.4 173.07c.88-.38 1.33-1.1 1.88-1.66a5.25 5.25 0 0 1 2.78-1.5c2.17-.4 3.95.78 4.17 3 .17 1.66.17 3.39-.5 5a8.94 8.94 0 0 0-.72 4.33 9.94 9.94 0 0 1-.45 3.61c-.66 2.4-3.05 3.4-5.33 2.4-1.56-.67-2.5-2-3.33-3.4-.56.56-.56 1.17-.62 1.78-.22 1.9-1.05 3.61-2 5.28-.22.39-.55.78-.88 1.11-1.17 1.11-1.95 1.17-3.23.28a4.98 4.98 0 0 1-2.22-2.78 15.1 15.1 0 0 1-.72-5.94c.39-4.45 1.33-8.78 1.83-13.17a12.5 12.5 0 0 1 1.56-5 4.72 4.72 0 0 1 6.66-1.61c1.56 1 2.23 2.88 1.78 5-.28 1.05-.78 2.05-.66 3.27Z" fill="#FDC898"/><path d="M343.37 55.56c-2.22 1.56-4.11 3.5-6.17 5.22a8.83 8.83 0 0 1-2.55 1.67c-1.28.5-2.17-.11-2.11-1.5a7.2 7.2 0 0 1 1.22-3.61 46.13 46.13 0 0 1 4-5.33c5.39-5.9 11.67-10.62 18.56-14.62 3.6-2.1 7.67-2.89 11.78-3.6 4.94-.84 9.89-1.34 14.94-.95 1.4.1 2.78.55 4.22.33 2.95-.72 5.95.5 6.84 2.72 0 .22-.06.45-.17.61-.16.28-.39.5-.66.67-1.12.61-2.45.5-3.62.83a7.4 7.4 0 0 1-1.55.17h-.95c-1.38.06-2.83-.17-4.16.22-4.95.11-9.73 1.11-14.56 2.06-5.44 1.05-10.11 3.55-14.45 6.94-1.05.84-2.16 1.62-3.16 2.5a56.78 56.78 0 0 0-5.28 4.4c-.72.55-1.34 1.1-2.17 1.27Z" fill="#282828"/><path d="M179.3 173.69a27.38 27.38 0 0 0-4.78-8.4c-3-3.77-7.56-4.94-11.95-2.94-1.27.61-2.5 1.34-3.6 2.28-1.29 1.11-1.29 1.11-2.62.17a4.9 4.9 0 0 0-3.28-.9c-1.44.12-2 1.06-1.5 2.4a6.34 6.34 0 0 0 2.17 2.66c.78.56.89 1.06.28 1.84-.34.44-.56.94-.9 1.5-1.33-.84-2.38-2.12-4.1-2.28-1.84-.22-2.95.72-3.84 2.11.06-.44-.05-1 .11-1.39 1.34-3.56 2.84-7.06 5.56-9.78 3.89-3.89 8.72-6.05 14-7.11 3.22-.67 6.4-.67 9.5.72a16.33 16.33 0 0 1 6.12 4.84 26.12 26.12 0 0 1 3.66 5.78c.45 1.05.84 2.1.84 3.27-.06 2.67-2 4.56-4.73 4.23-1.05-.17-.83.44-.94 1Z" fill="#DB8940"/><path d="M261.2 70.95c-2.28.28-4.12-1.6-4.9-3.6a5.4 5.4 0 0 1 1.67-5.68c.11-.1.28-.1.34-.22.5-.5 1.5-.55 1.66-1.39.11-.72-.72-1.05-1.05-1.66-.9-1.62-1.34-3.34-.4-5 .79-1.28.45-2.17-.32-3.23-1.62-2.28-1.4-4.5.5-6.17 1-.88 2.16-1.22 3.55-.88 1.95.44 3.72 1.16 5.33 2.33 1.5 1.11 2.56 2.56 2.67 4.56.06 1.27-.22 2.44-1.28 3.27-1 .78-1 1.5-.44 2.56.56 1.11.67 2.28.22 3.56-.6 1.83-1.94 2.66-3.72 3-1.67.33-2.06.94-1.44 2.5.33.83.77 1.55 1.38 2.22.9 1 .9 1.61-.16 2.5-1 .94-2.23 1.5-3.61 1.33Z" fill="#FDC898"/><path d="M295.42 169.57c.4-.55.9-1.05 1.22-1.6.9-1.67.23-2.84-1.6-2.84-.45 0-.95.06-1.4.17-.44.1-.77.1-1.05-.34-.28-.44-.61-.94-.17-1.5.33-.5.72-1 1.11-1.44.5-.56.78-1.28 1-2 .28-.95.34-1.9-.44-2.67-.83-.78-1.9-1-3-.61-1 .39-2 .83-2.78 1.61-.61.61-1.22.67-2 .33-1.17-.5-2.39-.89-3.67-1-5.05-.39-8.83 1.84-11.83 5.73a19.82 19.82 0 0 0-3.67 8.44c-.06.34-.11.67-.33.9h-.84c-4.1 0-6.27-3.56-4.27-7.23 1.66-3.11 4-5.73 6.94-7.73 3.56-2.44 7.28-4.44 11.56-5.1 6.28-1 11.61.1 16.33 6 1.17 1.44 2.06 3 2.56 4.77.72 3.17-.78 5.72-3.67 6.11Z" fill="#DB8940"/><path d="M222.41 39.73c-.22.66-.5 1.39-.77 2.16.72 0 1.22-.44 1.72-.66 2-.78 3.78-.06 4.61 2 .5 1.22.67 2.5.44 3.78-.5 2.72-1.33 5.38-2.94 7.66-.44.61-.72 1.06-.39 1.78 1.5 3.22.06 5.89-1.72 8.45a7.62 7.62 0 0 1-2.78 2.33c-3.06 1.39-5.28-.94-5.5-3.39-.22-2.56.78-4.61 2.39-6.44l1-1c.39-.34.5-.73.33-1.23-1.17-2.89-.67-5.78.22-8.66.06-.28.17-.5 0-.78-.6-.17-.94.39-1.5.5-.05-.06-.1-.11-.1-.17 0-1.56 3.44-5.94 5-6.33Z" fill="#FDC898"/><path d="M222.41 39.73c-1.44.55-1.44 2.16-2.27 3.1-.84.95-2.06 1.5-2.5 2.79-.06.16-.06.39-.12.6-2.83 1.12-5-.33-5.27-3.5-.23-2.77.88-5.16 2.05-7.5 1.22-2.33 2.56-4.6 3.83-6.88.62-1.06 1.23-2.11 2.17-2.95 1.11-.94 2.34-1.61 3.84-1.55a3.76 3.76 0 0 1 3.72 4.5 12.07 12.07 0 0 1-1.28 4c-1.33 2.44-2.56 5.05-4.17 7.39ZM375.1 156.63a5.57 5.57 0 0 1 .83-3.5c1.61-2.45 5.72-1.45 7.06.39a13.47 13.47 0 0 1 2.55 6.5c.22 2.16.56 4.39.06 6.61-.5 2.5-1.5 4.61-3.95 5.78-1.6.78-2.77.39-3.77-1.11a9.82 9.82 0 0 1-1.56-5.4c-.06-2.88-.06-5.77-1.22-8.55-.06-.33 0-.78 0-.72Z" fill="#FDC898"/><path d="M239.14 16.95c2.39.44 4.83.44 7.11 0 .39.39.22.6.11.83-.67 1.83-.28 2.83 1.5 3.5 1.83.67 3.78.94 5.67 1.39 7.44 1.61 14.83 3.39 21.89 6.44 3.56 1.56 6.89 3.45 10.28 5.28a168.6 168.6 0 0 1 11.44 6.9c.34.21.73.38.9.77-2.79-1.11-5.5-2.17-8.23-3.28a436.23 436.23 0 0 0-14.06-5.67c-6.6-2.5-13.22-5.05-19.83-7.6a38.3 38.3 0 0 0-6.95-2.06c-3.05-.5-5.72-1.56-6.78-4.9-.22-.66-.83-.77-1.38-1.05-.67-.33-1.5.06-2.12-.6.06-.12.22-.12.45.05Z" fill="#DB8940"/><path d="M361.26 171.24c-.72.89-1.05 1.83-1.78 2.45-.55.44-1.05.33-1.27-.28-1.5-3.84-2.45-8.72.55-12.5 1.11-1.4 2.45-2.17 4.23-1.62.6.17 1.16.17 1.77.23 1.9.1 3.11.94 3.73 2.89a20.88 20.88 0 0 1 1 7.16c-.12 2.12-1.06 3.62-2.78 4.28-1.61.61-2.9.17-4.45-1.5-.33-.33-.6-.66-1-1.1Z" fill="#FDC898"/><path d="M393.71 36.4c.28-1.45-.78-1.84-1.78-2.29-1.5-.6-3.17-.55-4.67-.94-.38-.67-1.33-.06-1.83-.89 2-.55 4-.17 5.95-.28h.39c.77.56 1.66.73 2.5 1.23 2.5 1.44 4.22 6.72 2.66 9.39-.1.22-.22.5-.22.77.06 2.4-1.28 4.17-2.5 6.06a14.15 14.15 0 0 0-1.78 3.56c-1 3.22-2.22 6.33-4.28 9.05-.22.28-.38.56-.66.72-2.61 1.84-4.23 4.4-5.23 7.34-.66 2-1.55 3.94-1.5 6.17.06 1.66-.94 3.05-1.83 4.39-.39.6-1 .88-1.67 1.1-2.38.95-5 .95-7.5 1.56-.89.22-2-.5-2.83-1.16-.72-.95-.61-2-.17-3 .34-.34.56-.17.84.05.44 1.39 1.44 1.78 2.83 1.61 5.28-.44 7.44-2.6 8.61-7.78.84-3.66 2.34-7.16 5-10a18.02 18.02 0 0 0 3.67-6c1-2.55 2.33-5 3.56-7.44 2-4.23 2.66-8.62 2.44-13.23Z" fill="#FFA355"/><path d="M353.65 70.17c-.22 2-1.05 2.78-3.17 2.73-2.6-.06-7-2.17-7.44-6-.11-.95-.45-1.28-1.4-1.23-.88.06-1.71.06-2.6-.27-2.06-.84-2.34-2.45-.67-3.84 2.5-2 5.28-3.22 8.56-2.83.27-.22.55-.22.89-.17a6.04 6.04 0 0 1 3.55 4.06 8.8 8.8 0 0 0 1.84 5.55c.5.5.89 1.23.44 2Z" fill="#282828"/><path d="M72.06 176.57c.56-2.38.4-4.94 2.11-7 1.56-1.94 4.12-2.44 6.12-1.1 1.6 1.05 2.05 2.77 1.83 4.44-.28 2.28-.56 4.5-.22 6.78a3.96 3.96 0 0 1-2.61 4.28c-1.84.66-3.34-.06-4.67-1.12-2.06-1.6-2.28-3.94-2.56-6.28ZM268.36 42.95c-1.33.17-2.44-.45-3.5-1.17-1.5-1-3.05-2-4.6-2.89-2.45-1.39-4.12-4.28-1.84-7.1 1.22-1.5 3-2.12 4.89-1.5 3 1 5.6 2.6 7.89 4.82a4.74 4.74 0 0 1 1.55 3.4c.06 3.1-2.1 4.72-4.39 4.44Z" fill="#FDC898"/><path d="M239.14 16.95c-.17 0-.34.05-.56.05-2.55 0-5.11-.16-7.67 0-2 .11-4 .4-6 .4-1.16 0-2.27-.12-3.38-.4-1.84-.44-3.28-1.39-3.78-3.28-.34-1.27-1.06-1.77-2.28-1.66 1.11-.67 2.39-.84 3.61-1.11 1-.28 2-.12 2.83.6a6.2 6.2 0 0 0 2.56 1.12c1.22.22 2.28-.06 3.06-1.06.33-.44.66-.89 1.22-.94 2.6-.4 5.1-1.22 7.72-1.4h1.11c-.5 1.56-1.67 2.73-1.28 4.4.4 1.55 1.56 2.44 2.84 3.28ZM291.03 133.63c-.05 2.33-1.55 3.27-3.44 2.38a15.27 15.27 0 0 1-7.06-6.94c-.66-1.33-1.39-2.56-1.28-4.17.23-2.6 2.5-4 4.9-2.94a6.3 6.3 0 0 1 2.44 2.05 28.51 28.51 0 0 1 4.28 8.4c.1.44.1 1 .16 1.22Z" fill="#DB8940"/><path d="M52.17 228.36c-.22 1.5-.5 3.55-.89 5.61a2.95 2.95 0 0 1-2.33 2.5 3.31 3.31 0 0 1-3.06-1.22c-2.44-2.95-3.33-8.72-.38-12.84a3.77 3.77 0 0 1 3.38-1.5c1.34.06 2.06 1.12 2.45 2.4a16 16 0 0 1 .83 5.05ZM359.26 205.75a6.07 6.07 0 0 1 2.17-4.78c2.11-1.73 4.94-1 5.56 1.6.6 2.62 1.5 5.18 1.94 7.79.06.44.06.94 0 1.39-.39 2.27-1.39 2.83-3.72 2.27-2.67-.66-6.06-4.33-5.95-8.28Z" fill="#FDC898"/><path d="M111.85 140.8c1-3.9 1.33-8.23 4.66-11.4.4-.39.78-.72 1.28-.94 1-.5 2.06-.39 2.83.28.73.6 1 1.55.84 2.55-.45 2.06-1.17 4-2.11 5.9-1 1.88-2.11 3.77-3.17 5.6-.5.9-1.06 1.78-2.33 1.62-1.28-.17-1.4-1.34-1.84-2.23-.1-.33-.1-.78-.16-1.39Z" fill="#DB8940"/><path d="M68.84 227.3c-1.61.72-3.22 1.4-4.78 2.17-.94.44-1.89.56-2.89.67-2.77.27-5.5-3.06-3.66-6.5 1.1-2.12 3.6-2.12 4.83 0 .44.77.44 1.89 1.5 2.27.94.4 1.83-.16 2.78-.27a5.7 5.7 0 0 0 2.67-.78c1.44-1 2.88-2.22 4.83-1.22 2.61 1.33 3.61 3.5 2.83 6.33-.1.39-.44.5-.77.56-.84.27-1.56-.17-1.95-.73-1.28-2-3.11-2.66-5.39-2.5Z" fill="#FDC898"/><path d="M303.98 89.9c0 3.11-.5 3.44-3.11 2.05-3.62-1.94-5.73-5-6.56-8.94-.28-1.17 0-2.33 1.11-3a3.22 3.22 0 0 1 3.45-.06c2.05 1.11 3.27 3 4.1 5.06.67 1.55 1.17 3.28 1 4.89ZM284.42 86.01c2.5-.06 3.61.94 4.39 2.22a17.23 17.23 0 0 1 2.56 6.95c.16 1.22-.12 2.33-1.17 3.05-.95.61-1.95.34-2.89-.1a7.18 7.18 0 0 1-2.94-2.67 13.69 13.69 0 0 1-2.23-5.62c-.39-1.94 1.17-3.83 2.28-3.83ZM339.7 215.3c-.05-1.05.06-2.05.9-2.83 1-.9 2.94-.67 3.77.55a44.32 44.32 0 0 1 4.61 9.17c.28.84.56 2.06-.16 2.67-.78.66-1.95.39-2.9.1a4.46 4.46 0 0 1-1.6-.82 12.22 12.22 0 0 1-4.62-8.84ZM98.07 227.64c.27 1.72-.4 3.55-.84 5.44-.27 1.17-.94 1.33-1.89.56a10.71 10.71 0 0 1-3-4c-1-2.61-1.6-5.23-.77-8.06.6-2.06 2.33-2.72 4.05-1.39 1.67 1.28 2.28 3.11 2.45 5.11.05.67 0 1.4 0 2.34Z" fill="#DB8940"/><path d="M89.12 178.57c.11-3.05 1.22-5.6 3.78-7.38.83-.56 1.78-1.12 2.78-.34a2.8 2.8 0 0 1 1.05 2.9c-.27 1.38-.5 2.77-1.1 4.05a7.75 7.75 0 0 0-.79 3.72c.06 1.06-.05 2.17-1.1 2.61-1.23.45-2.23-.16-3.06-1.05a5.46 5.46 0 0 1-1.56-4.5Z" fill="#FDC898"/><path d="M68.84 227.3c.5-.16 1-.33 1.56-.44 1.16-.17 2.22 0 2.94 1.16a6.4 6.4 0 0 0 2.84 2.45c.77 2.44.5 4.94-.28 7.33-.4 1.17-1.5 1.5-2.84 1-1.39-.5-2.05-1.66-2.55-2.94a15.6 15.6 0 0 1-1.67-8.56ZM147.24 132.35c.16 2-.89 3.66-1.78 5.44-.39.72-.89.84-1.67.5-1.88-.83-2.72-2.44-3.27-4.16-.5-1.5-.78-3.06-.23-4.73.45-1.39 1.17-2.44 2.62-2.72 1.22-.28 2.72.61 3.5 1.94.5.84.83 2.34.83 3.73Z" fill="#DB8940"/><path d="M383.6 204.97a5.24 5.24 0 0 1-1 3.83c-.9 1.28-2.11 1.33-3.23.22a5.48 5.48 0 0 1-1.27-2.28c-.56-2.16-1.11-4.27-1-6.55.1-1.56.66-2.67 1.66-2.95 1.28-.39 2.56.17 3.4 1.56 1.22 1.83 1.5 3.89 1.44 6.17Z" fill="#FDC898"/><path d="M217.47 173.8c-.06 1 .05 2-.28 3-.44 1.27-1.28 2.22-2.5 2.39-1.22.22-2.39-.56-3.11-1.56a6.9 6.9 0 0 1-.89-7.06c.61-1.5 1.67-2.16 3.28-2.16 1.33 0 2.44.83 3.05 2.22.5 1 .5 2.06.45 3.17Z" fill="#DB8940"/><path d="M359.32 79.5c-.67.45-1.28.95-2 1.29-1.78.83-2.95.22-3.5-1.61-.4-1.34 0-2.5.5-3.67.39-.84.89-1.67 1.33-2.5v-.28c.06-.17.17-.33.28-.5.55-.56 1.17-1 1.94-1.22a3.9 3.9 0 0 1 2.11.05c.62.23 1.12.56 1.56 1 .33.45.5.9.61 1.4a5.4 5.4 0 0 1-.05 2.1c-.12.45-.28.95-.45 1.4-.05.16-.16.33-.28.5-.05.05-.1.16-.16.22a5.95 5.95 0 0 1-1.9 1.83Z" fill="#55443C"/><path d="M316.2 131.4c0 2.17-.72 2.67-2.5 1.84-1.66-.78-2.66-2.23-3.55-3.78-.78-1.34-1.28-2.78-1.9-4.22-.1-.23-.16-.5-.16-.78-.06-.83-.06-1.78.72-2.17.84-.39 1.9-.44 2.67.22a13.22 13.22 0 0 1 4.72 8.9ZM221.14 171.46c0-1.28.77-2.44 1.77-2.6.9-.18 1.95.5 2.5 1.66.62 1.22.62 1.22 1.95.78.55-.17.94-.56 1.39-.78 1.94-1.06 3.94-.34 4.83 1.72.11.22.17.5.22.78.45 1.44.23 2.39-.72 3.05-.89.62-2.11.5-3.17-.33a3.74 3.74 0 0 1-1.38-1.94c-.28-.95-.78-.95-1.5-.56-.73.33-1.45.72-2.23.95-1.94.55-3.66-.73-3.66-2.73ZM209.75 98.84a33.1 33.1 0 0 1-.9 6.17c-.22.9-.6 2-1.72 2-1.05 0-1.6-.89-1.88-1.83a15.45 15.45 0 0 1-.06-8.11c.44-1.56 1.39-2.23 2.56-2.11 1.05.1 1.88 1.22 1.94 2.72.11.33.06.78.06 1.16Z" fill="#DB8940"/><path d="M76.56 99.79a12.4 12.4 0 0 1-3.05 6.5c-1.56 1.83-2.78 1.83-4.61.33a.89.89 0 0 1-.4-.5c-.21-.72-.16-1.44-.16-2.16 0-.34.11-.61.17-.9 1.05-2.27 2.44-4.27 4.94-5.22 1.56-.16 2.78.17 3.11 1.95Z" fill="#55443C"/><path d="M176.07 75.67c-.1-1.27.23-2.5.9-3.6.44-.84 1.1-1.5 2.22-1.56 1.05-.06 1.6.39 2 1.33.55 1.33.72 2.72.5 4.17a28.43 28.43 0 0 1-.72 3.11c-.45 1.72-1.9 2.17-3.28 1-1.4-1.17-1.73-2.67-1.62-4.45ZM128.18 137.74c.67-2.78 1.56-5.56 3.95-7.62.33-.27.77-.5 1.22-.66 1.05-.28 1.78.33 1.55 1.39a18.81 18.81 0 0 1-1 3.44c-.55 1.45-1.39 2.72-1.44 4.34a2.14 2.14 0 0 1-2.33 2.05c-1.12 0-2-1.33-1.95-2.94ZM85.68 231.3c-.95.11-1.67-.27-2.23-1.22-1.33-2.33-.44-6.11 1.78-7.56 1.4-.94 2.06-.66 2.72.9.4 1 .45 2 1 3 .95 1.66-1.27 4.88-3.27 4.88ZM165.52 75.34c.1 1.56-.61 3-.9 4.5a28.83 28.83 0 0 1-1.5 5.61c-.16.4-.16.84-.71.84-.45 0-.72-.28-.95-.67a6.57 6.57 0 0 1-.83-4.06c.22-1.6.5-3.16.83-4.72.22-1.05.72-2 1.34-2.89.44-.66 1-1.1 1.88-.83.84.28.84.94.84 1.67v.55ZM301.53 130.24c-.05 1.22-1.22 1.94-2.66 1.44a5.58 5.58 0 0 1-2.62-2.17 11.46 11.46 0 0 1-1.94-4.16c-.22-.84-.11-1.67.61-2.22a1.92 1.92 0 0 1 2.45 0c1.94 1.72 3.6 3.6 4.16 6.22.06.22 0 .44 0 .89ZM219.52 90.84c1.34.11 2.5 1.34 2.78 3.06.22 1.39.45 2.78.61 4.17a1.84 1.84 0 0 1-2.44 1.94 4.2 4.2 0 0 1-2.17-1.72 6.5 6.5 0 0 1-.78-6.11c.34-.95 1-1.4 2-1.34Z" fill="#DB8940"/><path d="M366.99 79.06a15.1 15.1 0 0 1-.06 3.17c-.67 1.06-1.33 2.17-2.06 3.22-.55.84-1.22 1.5-2.33 1.17-.94-.28-1.56-1.17-1.67-2.28-.1-1.16.4-2.22.84-3.28.16-.38.33-.72.44-1.1.06-.95.84-1.34 1.39-1.9.5-.44 1.11-.6 1.78-.5l.5.17c.61.28 1.17.61 1.17 1.33Z" fill="#57443C"/><path d="M232.97 98.62c0 .56-.28 1.06-.39 1.61-.11.84-.33 1.78-1.22 1.84-.89.05-1.39-.84-1.67-1.56a30.6 30.6 0 0 1-1.94-6.56c-.06-.38.05-.77.22-1.16.67-1.56 1.5-1.72 2.78-.67.5.45.89 1 1.22 1.61.67 1.56.5 3.28 1 4.9Z" fill="#DC8940"/><path d="M68.73 106.23c.06.11.11.23.11.4-1.5 1.27-3.17 1.44-5.11 1-3.83-.9-6.33-3.12-7.45-6.9-.27-1.05-.94-1.66-1.89-2.22a16.31 16.31 0 0 1-4.33-3.22c-.05-.22 0-.4.17-.5 3.6.67 5.67 3.44 8 5.83.5.56.94 1.17 1.44 1.72 2.34 2.67 5.17 3.5 8.56 2.56.61.33.22.94.5 1.33Z" fill="#FFA455"/><path d="M53 55.17c-.27.34-.72.4-1.16.45-7.34.33-12.95 3.44-16.06 10.33a10.22 10.22 0 0 0-.1 8.28c.5 1.22 1.21 2.45.88 3.89-.06.06-.11.17-.22.22-3.45-3.89-4.4-8.05-2.11-13.22 2.16-4.84 5.83-8 10.94-9.4 2.11-.6 4.28-1.16 6.56-.88.5-.06 1-.11 1.28.33Z" fill="#FFA354"/><path d="M347.82 58.9a4.64 4.64 0 0 1-.84-.23c-.72-.55-1.55-.27-2.33-.33-1.78-.06-1.94-.28-1.5-2.06l.17-.77a56.6 56.6 0 0 1 6.83-5.84c.5.4.67.95.5 1.45-.72 2.66-1.39 5.39-2.83 7.78Z" fill="#FDA85E"/><path d="M360.04 218.41v-.6c0-.68-.11-1.45.67-1.73.83-.28 1.72-.33 2.44.33 1.67 1.45 2.22 6.23.89 7.95-.56.72-1 .39-1.56-.06-1.77-1.5-2.33-3.6-2.44-5.89Z" fill="#DB8940"/><path d="M351.93 218.13c.1-.38.28-.72.33-1 .11-.83.28-1.72 1.22-1.88 1.06-.17 1.5.77 1.9 1.55.33.72.5 1.5.6 2.28.17.83.45 1.56 1.06 2.11.61.56 1.06 1.06.39 1.89a2 2 0 0 1-2.5.61c-1.11-.5-1.67-1.44-2.22-2.5-.5-1-.28-2.11-.78-3.06Z" fill="#DC8940"/><path d="M370.7 85.56c0 .28-.16.78-.44 1.28-.89 1.5-2.22 2.5-3.66 3.4-.56.33-1.17.44-1.67-.06-.44-.45-.33-1-.11-1.5.83-1.9 1.94-3.56 3.83-4.5 1.22-.62 2.06-.12 2.06 1.38Z" fill="#57443C"/><path d="M76.56 99.79c-.66-1.39-1.77-1.89-3.22-1.61-.17-.45.06-.72.45-.9.88.4 1.55.34 1.94-.66.5-1.17 1.11-2.33 1.45-3.55.44-1.62 1.38-2.4 3.05-2.23.28 0 .56 0 .83-.05-.5.78-.88 1.6-1.16 2.5a10.28 10.28 0 0 1-2.06 3.83 5.43 5.43 0 0 0-1.28 2.67Z" fill="#FAA154"/><path d="M91.57 75.45c-.45-.33-.78-.72-.78-1.33-.06-2.95-1.5-5.33-3.11-7.67l-.5-.83c0-.45.27-.56.66-.4 3.34 1.57 5.5 6.29 4.56 9.68-.17.39-.5.5-.83.55Z" fill="#FCA356"/><path d="M50.17 94.9v.39A18 18 0 0 1 40.78 87c-1.05-1.83-2.83-3.22-3.5-5.33-.39-1.12-.94-2.23-.89-3.45 1.11.06 1.06 1.28 1.73 1.78.1.17.16.33.22.5.5 2.22 2.44 3.67 3.33 5.72.11.17.17.33.22.5.17.4.45.78.67 1.11.11.17.22.28.33.45 1.28 2.28 3.34 3.66 5.56 4.89.17.05.28.16.44.27.12.12.28.17.4.28l.16.17.33.33.17.17a.9.9 0 0 1 .22.39c-.05 0-.05.05 0 .1Z" fill="#FFA354"/><path d="M357.6 71.34c-.56.39-1.06.83-1.62 1.22-.1.17-.33.23-.38.45-1.06-.67-1.4-1.84-1.95-2.84-.28-.66-.39-1.5-.89-2-1.61-1.66-1.72-3.66-1.66-5.72.16-.11.33-.11.55 0 .72 3.78 3.61 6.17 5.95 8.9Z" fill="#FCB275"/><path d="M23.28 295.92c.06-.55.11-1.11.22-1.67 2.4.56 4.84 1.06 7.23 1.62.05 0 .05.1.1.27-2.1.56-4.27 1.06-6.5.62-.6-.17-.94-.34-1.05-.84Z" fill="#FCC696"/><path d="M74.12 223.64c-1.06-.11-2 .27-2.95.66-.6.28-1.22.56-1.94.56a2.54 2.54 0 0 1 1.72-3.22 3.56 3.56 0 0 1 3.67 1.6c.17.28-.28.34-.5.4Z" fill="#DC8A41"/><path d="m363.7 78.29-1.5 1.66c-.55.23-1.05.23-1.55-.1a1.9 1.9 0 0 0-1.33-.29c.39-.77 1-1.38 1.55-2 .84.56 1.95.28 2.84.73Z" fill="#F6A561"/><path d="M69.62 285.48c-1.56.77-3.06 1.77-4.84 1.72a12.96 12.96 0 0 1 4.84-1.72Z" fill="#FEB676"/><path d="M208.97 13.33h2.44c-.83.56-1.66.62-2.44 0Z" fill="#DB8940"/><path d="M414.94 382.1c1.88.1 3.83.05 6 .89-2.34.39-4.17-.23-6-.9Z" fill="#FEAD65"/><path d="M189.58 325.87c-1.06.94-2 1.61-2.78 2.39-2.45 2.44-2.34 5.33.28 7.61.77.67 1.6 1.22 2.5 1.78a8.46 8.46 0 0 1 3.39 4.44c.6 1.67.27 2.67-1.28 3.62-2.11 1.33-4.45 1.94-6.84 2.44-6.28 1.33-12.72 1.78-19.1 2.39-2.23.22-4.45-.28-6.68-.61-3.22-.5-6.44-.9-9.66-1.34-1.84-.27-1.9-.33-1.67-2.16.66-5.84.83-11.73.44-17.62-.28-3.77-.22-7.55-.33-11.33-.06-1.28.06-1.39 1.39-1.11a85.6 85.6 0 0 0 9.22 1.33c3.5.28 7.06.28 10.5.95 4.34.83 8.61 1.83 12.84 3.1 2.72.73 5.22 2.29 7.78 4.12ZM261.58 324.1c.17-.95.78-1.45 1.28-1.95 7.5-7.61 15.67-14.28 25.12-19.4a5.5 5.5 0 0 1 1.33-.5c1.39-.5 2.33-.16 3.28 1.12 2.39 3.22 4.67 6.44 6.94 9.72a16.62 16.62 0 0 1 2.5 6.17c.78 4.1 1.4 8.28 1.84 12.44.1 1.12-.23 1.62-1.23 1.95-7.94 2.72-15.89 5.39-24.22 6.39-.89.1-1.72.22-2.61.22-1.33 0-1.83-.5-1.67-1.83.11-.78.39-1.56.67-2.34.5-1.55 1.11-3.05 1.44-4.6.56-2.73-.6-4.68-3.33-5.34-1.33-.34-2.67-.4-4-.56-1.5-.16-2.95-.28-4.45-.44a9.04 9.04 0 0 1-2.89-1.06Z" fill="#FFDFC3"/><path d="M219.52 225.25c.67.6.4 1.39.4 2.1-.06 2.56.27 5.12.83 7.62.05.11.05.28.05.39.11.78 1.17 1.55.45 2.17-.45.38-1.5 0-2.28-.12-1.72-.22-3.45-.5-5.17-.77-1.33-.22-1.5-.5-1.55-1.9-.06-1.94.1-3.88.83-5.72a26.83 26.83 0 0 0 6.44-3.77Z" fill="#fff"/><path d="M232.08 228.91c1.45 1.17.78 2.73.72 4.12-.05 1.77-.72 3.1-2.89 3.44-1.77.28-3.44 1-5.27 1-.23-1.72-.06-2.11 1.39-2.72-.45-.5-.9-.9-.9-1.67 0-2.33.23-4.72-.27-7-.06-.11.22-.33.33-.5a31.46 31.46 0 0 0 6.9 3.33ZM163.9 184.9c.12-.5.17-1.1.34-1.71a3.71 3.71 0 0 1 3.89-2.61 3.63 3.63 0 0 1 3.17 3.44 8.56 8.56 0 0 1-1.11 4.67 2.88 2.88 0 0 1-3.23 1.55 3 3 0 0 1-2.6-2.5c-.29-.89-.29-1.83-.45-2.83ZM288.31 182.08c0 .33 0 1.05-.17 1.77a3.92 3.92 0 0 1-3.89 3.17 3.94 3.94 0 0 1-3.77-3.5 7.2 7.2 0 0 1 .88-4.28c.9-1.72 2.73-2.6 4.34-2.22 1.61.39 2.55 1.72 2.61 3.83v1.23Z" fill="#FEFEFE"/><path d="M74.67 80.34c-.1.45-.27.84-.6 1.17-.23.44-.28 1-.78 1.28a31.36 31.36 0 0 1-10.17 6.78c-2.11.88-4.28.77-5.78-.9a46.76 46.76 0 0 1-3.5-3.94c-1.33-1.78-2.06-3.78-1.56-6.05.34-1.56.28-2.73-1.89-2.95-1.66-.17-2.16-1.5-1.83-3 .33-1.67.28-2.72-1.83-3.22-2.17-.5-2.95-3.9-1.56-5.78a9.53 9.53 0 0 1 3.72-3.06c.34-.1.62-.05.95.06 2.17 0 4.28-.39 6.44-.39a31.8 31.8 0 0 1 14.67 3.22c2.67 1.28 5.34 2.56 7.67 4.5.67.56 1.22 1.28 2.06 1.61a.6.6 0 0 0 .44.45v-.06c1.44 2.4 1.28 4.67-.44 5.95-1-.22-.95-1.06-.95-1.78a4.69 4.69 0 0 0-2.5-4.11 19.21 19.21 0 0 1-3.33-2.61c-1.56-1.45-3.5-2-5.5-2.4-1.17-.21-2.23 0-2.9 1-1.77 2.62-4.1 4.9-5.77 7.56-1.95 3.06-1.95 4.06.28 7 .16.23.33.45.44.67.61 1.67 1.72 2.17 3.33 1.34a2.66 2.66 0 0 1 2.73.1c1.72 1 3.16.45 4.72-.5 1.06-.72 1.78-2.22 3.44-1.94Z" fill="#FFCBA2"/><path d="M74.67 80.34c-1.33.95-2.66 1.84-3.94 2.78-1.33 1-2.72 1.22-4.17.33-1.1-.66-2.05-.6-3.22-.05-1.83.89-2.39.55-3.22-1.34a5.45 5.45 0 0 0-1-1.5c-2.06-1.88-2.06-2.44-.84-5.55.62-1.5 1.62-2.84 2.67-4.06a61.11 61.11 0 0 0 3.78-4.72c1.11-1.61 2.11-1.89 4-1.61 2.83.39 5 1.89 7 3.72a9.82 9.82 0 0 0 1.95 1.45c2 1.05 2.72 2.72 2.6 4.83v1.22c-.05.06-.1.17-.16.22-.67.61-1.67.78-2.28 1.45a19.24 19.24 0 0 0-3.17 2.83Z" fill="#FFCFA8"/><path d="M48.95 60.84c-.56 1.17-1.83 1.5-2.67 2.44-1.39 1.56-1.72 3-.77 4.73.5.94 1.33 1.5 2.5 1.33 1.1-.11 1.44.45 1.38 1.45-.05.66-.1 1.33-.27 2-.45 1.77.16 2.55 2 2.66 1.94.11 1.94.11 1.94 2.11 0 .4 0 .84-.11 1.23-.83 2.6.33 4.6 1.95 6.44.83.95 1.77 1.83 2.55 2.9a4.12 4.12 0 0 0 5.56 1.05c.89-.56 1.77-1 2.72-1.34 1.89-.66 3.5-1.66 4.83-3.22a10.9 10.9 0 0 1 2.84-2.22c.22.22.27.5.1.72-1.55 2.5-2.55 5.33-5.33 6.89a35.09 35.09 0 0 0-3.6 2.22c-2.45 1.67-5.17 1.67-7.5-.22-2.29-1.89-4.68-3.67-6.29-6.22a7.75 7.75 0 0 0-2.33-2.5c-2.78-1.84-4.28-4.34-5.22-7.62-1-3.44-.84-6.6.05-9.94.78-2.83 2.9-4.33 5.45-5.39.1 0 .22 0 .28.11.16.06.16.17.16.22-.1.11-.16.17-.22.17Z" fill="#FFC89B"/><path d="M48.67 60.34c-1.16.94-2.33 1.83-3.44 2.78-.22.16-.45.39-.56.6-1.55 3.23-2.39 6.57-1.44 10.18.27 1.16.72 2.27.94 3.5a6.99 6.99 0 0 0 3.22 4.5 15.02 15.02 0 0 1 4.78 5.1c.17.29.34.57.61.79 1.45 1.28 2.9 2.55 4.4 3.83 2.05 1.78 4.77 1.78 7.05.17a31.42 31.42 0 0 1 4.17-2.45c.77-.39 1.5-.89 1.77-1.6.73-1.73 2-3 2.95-4.56.11-.23.17-.5.22-.78.28-.28.5-.56.78-.84l-.33 3.12c.38 1.05.05 1.88-.56 2.77a25.95 25.95 0 0 1-7.89 7.67c-2.94 1.9-6.33 1.45-9-.78-3.67-3.16-6.89-6.83-10.78-9.78-1.17-.88-1.61-2.27-2.44-3.44-3.45-5.11-3.67-10.39-.9-15.9 1.12-2.16 3-3.6 4.73-5.21.39-.34.89-.34 1.33-.06.11.11.28.22.4.39Z" fill="#FFC291"/><path d="M48.28 59.95c-.55.06-1 .33-1.39.72a15.54 15.54 0 0 0-5.77 9.62c-.45 2.77-.56 5.38 1.27 7.89.84 1.1 1.17 2.66 1.95 3.94A7.18 7.18 0 0 0 47 85.06c1.33.73 2.33 1.9 3.27 3 2.06 2.5 4.84 4.28 7.12 6.5 1.83 1.78 4.38 1.73 6.66.73a16.24 16.24 0 0 0 4.06-2.84 43.75 43.75 0 0 0 4.17-4.33c.83-1 1.6-2 1.5-3.39.72 1.11.77 2.11-.23 3.17-.66.72-.94 1.72-1.39 2.61-.38.28-.22.67-.27 1 0 .39.05.78-.11 1.17a35.04 35.04 0 0 1-6.5 6c-1.4 1-2.84 1-4.4.16-3.83-2.05-7.05-5-10.44-7.6-1.72-1.34-3.11-3-4.78-4.4a10.6 10.6 0 0 1-2.94-3.83c-.5-1.11-.9-2.28-1.67-3.22-2.78-3.34-2.83-7-1.5-10.9 1.44-4.22 3.83-7.66 7.89-9.83.39 0 .56.28.67.56a.9.9 0 0 1 .16.33Z" fill="#FFBC85"/><path d="m50.56 56.28-2 1.34c-5.11 1.22-8.33 4.66-9.94 9.44-1.78 5.28-1.56 10.4 2.55 14.78.5.56.78 1.28 1 1.95.06.16.11.33.17.55.16.78.5 1.56 1 2.17.1.17.22.28.33.44.89 1.4 2.22 2.23 3.5 3.17.84.61 1.9 1.06 1.72 2.39-.22.22-.5.28-.77.28-2.5-.9-4.12-2.78-5.67-4.78-.28-.39-.5-.83-.83-1.22-.84-2.4-2.73-4.17-3.67-6.5-6.72-10.45-.61-23.5 11.61-24.67.28 0 .56 0 .78.1.28.12.33.34.22.56Z" fill="#FFAA61"/><path d="M71.62 92.45c0-.38.05-.83.05-1.22.12-.16.23-.16.34 0 0 1.78-.17 3.61.89 5.28 0 .06.05.17.05.17-1.89 2.66-3.66 5.5-7 6.6a4.92 4.92 0 0 1-5.05-1.16c-1.9-1.66-3.78-3.28-5.45-5.1-1.28-1.4-3.06-1.95-4.5-3.07-2.17-2.83-5.45-4.5-7.72-7.22-.56-.72-.84-1.6-1.23-2.44-.27-.34-.22-.78-.16-1.17.72-.44 1 .17 1.28.56 2.6 4.16 6.44 7.05 10.33 9.83 2.22 1.56 4.11 3.5 6.28 5.11.61.45 1.11.95 1.78 1.4 2.22 1.44 3.66 1.32 5.66-.45 2.17-1.9 4.06-4 4.45-7.12Z" fill="#FFB06E"/><path d="M42 83.12v1.22c-.6-1.6-1.77-2.83-2.77-4.16-2.4-3.23-2.45-6.9-1.84-10.62.5-3.27 1.84-6.16 4.23-8.5 1.6-1.6 3.33-3.1 5.66-3.72.5-.11.9-.22 1.28.28a.7.7 0 0 0-.39.5c0 .5-.05 1-.05 1.44-.11-.1-.28-.22-.4-.39-.77-.5-1.27.06-1.77.45-4.06 3.22-6.67 7.39-7.33 12.55-.4 2.78.44 5.17 2.16 7.34.72 1.11 1.78 2.11 1.22 3.61Z" fill="#FFAE6A"/><path d="M50.56 55.95c-4.83.06-8.67 2.33-11.67 5.95-2.33 2.77-3.66 6.05-3.27 9.72.27 2.61.94 5.17 2 7.56.16.38.27.77.38 1.16-1-.33-1.05-1.39-1.6-2.05-.06-1.4-.62-2.62-1.12-3.84-1.55-3.55-1.05-6.94.78-10.22a16.96 16.96 0 0 1 10.67-8.34c1.22-.33 2.5-.5 3.72-.72.56-.1 1.11-.05 1.5.45h-.06l-.44.27c-.11.12-.22.12-.33.12-.23.1-.4.05-.56-.06Z" fill="#FFA455"/><path d="M50.95 93.68c1.89.83 3.78 1.72 5.17 3.33 1.66 1.89 3.66 3.39 5.44 5.11 1.34 1.28 4.17 1.11 5.73.11.5-.33 1.1-.6 1.44-1.1 1.17-1.79 3-2.95 4.17-4.67.39.16.6.44.83.77-.17.28-.28.56-.44.9-2 1.16-3.28 2.94-4.34 4.88-2.1 2.28-5.5 2.33-8.17.11-1.6-1.33-2.94-3-4.38-4.5a18.03 18.03 0 0 0-4.67-3.5c-.45-.28-.84-.67-.9-1.22.06 0 .12-.11.12-.22Z" fill="#FFAE6A"/><path d="M80.23 75.84c.89-.05 1.22-.6 1.22-1.5 0-1.44.06-2.89-.33-4.28a5 5 0 0 1 1.94 1.78c.4.28.45.83.9 1.11h-.06c.05.22.22.34.39.45.5.94-.34 1.27-.84 1.72-.33.33-.94-.06-1.22.5-.61.39-1.28.72-2.05.78-.12-.11-.17-.23-.12-.34.06-.16.12-.22.17-.22Z" fill="#FBC495"/><path d="M83.45 75.06c.23-.6.84-1 .84-1.72.5.22.77.61 1 1.11-.56.45-1.11.67-1.84.61Z" fill="#F1B581"/><path d="M80.23 75.84v.5c-.78.5-1.55.95-2.44 1.17.44-1.06 1.6-1.11 2.44-1.67Z" fill="#FFCBA2"/><path d="M80.68 69.67c-1.12 0-1.62-.77-2.06-1.6.89.33 1.56.88 2.06 1.6Z" fill="#FBC495"/><path d="M83.95 72.95c-.6-.1-.89-.5-.89-1.1.45.21.78.55.9 1.1ZM82.29 75.5c.22-.6.72-.5 1.22-.5-.33.45-.78.5-1.22.5Z" fill="#F1B581"/><path d="M72 91.29h-.33c0-.34.12-.67.45-.78 0 .22-.06.5-.11.78Z" fill="#FFB679"/><path d="M48.95 60.84v-.39c.33 0 .67.06.89.33-.28 0-.61 0-.89.06Z" fill="#FFC291"/><path d="M81.12 70.06c-.28-.05-.39-.16-.44-.44.22.11.38.22.44.44Z" fill="#FBC495"/><path d="M48.17 58.12c.06-.28.17-.45.4-.5-.12.1-.29.33-.4.5Z" fill="#FFAA61"/><path d="M84.34 73.34c-.22-.05-.39-.22-.39-.44.23.05.34.22.4.44Z" fill="#F1B581"/><path d="M50.56 55.95c.17 0 .33 0 .5.06-.11.22-.28.33-.5.27v-.33ZM51.4 55.84c.16-.11.27-.22.44-.28-.06.22-.22.33-.45.28Z" fill="#FFA354"/><path d="M393.71 36.4c.61 1.1 1 2.27.61 3.6-.33 1-.44 2.17-.44 3.17 0 2.28-1.17 4.06-1.84 6.11-1.1 3.23-3.1 6.06-4.28 9.28a11.73 11.73 0 0 1-2.94 4.56 13.14 13.14 0 0 0-3.67 6.05c-.05.12-.05.28-.1.4-1.4 1.55-1.45 3.55-1.9 5.44-.77 3.11-2.5 5.33-5.77 6-1.4.28-2.73.72-4.17.61-1.45-.11-1.67-.39-1.84-2 .28-.33.67-.5 1.12-.5 3.44.06 5.44-2.11 7.16-4.61 1.5-2.22 2.78-4.61 4.06-7 .11-.22.17-.56.33-.72 3.78-4.56 5.34-10.4 8.67-15.23 2.56-3.72 2.11-8 2.06-12.17 0-.77-.78-1.05-1.12-1.6 1.23-.29 2.4-.56 3.62-.79.22-.27.38-.38.44-.6Z" fill="#FFAA62"/><path d="M389.65 37.62c1.67.22 1.73.27 1.67 1.77-.05 2.61.22 5.23-.33 7.84a8.32 8.32 0 0 1-1.11 3.16c-1.11 1.73-2.06 3.62-3.28 5.28a8.27 8.27 0 0 0-1.28 3.17 7.78 7.78 0 0 1-1.67 3.39c-2.44 2.78-3.77 6.28-5.72 9.39-1 1.67-1.94 3.33-3.22 4.83-2 2.28-4.33 3.34-7.34 3l-.38-.39c-.45-.38-.84-.77-1.28-1.16 5.44-1.61 8.22-6.23 11.55-10.23a43.07 43.07 0 0 0 6.56-11.1c.83-2.06 2.28-3.84 3.61-5.62 1.56-2.06 1.95-4.33 1.56-6.89-.28-2.11-.4-4.28-.9-6.33.5-.06 1-.06 1.56-.11Z" fill="#FFB271"/><path d="M388.1 37.73a5.38 5.38 0 0 1 1.22 3.72c-.06 1.05.11 2.11.28 3.17.44 2.83-.67 5.22-2.34 7.44a33.4 33.4 0 0 0-4.1 7.11c-1.17 2.84-2.95 5.4-4.79 7.9-1.27 1.72-2.72 3.27-4.05 4.94a36.34 36.34 0 0 1-4.39 4.39 5.49 5.49 0 0 1-4.22 1.44h.05c-.77-.55-1.55-.05-2.27-.05-1.28-.06-2.28-.34-1.78-2 0-.78 0-1.62.05-2.4.4-.1.56.12.73.4.1.27.16.55.22.83.55 1.78 2 1.22 3.22 1.11.72-.06 1.39-.5 1.94-1.06 4.34-4.22 9-8.33 12-13.66 2.23-3.95 4.34-7.95 7.28-11.45.4-.44.84-1 .84-1.61-.23-3.22.5-6.67-2.11-9.39-.17-.17-.17-.33-.17-.56.5-.5 1.17-.05 1.67-.38.1.16.44.1.72.1Z" fill="#FFB87C"/><path d="M351.54 62.45h-.44a7.43 7.43 0 0 0-3.23-3.55c.45-2.12.9-4.17 1.95-6.06.5-.95.72-2 .5-3.11 5.16-4.5 10.72-8.4 17.67-9.67 4.5-.83 8.94-1.94 13.55-2.06.4 0 .84 0 1.22.06.23-.17.4-.11.56.06-.06.72-.67.83-1.17.88-2.39.28-4.83.5-7.22.9-7.33 1.22-14.11 3.83-19.9 8.5-3.05 2.44-3.6 6.27-3.55 10.1 0 1.28.45 2.62.06 3.95Z" fill="#FDB576"/><path d="M383.2 38.12c-.16-.06-.32-.06-.5-.12 1.5-.44 3.01-.27 4.51-.27-.44.44-1.06.22-1.56.33-.83.72-1.66.72-2.44.06Z" fill="#FFB271"/><path d="M393.71 36.4c-.06.22-.22.38-.5.44.22-.17.39-.28.5-.45Z" fill="#FFA355"/><path d="M361.1 72.23c-.34-.28-.73-.56-1.06-.83-.33-.34-.83-.17-1.17-.5-1.77-2.23-3-4.78-4.89-6.95-1.27-1.44-1.22-3.44-.88-5.22.38-2.06.77-4.11.88-6.22a6.1 6.1 0 0 1 3.12-4.95c6.88-4.33 14.05-7.78 22.44-7.56.9 0 1.78 0 2.61-.27 2.56-.11 3.84.83 4.23 3.27.5 3.5.27 6.78-2.9 9.12-2.88 2.1-4.66 5.22-6.77 8-.33.44-.56.94-.95 1.33-3.66 3.45-6.44 7.61-9.77 11.28-1.56 1.78-2.67 1.56-4.9-.5Z" fill="#FFC698"/><path d="M359.26 70.9c.34.05.61.1.78.44h-2.44c-.73.06-1.28-.17-1.67-.89a13.95 13.95 0 0 0-2.83-3.39c-1.28-1.27-1.62-2.89-1.62-4.6-.66-3.18-1.44-6.29.23-9.4.16-.33.33-.78.39-1.17.16-2.44 1.88-3.77 3.66-4.94 5.34-3.67 11.28-5.89 17.5-7.45 1.62-.38 3.34-.38 5-.55 1.67-.22 3.34-.22 4.9-.78h2.44c1.89 1.11 2.44 2.89 2.44 4.95 0 .6-.05 1.22.17 1.77.78 2.45 0 4.45-1.67 6.28a37.98 37.98 0 0 0-4.72 6.78c-.5.83-.61 1.83-1.11 2.78a30.57 30.57 0 0 1-4.06 5.5 165.87 165.87 0 0 1-8.05 8.5c-1.45 1.45-3.12 2.17-5.28 1.56-1-.28-1.4-.73-1.28-1.67 3.5.33 5.61-1.72 7.45-4.28.72-1.05 1.5-2.05 2.44-2.94a39.05 39.05 0 0 0 8.45-10.78 26.07 26.07 0 0 1 4.55-5.9c1.4-1.38 2.45-2.77 1.83-5-.27-1.05-.16-2.27-.44-3.38-.67-2.61-.94-2.84-3.83-2.61l-.61.16c-3.78.23-7.56.11-11.23 1.34-5 1.66-9.83 3.6-14.17 6.78-2.5 1.83-2.88 4.44-3.27 7.05a47.4 47.4 0 0 0-.4 4.84c-.05.94-.21 2 .29 2.77 1.77 3.06 3.38 6.12 6.16 8.23Z" fill="#FFBD85"/><path d="M361.1 72.23c.05 0 .16 0 .22.06 2.89 1.83 3.33 1.5 5.61-1.23 1.44-1.72 2.67-3.55 3.94-5.33.62-.89 1.56-1.45 2.4-2.17 2-1.66 3.05-4.05 4.66-6 1.56-1.89 2.83-4.11 4.95-5.55.66-.45 1.16-1.12 1.72-1.73 1-1.05 1.66-2.27 1.5-3.83-.11-1 .05-2.06-.06-3.06-.22-2.33-1.28-3.27-3.6-3.33-.12-.11-.18-.17-.12-.28.06-.1.11-.1.11-.1 2.83-.45 3.61 0 4.17 2.6.39 1.72.44 3.45.61 5.23.11 1.1-.56 1.94-1.28 2.6-3.22 3.06-5.67 6.62-7.83 10.45a22.9 22.9 0 0 1-5.17 5.95c-2.44 2.05-3.78 5.05-6.33 7-1.78 1.33-3 1.44-4.45.28l-.39-.4c-.27-.38-.44-.77-.66-1.16Z" fill="#FFC18F"/><path d="M361.65 75.84c-.05 1.28.78 1.5 1.84 1.67.77.1 1.6-.34 2.27.44a4.04 4.04 0 0 0-2 .4c-1.94.5-1.94.5-2.83-.79v-.05c.17-.17.28-.34.33-.56 0-.44.06-.83.4-1.1Z" fill="#FFB271"/><path d="M361.2 76.95c0 .23-.1.4-.33.56.06-.28.17-.45.34-.56Z" fill="#F6A561"/><path d="M355.6 73c.1-.16.27-.27.38-.44-.05.23-.16.4-.38.45Z" fill="#FF9E4B"/><path d="M51.78 94.9c1.45.55 2.78 1.33 3.9 2.44 1.44 1.5 3.05 2.9 4.44 4.45 2.22 2.55 5.22 3.39 8.89 1.22-.06.28-.17.56-.22.83-.28.34.1.9-.34 1.17-3.28 1.33-5.72.83-8.28-1.55-1.22-1.17-2.16-2.56-3.27-3.78a19.62 19.62 0 0 0-6.67-4.78c-.11-.17-.28-.28-.4-.39-.1-.17-.27-.28-.38-.39-.11-.17-.28-.28-.39-.39-.33-.39-1.05-.44-.83-1.22h.83c.06 0 .11 0 .22.06.11.05.23.16.34.22l.16.16c.11.12.23.23.34.28l.16.17.34.33c.05.06.1.11.16.22.17.4.56.67 1 .95Z" fill="#FFA85E"/><path d="M68.4 105.07c.05-.4-.06-.9.33-1.17v2.39c-.39-.33-.28-.83-.33-1.22Z" fill="#FF9E4B"/><path d="M48.12 92.45c.27.4.55.84.83 1.23-2.83-1.11-5.28-2.73-6.5-5.67 1.61 1.06 2.56 2.78 4.28 3.67.44.27.94.55 1.39.77ZM37.95 80.29c1.72 1.89 3.17 3.89 3.67 6.5-1-1.5-2-3-3.12-4.45a3.29 3.29 0 0 1-.55-2.05ZM41.62 86.79c.55.22.83.6.83 1.22-.56-.22-.83-.61-.83-1.22ZM48.95 93.68l.39.39c-.11-.12-.28-.23-.39-.4ZM49.34 94.12l.39.39c-.11-.17-.28-.28-.4-.39ZM49.73 94.51l.39.39c-.11-.11-.23-.28-.4-.39Z" fill="#FFA455"/><path d="M42 83.12c-.22-1.61-1.33-2.78-2.27-4A9.57 9.57 0 0 1 38 71.73a19.5 19.5 0 0 1 6.9-12c.5-.45 1.05-.83 1.66-1.17.61-.33 1-.1 1.11.61a17.4 17.4 0 0 0-7.72 10c-.67 2.28-1.17 4.56-.39 6.95.11.33.11.67.28.94a37.49 37.49 0 0 1 3.78 6.67 8.97 8.97 0 0 0 2.77 3.17c1.06.78 2 1.61 2.84 2.55a28.04 28.04 0 0 0 4.83 4c1.34.9 2.56 1.95 3.78 3 1.22 1 2.67 1.56 4 2.34.67.39 1.39.28 2.17 0a6.6 6.6 0 0 0 2.94-2.06c1.34-1.66 3.17-2.72 4.61-4.16.23 1.83-.05 3.33-1.44 4.77-1.5 1.5-2.78 3.23-4.84 4.12-.72.33-1.33.39-2.1.16a8.1 8.1 0 0 1-2.95-1.66c-.95-.78-1.95-1.45-2.78-2.34a25.17 25.17 0 0 0-5.28-4.05c-1.05-.62-2-1.4-2.78-2.34-.94-1.16-2.27-1.89-3.33-2.94-1.33-1.34-2.83-2.5-3.39-4.45 0-.39-.33-.55-.67-.72Z" fill="#FFB679"/><path d="M43.23 86.79c2.6 2.28 5.66 4 7.72 6.89-.28.27-.56.22-.83 0l-.4-.4c-.1-.16-.27-.27-.38-.38l-.39-.39c-.72-1.28-1.94-1.94-3.11-2.78-1.11-.78-2.22-1.5-2.61-2.94ZM42 84.34c.67.67 1.06 1.5 1.23 2.45-.9-.56-1.23-1.4-1.23-2.45Z" fill="#FFAE6A"/><path d="M50.17 93.68h.84c.27.39.55.83.83 1.22-.89 0-1.33-.56-1.67-1.22Z" fill="#FFAA61"/><path d="M362.1 73.79c1.6.77 3 .44 4.22-.78 1.17-1.17 2.39-2.17 3.33-3.61 1.17-1.84 2.9-3.28 4.56-4.73 1.5-1.27 2.55-2.94 3.61-4.6 1.83-2.9 3.56-5.84 6.06-8.23.44-.45.83-.89 1.27-1.28 1.5-1.17 1.9-2.72 1.67-4.5-.17-1.11-.28-2.28-.5-3.39-.39-2-1-3.22-3.94-2.94.88-.73 1.94-.45 2.88-.28.67.11.95.78 1.23 1.5.72 2.17.66 4.5 1.16 6.72.12.4-.05.78-.27 1.11-.56.84-1.17 1.61-1.9 2.34a34.88 34.88 0 0 0-6.16 8.6 15.2 15.2 0 0 1-3.06 4.23c-2.55 2.5-5.1 4.95-7.16 7.9a8.38 8.38 0 0 1-2.84 2.55c-1.33.66-2.66.89-4.05.22-.11-.28-.11-.56-.11-.83Z" fill="#FFC18E"/><path d="M355.2 59.28a8.01 8.01 0 0 1 .56-3.5c.61-1.55.72-3.22 1-4.83.17-.89.5-1.5 1.17-2a31.8 31.8 0 0 1 6-3.72 55.58 55.58 0 0 1 10.61-3.61c1.67-.4 3.33-.17 5-.45.9-.17 1.84-.39 2.78-.28 1.22.11 2.06.67 2.44 1.78.95 3 .06 6.06-2.88 7.67-.45.22-.78.55-1 .94-.34.73-.9 1.11-1.56 1.56a4.2 4.2 0 0 0-1.56 1.83 19.44 19.44 0 0 1-5.83 6.56 12.21 12.21 0 0 0-4.56 6.22 9.53 9.53 0 0 1-1.83 3.06c-.67.83-1.61.55-2.39.1a7.62 7.62 0 0 1-3.11-3.1c-.83-1.78-1.78-3.45-3.33-4.73-1.11-.88-1.84-2.1-1.5-3.5Z" fill="#FFCA9F"/><path d="M382.38 39.73v.39c-.67.38-1.4.44-2.17.38-5.83-.38-11.11 1.45-16.28 3.9-2.17 1-4.22 2-6.22 3.38-.9.61-1.67 1.4-2.4 2.17-1 1.17-.77 2.67-.94 4.06a44.97 44.97 0 0 1-.66 3.94c-.61 2.78-.28 5.28 1.94 7.4 1.61 1.5 2.45 3.66 3.5 5.6-1.22.17-2-.22-2.5-1.44-.55-1.22-1.11-2.5-2.17-3.4-2.38-2-2.5-4.66-2.1-7.38.1-.89.1-1.72.16-2.56.39-3.22.78-6.33 3.94-8.55 3.73-2.56 7.73-4.34 11.9-5.9 4.6-1.72 9.27-2.1 14-2Z" fill="#FFC18E"/><path d="m48.95 92.45.39.4c-.11-.12-.28-.23-.39-.4ZM49.34 92.9l.39.39-.4-.4Z" fill="#FFAA61"/><path d="m49.73 93.29.39.39c-.11-.11-.23-.28-.4-.4Z" fill="#FFAA61"/><path d="M383.6 44.73c.16 1.55-.45 2.78-1.95 3.72-2.94 1.89-4.83 4.83-6.66 7.72-1.23 1.95-3 3.23-4.84 4.45-1.28.83-2.5 1.78-3.89 2.44-1.89.9-3.5.78-5.05-.55-.67-.56-1.28-1.11-2.11-1.5-1.4-.61-2.06-2.23-1.78-3.78a7.36 7.36 0 0 1 1.6-3.61c1-1.17 2.06-2.34 2-4.06 0-.44.34-.72.62-1a11.84 11.84 0 0 1 4.11-2.83 72.93 72.93 0 0 1 5.78-2.23c1.94-.66 3.94-.88 5.89-1.33.72-.17 1.44-.11 2.17-.33.44-.17.94-.11 1.39-.11 2.27.16 2.72.66 2.72 3Z" fill="#FFCEA6"/><path d="M379.65 42.95c1.12-.06 2.12-.06 2.56 1 .5 1.11.06 2.17-.78 2.94-1 1-2.17 1.78-3.17 2.78a26.8 26.8 0 0 0-4.44 6.17 8 8 0 0 1-5.95 4.06c-1.27.22-2.55-.23-3.16-1.67-.4-.95-1-1.45-2.11-1.56-1.67-.22-2.12-1.39-1.06-2.72a17.08 17.08 0 0 1 3.06-2.94c1.44-1.17 3-2.28 4-3.95.1-.22.27-.5.5-.67 2.27-1.33 4.6-2.55 7.16-3.05 1.12-.11 2.28-.67 3.4-.4Z" fill="#FFD1AB"/></g><defs><clipPath id="a"><path fill="#fff" d="M0 0h440.16v500H0z"/></clipPath></defs></svg>