<svg width="483" height="777" viewBox="0 0 483 777" fill="none" xmlns="http://www.w3.org/2000/svg"><path d="M453.2 348.9c-.1.2-.2.4-.2.6-.5.7 0 1.7-.7 2.4-.5.4-1 .5-1.5-.1l.1.1c-.9-1.5-2.1-1.1-3.4-.6-3.4 2.1-6.4 4.6-9.1 7.5-17.2 18.5-36.8 34.2-57.8 48.1-2 1.3-4 2.5-6 3.7-4.3 2.5-5.3 2-6.4-2.9 1-7.7 3.3-15.2 4.7-22.8 1.7-9.1 3.4-18.2 5-27.3.8-5.2 1.8-10.4 1.3-15.6 1-15.1 1.8-30.1 1.5-45.2-.3-18.6-3.1-36.9-8.6-54.8-2.9-9.5-6-18.9-10.3-27.8-5.3-10.9-11.8-20.8-21.7-28.3-3.4-2.6-6.8-4.5-11.2-4.2-4.6.4-9.1-.3-13.7-.2-10 .3-18 5-25 11.6-17.9 17-27.3 38.2-29.9 62.6-1 9.8.3 19.5.6 29.2 0 .9-.1 1.7 0 2.6.2 2 .5 3.9-.2 5.9-.9 2.7-3.2 2.8-5.4 2.8-7.9.1-15.8.1-23.7 1.2-8.1 1.1-16.1 2.5-23.9 5-1.2.4-2.4.7-3.6 1-2.4.6-3.5-.4-3.7-2.8-.1-1.6 0-3.2-.4-4.8-.8-7.2.8-14.3 1.7-21.4 2.3-17.5 3.4-35-1-52.4-2.5-9.9-5.4-19.8-12.6-27.3-7.5-7.8-16.3-13.9-27.6-14.6-17.2-1.1-32.7 3.7-46.6 14-9.4 7-18 14.7-24.4 24.7-5 7.8-7.6 16.7-10.4 25.4-5 16-6.8 32.6-8.6 49.3-1.4 12.7.4 25.2 1.8 37.7 1.9 17.4 4.8 34.6 9 51.5 3.8 15.3 9.2 30.1 15.8 44.4.7 1.5 1.6 2.9 1.4 4.6-1.5 3-2.6 3.4-6.2 1.9-5.8-2.4-11.5-5.1-17.2-7.8-10.1-4.9-20.3-9.7-29.6-16-2.7-1.8-5.7-2.9-8.4-4.7-1-.5-2.1-.7-3-1.3h.1c-.5-.4-1.2-.3-1.7-.6-1.1-.9-2.1-1.8-2.8-3.1-.3-.2-.5-.5-.7-.8h.1c-.6-.1-1.2-.3-1.6-.8-1.2-4.8-1.8-9.6-3.7-14.2-.8-1.9-1.5-3.4-3.7-4.2-3.4-1.2-3.5-4.6-3.7-7.5-.2-4-1.1-7-5.8-7.5-2-.2-2.4-2.2-2.5-4-.3-3.8 1.2-7.3 1.7-10.9 1.5-3.1.6-6.6 1-9.8 1.7-14.1 3.7-28.2 6.7-42 2.8-12.6 7.4-24.3 14.4-35.1 1.8-2.7 3.5-5.4 4.9-8.3 1-2.1 1.4-4.2.6-6.5-.9-3.7 3.2-4.9 4-7.7-1.5-1.3-3.5 1.4-4.6-.9v-4.5c.4-1.8 0-4 2-5.2 1.8-.2 2.2-1.7 2.8-3.1 3.4-8.4 5.3-17.2 7.5-26 6.2-25.3 15.8-49.2 28.9-71.7 8.2-14.1 16.7-28.1 27.4-40.6 6.8-7.9 14.3-15.2 22.7-21.3 11-8 22.3-15.6 34.6-21.6 4.9-2.4 10.2-3.9 15-6.4 4.6-2.4 4.7-2.6.9-5.8-.2-.4-.1-.7.1-1 1.2-.9 3 .1 4.1-1.2 1.3-.5 2.4-.1 3.5.5 2.5 1.5 4 .6 5-1.9 2.2-1.3 2.5-3.9 4-5.7 2.2-1 4.6-1.4 7-1.4.9.2 1.4 1 2.1 1.4 4.9 3.1 7.7 2.8 11.6-1.4 1.5-1.6 2.6-3.6 4.5-4.9 1.3-.7 2.7-1.1 3.9-1.8.6-.2 1.3.2 1.9 0 .3-.5.8-.6 1.4-.5 3.7 4.1 3.7 4.1 8.4.6.3-.2.6-.3.9-.5.3-.2.6-.3.9-.4.4-.2.9-.4 1.3-.6l.9-.3c1.1-.2 2.1-.7 3.1-1.1 2.4-.8 4.1-.1 5.1 2.2.6 1.6 1.4 2.8 3.2 3.1 1.2.4 2.3 1 3.3 1.7.8.9 1.7 1.1 3 1 2.4-.3 4.6.2 6.6 1.5 1.1 2.5 2.8 3.8 5.7 3.4 3.2-.5 4.5 1.2 4.5 4.2 1 2.6 3.2 4 5.5 5.2 8.8 4.6 17.5 9.3 25.9 14.6 11.8 7.4 22.7 15.9 33.3 24.8 5.6 4.7 11.2 9.4 16.2 14.7 13.3 13.9 23.8 29.6 31.9 47.1 9.9 21.4 16.3 43.8 21.9 66.6.9 3.5 2.3 6.8 3.5 10.2.4 1 .8 1.8 2 1.9 2.3 1.7 5.1 2.7 6.8 5.3 3.6 6 8.5 10.9 12 16.9 8.6 15 17.7 29.9 22.9 46.5 2.3 7.2 4.5 14.4 5.3 21.9.1 1 .3 2 .9 2.8 1.4 2.6 2.2 5.4 3.2 8.2 1.1 2.9 0 4.6-3.1 5.4-3.3.9-3.8 1.8-3.2 5.2.6 3.2 2.5 6.2 1.7 9.6-.3.7-.9 1.2-1.6 1.5-3.2-.1-2.5 3.5-4.3 4.6-.3.2-.5.4-.8.6-.4.4-.3 1.2-.8 1.5v-.1c-.7 1.2 0 2.3-.6 3.3Z" fill="#434343"/><path d="M88.5 742.4c-.7-.6-1.4-.7-2.3-.8-3.6-.2-5-1.4-5.8-5.1-1.2-2.6-2.3-5.2-2.3-8.2-.9-1.7-.7-3.5.3-4.9 1.9-3 .6-4-2.2-4.6-2.9-.7-5.6-2-7.6-4.3l-.9-1.2c-.2-.3-.3-.6-.5-.9-.2-.4-.4-.9-.6-1.3l-.3-.9-.6-1.8c-.1-.3-.1-.6-.1-.9.1-.8.2-1.5.2-2.3 0-.3 0-.6.1-.9.1-.6.4-1.1.6-1.6 0-.3.1-.5.2-.8.1-.4.3-.8.5-1.1.1-.3.2-.5.4-.8.1-.3.3-.5.4-.7.1-.3.3-.5.5-.7.1-.3.3-.5.5-.7l.3-.3.6-.6c.1-.1.2-.2.4-.2.5-.3.9-.7 1.2-1.1.2-.2.3-.4.5-.7l.6-.6.3-.3c.2-.2.4-.3.6-.5.2-.2.4-.3.6-.4.2-.2.4-.3.6-.4.2-.2.4-.3.6-.4.2-.2.4-.3.6-.4.2-.2.4-.3.7-.4.2-.2.4-.3.7-.4.2-.2.5-.3.7-.4.2-.2.5-.3.7-.4.2-.1.5-.3.7-.4.2-.1.5-.3.7-.4.2-.1.5-.3.7-.4.2-.1.5-.2.7-.4.2-.1.5-.2.7-.3.2-.1.5-.2.7-.3.2-.1.5-.2.7-.3.3-.2.7-.3 1.1-.5.2-.1.5-.3.7-.4.4-.2.7-.3 1.1-.5.2-.1.5-.2.8-.3.4-.2.8-.3 1.2-.4.3-.1.5-.2.8-.2.5-.2 1.1-.4 1.6-.5.3-.1.6-.1.9-.2.9-.2 1.7-.6 2.6-.8.3-.1.7-.1 1-.1 1.3.2 2.5.2 3.7-.5l.2-.3v-.6l-.3-.6-.3-.6c-.1-.2-.1-.5-.1-.7 0-.2-.1-.5-.1-.7 0-.3 0-.5.2-.7l-4.5-7.2c-.4-.6-.8-1.3-1.2-1.9-3-4.3-3.7-9.7-6.4-14.1-2.8-4.6-4.3-9.4-5.2-14.5a72.1 72.1 0 0 1-.1-26.2c.1-.7.5-1.4-.1-2.6-3.2 1.9-6.4 3.9-9.7 5.6-3.3 1.8-6.6 3.3-9.9 5-.4.5-1.1.4-1.6.7h.1c-.6.8-1.6.2-2.3.8-.6.8-1.6.1-2.3.8-.7.8-1.7.2-2.4.7h-.3l-.3.1c-.9.8-2.1-.1-3 .7-1.4 1-3.2-.1-4.6.7l-.3-.1-.3.1c-1.1.8-2.3.2-3.4.4-.4 0-.8-.1-1-.4-1.1-.8-2.7.2-3.8-.8h.1c-.5-.4-1-.3-1.6-.3-.3-.1-.5-.2-.7-.5v.1c-.5-.3-1.2-.2-1.5-.8h.1c-.2-.1-.5-.2-.7-.3-.1-.1-.2-.2-.3-.2-.3-.4-.9-.5-1.2-1v.1c-.3-.2-.6-.5-.8-.8a3 3 0 0 0-.8-.4c-.1-.1-.2-.2-.4-.3l-.6-.6-.3-.3-1.9-1.9c-.2-.2-.4-.4-.7-.6l-.6-.6c-.1-.1-.2-.2-.3-.4a3 3 0 0 0-.4-.8c-.7-.6-1-1.5-1.5-2.3-.6-.7-1.1-1.5-1.5-2.3v.1c-.6-.4-.4-1.1-.8-1.5v.1c-.5-.4-.4-1.1-.8-1.5v.1c-.5-.4-.4-1.1-.8-1.5v.1c-.5-.4-.4-1.1-.8-1.6v.1c-.8-.5-.2-1.6-.8-2.3-.6-.6-.3-1.6-.9-2.2-.3-.7-.2-1.6-.8-2.3-.4-.7 0-1.6-.5-2.3-.3-.2-.5-.5-.5-.9-.2-1.2.3-2.5-.4-3.6-1.1-2.1.4-4.6-1-6.7-.1-.4-.1-.9-.1-1.3v-15.3c0-.5.1-.9.4-1.2.7-1.6.2-3.3.3-4.9 0-.4 0-.7.1-1.1 1.1-1.3.4-2.8.6-4.2 0-.4.1-.7.4-.9.7-1.4.2-2.9.3-4.3 0-.4.2-.7.5-.9.8-1.1-.2-2.7.7-3.8.9-1.1-.2-2.6.8-3.8.9-1.1-.2-2.6.8-3.7.9-1.1-.2-2.7.8-3.8.6-.9.2-1.9.4-2.9 0-.4.2-.6.4-.8.7-.9-.1-2.2.7-3 .8-.9-.1-2.2.8-3 .8-.9-.2-2.2.8-3v.1c.6-.6 0-1.7.8-2.3v.1c.6-.6 0-1.7.8-2.3v.1c.3-.5.2-1.1.7-1.6.7-.6 0-1.7.8-2.2v.1c.4-.5.2-1.2.7-1.6.4-.4.3-1.1.7-1.5.7-.6 0-1.7.8-2.2v.1c.3-.5.2-1.2.8-1.6v.1c.4-.5.2-1.2.8-1.5v.1c.4-.5.3-1.2.8-1.5.4-.4.3-1.1.7-1.5.4-.4.3-1 .5-1.5.3-.4.6-1 .7-1.5.3-.5.6-.9.6-1.5.1-.3.2-.5.5-.7.3-.5.2-1.2.8-1.6v.1c.4-.5.2-1.2.8-1.5v.1c.4-.5.2-1.2.8-1.5v.1c.4-.5.2-1.2.8-1.5l-.1.1c.2-.3.5-.5.7-.8.5-.4.3-1.1.8-1.5l-.1.1c.2-.3.5-.5.7-.8.5-.4.3-1.1.9-1.4l-.1.1c.2-.3.5-.6.8-.8l-.1.1c.2-.3.5-.6.8-.8.2-.3.5-.6.8-.8.2-.3.5-.5.8-.8.2-.3.5-.5.8-.8.2-.3.5-.5.8-.8.2-.3.5-.5.7-.8.2-.2.5-.5.7-.8.3-.2.5-.5.7-.7v-.1c.7-.6.9-1.6 1.6-2.1h-.1c.2-.3.5-.6.8-.8l-.1.1c.2-.3.5-.6.8-.8.2-.3.5-.6.8-.8.2-.3.5-.5.7-.8.2-.2.4-.5.5-.7.1-.1.2-.2.3-.4.3-.3.4-.8.8-1.1h-.1c.2-.3.5-.6.8-.8.2-.3.5-.5.7-.8.2-.2.3-.4.4-.7.1-.1.2-.2.2-.3.4-.3.5-.9 1-1.2h-.1c.2-.3.5-.6.8-.8h-.1c.2-.3.5-.5.7-.8.5-.5.4-1 0-1.5-.6-1-.6-2 0-3 .7-.6 0-1.7.8-2.2v.1c.1-.2.2-.5.3-.7.1-.1.2-.2.2-.3.4-.3.5-.9 1-1.2h-.1c.2-.3.5-.6.8-.8.2-.3.5-.5.7-.8.9-1.3 2.1-2.4 3.1-3.6h-.1c.2-.3.5-.6.8-.8l-.1.1c.2-.3.5-.6.8-.8l-.1.1c.2-.3.5-.6.8-.8l-.1.1c.2-.3.5-.6.8-.8l-.1.1c.2-.3.5-.6.8-.8l-.1.1c.2-.3.5-.6.8-.8l-.1.1c.2-.3.5-.6.8-.8l-.1.1c.2-.3.5-.6.8-.8l-.1.1c.2-.3.5-.6.8-.8l-.1.1c.2-.3.5-.6.8-.8l-.1.1c.2-.3.5-.6.8-.8.2-.3.5-.6.8-.8.2-.3.5-.6.8-.8.2-.3.5-.6.8-.8.2-.3.5-.5.8-.8.2-.2.3-.5.4-.7l.3-.3c.3-.1.5-.3.7-.4.2-.3.5-.5.8-.7.2-.3.5-.5.8-.8.2-.3.5-.6.8-.8l-.1.1c.2-.3.5-.6.8-.8l-.1.1c.3-.6 1.1-.4 1.5-.8.4-.5 1.1-.3 1.5-.8.7-.4 1.2-.9 1.7-1.5.9-.5 1.9-.4 2.9-.2.7.3 1.4.7 2 1.4 1.3 2.5.4 4.5-1.5 6.3-7.3 6.6-13.2 14.4-19.6 21.8-.3.4 0-.2-.2.3-3.9 9.7-11.5 16.6-18 24.2-5.3 6.2-7 14.1-10.2 21.3-7.1 16.1-9.5 33.2-12 50.4-1.6 10.9-1.7 21.7.8 32.4 1.4 6.2 4.3 11.5 9 16 3.7 3.5 7.8 4.6 12.6 3.5 3.9-.9 7.6-2.3 11.3-3.6 7.1-3.8 14.3-7.4 20.6-12.5 3.4-2.8 6-6.2 8.8-9.5 11.5-13.7 19.8-29.3 25.9-46.1 2-5.5 4.6-10.7 7.7-15.7.8-1.3 1.5-2.6 2.6-3.6 1.1-1.2 2.4-2.4 4.2-1.7 1.8.7 2.1 2.3 2.1 4 0 5.6-1.1 11.1-2.7 16.4-6.5 21.6-16.7 41.3-32.1 58-5 5.5-7.6 11.2-6.9 18.7.5 5.2-.2 10.4.7 15.6 1.2 7 2.6 13.7 7.5 19.4 9.5 11.3 17.4 23.8 28.4 33.8 2.5 2.3 5.1 4.4 7.8 6.3 12 8.6 24.2 16.9 37.4 23.5a185.3 185.3 0 0 0 47.6 16.5c14.6 2.9 29.3 5.1 44.2 4.4 17.6-.9 35.4-1.6 52.4-7.1 20.9-6.8 40.4-16.3 57.4-30.4 11.3-9.3 21.8-19.5 29.3-32.2 7.1-12.1 14.5-24 16.9-38.2 1-5.7 1.4-11.5 2.1-17.3 1.6-12.8-1.2-25.4-1-38.2 0-1.5-.2-3-1.5-4-8.9-7.1-15-16.4-21.1-25.8-7.8-11.9-13.4-24.8-15.7-39-.5-3.2-.4-6.4-.3-9.6 0-1.3.4-2.6 1.8-2.9 1.4-.3 2.3.8 3 1.8.6.8.9 1.7 1.3 2.7 3.7 8.8 7.8 17.4 12.6 25.7 5.8 10 13.7 18.5 20.7 27.6 6.3 8.1 14.6 12.8 24.2 15.7 3 .9 6.1.9 9.2.5 6.9-2 13.1-5.2 17-11.6 2.8-4.6 1.8-9.7 1.5-14.5-.6-10-2.6-19.9-5.3-29.5a146.2 146.2 0 0 0-19.5-42.7c-5.1-7.7-9.3-16.1-14.9-23.5-2-2.6-4.5-4.6-6.5-7.1-.8-1-1.4-2.2-.5-3.4.9-1.3 2-.5 3 0 1.3.4 2.2 1.4 3.2 2.1.4.4 1.2.3 1.5.8l-.1-.1c.3.2.6.5.8.7.2.2.5.5.8.6l.1.1c.3.5 1.1.3 1.4.9l-.1-.1c.3.2.6.5.8.8l-.1-.1c.3.2.6.5.8.8l-.1-.1c.3.2.6.5.8.8h-.1c.7.6 1 1.5 1.6 2.1v.1c.2.3.4.5.7.8.3.2.5.5.7.8.3.2.6.5.8.8l-.1-.1c.6.3.4 1.1.9 1.4.2.3.5.5.7.8.4.3.6.6.7 1 0 .2.1.4.2.5.2.3.4.5.6.7.3.3.5.5.7.8l-.1-.1c.5.3.4 1.1.8 1.4.2.3.5.5.7.8l-.1-.1c.5.3.4 1.1.8 1.4.2.3.5.5.7.8l-.1-.1c.5.3.4 1.1.8 1.4.2.3.5.5.7.8l-.1-.1c.5.3.4 1.1.8 1.4.2.3.5.5.7.8l-.1-.1c.5.3.4 1.1.8 1.4.2.3.5.5.7.8l-.1-.1c.5.3.4 1.1.8 1.4.2.3.5.5.7.8l-.1-.1c.5.3.4 1.1.8 1.5.2.3.5.5.7.8l-.1-.1c.5.3.4 1.1.8 1.5.3.3.5.5.7.8l-.1-.1c.6.3.4 1.1.8 1.5.5.3.3 1.1.8 1.4v.1c.2.3.5.5.7.8l-.1-.1c.5.3.4 1.1.8 1.5.2.3.5.5.7.8l-.1-.1c.5.4.4 1.1.8 1.5.5.4.3 1.1.8 1.4v.1c.2.3.5.5.7.8l-.1-.1c.6.4.4 1.1.8 1.5v-.1c.5.4.4 1.1.8 1.5.5.4.4 1.1.8 1.5v-.1c.6.4.4 1.2.7 1.7 0 .2 0 .4.1.5.4.4.2 1.1.7 1.5.5.4.4 1.1.7 1.6v-.1c.8.6.1 1.6.8 2.2.5.5.4 1.2.7 1.7 0 .2 0 .4.1.6.4.4.3 1.1.7 1.5.5.4.4 1.2.7 1.7 0 .2 0 .4.1.6.4.4.3 1.1.7 1.5.5.5.4 1.2.7 1.7 0 .2 0 .4.1.5.4.4.3 1.1.7 1.5v-.1c.8.6.2 1.6.8 2.3v-.1c.8.6.1 1.6.8 2.3v-.1c.8.6.2 1.6.8 2.3.3.2.4.4.5.8.1.8-.2 1.6.4 2.2.9.8 0 2.1.8 3 .9.8 0 2.1.8 3 .9.9 0 2.1.7 3 .9.9 0 2.1.7 3 .3.2.4.5.4.8.1 1-.3 2 .4 2.9 1 1.1-.1 2.6.8 3.8 1 1.4-.1 3.1.8 4.5.3.3.4.6.4 1 .1 1.5-.3 3 .3 4.4-.1.2-.1.4 0 .5.7 4.2.7 8.4 0 12.7-.8.9.1 2.2-.8 3v-.1c-.4.5-.3 1.1-.7 1.5-.4.4-.3 1.1-.8 1.5-.4.4-.3 1.1-.8 1.5l.1-.1c-.2.3-.5.5-.7.8-.5.4-.3 1.1-.9 1.4l.1-.1c-.2.3-.5.6-.8.8h.1c-.2.3-.5.6-.7.8-.6.7-.9 1.6-1.6 2.2h.1c-.2.3-.5.6-.8.8l.1-.1c-.2.3-.5.6-.8.8-.2.3-.5.6-.8.8-.2.3-.5.6-.8.8-.2.3-.5.6-.8.8l.1-.1c-.2.3-.5.6-.8.8v-.1c-.6.7-1.5 1.1-2.3 1.6-.7.6-1.5 1.1-2.3 1.5h.1c-.4.5-1.1.4-1.5.8-.4.5-1.1.4-1.5.8-.4.5-1.1.3-1.5.8-.4.5-1.1.4-1.5.7h.1c-.6.8-1.6.1-2.3.8-.8.9-2.1 0-3 .8h.1c-4.5.8-8.9.6-13.4 0l-.3-.1h-.3c-.7-.5-1.8 0-2.4-.7-.6-.7-1.7 0-2.3-.7-.6-.7-1.6 0-2.2-.8-.9-.4-1.7-.8-1.6.8.9.8 0 2.1.8 3 .9.9 0 2.1.8 3v-.1c.9.8 0 2.1.8 3v-.1c1 1.1-.1 2.6.8 3.8 1 1.1-.1 2.6.8 3.8v-.1c1.2 2.1-.2 4.6.8 6.7v-.1c.9 5.1.8 10.4.1 15.4-.4 3.3.3 6.7-.9 9.9v-.1c-.6 3-.7 6-1.5 9v-.1c-.7.9.2 2.2-.8 3v-.1c-.8.9.2 2.2-.8 3v-.1c-.6.6 0 1.7-.7 2.3-.7 2.3-1.2 4.6-2.3 6.7-.7.6 0 1.7-.8 2.3v-.1c-.4.5-.2 1.2-.8 1.6-.4.4-.3 1.1-.7 1.5-1 2.6-2.1 5.1-3.7 7.5-.4.4-.3 1.1-.8 1.5-.4.4-.3 1.2-.8 1.5v-.1c-.4.5-.2 1.2-.8 1.5v-.1c-1.1 1.7-1.7 3.7-3 5.3-.4.4-.3 1.2-.8 1.5v-.1c-.4.8-.9 1.6-1.5 2.3-.4.4-.3 1.2-.8 1.5v-.1c-.4.8-.9 1.6-1.5 2.3-.5.8-.9 1.6-1.5 2.3h.1c-.2.3-.5.5-.7.8-.5.4-.3 1.1-.8 1.4l.1-.1c-.2.3-.5.6-.8.8-.5.7-.9 1.6-1.6 2.2h.1c-.2.3-.5.6-.8.8-.6 1.1-1.5 2-2.3 3h.1c-.2.3-.5.6-.8.8v-.1c0 1.7-3.9 2.2-1.5 4.6v-.1c.5.4 1.2.2 1.5.8h-.1c.5.4 1.2.2 1.5.8l-.1-.1c.3.2.6.5.8.7.4.4 1.1.3 1.5.8l-.1-.1c.3.2.5.5.8.7.4.5 1.1.3 1.4.8l-.1-.1c.3.2.6.5.8.8.7.5 1.6.9 2.2 1.6v-.1c.3.2.6.5.8.8v-.1c.3.2.6.5.8.8.3.2.5.5.8.7.3.2.5.5.8.7.2.3.5.5.7.7.2.3.5.5.7.7.2.3.5.5.7.8.3.2.5.5.8.8.3.2.6.5.8.8h-.1c.7.6 1.1 1.5 1.6 2.3.6.7 1.1 1.5 1.5 2.3v-.1c.5.4.4 1.1.8 1.5.5.4.4 1.1.8 1.5.5.4.4 1.1.8 1.5.5.4.4 1.1.8 1.5v-.1c.8.6.1 1.6.8 2.2.7.6.1 1.6.7 2.3.7 3 .7 5.9 0 8.9-.4.4-.3 1.1-.7 1.5-.4.4-.3 1.1-.8 1.5v-.1c-.9 1.6-2.2 2.8-3.7 3.8-1.3 1.2-2.9 1.7-4.5 2.2h.1c-1.7 1-3.5.3-5.3.4-1.3.1-2.2.3-1.5 1.9.8.6.1 1.6.8 2.3v-.1c.9.8 0 2.1.8 3 .9 1 0 2.4.7 3.4.1.3.2.6.2 1 0 .9-.4 1.6-.7 2.4-.3.6-.6 1.2-.9 1.7-.4.6-.9 1.3-1.3 2-.2.2-.4.4-.7.6-.6.2-1.1.6-1.4 1.1a4.35 4.35 0 0 1-1.4 1.3l-.9.3c-.9.2-1.8.7-2.6 1.2-.3.2-.6.2-1 .3-.8.3-1.6.6-2.5.7h-10.4c-1 0-1.8-.6-2.8-.8-.6-.1-1-.4-1.6-.6-.3-.1-.6-.1-.8-.2-.3 0-.5-.1-.7-.1-.2.1-.4.1-.6.2-.2.2-.4.5-.5.8 0 .3-.1.5-.2.7l-.6 1.5c-.1.3-.2.5-.3.8-.2.4-.4.7-.6 1.1-.1.2-.3.5-.4.7-.1.2-.3.4-.5.6l-.3.3c-.2.2-.3.4-.5.5l-.3.3c-.2.2-.3.4-.5.5l-.3.3c-.2.2-.4.4-.6.5l-.3.3c-.2.2-.4.3-.6.5-.2.2-.5.3-.7.4-.4.2-.8.4-1.3.4-.3 0-.6 0-.9-.1-.7-.3-1.5-.6-2.2 0h.1c-1.1.9-2.4.2-3.5.5-.3.1-.6.2-1 .3-1 .2-2-.1-2.9-.3-.3 0-.6-.1-.9-.1-.6-.1-1.1-.4-1.6-.6-.3-.1-.5-.1-.8-.2-.4-.1-.7-.3-1.1-.5-.2-.1-.5-.2-.7-.3-.3-.2-.7-.3-1-.5-.2-.1-.5-.2-.7-.3-.2-.1-.5-.2-.7-.4-.2-.1-.5-.2-.7-.4-.2-.1-.4-.3-.7-.4-.1-.1-.2-.2-.3-.2-.2-.1-.4-.3-.6-.4-.2-.1-.4-.3-.6-.5-.2-.1-.4-.3-.6-.5l-.3-.3c-.2-.2-.4-.3-.5-.5 0 0-.2-.3-.3-.3-.2-.1-.4-.3-.5-.5 0 0-.2-.3-.3-.3-.2-.1-.3-.3-.5-.5 0 0-.2-.3-.3-.3-.2-.1-.4-.3-.5-.5 0 0-.2-.3-.3-.3-.2-.1-.4-.3-.5-.5 0 0-.2-.3-.3-.3-.2-.2-.3-.4-.5-.6-.1-.1-.2-.2-.2-.3l-.6-.6c-.2-.2-.4-.4-.5-.7-.2-.4-.4-.7-.7-1-.2-.2-.4-.4-.5-.6-.2-.2-.3-.4-.5-.7-.2-.2-.3-.4-.4-.7-.2-.2-.3-.4-.4-.7-.2-.2-.3-.4-.4-.7-.2-.2-.3-.5-.4-.7-.2-.2-.3-.5-.4-.7-.2-.2-.3-.5-.4-.7-.1-.2-.3-.5-.4-.7-.1-.2-.3-.5-.4-.7-.1-.2-.3-.5-.4-.7-.1-.2-.3-.5-.4-.8-.1-.3-.2-.5-.3-.8-.1-.4-.2-.8-.2-1.3 0-.3.1-.6.2-.8.1-.6.2-1.1-.3-1.6-.4-.4-.3-1.1-.7-1.5-.5-.4-.9-.8-1.4-1.2-.2-.2-.4-.5-.6-.7l-.6-1.2c-.1-.3-.2-.5-.3-.8-.2-.4-.3-.8-.4-1.2-.1-.3-.2-.5-.3-.8-.2-.2-.3-.4-.5-.6l-.6-.3c-.5-.1-1 .2-1.4.4l-.9.3c-.9.2-1.8.5-2.6 1-.3.2-.6.3-.9.4-.6.2-1.2.5-1.8.7l-.9.3c-2.6.4-5 1.3-7.3 2.5l-.9.3c-.6.2-1.2.3-1.8.5-.3.1-.6.1-.9.2-.7.1-1.4.4-2.1.6-.3.1-.6.1-.9.2-.7.1-1.4.4-2.2.6-.3.1-.6.1-.9.1-.9.1-1.8.5-2.7.7-.3.1-.6.1-.9.1-.9.1-1.8.4-2.7.7-.3.1-.6.1-.9.1-1.3-.1-2.4.5-3.7.7-.3.1-.7.1-1 0-1.4 0-2.6.7-4 .7h-1.1c-4.7.8-9.6.6-14.3 1.8-.4.1-.9 0-1.3 0-4.6-.4-9.1-.5-13.6.2-5.3.8-10.5-.4-15.7-.9-3.5-.3-7.1.4-10.5-.8-1.9-1-4.1.3-6-.8-1.6-.9-3.6.3-5.2-.8h.1c-1.2-.8-2.6.2-3.8-.7l-.3-.1h-.3c-1.2-.8-2.7.2-3.9-.7-1.1-.8-2.7.2-3.8-.8-1.1-.9-2.7.2-3.8-.8h.1c-.9-.7-2.2.1-3-.7-1.1-.9-2.7.2-3.7-.8h.1c-.9-.8-2.2.2-3-.8h.1c-.7-.6-1.7 0-2.3-.7-.9-.8-2.2.2-3-.8h.1c-.6-.6-1.7 0-2.3-.8-.6-.6-1.7 0-2.3-.8-.6-.6-1.7 0-2.3-.8h.1c-.6-.6-1.7 0-2.3-.8h.1c-.5-.3-1.1-.2-1.6-.7-.6-.7-1.7 0-2.2-.8h.1c-.4-.4-1.1-.2-1.5-.7l-.2-.1h-.3c-.6-.3-1.3-.2-1.7-.7-.6-.6-1.7 0-2.3-.8h.1c-.5-.3-1.2-.2-1.6-.7-.6-.7-1.7 0-2.3-.8h.1c-.5-.4-1.2-.2-1.6-.7-1.2-.6-2.6-.7-3.8-1.5h.1c-.5-.4-1.2-.2-1.5-.8-.4-.4-1.1-.3-1.5-.8-.4-.4-1.1-.3-1.5-.7-.4-.4-1.1-.3-1.5-.8-.4-.4-1.1-.3-1.5-.8-.4-.4-1.1-.3-1.5-.8-.5-.4-1.2-.2-1.5-.8h.1c-.5-.4-1.2-.2-1.5-.8l.1.1c-.3-.2-.6-.5-.8-.7-.4-.5-1.1-.3-1.5-.8-.4-.4-1.2-.3-1.5-.8h.1c-1-.4-1.8-1.5-3.1-.8h.1c-.2.3-.5.5-.7.8-.5.4-.3 1.1-.8 1.5-.5.8-.9 1.6-1.5 2.3-.5.8-.9 1.6-1.5 2.3h.1c-.2.3-.5.5-.7.8-.5.4-.3 1.1-.9 1.4l.1-.1c-.2.3-.5.6-.8.8-.5.7-.9 1.6-1.6 2.2h.1c-.2.3-.5.6-.8.8-.5.7-.9 1.6-1.6 2.2h.1c-.2.3-.5.6-.8.8-.2.3-.5.5-.7.8-.4.5-.6 1-.7 1.7 0 .3 0 .6-.1.9-.1.3-.3.5-.5.7l-.3.3c-.2.2-.4.5-.6.7-.1.1-.2.3-.3.4-.2.3-.4.5-.6.8-.1.1-.3.2-.4.3-1.2.9-2.2 1.9-3.2 3-.2.3-.4.5-.5.8-.2.3-.4.5-.6.7l-.3.3c-.2.2-.5.4-.7.5-.2.2-.5.3-.7.4-.5.2-1 .5-1.4.9-.2.2-.4.3-.6.5-.3.2-.7.4-1 .5-.2.2-.4.3-.6.5-.2.2-.4.3-.6.4-.3.2-.7.4-1 .5-.2.1-.5.2-.7.3-.3.2-.7.3-1.1.5-.2.1-.5.2-.8.3-.5.2-1 .5-1.6.6-.3.1-.6.1-.9.1-.9.2-1.8.5-2.7.7-.3.1-.6.1-1 .1-.5 0-1-.1-1.4-.1-.3 0-.6 0-1-.1-1-.2-2-.7-3.1-.7-.3 0-.6 0-.9-.1-.6-.1-1.1-.4-1.7-.6-.3-.1-.6-.2-.8-.3l-1.2-.6c-.3-.1-.5-.3-.7-.5-.4-.4-.9-.7-1.4-.9-.3-.1-.5-.3-.8-.4-.3-.2-.5-.3-.7-.5-.1-.1-.2-.2-.4-.3-.3-.2-.5-.4-.7-.7-.1-.1-.2-.2-.3-.4-.3-.4-.6-.8-.8-1.2-.9-2.5-2.5-4.7-2.5-7.6 0-2.8-3.2-1.2-4.3-2.6H88c.9 1.5.7 1.4.5 1.1Z" fill="#282828"/><path d="M369.6 408.2c.6 3.2.6 3.2 3.2 1.6 13.4-8.1 25.7-17.6 38-27.2 9.7-7.6 17.9-16.7 26.6-25.3 2.1-2.1 4.5-3.9 6.7-5.9 1.1-1 2.4-1.2 3.8-1.1.3.5.3 1-.1 1.4-.1.2-.1.4-.1.6-.3.5-.2 1.2-.7 1.6-.4.4-.3 1.1-.8 1.5-.4.4-.3 1.1-.8 1.5-.4.4-.2 1.2-.8 1.5l.1-.1c-.2.3-.5.6-.7.8-.4.4-.3 1.1-.8 1.5l.1-.1c-.2.3-.5.6-.7.8-.5.7-.9 1.6-1.6 2.2h.1c-.2.3-.5.6-.7.8-.2.2-.5.5-.7.8v.1c-.5.3-.3 1.1-.9 1.4l.1-.1c-.2.3-.5.6-.8.8h.1c-.2.3-.5.6-.8.8-.2.3-.5.5-.7.8-.3.2-.5.5-.7.7v.1c-.7.6-.9 1.5-1.6 2.1h.1c-.2.3-.5.6-.8.8l.1-.1c-.2.3-.5.6-.8.8l.1-.1c-.2.3-.5.6-.8.8-.2.3-.5.6-.8.8-.2.3-.5.6-.8.8-.2.3-.5.5-.8.8-.2.3-.5.5-.8.8-.2.3-.5.5-.8.8-.2.3-.5.5-.8.8-.2.3-.5.5-.8.8-.2.3-.5.5-.8.8-.2.3-.5.5-.8.8-.2.3-.5.5-.8.8-.2.3-.5.6-.8.8-.2.3-.5.6-.8.8-.2.3-.5.6-.8.8l.1-.1c-.2.3-.5.6-.8.8l.1-.1c-.2.3-.5.6-.8.8v-.1c-.6.7-1.5 1-2.1 1.6-.3.2-.5.5-.8.7-.2.3-.5.5-.8.8-.2.3-.5.6-.8.8v-.1c-.6.7-1.5 1-2.1 1.6a5 5 0 0 0-.8.7c-.2.3-.5.5-.8.8-.2.3-.5.6-.8.8l.1-.1c-.3.6-1.1.4-1.4.9h-.1c-.3.2-.5.4-.8.7-.2.3-.5.5-.8.7-.2.3-.5.6-.8.8l.1-.1c-.3.6-1.1.4-1.4.9-.3.2-.5.5-.8.7-.2.3-.5.6-.8.8v-.1c-.5.6-.5 1.1 0 1.7v-.1c.3.2.5.5.8.7h.1c.3.5 1.1.3 1.4.9l-.1-.1c.3.2.6.5.8.8.3.2.5.5.8.7 1 .7 2 1.5 2.9 2.4v-.1c.3.2.6.5.8.8l-.1-.1c.3.2.6.5.8.8l-.1-.1c.3.2.6.5.8.8l-.1-.1c.3.2.6.5.8.8l-.1-.1c.3.2.6.5.8.8h-.1c1 1.2 2.2 2.3 3.1 3.6.2.3.5.5.7.8.3.2.6.5.8.8h-.1c.3.2.6.5.8.8h-.1c.7.6 1.1 1.5 1.5 2.3v-.1c.5.4.4 1.1.8 1.5.5.4.4 1.1.8 1.5v-.1c.9.9.1 2.2.8 3.2v1.1c-.4 1.1-.6 2.1.1 3.1.9.6 1.7 1.3 2.2 2.3v-.1c.8 1.8.6 3.6-.1 5.3-3.7 2.2-8.4 1.8-12.3-1.1-3.2-2.4-3.5-5.4-2.3-8.9.7-1.9 0-3.4-1.1-4.8-3.5-4.5-7.3-8.7-10.6-13.3-.7-1.4-1.3-2.2-3.1-.9-13.2 9.9-27.4 18.3-42 25.9-15.2 7.8-30.9 14.7-47.2 19.8-21.1 6.4-42.6 10.8-64.5 13.2a343.9 343.9 0 0 1-36.6 2.1c-6.9 0-13.8-.7-20.7-1.2-2-.2-3.6.8-5.4.8-4.9-2.7-10.5-2.5-15.8-3.3-2.8-.4-5.6-.7-8.4-1.6-9.7-1-19.1-3.6-28.5-6.2-10.5-2.9-20.9-6.1-31-10.1-3.5-1.4-7.1-2.5-10.2-4.9-.4-.6-1-.9-1.6-1.2-.3-.1-.5-.3-.8-.4-.4-.2-.8-.3-1.2-.4-.3 0-.5-.1-.8-.2-.4-.2-.7-.4-1-.7-.2-.2-.3-.4-.5-.7-.3-.3-.7-.4-1-.7-.4-.4-1.1-.3-1.5-.7-.4-.5-1.1-.3-1.5-.8-.4-.4-1.1-.3-1.5-.8-.4-.4-1.1-.3-1.5-.8-.4-.4-1.1-.3-1.5-.8-.4-.4-1.2-.3-1.5-.8h.1c-.5-.4-1.2-.2-1.5-.8h.1c-.5-.4-1.2-.2-1.5-.8l.1.1c-.3-.2-.5-.5-.8-.7-.4-.5-1.1-.3-1.5-.8-.4-.4-1.1-.3-1.5-.8-.4-.4-1.1-.3-1.5-.8-.4-.4-1.2-.3-1.5-.8h.1c-.5-.4-1.2-.2-1.5-.8h.1c-.5-.4-1.2-.2-1.5-.8h.1c-.5-.4-1.2-.2-1.5-.8l.1.1c-.3-.2-.6-.5-.8-.7-.4-.5-1.1-.3-1.5-.8-.2-.1-.5-.2-.7-.3-.1-.1-.2-.2-.3-.2-.3-.4-.9-.5-1.2-.9v.1c-.3-.2-.5-.5-.8-.7-.4-.5-1.1-.3-1.4-.9l.1.1c-.3-.2-.6-.5-.8-.8-.2-.1-.5-.3-.7-.4-.1-.1-.2-.2-.3-.2-.3-.4-.9-.5-1.2-1v.1c-.3-.2-.6-.5-.8-.8-.3-.2-.6-.5-.8-.7-.2-.2-.4-.3-.7-.4-.1-.1-.2-.2-.3-.2-.3-.4-.9-.5-1.2-1v.1c-.3-.2-.6-.5-.8-.8l.1.1c-.3-.2-.6-.5-.8-.8l.1.1c-.3-.2-.6-.5-.8-.8-.3-.2-.6-.5-.8-.8l.1.1c-.3-.2-.6-.5-.8-.8l.1.1c-.6-.3-.4-1.1-.9-1.4v-.1c-.2-.3-.5-.5-.7-.8-.5-.4-.4-1.1-.8-1.5-.5-.4-.3-1.1-.7-1.5-.3-.1-.4-.3-.3-.4.1-.2.2-.3.2-.3 4.9.4 8.8 3.2 12.7 5.7 9.4 6.2 19.7 10.8 29.9 15.5 4.3 2 8.5 4 12.7 5.9 1.1.5 2.3.9 3.5 1.3.9.3 1.4-.2 1.6-1 4.2.5 7.9 2.4 11.9 3.6 21.1 6.3 42.5 10.8 64.3 13.5 15.3 1.9 30.5 3 45.9 2.8 12-.2 24-1.3 35.9-2.9 17.7-2.3 35.2-5.8 52.3-10.9 7.5-1.1 14.4-4.2 21.4-7.2 12.1-5.2 24.1-10.9 35.4-17.9 1.7-1 3.5-1.9 3.7-4.2.4-.4.9-.7 1.5-.7ZM420.3 221.7c-.5-.9-1.2-1.6-2.2-1.8-2-.4-2.9-1.9-3.8-3.5-2-1.4-2-3.5-2.3-5.6-4-32.1-12.4-62.7-30.4-90.2-9.5-14.5-19.9-28.1-32.7-39.7-18.3-16.7-38.4-31.1-61.3-41.1-5.2-2.3-10.3-4.8-14.6-8.6-.2-3.2-.2-3.2-3.2-3-1 .1-2 .1-2.9 0-2.9-.3-3.6-1.3-2.8-4.4-.1-2.9 2.2-3.1 4.1-3.7.9-.1 1.8.6 2.6 0 .2-.3.4-.4.8-.5.7-.1 1.6.2 2.2-.4 1.5-.6 3-.7 4.5.1h-.1c.5.4 1.2.2 1.5.8l-.1-.1c.3.2.6.5.8.8l-.1-.1c.6.4.4 1.1.8 1.5v-.1c.7 1 .6 2 0 3-.4.4-.3 1.1-.8 1.5-.2.3-.5.5-.7.8-.3.2-.5.5-.8.7-.2.2-.2.4-.2.5 0 .2.1.3.2.3.9.7 2.1-.1 3 .7.2.1.4.1.6.1.7.6 1.7 0 2.3.7.2.1.4.1.6.1.5.3 1.1.3 1.7.3.3 0 .6 0 .8.1.4.4 1 .6 1.4.9.2.1.3.1.5.1.5.3 1.2.2 1.7.7.5.4 1 .3 1.6.4.3.1.5.2.7.4.5.4 1.1.2 1.6.7.5.4 1 .3 1.6.4.3 0 .6.1.8.2.4.4 1 .6 1.3 1 .5.4 1.2.2 1.5.8.4.4 1.1.3 1.5.8.4.4 1.1.3 1.5.8.4.4 1.1.3 1.5.8.4.4 1.1.3 1.5.8.4.4 1.2.3 1.5.8h-.1c.5.4 1.2.2 1.5.8l-.1-.1c.3.2.5.5.8.7.3.5 1.1.3 1.4.8.4.4 1.1.3 1.5.8.4.4 1.2.2 1.5.8l-.1-.1c.3.2.6.5.8.7.4.5 1.1.3 1.5.8.4.4 1.2.2 1.5.8l-.1-.1c.3.2.6.5.8.7.4.4 1.1.3 1.5.8l-.1-.1c.3.2.5.5.8.7.4.5 1.1.3 1.5.8l-.1-.1c.3.2.5.5.8.7.4.5 1.1.3 1.4.8l-.1-.1c.3.2.5.5.8.7.4.5 1.1.3 1.5.8l-.1-.1c.3.2.6.5.8.7.4.4 1.1.3 1.5.8l-.1-.1c.3.2.6.5.8.8.3.2.5.5.8.7.3.5 1.1.3 1.4.9l-.1-.1c.3.2.6.5.8.8.2.2.4.3.7.4.1.1.2.2.3.2.3.4.9.5 1.2 1V58c.3.2.6.5.8.8.3.2.5.5.8.7.3.5 1.1.3 1.4.9l-.1-.1c.3.2.6.5.8.8.2.1.5.3.8.4.1.1.2.2.3.2l.6.6.3.3c.3.3.8.4 1 .8v-.1c.3.2.6.5.8.8V64c.3.2.6.5.8.8.3.2.5.5.8.7.6.6 1.6.9 2.2 1.6V67c.3.2.6.5.8.8.3.2.6.5.8.8.3.2.5.5.8.7.2.2.4.3.7.4.1.1.2.2.3.2.3.4.9.5 1.2 1v-.1c.3.2.6.5.8.8l-.1-.1c.3.2.6.5.8.8v-.1c.3.2.6.5.8.8.3.2.5.5.8.7.3.2.5.5.8.7.3.2.5.4.8.6l.4.4c2.5 2.5 5.1 5 7.5 7.6.4.4.6.8.9 1.2.2.3.5.5.7.8.3.2.5.5.7.8.3.2.6.5.8.8.3.2.6.5.8.8h-.1c.8.9 1.6 1.9 2.3 2.9.2.3.5.5.7.8.3.2.6.5.8.8l-.1-.1c.3.2.6.5.8.8h-.1c.5.3.6.9.9 1.2.3.3.4.7.7 1 .2.3.5.5.7.8.3.2.6.5.8.8l-.1-.1c.3.2.6.5.8.8h-.1c.5.3.6.9.9 1.2.3.3.4.7.7 1 .3.3.5.5.7.8.3.2.6.5.8.8h-.1c.5.3.6.9.9 1.2.3.3.4.7.6 1 .3.2.6.5.8.8l-.1-.1c.5.3.4 1.1.9 1.4.2.3.5.5.7.8h-.1c.6.7 1 1.5 1.5 2.3.3.2.6.5.8.8l-.1-.1c.6.3.4 1.1.8 1.5.3.2.6.5.8.8l-.1-.1c.6.3.4 1.1.8 1.5.6.7 1 1.5 1.5 2.3v-.1c.5.3.3 1.1.8 1.4.2.3.5.5.7.8l-.1-.1c.5.3.4 1.1.8 1.5.3.3.5.5.7.8l-.1-.1c.6.3.4 1.1.8 1.5.4.4.5.9.9 1.3.3.3.4.7.6 1v-.1c.5.4.4 1.1.8 1.5.3.2.4.7.6.9.2.2.4.3.5.5.2.2.3.4.5.6.1.2.2.5.2.7 0 .4.1.7.3 1.1.5.4.4 1.1.8 1.5.5.4.4 1.1.8 1.5.5.4.3 1.1.8 1.5.4.4.3 1.1.8 1.5.4.4.3 1.1.7 1.5.3.5.5 1 .9 1.4.3.5.1 1.1.6 1.5.3.5.5 1 .9 1.4.3.5.1 1.1.6 1.5.4.4.3 1.1.7 1.5.4.4.3 1.1.7 1.5.5.4.4 1.1.7 1.5v-.1c.5.4.4 1.1.7 1.6h-.1c.2.2.4.4.5.7 0 .6 0 1.1.4 1.6.8.6.1 1.6.8 2.2.4.4.3 1.1.7 1.6.2.2.4.4.4.7 0 .6 0 1.1.3 1.6.2.2.4.4.4.7 0 .6 0 1.1.3 1.6v-.1c.8.6.2 1.6.8 2.3v-.1c.8.6.2 1.7.7 2.4 0 .2 0 .4.1.5.7.6 0 1.6.7 2.2.7.6.1 1.6.7 2.3.3.2.4.4.4.8.1.8-.2 1.6.3 2.2.9.8 0 2.1.8 3 .9.8 0 2.1.8 3 .9.8 0 2.1.8 3 .7.7.2 1.7.7 2.4 0 .2 0 .4.1.5.7.7.1 1.7.7 2.4 0 .2 0 .4.1.6.8.9 0 2.1.7 3 1 1.1-.1 2.6.8 3.8.3.2.4.5.4.9.1 1.2-.2 2.5.3 3.7-.1.2-.1.4 0 .5.3.2.4.6.4.9.2 1.2-.3 2.5.3 3.6.3.2.4.5.4.9.1 1.2-.3 2.5.3 3.6.3.3.5.6.4 1 .2 2.2-.3 4.4.3 6.5v1.2c-.4 1.1-.6 2.1 0 3.2.4.4 1.2.3 1.5.8l-.1-.1c.3.2.5.5.8.7.4.5 1.1.3 1.4.8l-.1-.1c.3.2.5.5.8.7.3.5 1.1.3 1.4.9l-.1-.1c.3.2.6.5.8.7.2.2.4.3.7.4.1.1.2.2.3.2.3.4.9.5 1.2 1v-.1c.3.2.6.5.8.8l-.1-.1c.3.2.6.5.8.8.3.2.5.5.8.8.3.2.5.5.8.7.2.3.5.5.7.7.2.3.5.5.7.7.2.3.5.5.7.7.2.3.5.5.7.7.2.3.5.5.7.8.3.2.5.5.7.8.3.2.5.5.8.8.3.2.6.5.8.8.3.2.6.5.8.8l-.1-.1c.3.2.6.5.8.8l-.1-.1c.3.2.6.5.8.8h-.1c.4.2.5.6.7.9.2.2.4.4.6.5.2.2.4.4.5.6.1.1.1.2.2.3.1.2.2.5.4.7.3.2.6.5.8.8l-.1-.1c.3.2.6.5.8.8h-.1c.2.1.4.3.5.6.2.2.3.4.5.6.1.1.1.2.2.3.1.2.2.5.3.7.5.3.4 1.1.8 1.4.2.3.5.5.7.8l-.1-.1c.5.3.4 1.1.8 1.5.2.3.5.5.7.8l-.1-.1c.6.4.4 1.1.8 1.5v-.1c.5.4.4 1.1.8 1.5.5.4.3 1.1.8 1.5.2.3.5.5.7.8h-.1c.2.1.4.3.5.5 0 .4.2.7.3 1v-.1c.5.4.4 1.1.8 1.5v-.1c.5.4.4 1.1.8 1.5.5.4.4 1.1.8 1.5.5.4.4 1.1.8 1.5v-.1c.5.4.4 1.1.8 1.6.2.2.4.4.5.7 0 .5 0 1.1.4 1.6.5.4.4 1.1.7 1.6.2.2.4.4.5.7 0 .6 0 1.1.3 1.6v-.1c.8.6.1 1.6.8 2.3v-.1c.8.6.1 1.6.8 2.3.2.2.4.4.4.7 0 .6 0 1.1.3 1.6.2.2.4.4.4.7 0 .6.1 1.2.3 1.7 0 .2 0 .4.1.5.7.6.1 1.6.7 2.3.7.7.2 1.7.7 2.4 0 .2 0 .4.1.5.8.9-.1 2.1.7 3 .8.9 0 2.2.7 3.1 0 .2 0 .4.1.6.9 1.1-.1 2.6.7 3.8 1 1.4-.1 3.1.7 4.5.6.5.4 1.2.4 1.9-.2 3.3.5 6.7-.4 10-.4.4-.3 1-.6 1.5v.8c.2.3.5.5.7.8l-.1-.1c.5.3.4 1.1.9 1.4.2.3.5.5.7.8l-.1-.1c.5.3.4 1.1.8 1.5.2.3.5.5.7.8l-.1-.1c.6.4.4 1.1.8 1.5v-.1c.5.4.4 1.1.8 1.5.4.4.6 1 1 1.4.1.3.1.6.1.9.1.7-.2 1.5.3 2.2.3.3.4.6.4.9-.1.7.2 1.4-.4 2-.4.4-.3 1.1-.7 1.5-.4.6-.9 1.1-1.5 1.5-1.5.9-3 .2-4.6.4-.7.1-1.9-.3-1.5 1.2 0 .2 0 .5.1.7.6.7.1 1.7.6 2.4 0 .2 0 .4.1.6.5 1.7.7 3.5-.1 5.2l.1-.1c-.2.3-.5.5-.7.8-.3.3-.6.5-.9.7h-1.2c-1-.8-2.8-.9-2.4-2.9-.8-2.7-1.5-5.4-2.3-8.1-.4-1.3-.7-2.6-.6-4 .1-3.3 1.5-4.7 4.7-4.6 2.6 0 3.2-.6 2.1-3-1.3-2.8-2.4-5.7-3.1-8.6V308c-1.2-9.2-3.3-18.1-5.9-27-3.9-13.4-8.9-26.2-17.2-37.5-5.1-7.6-11-15-17.4-21.8ZM39.4 230.6c-1.2 1.3-.3 3.5-2.1 4.5-.7-.1-1.3-.4-1.5-1 0-.2 0-.3-.1-.5-.6-.7-.1-1.7-.6-2.4.1-.2 0-.4-.1-.6-.8-6-.2-12-.4-18.1 0-.5.1-.9.4-1.3v-1.3c.7-1.9.1-3.9.3-5.8 0-.4.1-.8.4-1.1.1-.2.1-.4 0-.6.9-1.7-.3-3.7.7-5.4.1-.2.1-.4 0-.6.6-1.2.2-2.5.3-3.7 0-.4.1-.7.4-.9.8-1.1-.2-2.7.8-3.8.6-.9.2-1.9.4-2.9 0-.3.2-.6.4-.8.8-.9-.1-2.2.8-3 .8-.9-.2-2.2.8-3v.1c.6-.6 0-1.7.7-2.3.1-.2.1-.3.1-.5.5-.7 0-1.8.7-2.4.6-.6 0-1.7.7-2.3.7-.6 0-1.6.7-2.3.1-.2.1-.3.1-.5.2-.6.3-1.1.3-1.7.1-.3.2-.5.5-.7H44c.3-.5.2-1.1.7-1.6.7-.6 0-1.7.8-2.2.7-.6 0-1.7.8-2.3.4-.5.3-1 .4-1.6.1-.3.2-.5.5-.7.3-.5.2-1.1.7-1.6.7-.6 0-1.7.8-2.2.4-.5.3-1 .4-1.6.1-.3.2-.5.5-.7h-.1c.3-.5.2-1.2.7-1.6.7-.6 0-1.7.8-2.3v.1c.3-.5.2-1.2.7-1.6.4-.5.3-1 .4-1.6.1-.3.2-.5.5-.7.3-.5.2-1.2.7-1.6.4-.5.3-1.2.6-1.7.6-.5.2-1.5.9-2v.1c.4-.5.2-1.2.7-1.6.4-.4.3-1.1.7-1.5.4-.4.3-1 .6-1.5s.6-.9.6-1.5c.1-.3.2-.5.5-.6v.1c.1-.3.3-.7.3-1 .1-.2.2-.4.5-.5v.1c.1-.3.3-.7.3-1 .1-.2.2-.4.5-.5v.1c.1-.4.3-.7.6-1 .4-.4.5-1 .7-1.4.4-.4.5-.9.9-1.3s.3-1.1.8-1.5c.4-.4.3-1.2.8-1.5v.1c.4-.8.9-1.6 1.5-2.3.4-.4.3-1.1.8-1.5l-.1.1c.2-.3.5-.5.7-.8.5-.4.3-1.1.8-1.4.4-.4.2-1.2.8-1.5l-.1.1c.2-.3.5-.6.8-.8.4-.4.3-1.2.8-1.5l-.1.1c.2-.3.5-.6.7-.8.4-.4.3-1.2.8-1.5l-.1.1c.2-.3.5-.6.8-.8.4-.4.3-1.2.8-1.5l-.1.1c.2-.3.5-.6.8-.8.4-.4.3-1.2.8-1.5l-.1.1c.2-.3.5-.6.8-.8.5-.8.9-1.6 1.5-2.3.5-.8.9-1.6 1.5-2.3h-.1c.2-.3.5-.5.7-.8.5-.4.3-1.1.9-1.4l-.1.1c.2-.3.5-.6.8-.8.2-.3.5-.5.7-.8.5-.3.3-1.1.9-1.4l-.1.1c.2-.3.5-.6.8-.8.2-.3.5-.5.7-.8.6-.7.9-1.6 1.6-2.2h-.1c.2-.3.5-.6.8-.8.2-.3.5-.6.8-.8.3-.4.5-.8.8-1.2.8-.8 1.4-1.7 2.2-2.5h-.1c.2-.3.5-.6.8-.8l-.1.1c.2-.3.5-.6.8-.8.2-.3.5-.6.8-.8.2-.3.3-.5.4-.8.1-.1.2-.2.3-.4l.7-.7c.1-.1.2-.2.4-.3 1.2-1.2 2.5-2.5 3.6-3.8h-.1c.2-.3.5-.6.8-.8l-.1.1c.2-.3.5-.6.8-.8l-.1.1c.2-.3.5-.6.8-.8h-.1c.2-.3.5-.6.8-.8.2-.3.5-.6.8-.8.2-.3.5-.6.8-.8.2-.3.5-.6.8-.8.2-.3.5-.6.8-.8.2-.3.5-.6.8-.8.2-.3.5-.6.8-.8.2-.3.5-.6.8-.8.2-.3.5-.6.8-.8.2-.3.5-.6.8-.8l-.1.1c.2-.3.5-.6.8-.8v.1c.9-.9 1.9-1.6 2.9-2.3.3-.2.5-.5.8-.7.2-.3.5-.6.8-.8v.1c.2-.3.5-.6.8-.8v.1c.6-.7 1.5-1 2.2-1.6.3-.3.5-.5.8-.7.2-.3.5-.6.8-.8v.1c.6-.7 1.5-1 2.2-1.6.3-.3.5-.5.8-.7.2-.3.5-.6.8-.8v.1c.3-.5.9-.6 1.2-.9.3-.3.7-.4 1-.6.2-.3.5-.6.8-.8v.1c.3-.5.9-.6 1.2-.9.3-.3.7-.4 1-.6.3-.4.9-.5 1.3-.9.3-.3.7-.4 1-.6.2-.3.5-.6.8-.8l-.1.1c.3-.6 1.1-.4 1.5-.8.2-.3.5-.6.8-.7l-.1.1c.3-.6 1.1-.4 1.5-.8.2-.3.5-.6.8-.7l-.1.1c.3-.6 1.1-.4 1.5-.8.4-.4.9-.5 1.3-.9.3-.3.7-.4 1-.6h-.1c.4-.5 1.1-.4 1.5-.8.3-.3.5-.5.8-.7l-.1.1c.4-.6 1.1-.4 1.5-.8.4-.5 1.1-.3 1.5-.8.3-.2.5-.5.8-.7l-.1.1c.4-.6 1.1-.4 1.5-.8h-.1c.4-.5 1.1-.4 1.5-.8.4-.5 1.1-.3 1.5-.8.4-.4 1-.5 1.4-.9.5-.3 1.1-.1 1.5-.6.3-.2.5-.5.8-.7l-.1.1c.4-.6 1.1-.4 1.6-.8v.1c.1-.2.4-.4.6-.5.5-.1 1.1.1 1.5-.4.4-.4 1.1-.3 1.5-.7.4-.5 1.1-.3 1.5-.7h-.1c.6-.8 1.6-.1 2.2-.8.6-.7 1.6-.1 2.3-.7 1.1-1 2.7.1 3.8-.8.2.1.4 0 .6 0 .3-.3.6-.4 1.1-.4 1.1.1 2.3-.3 3.4.3.4 0 .9.1 1.3.1.6.4 1.6 0 1.9.9-.1 2.6-2.3 3.4-4 4.5-9.5 6.5-19.7 11.9-29.4 18a192.9 192.9 0 0 0-24.1 17.9 203.55 203.55 0 0 0-49.1 65.1c-9.5 20.1-17 40.9-20.6 63-1.2 7.3-2.2 14.7-3.3 22-1.5 2.8-1.4 5.1-3.4 6.4ZM37 240.2c1-.5 1.9-1.2 2.9-1.6 1.1-.5 2.5-1 3.4.1 1.1 1.2.5 2.6-.4 3.6-1 1.1-2.1 2.1-3.1 3.2-.7.7-1.3 1.5-1.9 2.2 0 .9 0 1.8-.6 2.5-6.6 7.4-9.7 16.5-12.9 25.6-5.3 14.6-10.7 29.2-13.4 44.6-1.2 6.8-1.7 13.7-2.5 20.5-.3 2.2-.4 4.4 1.8 6.1 1 .8 1.3 2.1 1 3.4.2 1.9-.3 3.7-.8 5.5-.4 1.6-.7 3.1-.7 4.8 0 2.9 0 2.9 2.9 3.2 3.1.4 5.2 2.4 5.3 5.7.1 2.5.5 4.9.9 7.3.2 1.2.7 2.1 2.2 1.9 1.9-.2 3.1.8 3.6 2.5 1.8 5.6 4.5 11.1 3.7 17.2-.1.7-.3 1.2-.9 1.6h.1c-1.5.7-3 .7-4.5 0h.1a7 7 0 0 1-3-2.9c-.3-.3-.5-.5-.7-.8l.1.1c-.9-.5-.2-1.6-.8-2.3-.9-.8 0-2.1-.8-3a.9.9 0 0 1-.4-.8c-.7-1.4 1.3-3.5-1.2-4.5-.4.5-.9.5-1.4.4-.6-.7-1.7-.4-2.3-1.1l.1.1c-.3-.2-.6-.5-.8-.8-.3-.2-.6-.5-.8-.8-.3-.2-.6-.5-.8-.8l.1.1c-.6-.4-.4-1.1-.8-1.5v.1c-.8-.6-.2-1.6-.8-2.3v.1c-1.1-1.4.2-3.1-.8-4.5-.6-.7-1.7 0-2.3-.7-.3-.3-.7-.4-1.1-.4a.9.9 0 0 1-.7-.3c-.2-.2-.4-.3-.6-.5l-.3-.3c-.2-.2-.4-.4-.5-.6-.1-.1-.1-.2-.2-.3-.1-.2-.2-.5-.3-.7v.1c-.8-.6-.1-1.6-.8-2.3-.7-2.5-.6-5 0-7.4.1-.2.1-.4 0-.6.8-1.2-.2-2.7.7-3.9.1-.2.1-.3.1-.5.4-.9.4-1.8 0-2.7 0-.2 0-.4-.2-.6-.4-.5-.3-1.1-.6-1.6 0-.2 0-.4-.1-.6-.8-1.2.1-2.7-.7-3.9v-9.3c.7-2.6.1-5.3.3-8 0-.4.1-.8.4-1.1.1-.2.1-.4 0-.6.9-1.7-.3-3.7.7-5.4.1-.2.1-.4 0-.6.9-1.4-.2-3.2.7-4.6.1-.2.1-.4.1-.6.6-1.2.2-2.4.3-3.7 0-.4.1-.7.4-.9.8-1.1-.2-2.7.8-3.8.6-.9.2-1.9.4-2.9 0-.3.2-.6.4-.8.7-.9-.1-2.2.7-3 .1-.2.1-.3.1-.5.4-.8.3-1.6.3-2.4 0-.3.2-.6.4-.8.6-.7 0-1.7.7-2.3.1-.2.1-.3.1-.5.5-.7 0-1.8.7-2.4.6-.6 0-1.7.7-2.3.6-.7.3-1.5.4-2.2 0-.3.2-.6.5-.7.3-.5.3-1.1.3-1.6.1-.3.2-.5.5-.7h-.1c.3-.5.2-1.1.7-1.6.1-.2.1-.3.1-.5.3-.6.2-1.3.7-1.7.7-.6 0-1.7.8-2.2.7-.6 0-1.7.8-2.3v.1c.4-.5.3-1 .3-1.6.1-.3.2-.5.4-.7.4-.5.2-1.1.7-1.5.1-.2.1-.3.1-.5.3-.5.2-1.2.7-1.7.7-.6 0-1.7.8-2.2.7-.6 0-1.7.8-2.3v.1c.4-.5.3-1.1.7-1.6.7-.6 0-1.7.8-2.2v.1c.4-.5.3-1.1.7-1.5.4-.4.3-1.1.7-1.5.4-.4.3-1.1.7-1.5.4-.4.3-1.1.8-1.5.4-.4.3-1.2.8-1.5l-.1.1c.2-.3.5-.5.7-.8.5-.4.3-1.1.8-1.4l-.1.1c.2-.3.5-.6.7-.8.5-.4.3-1.1.8-1.5l-.1.1c.2-.3.5-.6.8-.8.2-.3.5-.5.7-.8.3-.3.5-.8.8-1.1.3-.3.4-.8.8-1.1h-.1c.2-.3.5-.6.8-.8l-.1.1c.2-.3.5-.6.8-.8.2-.3.5-.6.8-.8.2-.3.5-.6.8-.8l-.1.1c.2-.3.5-.6.8-.8v.1c.6-.7 1.5-1 2.2-1.6.3-.2.5-.5.8-.7.2-.3.5-.6.8-.8v.1c.2-.3.5-.6.8-.8.1-.2.2-.2.5.1ZM224.6 17.3c-1.5 2.5-1.5 2.5-3.7 1.3-2.4.6-3.9-1.2-5.6-2.3-2.4-1.6-4.3-1.3-5.9 1.2-1 1.5-2 3.1-3.2 4.5-1 1.2-2 2.6-4 1.8-2.3 1.5-4.8 1.6-7.4 1.5-3.2.4-1.5 3.7-3 5.2-.5 4.5-2.1 5.4-6 3.3-1-.5-1.8-1.2-2.7-1.8-.5 0-.9-.2-1.1-.6-.3-.9-.8-1.6-1.3-2.4-.4-.4-.6-1-.9-1.4-.2-.5-.4-1.1-.8-1.5-.3-.5-.2-1.1-.5-1.6-.9-.8 0-2.1-.8-3-.6-.6-.4-1.3-.4-2 0-.4.2-.7.5-.9.3-.5.3-1.1.5-1.6.4-.4.5-1 1-1.4h-.1c.2-.3.5-.6.8-.8v.1c.8-1 2-1 3-1.6 2.5-.6 5-.7 7.4 0h-.1c.7.6 1.6.1 2.3.5.6.6 1.6.3 2.2.9 1 .6 2 .5 3.1 0 .2-.3.5-.6.8-.8v.1c.4-.5 1-.7 1.4-1.2l.6-.6.6-.6.3-.3c.3-.1.5-.2.7-.4.3-.3.5-.5.8-.7.2-.3.5-.6.8-.8l-.1.1c.2-.3.5-.6.8-.8l-.1.1c.3-.6 1.1-.4 1.5-.8.2-.3.5-.6.8-.7v.1c.1-.2.4-.4.6-.5.5-.1 1.1.1 1.5-.4.6-.7 1.6-.1 2.3-.7.2-.3.5-.4.8-.4.5 0 1-.1 1.4.4.2.1.4.1.6 0 .7.6 1.8 0 2.4.7.4.4 1.2.3 1.5.8.4.4 1.2.2 1.5.8l-.1-.1c.3.2.6.5.8.8.3.2.5.3.8.5.1.1.2.2.4.3.7.6 1.3 1.4 1.9 2.1.2.3.5.5.7.8l-.1-.1c.6.4.4 1.2.7 1.7 0 .2 0 .4.1.5.5 1.1.7 1.9 0 2.7ZM237.3 17.8c-1.3.2-2.2 1-2.9 2.1-.9 1.4-2.2 2.6-3.9 2-1.9-.6-2.9-2.2-2.8-4.3 0-.5 0-1-.1-1.5-.3-.5-.4-.9.1-1.3.4-.4.3-1.1.8-1.5.4-.4.3-1.2.8-1.5v.1c.1-.3.3-.6.4-.8.1-.1.2-.2.3-.4l.7-.7c.1-.1.2-.2.4-.3.8-.8 1.5-1.6 2.4-2.3.3-.3.8-.5 1.2-.8.2-.3.5-.6.8-.8l-.1.1c.3-.6 1.1-.4 1.5-.8.8-.7 1.9-1 2.8-1.6.5-.3 1.2-.2 1.7-.6.6-.8 1.6-.1 2.3-.8h-.1c.8-.9 2.1 0 3-.8 2.3-1 4.7-.2 7-.4.5 0 .8.1 1.2.4.5.4 1 .3 1.6.4.3.1.5.2.6.5v-.1c.3.2.6.5.8.8l-.1-.1c.3.2.5.5.5.9 0 .2 0 .5-.1.7-.1.2-.1.5-.1.7.1.2.2.4.4.6.2.2.3.4.4.6.1.2.2.5.1.7 0 .4.2.7.3 1.1v1.1c-.4.7-.3 1.5-.3 2.2v.8c.1.3.2.5.4.7.2.1.5.2.8.2.5 0 1.1-.1 1.6-.3h.8c.7 0 1.4.1 2.1-.3h-.1c1-.7 2-.7 3 0h-.1c.5.4 1.1.3 1.6.7.2.2.5.4.8.6.2.3.3.6.3.9-.1.8.3 1.6-.4 2.3v-.1c-.2.3-.5.6-.8.8v-.1c-.5.6-.8 1.4-1.5 1.9-4.3 1.7-8.7 2.3-13.3 1.9-1.2-.1-2-1-3-1.5-2.6-1.9-2.4-4.6-2.1-7.5-3.6.3-6.3 2.1-9.1 3.7-.4.5-1.1.3-1.5.8-.6.4-.9.7-1.1.9Z" fill="#282828"/><path d="M454.5 343.6c.7-1.1.7-2.3.8-3.6.3-2.8 1.1-3.1 3.8-1.3 2 .7.4 2.6 1.3 3.7v2.6c-.3.5-.2 1.2-.7 1.7-.2.3-.5.5-.7.8-.3.3-.6.5-1 .7h-.2c-.4-.1-.7-.4-1-.7-.3-.2-.6-.5-.8-.8l.1.1c-.8-.5-.1-1.6-.8-2.2-.3-.3-.6-.6-.8-1Z" fill="#53463B"/><path d="M308.8 439.8c-7.1 2.7-14.5 4.1-21.9 5.7-24.3 5.4-48.8 8.4-73.7 8.4-14.2 0-28.2-1.3-42.2-3.1-23.5-3-46.5-8.4-69.2-15.4-1.9-.6-3.3-1.4-4.3-3.1-.5-2.2-1.6-4.1-2.6-6.1-9.8-20.5-15.7-42.2-19.7-64.5-3-16.7-5.2-33.5-6.3-50.5-.6-9-.1-17.8 1.1-26.7 1.6-12.4 3.1-24.8 6.6-36.9 1.9-6.3 4-12.5 6.2-18.7 3.1-8.6 8.2-15.8 14.4-22.3 6.3-6.6 13.3-12.2 20.9-17.3 8.1-5.4 17.2-8.1 26.6-10 3.9-.8 7.8-1.2 11.8-1.1 7.8.1 15.2 1.8 21.7 6.6 1.9 1.4 3.9 2.6 5.9 3.9 2.9 1.8 5.3 4 6.9 7.1.1.1.1.2.2.3 8 9 10.1 20.5 12.6 31.7 3.5 15.9 1.8 31.8-.3 47.7-.9 6.5-2 13-2 19.6-.1.5-.3 1-.5 1.5-.7 1.8-2.3 2.7-3.9 3.7-4.3 2.7-9.2 4.9-12.5 8.9-1.7 2-3.8 4-3 7.1-.8 14.2 7.5 23.3 18.1 30.7 9.3 6.4 19.3 11.5 30.5 14.1 10.1 2.4 19.1.6 26.9-5.7 11.9-9.5 21.6-21 29.1-34.3 1.3-2.4 2.6-4.8 4-7.1 1.2-2.2 1.5-4.2-.3-6.1-.2-.5-.1.1-.1-.3-.6-8.1-6.1-11.5-12.9-14-4.2-1.6-8.5-2.7-12.8-3.8-1.7-.5-3.3-1.1-4.4-2.5-3-23-1.6-45.6 8.5-66.9 6.4-13.4 15.5-25.1 27.7-33.9 6.3-4.6 13.5-6.6 21.3-6.7 5 0 9.9.3 14.9.3 2.8.1 5 1.3 7.1 2.9 8.6 6.8 16 14.7 21.1 24.6 9.5 18.3 15.5 37.8 19.1 58 2.3 13 3.3 26.1 2.9 39.2-.3 12.3-.5 24.5-1.5 36.8-.2.2-.3.4-.3.6-.3 1.1.7 2.7-.9 3.2-1.3.4-2.2-.8-3.1-1.7l-.8-.8c-.6-.5-1.3-1.5-2.2-.9-1 .7-.4 1.8 0 2.7.6 1.5 1.6 2.8 2.8 3.8 3.2 2.5 3.9 5.7 3 9.5-.6 6.6-2.3 12.9-3.4 19.4-1.7 9.8-3.7 19.5-6.2 29.1-.2.6-.1 1.2-.2 1.8-.2.3-.4.6-.6 1-.9 1.5-2.1 2.7-3.6 3.6-8.8 5.7-18.1 10.5-27.8 14.7-9.5 4-18.9 8.6-28.7 12.2Z" fill="#fff"/><path d="m175.6 33.6 2.7-.3c2.1.1 4.5-.1 5.1 2.7.6 2.9-2 3.4-3.7 4.3-6.4 3.5-13.6 5.4-20 8.9-8.5 4.6-16.7 9.7-24.5 15.4-3.2 2.3-6.4 4.6-9.5 7.1-9.3 7.5-17.7 15.8-24.7 25.5-12.2 16.7-23.1 34.3-32 53-7.1 14.8-12.6 30.1-16.8 46-2.5 9.6-4.6 19.3-7.8 28.7-.7 2.1-1.6 4.2-2.8 6.1-.7 1.1-1.5 1.3-2.1-.2-.1-4.1 1-8.1 1.6-12.1 1.4-9.9 2.8-19.8 5.1-29.6 3.6-15.1 9.4-29.5 15.2-43.8 6.4-15.9 16.2-29.8 26.1-43.6 3.2-4.5 7.2-8.5 10.9-12.7 2.2-2.5 4.7-4.7 6.8-7.4 2.5-3.3 6-5.6 9-8.2 4.7-4.1 9.7-8.1 14.9-11.7 9.7-6.7 19.8-12.6 30-18.6 4.4-2.6 8.5-5.5 12.8-8.3 1-.8 2.5-.4 3.7-1.2ZM273 31.2c.7 0 1.6-.5 2.1.1 3.5 3.8 8.6 4.8 13 6.9 8.6 4 16.9 8.2 24.9 13.2 10.6 6.6 20.6 14.1 30.2 22.2 8.5 7.2 16.2 15.3 23.4 23.8 8.3 9.8 15.5 20.3 21.9 31.3 6.8 11.8 12.5 24.2 16.1 37.5 2.3 8.5 4.7 17 6.3 25.6 1.5 8.1 2.7 16.3 3.4 24.6-.1.6 0 1.4-.6 1.6-.9.3-1.3-.4-1.6-1.2-1.6-4.1-3.5-8.2-4.6-12.6-3.2-12.6-6.3-25.2-10.4-37.6-4.9-14.6-10.9-28.7-18.1-42.3-4-7.6-9.1-14.4-14.3-21.2-3.9-5.1-8.1-10-12.8-14.4-8.5-8-17.3-15.5-26.6-22.6-7.3-5.6-14.6-11.1-22.5-15.7-6.7-4-13.5-7.8-20.3-11.7-2.9-1.7-5.7-3.5-8.3-5.6-.6-.3-1.1-1-1.2-1.9ZM11.1 350.4c-.7-1.5-1.6-2.8-3.6-2.6-1.2.1-1.4-.5-1.3-1.6 1.1-11.9 2.1-23.9 5-35.6 2.1-8.4 4.5-16.7 7.7-24.8C21 280.3 23 274.7 25 269c2-5.8 4.6-11.2 8.1-16.2 1.3-2 2.9-3.7 4.8-5.1 1.9 1.2 2.1 2.8 1.6 4.8-.9 3.7-3 6.8-5 9.9-8.8 13-13.9 27.3-16.6 42.6-1.2 6.7-2.6 13.4-3.5 20.1-1 7.5-1.7 15-2.5 22.5-.1 1-.1 2-.8 2.8ZM420.3 221.7c5.8 4.9 10.9 10.4 15.7 16.2 7.6 9.2 13.1 19.6 17.1 30.7 4.1 11.4 6.7 23.3 8.1 35.4.2 1.6.9 3.1.7 4.8l-.7.7c-1.2-2.6-1.1-5.5-1.7-8.3-2-9-4.8-17.7-8.5-26.1-6.7-15.2-14.9-29.6-23.8-43.6-1.9-3-3.9-6.1-6.8-8.3-.4-.4-.6-.9-.1-1.5Z" fill="#383838"/><path d="M200.9 296.1c.2-.4.4-.7.6-1.1 0 1.9.1 3.7.1 5.6.1 1.6.8 2.3 2.4 1.8.7-.2 1.4-.4 2.1-.7 10-3.5 20.3-5.2 30.7-6.4 6.4-.8 12.8-.4 19.2-.6 1.5-.1 3.1.2 3.7-1.7 5.2.5 10.5.9 15.3 3.3 3.5 1.8 3.9 4.2 1.3 6.7-1.8.3-3.6.3-5.4-.4-3.4-1.1-6.9-2.2-10.5-1.4a9.1 9.1 0 0 0-4.6-1.3c-18.1-.5-36 .6-53.3 6.9-2.7.3-5.1 1.8-7.9 1.8-.4-.1-.7-.3-.9-.7-.2-.6-.2-1.1 0-1.7.3-.4-.2-.1.2-.3 3.7-2.4 5.7-5.8 7-9.8Z" fill="#282828"/><path d="M276 302.1c1.5-2.1 1.5-2.7-.6-3.9-2.9-1.6-6.1-2.6-9.4-2.9-1.3-.1-2.7-.4-4-.4-1.4 0-1.8-1-2.3-2 0-1.9 0-3.8-.1-5.8 8.2 1.4 16.1 3.5 23.5 7.4 3.5 1.8 6.4 4.2 7.4 8.3.4 1.5-.4 3 .3 4.4-.4.5-.9 1-1.5.9-4.6-1.1-9.6-1.3-13.6-4.2-.2-.6-.2-1.2.3-1.8Z" fill="#D9D9D9"/><path d="M27.7 340.2c-.6 1.8-1.1 3.6-1.7 5.4-.3.9-.6 1.7-1.7 1.7-1 0-1.6-.5-2.1-1.3-.8-1.5-1.5-3.2-1.5-4.9-.1-3.1 0-6.2 0-9.3 0-1.4.5-2.7 1.2-3.8.7-1.1 1.6-1.9 3-1.8 1.5.1 2.5 1.1 2.9 2.5.3.9.3 1.9.5 2.8.7.7 1.2.1 1.7-.1 1.8-.6 3 .2 3.5 1.8.8 2.6 1.5 5.2 1.2 8-.1 1.4-.4 2.8-2.1 3.1-1.5.3-2.6-.4-3.5-1.6-.4-.7-.4-1.8-1.4-2.5ZM432.3 324c1.9-1.2 2-2.8 3-3.7.8-.7 1.6-1.3 2.6-.6.9.6.7 1.5.3 2.3-1.2 2.5-2.6 4.8-4.7 6.6-1.9 1.6-3.4 1.1-4.2-1.2 0-.1 0-.2-.1-.4-.5-1.4-.4-3.4-1.7-3.9-1.5-.6-2.2 1.5-3.4 2.3-1.7 1-3.3 1.7-5.2.6-2-1.2-2.4-3-2.2-5.1.1-1.2.5-2.3 2-2.1 1.7.3 2.5-.8 3.2-2 .9-1.4 2.2-2.3 3.8-2.7 2.5-.5 4.1.2 5 2.6.9 2.2 1.7 4.4 1.6 7.3ZM202.3 23.8c1.4-.8 2.4-2.1 3.3-3.4.9-1.4 1.7-2.7 2.7-4 2.5-3.5 4.2-3.9 7.7-1.6 1.7 1.1 3.3 2.5 5 3.8-1.4 3.5-3.9 6.2-6.8 8.4-3.9 2.9-9.7 1.1-11.9-3.2ZM383.5 179.5c-.3 1.6-.3 2.6-.6 3.6-.4 1.1-1.2 1.9-2.4 2-1.2.1-2.2-.4-2.8-1.5-.9-1.9-1.7-3.9-1.9-6-.4-2.9.2-3.9 3-5 1.2-.5 1.7-1.2 2.3-2.2 1.1-1.8 2.4-2 4-.6 2.6 2.2 4.3 5 5.2 8.3.4 1.7.4 3.3-1.2 4.3-1.7 1-3-.1-4.2-1.3-.4-.3-.7-.7-1.4-1.6ZM303.6 152.9c-.1 1.1 0 1.8-.2 2.5-.3 1.5-1.3 1.7-2.5 1.2-.7-.3-1.2-.9-1.7-1.4-3-2.9-4.6-6.4-5.2-10.4-.2-1.4-.4-3.1 1.4-3.9 1.6-.6 2.9 0 4 1.1 3.1 3.1 3.9 7 4.2 10.9ZM60.2 209.2c-.1-3.3.9-7 2.6-10.5 1-2 2.3-2.7 3.7-2.1 1.4.5 2 1.9 1.5 4.1-1 4.7-2.5 9.3-4.1 13.8-.3.7-.5 1.5-1.4 1.6-1.1.1-1.5-.8-1.8-1.5-.7-1.6-.4-3.2-.5-5.4ZM107.2 152.5c.1 3.4-.1 6.7-1.5 9.8-.4.8-.6 1.7-1.7 1.7-1 0-1.5-.8-1.9-1.6-.5-1.1-.9-2.3-1-3.5-.2-4.1-.1-8.1.7-12.1.3-1.4.9-2.3 2.4-2.3s2.4.9 2.5 2.2c.4 1.8.4 3.8.5 5.8ZM205.2 74c-.1 4-1.8 7.6-2.5 11.5-.3 1.6-2.4 1.9-3.6.6-.9-.9-1.2-2.1-1.3-3.4-.2-3.8.5-7.4 1.7-10.9.2-.7.6-1.4 1.1-1.9.7-.8 1.7-.9 2.7-.7 1.1.2 1.7 1 1.8 2.1.2 1 .1 1.8.1 2.7ZM139.1 96.6c.1-1.8-.1-3.5.4-5.2.8-2.6 2.1-3.7 4.1-3.5 2 .2 3 1.6 2.9 4.4 0 3.7-1.5 7-2.5 10.4-.6 1.9-2.9 1.8-4.1 0-1.2-1.9-.7-4.1-.8-6.1ZM49 377.7c-.1 1.5-.5 2.8-1.8 3.5-1.1.6-2.2 0-3.1-.7-2.4-2-4.2-4.5-5.5-7.3-.9-1.8.1-3.1 1.4-4.2 1.3-1 2.8-1 4.1 0 2.9 2.2 4.1 5.4 4.9 8.7Z" fill="#383838"/><path d="M224.1 292.4c-3-.1-5.4-2.7-5.3-5.9 0-3 2.3-5.3 5-5.2 2.7.1 5 2.9 5.1 6.2 0 3-1.9 4.9-4.8 4.9Z" fill="#282828"/><path d="M130.8 148c0 1 .1 2 0 3-.1 1.5-1 2.5-2.5 2.9-1.5.3-2.7-.1-3.6-1.3-1.9-2.3-1.8-8.3.1-10.5 1.5-1.7 3.3-1.7 4.7 0 1.5 1.7 1.4 3.8 1.3 5.9Z" fill="#383838"/><path d="M379.5 357.9c0-.9-.2-1.7-.1-2.6.1-1.6-.4-2.8-1.8-3.7-1.4-1-2.6-2.3-3.8-3.5a9.63 9.63 0 0 1-2.3-4.2c-.4-1.6-.8-3.3 1-4.3 1.6-.9 2.8.3 3.8 1.4 1.1 1.1 2.1 2.3 3.2 3.5 1.1-.9.4-2.3 1.4-3.1 0 5.6-.3 11.1-1.4 16.5Z" fill="#D8D8D8"/><path d="M236.6 284.8c0-1-.1-2 0-2.9.1-1.3.9-2.3 2.2-2.7 1.4-.4 2.7-.1 3.7 1 1.6 1.7 2.1 7.9.9 9.9-.8 1.3-2.1 1.6-3.5 1.5-1.4-.1-2.3-.8-2.8-2-.7-1.6-.5-3.2-.5-4.8Z" fill="#282828"/><path d="M257.3 175.6c.1 3.2-1.5 4.3-4.1 3.1-2.9-1.4-5.6-7.5-4.6-10.5.7-2.1 2.5-2.7 4.3-1.2 2.8 2.4 3.5 5.8 4.4 8.6ZM410.6 356.6c.5-2.6.6-5.5 2.7-7.7.8-.8 1.6-1.6 2.9-1.1 1.1.5 1.7 1.4 1.8 2.6.2 3.2-.6 6.1-2 8.9-.5 1.1-1.5 2.2-2.9 2-1.6-.2-2-1.7-2.3-3-.1-.5-.1-1-.2-1.7ZM446.3 317.9c.2 2.7.1 5.5-1.1 8-.4.9-.9 1.9-2.1 1.8-1.4-.1-1.7-1.4-1.8-2.5-.2-3.8-.4-7.7.8-11.4.2-.5.3-.9.6-1.4.4-.8 1-1.4 2-1.3 1 .2 1.5.9 1.5 1.8.1 1.8.1 3.4.1 5ZM401 359.2c-.2-2.1.7-4 2-5.7 1-1.2 2.4-1.9 4-1.3 1.6.6 1.5 2.1 1.4 3.4-.2 2.8-1.4 5.2-3 7.4-1.3 1.9-2.8 1.6-3.9-.5-.5-1-.5-2.1-.5-3.3ZM232.8 229.2c0 .6.1 1.2 0 1.9-.3 1.7-1.2 2-2.6 1-1.6-1.3-2.4-3.1-3.1-5-.6-1.5-1.1-3-1.5-4.6-.4-1.5.3-2.7 1.7-3.3 1.3-.6 2.5.1 3.2 1.2 1.8 2.6 2.3 5.6 2.3 8.8ZM115.3 150.4c0-1.5-.2-3 .8-4.2.9-1.1 1.9-2.1 3.4-1.7 1.5.4 2.2 1.7 2.2 3 0 2.3-.4 4.6-.7 6.9-.1.9-.9 1.5-1.8 1.6-1.2.2-2.2-.1-2.9-1.1-1-1.3-1.1-2.9-1-4.5ZM189.7 167.1c0-1.4.2-2.3.6-3.1.5-1.1 1.3-1.8 2.6-1.7 1.1.1 1.7.8 2.1 1.8.2.5.4.9.4 1.4.3 2.4.7 4.9.9 7.3.1 1-.2 2-1.3 2.4-1 .3-1.7-.2-2.3-.9-1.7-2.2-2.7-4.9-3-7.2ZM211.2 78.9c0-2.6.3-4.7 1.8-6.6.5-.6 1-1.2 1.9-.9.8.2 1.2.9 1.4 1.6.2.8.1 1.7.2 2.6.1 1-.2 2 .6 2.8 1.5 1.5.7 3-.1 4.4-.7 1.2-2 1.5-3.3 1.1-1.7-.5-2.1-1.9-2.4-3.4-.1-.7 0-1.3-.1-1.6ZM409.7 273.1c.1 1.7-1 2.6-2.5 2-3.1-1.4-5.7-3.4-6.9-6.8-.5-1.4 0-2.7 1.3-3.6 1.1-.7 2.2-.1 3 .6 2.6 2.2 4.1 5 5.1 7.8ZM198.7 164.4c0-1.7.6-2.7 1.8-3.3 1.4-.6 2.7-.2 3.7.9 1.6 1.8 2.2 4.2 2.3 6.5.1 2-2.4 3.2-4.1 2.1-2.3-1.5-3.3-3.9-3.7-6.2ZM49.1 373.3c0-3.4 1-5.5 2.4-5.5 2.3 0 2.7 1.9 3.2 3.5.5 1.7.8 3.4 1.1 5.1.1 1 0 2-1 2.6-1.2.6-2.2.1-3.1-.7-1.8-1.6-2.6-3.6-2.6-5ZM313.2 144.1c-.1 1.7-.1 2.9-1.2 3.5-1.3.7-2.6.4-3.8-.5a5.97 5.97 0 0 1-2.4-5.8c.3-2.7 2.4-3.8 4.6-2.2 1.9 1.3 2.9 3.3 2.8 5ZM223.8 268c-.2.8-.4 1.8-.8 2.6-.7 1.6-2.1 2-3.6 1.1-2.2-1.3-3.6-5-2.8-7.4.6-1.8 2.5-2.5 4.2-1.7 2.2 1 2.6 3.1 3 5.4ZM226.9 128.2c-.1 1.1.1 2.4-1.1 2.9-1.4.5-2.4-.4-3.1-1.5-1.4-2.3-2.5-4.8-2.4-7.7 0-1.1.2-2.3 1.5-2.7 1.1-.3 1.8.5 2.5 1.3 1.2 1.7 2.6 5.7 2.6 7.7ZM225.5 74.2c-.1 1.1-.1 2.2-.3 3.3-.2.9-.2 2.2-1.5 2.3-.9.1-1.6-.8-2-1.5-1.3-2.5-2.4-5.2-2.1-8.1.2-2.3 2.1-3.1 4-1.7 1.9 1.4 1.9 3.6 1.9 5.7ZM341.5 106.4c0 .9 0 1.4-.1 1.8-.3 1.6-1.3 2.1-2.6.9-2.5-2.5-4-5.6-4.7-9-.2-.8.1-1.7 1-2.2 1.1-.6 1.9-.1 2.6.7 2.1 2.3 3.5 5 3.8 7.8ZM157.6 93.8c-.4 1.5-1 3.6-1.6 5.8-.2.8-.8 1.3-1.6 1.3-.7 0-1.2-.5-1.4-1.1-.8-2.3-1.6-4.7-1.1-7.2.4-2.3 2-3.8 3.6-3.5 1.6.2 2.3 1.6 2.1 4.7ZM243.2 33.3c-.7 2.9-1.5 6-3.3 8.7-.6 1-1.5.9-1.9-.3-1.4-3.6-.8-7.1.6-10.5.5-1.1 1.5-1.7 2.8-1.3 1.4.5 1.7 1.8 1.8 3.4ZM324.3 99.1c.8 0 1.5.3 2 .8 2 1.8 3.1 4.2 3.8 6.7.5 1.6-.7 2.5-2.4 2.3-2.8-.4-6.1-5.2-5.4-7.9.2-1.2.8-1.9 2-1.9ZM321.3 146v1.3c-.1.8-.3 1.5-1.1 1.8-.8.3-1.4-.2-1.9-.8-1.9-2.2-2.9-4.9-4-7.4-.5-1.1.2-1.9 1.3-2.2 1.4-.4 2.6.1 3.7 1.1 1.6 1.5 2.2 3.4 2 6.2Z" fill="#383838"/><path d="M252 39.2c.6-.9.8-1.4 1.2-1.7.5-.5 1.2-.9 2-.4.7.5.8 1.2.7 2-.3 1.5-1 2.8-1.8 4-1.5 2.2-2.1 2.1-3.4-.3-.5-.9-1.3-1.1-1.9-1.6a3.67 3.67 0 0 1-.2-5.5c.9-.8 1.9-.8 2.5.2.2.7.3 1.6.9 3.3Z" fill="#393939"/><path d="M76.1 206.3c-.1 1.4-.6 2.7-1.3 3.9-.6 1-1.4 1.8-2.7 1.6-1.2-.2-2-.9-2.5-2-1-2.1.2-5.7 2.3-6.8.9-.5 1.9-.7 2.8-.2 1.4.8 1.1 2.3 1.4 3.5ZM272.7 73.6c-2.1-.1-5.9-3.6-6.2-5.8-.2-1.7 1.3-3.1 3-2.8 2.1.4 5.7 4.6 5.9 6.8.1 1.1-1 1.9-2.7 1.8ZM260.6 67.2c.8 0 1.2.3 1.6.6 2 2.3 3 5.1 3.9 7.9.4 1.5-1 2.5-2.5 2.1-2.9-.7-5.6-7-4-9.7.1-.4.5-.9 1-.9ZM206 42.3c.1-1-.1-2.1 1-2.6s2.2-.2 3 .7c1.4 1.7 2.5 3.7 3 5.9.2.9.1 1.7-.7 2.3-.8.5-1.7.5-2.5 0-2-1.5-3.7-3.4-3.8-6.3ZM269.5 169c-.1 1.2-.5 1.8-1.5 2-2 .3-3.6-.6-4.9-2.1-1.1-1.4-1.6-3.1-.7-4.8.5-.9 1.1-1.7 2.2-1.7 1.1-.1 1.9.5 2.4 1.5.9 1.6 1.7 3.4 2.5 5.1ZM369.7 174.9c1.6.1 2.3 1.1 2.7 2.3.4 1.5.7 3.1.8 4.7.2 1.9-1.4 2.9-3.1 2.1-1.7-.8-3.6-4.8-3.1-6.7.3-1.4 1.2-2.3 2.7-2.4Z" fill="#383838"/><path d="M267.1 18.6c.5.7 1 1.5 1.5 2.2l-4.5 3c-3.5-.6-7.3.1-10.4-2.2 4.2-2 8.9-2.3 13.4-3Z" fill="#393838"/><path d="M287.1 73.5c0 .2.3 1.3-.6 1.7-1.1.5-1.9-.2-2.6-.9a12.2 12.2 0 0 1-3-5c-.4-1.5-.3-2.8 1.2-3.5 1.3-.6 2.4.2 3.1 1.2 1.2 1.8 2.1 3.7 1.9 6.5ZM42.2 338.5c-.9 1.3.3 4.1-1.4 4.4-1.8.3-2.5-2.3-3.3-3.8-.5-1-.8-2.1-1.2-3.1-.5-1.2-.8-2.5.8-3.1 1.4-.6 2.7-.4 3.6.9.8 1.4 1.3 2.9 1.5 4.7Z" fill="#383838"/><path d="M239.5 16.3c3.1-3.2 7.1-5.1 11.4-7.4.3 2.3-.9 3.9-.9 5.7-.1 1.9.3 3.7.8 5.5-2.3-.1-3.3-2-4-3.7-.8-1.9-1.8-2.1-3.4-1.4-1.3.5-2.6.9-3.9 1.3Z" fill="#3A3938"/><path d="M238 264.2c0 1.4-.4 2.6-1.7 3.1-1.2.5-2.2-.2-2.9-1.1-1-1.1-1.6-2.5-1.9-4-.2-1.2.4-2.2 1.4-2.8 1.2-.7 2.1-.2 3 .6 1.1 1.2 2 2.6 2.1 4.2ZM227.4 260.6c.6.1 1.2.4 1.6.9 1.3 1.5 2 3.4 2.2 5.4.2 1.7-1.3 2.7-2.9 2.2-2.2-.7-4-5.2-2.9-7.1.5-.9 1-1.4 2-1.4Z" fill="#383838"/><path d="M232.7 118.7c.9-.1 4.5 2.8 4.5 3.7-.1 1.5-1.3 3.1-2.6 3.2-1.3.2-3.1-1.2-3.7-2.7-.6-1.5-.1-3.3 1.1-4 .2-.1.4-.1.7-.2Z" fill="#393939"/><path d="M419.2 269.2c-1.7-.5-3.6-.9-5-2.1-.9-.8-1.6-1.7-.9-2.9.6-1 1.7-.8 2.7-.6 1.9.5 3.2 1.9 4.6 3.1.6.5 1.1 1.2.7 1.9-.5.8-1.3.6-2.1.6ZM246.8 120.8c0 1.2-.3 2-1.2 2.3-.9.4-1.7-.1-2.3-.7-1.3-1.4-1.7-3.2-2.2-5-.2-.6 0-1.3.5-1.7.7-.5 1.4-.4 2.1 0 1.9 1.3 2.6 3.3 3.1 5.1Z" fill="#383838"/><path d="M138.2 149.8a2 2 0 0 1-1.2-.8c-.9-1.3-1.2-2.7-.4-4.2.6-1.1 1.1-2.3 2.6-2.3 1.1 0 2.1 2 2 3.6-.1 1.8-1.8 3.9-3 3.7ZM81.8 207.7c-.2 1.3-.1 3-1.8 3.2-1.7.3-2-1.4-2.5-2.7 0-.1-.1-.2-.1-.4-.1-1.4-.5-3 .7-4.2.5-.5 1.1-.6 1.7-.2 1.6 1.1 1.9 2.6 2 4.3Z" fill="#393939"/><path d="M235.9 221.5c0-.1.1-.8.3-1.5.3-.7.9-1.2 1.8-1 1.8.4 1.6 2.3 2.3 3.5.5.9.6 1.9-.2 2.7-1.1 1-2.1 1-3.2 0-1-.8-1.1-1.9-1-3.7ZM200.1 45.7c1.3.2 3.7 3.9 3.4 5.3-.2.7-.7 1-1.4.9-2.3-.1-4.4-3.6-3.2-5.6.2-.5.7-.7 1.2-.6Z" fill="#383838"/><path d="M191.9 30.5c-.3-2-2-3.7-1.7-5.9 1.7-.5 3.1.5 4.7.7.8 3 .4 3.6-3 5.2Z" fill="#3A3939"/><path d="M244 263.4c-.1.9-.1 1.9-1.5 1.9-1.6 0-2.9-1.5-2.9-3.2 0-1.2.2-2.3 1.7-2.3s2.6 1.6 2.7 3.6Z" fill="#383838"/><path d="M238 17.1c.4-.4.9-.7 1.5-.8-.4.5-.9.7-1.5.8ZM237.3 17.8c.3-.2.5-.5.8-.7-.3.2-.6.5-.8.7Z" fill="#3A3938"/><path d="M308.7 450c2.4-2.2 5.6-2.5 8.4-3.5 12.1-4.4 23.9-9.6 35.4-15.4 14.9-7.5 29.2-16.2 42.8-25.9.3-.2.6-.4.9-.7 3.1-2.5 3.1-2.5 5.5.9-1.4 1.8-.5 3.6.4 5.2 2.9 4.6 5.8 9.4 7.7 14.4 2.6 6.8 8.6 10.7 12.1 16.6 7.9 13.4 17.9 25.6 25.1 39.4 7.4 14.3 14.6 28.8 16.9 44.9 1.5 10.8.4 21.5-3.7 31.7-1.1 2.8-2.1 5.6-3 8.4-.5 1.6-1.3 2.9-2.7 3.8-4.5 1.7-8.9.4-13.1-1.1-8.6-3.1-16.1-7.9-21.9-15.3-5.5-7.2-11.3-14-16.7-21.3-1.8-2.5-3.6-5.1-5-7.8-4.2-8.3-8.7-16.5-12-25.1-.5-1.3-1-2.5-1.9-3.5-1.3.4-.9 1.5-.9 2.2-.5 10.7 2.6 20.6 6.6 30.2 5.3 12.8 13.3 24 21.8 34.8 2.1 2.7 4.6 5.2 7.5 7.2 1.9 1.3 2.8 2.9 2.8 5.3-.2 7.6.7 15 1.3 22.6.4 4.7.4 9.4-.4 14.1-.7 4.1-.2 8.4-.9 12.6-1.8 11.1-4.4 21.8-10.3 31.6-3.4 5.6-6.1 11.6-9.8 17.1-5.7 8.4-12.3 16-20 22.8-7.1 6.4-14.4 12.5-22.4 17.7-11.1 7.1-22.9 12.7-35.3 17.4-9.5 3.6-19.4 6.2-29.5 7.4-6.6.8-13.2 1.7-19.9 1.8-6.8.2-13.6.9-20.4.7-8-.2-16-.8-24-2.2-10-1.8-20-3.5-29.7-6.6-7.8-2.4-15.4-5.5-22.9-8.7-14-6-26.4-14.7-39.1-22.9-11.8-7.6-21.5-17.4-30-28.5-4.9-6.4-9.9-12.7-14.8-19.1-1.2-1.6-2.3-3.2-2.9-5.2-1.7-6.5-3.3-12.9-3.3-19.7v-13c0-4.5 1.2-8.1 4.4-11.7 8.2-9.1 15.7-18.8 21.5-29.7 6.2-11.8 11.3-24 14.4-36.9.8-3.2 1.3-6.5 1.3-9.9 0-.7 0-1.5-.2-2.2-.2-1.1-.9-1.5-1.9-.7-1.2.9-2 2.1-2.9 3.4-4.3 6.3-7.2 13.3-9.9 20.3-3.9 10.2-8.5 20.1-14.5 29.2-3.8 5.8-8.2 11.2-12.5 16.6-7.2 9-16.9 14.4-27 19.2-.3.2-.7.2-1.1.3-.5-.1-1.1-.2-1.3-.6-4.8-6.5-12.6-9.6-17.7-15.7-5.1-6.2-8-13.5-8.5-21.4-1.2-19 1.2-37.6 8.6-55.3 6.2-14.8 13.7-28.8 22.6-42.2 7.3-11.1 15.2-21.7 23.7-31.8 3.2-3.8 3.6-3.6 6.8-.1 3.2 3.5 7 6.4 11.6 7.7 11.1 3.3 22.3 6.5 33.7 9.1 6.1 1.4 12.6 1.6 18-3 6.6 1.4 13.4 2 20.1 2.9 2 .3 3.7.7 3.8 3.1 3 3.1.5 6-.2 9-1.2 5.6-4 10.6-5.4 16.2-3 12-5.5 24.1-5.5 36.6 0 5.2-.7 10.4-.7 15.6-.3 23.4 5.3 45.4 16 66.1 7.5 14.4 18.7 25.3 32.6 33.7 16.9 10.3 34.6 12.5 53.5 7.9 11.8-2.9 23.5-6.2 33.8-12.9 9.5-6.2 18.5-12.9 24.7-22.7 4.9-7.8 7.2-16.5 8.8-25.5 2.3-12.9 1.9-25.9.9-38.9-1.3-16.6-4.6-32.8-10.1-48.6-4.4-12.5-9.8-24.6-15.3-36.7-1.6-3.5-3.2-7-4.7-10.5-.1-1.8-1.8-3.3-.1-5.2Z" fill="#434343"/><path d="M156.9 459.8c0 1.4-.5 2.3-1.7 3.1-1.6 1.1-3.2 1.9-5.1 2-6.1.2-12.1.3-18-1.8-7.2-2.7-14.7-4.3-22.2-6.1-6.5-1.5-11.8-4.9-17-8.9-1.3-1-1.4-2.5-1.8-3.9-1.2-.1-1.5.8-2 1.5-3.6 4.8-7.6 9.5-11.4 14.1-2.4 2.9-4.5 6.2-6.7 9.4-9.2 13.4-17.7 27.2-24.7 41.9-5 10.6-9 21.5-11.1 33-1.8 10-2.5 20.2-1.7 30.3.8 10.5 5.1 19.6 13.5 26.4 3 2.4 6.6 4 9.1 7 1.4 1.6 2.8 3.1 3.4 5.3-5.7 3.2-11.8 4.9-18.5 4.4-1.3-.1-2.4-.7-3.4-1.4-5.4-3.6-9.4-8.4-11.6-14.6-1.9-5.3-3.2-10.7-3-16.3.1-3.2-1-6.3-.7-9.6.5-4.7.9-9.3 1.6-14 1.2-8.9 2.9-17.8 4.7-26.6 1.2-6.1 3.1-12 5.4-17.7 2.3-5.6 4.6-11.2 6.6-16.9 1.5-4.2 3.9-7.8 6.9-10.9 4.2-4.3 7.7-9 11.7-13.4.9-1 2-2.1 2.2-3.4.9-4 3.4-6.8 6-9.7 5-5.6 9.6-11.6 15.1-16.8.4-.4.8-1 1.4-1.2 2.2-1.2 2.8-3 2.4-5.3-.1-.3-.1-.5.2-.6 9.1 3.5 18.2 7.1 27.5 10.1 13.6 4.3 27.3 8 41.2 10.6h1.7ZM454.6 569.9c1-4.5 2.6-8.8 4.2-13.1 5.8-15.6 5.5-31.3-.6-46.7-3-7.5-6.1-14.9-9.3-22.2-2.3-5.3-5.4-10.3-8.5-15.2-6.7-10.4-13.6-20.7-20.4-31-2.1-3.1-4.2-6.1-6.5-9-3.8-4.9-6.9-10.2-9.7-15.8-1.2-2.4-2.7-4.7-4-7.1-1.5-2.7-1.1-3.4 2.1-4.3 3.6 4.5 7.2 9 10.9 13.5 1.8 2.2 2.4 4.2 1 7-1.8 3.4-.3 6.2 3.4 7.5 3.1 1.1 6.3 1.2 9.5.9l1.1.3.9.6c.3.2.5.5.8.7.1.2.1.5.2.7l-2.5-.3c-.6 1.2.3 1.7.9 2.3 7.2 6.5 12 14.7 16.8 23 2.9 4.9 5.7 9.9 8.9 14.6 4.9 7.2 8.1 15.3 11.3 23.3 4.4 11 6.9 22.5 8.7 34.1.9 6.2 1.3 12.6 1 18.9-.1 2-.8 3.6-1.8 5.2-4.4 6.8-10.7 10.6-18.4 12.1Z" fill="#383838"/><path d="M103.3 692.1h.8c2.2.7 3.7 2.3 5.1 4.1 5.4 7.1 10.5 14.4 17.8 19.8 3.4 2.5 7 4.2 11.2 4.3 1.6 0 3.7-.4 3.8 2.3-.3.2-.5.5-.7.9a78.82 78.82 0 0 1-21 21.3c-2.2 1.5-4.6 2.4-7.4 1.7-4.4-1-6.5-4.1-5.6-8.5.1-.2.1-.5.2-.7 1-3.9.6-4.6-3.4-5.4-1.2-.3-2.5-.2-3.7 0-2.1.4-4.2.7-6.2 1.1-2.6.5-4.9 0-6.6-2.3-1.6-2.2-.6-4.3.5-6.2 1.3-2.3 2.5-4.5 4.1-6.6 1.4-1.8 1.3-2.2-.3-3.6-1.3-1.1-2.7-1.7-4.3-2.1-3.3-.9-6.7-1.7-10.1-2.6-3.9-1.1-4.6-3.3-2-6.5.6-.8 1.3-1.5 2.1-2.1 6.6-4.2 13.5-7.8 21.6-8.1 1.5-.9 2.9-.3 4.1-.8ZM397.3 706.7c7.2 4.2 13.2 9.5 17.1 17 .5 1 1 2 1.4 3.1 1.6 4.3.9 6.1-3.5 7.7-2.2.8-4.2 1.9-6.8 1.6-2.3-.3-3.8 1.7-3.7 4.5.1 2 .6 3.9 1 5.8 1.3 6.5 1.4 6.6-4.9 8.7-4.9 1.6-9.5 1.1-13.6-2.3-.9-.8-1.8-1.7-2.8-2.4-3.7-2.6-7.1-1.5-8.3 2.8-.7 2.5-.9 5.1-1.4 7.7-.7 3.7-1.6 4.2-5.1 2.7-3.3-1.4-5.8-3.9-7.8-6.7-3-4.3-5.5-8.8-7.4-13.7 1.4-2.3 3.9-2.4 6.1-3 9.4-2.7 17.9-7.1 26-12.4 5.4-3.5 8-8.9 9.7-14.8.4-1.5.8-3.1 1.5-4.6.6-.9 1-2 2.5-1.7Z" fill="#FDBD3C"/><path d="M397.3 706.7c-1.2 2.2-1.7 4.6-2.3 7-1.9 7.1-5.5 12.8-12 16.7-8.9 5.5-18.2 9.9-28.4 12.5-1 .2-2 .3-2.9.4-1.5-2-3.3-4.3-3.2-6.5.2-2.7 3.7-2.7 5.7-3.8 13.9-7.3 26.9-15.8 38.6-26.4 2-1.9 2-1.8 4.5.1ZM142.1 722.4c-.8-.7-1.8-.8-2.8-.7-6.9.5-12.1-3-16.8-7.4-7.2-6.6-12.6-14.6-18.3-22.3 2.5-1 4.3-.1 6.1 1.9 5.5 6.2 12 11.4 18.8 16l12.9 8.7c2 1.5 2 1.5.1 3.8ZM103.3 692.1c-1.2.8-2.5.7-3.8.5 1.2-.7 2.5-.7 3.8-.5ZM141.4 723.3c.2-.3.4-.6.7-.9-.1.5-.3.7-.7.9Z" fill="#E6A625"/><path d="M308.7 450c.1 1.6 1.4 2.8 1.7 4.4-1.2 2.3-3.5 2.6-5.6 3.3-9.6 3.3-19.5 5.3-29.6 6.8-12.8 2-25.5 5-38.2 7.5-11.3 2.2-22.7 3.1-34.2 3.5-6 .2-12.1-.4-18.1.6-1.9.3-4 .6-5.4-1.5.3-3 1.7-5.7 1.5-8.8.3-1.8 1.2-2.5 3.3-2.4 7.2.6 14.3 1.3 21.5 1.3 15.6.1 31.1-1.1 46.6-3.1 18.1-2.4 35.8-6.4 53.3-11.5 1-.2 2.1-.7 3.2-.1Z" fill="#D9D9D9"/><path d="M308.8 439.8c1.9-1.9 4.6-2.2 6.9-3.4 1.7-.9 3.6-1.6 5.4-2.4 8-4 15.9-7.9 24.2-11.1 6.9-2.7 13.1-6.9 19.2-11.1 1.4-1 2.7-2.2 4.5-2.6.5 1.8.1 3-1.6 4-17.9 10.5-36.3 19.7-56 26.2-.9.2-1.7.5-2.6.4Z" fill="#D7D7D7"/><path d="m461.2 309.5.7-.7-.7.7Z" fill="#434343"/><path d="M276 303.5c4.5 1 9.2 1.4 13.4 3.7.4.2.9 0 1.4 0 2.6 1.6 3.1 2.6 1.7 5.4-3.3 6.5-6.5 13.1-11 18.9-4.4 5.7-8.9 11.3-13.8 16.5-3.6 3.9-7.6 7.4-12.1 10.3-8.2 5.4-16.9 6.6-26.3 4.2-14.1-3.5-26.5-10.3-37.5-19.7-5.3-4.5-8.7-10.4-11.4-16.8-.5-1.2-.7-2.4-.5-3.6.2-1.7.8-3.3-.6-4.8-.4-.4.3-1.1.5-1.7 3.3-5.5 9.2-8.7 14.2-7.8 2.7-.6 5.4-1.7 8.1-2.3 12.6-3.8 25.4-6 38.5-6.1 6.6-.1 13.3-1 19.9.9 2.6-.3 5.1.3 7.6.5 2.7 1.2 5.5 1.1 7.9 2.4ZM185.1 256.1c.6 3.8 1.2 7.6.9 11.4-.3 4-1.5 7.8-3.8 11.1-2.6 3.7-6.1 5.8-10.8 5.3-4.7-.6-7.6-3.6-9-7.9-1.5-4.6-3-9.2-2.5-14.2.1-.7-.1-1.5-.2-2.2-.8-.8-1.9-.3-2.8-.4-2.4-.4-3.7-2-3.9-4.3-.2-2.3 1.2-3.5 3.3-3.7 2.4-.3 2.3-1.1 1.2-2.8-1-1.5-1.3-3.3-.1-4.8 1.2-1.6 3-1.6 4.7-1 1.4.5 2.6.1 3.9-.5 9.6-4 18.6 1.8 18.8 12.2.1.6 0 1.2.3 1.8ZM299.9 241.9c4-.6 4.3-.4 4.4 3-.5.3-.3 1.1-.9 1.4-1.5 3.8 1.6 3.8 3.8 4.6 1.7 2.1.2 3.7-1.3 4.6-2.3 1.5-2.7 3.4-2.8 5.9-.2 5.7-2.2 10.8-5.8 15.3-5.3 6.4-14.2 5.7-18.5-1.5-1.9-3.2-2.3-6.7-2.1-10.4.1-.9.1-1.7.2-2.6.7-5.8 1.1-11.5 6-15.8 3-2.6 6.1-4.2 10.1-3.8 2.3.2 4.6-.1 6.9-.7Z" fill="#282828"/><path d="M185.1 256.1c-.7-1.8-1.3-3.7-2.1-5.5-1.1-2.7-2.8-4.9-5.2-6.6-3.9-2.6-8.2-2.7-12.1.2-1.5 1.1-2.7 1.5-4.1 0-.2-.3-.6-.4-1-.6-1-.5-2-.4-2.7.4-.7.9-.5 1.9.1 2.7.3.4.7.7 1 1.1 2.2 2.3 2.2 2.3.7 5.6-1 .1-1.7-.8-2.7-1-1.2-.3-2.3 0-2.9 1-.6 1.1-.2 2.1.6 3 1.3 1.5 3.6 1.6 4.9 3l-1.8.3c-3.9.8-6.4-1-6.9-5-.8-6.4 2-11.3 6.5-15.4 2.7-2.4 5.9-4 9.5-4.8 7.9-1.7 16.8 3.6 18.7 11.4.5 2.1.4 4.2 0 6.3-.1 1.5-.3 2.7-.5 3.9ZM358.6 276.2c-.1 2.3.2 3.8-.3 5.2-.6 1.9-1.7 2.4-3.3 1.2-1.1-.9-1.8-.9-2.8 0-.9.9-1.8.5-2.6-.3-3.4-3.5-2.9-10.1 1-13 .6-.5 1-1 1.4-1.7.7-1.1 1.7-2 3-1.6 1.4.4 2.3 1.5 2.5 2.9.5 2.8 1.4 5.4 1.1 7.3ZM194.1 308.7c-5.3 1.3-9.9 4.1-14.1 7.4.1-5.5 3.5-9.1 7.7-11.9 4.3-2.9 8.8-5.4 13.2-8.1 0 2.4.7 5.3-.7 7.1-1.3 1.7-3.9 2.4-5.9 3.5-.8.3-.5.8-.1 1.3.3.2.3.4.2.5-.1.1-.2.2-.3.2Z" fill="#D9D9D9"/><path d="M105.5 289.6c.3 3-.2 6-.7 8.9-.1.7-.2 1.6-1.1 1.7-.8.2-1.4-.4-1.9-1-1.4-1.8-2.1-4-2.5-6.1-.7-3.3-1.3-6.6-1.2-9.9 0-.6 0-1.2.1-1.8.4-2.1 1.5-3.1 3.1-3.1 1.8 0 2.7 1.1 3.2 2.6 1 2.8 1.3 5.8 1 8.7Z" fill="#DADADA"/><path d="M299.9 241.9c-.6.6-1.3 1.1-1.8 1.8-.8 1-1.6 1.2-2.9.9-6.1-1.3-10.5.6-13.8 5.9-2.2 3.6-3.5 7.6-4.6 11.6-.1-1.9-.1-3.7-.2-5.6-.1-12.4 12.2-20.2 23.3-14.6Z" fill="#D8D8D8"/><path d="M157 399.4c-.1 1 0 1.6-.1 2.2-.3 1.7-1.5 2.2-3 1.5-1.3-.6-2.2-1.6-2.8-2.9-1.5-3.2-2.4-6.5-2.4-10 0-1.3.2-2.5 1.7-3 1.3-.4 2.1.5 2.8 1.4 2.2 3.5 3.4 7.2 3.8 10.8ZM112 279.8c1.5 0 2.1.7 2.6 1.6.7 1.5 1.1 3 1.5 4.6.5 2.4.8 4.8 2.1 7.1 1 1.7-.3 3.2-2.2 2.9-1.5-.2-2.5-1.1-3.2-2.3-2-3.5-2.9-7.4-2.6-11.4 0-1.4.6-2.3 1.8-2.5Z" fill="#DADADA"/><path d="M129.4 290.1c0 2.4-.5 3.6-1.9 4.2-1.3.6-2.4 0-3.4-.8-2.6-2.2-4.1-7.3-3-10.1 1-2.4 3.7-3 5.2-.9 1.9 2.5 1.7 5.8 3.1 7.6Z" fill="#D9D9D9"/><path d="M310.2 384.3c-.1 2.3-1.3 3.1-3.4 2-2.4-1.2-5.8-7.8-5.5-10.5.1-1.1.6-1.9 1.6-2.3 1.2-.5 2.2 0 3 .8 1.9 1.5 4.4 7.5 4.3 10ZM369.4 348.8c-.2 1.4-.2 3.1-2.2 3.7-1.7.5-3-.3-3.9-2.5-.9-2.1-1.2-4.3-1.1-6.5.1-1.2.4-2.2 1.7-2.6 1.4-.4 2.3.1 3.2 1.2 1.7 1.9 1.9 4.2 2.3 6.7ZM325.1 371.1c.2-2.4 1.4-3.1 3.4-1.7 2.6 1.8 4.3 4.4 6.1 6.9.4.6.6 1.4.1 2.1-.7.9-1.6 1.1-2.6 1-3.8-.4-7.3-4.5-7-8.3ZM110 375.7c.1-.8 0-1.5.1-2.1.4-1.6 1.9-2.1 3-.9.4.4.8 1 .9 1.5l2.7 11.1c.2.7.5 1.5-.3 2-.9.5-1.7-.1-2.3-.7-.4-.3-.7-.7-.9-1.1-1.7-3.1-3-6.4-3.2-9.8ZM172.6 392.1c0-2.4 1.1-4.4 2.4-4.6 1.3-.2 2.5 1.6 2.7 4.3.1 1.9.6 3.7.9 5.5.2 1.1.6 2.3-.8 2.8-1.2.4-2.2-.1-2.9-1.1-1.5-2.1-2.4-4.4-2.3-6.9ZM315.9 382.3c-3.6-.4-6.3-5.3-4.8-8.6.6-1.3 2-1.8 3.1-.7 2.1 2 3.7 4.4 4.6 7.1.6 1.4-.9 2.5-2.9 2.2Z" fill="#DADADA"/><path d="M133.2 379c-1.2-.5-1.5-1.4-2-2.1-1-1.3-2.1-2-3.8-1.7-1.1.3-2.2 0-3.2-.5-1.9-1-2.5-3.2-1.4-5 .9-1.4 2.2-1.6 2.9-.2.9 1.9 2.5 2.4 4.2 3.1 2.2 1 2.9 2.5 3.3 6.4ZM165.9 393.7c.2 1.3.3 2.4-1 2.7-1.3.3-2.2-.3-2.7-1.4-.7-1.6-1.2-3.3-.2-5 .4-.7.8-1.3 1.7-1.2.8 0 1.3.6 1.7 1.3.7 1.2.4 2.6.5 3.6ZM354.1 347.2c0-1.4.1-2.6 1-3.5.5-.6 1.3-.8 2-.4.6.3.7 1 .5 1.6-.3.9-.6 1.9-.9 2.8-.3.8-.2 2.3-1.6 2-1.2-.3-.9-1.7-1-2.5Z" fill="#DBDBDB"/><path d="M307.2 250.8c-1.2.1-2.5-.1-3.6.2-1.1.3-1.8.2-2.3-.9-.5-1.1-.4-1.8.5-2.5.6-.4 1.1-.9 1.7-1.4.9 1.8 1.7 3.7 3.7 4.6Z" fill="#D2D1D0"/><path d="M133.3 290.2c-1.4-2.1-1.9-3.6-1.1-5.7 1.6 1.6 1.9 3.1 1.1 5.7Z" fill="#E3E3E3"/><path d="M347.4 285.2c-1.3-.1-1.5-1-1.9-1.8-.3-.7-.4-1.6.5-1.8 1-.3 1.2.6 1.3 1.3.2.7.7 1.4.1 2.3Z" fill="#E2E2E2"/><path d="M303.4 246.2c0-.7.4-1 .9-1.4 0 .7-.3 1.1-.9 1.4Z" fill="#D2D1D0"/><path d="M261.1 301.3c-5 0-9.9.1-14.9 0-15.2-.4-30.1 1.7-44.8 5.2-.2-.1-.3-.3-.2-.4.1-.2.1-.2.2-.2 8.2-2.8 16.5-4.9 25.1-6.1 9.3-1.3 18.7-1.4 28-1.4 2.4 0 4.7.1 6.4 2.2.2.1.3.3.3.5 0 .1 0 .2-.1.2Z" fill="#444342"/><path d="M261.1 301.3c-.1-.3-.1-.5-.2-.8.2-1 .7-1.4 1.8-1.2 2.7.5 5.5.9 8.1 2-.3 1.8-1.6.8-2.5.9-2.4-.2-4.9 0-7.2-.9Z" fill="#C2BFBE"/><path d="M268.3 302.2c.9-.2 1.8-.1 2.5-.9 1.7.4 3.5.9 5.3.8v1.4c-2.7 0-5.3-.5-7.8-1.3Z" fill="#ABA5A3"/><path d="M201.4 305.8c0 .2.1.4.1.7-2.3 1.3-4.9 1.7-7.4 2.2 0-.2 0-.5.1-.7 2.4-.8 4.6-2.2 7.2-2.2ZM194.2 308c-1-.5-.5-.9.1-1.3 0 .4-.1.9-.1 1.3Z" fill="#8F8783"/><path d="M179.3 474.7c9.7-1 19.5-.5 29.3-.9 12.1-.6 24.1-2.3 35.9-4.9 13.2-2.9 26.4-5.3 39.7-7.6 7.8-1.4 15.5-3.2 22.9-6.2 1.1-.4 2.2-.5 3.3-.6 5.4 10.7 10 21.8 14.7 32.9 7.9 18.4 13.1 37.4 15.2 57.3 1.8 17.7 2.4 35.3-1.8 52.9a60.85 60.85 0 0 1-21.7 34.1c-14.4 11.7-30.9 18-48.7 21.7-11.2 2.3-22.4 2.4-33.5-.8-3.6-1-7.1-2.2-10.4-3.9-8.3-4.3-16-9.5-23.2-15.4-7.2-5.9-12.5-13.6-16.7-21.7-6.9-13.3-12.7-27.1-15-42.2-1.7-11.2-1.9-22.5-1.7-33.8.2-13.8 1.7-27.4 4.9-40.9 1.6-6.9 4.3-13.4 6.8-20Z" fill="#fff"/><path d="M315.7 674.9c1.4-1 1.2-2.7 1.7-4 1.3-3.7 3.5-4.5 6.8-2.4 2.9 1.8 2.9 1.8 4.9-.7.2-.2.3-.4.4-.6 1-1 2-2.8 3.6-2 1.5.7 1.7 2.6 1.4 4.2-.3 1.7-.8 3.4-1.6 4.9-2.4 4.2-7.2 4.7-10.4.9-.7-.8-1-2.3-2.4-1.9-1.1.3-.9 1.7-1.1 2.6-.3 1.2-.4 2.4-.6 3.6-.3 1.4-1 2.5-2.4 3.1-1.4.5-2.3-.4-3.2-1.3-2.7-2.6-3.5-5.9-3.9-9.4-.1-.9 0-1.8 1-2.1.9-.3 1.7.1 2.4.7 1.2 1.3 1.7 3.3 3.4 4.4ZM116 627.3v4.7c0 .9.1 1.9-1 2.2-1.1.3-1.8-.5-2.4-1.4-1.7-2.6-2.9-5.5-3.2-8.6-.2-2-.4-3.9-.7-5.9-.4-2.1 0-4.2 1.2-6.1 1.2-1.9 2.9-1.7 4 .3.6 1.1.6 2.4.8 3.6.8 3.9 1.6 7.6 1.3 11.2ZM382.3 460.4c0 1.3-.1 2.3-1.2 2.8-.9.4-1.7-.1-2.4-.7-3.9-3.3-6.3-7.6-8-12.3-.8-2.1.5-3.3 2.7-3 1.3.2 2.3 1 3 2 2.3 3.1 4.4 6.3 5.5 10 .3.4.3.9.4 1.2ZM362.9 595.4c.1-1 .1-2 .6-2.9 1-1.7 2.6-2 3.9-.5.6.6 1 1.4 1.4 2.2l3.3 7.8c.5 1.2.7 2.4.6 3.6-.2 1.8-1.2 2.3-2.8 1.5-.2-.1-.4-.2-.6-.4-3.8-2.9-5.4-6.9-6.4-11.3ZM138.3 616.8v1.3c-.1 2.8-1.1 4.9-2.5 4.9-2.2 0-3.2-1.7-4.1-3.3-1.5-2.9-1-6-.5-9.1.2-1.1 1.2-1.8 2.5-1.9 1.3-.1 2.1.6 2.7 1.6 1.4 2.2 1.7 4.6 1.9 6.5ZM170.4 683.2c-.1 1.5.2 2.8-1.2 3.3-1.2.4-2.2-.3-2.9-1.2-2.5-3-3.8-6.7-4.6-10.4-.4-1.5.4-3 2.1-3.5 1.5-.5 2.7.4 3.3 1.7 1.6 3.3 2.8 6.8 3.3 10.1ZM193.4 677.2c0 3.7-2.2 4.9-5 3.7-3.1-1.3-4.7-8.9-2.5-11.4 1.2-1.4 2.9-1.6 4.1-.1 1.9 2.4 2.7 5.4 3.4 7.8ZM255.9 701.4c0-1.5.1-2.6 1.2-3 1-.4 2 .2 2.6 1 2.8 3.4 4.4 7.4 5.5 11.6.3 1.1-.4 1.6-1.4 1.7-.9.1-1.7-.2-2.4-.8-3.3-3-4.7-6.8-5.5-10.5ZM146.6 503.1c0 2.1 0 4.2-.8 6.2-.8 1.7-1.7 1.9-3.1.5-.6-.6-1.1-1.3-1.4-2.2-1-3.2-1.1-6.3 0-9.4.4-1.2 1-2.4 2.5-2.3 1.6.1 2.3 1.4 2.6 2.8.2 1.4.1 2.9.2 4.4ZM157.7 497c-.4 3.3-1.8 6.2-3.2 9-.6 1.2-1.8 1.2-2.2 0-1.4-3.6-1.9-7.4-.9-11.2.4-1.5 1.5-2.7 3.2-2.6 1.6 0 2.2 1.5 2.7 2.7.2.7.3 1.4.4 2.1ZM377.4 593.7c.2-.6.3-1.4.7-2.2 1.2-2.5 3.2-2.7 4.8-.5 1.7 2.2 2.1 5 2.3 7.7.1 1.9-1.9 2.7-3.8 1.9-2.1-.9-4.1-4.2-4-6.9ZM360.6 659.7c-.1 1.7-.5 2.8-1.6 3.5-1.3.8-2.3.2-3.4-.7-2.2-1.9-3.4-6.2-2.3-8.4.6-1.2 1.5-2.3 3.1-2.3 1.3.1 1.8 1.2 2.2 2.2.8 2.1 1.4 4 2 5.7ZM106.3 483.9c0 3-.3 5.3-1.9 7.2-1.5 1.7-3.3 1.3-3.8-.9-.7-3.2-.3-6.4 1.2-9.3.5-.9 1.2-1.6 2.3-1.5 1.4.1 1.8 1.1 2.1 2.3.2.8.1 1.8.1 2.2ZM289.2 704c-1.7 4.1-3.6 5.1-6.8 4-2.4-.8-4.6-4.4-4-6.8.5-2.2 2.4-2.9 4.2-1.4.5.5 1 1.1 1.3 1.8.9 2.1 2.3 3.4 5.3 2.4ZM341.8 477.3c1.6.4 3.5.3 4.5 2.1 1.8 3 3.3 6.1 4.2 9.5.2.6.3 1.3-.3 1.7-.6.4-1.2.1-1.7-.3-1.6-1.4-2.9-3-4-4.9-1.2-2.1-1.5-4.7-3.6-6.4-.2-.2-.4-.7-.3-1 .1-.6.5-.7 1.2-.7Z" fill="#383838"/><path d="M114.5 483.6c1.1-1.3 1.2-3.2 2.6-4.4.8-.8 1.6-1.6 2.9-1.2 1.1.4 1.8 1.3 1.9 2.5.2 2.7-.6 5.1-2.3 7.2-1.1 1.3-2.3 1.2-3.5-.1a5.5 5.5 0 0 1-1.6-4Z" fill="#393939"/><path d="M125.5 611.8c1.3.2 2.2 1.1 2.3 2.5.2 2.2.6 4.4 1.3 6.5.3.7.1 1.5-.5 2-.7.6-1.6.7-2.4.3-3.1-1.3-4.6-7.9-2.3-10.5.3-.5.8-.8 1.6-.8ZM376.4 652.8c0 .9 0 1.3-.1 1.6-.1.5-.1 1-.7 1.2-.5.2-1 0-1.3-.4-2.1-2.8-4.2-5.7-5.8-8.9-.3-.7-.4-1.5.2-2.1.7-.7 1.6-.7 2.4-.4.6.2 1.2.5 1.5 1 2.2 2.4 3.8 5.1 3.8 8ZM392.8 453.9c-.1 1 .1 2-.8 2.5-1 .5-1.6-.2-2.3-.8-1.1-1-2.1-2.1-3.1-3.2-.8-1-1.3-2.1-1.3-3.4 0-1.2.4-2.2 1.6-2.8 1.2-.6 1.8.3 2.5 1 2 1.9 3.3 4.1 3.4 6.7ZM392.8 598.1c-.2.9.6 2.7-.7 3.1-1.7.5-2.1-1.4-2.7-2.5-1.3-2.4-2.1-5-1.7-7.9.1-.9.4-1.7 1.4-2 1.2-.3 1.9.5 2.3 1.4 1 2.4 1.5 5 1.4 7.9ZM179.9 678.1c.1 2.2-1.1 3-2.9 2.5-2.5-.8-4.1-4.6-3.1-7 .8-2 2.7-2.3 4-.6 1.1 1.6 1.6 3.5 2 5.1ZM357 474.8c.8 0 1.5.3 1.9.9.8 1.5 1.6 3 2.3 4.6.4 1 .1 2-.8 2.6-.8.7-1.7.1-2.3-.4-2-1.4-3.3-3.2-3.2-5.8.1-1.3.7-2 2.1-1.9Z" fill="#383838"/><path d="M295.5 702.9c.5 0 .9.2 1.3.6 1.5 1.8 2.3 4 2.6 6.4.1 1-.5 1.4-1.4 1-1.9-.7-3.9-5.3-3.2-7.3.1-.4.2-.7.7-.7ZM114.5 483.6c-.7.3-1.3.7-2.1.5-1-.2-1.5-.9-1.4-1.9.2-1.2.9-2 2.2-2.1.9 0 1.1.8 1.2 1.6.1.7.1 1.3.1 1.9Z" fill="#393939"/><path d="M109.9 709c.3 0 1.1 0 1.8.2 2.5.7 3.4 2.9 1.7 4.8-2.7 3-6.2 4.9-10.3 5.3-2.2.2-3.5-1.8-2.8-4 1.1-3.5 5.2-6.3 9.6-6.3ZM89.8 707.5c-1.2 0-2.2.1-3.2 0-2.5-.3-3.2-2.2-1.6-4.2.8-1 1.8-1.6 3-2.1 2.8-1.3 5.8-1.2 8.7-1 1.3.1 2.5.5 2.8 1.9.4 1.7-.4 2.9-1.8 3.7-2.5 1.5-5.3 2-7.9 1.7Z" fill="#E6A625"/><path d="M119.7 729.5c0-2.6 1.1-4.6 3.2-5.9 1.1-.7 2.4-.8 3.5 0s.7 2 .3 3.1c-.7 1.8-1.6 3.4-3 4.6-.8.7-1.6 1.7-2.9 1.1-1.1-.6-1-1.8-1.1-2.9Z" fill="#E7A725"/><path d="M385.9 735.3c.2.1.6.1.9.2 3.5 1.9 5.9 4.8 7.2 8.5.7 2-1 3.7-3.1 3.4-3.5-.5-8-5.8-7.8-9.2.1-1.9 1.1-2.9 2.8-2.9Z" fill="#E6A625"/><path d="M361.4 745.6c1-.1 1.6.4 2.2 1.1 1.7 2 2.5 4.5 3.4 6.9.5 1.4-.4 2.1-1.7 2.1-3.7.1-7.4-5.7-5.6-9 .3-.6.9-1 1.7-1.1ZM397.8 724c3-.1 6.6 4.3 6 7-.2 1-.8 1.5-1.8 1.6-2.8.1-6.4-3.4-6.2-6.2.1-1.4.8-2.3 2-2.4Z" fill="#E7A726"/><path d="M281.3 317.7c-7.3 10.6-15.1 20.8-24.4 29.8-4.3 4.2-9.3 7.3-15.6 7.9-2 .2-3.9.2-5.9-.1-12.6-1.8-23.5-7.4-33.7-14.6a53.24 53.24 0 0 1-15.9-17.8c2.1-1.7 4.5-.2 6.8-.6 12.6-2.1 25.2-4 37.8-5.9 15.2-2.2 30.4-2.1 45.6-1.7 2 0 4.6 0 5.3 3Z" fill="#FFC95D"/><path d="M281.3 317.7c-2.2-1-4.5-1.4-6.8-1.4-8.9-.1-17.8-.3-26.7.1-7 .3-14 1.3-20.9 2.4-11.7 1.7-23.4 3.7-35.1 5.6-2.3.4-4.1-.5-6-1.4-.3-.1-.4-.4-.4-.7-.4-2.3 1-3.5 2.7-4.6 4.7-2.1 9.7-2.8 14.6-3.9 20.6-4.8 41.5-6.4 62.6-4.2 6.4.6 12.5 2.6 19.2 3.1-.6 2.1-1.8 3.6-3.2 5Z" fill="#FDBD3C"/><path d="M188.1 317.6c-.6 1.7-2.3 2.7-2.7 4.6-1.2-3.7-1.2-3.7 2.7-4.6Z" fill="#FFC95D"/><path d="M174.6 269.4c0-2.2.8-3.5 2.1-3.7 1.5-.2 2.5 1.1 2.7 3.2v1.5c-.1 1.3-.8 2.1-2 2.2-1.2.1-2.1-.6-2.5-1.7-.2-.6-.3-1.2-.3-1.5Z" fill="#F7F7F6"/><path d="M287.3 268.6c0 .5 0 1.1-.1 1.7-.2 1.2-1 2-2.2 2.1-1.5.1-2.3-.7-2.6-2.1-.4-1.5 0-3 .3-4.4.3-1.2 1.1-1.9 2.4-1.8 1.3.1 1.9 1 2.1 2.2 0 .7 0 1.5.1 2.3Z" fill="#F8F8F7"/><path d="M233.3 495.4c-1.5 1.4-1.7 3.1-2.3 4.5-1.6 3.2-4.2 3.8-6.8 1.3-2.8-2.7-3.7-6.3-3.8-10.1 0-1.3.5-2.5 1.9-2.9 1.5-.4 2.6.3 3.4 1.6 1 1.7 1.1 3.8 2.7 5.4 1.5-.9 1.7-2.4 2.3-3.7 1.8-4 4.2-4.4 7.4-1.3 1.7 1.7 1.9 1.7 3.4-.2s3.2-3.4 5.8-3.5a4.4 4.4 0 0 1 4 6.5c-.3.6-.9 1-1.5.8-2.2-.7-3.1.9-4.3 2.1-.5.5-1 1.1-1.6 1.6-3.4 3.1-6.1 3-9.2-.5-.5-.4-.8-.9-1.4-1.6ZM257.4 608.7c-.1 1.5.3 2.8-1.1 3.4-1.3.5-2.5-.1-3.3-1a19.3 19.3 0 0 1-4.9-11.4c-.1-.8.3-1.7.6-2.5 1-2 2.9-2.3 4.1-.5 2.3 3.8 4 7.9 4.6 12Z" fill="#D9D9D9"/><path d="M214.2 562.8c0 1 .1 1.8-.7 2.2-.8.4-1.4 0-2-.5-1.3-1-2.3-2.3-2.9-3.8-1.1-2.8-1.8-5.7-2.3-8.6-.1-.4-.1-.8-.1-1.1.4-1.4.2-3.4 1.9-3.6 1.7-.3 1.9 1.7 2.3 2.9 1.2 3.5 2.2 7.1 3.3 10.6.3.7.4 1.4.5 1.9ZM207.5 492.2v-3.6c.1-1.3.3-2.7 1.8-2.8 1.3-.1 1.7 1.3 1.9 2.4.5 2.7 1 5.3 1.4 8 .3 2.4.1 4.9.5 7.4.2 1.2-.7 1.8-1.9 1.3s-1.8-1.6-2.4-2.7c-1.3-3.2-1.4-6.3-1.3-10ZM302 540.4c0-1.8 0-3.1 1.4-3.6 1.3-.5 2.4.1 3.3 1.1 2.3 2.6 3.2 5.8 3.4 9.2 0 .8-.4 1.7-.8 2.4-1 1.7-2.2 1.9-3.5.3-2.4-2.9-3.1-6.5-3.8-9.4ZM301.3 546.3c-.2 1.4.5 3.6-1.8 4.1-2.1.5-3.1-1.2-4-2.7-1.1-1.8-1.7-3.8-1.6-6 0-1.3.4-2.4 1.4-3.3 1.8-1.8 3.7-1.4 4.7.8.5 1.1 1.3 5 1.3 7.1ZM237.9 554.4c0 1.8-1 2.5-2.4 1.5-2.5-1.6-3.9-4.2-4.6-7-.4-1.5-.2-3.2-.2-4.8 0-1.2.6-2.2 1.9-2.4 1.1-.2 1.9.4 2.4 1.4.2.3.4.7.5 1 1.3 3.4 1.5 7 2.4 10.3Z" fill="#DADADA"/><path d="M288.7 486.8c-.1.6 0 1.2-.2 1.8-.5 1.6-1.8 2-3.1.9-2.4-1.9-4.3-9.3-3.2-12 .3-.8.9-1.5 1.8-1.7 1.1-.2 1.9.4 2.4 1.3 1 1.6 1.3 3.4 1.6 5.2.2 1.6.7 3 .7 4.5Z" fill="#D9D9D9"/><path d="M217.1 620c0 1.2-.2 1.9-1 2.3-.9.5-1.7.1-2.4-.5-2.9-3-4.2-6.6-3.9-10.8.1-1.1.5-1.9 1.6-2.2 1.3-.3 2.2.2 2.8 1.3.9 1.6 1.3 3.5 1.7 5.3.4 1.7.9 3.3 1.2 4.6ZM292.5 555.5c-4.6-1.2-7.1-4.3-7.6-8.8-.2-1.6-.3-3.2.4-4.7.4-.8 1-1.5 2-1.5 1.1 0 1.6.8 1.7 1.7.3 4.3 2.1 8.4 3.5 13.3ZM305.8 589.8c0-1.3.1-2.2.5-3 1.1-2.1 3.2-2.3 4.3-.3 1.2 2.1 2.1 4.5 3 6.8.5 1.2-.1 2.2-1.1 2.8-1.1.7-2.2.6-3.1-.1a9 9 0 0 1-3.6-6.2ZM225.2 619.8c-4-.2-7.8-5.1-7.2-9 .2-1.1.6-1.9 1.8-2.1 1.1-.2 2.1.2 2.4 1.2 1.1 2.7 2.9 4.8 4.4 7.2.4.6.9 1.3.4 2-.4.8-1.2.6-1.8.7Z" fill="#DADADA"/><path d="M276.7 600c0 .5-.1 1.7-.3 2.9-.1.6-.4 1.2-1.1 1.4-.7.2-1.3-.2-1.6-.7-2-3.7-3.1-7.6-1.5-11.7.3-.7.6-1.4 1.5-1.4 1 0 1.7.7 1.8 1.5.6 2.4 1.2 4.8 1.2 8Z" fill="#DBDBDB"/><path d="M271.5 486.7c-.1-2.2.4-3.6 2.1-4 1.7-.4 2.3 1 2.9 2.3.5 1.2 1 2.5 1.6 3.7.6 1.3.6 2.4-.7 3.2-1.4.9-2.6.6-3.7-.5-1.2-1.5-2-3.3-2.2-4.7ZM221.4 548.2c.1-1.3.1-2.8 1.9-3 1.5-.3 2.2.9 2.6 2.1.6 1.4 1.1 2.8 1.5 4.2.7 2-.4 3.2-2.4 2.8-1.2-.2-1.9-1-2.5-2-.7-1.3-.9-2.6-1.1-4.1ZM263.6 594.6c1.1.1 1.5.8 1.9 1.6.7 1.5.7 3.3 2.1 4.6.8.7-.3 2.3-1.7 2.5-1.7.3-3.4-1-4.3-3.3-.7-1.9-.3-4.1 1-5 .4-.2.7-.3 1-.4Z" fill="#DADADA"/><path d="M320.7 580.8c0 .4 0 .8-.1 1.1-.3 1-.2 2.5-1.8 2.4-1.4-.1-2.1-1.2-2.3-2.5-.1-.6.1-1.2.3-1.8.4-1.1 1.2-2 2.5-1.8 1.4.3 1.3 1.5 1.4 2.6Z" fill="#DCDCDC"/></svg>