<svg width="875" height="693" viewBox="0 0 875 693" fill="none" xmlns="http://www.w3.org/2000/svg"><path d="M79.9 26.7c.1 0 .1-.1 0 0ZM872.1 333.1c0-.4-.3-.6-.7-.7-.7-1.1-1.9-1.1-2.9-1.5h.1c-2.4-1.4-4.4.1-6.6.6-1.5.5-3.1.6-4.5 1.5-.6.6-1.7 0-2.2.8-.6.5-1.7-.1-2.2.8-.7.5-1.7-.1-2.2.7-.7.5-1.7 0-2.2.7-3.2 1-6.5 1.5-9.7 2.3v-.1c-4.9.6-4.9.6-4.9-4.1 0-3.2.3-6.4-1.3-9.3v.1c-.5-1.3-.6-2.7-1.6-3.8l.1.1c-.2-.5-.1-1.2-.8-1.5-.2-.9-.7-1.7-1.4-2.2-.1-.4-.4-.7-.7-.9-.9-1.6-2-2.9-3.7-3.6-.6-.7-1.4-1.1-2.2-1.5-.3-.6-1-.5-1.5-.8-.5-.9-1.6-.2-2.2-.8-.7-.7-1.7-.3-2.5-.7l-.2.1-.2-.2c-2.7-.6-5.5-.6-8.2 0l-.2.2-.2-.1c-.8.4-1.8 0-2.5.7-.6.6-1.7 0-2.2.8-.5.3-1.1.2-1.5.7-.4.4-1.1.3-1.5.8-.4.4-1.1.2-1.4.8-.4.1-.7.3-.9.7a7 7 0 0 0-3 2.9c-.3.2-.6.5-.7.8-.7.6-1.2 1.4-1.4 2.3-1 1-1 2.5-1.5 3.7v-.1c-1.2 3.4-1 6.9 0 10.3l-.1-.1c.7 2.2 1.4 4.3 3 6v-.1c1.2 2.3 2.9 4 5.2 5.2.5.8 1.4 1.2 2.2 1.5 2.6 2.1 5.8 3.2 8.9 4.3 1.1.4 2.8-.1 3 1.9-.3.2-.6.5-.8.7-.3.2-.5.5-.8.7-.7.6-1.6.9-2.1 1.6-.8.4-1.6.8-2.2 1.5-.4.3-1.1.2-1.4.8-.4 0-.6.3-.9.6-.4.5-1.1.3-1.4.8-.4.4-1.1.3-1.5.8-.5.3-1.1.2-1.5.8-.5.3-1.1.2-1.5.7-1.2.6-2.5.8-3.7 1.4-1.1.9-2.6-.2-3.7.8-3.3.6-6.7.5-10 0l-.2.1-.2-.2c-1.6-1.1-3.6.2-5.3-.8-1-.8-2.3-.1-3.3-.7l-.2.1-.2-.2c-1.4-1.4-1.1-3.7-2.4-5.1l.1.1c-.4-1.9-1.3-3.6-2.2-5.3v.1c-.6-1.8-1.3-3.6-2.3-5.3l.1.1c-.2-.5-.2-1.2-.7-1.6a93.1 93.1 0 0 0-6.7-13.4c-.3-.5-.2-1.2-.8-1.5-.3-.5-.2-1.2-.8-1.4-.2-.9-.8-1.6-1.4-2.3-.4-.4-.2-1.1-.8-1.4-.3-.9-.8-1.6-1.4-2.3-.4-.4-.2-1.2-.9-1.4-.3-.9-.7-1.7-1.5-2.2-.3-.9-.7-1.7-1.5-2.2-.3-.8-.7-1.7-1.5-2.2 0-.4-.3-.7-.7-.9-.5-.7-.8-1.6-1.5-2.2-.5-1.2-1.4-2-2.2-3-.5-1.1-1.4-2-2.2-3-.5-1.1-1.3-2.1-2.2-2.9-.1-.4-.4-.7-.7-.9-.6-1.1-1.3-2.1-2.3-2.8 0-.5-.3-.7-.7-.9-.1-.4-.4-.6-.7-.8-1-1.7-2.5-3-3.9-4.4l.1.1c0-.5-.3-.7-.7-.8-.1-.4-.3-.6-.7-.8-.1-.4-.4-.6-.7-.8-.1-.4-.4-.6-.7-.8-.2-.3-.4-.6-.7-.8-.2-.3-.4-.6-.7-.7-.2-.3-.4-.6-.7-.7-.2-.3-.4-.6-.7-.7-.2-.3-.4-.6-.7-.7-.2-.3-.4-.6-.8-.7-.2-.3-.4-.6-.8-.7-.1-.4-.4-.6-.8-.7-.1-.4-.4-.6-.8-.7-.1-.4-.4-.7-.8-.7l.1.1c-2-1.8-3.6-3.9-5.9-5.3-.2-.3-.4-.6-.8-.7-.1-.4-.4-.7-.8-.7-.8-1-1.8-1.6-2.8-2.3-.2-.3-.5-.5-.8-.7-.2-.3-.4-.6-.8-.7l.1.1c-.9-.9-1.9-1.7-2.9-2.4-.2-.3-.5-.6-.8-.7l.1.1c-.9-.9-1.8-1.7-2.9-2.3-.2-.3-.4-.6-.9-.7-.5-.8-1.4-1.1-2.1-1.5-.2-.3-.5-.6-.9-.7-.5-.8-1.4-1.1-2.1-1.5-.6-.7-1.5-1-2.2-1.5-.2-.3-.5-.6-.9-.7-.6-.7-1.4-1.1-2.2-1.5-.6-.7-1.4-1-2.2-1.5-.6-.6-1.5-1-2.2-1.5-.7-.6-1.5-1-2.2-1.5-.7-.6-1.4-1.1-2.2-1.5-.6-.7-1.4-1.1-2.3-1.4-.3-.6-1-.4-1.4-.9-.7-.6-1.5-1-2.3-1.4-.6-.7-1.4-1.1-2.3-1.4-.3-.6-1-.5-1.4-.9-.7-.6-1.4-1.1-2.3-1.4-.3-.6-1-.4-1.4-.8-.7-.6-1.5-1-2.3-1.4-.3-.6-1-.4-1.4-.8-.7-.5-1.5-1-2.3-1.4-.3-.6-1-.4-1.4-.8-.7-.6-1.4-1.1-2.3-1.4-.3-.6-1-.5-1.4-.8-.3-.6-1-.4-1.5-.8-1.1-.9-2.5-1.5-3.8-2.1-.3-.6-1-.5-1.4-.8-.3-.5-1-.4-1.5-.8a5.3 5.3 0 0 0-2.3-1.3c-.3-.7-1-.5-1.4-.8-.3-.6-1-.5-1.4-.8-.3-.5-1.1-.4-1.5-.8-1.2-.9-2.5-1.5-3.8-2.1-.3-.7-1-.6-1.5-.8-.3-.6-1-.5-1.5-.8-.3-.6-1-.5-1.5-.7-.3-.6-1-.5-1.5-.7-1-1-2.5-.9-3.6-1.6-.4-.4-1.1-.3-1.5-.7-.4-.5-1.1-.4-1.6-.7-1.1-.9-2.5-1-3.7-1.6-.5-.8-1.6-.1-2.2-.8-.4-.4-1-.4-1.6-.6-.5-.9-1.6-.3-2.2-.8-.5-.8-1.6-.2-2.2-.7-.6-.8-1.6-.3-2.3-.7-.7-1-2.1 0-2.9-.9-.6-.7-1.6-.2-2.3-.7-.8-.9-2.1 0-2.9-.8-.8-.9-2.1 0-3-.8-.9-.8-2.1 0-3-.7-1.1-1-2.6.1-3.7-.8s-2.6.1-3.8-.7c-1.4-1-3.2 0-4.7-.8-.2.2-.4.1-.5-.1-1.7-.9-3.7.1-5.5-.7-.4.2-.8.2-1.2-.1-4-.7-7.9-.6-11.9 0-.6.3-1.3.3-2 .1-1.2.5-2.4.3-3.7.2-.6-.1-1.2.3-1.7-.2.9.3 1-.4 1.1-1 1-.8 1.7-1.8 2.4-2.9.3-.2.6-.5.6-.9.6-.3.5-.9.8-1.4.6-.4.5-1 .7-1.5 1-1.3 1-2.9 1.5-4.4 1-1.1 0-2.6.7-3.8v.1c1.2-4.5.3-8.9-.7-13.3v.1c-.7-.9.2-2.2-.8-3-.4-.7.1-1.7-.7-2.3v.1c-.6-.6.1-1.7-.8-2.2-.2-.5-.1-1.2-.7-1.5-.3-.5-.2-1.1-.7-1.5-.3-.4-.2-1.1-.7-1.5-.3-.4-.2-1.1-.8-1.5-.3-.5-.2-1.1-.8-1.4-.3-.9-.8-1.6-1.4-2.3-.4-.4-.3-1.1-.8-1.4-.4-.8-.8-1.6-1.4-2.2-.4-.8-.8-1.6-1.5-2.2-.4-.8-.8-1.6-1.5-2.2-.1-.4-.4-.6-.7-.9-.5-.7-.8-1.6-1.5-2.1-.1-.4-.4-.6-.7-.8-.6-.7-.8-1.6-1.6-2.1 0-.4-.3-.7-.7-.8-.1-.4-.4-.6-.7-.8-3.1-3.9-6.6-7.3-10.4-10.4-.2-.3-.5-.5-.8-.7-.2-.3-.4-.6-.8-.7-.2-.3-.4-.6-.8-.7-.1-.4-.4-.7-.8-.7-1.1-1.2-2.2-2.3-3.5-3.1-.2-.3-.4-.6-.8-.7-.2-.3-.4-.6-.8-.7-.1-.4-.4-.7-.8-.7l.1.1c-1.1-1.2-2.3-2.3-3.6-3.2-.2-.3-.5-.5-.8-.7-.2-.3-.4-.6-.8-.7-.1-.4-.4-.7-.8-.7-.4-.8-1.4-1-2-1.6-.2-.3-.5-.5-.8-.7-.2-.3-.4-.6-.8-.7-.5-.8-1.4-1-2.1-1.6-.2-.3-.5-.6-.8-.7-.6-.7-1.4-1-2.1-1.5-.2-.3-.5-.6-.9-.6-.3-.6-1-.4-1.4-.8a7.9 7.9 0 0 0-2.3-1.4c-.3-.6-1-.4-1.4-.8-.3-.5-1.1-.3-1.4-.8-.3-.2-.5-.6-.9-.6-.3-.6-.9-.5-1.4-.8-.3-.6-1-.4-1.4-.8-.4-.5-1.1-.4-1.5-.8-.4-.5-1.1-.3-1.5-.7-.4-.5-1.1-.3-1.5-.7-.4-.5-1.1-.4-1.6-.7-.2.1-.4 0-.6-.2-.3-.2-.6-.5-1-.5-.2.1-.3 0-.4-.2-.3-.3-.6-.6-1.1-.6h-.2l-.1-.2c-.3-.2-.5-.5-.9-.5-.3-.6-1-.5-1.5-.7-.3-.6-1-.5-1.5-.7-.4-.9-1.6-.2-2.1-.9-.7-.6-1.7-.2-2.5-.7-.2.2-.3.1-.5 0-.7-.6-1.5-.6-2.2 0-.1.2-.3.2-.5 0-.8.5-1.7.1-2.5.6h-.1c-.7.7-1.6.2-2.3.5-1.9.5-3.2 1.8-4.8 2.7-3.6 2.1-6.5 5.1-9.5 7.9-3.3 3.4-5.3 7.5-6.3 12-3.4 14.3-7.7 28.5-10.2 43-3 17-1 33.2 7 48.7 5.6 11 14.7 16.4 26.7 16.1 15.7-.3 31.1-2.6 46.1-7.3 4.4-1.4 4.5-1.3 5.5 3 2 8.8 3 17.8 3.7 26.8 1.1 13.4.9 26.8-2.6 39.8-6.8 25.6-18.2 49.2-33.6 70.9-11.8 16.6-24.5 32.5-40.7 45.1-16 12.4-33.7 22.2-51.8 31.3-30.5 15.4-62.7 24.2-96.7 25.5-20.8.8-41.6 1-62.4-1.4-26.5-3.1-52.6-8.6-78.3-15.6-6.9-1.9-13.9-3.8-21.1-4.2-1.3-.1-3-.2-3.6 1.3-.7 1.6.8 2.5 1.9 3.3 5 3.7 10.2 7.1 15.9 9.5 9.5 3.9 19.4 6.9 29 10.6 1.1.6.8 1.7.8 2.7-.1 6.1-.1 12.1 0 18.2 0 2.3-.4 4.4-1.3 6.5-2.8 6.6-5.9 13.1-8.6 19.8-5.7 14-11.9 27.8-19.6 40.8-1.6 2.7-1.9 2.9-3.7.4-2.2-2.9-4.1-5.9-5.6-9.2-3.2-7-7-13.7-11.3-20-4.2-6.1-4.7-6.9-12.1-3.5-2.1 1-4.1 2.4-6 3.7-3.5 2.3-6.9 4.7-10.3 7-.3-.4-.4-.6-.3-.9 3-8.1 6.2-16.2 8.2-24.7.6-2.5 2-1.4 3.4-.8 6.6 3.2 13.7 3.2 20.8 2.5 1.9-.2 4.1-.7 4-3.5-2.5-4.2-6.9-5.4-11.1-6.7-.9-.2-1.8-.4-2.6-.7l-1.1-.3c-2.3-.5-4.6-1.1-7-.8-2.9.3-3.5-.6-2.9-3.6 3.6-17.4 9-34.6 9.5-52.5.1-1.6-.3-2.6-1.6-3.3-3.9-2.1-7.4-5-11.2-7.4-20-12.8-39-26.7-54.5-45-20.3-23.9-35.5-50.7-46.2-80-5.8-16-9.7-32.4-10.8-49.6-.8-12.7-1.4-25.4.5-38.1 5.5-37.3 21.1-70.3 42.6-100.7 10.2-14.4 22.8-26.8 35.4-39.1 2.8-3.4 6.7-5.8 9.4-9.4 1.1.5 1.5 1.4 2 2.2 7.4 10.3 15.4 20 24.8 28.5 3.9 3.5 7.8 6.8 12.3 9.5 10.9 6.4 21.3 5.2 30.8-3 6.3-5.5 11.6-11.8 17.1-18 10.8-12.2 20.8-24.9 27.5-39.9 3.7-8.2 6.4-16.7 5.6-25.8-.3-2.3-.4-4.7-1.4-6.8-1-2.3-.3-3.6 2.3-3.6 4.6 0 9.1-.8 13.7-.9 18.5-.4 37 1.4 55.5.7 3.7-1.3 5.9 2 8.9 2.8a384 384 0 0 1 41 13.2c17.5 6.8 34.8 14.3 51.6 22.8 21.5 10.8 42.2 22.9 61.9 36.9a80 80 0 0 0 14.2 8.1c1.9.8 3.8 1.9 6 1.2.4-.2.6-.5.7-.9 0-.4-.1-.7-.5-.9 0-.4-.3-.6-.6-.9l-.2-.1v-.2c0-.5-.3-.8-.7-1.1-.4-.4-.3-1.1-.9-1.3-.1-.4-.3-.7-.7-.8a5 5 0 0 0-.7-.8c-.8-.9-1.4-2-2.4-2.8-.1-.5-.3-.7-.8-.8-1.4-1.3-2.6-2.8-4.3-3.8-.2-.3-.4-.6-.9-.7l.1.1c-.8-.9-1.9-1.7-2.9-2.4-.2-.3-.5-.5-.8-.7-.2-.4-.4-.6-.9-.7-.5-.8-1.4-1.1-2.1-1.6-.2-.3-.4-.6-.9-.7-.2-.6-1-.4-1.3-.9-.3-.2-.5-.5-.8-.6-.6-.7-1.4-1.1-2.2-1.5-.6-.7-1.4-1.1-2.2-1.5-.6-.7-1.4-1.1-2.2-1.5-.6-.7-1.4-1.1-2.2-1.5-.3-.6-1-.4-1.4-.9-.3-.2-.5-.5-.9-.6-.3-.5-1-.4-1.4-.8-.3-.3-.5-.5-.9-.6-.3-.6-1-.4-1.4-.8-.2-.3-.5-.6-.9-.6-.3-.6-1-.5-1.4-.8-.7-.6-1.5-1-2.3-1.4-.3-.5-1-.4-1.4-.8-.3-.2-.5-.6-.9-.6-.3-.6-1-.5-1.4-.8-.3-.5-1-.4-1.4-.8-.7-.5-1.4-1.1-2.3-1.3-.3-.6-1-.5-1.4-.8-.3-.6-1-.4-1.4-.8-.3-.5-1.1-.4-1.4-.8-.7-.5-1.4-1.1-2.3-1.3-.3-.6-1-.5-1.4-.8-.3-.6-1-.4-1.4-.8-.3-.5-1.1-.4-1.4-.8-.7-.5-1.4-1.1-2.3-1.3-.3-.6-1-.5-1.4-.8-.3-.6-1-.4-1.5-.8-.4-.5-1.1-.4-1.5-.8-.4-.5-1.1-.3-1.4-.8-2.3-1.5-4.9-2.6-7.4-3.7-.4-.4-1.1-.3-1.5-.7-.4-.5-1.1-.4-1.5-.7-.4-.5-1-.4-1.5-.7-.4-.5-1-.5-1.5-.7-.3-.6-1-.5-1.5-.7-.4-1-1.6-.2-2.1-.9-.4-.4-1.1-.3-1.5-.7-.4-.5-1.1-.4-1.5-.7-.4-.5-1-.4-1.5-.7-.4-.6-1-.5-1.5-.7-.3-.6-1-.5-1.5-.7-1-1-2.5-.9-3.5-1.6-.4-.4-1.1-.3-1.5-.7-.4-.5-1.1-.4-1.5-.7-.4-.5-1-.5-1.5-.7-.5-.9-1.6-.2-2.1-.9-.4-.5-1-.4-1.5-.6-.5-.9-1.6-.2-2.2-.8-1.2-.7-2.5-1-3.8-1.4-.5-.8-1.6-.1-2.2-.8-.4-.5-1-.4-1.5-.6-.5-.9-1.6-.2-2.2-.8-.4-.5-1.1-.4-1.5-.7-.4-.5-1-.5-1.5-.7-.4-.9-1.6-.2-2.1-.9-.4-.5-1.1-.4-1.5-.7-.4-.5-1-.5-1.5-.7-.4-.9-1.6-.2-2.1-.9-.4-.5-1-.4-1.5-.7-.5-.9-1.6-.2-2.2-.8-.6-.7-1.6-.1-2.2-.8-.6-.7-1.6-.1-2.2-.7-.6-.7-1.6-.2-2.3-.7-.8-.9-2.1 0-2.9-.8-.7-.7-1.7-.3-2.5-.7l-.2.1-.2-.2c-.6-.7-1.6-.1-2.3-.7-.6-.7-1.6-.2-2.3-.7-.6-.8-1.6-.2-2.2-.7-.6-.8-1.6-.2-2.2-.7-.6-.8-1.7-.3-2.5-.8l-.2.1-.2-.2c-.6-.6-1.6-.1-2.3-.7-.9-.9-2.2-.1-3.2-.7l-.2.1-.2-.2c-1-.8-2.3-.1-3.3-.7l-.2.1-.2-.2c-1.4-1-3.2.1-4.6-.7-.5 0-.9-.1-1.4-.1-2.9-1-6 .5-8.9-.7-.4-.5-1.1-.4-1.7-.7-.2.1-.4 0-.5-.2-.4-.3-1.1-.3-1.5-.6-.8-.9-2.1 0-2.9-.8-.9-.8-2.2-.1-3.2-.7-.2.1-.4.1-.5-.1-1.3-.8-2.8 0-4.1-.7-.4.2-.8.1-1.2-.1-1.3-.7-2.7 0-4-.6l-.2.1-.2-.2c-2.2-1.1-4.7.2-7-.7-.4.2-.8.2-1.2-.1a188 188 0 0 0-26 0c-.4.2-.9.3-1.3.1-1.7.8-3.7-.2-5.4.6-.4 0-.8.1-1.2.1-1 .6-2.2 0-3.2.6-.2.2-.4.2-.7.1-.7.6-1.6.1-2.3.6-.2 0-.5.1-.7.1-.6.6-1.6.1-2.3.7-.2.2-.3.2-.6.1-.7.5-1.8 0-2.3.8-.5.3-1.1.2-1.6.6-.1.2-.2.2-.4.1-.6.2-1.3.2-1.8.7-.4.4-1.1.2-1.5.7-2.6-.1-3.2-2.9-5.2-3.7-.2-.3-.5-.5-.8-.7-.2-.3-.4-.6-.8-.7-.2-.6-1-.5-1.3-.9-.2-.3-.5-.6-.9-.6-.3-.6-1-.5-1.4-.8-.3-.5-1.1-.4-1.4-.8-.4-.5-1.1-.3-1.5-.7-.4-.4-1.1-.3-1.5-.7-.5-.5-1.2-.5-1.8-.7-.2.1-.3.1-.4-.1-.5-.4-1.2-.4-1.8-.6l-.2.1-.2-.2c-.7-.6-1.7-.2-2.5-.6-.2.1-.3.1-.5-.1-1.2-.9-2.7.1-3.8-.7-.2.1-.4.1-.6-.1-1.8-.9-3.7.1-5.5-.6-.7.3-1.3.2-2-.1-5.7-.6-11.4-.6-17.1 0-.4.2-.8.3-1.2.1-2.3.8-4.7-.3-7 .7-.4.2-.8.3-1.2.1-1.5.7-3.3-.2-4.8.6-.4.2-.8.3-1.2.1-1.3.7-2.8-.2-4 .7-.1.2-.3.2-.5.1-1.3.7-2.8-.2-4 .7-.1.2-.3.2-.5.1-1.2.7-2.7-.2-4 .7l-.2.2-.2-.1c-1 .6-2.3-.1-3.3.7l-.2.2-.2-.1c-.8.4-1.8.1-2.5.6-.1.2-.3.2-.5.1-.7.5-1.7.1-2.4.6-.2.2-.4.2-.6.1-.7.5-1.7.1-2.4.6-.2.2-.4.2-.6.1-.7.5-1.7.1-2.4.6-.2.2-.3.2-.6.1-.7.5-1.7 0-2.4.7-.6.7-1.6.1-2.2.7-.1.2-.3.2-.5.1-.6.2-1.2.2-1.7.6-.1.2-.3.2-.5.1-.5.3-1.2.2-1.7.6-.1.2-.3.2-.6.1-.5.3-1.2.2-1.7.6-.1.2-.3.2-.6.1-.5.3-1.2.2-1.7.6-.1.2-.3.2-.5.1-.5.3-1.2.2-1.7.6-.1.2-.2.2-.4.1-.9.3-1.9.4-2.8 0-.2.1-.4.1-.5-.1-.7-.5-1.5-.5-2.2 0-.1.2-.3.2-.5.1-.7.5-1.8-.1-2.3.8-.4 0-.6.4-.9.6-.3.5-1.1.3-1.3.9-.4.1-.6.4-.8.7a18.4 18.4 0 0 0-5.2 5.2c-.3.2-.6.4-.7.9-.6.2-.5 1-.8 1.4-.5.4-.3 1.1-.8 1.5-.4.4-.3 1.1-.7 1.5-2.3 4.3-1.9 8.8-.6 13.3l-.1-.1c.4 2 .6 4.1 1.5 6.1v-.1c.4 1.5.7 3.1 1.5 4.5.7.6 0 1.7.9 2.2.2.5.2 1.1.7 1.5.3.5.2 1.1.7 1.5.3.5.2 1.1.8 1.5.3.5.2 1.2.8 1.4.3.9.8 1.6 1.4 2.3.4.4.2 1.1.8 1.4.3.8.7 1.6 1.5 2.2.1.4.4.6.7.9.5.7.8 1.6 1.6 2.2.5 1.5-1.3.9-1.5 1.7-1.2.4-2.1 1.3-2.9 2.2-.4.1-.7.3-.8.7-.4.1-.6.4-.8.7-.4.1-.6.4-.8.7-.3.1-.6.4-.8.7-.3.2-.6.4-.8.7-.3.2-.6.4-.8.7-.3.2-.6.4-.8.7-.3.2-.6.4-.8.7-.3.2-.5.4-.7.7-.3.2-.5.5-.8.7-.3.2-.5.5-.8.7-.3.2-.5.5-.7.7-.3.2-.5.5-.7.7-.3.2-.5.5-.7.7-.3.2-.5.5-.7.7-.3.2-.5.5-.7.7-2.7 2-4.9 4.6-7.3 6.9l.1-.1c-.5 0-.7.3-.8.8-.4.1-.7.3-.7.7-.4.1-.7.3-.7.7-.4.1-.7.3-.7.7-.4.1-.7.3-.8.8-1.8 1.9-3.8 3.6-5.3 5.8-.3.2-.5.5-.7.8-.3.2-.6.4-.7.8-.3.2-.6.4-.7.8-.4.1-.7.4-.7.8l.1-.1c-1.3 1.4-2.9 2.7-3.9 4.4-.3.2-.6.4-.7.8-.4.2-.6.4-.7.8-.9.8-1.6 1.8-2.3 2.8-.3.2-.5.5-.7.8-.4.2-.7.4-.7.9-.8.5-1.1 1.4-1.6 2.1-.3.2-.6.4-.7.9-.8.5-1.1 1.4-1.6 2.1-.3.2-.6.5-.7.9-.8.5-1.1 1.4-1.5 2.1-.7.6-1 1.5-1.5 2.2-.3.2-.6.5-.6.9-.6.3-.4 1-.9 1.4-.3.2-.6.5-.6.9-.6.3-.5 1-.8 1.4-.6.7-1 1.5-1.4 2.3-.6.7-1.2 1.4-1.4 2.3-.6.3-.5 1-.8 1.4-.5.3-.4 1-.8 1.4-.3.3-.6.5-.6.9-.6.3-.5.9-.8 1.4-.6.3-.4 1-.8 1.4-.5.7-1.1 1.4-1.4 2.3-.6.3-.5 1-.8 1.4-.9 1.1-1.5 2.5-2.1 3.8-.6.3-.5 1-.8 1.5-.5.3-.4 1-.8 1.5-.5.4-.4 1-.8 1.5-.5.4-.4 1.1-.8 1.5-2 3.3-3.7 6.8-5.2 10.4-.5.4-.4 1-.7 1.5-.5.4-.4 1-.7 1.5-.6.4-.5 1-.7 1.6-1 1-1 2.5-1.6 3.7v-.1c-.9 1.1-1 2.5-1.5 3.8v-.1c-.8 1.1-1 2.5-1.5 3.8-.8.5-.2 1.6-.8 2.2-1.3 2.9-2.2 5.9-3 8.9-.7.6-.2 1.6-.7 2.3-1 .8-.1 2.1-.8 3-.7.6-.3 1.6-.7 2.3-1 .8-.1 2.1-.8 2.9-1 .8 0 2.1-.8 3-.9.8 0 2.1-.8 3v-.1c-.9.9-.1 2.1-.7 3-1.1 1.1 0 2.6-.8 3.7l.1-.1c-1.2 1.3.1 3.1-.8 4.5-1 1.4.1 3.1-.7 4.5l.1-.1c-1.1 5.5-1.5 11.1-2 16.6-.6 7.8 1.2 15.5.7 23.2 0 .4.2.6.4.9.9 2.7-.4 5.6.8 8.3v-.1c1 1.9-.4 4.1.8 6v-.1c1 1.6-.4 3.6.9 5.2l-.1-.1c.7 1.2-.3 2.7.7 3.8.8 1.1-.3 2.6.8 3.7.6.9-.1 2.1.7 3 .5 2 .7 4 1.5 5.9.8.9-.2 2.2.8 3v-.1c.5.7 0 1.7.7 2.3.8.8-.2 2.2.9 2.9.4.7-.1 1.7.7 2.3.5.7-.1 1.7.7 2.2v-.1c.6.7-.1 1.7.8 2.3v-.1c.6.6-.1 1.7.8 2.3.4 1.3.8 2.6 1.4 3.8.7.6 0 1.7.8 2.2.5 1.3.7 2.6 1.5 3.7v-.1c.3.5.2 1.2.7 1.6.7.5 0 1.7.9 2.1.2.5.2 1.2.7 1.5.3.5.2 1.1.7 1.5.7 1.1.7 2.6 1.6 3.6.3.5.2 1.2.7 1.6.3.5.2 1.1.7 1.5.4.4.3 1.1.7 1.5 1.6 3.6 3.2 7.1 5.2 10.4.4.4.3 1.1.8 1.5.3.5.2 1.1.8 1.4.3.5.1 1.2.8 1.4.2.9.8 1.6 1.4 2.3.4.4.2 1.1.8 1.4.7 1.3 1.2 2.6 2.2 3.7.3.4.2 1.2.8 1.4.2.9.8 1.6 1.4 2.3.3.4.2 1.2.8 1.4.3.9.7 1.6 1.4 2.3.4.8.8 1.6 1.4 2.3.4.4.2 1.1.9 1.4.3.9.7 1.7 1.5 2.2.3.8.7 1.7 1.5 2.2.3.8.7 1.6 1.5 2.2.1.4.4.7.7.9.5.7.8 1.6 1.5 2.1.1.4.4.6.7.8.6.7.8 1.6 1.6 2.1.1.4.4.6.7.8.5.7.8 1.6 1.6 2.1 0 .5.3.7.7.8.1.4.4.6.7.8.8 1.4 2 2.5 3.1 3.7l-.1-.1c.1.4.4.7.7.8 1.1 2.1 3 3.4 4.5 5.2l-.1-.1c.1.4.3.7.7.8.1.4.4.6.7.8.2.3.4.6.7.8 4.3 5.1 9 9.8 14.2 14.1.2.3.4.6.8.7.2.4.4.6.8.7l-.1-.1c1.2 1.1 2.2 2.3 3.7 3.1.2.4.4.7.9.7.5.8 1.4 1.1 2.1 1.6.2.3.4.6.9.7.5.8 1.3 1.1 2.2 1.5.6.7 1.4 1.1 2.2 1.5.6.7 1.4 1.1 2.2 1.5.6.7 1.4 1.1 2.2 1.5.6.7 1.4 1.1 2.2 1.5.6.7 1.4 1.2 2.2 1.5.6.8 1.4 1.2 2.2 1.5.2.6 1 .5 1.4.9.7.6 1.5 1 2.3 1.4 1.1 1 2.5 1.5 3.8 2.2.3.6 1 .5 1.5.8.3.6 1 .4 1.5.8.4.5 1 .4 1.5.7.4.5 1 .4 1.5.7.4.6 1 .5 1.5.7 1 .9 2.5.9 3.6 1.6.4.5 1.1.4 1.6.7 1.1.9 2.5 1 3.7 1.6.7.6 1.4 1 1 2.1-.7 2.2-.4 4.6-1.1 6.9-.6.7-.3 1.8-.7 2.6l.1.2-.2.2c-.7.7-.1 1.6-.7 2.3v-.1c-1 .8 0 2.1-.8 3-.7.6-.2 1.6-.7 2.3v-.1c-.8 1.7-1 3.5-1.5 5.2-.7.6-.3 1.6-.7 2.3-1.1.7-.1 2.1-.9 2.9-.7.6-.2 1.6-.7 2.3v-.1c-.8 1.7-1 3.5-1.5 5.3-1 .8-.1 2.1-.8 3v-.1c-1 .8-.1 2.1-.8 3v-.1c-.9.8-.1 2.1-.8 3.1v-.1c-1.1 4-2 8-3 12-1 .8-.1 2-.8 2.9-1 .8-.1 2.1-.8 3v-.1c-1 .8 0 2.1-.8 3v-.1c-.9.8 0 2.1-.8 3v-.1c-.9.8-.1 2.1-.7 3-.7 1.7-1 3.5-1.5 5.3-1 .8 0 2.1-.8 2.9-.7.6-.2 1.6-.7 2.3v-.1c-.8 1.7-1 3.5-1.5 5.3-1.1 1 .1 2.6-.8 3.7-.9 1.7.1 3.7-.7 5.5.2.4.2.8 0 1.1-.6 2-.3 4.4-2.3 5.9-.2.3-.5.5-.7.8-.3.2-.6.5-.7.8-.5.3-.4 1-.8 1.5-.5.5-.5 1 0 1.4.4.4.2 1.2.9 1.4l-.1-.1c1.1.5 2.1 1.8 3.6.8.7-.5 1.7 0 2.3-.7.4-.3 1.1-.2 1.5-.7.4-.4 1.1-.2 1.4-.8.8-.4 1.6-.8 2.3-1.4.4-.4 1.2-.2 1.4-.9.9-.3 1.7-.7 2.2-1.5.9-.3 1.7-.6 2.2-1.5.4 0 .7-.3.9-.6.7-.5 1.6-.8 2.2-1.5.8-.5 1.6-.8 2.2-1.5 1.2-.5 2.1-1.4 3-2.2 1.1-.5 2.1-1.3 2.9-2.2.4-.1.7-.4.9-.7 1.1-.6 2.1-1.3 2.8-2.3.4-.1.7-.3.8-.7.3-.1.6-.4.8-.7.8-.6 1.6-.7 2.4-.1.4 1.5.5 3.2 1.5 4.5v-.1c.6 1.8 1.4 3.6 2.3 5.3v-.1c.3.5.2 1.2.7 1.6.7.6 0 1.7.8 2.2v-.1c.6.6-.1 1.7.8 2.2.4 1.3.7 2.6 1.4 3.8.6.6-.1 1.7.8 2.2.2.5.1 1.2.7 1.5.3.5.2 1.1.7 1.5.3.5.2 1.1.8 1.5.3.8.8 1.6 1.4 2.3.5.8.8 1.6 1.5 2.2.4.8.8 1.6 1.5 2.2.5 1.2 1.4 2.1 2.2 3a4.8 4.8 0 0 0 3 2.9c.7 1.1 1.9 1.1 2.9 1.6 1.4.8 2.9.9 4.3-.1h-.1c.5-.2 1.2-.1 1.5-.7.4-.1.7-.3.8-.7.3-.2.6-.4.7-.7.3-.2.6-.4.7-.8.7-.6 1-1.4 1.5-2.1.6-.7 1.1-1.4 1.4-2.3.6-.3.5-1 .8-1.4.5-.3.4-1 .8-1.5.5-.4.4-1.1.8-1.5.5-.4.3-1.1.8-1.5.5-.4.3-1.1.8-1.5.8-1.2 1.5-2.5 2.1-3.8.6-.3.5-1 .8-1.5.6-.3.5-1 .8-1.5.5-.4.4-1.1.8-1.5.9-1.2 1.5-2.5 2.1-3.8.7-.3.6-1 .8-1.5.6-.3.5-1 .8-1.5.6-.3.5-1 .7-1.5.6-.3.5-1 .7-1.5.9-1 .9-2.5 1.6-3.6.5-.4.4-1 .7-1.5.5-.4.5-1 .7-1.5.9-.5.2-1.6.9-2.2.5-.4.5-1 .7-1.6.9-.5.2-1.6.8-2.2.7-1.2 1-2.5 1.4-3.7.8-.5.2-1.6.8-2.2.5-.4.4-1 .6-1.6.9-.5.3-1.5.8-2.2.8-.4.2-1.8 1.6-1.8 1 2-.4 4.3.8 6.3l-.1-.1c.9 1.9-.3 4.1.7 6v-.1c.5 6 1.4 12 1.9 18.1.4 4.7.6 9.4 1.9 14v-.1c1.3 8.5 2.3 17 4.5 25.3v-.1c.7.9-.2 2.2.8 3 .4.7 0 1.7.7 2.3.6.6 0 1.7.8 2.3.3.5.2 1.1.7 1.5.3.4.2 1.1.8 1.4.1.4.3.7.7.8.1.4.4.6.8.7.2.6 1 .5 1.4.9.2.3.5.5.8.7.2.3.5.6.9.7l-.1-.1c2.2.9 4.4.8 6.5 0h-.1c.5-.2 1.2-.2 1.6-.7.4-.4 1.1-.2 1.5-.8.4-.3 1.2-.2 1.4-.8 1.3-.3 2.1-1.4 3-2.1.8-.4 1.6-.8 2.1-1.5.4-.1.6-.4.9-.7.7-.5 1.6-.8 2.2-1.5.8-.4 1.6-.8 2.2-1.5 1.3-.9 2.3-.4 3.1.8.5.7.8 1.6 1.5 2.1.1.4.4.7.7.9 2.4 3.1 5 6 8.3 8.1.1.4.4.7.9.7l-.1-.1c1.7 1.5 3 3.5 5.1 4.5.1.4.4.7.8.7.5.8 1.4 1.1 2.2 1.5h-.1c3.6 2.3 6.7 1.3 9.5-1.6l-.1.1c.9-.4 1.1-1.4 1.7-2.1 2.8-4.1 3.9-8.8 5.2-13.5v.1c.9-2.5 1.7-5 2.3-7.5v.1c2-6 4-11.9 6-17.9.8-.5.3-1.5.7-2.2.9-.5.2-1.6.8-2.3v.1c.8-.6.2-1.6.8-2.2 1.2-2.6 2-5.5 2.9-8.2.8-.5.3-1.5.7-2.2.9-.5.3-1.6.7-2.2.9-.6.3-1.6.8-2.3l-.1.1c1-1.6 1-3.5 1.6-5.2 1.1-1.2-.2-5.5 3.9-3 .6.6 1.5 1 2.2 1.5.7.6 1.4 1.1 2.3 1.4.3.6 1 .5 1.5.8.3.6 1 .4 1.5.8.4.5 1 .4 1.5.7.4.5 1 .4 1.5.7.4.6 1 .5 1.5.7 1.6 1 3.4 1.7 5.1 2.4.4.5 1.1.4 1.5.7.4.5 1 .4 1.5.7.4.6 1 .5 1.5.7 1.1.9 2.5 1 3.7 1.6 1.2.7 2.5 1 3.8 1.4.5.8 1.6.2 2.2.7 1.6.9 3.5 1 5.2 1.6 1.7.8 3.5 1 5.2 1.5.8 1 2.1.1 3 .8 1.7.7 3.5 1 5.3 1.4.8 1.1 2.1.1 3 .8.8 1 2.1.1 3 .8.8 1 2.1.1 3 .8.8 1 2.1.1 3 .8.8 1 2.1.1 3 .8 3.9 1.3 7.9 2.2 11.9 3 4.7 1.3 9.4 2 14.2 3 1.1 1.1 2.6 0 3.7.8 1.1 1.1 2.6 0 3.7.8 6.4 1.5 12.9 2.2 19.4 3 5.2.9 10.4 1.3 15.5 2 5.4.7 10.8.4 16.2.8 3.9.3 4 .7 1.7 4-.3.2-.6.4-.7.8-.3.2-.6.4-.7.8-.3.2-.6.4-.7.8-.4.1-.6.4-.7.8-.4.1-.7.4-.7.8-1.2 1-2.2 2.2-3.1 3.5-.2.3-.5.5-.7.8-.3.2-.5.5-.7.8-.3.2-.6.4-.7.8-.3.2-.6.4-.7.8-.4.1-.7.4-.7.8-1 .7-1.6 1.8-2.4 2.8-.2.3-.5.5-.7.8-.3.2-.6.5-.7.8-.4.2-.6.4-.7.8-.8.5-1 1.4-1.6 2.1-.3.3-.6.5-.7.8-.7.6-1.1 1.4-1.4 2.2-.9.5-.3 1.6-.8 2.3l.1-.1c-1.2 1.7.1 3 .8 4.3l-.1-.1c.3 1.2 1.1 1.8 2.2 2.3.8.9 2 1.1 3 1.5 5.9 2 11.8 1.7 17.7 0 .7-.5 1.7.1 2.3-.7.6-.6 1.7 0 2.2-.8 1.8-1 1.7.8 2.4 1.6v-.1c.9 1.4-.4 3.2.8 4.5l-.1-.1c.6 1.4.1 2.9.3 4.4.6 3.5.1 7.3 2 10.6l-.1-.1c.8 1.4 1.1 3.2 3 3.7h-.1c3 2.4 6.2 2 9.5.8 1.3-.5 2.7-.6 3.8-1.5.5-.2 1.2-.1 1.5-.7.5-.3 1.2-.1 1.5-.8 1.3-.6 2.7-1.1 3.7-2.2.9-.3 1.7-.7 2.2-1.5 1.6-.5 2.5-1.9 3.8-2.9 1.4-.5 2.3-1.8 3.3-2.8 4.4-4.2 8.5-8.8 13.1-12.8.3-.2.6-.4.8-.8.4-.5 1-.9 1.4-1.5.4-.1.7-.3.8-.7.4-.1.7-.3.8-.7.4-.1.6-.4.8-.7.4-.1.6-.4.8-.7.4-.1.6-.4.8-.7.3-.1.6-.4.8-.7.3-.2.6-.4.8-.7.3-.2.6-.4.8-.7.3-.2.6-.4.7-.7.3-.2.6-.4.7-.7.3-.2.6-.4.7-.7.3-.2.6-.4.7-.8.3-.2.6-.4.7-.8.4-.1.7-.4.7-.8.8-.5 1.1-1.3 1.5-2.1.5-.3.4-1.1.8-1.5.5-.4.4-1.1.7-1.5.5-.4.4-1.1.7-1.6 1.5-.5 1.7 1.1 2.5 1.5.1.4.3.7.7.8.1.4.4.6.8.8 1 1.9 2.5 3.4 4.4 4.4.1.4.4.7.8.8l-.1-.1c1.2 1 2.2 2.4 3.7 3 1 1.1 2.4 1.6 3.7 2.2 1.1 1.6 4.3.2 4.4 3.2-.7.6-1.1 1.4-1.5 2.3-.7.6-1.1 1.4-1.5 2.2-.7.6-1.1 1.4-1.5 2.2-.7.6-1 1.5-1.5 2.2-.3.2-.6.5-.7.9-.6.2-.4 1-.9 1.3-.2.3-.6.5-.7.9-.7.6-1.1 1.4-1.5 2.2-.7.6-1.1 1.4-1.5 2.2-.7.6-1 1.5-1.5 2.2-.6.6-1 1.5-1.5 2.2-.3.2-.6.4-.6.9-.6.2-.5 1-.9 1.4-.3.2-.6.5-.6.9-.6.2-.5 1-.9 1.3-.3.2-.6.5-.6.9-.6.2-.5 1-.9 1.4-.3.2-.6.5-.6.9-.6.3-.4 1-.9 1.3-.3.3-.5.5-.6.9-.7.6-1.1 1.4-1.5 2.2-.7.6-1.1 1.4-1.5 2.2-.6.3-.4 1-.8 1.5-.5.4-.4 1.1-.8 1.5-.5.4-.4 1-.7 1.5-.8.6-.2 1.6-.8 2.3v-.1c-.9 1.2-.7 2.4-.1 3.6v-.1c1.4 2.1-1 3.1-1.4 4.7l.1-.1c-.8.9-.7 1.9 0 2.9v-.1c.3.5.2 1.1.8 1.5.1.4.4.6.8.8l-.1-.1c2.5 2.2 5.3 1.6 8.1.8 1.7-.7 3.6-.7 5.2-1.6.7-.5 1.7.1 2.3-.7.7-.5 1.7.1 2.2-.7.6-.5 1.7.1 2.2-.8.9-.3 1.9-.5 2.7-1 2.2-1.3 3.1-.8 3 1.8-.2 4.8.8 9.4.9 14.2.1 2.6.1 5.5 1.1 8.1v-.1c.5.7-.1 1.7.7 2.3.3.5.2 1.1.8 1.4.4 1.1 1.1 1.8 2.2 2.2.4.7 1.1.6 1.7.8 4 .6 7.4-.8 10.5-3.2 1.5-1.2 2.9-2.6 4.7-3.5 1.5-.7 2.6-2 3.7-3.1l-.1.1c.4-.1.7-.3.8-.7.4-.1.6-.4.8-.7 2.4-1.6 4.4-3.6 6-5.9.3-.2.6-.4.7-.8.3-.2.6-.4.7-.8.4-.1.6-.4.7-.8.4-.1.6-.4.7-.8.4-.1.7-.4.7-.8l-.1.1c1.5-1.7 3.4-3.1 4.6-5.1.3-.2.6-.4.7-.9.6-.2.5-1 .9-1.4 1-1.7 2.4-1.3 3.9-.9 2 .5 4 1.2 6.1 1.3 8 .4 15.8-.8 23.5-2.7 2.2-.6 4.6-.7 6.7-1.6 2.8-.7 5.6-1.1 8.2-2.2 1.7-.6 3.6-.7 5.2-1.6 3.8-.9 7.6-2.1 11.2-3.7.6-.6 1.7.1 2.2-.8 1.3-.4 2.7-.6 3.8-1.5 1.3-.5 2.7-.6 3.7-1.5 1.9-.5 3.6-1.3 5.2-2.3.5-.2 1.2-.2 1.5-.7 1.8-.6 3.6-1.3 5.2-2.4.5-.2 1.2-.1 1.5-.7.5-.2 1.2-.1 1.5-.7.5-.3 1.2-.2 1.5-.7.5-.3 1.1-.2 1.5-.7.5-.3 1.1-.2 1.5-.7.5-.3 1.2-.2 1.5-.8.5-.3 1.2-.2 1.5-.8.5-.3 1.2-.1 1.5-.8.5-.2 1.2-.1 1.5-.8 1.8-.9 3.7-1.6 5.3-2.9.4-.3 1.2-.2 1.5-.8 1.3-.7 2.7-1.2 3.7-2.2.4-.3 1.2-.2 1.4-.8.9-.2 1.6-.7 2.3-1.4.8-.4 1.6-.8 2.3-1.4 1.6-.9 3.2-1.7 4.5-3 .8-.5 1.6-.8 2.2-1.5.8-.4 1.7-.7 2.2-1.6 1.2-.4 2.1-1.3 2.9-2.2.4-.1.7-.4.9-.7 1.1-.6 2.1-1.4 2.9-2.3 1.9-.8 3-2.4 4.4-3.8l-.1.1c.5 0 .7-.3.8-.7.4-.1.6-.3.8-.7.4-.1.6-.4.8-.7 3.7-2.8 6.9-6 9.7-9.7.4-.2.6-.4.7-.8.4-.1.7-.4.7-.8l-.1.1c1.3-1.4 2.9-2.6 3.8-4.4.9-.9 1.7-1.8 2.3-2.9.3-.2.6-.5.7-.9.9-.9 1.7-1.8 2.2-2.9.8-.9 1.7-1.8 2.2-3 .7-.6 1-1.4 1.6-2.2.3-.2.6-.5.7-.9.8-.5 1.1-1.4 1.5-2.2.7-.6 1.1-1.4 1.5-2.2.7-.6 1-1.5 1.5-2.2.6-.7 1.1-1.4 1.5-2.3.7-.6 1.1-1.4 1.4-2.3.6-.3.5-1 .8-1.4.6-.7 1.1-1.4 1.4-2.3.6-.3.5-1 .8-1.5 1-1.1 1.5-2.5 2.1-3.8.6-.3.5-1 .8-1.5.6-.3.5-1 .8-1.5.5-.3.4-1 .8-1.5.5-.4.4-1 .8-1.5.5-.4.4-1.1.8-1.5 1.3-1.8 2.1-3.9 3-6 .5-.4.4-1.1.7-1.5.5-.4.4-1 .7-1.5.5-.4.4-1 .7-1.5.5-.4.5-1 .7-1.5.6-.4.5-1 .7-1.5 1-1 1-2.4 1.6-3.6.5-.4.5-1.1.7-1.6l-.1.1c.9-1.1 1.1-2.5 1.6-3.8v.1c1.2-1.8 1.5-4 2.3-6 .8-.5.3-1.5.7-2.2.8-.5.3-1.6.7-2.2.9-.6.3-1.6.8-2.3l-.1.1c1-2.4 1.7-4.9 2.3-7.5l-.1.1c1.2-2.6 1.5-5.5 2.3-8.2.9-.8.1-2.1.7-2.9 1-.8.1-2.1.8-3l-.1.1c1.4-4.7 2.4-9.4 3-14.2l-.1.1c1.1-3.1 1-6.5 1.6-9.7v.1c1.5-6 1.3-12.2 1.8-18.2.9-9.6-.1-19.3-.8-28.8-.2-2.8 0-5.9-1.1-8.7l.1.1c-.9-1.9.4-4.1-.8-6l.1.1c-.6-4.5-1.1-9-2.3-13.5l.1.1c-.5-2.3-.7-4.6-1.5-6.8v.1c-.7-3-1.1-6.1-2.3-9v.1c-.5-1.8-.7-3.6-1.5-5.3v.1c-.5-1-.5-2.1-.7-3.1-.3-1.4.8-1.1 1.6-.8 9.7 2.1 19.2 1.8 28.1-3.1.5-.3 1.2-.1 1.5-.7.5-.2 1.2-.1 1.5-.8 1.3-.6 2.7-1.2 3.8-2.1.4-.4 1.2-.2 1.4-.8.9-.3 1.7-.7 2.2-1.5 1.2-.4 2.1-1.3 2.9-2.2.4-.1.7-.3.8-.7.4-.1.6-.4.8-.7.3-.2.6-.4.8-.7.3-.2.6-.4.7-.7.3-.2.6-.4.7-.8.3-.2.6-.4.7-.8.4-.2.7-.4.7-.8.8-.5 1.1-1.4 1.6-2.1 3-2.2 6.4-.8 9.6-1 12.4-.8 23.7-4.7 34.3-11 1.3-3.2 2-6.7-1-11.1Zm-50.5 1.7c-.3 2.7-.5 2.9-3.2 2.2-4-1-7.9-2.2-11.4-4.2-2.4-1.4-4.7-3.2-4.3-6.3.4-3.2 2.9-4.6 5.8-5.5 4.8-1.4 9.3.4 11.6 4.8 1.2 2.2 1.8 4.6 1.7 7.1-.1.6-.2 1.3-.2 1.9Z" fill="#282828"/><path d="M86.5 83c1.6-2.1 3.6-3.7 5.6-5.4 1.7-1.4 3.5-2.7 3.7-5.9 4.1 5.4 7.6 10.2 11.3 14.8 8.3 10.5 17.4 20.3 29 27.4 10.2 6.2 20 5.2 29.1-2.5 6.5-5.5 12.1-12 17.7-18.5 8.1-9.4 16-18.9 22.2-29.7 4.4-7.6 8.1-15.6 9.9-24.3.7-3.3.9-6.6 1.1-9.9-.7-2.1 0-3.2 2.2-3 16.2 1.7 32.6 1.8 48.7 4.4 21.5 3.5 42.1 10 62.7 16.9 27.3 9.2 53.1 21.8 78.9 34.5 14.7 7.2 28.4 16.2 42.2 25 3 1.9 6.1 3.7 9.6 4.7 1.1.3 2.9.6 2.1 2.6-3.6 4.3-5.7 9.2-7 14.6-2.3 10.1-5 20.2-7.5 30.3-2.3 9.3-4.1 18.7-3.4 28.3.8 11.2 3.3 22 8.9 31.9 5.2 9.1 13 13.3 23 14 4.3.3 8.7-.2 13-.7 10.2-1.3 20.4-2.4 30.4-5.2 3.2-.9 6.4-2 9.8-3 1.1 1.7 1.1 3.7 1.5 5.6 3.2 14 4.3 28.1 4.3 42.4-.1 15.8-4.4 30.8-10 45.4-12.9 33.7-33.1 62.5-58.6 87.7-8.6 8.5-18.6 15.1-28.9 21.5-19.1 11.8-39 22-60.2 29.9-16.5 6.1-33.4 10-50.9 12-14.3 1.6-28.7 1.9-43.1 1.9-30.4.1-60.3-4.2-89.8-10.9-12-2.7-23.8-6.1-35.7-9-4-1-8-1.7-12.1-2.1-.9-.1-1.9-.5-2.8.4-.1 1.3.9 1.6 1.6 2.2 5.8 4.7 12.3 8.4 19.3 10.9 7.7 2.8 15.4 5.5 23.1 8.2 1.2.4 2.3.9 3.4 1.3.7 7.7.1 15.5.3 23.2 0 1.4-.7 2.1-1.8 2.4-4.4 1.3-6.4 4.8-8.1 8.6-1.9 4.4-3.9 8.8-5.8 13.2-.6 1.3-1 2.9-3 2.7-5.6-2.9-11.6-4.6-17.5-6.7-.6-.2-1.2-.5-1.9-.4h-1c-2-.5-3.4-1.8-4.6-3.4-3.2-3-7-4.7-11-6-.6-.7-1.6-.1-2.3-.7-.6-2.6.7-4.8 1.3-7.2 4.3-15.2 4.8-30.8 4.4-46.4a9.5 9.5 0 0 0-4.1-7.6c-2-1.5-3.6-3.4-5-5.4-3-4.3-7.1-7.7-11.4-10.5-16.6-10.7-30.4-24.6-43.6-39-15.2-16.6-27.8-34.9-37.2-55.3-7.3-15.8-14.2-31.7-16.5-49.1-1.3-9.8-2.6-19.7-2.5-29.5.1-17 3-33.7 7.6-50.1 3.9-14 8.1-27.8 14.3-41 5.5-11.8 12.1-23 18.9-34.1 5.7-9.2 12.1-17.9 17.9-26.9 4-5.9 7.2-12.3 8.3-19.5Z" fill="#FFC6CE"/><path d="M294.8 521c1.2-4 2.5-8 3.6-12.1.5-1.8 1.1-3.6.8-5.5-.3-1.7-.9-3.2-2.7-3.7-1.6-.5-2.9.4-4 1.5-1.5 1.6-2.2 3.6-2.8 5.6-2.3 6.9-4.5 13.9-6.7 20.8-.6 1.8-1.2 3.5-2.5 4.9-1 1.1-1.5 2.6-2 4-2.9 7.6-5.9 15.3-8.8 22.9-.4 1.1-1 2.2-1.5 3.4-3.9-.7-7.6-2.7-11.7-2-1.2.2-2.5-.1-3.6.6-.8.5-1.5 1.1-2.5 1.3-.8.1-1.5 0-2.1-.6-2.2-2.1-5-3.2-8-3.7-6.8-1.2-13.6-2.5-20.4-3.8-1.5-.7-1.7-2-1.8-3.4-1-7.8-1.9-15.7-2.3-23.6-.5-10.6-2.1-21.1-4.6-31.5-1.2-4.9-2.5-9.8-3.7-14.7-.4-1.7-1-3.4.5-4.9.2 0 .5.1.7.1.9.8 2.1 0 3.1.7 6.6 1.2 13.1 2.4 19.7 3.7 10.5 2.1 21.1 3.1 31.7 3.5 17.7.7 35.4 1 53.1-.3 14.6-1.1 29.1-3.1 43.2-6.9 12.8-3.4 25.3-7.8 37.4-13.4 16-7.3 31.6-15.5 46.6-24.7 19-11.7 35.6-26 49.4-43.4 11.3-14.2 21.9-28.8 30.5-44.8 9.4-17.4 17-35.6 21.1-55 2.7-12.7 2.9-25.6.9-38.4-.7-4.6-1.3-9.3-2.3-13.9-1.5-7.4-3.9-14.6-8.4-21.6 5.3-.1 9.7-2.6 14.5-2.8 2-.8 4.1.2 6.1-.6h1.5c3.1 6.5 3.6 6.7 11.2 6.3 2.6-.1 5.1-.9 7.5-1.7 4.9-1.5 9.8-2.3 14.9-1 7.7 1.5 15 4.3 22.2 7.2 12.1 4.8 23.4 11.4 34.6 18 16.7 9.8 33.2 19.8 48.4 31.9 1.4 1.2 3 2.2 4.2 3.7 7.4 7.3 12.5 16.3 17.5 25.2 19.8 35.3 30.8 73.4 35.5 113.4 3 25.6 1.7 50.9-3.9 76-5.1 22.7-14.3 43.7-26 63.8-2.8 4.8-5.7 9.6-9 14.1-2.4 1.7-4.5 3.7-4.9 6.9-14.8 19.8-32.6 36.2-54.5 47.9-10.7 5.7-22.3 8.9-34.1 11.5-8.8 1.9-17.7 3.5-26.5 5.7-5.6 1.4-11.1 3.2-17 3.1-1 .5-2 1-2.9 1.6-1.2.9-2.2 2.4-1.6 3.8 1.3 2.8-.3 3.9-2.2 5.2-1.9 1.3-3.6 2.9-5.4 4.3-2.7.7-2-1.4-2-2.6.1-2.3.3-4.6.3-6.9.1-1.6.4-3.2-.3-4.7-.8-1.8-1.6-3.8-4.3-2.4-.9 1.1-2 2-3.5 1.2-1.6-.9-2.6-2.3-2.6-4.1 0-1.7.5-3.4-.3-5-1.4-2.8-3.7-4.7-5.9-6.7-1-1.6 0-2.8.6-4.1 1.8-4 4.1-7.6 6.1-11.5 4.8-9.1 2.9-17.7-4.9-23.3-4.2-3-6.7-7.5-9.4-11.9-11.6-18.9-16.5-39.8-18.8-61.5-.9-8.7-1.7-17.5.2-26.2 4.5-12.8 10.7-24.6 19.4-35.1 3.7-4.5 7.6-8.8 11.8-12.8 1.4-1.4 2.9-2.7 3.7-4.5-.2-1.8 1.4-2.1 2.5-2.8 2.1-1.4 4.2-2.6 5.8-4.6 1.8-2.3 2.7-4.8 1.3-7.6-1.4-2.8-4.1-3.5-6.9-3.3-3.2.2-6 1.3-8.7 3-15 9.3-28.2 20.6-38.3 35.2-7.8 11.2-14.9 22.8-19.8 35.7-4 10.7-5.9 21.7-6.7 33-.5 6.6-1.3 13.3-.2 20 .6 3.7-1.1 4.7-5.3 4.5-15.3-.9-30.2-3.6-45.3-6.1-25.8-4.3-51.6-8.5-77.5-12a659.8 659.8 0 0 1-30.9-4.8c-10.3-1.9-19.6-6.3-28.9-10.5-.6-.7-1.5-1-1.2-2.2Z" fill="#FFC6CE"/><path d="M713.1 575.4c2.7-4.9 6-9.3 8.8-14.2 5-8.8 9.6-17.8 13.8-27.1 5.2-11.4 8.9-23.3 12-35.4 1.6-6.3 2.4-12.8 3.5-19.2 1.1-6.7 1.1-13.5 2-20.2.5-3.7 0-7.4.1-11.1.4-7.6-.3-15.1-.9-22.6-.8-8.9-2.4-17.8-3.9-26.6-2-11.2-4.8-22.1-8-33-3-10.4-6.5-20.7-11-30.7-2.6-5.9-5.1-11.8-8.1-17.5-6.3-11.8-12.9-23.3-21.2-33.8-.2-.3-.3-.7-.4-1 1.9.9 3.3 2.6 4.9 4 24.5 21.1 41.8 47.1 53.4 77.1 7.1 18.3 12 37.2 14.4 56.7 3.5 28.3 1.1 56-6.3 83.5-6.5 24.3-16.8 46.7-30.6 67.7-16.4 24.8-38.4 43.1-64.9 56.3-19.9 10-40.6 17.7-62.5 21.9-3.8.7-7.6 1.3-11.4 1.8-2.7.3-5.4.4-8.1-.4-3.9-1.2-7.8-1.2-11.8-1 1.4-1.2 3.1-.6 4.6-.7 1.3-.1 2.7.1 4-.6 4.2-2.4 8.9-2.9 13.4-3.9 13.3-3 26.8-5.2 39.8-9.6 12.4-4.1 23.6-10.5 34.1-18.3 9.2-6.8 17.2-14.8 25.1-23 3.1-3.2 5.6-6.8 8.4-10.3.6-.8 1.2-1.6 2.1-2 .9 0 1.5.8 2.2 1.2 2.3 1.3 4.9.5 6.2-1.9 1.2-2.2.5-3.7-2.4-5-.4-.4-.9-.6-1.3-1.1Z" fill="#E9B5BC"/><path d="M545 206.7c-12.7 6.3-25.7 11.7-39.7 13.9-8.4 1.3-16.9 2.8-25.4 3.3-11.7.8-16.5-4.2-19.5-11.4-5.7-13.4-6.4-27.1-3.5-41.1 1.7-8 3.5-15.9 6-23.7 2-6.4 2.6-13.1 4.6-19.5.3-.9.6-1.9 1-2.8.8-1.6 2.1-1.4 3.5-1.2 17 2.5 32.1 9.4 44.6 21.1 9.6 9 17 20 22.9 31.7.4.8.7 1.6.6 2.5-3.3 4.5-1.3 10.4 4.3 12.4 1.1.4 2.5 0 3.1 1.5-1.2 2-1.3 4.1-.9 6.3.2 2.6.6 5.1-1.6 7Z" fill="#FFC6CE"/><path d="M86.5 83c.9 1.5.8 2.9.2 4.5-3.4 10.7-10.1 19.4-16.3 28.5-8.6 12.7-16.6 25.7-23.8 39.3-6.9 13.1-12 26.8-16.1 40.9-3 10.4-5.7 20.9-7.7 31.6-1 5.4-1.9 10.9-1.7 16.5.1 3.1-.8 6.1-.8 9.2 0 6 .8 12 1.3 18 .4 4.7 1 9.3 1.6 13.9 1 9.3 4 18.1 7.2 26.7 3.8 10 8.1 19.9 13.1 29.4 6.2 11.6 13.3 22.5 21.4 32.8 8.2 10.5 17 20.2 26.6 29.3 8.6 8.1 17.2 16.2 27.4 22.5 5.6 3.4 10.6 7.7 14 13.5.7 1.2 1.8 1.9 3 2.7 3.3 2.2 4.9 5.5 4.9 9.5 0 5.9.3 11.9-.1 17.8-.7 9.7-1.6 19.4-4.6 28.7-.7 2.1-.9 4.4-2.1 6.3-4.1-.3-8.2-1.4-12.4-.4-.5-1.4 0-2.5.2-3.5 2.1-9.5 4.4-19 6.4-28.6 1.6-7.9 3.6-15.7 2.7-23.9-.1-1.4 2.3-2.2.6-3.5-1-.7-2.2-1.1-3.3-1.7-12.6-8.4-25.2-16.7-37.3-25.8-10.1-7.6-18.7-16.7-26.8-26.2-26-30.5-43.8-65.2-53.2-104.2-2.5-10.1-3.6-20.5-4-30.9-.3-6.9-1-13.8-.4-20.8 1.1-12.6 3.4-25 6.7-37.2 5.7-20.9 15.1-40 26-58.5 10.1-17.2 22.7-32.4 36.7-46.5 3.6-3.3 7.1-6.6 10.6-9.9Z" fill="#E9B5BC"/><path d="M146 108.5c-1.6 0-2.8-.8-4.1-1.5-3.1-1.8-6.2-3.7-8.7-6.3-6.3-6.3-12.6-12.6-17.9-19.8-4.9-6.7-9.9-13.3-14.8-20-5.8-7.8-9.8-16.3-10.9-26.1-.7-1.6-.3-2.6 1.6-2.7 1.7-.1 3.4-.6 5.1-.8 2.7.5 5.2-.1 7.7-1.1 13.6-2.5 27.3-4.8 41-6.5 5-.6 10-1.4 15.2-1.2 6.8.2 13.5-1.4 20.3 0 3 .6 6.1 1 9 2.1 8 2.9 11 9.7 7.8 17.6-1.8 4.5-4.2 8.7-6.9 12.7-10.8 15.9-22.3 31.2-36 44.8-2 1.9-3.6 4-4.9 6.5-.7 1.4-1.3 3.1-3.5 2.3Z" fill="#FFC6CE"/><path d="M294.8 521c9.8 4.7 19.5 9.5 30.4 11.3 6.5 1.1 13.1 2.5 19.6 3.5 4.7.7 9.5 1.1 14.3 1.6 5.9.6 11.7 1.5 17.5 2.6 7.5 1.4 15 2.6 22.6 3.5 5 .5 10 1.5 14.9 2.4 6.9 1.2 13.8 2.3 20.7 3.5 6.3 1.1 12.6 2.2 18.9 3.2 3.3.5 6.6.6 9.9 1.3 4.9 1.1 9.8.4 14.7 1.2 5.1.8 5.2.1 4.6-4.3-.7-5.1-.7-10 0-15.1.5-3.3.4-6.6.7-9.9 1.2-10.6 3.4-20.9 7.6-30.8 5.6-13.4 13.4-25.6 22-37.2 3.5-4.7 7.2-9.1 11.6-13 7.8-6.9 15.7-13.6 24.8-18.6 3.6-1.9 7.4-3.4 11.7-2 4.2 1.4 6.1 5.2 4.5 9.4-1.4 3.8-4.7 5.6-7.8 7.6-1 .7-2.3.9-3.1 2-1.3-1.4-2.9-1.1-4.5-.5-3.7 1.2-6.9 3.3-10 5.7-10 7.6-18.3 16.7-24.4 27.7-7 12.6-13.2 25.6-17.3 39.4-5 17.1-5.7 34.4-.4 51.6.1.3.1.7.1 1.1 0 .1-.1.2-.3.5-11.8-2.4-23.8-1.2-35.8-1.3-13-.2-26-.9-39-1.6-.9 0-1.7 0-2.5-.6.3-.4.7-.6 1.2-.2-.2-.2-.5-.3-.8-.3-.8.1-1.7-.2-2.4.3-1.6.1-3.2.2-4.7-.6.5-.5 1.1-.5 1.7-.4a691 691 0 0 1-49.6-7.8c-.8-.2-1.6-.7-2.5-.1-7.5-1.8-15.1-3.7-22.6-5.4-16-3.6-31.2-9.1-46.2-15.7-.2-.1-.5-.2-.7-.3-1.3-.9-3.7-.2-4.1-1.9-.3-1.2.8-2.8 1.3-4.2 1.4-2.6 2.4-5.1 3.4-7.6ZM462.3 114.2c-.1-.9-.6-1.3-1.4-1.5-5.6-1-9.9-4.4-14.4-7.3-10.6-6.7-21.1-13.3-32.1-19.3-11.8-6.5-24.2-11.9-36.3-17.8-9.5-4.6-19-9-28.8-12.8-11.5-4.5-23.2-8.6-35-12.2-8.3-2.5-16.4-5.3-24.9-7.3-9.6-2.2-19.2-4.6-29-5.7-3.6-.4-7.4-.7-11-1-4.2-.3-8.4-.4-12.5-1.2-2-.4-4.2-.2-6.3-.2-4.1.2-8.2-.2-12.1-1.2-2.2-.6-2.3.6-2.4 2.1-.7-4-1.4-8-3.6-11.4.8-1.2 1.9-1 2.8-1.1 15.1-1.5 30.1-1.4 45.2-.6 7.8.4 15.6.4 23.4.4h3.7c-.8 2.2-2.3.4-3.2 1.1 3.8-.5 7.5 1.4 11.4 1.9 7.1 1.7 14.1 3.8 20.9 6.3 5 1.8 10 3.5 15.2 5 2.8.8 5.7 1.8 8.4 3 15.1 6.9 30.5 12.9 45.4 20.2 22 10.8 43.1 23.3 63.3 37.2 5.4 3.7 10.8 7.5 17 9.9 1.5.6 2.9 1.5 4.6.7.1 1.8.1 3.6.8 5.4-3.3 2.4-6.3 4.9-9.1 7.4ZM96.2 31.9c-1.7.8-3.3 1.6-5.2 1.3-1.8-.4-1.3.9-1.5 1.7-.8-1.1-.8-2.4-.5-3.6 1.5-6 4.2-11 10.9-12.8 16.1-4.5 32.3-8.4 49-10.3 11.6-1.3 23.2-1.7 34.8-.2 4.8.6 9.4 2 13.6 4.7 8.7 5.6 11.7 12.7 9.5 22.9-2.1 9.6-6.4 18.2-11.5 26.4-7.3 11.7-16.5 22-25.5 32.3-3.6 4.1-7.3 8.1-11.7 11.4-3.6 2.7-7.4 4.4-12 2.8 1.2-.2 2-.7 2.4-2 .9-2.9 2.8-5.2 5-7.2 11.5-11.2 21.3-23.9 30.7-36.9 4.3-6 8.4-12.2 11.7-18.9.8-1.7 1.5-3.4 1.7-5.3.7-7.1-2.7-10.9-9-13-5.2-1.7-10.7-2.6-16-2.2-6.4.4-12.8.2-19.2.7-6.4.5-12.6 1.9-19 2.7-4.1.5-8.3.8-12.4 1.6-4.3.9-8.7 1.5-13 2.5-1.7.4-3.4.5-5.1.5-.4-1.3 1-3.4-1.4-3.9-2.2-.5-4 .4-5.3 2.3-.7.8-.8 1.7-1 2.5ZM172 521.2c.9.3 1.6.2 2-.8 1.8-4.4 3.8-8.8 5.6-13.3.8-1.9 1.8-3.8 2.8-5.6 1.3-2.4 3.3-4.1 5.9-4.6 2.2-.4 2.3-1.6 2.3-3.4 0-7.2 0-14.3.1-21.5 1 0 1.2.6 1.1 1.5-.6 7.2-.6 14.3-.5 21.5 0 1.6-.3 3.2-.9 4.7-5.8 13.3-11.4 26.6-17.3 39.9-3.8 8.5-8.7 16.4-13 24.6-.2.3-.4.6-.9 1.2-2.9-3.9-5.9-7.4-7.7-11.5-3.3-7.5-7.7-14.4-11.7-21.5-1-1.9-3.2-2.6-3.9-4.8-.3-.8-1.8-.5-2.8-.2-2.7.7-5.1 1.9-7.4 3.4l-12.9 8.7c-.9.6-1.8 1.2-3.1 1.6 3.4-10.5 7.6-20.8 10.1-31.9 7 5.5 14.9 5.6 22.8 5.1 1.2-.1 2.4-.5 3.6-.8 1-.3 1.3-1 1.1-2 1.9.7 3.2 2.6 5.3 2.9 0 2.9 1.6 4.5 4.1 5.4 3.3 1.2 6.6 2 10.1 1.8 1.3 0 2.7-.1 4 .5.2.1.3.3.5.5.3.5-.5.8-.1 1.3.3-.4.5-.8.4-1.3 0-.5.1-.9.4-1.4ZM539.7 179.8c-5-10.4-11.6-19.7-19.1-28.5-7.8-9.1-17.4-15.3-28.2-20.3-7-3.2-14.4-4.2-21.6-6.1-1-.3-1.7.2-2.4.6.8-3.3 3.4-5.3 5.7-7.6 1.4-1.4 3-2.6 4.5-3.9 2.5-2.1 5.3-2.6 8.3-1.3.2.1.5.2.7.2 7.2.5 12.6 4.8 17.8 9.1 12.6 10.1 24.8 20.5 35.2 33 4.4 5.2 8 11 11.2 17.1 2.4 4.7 4.2 9.5 4.6 14.8.9 9.9-3 16.5-11.4 19.8.9-2.6.9-5.2.2-7.8-.6-2.3-.7-4.5 1.9-5.8.3-4.8-1.3-8.7-5.2-11.7-.5-.4-1-.7-1.6-1-.2-.1-.4-.3-.6-.6Z" fill="#E9B5BC"/><path d="M520.3 495.7c0 3.1-.3 6.2-.1 9.2.3 4.8-.4 9.6.7 14.4.6 2.5.6 5.1.8 7.7.7 8.5 3.1 16.7 5.1 24.9 1.5 6.2 2.9 12.5 6.1 18.2 3.1 5.5 6 11.1 9.1 16.6 2 3.6 4.8 6.6 8.3 8.9 4.3 2.8 8.2 11.6 5.9 17.9-1.3 3.6-2.9 7.1-4.8 10.4-1.9 3.3-3.9 6.6-5 10.3-2.8-1.4-5.5-2.9-8.6-3.1-.3-1.6.7-2.5 1.4-3.5 2.4-3.9 4.6-7.9 6.6-12 2.2-4.5 1.1-8.9.5-13.4-.2-1.2-1.2-2.2-2.2-2.9-10.8-8.7-19.1-19.7-28-30.1a25 25 0 0 1-5.5-11.6c-2.9-15.2-1.8-30 2.9-44.7 1.9-5.9 3.9-11.7 6.8-17.2ZM248.2 562h2.1c2.9 2.5 6.3 2.9 9.9 2.7 1.6-.1 3.2-.1 4.7.2 1.7.4 2.7 1.2 1.6 3-3.6 7.6-5.7 15.8-8.1 23.8-.8 2.6-1.6 5.2-2.3 7.7-1.2.4-1.7-.5-2.3-1.1-4.4-4-8.7-8-12.2-13-3.3-4.8-7.5-5.6-12.7-2.8-5 2.7-8.9 6.7-12.9 10.6-1 .9-1.9 1.9-3.2 3.4-2.7-12.4-4.4-24.4-5.9-36.6 2.5 0 4.3 1 6.1 1.6 7.3 2.5 14.5 4.8 22.3 5.3 2.5.2 5 .1 7.4-.5 2.5-.4 5-1.2 5.5-4.3ZM473.5 583.7h-1.1c-1.5-.1-3.1-.5-3.8 1.3-.6 1.7.5 2.9 1.6 3.8 4.7 4 9.5 7.9 14.3 11.8 1.9 1.6 3.8 3.2 5.7 4.7.1 1.1-.8 1.5-1.4 2.1-4.5 4.1-9 8.1-13.6 12.1-2.1 1.8-4.4 3.2-6.8 4.5-1.2.7-1.8.3-2.2-.9-.3-1.1-.5-2.2-.8-3.2-1.1-3.7-2.4-7.3-5.1-10.2-.6-.7-.9-1.4-.9-2.3-.2-3.1-2.3-4.5-5-5.1-3.5-.8-6.9-.3-10.3.4-2.1.5-4.2 1.3-6.9 1 2-2.9 4.2-5.2 6.3-7.6 4.1-4.8 8.3-9.5 12.4-14.3 1.5-1.8 3.1-2.5 5.4-2.5 5.6.1 11.1 0 16.7-.1-1.4 2.9-4 1.1-5.8 1.7 1.2.4 2.2 1.1 1.3 2.8ZM207.9 476.4c-.3 3.2.9 6.1 1.7 9 2.2 8.3 4.3 16.7 5.6 25.2.9 5.8 1.7 11.7 1.7 17.6 0 4.9.8 9.8 1.3 14.7.3 2.8.7 5.6.9 8.4.1 1.1.2 2.2.8 3.2-4 .1-7.8-1.1-11.8-.6-1.3.2-1.7-.7-1.8-1.8-.4-3.4-.8-6.9-1.1-10.3-.8-8.4-2.2-16.6-2.7-25-.4-6-.4-12.1-1.1-18.1-.6-6.1-.9-12.3-1.4-18.5-.2-1.8-.5-3.6-.8-5.7 3 .1 5.8 1.1 8.7 1.9ZM552.3 640.9c1.2.9.8 2.2.8 3.4 0 1.3.3 2.3 1.1 3.4 1.9 2.8 2.2 2.8 4.2-.1 1.5 2.8 3.6 5.2 5.9 7.4-.1 2.7.4 5.5-.6 8.2-.4 1-.2 2 1.2 2.1-4.5 4.3-9.4 8-14.1 11.7-.8-.2-1-.7-1.1-1.1-1.3-6.9-2.3-13.9-5.5-20.3-.4-.8-.1-1.4.1-2.1.6-2.7-.1-3.8-2.7-4.7-1.7-.6-3.4-.4-5.1-.2-4.6.6-8.8 2.5-13 4.3-.7.1-1-.2-.8-.9 3.8-4.6 6.9-9.6 10.2-14.5 1.4-2.1 1.5-2.1 3.6-.7 2.7 1.8 5.3 3.6 7.9 5.4 1.1.7 2.3 1.4 3.6 1.9 4.4 1.9 4.6 1.6 4.3-3.2Z" fill="#E9B5BC"/><path d="M473.5 583.7c.2-1.4-1.2-2.1-1.7-3.3 1.9-1.3 4.4.5 6.2-1.2 4.8-.4 9.6-.9 14.4-1.3 3.5-.3 6.8-1.2 9.4-4.1 3.9 4.6 7.5 9.1 11.3 13.5.7.9.6 1.5-.3 2.1l-1.2.9c-5.1 2.6-9.6 6-14 9.7-1.2 1-2 1.1-3-.2-5.8-7.2-13-12.3-21.1-16.1Z" fill="#FFC6CE"/><path d="M590.5 222.1c-6.6-.4-12.9 1.6-19.1 3.3-3.3.9-6.6.7-9.9.3-3.6-.4-4.6-1.7-4.6-5.4v-1.8c11.3-.6 22.6 0 33.6 3.6Z" fill="#E8B5BC"/><path d="M364.2 556c2.2-1.7 4.3 0 6.3.3 7.9 1.1 15.7 2.7 23.7 3.6 6.9.8 13.8 2.3 20.7 3.5 1 .2 2-.2 2.9.4-1 .7-2.2.2-3.2.5-10.2-.7-20.4-2.2-30.4-4.2-6.8-1.2-13.5-2.1-20-4.1Z" fill="#F5BEC5"/><path d="M266.5 568c.3-1.4.1-2.3-1.8-2.2-3.3.1-6.7.1-10-.2-2.1-.1-4.3-.7-4.4-3.5l1.5-1.5c5.9-1 11.5-.8 16.3 3.5-.2 1.4-.4 2.8-1.6 3.9Z" fill="#57453F"/><path d="M471.2 106.9c-1.8-1.5-2-2.9-.8-5.4-.1-.2-.1-.4.1-.6.7.3 1.5.5 2.2.8.3.2.5.5.8.7.3.6.8.7 1.4.8.3.3.7.5 1 .8-1.5 1-3.1 2-4.7 2.9Z" fill="#FCC4CB"/><path d="M295.7 19.2c-1.9 1.4-3.7-.2-5.6-.4-2.1-.2-4.2-1.1-6.6-1.3 1.3-1.1 3 0 4-1.3.8-.1 1.7-.2 2.5-.4 1.1-.3 1.8-.4 2.1 1.1.5 1.8 2.4 1.5 3.6 2.3Z" fill="#F6C1C9"/><path d="M268.1 564.1c-.5.1-.9.5-1.4.1-4.3-3.8-9.5-4.2-14.9-3.6.2-.2.3-.5.5-.5 3.6-.5 7.3-.5 10.9.2 1.9.4 3.4 1.4 4.9 2.5v1.3Z" fill="#E8AFB6"/><path d="M555.3 218.5c-1.9 1.3-4 .5-6.1.6 2-.9 4.1-.7 6.1-.6Z" fill="#E8B5BC"/><path d="M522.5 652c.3.3.6.6.8.9-.4.3-.7.6-1.1.8-.3.2-.7.3-.9-.1-.1-.2 0-.5.1-.6.4-.4.8-.7 1.1-1Z" fill="#8F6E6C"/><path d="M419.2 565c.7-.9 1.7-.7 2.6-.7.3 0 .5.2.3.4-.3.2-.6.3-.9.4-.6 0-1.3-.1-2-.1Z" fill="#F5BEC5"/><path d="M211.7 477.2c-1.1.1-2.2.4-3.1-.7 1.1 0 2.2 0 3.1.7ZM134.2 504.8c.8-.1 1.7-.2 2.3.7-.9.1-1.7.1-2.3-.7Z" fill="#E9B5BC"/><path d="M329.2 332.3c-1.7 14.9-4.5 29.6-10.2 43.6-2 4.9-3.2 10.2-7.8 13.6-4.5 7.3-11.6 11.3-18.9 15.2-6.5 3.5-13.7 4.2-20.9 4.9-16.2 1.4-31.2-2.3-45.3-10.3-7.8-4.4-15.1-9.5-22.3-14.7-3.2-2.3-6.7-3.6-10.8-3-5.9.9-11.8 1.8-17.7 2.2-13.4 1-26-1.2-37.9-8-16.2-9.2-26.3-23-31.9-40.4-1.8-5.5-3.6-11-4.4-16.9-.6-4.5.3-8.9.4-13.3.1-2.6.4-5.2.7-7.8-.1-4.6 2.4-8.2 4.5-12 7.7-13.5 17.9-24.8 29.3-35.2 6.9-6.3 14-12.1 21.6-17.5 13.1-9.1 27.8-14.1 43.4-16.5 19.4-3 38.5-1.2 57.1 5 13.9 4.6 26.5 11.7 37.3 21.7 8.3 7.6 14 17.3 19.4 27.1 8.2 15.1 13.7 31.1 14.7 48.3.4 4.6.4 9.3-.3 14Z" fill="#282828"/><path d="M329.2 332.3c-.4-5.1 0-10.1-.5-15.2-1.3-13.5-4.8-26.2-10.5-38.5-4.5-9.7-10-18.8-16.4-27.3-6.5-8.7-15.1-14.9-24.4-20.3-16-9.2-33.3-13.7-51.6-14.8-18.1-1.1-35.5 2-52.2 8.9-8.9 3.7-16.7 9.1-24.2 15-11.9 9.4-22.7 19.9-32.2 31.7a92.01 92.01 0 0 0-14.8 25.6c-5.1-4.3-6.1-9.1-3.1-15.6a97 97 0 0 1 9.1-15.2c5.1-7.2 10.8-14.1 17.2-20.3 9.7-9.6 20.6-17.7 32.2-24.7 8.3-5 16.7-9.7 26-12.5 7.4-2.3 15.1-3.6 22.7-4.7 8.8-1.3 17.5-.8 26.3-.6 6.7.2 13.5 1.3 20 3 8 2.1 15.9 4.6 23.7 7.4 7.6 2.7 14.1 7 20.4 11.9 3.6 2.8 7.2 5.6 10.4 8.9 4.5 4.5 8 9.6 11 15.3 7.3 14 12.4 28.8 16.4 44 .8 3 1.4 6 1.2 9.1-.1 1.4.1 2.7.4 4 1.3 5.7-.6 10.7-5.3 13.8-.9.6-1.1 1.2-1.1 2.1v5.9c0 1 .3 2.2-.7 3.1Z" fill="#E9B5BC"/><path d="M186.9 173.4c1 1.8 2.2 3.6 3.1 5.5 1.4 3 .9 5.7-1 7.5-2 1.9-5 2.2-7.9.7a13.8 13.8 0 0 1-5.1-4.8c-1.8-2.9-4.4-4.5-7.6-5.5-8.6-2.6-17.4-3.4-26.4-2.2-2.5.3-4.7 1.3-7 2.3-3.6 1.6-5 1.1-6.8-2.4-.5-1-1.4-1.7-2-2.6-1.1-1.4-1.9-2.9-2.2-4.6-.3-1.7.1-3.3 1.7-4.2 1.6-.9 3.1-.3 4.4.9.7.7 1.3 1.5 2 2.2.6.6 1.1.2 1.5-.3 1-1.2.3-2.6.5-3.9.3-2.1 1.2-3.8 3.2-4.6 2.1-.8 3.6.2 4.7 1.9 1.3 1.8 3 1.9 4.9 1.6 10-1.4 19.7-.1 29.1 3.4 4.6 1.5 8.9 4 10.9 9.1ZM403.5 276.6c-.1 1.3-.8 2.3-1.9 3-.6.4-1.6.5-1.5 1.4.1 1.2.4 2.4.8 3.6.1.5.7.6 1.2.4.6-.2 1.2-.3 1.8-.4 1.4-.1 2.4.4 3 1.7.5 1.2-.1 2.2-.8 3.1-.7.9-1.6 1.5-2.6 2-3.2 1.6-6.7 1.6-10.1 1.2-1.9-.2-3.3-1.6-4.4-3.2-1.2-1.8-2.2-3.6-3.2-5.4-4.3-8.3-11.4-12.3-20.3-13.7-4.3-.6-8.6-.2-13-.4-3.5-.2-4.2-.9-5.4-4.5.1-2.7 2-4.2 4.2-5.2 8.6-4 17.4-4.5 26.3-1.4 7 2.4 13.3 6 17.8 12.1 1.2 1.6 2.5 3 4.8 3.1 1.6.1 2.6 1.2 3.3 2.6Z" fill="#282828"/><path d="M158 402.9c-.6-3.4-2.7-6.5-1.4-10.2 1.1-3.2 3.2-5.5 6.5-5.9 3.3-.4 6.3.8 8.4 3.6 2.3 3.2 4.9 6.2 6.9 9.6 2.6 4.4 6.8 5.6 11.3 5.8 5.1.2 10.1-.8 14.4-3.8 2.8-2 5.9-1.7 8.9-.9 3 .8 3.9 3.5 4.6 6.2.2.9.1 2 .1 3-3.5-.7-6.3.5-9.1 2.6-8.5 6.6-28.5 5.9-35.7-1.2-4-4-7.2-8.4-9.3-13.7-.5-1.2-.6-3.1-2.4-2.9-1.6.2-1.7 1.9-2 3.2-.4 1.6.2 3.3-1.2 4.6Z" fill="#E9B5BC"/><path d="M158 402.9c0-1.6 0-3.2.1-4.8.1-1 .5-1.9.9-2.8.6-1.1 1.4-2.2 2.9-1.9 1.3.2 1.7 1.4 1.9 2.5 1.1 4.4 3.6 8.1 6.3 11.7 4.6 6.1 10.9 8.7 18.3 8.9 5.4.2 10.9.3 16-2.3 2-1 3.9-2.1 5.6-3.6 2.9-2.6 4.2-2.6 7.5-.2 1 2.5.3 4.6-1.4 6.5-3.6 4-8 6.8-13.1 8.1-7.5 1.9-15.1 1.9-22.8.1-10.9-2.7-17.3-10-21.4-19.9-.3-.9-.5-1.6-.8-2.3Z" fill="#282828"/><path d="M186.9 173.4c-5.8-7.5-14.2-9.9-23-11.4-6-1-12.1-1-18.1-.1-1.9.3-3.9.8-4.5-2.2-.3-1.4-1.6-2.2-3.2-1.9-1.6.3-2.6 1.4-3.1 2.9-.3 1-.2 2 0 2.9.2 1.2-.2 1.9-1.4 2.2 0-1.2-.9-1.9-1.6-2.8-2.2-2.9-2-5 .9-7.3 3.3-2.7 7.3-3.9 11.5-4.8 6.5-1.4 12.7.1 18.9 1.7 6.3 1.6 12.4 4 18.1 7.3 5.4 3.1 6.8 6 5.8 12.1-.2.4-.2.9-.3 1.4ZM403.5 276.6c-1-1.2-2.2-2.1-3.8-1.7-2.1.5-3-.6-4.2-2.1-7.6-10.2-17.9-14.9-30.4-14.8-4.3 0-8.6 1-12.6 2.7-2.4 1-4.3 2.4-5.3 4.8-3.3-4.4-3.3-6.7.9-10.4 4.7-4.2 10.2-5.7 16.7-4.9 7.3.9 14.2 2.9 21 5.6 6.1 2.4 11.3 5.9 15.1 11.4 1.8 2.9 1.9 6.2 2.6 9.4ZM64.4 240.3c.7-2.2.9-4.7 2.1-6.9 2.6-5 6.3-9.1 11.1-12 1.7-1 3.1-.7 4.4.5 1.2 1.1 1.8 2.6 1.4 4.3-.6 2.6-2.1 4.7-3.5 6.9-1.8 2.8-3.9 5.3-5.9 8-1.3 1.7-3.1 2.8-4.9 3.9-2 1.2-3.3.8-4-1.3-.3-1-.4-2.1-.7-3.4ZM376.8 340.7c-.2-2 .1-4.1.7-6.3.5-1.9 1.7-3.3 3.7-3.6 1.9-.3 3.6 1 4.4 3.2 1.7 4.3 2 8.9 1.3 13.4-.2 1.3-.3 2.7-.6 4-.3 1.4-.8 2.9-2.7 3.1-1.8.2-3.4-.1-4.5-1.8-2-3.7-2.4-7.6-2.3-12Z" fill="#E9B5BC"/><path d="M86.6 243.7c-2.3 6.4-6.4 11.2-11.8 15.1-1.1.8-2.5 2.3-3.9 1.2-1.3-.9-.7-2.8-.3-4.2 1.7-5.2 4.5-9.9 8-14.1 1.1-1.4 2.6-2.3 4.4-2.6 3.3.2 4.2 1.3 3.6 4.6ZM347 344.6c.1-1.3-.2-2.8.5-4.2 1.5-3.4 4.9-4 7.5-1.4 1.9 1.8 2.1 4.3 2.2 6.5.1 3.1.2 6.5-2.2 9.1-1.7 1.8-2.5 1.9-4.3.3-2.7-2.4-3.7-5.2-3.7-10.3Z" fill="#fff"/><path d="M86.6 243.7c0-2.5-1.3-3.9-3.7-4.5-.2-2.7 1-4.8 2.7-6.6 1.3-1.5 2.7-2.9 4.3-4.1 1.1-.9 2.6-1.6 4.1-.7 1.6 1 1.8 2.6 1.6 4.2-.5 3.5-2.7 6.3-4.5 9.2-.8 1.2-1.7 2.4-2.8 3.4-1.1 1-1.6.1-1.7-.9ZM477.2 324.2c-.2 3-.9 5.8-2.1 8.6-.7 1.6-1.8 2.6-3.7 2.5-1.8-.1-2.6-1.3-3.3-2.6-.3-.7-.6-1.4-.5-2.1.4-4.1 1.4-8 3.9-11.4.8-1.1 1.9-2 3.5-1.6 1.3.4 1.3 1.6 1.6 2.6.3 1.3.8 2.6.6 4Z" fill="#E9B5BC"/><path d="M373 348.3c.3 2.3-.3 4.4-1.5 6.3-1.1 1.7-2.2 1.8-3.6.3-2.7-3.2-4.1-7-4.5-11.1-.2-2.4.9-3.8 3-4.5 2-.7 3.4.4 4.5 1.7 1.7 2.1 2.5 4.6 2.1 7.3Z" fill="#FFFEFF"/><path d="M469 265v-4.4c0-1.9.9-3 2.8-3.4 2.1-.4 3.5.2 4.2 2.1 1.5 3.9 1.9 7.9-.2 11.8-1 1.9-2.6 3.1-4 2.7-1.9-.6-2.6-2.2-2.8-4-.1-1.6.1-3.2 0-4.8 0 0 .1 0 0 0ZM410.9 347.9c0 1.1.1 2.2 0 3.3-.1 1.2-.9 2-2 2.4-1.1.4-1.9-.4-2.5-1.1a8 8 0 0 1-1.5-2.1c-1.3-2.8-1.7-5.8-2.1-8.9-.2-1.6.2-2.9 1.9-3.6 1.7-.8 2.9.2 3.9 1.3 1.6 1.7 2.1 3.8 2.4 6.1.1.9 0 1.7-.1 2.6.1 0 .1 0 0 0Z" fill="#E9B5BC"/><path d="M171.4 522.7c-4.7.2-9.4.2-13.9-1.5-1.5-.6-3-1.1-4.3-2.2-1.9-1.5-2-2.1-.4-4.6.5-.4 1-.4 1.5-.1 2.5.8 4.9 1.6 7.4 2.3 3.7 1 7.2 2.5 10.4 4.6 0 .4 0 .8-.1 1.3-.1.3-.3.4-.6.2Z" fill="#56443E"/><path d="M112.7 131.5c.2 2.4-.8 4.3-2.6 5.8a3.39 3.39 0 0 1-4.9-.4c-2.1-2.3-2-7.3.1-9.6 1-1.1 2.3-2 3.9-1.6 1.8.4 2.9 1.8 3.3 3.6.2.7.1 1.5.2 2.2Z" fill="#E9B5BC"/><path d="M92 134.3c-.5 2.2-.8 4.2-1.4 6.2-.5 1.6-1.5 3-3.4 2.8-1.7-.1-2.4-1.4-2.9-2.9-1-3.1.6-8.8 3.1-10.7 1.6-1.2 2.7-.9 3.5.9.5 1.2.7 2.5 1.1 3.7Z" fill="#EAB5BC"/><path d="M88.8 254.3c.6-3.3 2.5-6.6 6.2-8.7 1-.6 2.1-.5 3.1.3.9.8 1.4 1.8 1 3-1.2 3.6-3.4 6.6-6.7 8.5-2.2 1.4-3.6.4-3.6-3.1Z" fill="#FFFEFE"/><path d="M108.9 233.4c-.7 2.4-1.5 5.5-4.4 7.4-1.9 1.2-2.9.9-3.9-1-1.5-3 .4-9 3.3-10.5s5.1 0 5 4.1ZM391.7 341.6c-.2-1.6.3-3.1 1.4-4.4 1.5-1.8 3.7-1.6 4.9.4 1.6 2.7 1.1 5.4-.1 8-.9 1.9-3.2 2-4.6.4a5.2 5.2 0 0 1-1.6-4.4ZM490.6 330.2c-.1 1.9-1.8 4-3.7 5.9-1.4 1.3-2.9.6-3-1.3-.1-2-.1-3.9 0-5.9.1-2.4 1.7-4.1 3.5-4 1.9.1 3.2 1.9 3.2 5.3Z" fill="#E9B5BC"/><path d="M101.5 129.9c-.4 2.7-1 5.3-2.1 7.8-.5 1.1-1.2 1.1-2.1.5-1.2-.7-1.7-1.8-1.8-3.1-.2-2.6.8-4.8 2.3-6.8.6-.7 1.3-1.2 2.3-.8 1.2.4 1.5 1.3 1.4 2.4Z" fill="#EAB6BD"/><path d="M485.4 262.1v-2.6c0-1.1.5-1.9 1.6-2.2 1.1-.3 1.9.1 2.7.9 1.9 2 .6 7.3-2.1 8.3-1.1.4-1.8-.1-2-1-.2-1.2-.2-2.3-.2-3.4ZM154.3 514.4c-.5 0-1 .1-1.5.1.5-.8 1-.8 1.5-.1ZM730.2 507.7c-.2 8.6-2.1 16.7-4.9 24.8-2 5.9-4.8 11.3-8.6 16.3-3.6 4.6-8.6 7-14.2 8-2.8.5-3.9-.6-3.5-3.6.6-5.4 1.8-10.7 4.7-15.4 4.7-7.4 7.3-15.5 8.7-24.2.7-4.6 2-9.1 3.6-13.5 1.5-4.1 2.6-8.2 2.3-12.6-.1-1 0-2 .5-2.9.6-1.2 1.3-2.6 2.8-2.6 1.5 0 2.5.9 3.1 2.3 1.5 3.5 3 7 4 10.8 1 4 1.9 8.2 1.5 12.6ZM651.4 286.2c-3.1.5-6.2-.8-9.3-2-2.8-1.1-5.6-1.9-8.5-2.4-4.5-.8-8.3-3.1-11.7-6-3.6-3.2-2.7-6.8 1.6-8.9 6.7-3.2 13.4-2.4 20.2-.3 2.8.9 5.6 1.9 8.2 3.3 3.3 1.8 5.6 4.3 7 7.8.6 1.5.7 2.9.5 4.4-.4 2.9-1.9 4.2-5 4.3-.9-.2-1.7-.2-3-.2ZM586.6 415.8c.2 2.5 0 5-1.2 7.4-1 1.9-2.2 3.6-4.7 3.5-2.5 0-4.1-1.3-5.1-3.5-1.9-4.2-1.8-8.6-1.3-13.1.2-1.8.7-3.6 1.3-5.4 1.4-3.8 3.8-4.3 6.7-1.6 3.4 3.5 4.6 7.8 4.3 12.7Z" fill="#E9B5BC"/><path d="M684.6 296.4c.1 4-4.3 8.2-8.6 8.3-4.8.1-10.3-4.8-10.5-9.3-.2-4.5 3.6-8.2 8.5-8.5 5.2-.2 10.4 4.5 10.6 9.5Z" fill="#fff"/><path d="M434.8 526.8c.4 5.6-3.7 7-7.7 6-5.3-1.3-9.8-7.8-9.4-13.2.3-4.1 3.9-6.6 7.8-5.3 5.2 1.6 9.3 7.2 9.3 12.5ZM598.5 407.2c.3 2.3-.3 4.4-1.3 6.5-1 2.1-3.1 2.5-4.9 1.2-.6-.4-1.2-1-1.5-1.6-1.8-3.6-2.9-7.2-1.9-11.3.5-2.1 2.1-3.1 4-3.4 1.8-.3 3.3.6 4.3 2.3a9.9 9.9 0 0 1 1.3 6.3ZM610.4 402.6c.2 1.8-.6 3.6-1.9 5.1-1.1 1.3-2.3 1.2-3.4-.2-.5-.7-1-1.4-1.2-2.2-.6-2.2-1.2-4.5-1.6-6.8-.3-1.5.3-2.7 1.6-3.4 1.4-.7 2.8-.6 4.1.5 2 1.8 2.4 4.2 2.4 7Z" fill="#E9B5BC"/><path d="M698.8 560.1c.1 2.6-4.5 7.3-7.1 7.1-1.4-.1-3.2-2.5-3.1-4.1.1-2.7 2.8-5.8 5.6-6.1 2.3-.4 4.5 1.1 4.6 3.1Z" fill="#EAB5BC"/><path d="M713.1 575.4h.4c3.7.4 5.1 1.5 5.2 4 .1 2.2-2.2 4.9-4.7 5.5-2.6.6-4.2-.8-5.4-2.8-.5-3.5 1.5-5.5 4.5-6.7Z" fill="#FFFEFE"/><path d="M441.7 506.5c.8.3 1.6.5 2.2 1.2 1.1 1.4 1.6 3 1.9 4.7.3 1.4-1.1 2.3-2.4 1.8-1.9-.7-3.7-4-3.4-6.1.2-.9.7-1.5 1.7-1.6Z" fill="#EAB6BD"/><path d="M564.3 655c-3.2-1.5-5.7-3.5-5.9-7.4 1.4-1.3 2.6-1.1 3.8.3 1.7 2 2.5 4.4 2.1 7.1Z" fill="#5C4842"/><path d="M723.7 574c.7-4.2 2.4-7.1 4.1-9.9 1.1-1.8 2.3-3.5 3.7-5.1 3.1-3.6 5.9-7.2 7.9-11.6.4-.9.8-2 2.1-1.6 1.2.3 1.3 1.3 1.4 2.4.5 4.2-1 7.8-3.2 11.2-2.6 4.1-5.7 7.7-9.2 11-1.8 1.6-3.9 2.5-6.8 3.6Z" fill="#FFFEFE"/><path d="M541.9 180.5c2.3 1.5 4.1 3.5 5.2 6 1 2.2 1.3 4.4 0 6.6-1.8 0-3.7.5-5.2-1.1-2.2-2.2-4.5-4.3-5.1-7.5-.5-2.4 0-3.2 2.9-4.8h.7c.4.6 1.1.4 1.5.8Z" fill="#fff"/><path d="M96.2 31.9c-.9-.9-.9-2-.3-3 1.2-2.1 4.8-3.4 7.1-2.6 2.2.8 2.5 1.7 1.2 3.8l-.6.9c-2.3 1.5-4.7 2.3-7.4.9Z" fill="#FEFDFD"/><path d="M116.1 25.7c0 .7-.3 1.1-.6 1.4-1.4 1.4-4.4 1-5.5-.7-.5-.9-.3-1.7.4-2.3 1-.7 2-1.5 3.3-.9 1.2.6 2.1 1.4 2.4 2.5Z" fill="#FDF8F9"/><path d="M171.4 522.7c.2-.1.3-.2.5-.2 1.1.8.2 1.8 0 2.6-.1.6-.6 1-1.4.8-.6-.2-1.1-.4-1.3-1.1-.1-.7.3-1.1.9-1.3.5-.3.9-.6 1.3-.8Z" fill="#FFC6CE"/><path d="M540.9 176c-1.3 0-2.8-1.6-2.6-3.1.1-1.4.9-2.3 2.3-2.5 1.4-.2 2.9 1.4 2.9 2.8-.1 1.4-1.4 2.8-2.6 2.8Z" fill="#FDFAFB"/><path d="M541.9 180.5c-.6 0-1.1-.1-1.5-.7.6 0 1.2.1 1.5.7ZM127.5 269c13.1-14.5 27.6-27.2 45.2-35.8 17.7-8.7 36.7-11.6 56.4-9.8 19.7 1.8 37.8 7.7 53.8 19.5a65.3 65.3 0 0 1 15.8 16.1c8.9 13 15.8 26.9 19.5 42.2 3.5 14.4 3.6 28.9 1 43.5-2.1 12.1-6.6 23.3-10.3 34.8-2.1 6.7-6.5 10.8-11.9 14.6-11 7.7-23.3 9.2-36.2 8.4-14.3-.9-26.7-6.8-38.3-14.8-4.4-3-8.8-6-13.1-9.1-4.1-3-8.6-4.2-13.6-4-5.7.2-11.3 1.4-17 1.9-7.9.8-15.9 1.1-23.7-.9-15.5-4.1-27.7-12.9-36.1-26.7-6.1-10-9.8-20.9-11.7-32.3-1.1-6.7-.6-13.6 1.6-20.1 6-9.2 10.8-19.4 18.6-27.5Z" fill="#FFC6CE"/><path d="M127.5 269c0 2.4-2.2 3.5-3.4 5.1-4 5.5-7.7 11.2-10.7 17.3-1.1 2.2-2.4 4-4.6 5.2 0-2.9 1.1-5.6 2.6-8 4.5-7.2 9.8-13.9 16.1-19.6Z" fill="#E5B3BB"/><path d="M232.3 214c-2.5.4-4.7-.2-6.7-1.5-2.5-1.6-2.6-3.6 0-5.1 2.6-1.5 5.4-1.9 8.5-1.6 2.5.2 4.9.7 6.6 2.7 2 2.4 1.8 3.3-1.1 4.5-2.5.7-4.9 1.2-7.3 1Z" fill="#FFFEFE"/><path d="M258.8 218.5c-1.5-.2-2.9-.5-4.2-1.3-1.4-.9-1.7-2.4-1.4-3.9.3-1.6 1.6-2 3-2.2 1.7-.2 3.2.2 4.5 1.3 1.2 1 2.7 2.1 2 4-.6 1.6-2.2 1.9-3.9 2.1Z" fill="#FEFDFD"/><path d="M650.3 280.2c-3.9.2-6.8-1-9.5-2.8-1.4-.9-2.5-2.1-2-4 .5-2 1.9-3.2 3.9-3.5 3.7-.5 7.1.5 10.1 2.6.4.3.8.6 1.1 1 1.1 1.3 3.2 2.3 2.3 4.2-.8 1.9-3 2.4-5 2.5-.4.1-.9 0-.9 0Z" fill="#FFFEFE"/><path d="M208.6 288.9c-.3 15-9.5 23.9-21.9 27.8-10.2 3.2-18.8-4.1-21.1-12.4-3-10.6 1.1-21.6 9.4-27.8 7-5.2 15.1-6.4 23.4-2.5.9.4 1.8.9 2.7 1.3 5.3 2.3 7.6 6.4 7.5 12v1.6ZM275.6 311.4c-.2 7.5-3.1 14.2-7.3 20.2-2.6 3.7-5.6 7.3-9.6 9.6-4.9 2.9-10.1 4-15.4.8-4.8-2.9-7.5-7.2-7.9-13-.8-10.2 2.9-18.6 10-25.7 3.7-3.8 8-6 13.6-4.7.7.2 1.5.1 2.2-.2 7.2-2.8 15.1 4.7 14.5 11.8-.1.5-.1.9-.1 1.2Z" fill="#E9B5BC"/><path d="M194.7 291.7c.1 2.6-.4 4.4-1.3 6a28.4 28.4 0 0 1-5.6 7.3c-2.3 2.1-4.9 3.4-8.1 2.1-3.5-1.4-5.1-4.2-5.3-7.8-.2-3.1.9-5.8 2.6-8.4 1.3-2.1 3-3.9 4.9-5.5 5.5-4.5 10.8-1.5 12.5 4.3.3.9.3 1.8.3 2ZM261.8 318.3c-.1 4.8-1.4 9.1-5.3 12.1-4.9 3.8-10.8 1.8-11.9-4.3-1.3-7.1 2.5-13.8 10.8-15.6 3.2-.7 5.6 1.2 6.2 4.4.1 1.2.1 2.3.2 3.4Z" fill="#282828"/></svg>