<svg width="907" height="509" viewBox="0 0 907 509" fill="none" xmlns="http://www.w3.org/2000/svg"><path d="M151.9 47.8c.4.2.9.5 1.3.6 17.7 4.6 30.9 15.1 40.3 30.6 6.9 11.4 10.9 23.8 14.1 36.6 4 16.2 6.8 32.7 9 49.3 1.7 12.8 3.6 25.5 4.8 38.3.2 2.2.3 4.4.5 6.7.9.8-.8 2.7 1.3 2.9 2.6-11.3 6.8-22 12-32.3 11.1-21.9 25.9-41 42.5-58.8 18.1-19.3 38.4-36.2 59.9-51.5 1.6-1.1 3.4-2.1 4.7-3.6.5-.8 1.4-1.2 2.2-1.6.6-.7 1.5-1 2.2-1.6.2-.3.5-.6.9-.7l-.1.1c.5-.8 1.4-1.1 2.2-1.6.6-.7 1.5-1 2.2-1.6.2-.3.5-.6.9-.7l-.1.1c.2-.7 1-.5 1.4-.9.2-.3.5-.6.9-.6l-.1.1c.2-.7 1-.5 1.4-.9.2-.3.5-.6.9-.6l-.1.1c.2-.7 1-.5 1.4-.9.7-.6 1.5-1 2.3-1.5.7-.7 1.4-1.1 2.3-1.5h-.1c.3-.6 1-.5 1.4-.9.7-.6 1.5-1.1 2.3-1.4.3-.6 1-.4 1.4-.8.7-.5 1.5-1.1 2.3-1.4.3-.6 1-.4 1.5-.8 1.2-.9 2.5-1.5 3.8-2.1h-.1c.3-.7 1-.5 1.5-.8.3-.6 1-.5 1.5-.8.3-.6 1.1-.4 1.5-.8.4-.5 1.1-.4 1.5-.8.4-.5 1.1-.4 1.5-.8.4-.5 1.1-.3 1.5-.7.4-.5 1.1-.3 1.5-.7.4-.5 1.1-.3 1.5-.7.4-.5 1.1-.4 1.5-.7.4-.5 1.1-.4 1.5-.7.4-.6 1.1-.4 1.6-.7.3-.6 1-.5 1.6-.7h-.1c1-1 2.5-1 3.7-1.6.4-.5 1.1-.4 1.5-.7.4-.6 1-.5 1.6-.7h-.1c1-1 2.5-1 3.7-1.6.4-.5 1.1-.4 1.5-.7.4-.6 1.1-.5 1.6-.7h-.1c.4-.9 1.6-.2 2.1-.9.4-.4 1.1-.3 1.5-.7.4-.5 1.1-.5 1.6-.7h-.1c.4-1 1.6-.3 2.2-.9.5-.8 1.6-.1 2.2-.8.4-.4 1.1-.4 1.6-.6h-.1c.5-.9 1.6-.2 2.2-.8.5-.8 1.6-.2 2.2-.8.6-.8 1.6-.1 2.2-.8.4-.4 1.1-.4 1.6-.6.5-.9 1.6-.1 2.1-.9h.1c.4-.4 1.1-.3 1.5-.7.4-.5 1.1-.4 1.5-.7.4-.6 1.1-.5 1.6-.7h-.1c.4-1 1.6-.2 2.1-.9.4-.4 1.1-.4 1.5-.7.5-.8 1.6-.1 2.1-.8h.1c.4-.4 1.1-.3 1.5-.7.5-.8 1.6-.1 2.2-.8.4-.4 1.1-.3 1.6-.6.5-.9 1.6-.2 2.2-.8.6-.8 1.6-.2 2.2-.8.6-.7 1.6-.2 2.3-.7.6-.8 1.6-.2 2.3-.7.8-1.1 2.1-.1 3-.8.8-.9 2.1 0 2.9-.8.7-.6 1.7-.3 2.5-.7l.2.1.2-.2c.9-.8 2.1 0 3-.7.9-.8 2.1 0 3-.7 1.1-1.1 2.6 0 3.7-.8 1.1-1 2.6 0 3.7-.8 1.2-1 2.8 0 4-.7l.2.1.2-.2c1.2-.9 2.8 0 4-.7l.2.1.2-.2c1.4-1 3.1.1 4.5-.7 1.6-1.1 3.6.2 5.2-.8 1.7-1 3.7.1 5.5-.7l.2.1.2-.2c2-1.1 4.2.1 6.2-.7l.2.1.2-.2c2.7-1.1 5.7.2 8.4-.7.2.2.3.2.5 0 5.2-1 10.5-.4 15.8-.4 5.4 0 10.8-.6 16.2.4 2.9 1 6.1-.5 8.9.8 2.2 1 4.6-.5 6.7.8v-.1c1.7.8 3.6-.3 5.3.7 1.6.9 3.6-.3 5.2.8 1.4.9 3.1-.3 4.5.8 1.4.9 3.1-.3 4.5.8 2.7.6 5.5.7 8.2 1.5 1.1.8 2.7-.3 3.8.8 1.1.8 2.7-.3 3.8.8 1.1.8 2.7-.3 3.8.8 2.3.4 4.5.8 6.8 1.4 1.1.9 2.7-.3 3.7.8.9.7 2.2-.2 3 .7.9.7 2.2-.2 3 .8.9.7 2.2-.2 3 .8 1.8.5 3.6.7 5.3 1.5 1.7.6 3.6.6 5.2 1.6h-.1c.7.5 1.7-.1 2.3.7.7.5 1.7-.1 2.3.7.7.6 1.7 0 2.3.7.6.6 1.7 0 2.3.7.6.6 1.6 0 2.2.7 3 .8 6 1.7 8.9 3 .6.7 1.6 0 2.2.8.6.6 1.7 0 2.2.8.6.6 1.7-.1 2.2.8h-.1c.5.2 1.2.2 1.6.6.6.7 1.7 0 2.2.9h-.1c.5.3 1.2.2 1.6.7 1.2.6 2.6.7 3.7 1.6h-.1c.5.3 1.2.2 1.6.7.5.3 1.1.2 1.5.7.4.4 1.1.3 1.5.7 1.7.8 3.5 1.4 5.1 2.4h-.1c.5.2 1.2.1 1.6.7.5.3 1.2.2 1.6.7.5.3 1.2.2 1.5.7.4.4 1.1.3 1.5.7 1.1.7 2.6.6 3.6 1.7h-.1c.5.2 1.2.1 1.6.8h-.1c.5.2 1.2.1 1.6.8.5.3 1.2.1 1.5.8.5.3 1.2.1 1.5.8.5.3 1.2.1 1.5.8h-.1c.5.3 1.3.1 1.5.8h-.1c.9.2 1.6.8 2.4 1.3.4.4 1.1.3 1.5.8.4.4 1.2.2 1.5.8.5.3 1.2.2 1.5.8h-.1c.9.3 1.6.8 2.4 1.4.4.4 1.1.3 1.5.8.4.4 1.2.2 1.5.8h-.1c.5.3 1.3.1 1.5.9l-.1-.1c.4 0 .7.3.9.6.4.5 1.1.3 1.4.8.4.4 1.1.2 1.5.8.5.3 1.2.2 1.5.8h-.1c.9.3 1.6.9 2.4 1.3.4.5 1.1.3 1.4.8.4.4 1.2.2 1.5.8.5.3 1.2.1 1.5.9l-.1-.1c.4 0 .7.3.9.6.4.5 1.1.3 1.4.8.4.4 1.2.2 1.4.9l-.1-.1c.4 0 .7.3.9.6.4.4 1.1.3 1.4.9.9.4 1.7.8 2.3 1.5.8.4 1.7.8 2.3 1.5.8.4 1.7.8 2.3 1.5l-.1-.1c.4.1.6.4.9.6.4.5 1.1.3 1.4.9l-.1-.1c.4.1.6.4.9.6.4.5 1.2.3 1.4.9l-.1-.1c.4.1.6.4.9.6.4.4 1.2.2 1.4.9l-.1-.1c.4.1.6.4.9.6.4.4 1.2.2 1.4.9l-.1-.1c.4 0 .7.3.9.6.4.4 1.2.2 1.4.9l-.1-.1c.4 0 .7.3.9.7.8.5 1.6.8 2.2 1.6l-.1-.1c.4.1.6.4.9.7.7.6 1.6.8 2.2 1.6l-.1-.1c.4.1.6.4.9.7.7.6 1.7.8 2.1 1.7l-.1-.1c.5 0 .7.3.9.7l-.1-.1c.4.1.6.4.8.7 1.1.7 2.1 1.4 2.9 2.3l-.1-.1c.4.1.6.4.9.7 1.1.6 2.1 1.4 2.9 2.4l-.1-.1c.4.1.7.4.9.7.3.2.6.4.8.7.7.6 1.7.8 2.1 1.7l-.1-.1c.5.1.7.3.9.7l-.1-.1c.4.1.6.4.8.7 1.4.9 2.5 2 3.6 3.1l-.1-.1c.5.1.7.4.8.8l-.1-.1c.4.1.7.4.8.8h-.1c.4.2.6.4.8.8.3.2.6.4.8.8.3.2.5.5.8.7 2.7 2 4.9 4.6 7.3 6.9l-.1-.1c.5 0 .7.3.8.8l-.1-.1c.5.1.7.3.8.8l-.1-.1c.4.1.7.4.8.8l-.1-.1c.4.1.7.4.8.8l-.1-.1c.4.1.7.4.8.8l-.1-.1c.4.1.7.4.8.8l-.1-.1c.4.1.7.4.8.8l-.1-.1c.4.1.7.4.8.8l-.1-.1c.4.1.7.4.8.8l-.1-.1c.4.1.7.4.8.8l-.1-.1c.4.1.7.4.8.8l-.1-.1c.4.1.7.4.8.8l-.1-.1c.4.1.7.4.8.8l-.1-.1c.5.1.7.3.8.8l-.1-.1c1.8 1.9 3.9 3.6 5.4 5.8.2.2.5.5.7.8.3.2.5.5.7.8.3.2.6.5.8.8.4.2.6.4.8.8l-.1-.1c.4.2.7.4.8.8l-.1-.1c.4.1.7.4.8.9l-.1-.1c1.1.7 1.7 1.8 2.4 2.8.3.2.5.5.7.8.3.2.6.5.7.9l-.1-.1c.4.2.7.4.7.9l-.1-.1c.9.4 1.1 1.4 1.7 2.1.3.3.6.5.7.8.4.2.6.4.7.9l-.1-.1c1 .8 1.7 1.9 2.4 2.9.3.2.6.5.7.8l-.1-.1c.4.2.7.4.7.9l-.1-.1c.9.4 1.1 1.4 1.7 2.1.3.3.6.5.7.8v-.1c.4.2.7.4.7.9l-.1-.1c.9.5 1.1 1.4 1.6 2.2.3.2.6.5.7.9l-.1-.1c.8.5 1.2 1.4 1.6 2.2v-.1c.7.6 1.1 1.5 1.6 2.3.7.6 1.1 1.5 1.5 2.3.7.7 1.1 1.5 1.5 2.3.7.6 1.1 1.4 1.5 2.3v-.1c1.2 1 1.5 2.5 2.3 3.7v-.1c1.1 1.1 1.6 2.5 2.2 3.8l-.1-.1c.7.3.5 1 .8 1.5v-.1c.6.3.5 1.1.8 1.5v-.1c.6.4.4 1.1.8 1.5.5.4.4 1.1.8 1.5.5.4.4 1.1.8 1.5.5.4.4 1.1.8 1.6v-.1c.6.4.5 1.1.8 1.6v-.1c.6.3.5 1 .8 1.6l-.1-.1c1 1.6 1.8 3.4 2.3 5.2v-.1c.9 1.1 1 2.5 1.5 3.8v-.1c.8 1.1 1 2.5 1.5 3.8l-.1-.1c.9.5.2 1.6.9 2.3v-.1c1 1.9 1.5 4 2.2 6.1l-.1-.1c.9.5.3 1.6.8 2.3v-.1c.9.6.2 1.6.8 2.3v-.1c.8.6.2 1.6.8 2.3v-.1c.9 1.6 1 3.5 1.6 5.2v-.1c1.3 3.9 2.2 7.9 3 12v-.1c1.1 1.1 0 2.6.8 3.8v-.1c1.1 1.1 0 2.6.8 3.8l-.1-.1c1.2 1.3-.1 3.1.8 4.5v-.1c.9 3.4 1.1 7 1.5 10.5l-.1-.1c1.2 2.5.8 5.3 1.1 7.8.8 7.9 1.2 15.8 1.7 23.7.1 1.2-.8 3.3 2 2.7.5-.9 1.6-.2 2.2-.9.4-.5 1.1-.4 1.6-.7.5-.9 1.6-.2 2.2-.9.4-.5 1.1-.4 1.6-.7.5-.9 1.6-.2 2.2-.9.4-.4 1.1-.3 1.5-.7.4-.5 1.1-.4 1.6-.7.3-.6 1-.5 1.6-.8h-.1c.3-.7 1-.5 1.5-.8.3-.6 1-.5 1.5-.8.3-.6 1.1-.4 1.4-.8.3-.3.5-.6.9-.6l-.1.1c.2-.7 1-.5 1.4-.9.2-.3.5-.6.9-.6l-.1.1c.2-.7 1-.5 1.4-.9.7-.6 1.5-1.1 2.3-1.5.3-.6 1-.4 1.5-.8.4-.5 1.1-.3 1.5-.8.4-.5 1.1-.4 1.6-.7.8-1 2.1-.1 3-.8 1.7-.7 3.4-.7 5.1 0 3.6.7 6.3 2.3 7.4 6v-.1c2.4 7.7 1 15.3-.8 23l.1-.1c-.5 1.8-.6 3.6-1.6 5.3l.1-.1c-.4 1.3-.7 2.6-1.4 3.8-.9 2.1-1.5 4.2-3.1 5.9v-.1c-.4.8-.7 1.7-1.6 2.2v-.1c-2.4 3.5-5.4 6.5-8.9 9-.9.9-1.8 1.7-3 2.3-1 .8-1.8 1.8-3.1 2.2-.6.8-1.4 1.2-2.3 1.5-1 1.2-2.5 1.5-3.7 2.3-.7.7-1.4 1.2-2.3 1.4-.2.7-1 .5-1.5.9-3.2 2.2-6.8 3.8-10.4 5.2-2.3 1.1-4.6 2.2-7.2 1.9-1.6-.1-2.4.8-3.3 1.8-.5.8-.8 1.7-1.6 2.2l.1-.1c-.1.4-.4.6-.7.9-.7 1-1.4 2.1-2.4 2.9l.1-.1c-.1.4-.4.7-.8.8l.1-.1c-.1.4-.4.6-.8.8-.2.4-.4.6-.8.8-.2.3-.4.6-.8.8-.2.3-.4.6-.8.8-.2.4-.4.6-.8.8l.1-.1c-.2.4-.4.7-.8.8l.1-.1c-.1.4-.4.7-.8.8l.1-.1c-.8 1-1.8 1.8-2.9 2.4-.2.4-.4.7-.9.7l.1-.1c-.5.9-1.4 1.2-2.2 1.6-.6.8-1.4 1.2-2.3 1.5-.3.7-1 .5-1.4.9-1.3 1.1-2.9 1.6-4.5 2.2-.4.5-1.1.4-1.6.7-.3.7-1 .5-1.5.8-.3.7-1 .5-1.5.9-.3.5-1.1.4-1.4.8-.7.5-1.5 1.1-2.3 1.4-.3.6-1 .5-1.5.8-.3.5-1.1.4-1.5.8-.7.5-1.4 1.1-2.4 1.3-.3.7-1 .5-1.5.8-.3.6-1 .5-1.5.8-.3.6-1 .4-1.5.8-.4.5-1.1.4-1.5.8-5.3 1.5-6.2 5.4-5.6 10.2.2 1.3.5 2.7-.4 3.9-.9 1.6.3 3.6-.8 5.2v-.1c-.9 1.4.4 3.2-.8 4.5l.1-.1c-.8 1.2.3 2.7-.8 3.8v-.1c-.6 3-1.2 6.1-2.2 9-.8.9.2 2.2-.9 3v-.1c-.5.7.1 1.7-.7 2.3v-.1c-.6.7 0 1.7-.8 2.3v-.1c-.6.6.1 1.7-.8 2.3v-.1c-.5 1.3-.7 2.7-1.5 3.8v-.1c-.6 1.2-.6 2.7-1.6 3.7l.1-.1c-.2.5-.1 1.2-.7 1.6v-.1c-.3.5-.2 1.2-.8 1.6v-.1c-.3.5-.2 1.2-.8 1.5-.3.5-.2 1.2-.8 1.5v-.1c-.3.5-.2 1.2-.8 1.5v-.1c-.3.5-.2 1.2-.8 1.5v-.1c-.3.5-.1 1.2-.8 1.5l.1-.1c-.2.9-.8 1.7-1.4 2.4-.4.4-.2 1.2-.9 1.5v-.1c-.3.9-.8 1.6-1.5 2.3-.5.8-.9 1.6-1.5 2.3-.5.8-.9 1.6-1.5 2.2-.5.8-.8 1.6-1.6 2.2-.4.8-.7 1.7-1.6 2.2l.1-.1c0 .5-.3.7-.7.9-.6 1.1-1.4 2.1-2.3 3l.1-.1c-.1.4-.4.6-.7.9-.8 1.4-2 2.5-3.1 3.6l.1-.1c-.1.5-.3.7-.8.8l.1-.1c-.1.4-.4.7-.8.8l.1-.1c-.1.4-.4.7-.8.8l.1-.1c-.1.4-.4.7-.8.8l.1-.1c-.2.4-.4.6-.8.8l.1-.1c-.2.4-.4.6-.8.8l.1-.1c-.2.4-.4.7-.8.8l.1-.1c-.1.4-.4.7-.8.8l.1-.1c-.1.4-.4.7-.8.8l.1-.1c-1.5 1.3-2.6 2.9-4.4 3.8-.2.4-.4.6-.9.7l.1-.1c-.9.9-1.8 1.8-3 2.3-1 .8-1.8 1.8-3.1 2.2-.5.8-1.4 1.2-2.3 1.5-1 1.2-2.5 1.5-3.7 2.3-1.6 1.4-3.5 2-5.3 2.9-1.6 1.1-3.4 1.7-5.2 2.4-1.2.7-2.5 1-3.8 1.4-.5.9-1.6.3-2.3.8-.7 1.1-2.1.1-2.9.9-.8.9-2.1 0-3 .8-1.1 1-2.6 0-3.7.8-13 2.4-25.9 2.9-38.6-1.6-1.3-.4-2.7-.6-3.8-1.5-.5-.3-1.2-.1-1.5-.7-.5-.3-1.2-.2-1.5-.8-.9-.3-1.7-.7-2.3-1.5l.1.1c-.4-.1-.7-.4-.9-.7-.4-.2-.6-.4-.8-.7-1-.5-1.8-1.2-2.2-2.3-.4-.2-.7-.4-.7-.9l.1.1c-.9-.5-1.3-1.4-1.6-2.3l.1.1c-.7-.2-.5-1-.9-1.5v.1c-.6-.3-.5-1.1-.8-1.5v.1c-.6-.4-.5-1.1-.7-1.6v.1c-.8-1.1-1-2.5-1.5-3.8v.1a39 39 0 0 1 0-25.9v.1c.6-.7-.1-1.7.8-2.3l-.1.1c.5-1.3.6-2.7 1.6-3.8l-.1.1c.2-.5.1-1.3.8-1.6l-.1.1c.3-.5.1-1.2.8-1.6l-.1.1c.3-.5.1-1.3.8-1.5l-.1.1c.6-1.3 1.1-2.8 2.2-3.8v.1c.3-.9.8-1.7 1.5-2.3.4-.8.8-1.6 1.5-2.3.5-.8.8-1.7 1.6-2.2v.1c.5-1.2 1.4-2.1 2.2-3 .6-1.2 1.4-2.1 2.3-3l-.1.1c.1-.4.4-.7.7-.9.4-1 1.5-1.6 1.8-2.7-4-1.4-9.8-.1-11.7 2.6v-.1c-.3.5-.2 1.2-.7 1.6-.7.5.1 1.8-1 2.2l.1-.1c-.2.6-.1 1.3-.7 1.6l.1-.1c-.3.5-.1 1.2-.8 1.6v-.1c-.3.5-.2 1.2-.8 1.5v-.1c-.3.5-.1 1.3-.8 1.5l.1-.1c-.2.9-.8 1.7-1.4 2.4-.4.4-.2 1.2-.9 1.5v-.1c-.3.9-.8 1.7-1.5 2.3v-.1c-.4.8-.8 1.7-1.6 2.3l.1-.1c-.1.4-.4.7-.7.9-.5.7-.8 1.7-1.6 2.2l.1-.1c-.1.4-.4.7-.7.9v-.1c-.2.4-.4.6-.7.8a18.4 18.4 0 0 1-5.2 5.2c-.2.3-.5.6-.8.7h.1c-.2.4-.4.7-.9.7l.1-.1c-.8 1-1.8 1.8-3 2.3-.6.7-1.5 1.1-2.2 1.6-.7.6-1.5 1.1-2.3 1.5-.3.6-1 .4-1.5.8-1.3 1.1-2.9 1.6-4.5 2.2-.4.5-1.1.4-1.6.7-.5.9-1.6.2-2.2.8-.6.8-1.6.2-2.3.7-8.3 2.3-16.3 2-23.7-3-2.1-1.4-4-3-5.2-5.3l.1.1c-.7-.3-.6-1-.9-1.5v.1c-.6-.4-.5-1-.7-1.6l.1.1c-1-.5-.3-1.6-.8-2.3l.1.1c-1.6-4.7-1.5-9.3 0-14v.1c.5-.7-.1-1.7.7-2.3v.1c.4-.6.4-1.4.8-2.1.9-1.7.4-2.5-1.6-2.4-6.2.3-12.4.7-18.6 1.4-1.9 1.1-4.1-.1-6 .8v-.1c-2.8 1.1-5.9.9-8.7 1-5.4.2-10.8.7-16.2 1.1-16 .9-32.1 1.8-48.2 1.3-12.5-.4-25-1.1-37.4-1.6-10.3-.5-20.6-1.8-30.9-2.9-2.3-.2-4.8-.2-6.9-.9-2.7-.9-3.9-.1-5 2.1-.4.4-.3 1.2-.9 1.4l.1-.1c-.1.4-.4.6-.6.9-.5.3-.3 1.1-.9 1.4l.1-.1c-.1.4-.4.6-.6.9-.5.3-.3 1.1-.9 1.4l.1-.1c-.1.4-.4.7-.7.9-.5.7-.8 1.7-1.6 2.2l.1-.1c-.1.4-.4.7-.7.9-.2.3-.4.5-.7.8-.6.6-.8 1.6-1.7 2.1l.1-.1c-.1.4-.4.7-.7.9-.1.4-.4.6-.7.8-.2.3-.4.5-.7.8-.8.9-1.4 2-2.4 2.8l.1-.1c-.1.4-.4.7-.8.8l.1-.1c-.1.4-.4.6-.8.8-.2.3-.4.6-.8.8-.2.3-.5.6-.7.8-4.9 5.5-10.1 10.8-15.6 15.6-.2.3-.5.6-.8.7-.2.3-.4.6-.8.8l.1-.1c-.2.4-.4.7-.8.8l.1-.1c-1.5 1.3-2.7 2.9-4.4 3.8-.2.3-.4.6-.8.7l.1-.1c-1.2 1.1-2.2 2.3-3.7 3-.2.4-.4.7-.9.7l.1-.1c-.4.9-1.4 1.1-2.1 1.7-.2.3-.5.6-.9.7l.1-.1c-.9.9-1.8 1.8-3 2.3-.9.8-1.8 1.8-3 2.2-.6.8-1.5 1.1-2.2 1.6-.2.3-.5.6-.9.7l.1-.1c-.5.9-1.4 1.2-2.2 1.6-.6.8-1.4 1.1-2.2 1.6-.6.7-1.5 1-2.2 1.5-.2.3-.5.6-.9.6l.1-.1c-.5.9-1.4 1.2-2.2 1.6-.6.8-1.4 1.2-2.2 1.5-.6.7-1.4 1.1-2.2 1.5-.6.7-1.5 1.1-2.2 1.5-.6.7-1.5 1.1-2.3 1.5-.6.7-1.5 1.1-2.3 1.5-.6.7-1.4 1.2-2.3 1.5-.3.7-1 .5-1.4.9-.7.6-1.4 1.1-2.3 1.4-.3.7-1 .5-1.5.8-.3.6-1 .4-1.5.8-3.8 2.3-7.8 4.2-11.9 6-.4.5-1.1.4-1.5.7-.4.6-1 .4-1.6.7-.3.6-1 .5-1.6.7-1 1-2.5 1-3.6 1.6-.4.5-1.1.4-1.6.7-1.1.8-2.5 1-3.8 1.5-.5.9-1.6.2-2.2.8-.6.8-1.6.2-2.2.8-.6.7-1.6.2-2.3.7-1.7.8-3.5 1-5.2 1.5-.8 1-2.1.1-3 .8-.8.9-2.1 0-3 .8-.9.9-2.1.1-3 .7-1.3 1.2-3.1-.1-4.5.8-8.1 1.2-16.3 1.8-24.5.7-1.7-.9-3.6.3-5.2-.8-1.1-.8-2.7.3-3.7-.8-.9-.7-2.2.2-3-.8-.7-.5-1.7 0-2.3-.7-.6-.6-1.7 0-2.2-.8-1.2-.6-2.7-.6-3.7-1.6-.5-.2-1.2-.1-1.6-.7-.5-.3-1.2-.1-1.5-.8-.5-.3-1.2-.2-1.5-.8-.5-.3-1.2-.1-1.5-.8-1.3-.7-2.7-1.1-3.8-2.2-.9-.4-1.7-.8-2.3-1.5-.8-.4-1.7-.7-2.2-1.6l.1.1c-.4-.1-.7-.3-.9-.7-2.4-1.6-4.4-3.6-6-5.9-.3-.2-.6-.5-.7-.9l.1.1c-.8-.6-1.2-1.4-1.5-2.3l.1.1c-.7-.3-.5-1-.9-1.5v.1c-.6-.4-.4-1.1-.8-1.5-.5-.4-.4-1.1-.7-1.6v.1c-1-1.3-1.1-3-1.5-4.5v.1c-1-5-.9-9.9.8-14.8l-.1.1c.5-2.3 1.1-4.7 2.2-6.8v.1c1-2.6 2-5.2 3.8-7.5v.1c.4-.9.8-1.7 1.5-2.3v.1c.5-1.2 1.4-2.1 2.3-3l-.1.1c.1-.4.4-.7.7-.9 2.8-3.6 6.1-6.8 9.7-9.7.2-.3.5-.6.8-.7l-.1.1c.9-.8 1.8-1.8 3-2.3.6-.7 1.4-1.2 2.3-1.5h-.1c.3-.7 1-.5 1.5-.9.4-.5 1-.6 1.4-1 .5-.2 1.1-.4 1.5-.8.5-.2 1.1-.2 1.6-.4h-.1c1.1-.9 2.5-1 3.7-1.5 1.2-.8 2.5-1.1 3.8-1.5h-.1c1.8-1.3 4-1.5 6-2.3 1.1-.8 2.5-1 3.8-1.5h-.1c1.8-1.2 4-1.5 6-2.3 4.8-2.2 10-3.5 15-5.2l-.1.1c.5-1 1.6-.2 2.2-.9 1.1-.8 2.5-1 3.8-1.5 1.7-.8 3.4-1.7 5.3-2.2 1.7-.9 3.4-1.7 5.2-2.3.4-.6 1-.5 1.6-.7h-.1c1-1 2.5-1 3.7-1.6.4-.6 1.1-.5 1.6-.7h-.1c1-1 2.5-1 3.7-1.6.4-.6 1.1-.5 1.6-.7h-.1c1.6-1 3.4-1.7 5.2-2.3.4-.5 1.1-.4 1.6-.7h-.1c1.1-.9 2.5-.9 3.7-1.6.4-.5 1.1-.4 1.6-.7h-.1c.5-.8 2.3-.5 2.1-1.6-.3-1.8-2.6-1.3-3.6-2.4-2-.8-4.1-1.1-6-2.3-3.9-.8-7.2-3.6-11.4-3.7-.3.5-.2 1.2-.7 1.6-.5 1-1.2 1.8-2.3 2.2-.2.4-.4.7-.9.7l.1-.1c-.5.9-1.4 1.2-2.2 1.6-.6.7-1.4 1.1-2.3 1.5-1 1.2-2.5 1.5-3.8 2.3-1.5 1.5-3.5 2-5.2 3-1.1 1.1-2.5 1.6-3.8 2.2-1 1.2-2.5 1.6-3.7 2.3-1 1.2-2.5 1.5-3.7 2.3-.6.7-1.4 1.2-2.3 1.4-.2.7-1 .5-1.4.9-1.1 1-2.5 1.5-3.8 2.2-2.8 2-5.8 3.4-9 4.5-1.1.9-2.5 1-3.7 1.5-1.2.8-2.5 1.1-3.8 1.5-.5 1-1.6.3-2.2.8-.5.9-1.6.2-2.3.8-2 1.1-4.3 1-6.4 2-3.4 0-6.8.1-10.2 0-1.2-1.1-2.9-.2-4.1-1.2-.7-.5-1.7.1-2.3-.8-.5-.2-1.1-.2-1.6-.5-.4-.4-1-.5-1.5-.8-.4-.4-1.1-.5-1.3-1.1v.1c-.5 0-.7-.3-.9-.7-.3-.1-.5-.3-.8-.4l-.3-.3c-.1-.3-.3-.5-.4-.8-.4-.2-.6-.4-.7-.9l.1.1c-.8-.6-1.2-1.4-1.5-2.3v.1c-.6-.3-.5-1-.8-1.5v.1c-.6-.4-.5-1.1-.7-1.6l.1.1c-.9-.5-.3-1.6-.8-2.3v.1c-1.1-3.4-1-6.9 0-10.3v.1c.5-.7-.1-1.7.8-2.3v.1c.3-.5.2-1.2.7-1.6.4-.4.3-1.1.7-1.5.4-.4.3-1.1.8-1.5.4-.4.2-1.2.9-1.5v.1c.3-.9.8-1.7 1.5-2.3.5-.8.8-1.6 1.5-2.3.5-.8.8-1.7 1.6-2.2l-.1.1c.1-.4.4-.7.7-.9 1.8-2.6 4.1-4.8 6.7-6.7.2-.3.5-.6.8-.7l-.1.1c.6-.8 1.5-1.1 2.2-1.6.7-.6 1.5-1.1 2.3-1.5.3-.6 1-.4 1.5-.8.4-.5 1.1-.4 1.5-.8.4-.5 1.1-.4 1.5-.7.4-.5 1.1-.4 1.6-.7h-.1c.5-.9 1.6-.2 2.2-.9.4-.5 1.1-.4 1.6-.6h-.1c.5-.9 1.6-.3 2.2-.8.5-.8 1.6-.2 2.2-.8.6-.8 1.6-.2 2.3-.8.6-.8 1.6-.2 2.3-.7.8-1 2.1 0 3-.8.8-.9 2.1 0 3-.7.6-1.5-1.1-1.6-1.5-2.4l.1.1c-.4-.1-.6-.4-.8-.7a60.8 60.8 0 0 1-10.4-10.5c-.4-.2-.7-.4-.7-.9l.1.1c-.9-.5-1.1-1.4-1.7-2.1-.3-.2-.6-.5-.7-.9l.1.1c-.8-.6-1.1-1.4-1.6-2.2a12 12 0 0 0-2.3-2.2c-1.3-.7-2.3-1.7-2.9-3-.3-.2-.6-.5-.7-.9l.1.1c-1.1-1.2-2.3-2.2-3.1-3.7-.4-.2-.7-.4-.7-.9l.1.1c-.9-.5-1.2-1.4-1.6-2.2v.1c-.9-1.2-2-2-3.7-1.8-2.7.3-5.2-.7-7.6-2-.5-.3-1.2-.2-1.5-.8-.5-.3-1.2-.2-1.5-.8-.9-.3-1.7-.7-2.3-1.5-1.2-.5-2.2-1.3-3-2.3l.1.1c-.5 0-.7-.3-.9-.8l.1.1c-.4-.1-.7-.4-.8-.8l.1.1c-.4-.1-.6-.4-.8-.8l.1.1c-.4-.2-.6-.4-.8-.8l.1.1c-.4-.2-.7-.4-.8-.8l.1.1c-.4-.1-.7-.4-.8-.8l.1.1c-1.2-1.5-3.1-2.6-3.7-4.5v.1c-.9-.5-1.2-1.4-1.6-2.2-.8-1-1.8-1.8-2.2-3.1v.1c-.8-.6-1.1-1.4-1.6-2.2-.8-1-1.8-1.8-2.2-3.1v.1c-.9-.9-1.8-1.8-2.3-3-.4-.2-.7-.4-.7-.9l.1.1c-1-.8-1.8-1.8-2.4-3v.1c-3.2-3.5-6.3-7.3-8.9-11.2v.1c-.9-.9-1.8-1.8-2.3-3v.1c-1.5-1.6-2.7-3.4-3.7-5.3l.1.1c-.8-.5-1.2-1.4-1.6-2.3v.1c-.8-.5-1.2-1.4-1.6-2.3v.1c-1-1.3-2.4-2.2-3-3.8v.1c-.4-.1-.7-.4-.8-.8l.1.1c-.5-.1-.7-.4-.8-.8l.1.1c-.5-.1-.7-.4-.8-.8l.1.1c-.4-.1-.7-.4-.9-.7-2.2-1.5-4.6-2.9-6.7-4.6-10.1-5.6-21.2-7.1-32.4-7.6-13.1-.6-26.2 1-39.3 1-8.2 0-16.4-.7-24.4-3-.9-.7-2.2.2-3-.8-.7-.5-1.7 0-2.3-.7-.6-.6-1.7 0-2.2-.7-.6-.6-1.7 0-2.2-.8-.5-.3-1.1-.2-1.6-.7-2.1-.8-4.1-1.6-5.9-3-.4-.4-1.2-.2-1.5-.9-.9-.3-1.7-.8-2.3-1.5-.8-.4-1.6-.8-2.2-1.5-.8-.4-1.7-.7-2.2-1.6l.1.1c-.5 0-.7-.3-.9-.7-1.1-.6-2.1-1.4-2.9-2.4l.1.1c-.5 0-.7-.3-.9-.7l.1.1c-.4-.1-.6-.4-.8-.8-.4-.2-.6-.4-.8-.8-.3-.2-.6-.5-.8-.7-.7-.3-1.2-.8-1.5-1.5-.3-.2-.6-.5-.7-.8-.3-.2-.6-.5-.8-.8-.4-.2-.6-.4-.8-.8l.1.1c-.4-.2-.7-.4-.8-.9l.1.1c-1-.8-1.8-1.8-2.4-3-.7-.6-1-1.5-1.6-2.2-.3-.2-.6-.5-.7-.9l.1.1c-.8-.6-1.2-1.4-1.5-2.3v.1c-.7-.3-.5-1-.9-1.4-.3-.3-.6-.5-.6-.9l.1.1c-.7-.2-.5-1-.9-1.5-.6-.7-1.2-1.4-1.4-2.4L19 212c-.7-.3-.5-1-.9-1.5v.1c-.6-.3-.4-1.1-.8-1.5-.5-.4-.4-1.1-.8-1.5-.5-.4-.3-1.1-.8-1.5-.4-.4-.3-1.1-.7-1.5-.5-.4-.3-1.1-.7-1.5-.5-.4-.4-1.1-.7-1.6v.1c-.6-.4-.5-1.1-.7-1.6l.1.1c-1-.5-.2-1.6-.9-2.2-.5-.4-.4-1.1-.6-1.6l.1.1c-1-.5-.3-1.6-.8-2.3v.1c-.9-.6-.3-1.6-.8-2.3v.1c-2.1-6.1-3-12.4-3.6-18.9-.5-5-.6-10-.6-15 0-1.1-.4-2.2.4-3.2v.1c.5-3 .5-6.1 0-9.1-.7-.6-1.1-1.5-1.5-2.3v.1c-.6-.3-.5-1.1-.8-1.6v.1c-.8-1.1-1.1-2.5-1.5-3.8l.1.1c-2.5-8.7-1.8-17.3.7-25.9v.1c.6-.6-.1-1.8.9-2.3H4c.2-.5.1-1.3.8-1.6l-.1.1c.7-1.8 2.1-2.9 3.7-3.8.4-.6 1.1-.5 1.6-.7h-.1c1.4-1.2 3.1-.1 4.5-.8l-.1.1c.7-1.2 2.1-.1 3-.9 1-1 2-.2 3 0 1.6.4 3.3.9 4.6-.8l-.1.1c.1-.4.4-.7.6-.9.4-.4.2-1.2.9-1.4l-.1.1c0-.4.3-.7.7-.9.5-.7.8-1.6 1.6-2.2.5-.8.8-1.7 1.6-2.2l-.1.1c0-.4.3-.7.7-.9.5-.8.8-1.7 1.7-2.2l-.1.1c0-.5.3-.7.7-.9v.2c.1-.4.4-.6.7-.8.6-.7.8-1.7 1.7-2.1l-.1.1c0-.5.3-.7.7-.9l-.1.1c.1-.4.4-.6.7-.8.2-.3.5-.5.7-.8.8-.9 1.4-2.1 2.5-2.8l-.1.1c0-.5.3-.8.8-.8l-.1.1c.1-.5.4-.7.8-.8l-.1.1c.1-.4.4-.7.8-.8l-.1.1c.1-.4.4-.7.8-.8l-.1.1c.1-.4.4-.7.8-.8l-.1.1c.1-.4.4-.7.8-.8l-.1.1c1.1-1.2 2.3-2.3 3.6-3.1.2-.3.5-.6.8-.7h-.1c.2-.4.4-.7.9-.7l-.1.1c.5-.9 1.4-1.1 2.2-1.6.2-.3.4-.7.9-.7l-.1.1c.2-.7 1-.5 1.4-.9.3-.2.5-.6.9-.7l-.1.1c.6-.7 1.5-1.1 2.2-1.6.6-.7 1.5-1 2.2-1.5.2-.3.5-.6.9-.6l-.1.1c.2-.7 1-.5 1.4-.9.2-.3.5-.6.9-.6l-.1.1c.2-.7 1-.5 1.4-.9.2-.3.5-.6.9-.6l-.1.1c.2-.7 1-.5 1.4-.9.7-.6 1.5-1 2.3-1.5.7-.7 1.4-1.1 2.3-1.4h-.1c.3-.7 1-.5 1.5-.9.3-.5 1.1-.4 1.4-.8.3-.3.5-.6.9-.6l-.1.1c.2-.7 1-.6 1.5-.9.3-.6 1-.5 1.5-.8.3-.6 1.1-.4 1.5-.8.4-.5 1.1-.4 1.5-.8.4-.5 1.1-.4 1.5-.8.4-.5 1.1-.4 1.5-.7.4-.5 1.1-.4 1.5-.7.4-.6 1-.5 1.6-.7h-.1c1.1-.9 2.5-1 3.7-1.6.4-.5 1.1-.5 1.6-.6h-.1c.5-1 1.6-.3 2.2-.9.6-.8 1.6-.2 2.3-.8.8-1 2.1 0 2.9-.8.8-.8 2.1 0 3-.7 1.1-.9 2.6.1 3.7-.7 1.7-1 3.7.1 5.4-.7l.2.1.2-.2c6.5-.7 12.9-.7 19.4 0 .6.3 1.3.3 2 .1 2.5.9 5.2-.3 7.7.7l.2.2.2-.1c1.5.7 3.3-.2 4.7.8 1.1.8 2.7-.3 3.7.8 1.4 0 2.7-.8 3.5 0Z" fill="#282828"/><path d="M223.3 212.7c0 .2.1.5.1.7 0 .5-.1 1.1-.6 1.2-.5.1-.8-.3-.9-.9-.1-1.3-.3-2.7.1-4 .7.9.1 2.4 1.3 3Z" fill="#7D6B66"/><path d="M260.5 344.6c-2.7-1.4-4.7-3.7-6.6-5.8-5.8-6.4-10.8-13.4-16.1-20.3-.4-.5-.8-1-.9-1.6-1.2-5.1-3.2-10.1-3.8-15.4-2.6-11.5-.9-22.9.9-34.2 2.1-13 5.2-25.7 9-38.3l.6-1.8c1.5-4.1 2.7-4.3 6.1-1.8 14.5 10.9 29.9 20.3 47.2 26.3a56.7 56.7 0 0 0 20.4 3.3c8-.2 16.1.6 24.1-.7 17.4-2.9 32.7-10.1 45.1-22.6 8.9-9 15.3-19.8 20.2-31.4 4.2-10.2 8.2-20.5 10.2-31.4 3.2-17.4 1-34.3-5.6-50.6-3-7.4-6.8-14.3-12.2-20.3-9-10.2-20.8-14.9-33.8-17.1-4.6-.8-9.3-1.4-14-1.2-1 0-2.2.3-2.6-.8-.5-1.2.7-1.8 1.4-2.3 3.2-2.5 6.7-4.7 10.2-6.8 17.5-10.7 35.5-20.7 54.9-27.8 12.8-4.7 26-7.3 39.4-9.2 5.6-.8 5.7-.6 4.9 5.4 0 3.1-.1 6.2-.1 9.3-.2 11 2.2 21.4 7.6 31 5.4 9.7 11.5 18.8 19.1 26.9 7.9 8.4 17.7 13.9 28.1 18.3 8.6 3.6 17.6 5.5 27 6.2 7.2.5 14.4.6 21.5.3 12.5-.4 23.9-4.7 34.4-11.4 6.2-3.9 12.2-8.1 17.2-13.5 9.6-10.5 18-21.8 22.6-35.4 1.6-4.8 2.8-9.7 4.1-14.6.7-.6.1-1.6.7-2.3 1.4-1.1 2.9-.4 4.3-.1 17.1 4.2 33.2 10.8 48.3 19.9 6.4 3.8 12.8 7.5 19.4 11.1 1.1.6 2.2 1.2 3.1 2.1 1.4 1.2 1.2 2.3-.4 3.2-.5.3-1.1.5-1.7.8-16.2 6.5-30 16.9-44 26.8-13.7 9.7-20.6 24.1-25 39.8-1.8 6.7-3.3 13.5-3.4 20.5-.1 7.4 1.8 14.4 5.9 20.8 4.9 7.8 11.2 14.5 16.7 21.8 9.4 14.1 23.1 23.3 37.4 31.5 9.1 5.2 19.3 7.5 29.6 9.4 5.4 1 10.7 1.6 16.2 1.6 9.4-.1 18.3-2.5 27.4-4.4 8.7-1.8 16.9-4.6 24.6-9 9.6-5.4 18.7-11.7 27.3-18.6.4-.3.8-.6 1.2-.8 1.8-1.1 3.3-2.5 5.5-3.1 3.5-.9 5 0 5.2 3.6.3 3.9.2 7.9.6 11.9 1.3 14.2 3 28.3 2.6 42.6-.3 11.6-2.6 22.8-5.2 34.1-.6 2.1-2.2 3.4-3.5 5-.9 1.1-2.6 1.9-1.9 3.8.6.1 1.2 0 1.8.1.3.2.5.5.6.8-.6 5.3-2.6 9.3-7.9 11.8-6.9 3.2-13.5 7.2-20.3 10.6-1.5.8-3.4 2.3-4.6-.5.3-2.2 2.2-2.5 3.7-3.2 7.6-3.7 14.8-8 21.9-13.6-1.6 0-2.3.6-3.1 1-.9.4-1.7 1-2.6 1.4-5.6 3.2-11.5 5.8-17.2 8.8-1.1.6-2.2 1.1-3.6.7-1.2-.4-1.7-1.4-2.1-2.4-6.8-15.5-19.2-23.9-35.3-27-15.2-3-30.2-1.9-45.1 2.5-11.6 3.5-20.6 10.7-28 19.9-7.1 8.8-11.7 18.9-15.5 29.5-1.2 3.5-2.2 7.1-1.7 10.9.2 1.7-.5 2.9-2.2 3.5-7.5 1.7-15.2 1.8-22.8 2.4-23.4 1.8-46.9 2.7-70.3 2.4-4.8-.1-9.6-.7-14.4-1.2-2.5-1.3-.7-2.8 0-3.9 4-6.6 7.9-13.2 11.1-20.2 6.9-15.2 12.9-30.6 15.5-47.2 2.3-14.3 1.9-28.4-5.2-41.6-4-7.4-9.6-13.5-15.8-19.1-5.2-4.6-10.5-9.1-15.6-13.8-12.1-11-26.7-15.6-42.5-17.6-21.5-2.7-41.5 2.4-60.9 11.2-18.6 8.5-33.8 21.3-49.3 34.2-20 16.7-31.9 38.5-40.9 62.3-1 2.6-1.5 5.2-2.2 7.9-1 3.8-1.9 4.4-5.8 3.9-12.9-1.7-25.6-4.4-38.3-7.6-16.4-4.2-32.2-10-47.6-16.9-3.2-1.4-6.3-2.9-9.3-4.7-1.7-1.1-3.5-1.7-5.6-1.8-4.1-.1-6.8 1.6-8 5.3-.9 3 .3 6.4 3.4 8.3 4.4 2.7 8.9 5.4 13.9 7.1 8.2 4.6 16.5 9.1 24.8 13.4 24.7 12.8 51.1 20.9 78.1 26.9 23.2 5.2 46.6 9.7 70.3 12.3 14 1.5 28.1 2.6 42.2 3.5 29.1 1.8 58.1 1.8 87.2 2.4 14.1.3 28.2.7 42.3.4 14.7-.4 29.4-1.2 44.1-2.6 7.4-.7 14.8-1.6 22.2-1.7.4 0 .7.1 1.1.1 1.6.2 3.2.7 3.3 2.4.1 1.9-1.8 2.1-3.2 2.4-7.4 1.7-14.9 2.7-22.3 3.8-15.9 2.4-31.9 3.9-48 4.7-18 .9-36.1 2-54.1 3-12.8.7-25.5.9-38.2.4-14.4-.5-28.9-1.2-43.3-2.6-18.7-1.9-37.5-3.5-56.2-5.2-20.8-2-41.1-6.5-61-12.6-26-8-51.2-18-75.6-29.9-4.7-2.6-9.1-5.3-13.3-8Z" fill="#A69561"/><path d="M216.7 282c1.2 9.4 2.8 18.8 6.1 27.9-2.4-1.5-4.1-3.6-5.6-5.8-9-14-19.7-26.8-28.5-40.8-10.1-16.2-25.1-24.1-43.4-26.7-14.9-2.1-29.7-1.1-44.5.5-12.2 1.3-24.4 2.1-36.6-.4-9.7-2-17.5-7.2-24.9-14 2.8-1.3 5.4-.8 7.9-1.4 5.2-1.2 10.4-2.2 15.6-3.3 1.7-.4 3.2-1.4 4.6-2.3 1.3-.8 1.3-2 .3-3.1-1.4-1.6-3.2-2.3-5.3-1.7-3.4.8-6.8 1.5-10.1 2.5-5.1 1.4-10.4 2.2-15.6 3.2-1.8.3-3-.1-4.1-1.7-9.6-13.7-15.8-28.5-16.4-45.4-.2-5.7.2-11.4.3-17.1.1-2.3.8-3.8 2.9-5 5.8-3.5 9.5-8.6 11.1-15.2.2-.8.5-1.7.7-2.5.9-2 .7-4.2.3-6.2-1-6.1 2.2-10.1 6.2-13.8 4-3.7 8.2-7.1 12.9-10 8.1-5.1 15.9-10.5 23.9-15.8 9.8-6.5 20.2-10.7 32.2-11 13.7-.4 27 1.4 39.5 7.2 10.6 4.9 16.3 14.1 20.5 24.4 1.7 4.1 2.8 8.5 4.9 12.4 7.1 13.1 9.7 27.4 12.6 41.8 4.5 22.7 9.1 45.4 14.8 67.9 3 11.8 8 22.9 15.5 32.7 1.3 1.7 1.7 3.4 1.8 5.5.2 5.7-.5 11.5.4 17.2Z" fill="#E6D5A2"/><path d="M746.1 250c-14.1-.4-27.7-3.1-40.3-9.5-6.6-3.4-12.4-8-18.3-12.5a72.6 72.6 0 0 1-7.7-7 37.5 37.5 0 0 1-9.1-14.7c-1.6-4.9-3.4-9.8-4.2-14.9-.7-4.9-1-9.7-.1-14.6 2.1-11.6 6-22.6 10.8-33.4 2.9-6.5 7.1-12.4 11.4-18.2 6.1-8.3 14.5-12.8 23.7-16.4 8.9-3.5 18-5.8 27.5-6.9 2.4-.3 4.9-.5 7.3-1.1 2.2-.5 4.6-.5 7 .2 2.4.7 4.8 1.3 7.3 1.1 1.4-.1 2.3.5 3.3 1.4 6.9 6.9 14.6 13.1 21.1 20.4 6.3 7.1 12.7 14.1 18.4 21.7 7.3 9.7 13.8 19.9 19 30.9 4.5 9.5 8.1 19.3 11.5 29.3.7 2.2.2 3.6-1.4 4.9-4.7 3.8-9 8.1-14 11.6-9.7 6.8-19.5 13.4-30.3 18.6-5.3 2.6-10.9 3.8-16.6 5.2-6.2 1.5-12.5 2.8-18.8 3.9-2.5.3-5.1 0-7.5 0ZM304.4 230.1c-6.2-1.5-12.5-.4-18.5-1.9-8.3-2.1-15.4-6.4-22.4-11.2-9.5-6.7-14.1-16.2-16.2-27.2-.3-1.6.3-2.9 1-4.2 2.5-5.3 5.8-10 8.7-15.1 6-10.4 13.7-19.6 21.2-28.9 8.1-10 17.4-18.9 26.5-28 6.8-6.8 14.1-13.1 21.5-19.3.7-.6 1.4-.9 2.3-1.1 4-.8 8.1-.2 12.1.1 3.2.3 6.3 1.1 9.4 1.8 8.8 1.9 16.2 6.4 23.1 12 3.6 2.9 7 5.8 9.7 9.6 3.5 5 5.2 10.6 6.5 16.4 1.3 5.8 2 11.6 2.5 17.5.4 4.4 0 8.6-.3 12.8-.4 6.5-2.8 12.6-6.2 18-5.1 8.2-11 15.8-17.9 22.5a98.1 98.1 0 0 1-11.8 9.5c-5 3.6-10 7.3-15.6 9.9-5.9 2.8-12.1 4-18.4 5.2-5.9 1.2-11.7-.2-17.2 1.6ZM468.9 21c3.8-1.1 7.7-1.7 11.6-2.2 4.7-.7 9.5-1.3 14.2-2.1 2.4-.4 4.9-.5 7.3-.7 3.9-.3 7.8-1.1 11.8-1 6.9.1 13.8-1.5 20.7-.6 5.9.7 11.8.4 17.7 1.2 4.5.6 9 1 13.6 1.6 6.5.8 12.9 1.9 19.3 3.1 9.9 1.8 19.8 3.8 29.7 5.9 5.7 1.2 11.2 2.8 16.8 4.7 2.6.9 3.1 1.6 2.5 4.4-1 4.2-2 8.4-3.2 12.5-2.1 7.1-4.5 14.1-7.5 20.9-2.6 5.9-6.3 11.2-10.3 16.2-2.8 3.6-5.6 7.2-8.9 10.4-9.5 8.9-20.2 15.8-32.8 19.6-2.7.8-5.5 1.3-8.4 1.3-7.3-.1-14.6 0-21.9 0-9.3 0-18-2.4-26.4-6.2-7-3.2-13.5-7.2-19.5-12-2.6-2.1-4.5-4.9-6.6-7.5-5.9-7.1-11.4-14.6-15.2-23.1-2.2-4.9-3.5-10-4.3-15.3-1-7.3-1.6-14.7-1.5-22.1 0-2-1.1-3.8-.7-5.9.1-.6.2-1.2.7-1.6.9.8 1.1 1.7.4 2.8.5-1.3-.2-3 .9-4.3Z" fill="#5F532F"/><path d="M380.5 406.9c7.4.7 14.6 2.3 22 3.4 4.6.7 9.3 1.3 14 1.9-.2.5-.2.9-.5 1.2-14.3 14.4-28.7 28.8-45 41-14 10.6-28.3 20.9-43.9 29.1-9.4 4.9-19 9.6-29.4 12.3-.7.2-1.4.3-2.2.4-1.3.5-2.9.7-2.3-1.3 1.4-5.4-.3-9.5-5-12.4-5.2-3.2-10.3-1.7-15.2.7-2.6 1.3-4.6 3.4-6.1 5.8-1.7 2.5-2.1 5.3-.4 8.1.5.8 1.2 1.6.8 2.7h-2.2c-1.7-.8-3.6.1-5.3-.6-8.9-.8-16.5-4.6-23.8-9.5-4.1-5.6-4.2-14.6-.1-20.1 5.5-7.4 12.5-12.9 20.8-16.9 21.9-10.5 44.3-20.1 67.2-28 14.6-5.1 29.4-9.8 44.6-13.2 2.9-.7 5.7-1.6 8-3.7 1-1 2.4-1.6 4-.9Z" fill="#E6D5A2"/><path d="M459.3 38.2c-.1-5.1-.1-5.2-5.2-4.5-17.2 2.4-34 6.2-49.8 13.6-5.5 2.5-11.2 4.7-16.5 7.6-12.8 6.8-25.3 14-37.4 22-.6.4-1.3.8-1.5 1.5-.1.4.1.6.4.6 6.3-.8 12.4.3 18.6 1.5 3.6.7 7.2 1.7 10.7 2.8 12.1 4 20.9 11.9 27.4 22.6 5.4 8.7 8.9 18.2 11 28.2 1.1 5.2 1.7 10.4 2 15.7.9 15.1-3.3 29.1-8.5 42.9-2.1 5.7-4.4 11.3-7.3 16.6-3.7 6.9-7.9 13.3-13 19.3-12 14.2-27.6 22-45.4 26-4.6 1-9.2 1.5-13.9 1.4-5.2-.1-10.4 0-15.6 0-9.4-.1-18.4-2.4-26.9-6.2-11.2-5-21.6-11.5-32-17.9-3-1.9-6-3.9-8.5-6.6-1.5-1.7-2.4-1.5-3.1.7-2.2 6.9-4.3 13.9-5.9 21-1.5 6.6-2.9 13.2-4 19.9-1 5.7-2 11.4-2 17.2 0 1.7 0 3.4-.5 5.1-.4 1.1-.4 2.5-.1 3.7.8 2.8.5 5.6.5 8.5-1.5-2.9-1.6-6.1-2.2-9.3-.6-3.3-.5-6.7-.9-9.9-.4-3.5-.7-6.9-.5-10.3.5-6.9.7-13.8 1.2-20.7.8-9.6 1.9-19.1 3.9-28.6 1.4-6.5 3.4-12.9 5.5-19.2.3-.9.8-1.8 1.3-2.7 1.4 1 1.4 2.4 1.8 3.6 1.7 4.6 4.3 8.6 7.4 12.3 7.7 9.2 17.4 15.7 28.2 20.5 5.1 2.3 10.5 3.3 16.1 4 5.9.7 11.9.7 17.8.6 17.7-.4 33.8-5.3 48-16.2 7-5.3 14.3-10.2 20.2-16.8 7.7-8.6 15.3-17.2 20.2-27.8 2.6-5.7 4-11.6 4.6-17.8 1.6-15.2-1.7-29.7-6.8-43.8-3.2-8.8-9-15.5-16.5-21-3.7-2.7-7.5-5.2-11.4-7.6-9.7-5.9-20.1-8.1-31.3-6-.3.1-.7 0-1.1 0-.3-1.2.7-1.5 1.3-1.9 15.1-11.5 31.2-21.3 48-30.1 10-5.2 20.1-10.2 30.3-14.9 9.2-4.2 18.5-8.2 28.1-11.7 4.3-1.6 8.8-2.4 13.2-3.6.6-.2 1.2 0 2.1 0-.4 2.9-.5 5.7-1.3 8.4-.3 2.5.7 5.1-.7 7.3Z" fill="#938456"/><path d="M216.7 282c-1.1-1-.7-2.3-.7-3.5 0-4.5-.1-8.9 0-13.4a7 7 0 0 0-1.4-4.4c-8-10.3-13-22-16.6-34.5-3-10.8-4.9-21.8-7.3-32.8-1.5-7-3.1-13.9-4.6-20.9-1.7-7.6-2.9-15.2-4.4-22.8-1.9-9.6-4.1-19.1-8.6-27.8-2.9-5.7-5.5-11.6-7.2-17.8-1.1-4.1-3.6-7.6-6.1-10.9-1.8-2.3-3.5-4.7-5.5-7-2.7-3.1-6.4-4.5-10-6.2-7.7-3.5-16-5.1-24.3-6-5.2-.6-10.6-.8-15.9.4-2.6.6-5.4-.1-8.1.5-6.8 1.5-12.8 4.7-18.5 8.4-9.9 6.3-19.6 12.9-29.4 19.4-5.7 3.8-10.5 8.5-14.9 13.7-.8.9-1 1.9-.9 3.1v7.4c0 1 .2 2-.8 2.7.1-5.1.7-10.1-.7-15.1-.3-1.1 0-2.2.7-3.1 7-10.4 14-20.8 24.1-28.4 11.5-8.7 23.5-16.4 36.9-21.9a67 67 0 0 1 33.4-4.5c3 .3 6.2-.2 9.1 1-1.9 1.6-3.9.1-5.1.2 15.9 2.3 31.4 7 42 21.8.1.1.6-.5.2-.2-.1.1-.2 0-.3-.1-1-1.9-1-3.7.4-5.4 2.9 1.8 4.8 4.6 6.8 7.2 8.1 10.9 12.8 23.4 16.1 36.4 4.5 17.7 8 35.7 10.6 53.8 1.6 11.1 3.6 22.2 5.3 33.3 1.5 9.5 2.8 19.1 4.2 28.6.3 2.1.4 4.3 1.1 6.2 1.6 4 1.4 8 1 12.1-.9 9.6-.7 19.3-.5 28.9 0 .4-.1 1-.1 1.6Z" fill="#D3C395"/><path d="M744.9 391.2c5.4-2.2 11-3.6 16.6-5.3 10.5-3.3 21-6.8 30.9-11.6.6-.3 1.2-.9 2-.5.1.2.2.5.2.7-3.5 11.7-6.1 23.8-11 35.1-6.5 15-15 28.8-26.8 40.3-9.3 9-19.7 16.2-32.3 19.9-6.4 1.9-13 3.1-19.8 2.8-7.1-1.7-13.3-5.2-18.4-10.3-3.1-3.1-3.9-7-2.7-11.3 4.7-16.3 14.9-28.3 28.3-38.3 10.6-8 21.9-14.6 33-21.5Z" fill="#E6D5A2"/><path d="M835.7 319.2c1.6-8.3 3.5-16.6 4.6-25 1.2-9.8.7-19.5.5-29.2-.1-5.5-1.3-11-1.8-16.4-.5-5.9-1.3-11.8-1.1-17.7.2-4.9 0-4.9-4.8-3.3-1.6.6-3.2 1.1-4.9 1.7 3.3-3 6.5-6 9.8-9 1 1.3.9 3.4 1.2 5.3 1.8 10 3 20 4 30.1 1.1 11 1.4 22 1.4 33 0 3.1-.4 6.1-1.1 9.2-1.1 4.6-.4 8.9 2.9 12.6 2.9 3.2 3.9 6.7 2.4 10.9a43.5 43.5 0 0 1-6.7 11.9 64.38 64.38 0 0 1-17.7 15.6c-4.1 2.5-8.6 4.4-13 6.4-7 3.2-14 6.2-21 9.5-10.2 4.8-21 8.1-31.8 11.1-7.5 2.1-15 4.3-22.6 6-11 2.5-22 4.4-33 6.8-12.8 2.8-25.8 4.3-38.7 6.4-5.2.9-10.5 1.5-15.8 1.8-5.2.3-10.3 1.1-15.4 1.9-3.3.5-6.6.4-10 .8-3.9.4-7.9.8-11.8 1.1-6.8.5-13.5 1.4-20.3 1.9-10 .7-19.7 3.1-29.8 3.5-7.7.2-15.4 0-23 .6-6.1.5-12.1.9-18.2.5-10.3-.7-20.6-.2-30.8-.8-8.9-.5-17.8-.8-26.6-1.5-8.6-.7-17.1-2.1-25.8-2.7-7.3-.5-14.4-1.8-21.7-2.5-8.3-.8-16.6-2.4-24.9-3.6-10.9-1.6-21.6-3.9-32.3-6.5-17.8-4.4-35.2-10.1-52-17.4-12.4-5.4-24.4-11.5-35.6-19.1-3.6-2.4-7.4-4.6-10-8.2 2.6.4 4.9 1.8 7.1 3.1 7.8 4.6 16.1 8.1 24.4 11.8a472 472 0 0 0 28.5 11.6c12.8 4.8 25.8 9.2 39.1 12.9 10 2.7 20.1 5.1 30.3 6.9 6.7 1.2 13.4 2.1 20.1 2.7 6.4.6 12.7 1.5 19.1 2.1 3.4.3 6.9.6 10.3.7 6.4.3 12.7 1.5 19.1 1.8 5.8.3 11.5.9 17.3 1.4 9.6.8 19.2.9 28.8 1.6 12.4.9 24.8.2 37.1.6 6.4-1.6 13.1.1 19.5-1.4.5-.1 1-.1 1.5 0 7.2.5 14.3-.6 21.5-.9 8.7-.4 17.5-.8 26.2-1.5 10.8-.8 21.6-1.6 32.3-3.4 9.7-1.6 19.5-2.8 29.2-4.6 1.2-.2 2.3-.7 3.5-1-.7-2.3-2.5-1.9-4-2 0-.7.4-1.2 1.1-1.3 7.4-1 14.8-3 22.3-3.1 1.5.5 2.8 1.4 4.6.9 21.9-5.5 44.2-9.9 65.7-17 5.8-1.9 11.2-4.6 16.8-6.9 1.1-.5 2.3-1 2.3-2.5 3.7-3.4 8.7-4.3 13-6.4 1.3-.7 2.7-1.9 4.4-.8.5 1.2 1.3 1.3 2.3.7 2.4-1.3 4.9-2.4 7.3-3.7 5.5-3 11-6.1 16.6-8.9 2.2-1.1 3.5-2.5 4.1-4.8.5-1.9 1.1-3.8 1.7-5.6.6-2.5 2.8-3.5 4.5-5 2.6-2.2 4.5-4.8 6.2-7.7.4-.7.9-1.8 0-2.4-1-.7-1.5.4-2 1-1.1 1.3-2.2 2.7-3.3 4-.7.5-1.4 1.9-3.1 1.4ZM664.6 219.6c-4.7-3.5-8-8.4-11.6-12.9-2.3-2.9-4.3-6-6.3-9.1-3-4.8-4.5-10-5.3-15.6-1-7.9.6-15.4 2.4-22.9 2.5-10.4 6.2-20.3 12.4-29.2 4.4-6.4 9.8-11.8 16.2-16.1 9.5-6.5 19.1-12.7 28.8-18.8 4.3-2.7 9-4.7 13.8-6.4.7-.2 1.3-.6 2.2-1-1.6-1.6-3.3-2.4-5-3.4-7.7-4.4-15.5-8.8-23.2-13.2-10.7-6.1-21.8-11.1-33.6-14.4-4.6-1.3-9.2-2.9-13.9-3.7.5-5.4 1.1-10.8 1.6-16.2.2-1.9 1.4-1.8 2.7-1.4 4.2 1.5 8.5 2.7 12.6 4.5 10.5 4.6 21.2 9.1 31.4 14.3 15.6 7.9 30.9 16.2 45.2 26.3 5.2 3.7 10.5 7.3 15.6 11.7-5.8.7-11.1 1-16.5 1.6-10.8 1.3-21 4.5-31 8.6-7.4 3-13.7 7.4-19 13.3-4.5 5-8.3 10.4-11.8 16.2-7 11.7-11.3 24.4-14.9 37.5-3 11-2.3 22 .6 32.9 1.7 6 4.3 11.7 6.6 17.4Z" fill="#938456"/><path d="M380.5 406.9c-1.3 0-2.4.3-3.3 1.4-1.8 2.3-4.3 3.2-7 3.9-12.7 3-25.2 7-37.7 10.8-14.5 4.4-28.2 10.3-42.2 16-12.6 5.1-24.9 10.8-37.2 16.6-1.4.7-2.8 1.6-4 2.6-4.7 3.8-9.3 7.6-13 12.5-2.7 3.7-2.6 7.6-2 11.7.3 2.5 1.2 5 1.9 7.5-2.2-1-4-2.5-5.6-4.2-5-5.4-6.9-11.5-4.3-18.7 4.5-12.3 13.2-20.9 24.7-26.4 8.4-4 17.1-7.2 25.8-10.4 11-4 21.6-8.6 32-13.8 11.3-5.6 23-10.5 33.5-17.6.9-.6 1.8-.8 2.8-.5 11.5 3.7 23.5 5.9 35.3 8.4.1 0 .2.1.3.2ZM744.9 391.2c-1 2.1-2.7 3.5-4.8 4.4-9 4-16.7 9.9-24.6 15.7-5.1 3.7-10.3 7.3-14.6 11.8-7.6 8-13.4 17-16.2 27.8-1.5 5.6.2 9.7 4.9 13.1 4.4 3.1 9.1 5.5 14 7.6.5.2.9.4 1.2.8-5.7 1-11.3-.2-16.9-1.3-11.7-2.3-15-11.1-14.9-21.6 0-4.7 1.7-9.2 3.8-13.5 1.9-3.9 4.2-7.6 6.8-11.1 5.3-7.2 10.7-14.2 16.1-21.3 1.5-2.1 3.4-3.4 6-3.9 13.1-2.7 26.1-5.6 39.2-8.5Z" fill="#D3C395"/><path d="M277.6 392.7c-10.4 6.5-21 12.5-33 16-4.5 1.3-9 1.6-13.5.4-5.7-1.5-8.1-6.5-5.4-11.7 3.5-6.8 8.1-12.7 14.9-16.6 4.8-2.8 10-4.9 15.3-6.6 1.9-.6 3.8-.6 5.8 0 8.8 2.9 17.7 5.5 26.4 8.9 1.4.5 3.8.4 3 3.2-3.2 1.5-6.4 3-9.7 4.5-1.5.8-1.9-.3-2.4-1.3s-1-2-2.1-2.5c-1.5-.6-3-.7-3.8 1-.7 1.6.4 2.4 1.7 3.1 1.1.3 2.7-.1 2.8 1.6ZM893.4 274.8c.2 3.6-.6 7.1-1.3 10.6-1.9 9.4-6.8 16.9-14.7 22.3-6.1 4.2-12.2 8.4-18.4 12.6-.2.1-.5 0-.7.1-1.8-11.6-2.1-12.2-9.2-16.7 3.2-4.1 5.2-8.7 6.5-13.6.3-1.3 1-1.8 2.3-2 11.5-1.6 22-5.7 31.7-12 1.6-1 1.6-1 3.8-1.3ZM656.4 415.8c-5.9 7.5-12.7 13.8-21.2 18.2-4 2.1-8.1 3.6-12.7 3.7-1.1 0-2.2 0-3.3-.1-7.9-1.1-9.8-4.9-8.9-10.5.5-1.8 1.5-2.9 3.5-3.3 13.1-3 26.3-5.6 39.2-9.5 2.6-.8 2.8-.5 3.4 1.5Z" fill="#E6D5A2"/><path d="M267.3 499.9c-4.2-5.4-3.9-8.9.9-13.9 4-4.2 8.9-6.1 14.6-6.1 4 0 10.2 3.3 11.7 8.8.5 2.1.6 4.1-.3 6.1-.8 1.8.7 1.3 1.5 1.5-5.7 2.1-11.6 3.1-17.6 3.6-3.7.2-7.3 0-10.8 0ZM656.4 415.8c-.1-.9-.4-1.3-1.5-1-2.6.8-5.2 1.3-7.8 2.1-10.8 3.4-22 5.2-32.9 7.8-1.7.4-2.9 1.1-3.9 2.4-.1-4.6 1.6-9 2.5-13.5.2-1.2 1.2-1.4 2.3-1.5 3.7-.4 7.4-1 11.1-1.2 12.2-.7 24.4-2.4 37.4-3.7-2.7 3.2-4.7 6.1-7.2 8.6ZM291.1 386.2c0-1.1-.8-1.3-1.6-1.7-9.8-3.8-19.9-6.7-30-10-1.1-.4-2.4-.3-3.6-.4 5.1-2.1 10.3-4.2 15.4-6.3.9-.4 1.7-.2 2.5.2 8.5 5 17.2 9.8 26.3 13.8-2 2.2-2.9 2.6-9 4.4Z" fill="#D3C395"/><path d="M172.1 73.6v6.2c-1.3.3-1.7-.5-2.1-1-5-6.7-11.3-11.5-19.2-14.6-7.1-2.8-14.4-4.8-21.9-6.7h5.9c14.2 1.4 26.9 6.1 37.3 16.1Z" fill="#E4D4A1"/><path d="M277.6 392.7c-.6-.8-1.6-.6-2.4-.7-1.8-.2-2.9-1.2-3.4-3-.3-1.4.3-2.4 1.4-3.2 1.3-.9 3.6-.7 4.9.3 1 .8 1.8 1.7 1.9 3.1 0 .9.7 1.2 1.5 1.3a8.54 8.54 0 0 1-3.9 2.2Z" fill="#D3C395"/><path d="M14.3 130c0 .9.1 1.7 0 2.6-.2 1.2-.8 2.1-2.1 2.3-1.3.2-2.1-.4-2.8-1.4-1.3-1.8-1.2-5.3.3-6.9 1.4-1.5 3.8-1.1 4.5.8.3.8.2 1.7.3 2.6h-.2Z" fill="#F9F9F9"/><path d="M468.9 21c-.2 1.8.8 3.8-1 5.5-.9-1.4-.3-2.8-.5-4.1.3-.5.8-1.1 1.5-1.4Z" fill="#86784E"/><path d="M259.7 499.3c1.8.1 3.7-.7 5.3.6-1.8.1-3.6.3-5.3-.6Z" fill="#D3C395"/><path d="M641.5 53c0 .8.2 1.7-.7 2.3 0-.9-.2-1.8.7-2.3Z" fill="#938456"/><path d="M801.5 349.7c-5.8 2.2-11.5 4.8-17.1 7.4-1 1.6-2.7 2.1-4.3 2.8-21 9.8-43.4 15.2-65.8 20.2-4.9 1.1-9.9 2.2-14.8 3.1-1.1.2-2.2.2-3.3.3-.4 0-.7-.1-1-.3-4.1-.1-8 1.2-12 1.6-3.6.4-7.2 1.3-10.9 1.5-.3 0-.6.3-.9.5-8 .6-16 1.2-24 2.1-3.4.4-6.9.7-10.3.7-7.4.1-14.9.6-22.2 1.1-14.4.9-28.8.9-43.1.4-16.6-.6-33.2-.1-49.8-.8-8.5-.3-17.1-.2-25.6-.7-9.1-.5-18.3-.9-27.4-1.5a588.52 588.52 0 0 1-71.3-8.6c-21.5-3.9-42.9-8.5-64-14.5-14.5-4.2-28.6-9.6-42.3-16.1-10.9-5.3-21.8-10.7-32.1-17.2-2.2-1.3-4.5-2.6-6.7-3.9-.9-.5-1.8-1.3-1.5-2.3.5-1.4 1.8-1 2.9-.7 6 1.7 11.6 4.4 17.2 7.1 30.1 14.4 61.2 25.6 93.8 32.8.7.2 1.4.4 2.3.1-3-16-.1-31.3 6.2-46 5-11.8 12.1-22.5 20.4-32.3 20.2-23.7 45.1-40.8 74.4-51.3 15.4-5.5 31.4-6.7 47.7-4.6 8.8 1.1 16.7 4.5 24.1 9.2 4.3 2.7 8.5 5.6 12.8 8.3 12.4 7.5 19.1 18.9 23 32.5 6.1 21.3 4.2 42.2-2.3 62.9-3.3 10.6-6.1 21.5-11.1 31.5-1.7 3.5-3.9 6.6-7.1 8.8 2.3-.1 4.7-.8 6.8.8 14.9 1 29.9 1 44.8.6 11.3-.3 22.7-.9 34-1.5 10.2-.6 20.4-1.9 30.5-2.9 3.6-2 7.6-1.9 11.5-2.6 4-.7 4-.7 3.4-4.7-1.6-10.8 1.3-20.2 9-27.9 10.6-10.5 22.9-18.7 37.5-22.4 16.8-4.3 31.9-.4 44.6 11.6 3.7 3.5 7.5 6.9 10.4 11.1 1.4 2 3 2.2 5.1 1.1 2.5-1.3 5.1-2.5 8-2.6 6.8-2.7 13.2-6.2 19.6-9.6 2-1 3.9-2.1 5.9-3.2.5-.3 1.1-.8 1.7-.1.6.7.1 1.4-.4 2-.5.5-1.1 1-1.7 1.4-6.3 4.9-13.1 8.8-20.2 12.3-1.7.8-3.3 1.3-4.4 2.5Z" fill="#282828"/><path d="M561.9 384.6h-8.8c7.7-6 10.5-14.3 13.3-22.7 3.4-10.3 6.6-20.7 9.2-31.3 2.5-10.2 3.5-20.5 2.5-30.9-1.1-11.1-3.4-22-8.5-32.1-3.1-6.2-7.3-11.6-12.9-15.5-8.4-5.9-16.8-11.9-26.1-16.3-6.9-3.3-14.3-4.8-21.9-5.1-10.9-.5-21.7.3-32.4 2.9-5.5 1.3-10.9 3.3-16.1 5.5-11.3 4.9-22.3 10.2-32.2 17.5-10.4 7.7-20.6 15.5-29.2 25.2-12 13.5-22.1 28.2-27.8 45.6-3.2 9.9-4.6 20-4 30.3.2 2.8.9 5.6 1.9 8.7-3.6-.8-7-1.3-10.2-2.2-13.5-3.6-27.1-6.9-40.2-11.7-13.3-4.8-26.3-10.1-39.2-15.9-8.5-3.9-16.9-8.3-25.9-11.2-.6-.2-1.1-.6-1.9-.2-.1 1 .8 1.3 1.4 1.8 2.1 1.5 4.5 2.6 6.2 4.6-2.8-.6-5.2-2.3-7.7-3.5-2-1-4-2-5.8-3.3-5-3.5-6.3-9.4-.8-14.1 2.9-2.5 6.5-1.9 9.9-.6 1.7.7 3.2 1.9 4.8 2.7 16.2 7.7 32.8 14.3 50.2 18.9 10.1 2.7 20.3 5.1 30.6 7 4.1.8 8.3 1.2 12.4 1.8 1.9.3 2.8-.3 3.3-2.4 2.3-10.6 6.5-20.5 11.6-30 5.2-9.8 10.5-19.6 18-28 3.8-4.3 7.9-8.5 12.5-12.1 4.1-3.2 7.9-6.7 11.8-10.1 9.6-8.2 19.6-15.8 30.9-21.5 8.7-4.4 17.5-8.8 26.9-11.5a170 170 0 0 1 18.8-4.1c6.2-1 12.4-1 18.5-.5 13 1.1 25.7 3.4 37.2 10.1 4.9 2.9 9.4 6.4 13.6 10.2 6.8 6.1 14 11.8 20.2 18.6 8.1 8.8 13.4 18.8 15 30.8.8 6.2.5 12.2.1 18.4-1 14.3-5.9 27.5-10.8 40.6-4.7 12.6-10.9 24.5-18.4 35.6ZM800.7 344.5c-3.4 1.5-6.7 3.1-10.1 4.6-1.1.5-1.8.4-2.5-.7-3.2-5-7.4-8.9-11.7-12.9-5.2-4.8-11.1-8.8-17.9-10.9-8.6-2.6-17.3-2.6-26-.4-11.4 2.9-21 9.2-30.2 16.2-5.5 4.2-10 9.1-13.1 15.3-3 6-2.8 12.2-2.1 18.5.2 1.3.6 2.6.9 4.2-5.8.8-11.3 1.6-16.9 2.4.2-.6.7-1.2.6-1.7-1.4-4.6.3-8.9 1.8-12.9 3.3-9 7.3-17.8 12.9-25.7 8.7-12.3 20-21.1 34.9-24.7 6.1-1.5 12.3-2.8 18.6-2.6 1.2 0 2.5 0 3.7-.4.7-.2 1.5-.4 2.2-.3 8.9 1 18 1.1 26.5 4.5 6.2 2.5 12.1 5.7 16.9 10.4 4.2 4.2 7.5 9.2 9.8 14.7.5 1 .7 2 1.7 2.4ZM641.3 347.5c-7.2-.3-14.1-1.9-20.9-4-2.8-.9-5.1-2.5-6.2-5.4-1.7-4.3-.1-8.8 4.1-10.9 3-1.5 6.1-2.6 9.6-1.5 2 .6 4.2.2 6.3.3 4.5.1 8.8.8 13 2.2 3.1 1.1 5.3 3.3 6.8 5.9 2.3 4.2-.4 10.2-5.1 12.3-2.4 1.1-5 1.3-7.6 1.1ZM595.1 235.2c6.3.6 12.8.7 19 2.3 2.5.6 5 1.6 6.8 3.6 3.5 3.9 3 11.4-2.6 14.3-3 1.6-6.3 2.5-9.6 2.1-4.5-.6-9-1-13.4-2.5-3.3-1.1-6.3-2.8-9.2-4.6-2.9-1.8-4-4.5-3.9-7.5.1-3.2 2.3-5.3 5.2-6.6 2.5-1.1 5-1.3 7.7-1.1ZM581.9 163.9c-6.2-1.9-12.8.1-19.1-1.6-3-.9-5.4-2.5-6.7-5.3-2.5-5.1 1-11.3 6.6-12.6 4.6-1.1 9.1 0 13.5.4 2.9.3 5.9-.1 8.8 1.1 1.3.5 2.6.9 3.7 1.6 3 1.8 4.7 4.4 4.5 7.9-.3 3.7-2.5 6.2-5.8 7.5-1.8.6-3.6 1.2-5.5 1ZM793.8 285.8c-1.3-.1-2.7.2-4-.3-2.9-1.2-5.6-2.8-6.1-6.3-.6-4 .5-7.5 4.2-9.5a46.4 46.4 0 0 1 19-5.5c5.2-.3 9.8 3.9 7.6 11.2-.7 2.5-2.2 4.7-3.8 6.8a7.29 7.29 0 0 1-5.9 2.8c-3.7-.1-7.3 1-11 .8ZM419.7 79c-5.1.2-8.3-2.2-11.2-5.1-2.6-2.6-1.2-6.1 1.6-8.4 5.3-4.1 11.4-6.3 18.2-5.8 3.2.2 6.5 3.3 7.5 6.8.8 2.9-.7 6.9-3.4 8.8-1 .7-2 1.5-3.2 1.7-1.3.3-2.6.9-3.9 1.2-2 .4-4.1.6-5.6.8ZM271.1 293.2c-2.1.1-4.7.1-7.2-1-7.4-3.1-8.2-12.8-3.4-16.5 2.6-2 5.5-2.3 8.4-1.8 3 .5 6 1.2 9 2 4.2 1.1 6.9 6.4 6.4 9.4-.7 4-4.5 7.6-8.7 7.8-1.3.2-2.7.1-4.5.1ZM452.3 121.4c5.8.1 9.6 3.2 9.9 7.9.3 4.4-2.1 8-7.5 9-3.8.7-7.7 1.5-11.7.3-3.4-1-6.6-3.8-6.8-6.9-.3-3.5 2-6.9 5.7-8 2.8-.9 5.7-1.5 8.6-2.1.7-.2 1.5-.2 1.8-.2ZM609.6 187.6c-1.5 0-3.5.1-5.4-.6-4.1-1.5-6.9-5-6.6-8.9.3-3.9 3.8-7.8 7.9-8.2 3.8-.4 7.7 0 11.2 1.7 4.1 1.9 5.6 5.2 4.6 9.9-.6 3.1-4.3 6-8 6.2-1-.1-2.1-.1-3.7-.1ZM516.9 160.1c-3.6-.2-7-.8-9.7-3.7-2.3-2.4-3.1-5-2.2-8.1 1.1-3.4 3.5-5.4 6.9-6 5.2-.9 12.3 2.4 14.9 7.2 2.3 4.1.8 7.5-3.8 9.5-1.9.8-4 1.3-6.1 1.1ZM672.4 324.4c-6.7-.1-9.9-3.4-10-8.4-.1-3.4 1.3-6.2 4.7-7.8 4-1.8 8-2.1 12.1-.1 3 1.4 4.7 3.9 4.7 7s-1.4 6-4.6 7.5c-2.3 1.2-4.6 2.1-6.9 1.8ZM448.5 82.8c3.4-.7 5.7 1 7.8 3.3 3.3 3.6 2.4 9.2-1.9 11.6-3.8 2.2-7.8 2.9-12 1.1-1.3-.5-2.4-1.3-3.2-2.4a7.99 7.99 0 0 1 3-12.6c1.9-.8 4.1-1.4 6.3-1ZM606.6 142.5c-.4-3.6 1.4-5.8 4.6-7.1 4.8-1.9 12.6-.3 14.8 5.5 1.2 3.1.2 7.4-2.6 9.2-4.9 3.2-12.4 1.8-15.6-2.7a6.6 6.6 0 0 1-1.2-4.9ZM450.4 200.3c-4.5-.1-7.5-.9-9.9-3.4-2.5-2.7-2.5-6.1 0-8.9 4.3-4.7 9.9-5.7 14.9-2.6 3.8 2.3 4.7 7.8 1.9 11.2-2.1 2.5-4.7 3.9-6.9 3.7ZM800.4 314.8c-5.9.6-8.5-4.8-8.6-8.6-.1-4.9 3.8-8.5 8.9-8.5 4.5 0 9 4.4 8.9 8.7-.1 5.1-3.7 8.4-9.2 8.4ZM295 272.4c-2.2.1-5 .3-7.1-2-1.9-2-3.3-4-2.2-6.9 1.1-2.9 3.1-4.8 6.2-5.2 1.9-.3 4-.2 5.9 0 2.1.2 4 1.1 5.5 2.8 1.8 2 2.5 4.3 1.5 6.8-1.1 2.6-3 4.2-5.9 4.4-1.1.1-2.3.1-3.9.1ZM427.3 233c-1.8.2-3.8-.3-5.7-1.3-3.9-2.1-4.2-7.5-.4-10.5 3.1-2.5 12.4-2 15.3.1 3.1 2.3 2.3 7.9-1.4 9.9-2 1.1-4.9 1.8-7.8 1.8ZM476.3 199.1a6 6 0 0 1 3.7-5.9c4.2-2.1 9-1.6 11.9 1.4 3.1 3.2 3 7.8-.4 10.8-2.4 2.2-6.7 2.8-9.7 1.3-3-1.6-5.5-3.7-5.5-7.6ZM728 293.9c-5.3-.1-8-3.9-6.3-8.8 1-2.8 2.9-4.7 5.7-5.2 3.1-.5 6.2-.4 8.5 2.4 2.1 2.6 2.2 5.9-.1 8.4-2.1 2.3-4.8 3.5-7.8 3.2ZM612.5 293.9c-3.1 0-5.7-2-6-4.5-.3-2.9 1.2-5 4.1-6.1 2.8-1 5.3-.5 7.7.9 1.7 1 2.3 2.5 2.3 4.3-.1 1.8-.8 3.3-2.6 4.1-1.8.8-3.6 1.5-5.5 1.3Z" fill="#938456"/><path d="M315.5 282.8c3.3-.8 6.5 3.2 6.5 6.1 0 2.7-3.2 5.8-5.8 5.8-3.4-.1-6.6-3.2-6.5-6.4.2-3.2 2.6-5.5 5.8-5.5ZM640 127.4c-.2 3.2-3.1 5.5-6.4 5.2-2.6-.3-5-3.3-4.8-6.1.3-2.9 3-5.3 5.7-5.1 3.3.3 5.7 3 5.5 6ZM645.2 285c-1.6.2-2.9-.1-4.1-1a4.3 4.3 0 0 1-.4-6.7c2.6-2.6 6.7-2.7 9.4-.4 2.5 2.1 2.5 4.4 0 6.5-1.5 1.3-3.2 1.9-4.9 1.6ZM660.7 83.5c1.6.2 3.1.8 4 2.3 1.4 2.4 2 5 2.6 7.6.3 1.3-.6 2.1-1.6 1.8-3.3-.9-6.8-1.4-9-4.6-1-1.5-1.4-3.1-.3-4.8.9-1.6 2.4-2.2 4.3-2.3Z" fill="#938456"/><path d="M835.7 319.2c2.9-2 4.5-5.1 6.7-7.8.5-.7 1.3-1.3 2.2-.7.8.5 1.6 1.2 1.2 2.4-.2.6-.3 1.2-.6 1.7-1.6 2.6-3.3 5.2-5.6 7.3-2 1.8-4.1 3.5-6.2 5.2-.2 0-.5.1-.7.1-.5.3-1.1.2-1.5.6-1.5-.2-2.3-.5-1.1-2.2 1.6-2.3 3.9-4.2 5.6-6.6Z" fill="#56443D"/><path d="M433.5 109.5c-2.7-.1-5.4-2.6-5.4-5.1-.1-2.6 2.2-4.6 5.2-4.5 2.7 0 5.2 2.9 5.1 5.7-.1 2.1-2.4 4-4.9 3.9ZM319.9 308.8c.7 0 1.5 0 2.2.1 1.9.5 2.9 2.4 2.2 4-1.2 2.6-7.4 5.3-10.3 3.4-2.5-1.7-2.7-4.2 0-5.8 1.8-1.1 3.8-1.8 5.9-1.7ZM557.7 183.9c-3.4 0-5.7-1.9-5.4-4.5.3-2.4 3.3-4.1 6.3-3.6.5.1.9.3 1.4.5 2.9 1.2 3.7 2.1 3.4 4.1-.3 1.8-2.1 3.3-4.6 3.5h-1.1Z" fill="#938456"/><path d="M667.2 253c2.6 0 4.5.4 6.1 1.7 1.1.9 1 2.2-.4 2.5-2.2.5-4.4 1.6-6.8.6-1.2-.5-2.4-.3-3.6-.4-.6 0-1.2-.2-1.4-.9-.2-.7.1-1.2.6-1.6 1.6-1.7 4-1.2 5.5-1.9Z" fill="#948556"/><path d="M831.2 328.1c.4-.5.9-.7 1.5-.6-.3.5-.9.7-1.5.6Z" fill="#938456"/><path d="M88 135.5c-.7 3.1-.7 6.4-1.6 9.5-1.4 4.7-3.9 8.5-8.5 10.6-6.1 2.8-12.5.9-16.1-4.8-2.2-3.5-2.9-7.6-3.6-11.6-1.8-10.1.9-18.6 9.3-24.7 7.4-5.3 14.8-3.3 18.6 4.8 2.5 5.2 3.1 10.6 1.9 16.2Z" fill="#282828"/><path d="M88 135.5c-.1-4.2-.2-8.4-1.4-12.5-.5-1.7-1.1-3.3-2-4.8-3.5-6-9.6-7.3-15.5-3.6-7.7 4.9-10.2 12.3-10.7 20.9-.1 1.2-.1 2.5-.1 3.7-.6-2.4-2-4.3-3.9-5.8-2.7-2.1-2.7-7.9-.6-11.8 2.9-5.4 6.9-9.6 12.6-12 9.1-3.8 19.2-1.5 25 6.9 3.4 4.9 3.8 10-1.3 14.2-1 .8-1.4 1.6-1.3 2.8-.1.8-.1 1.5-.8 2ZM129.2 128.9c-.3 0-1.3-.1-2.2-.6-4.4-2.2-5.8-6.3-6.3-10.7-.4-3.8 1.4-7 4.5-9.2 2.4-1.8 6.2-1.5 8.6.6 4.2 3.5 6.3 11.5 2.2 17.1-1.3 2-3.6 2.8-6.8 2.8Z" fill="#D3C395"/><path d="M18.7 168.3c-1-2-1.3-4.2-1.4-6.4-.3-3.7 1.6-6.1 4.6-7.2 2.9-1.1 5.9-1 8.7 1.1 3.6 2.8 4.3 6.4 3.8 10.5-.3 2.5-4.4 6.8-7.7 6.4-1.5-.2-2.9-.6-4.3-.9 0-2.4 1.1-4.8.7-7.2-.1-.8 0-1.9-1.1-2-1-.1-1.4.9-1.7 1.6-.8 1.3-.3 3.1-1.6 4.1Z" fill="#D2C295"/><path d="M152.7 216.8c.1 1.5-.1 3.1-1.3 4.3a3.8 3.8 0 0 1-4.3 1c-4.9-1.6-8.5-7.6-7.2-12 .7-2.3 2.3-3.5 4.4-3.8 2.4-.4 4.4.4 5.8 2.4 1.4 1.8 2.6 5.5 2.6 8.1ZM51.6 188.8c-.6 2.3-.9 4.4-3.2 5.6-2.3 1.1-4.3.6-6.2-.9-2.7-2.3-3.7-6.1-2.2-8.8 1.9-3.7 6.9-4.1 9.5-.9 1.2 1.5 1.3 3.4 2.1 5ZM67.1 189.4c0 4.5-1.3 6.8-3.7 7.1-2.9.4-6.1-1.7-7.2-4.7-.1-.2-.2-.5-.2-.7-.1-2.4-.6-5.1 1.7-6.8 1.8-1.4 3.9-1.6 5.9-.5 2.7 1.2 3.3 3.7 3.5 5.6ZM144.8 112.5c3.5 0 5.7 2.5 5.7 6.7 0 3-2.4 5.9-4.9 5.9-3.1-.1-6.2-3.3-6.3-6.7-.1-3.9 1.7-5.9 5.5-5.9ZM172.1 210.7c-.1 1.9.1 3.1-.4 4.1-1 2.1-3.9 2.9-6 1.6-2.8-1.8-4.1-4.4-4.2-7.8 0-2.2 1-3.7 2.8-4.4 1.8-.7 3.8-.8 5.5.9 1.9 1.8 2.5 4 2.3 5.6ZM131.1 173.1c0 2.8-1.9 4.8-4.5 4.8-3.6 0-6.3-3-6.3-6.8 0-2.6 2.1-4.4 4.9-4.3 3.3 0 5.9 2.9 5.9 6.3ZM96.9 174.6c0-.6-.1-1.2 0-1.8.4-2.8 3.2-4 5.5-2.3 2.7 2 3.5 7.7 1.5 10.4-1.5 1.9-3.2 2-5 .2-1.7-1.8-2-4.1-2-6.5Z" fill="#D3C395"/><path d="M18.7 168.3c.2-1.9 0-3.9 1.1-5.7.6-1 1.3-1.9 2.6-1.6 1.3.3 1.6 1.3 1.7 2.5 0 2.9.3 5.9-1.7 8.4-2.5 0-3.2-1.8-3.7-3.6Z" fill="#58473F"/><path d="M113.2 173.8c0 1.9-1.2 3.3-3.2 3.3-1.9.1-3.5-1.6-3.4-3.5a3.4 3.4 0 0 1 3.4-3.2c2 .2 3.2 1.5 3.2 3.4Z" fill="#D4C495"/><path d="M331.3 456c.6 4.4-3.7 8.2-9.7 8.3-5.6.1-9.1-4.4-8.8-8.1.4-5.4 4.8-9.2 10.7-9.1 4.7.2 7.8 3.7 7.8 8.9ZM283.9 455.3c3.4-.1 5.8 3.1 4.7 6.3-.6 1.9-1.6 3.6-3.2 4.9-1.8 1.6-2.6 1.7-4.6.3-2-1.4-2.9-4.1-2.2-6.6.9-3 2.8-4.8 5.3-4.9ZM355.8 442.5c0 2.4-1 4.6-1.9 6.7-1 2.1-3.3 2.2-4.9.4-2.7-3.1-1-9.6 2.9-10.9 2.3-.8 4 .8 3.9 3.8Z" fill="#D3C395"/><path d="M371.7 430.9c1.3-.1 3.3 2 3.4 3.5.1 1.8-1.7 4.2-3.4 4.4-1.4.2-3.3-2.1-3.3-3.9.1-1.7 1.9-4 3.3-4ZM294 455.4c-.2-1.5.4-2.7 2-3.4 1.1-.5 2-.1 2.7.6 1.1 1.1 1.6 2.5.9 4-.7 1.5-1.4 3-3.1 3.4-1.1.3-2.5-2.4-2.5-4.6Z" fill="#D4C496"/><path d="M745.7 435.3c.2 1.7-.2 3.6-1.3 5.4-1.2 2.1-3 2.6-4.9 1.3-3.1-2.1-4.4-7.2-2.8-10.6 1-2 3.3-3.6 4.9-3.4 2 .4 3.9 2.8 4 5.1.1.7.1 1.3.1 2.2ZM707 442.1c-.2-3.2.6-5.5 2-7.6 1.1-1.7 3.3-2.4 4.5-1.9 1.5.7 2.7 3.3 2.3 5.1-.6 2.8-1.6 5.4-3.4 7.7-.6.8-1.1 1.8-2.3 1.6-1.3-.2-2.2-1-2.8-2.2-.4-1.1-.2-2.2-.3-2.7Z" fill="#D3C395"/><path d="M698.8 382.5c16.1-2.5 31.8-6.8 47.6-10.7 9-2.2 17.4-6.2 26-9.7 4-1.6 8-3.3 12-4.9 1 .2 1.8.6.8 1.6-.6.6-1.4 1-2.2 1.3-7.1 2.8-14 6.3-21.3 8.5-13 3.9-26.1 7.3-39.3 10.2-7.6 1.7-15.1 3.6-22.6 5.5-1.7.4-3.4.9-4.5-1.1.2-.1.4-.1.7-.1.7-.7 1.9.1 2.8-.6Z" fill="#9E905E"/><path d="M257.8 396.6c-3.6-.1-5.5-1.8-5.4-5.1.1-2.5 1.7-4 4.3-3.9 2.9.1 5.4 2.8 5.4 5.6-.1 2.4-1.5 3.4-4.3 3.4Z" fill="#D3C395"/><path d="M372.2 366.8c.9-4.6 1.7-9.2 2.3-13.8 1.3-9.3 3.8-18.3 7.7-26.9 4.8-10.8 11.4-20.5 19-29.5 7.3-8.6 15.3-16.4 24.4-23.1 5.7-4.3 11.4-8.7 17.5-12.4 7.8-4.6 16.1-8.2 24.4-11.7 6.3-2.6 12.9-4.4 19.6-5.1 5.5-.5 10.9-1.1 16.6-.4 5.8.6 11.5 1.4 17 3.2 3.4 1.1 6.6 2.7 9.6 4.7 4.8 3.2 9.5 6.7 14.5 9.7 6.8 4.1 11.2 10 13.9 17.3 2.9 7.9 4.6 16 5.7 24.4 1 8.3-.7 16.1-2.3 24.1-2.1 10.4-5 20.6-7.5 30.9-1.4 5.7-3.4 11.1-5.9 16.4-1.6 3.3-2.3 6.5-.6 9.8-1.2.6-2.4.5-3.5.4-7.9-1.4-15.8-.1-23.7-.8-7.3-.6-14.6-.2-21.8-.8-4.2-.4-8.4-.2-12.6-.6-8.2-.8-16.5-.8-24.7-1.6-7.7-.7-15.5-1.1-23.1-2.2-6.3-.9-12.7-1.9-19-2.7-7.2-.9-14.2-2.9-21.5-3.3-1-.1-1.9-.5-2.9-.7-6.9-1.8-13.9-3-20.8-4.5-.7-.8-1.7-.1-2.3-.8ZM695.8 377.4c-1.3.9-2.4.6-2.1-1 1.3-8.8 2.6-17.4 10-23.9 5.3-4.7 11.1-8.6 17.1-12.3 5.7-3.5 11.9-5.9 18.5-7.1 9.4-1.7 17.9.4 25.6 5.9 5.5 3.9 10.1 9 14.9 14.1-2.1 2.2-4.9 2.6-7.3 3.7-13.3 5.7-26.8 10.5-41 13.5-8.2 1.7-16.3 3.6-24.5 5.5-3.9-.1-7.7-.4-11.2 1.6Z" fill="#5F532F"/><path d="M374.4 367.6c4.2-.1 8.2 1.1 12.2 2 2.9.7 6.1.6 8.7 2.4-3.9-.4-7.7-1-11.4-2-3.2-.8-6.6-.8-9.5-2.4Z" fill="#6F6242"/><path d="M695.8 377.4c-.4-.2-1-.1-1.2-.7-.1-.4 0-.8.5-.8 3.8 0 7.5-1.4 11.3-.6.2 0 .4.3.5.5-.5 0-1 .1-1.4.1-.6.6-1.6 0-2.2.7-2.6-.4-5 .6-7.5.8Z" fill="#9B895C"/><path d="M372.2 366.8c.8 0 1.7-.1 2.2.8-.7 0-1.3 0-2-.1-.4 0-.5-.3-.2-.7Z" fill="#6F6242"/><path d="M698.8 382.5c-.8 1-2 .6-3 .6.8-.9 1.9-.6 3-.6Z" fill="#938456"/><path d="M703.2 376.5c.6-.8 1.4-.7 2.2-.7-.5.8-1.3.7-2.2.7Z" fill="#5F532F"/><path d="M71.1 137.7c-.2 1.3-.2 2.5-.7 3.6-.6 1.2-1.5 1.9-2.9 1.7-1.4-.2-2.2-1.1-2.4-2.4-.2-1.6 0-3.2.4-4.7s1.4-2.4 3-2.3c1.7.1 2.6 1.3 2.7 3-.1.4-.1.8-.1 1.1Z" fill="#FAFAFA"/><path d="M27 166c-.1-1.9.2-2.9.8-3.9.8-1.3 2.1-1.7 3.5-1.3 1.5.4 1.6 1.7 1.5 2.9-.1 1.3-.3 2.5-.9 3.5-.6 1.1-.8 3.1-2.4 2.8-1.5-.2-2-2-2.5-3.4v-.6Z" fill="#58473F"/></svg>